<svg width="80" height="76" viewBox="0 0 80 76" fill="none" xmlns="http://www.w3.org/2000/svg">
<g clip-path="url(#clip0_529_2551)">
<path d="M41.3319 6.18372C42.2226 7.05053 42.5985 8.40612 42.2798 9.60238C41.9611 10.8013 40.9643 11.7951 39.7577 12.1164C40.3678 11.6844 40.5121 10.8851 40.4822 10.1425C40.4549 9.39985 40.2506 8.66805 40.267 7.92545C40.2833 7.18285 40.6538 6.50236 41.3319 6.18372Z" fill="#713900"/>
<path d="M29.8026 17.2135C30.7042 16.7571 31.8073 17.1109 32.2676 18.0047L36.2278 25.6845C37.222 27.6099 39.1939 28.8116 41.3756 28.8143L49.9742 28.8305C49.6011 30.0321 49.5058 31.2608 49.3641 32.4625L41.3674 32.4462C37.8048 32.4381 34.5854 30.4804 32.9621 27.3372L29.0019 19.6573C28.5416 18.7635 28.8984 17.6698 29.7999 17.2135H29.8026Z" fill="#8C3A19"/>
<path d="M29.0509 38.9606H45.9323C48.2937 38.9606 50.2085 40.8589 50.2085 43.2001V61.3331H45.9323V44.391C45.9323 43.7348 45.3957 43.2001 44.7312 43.2001H33.3271C30.9657 43.2001 29.0509 41.3018 29.0509 38.9606Z" fill="#003F47"/>
<path d="M46.2564 60.5647H49.8298V65.1067H46.2564V60.5647Z" fill="#BA9868"/>
<path d="M50.756 60.0705V61.3289H45.3822V60.0705H50.756Z" fill="#00262B"/>
<path d="M22.5168 21.8389H11.1808C8.47346 21.8389 6.27545 24.0181 6.27545 26.7022V44.3221H27.4221V26.7022C27.4221 24.0181 25.2241 21.8389 22.5168 21.8389Z" fill="#B54100"/>
<path d="M16.7889 25.3625C12.6489 25.3625 9.28511 28.6948 9.28511 32.8021V44.3245H24.2926V32.8048C24.2926 28.7002 20.9316 25.3652 16.7889 25.3652V25.3625Z" fill="#8A3100"/>
<path d="M69.3315 75.984C63.8786 75.984 59.4581 71.6014 59.4581 66.1952C59.4581 60.789 63.8786 56.4064 69.3315 56.4064C74.7844 56.4064 79.2048 60.789 79.2048 66.1952C79.2048 71.6014 74.7844 75.984 69.3315 75.984Z" fill="#472B0E"/>
<path d="M61.8189 66.7589C61.5019 62.6458 64.608 59.0566 68.7566 58.7423C72.9053 58.428 76.5255 61.5076 76.8425 65.6207C77.1596 69.7339 74.0535 73.323 69.9048 73.6373C65.7562 73.9516 62.136 70.8721 61.8189 66.7589Z" fill="#40260D"/>
<path d="M69.3314 72.3681C65.8927 72.3681 63.1051 69.6043 63.1051 66.195C63.1051 62.7857 65.8927 60.022 69.3314 60.022C72.7701 60.022 75.5577 62.7857 75.5577 66.195C75.5577 69.6043 72.7701 72.3681 69.3314 72.3681Z" fill="#91704F"/>
<path d="M65.8179 61.0994C64.949 62.1606 64.4288 63.5108 64.4288 64.9825C64.4288 68.3904 67.2151 71.1555 70.6552 71.1555C71.9598 71.1555 73.1691 70.7559 74.1687 70.0781C73.0275 71.4742 71.2843 72.368 69.3314 72.368C65.8942 72.368 63.1051 69.6055 63.1051 66.195C63.1051 64.0779 64.181 62.2119 65.8179 61.0994Z" fill="#87684A"/>
<path d="M69.3315 69.1543C67.6828 69.1543 66.3463 67.8293 66.3463 66.1947C66.3463 64.5602 67.6828 63.2351 69.3315 63.2351C70.9802 63.2351 72.3167 64.5602 72.3167 66.1947C72.3167 67.8293 70.9802 69.1543 69.3315 69.1543Z" fill="#A18D7A"/>
<path d="M66.9238 64.208L64.8374 66.2765C63.56 67.5429 61.8278 68.2531 60.022 68.2531H58.513C57.8103 68.2531 57.2084 67.7401 57.1158 67.0488C56.966 65.9146 56.9769 64.7346 57.1839 63.5194C58.1018 58.1241 62.6912 53.979 68.1957 53.5982C73.2917 53.2445 77.7695 56.0394 79.8558 60.2141C80.3188 61.1404 79.6352 62.2286 78.592 62.2286H71.742C69.9362 62.2286 68.2039 62.9388 66.9265 64.2053L66.9238 64.208Z" fill="#19A5FC"/>
<path d="M57.1131 67.0488C56.9633 65.9147 56.9742 64.7346 57.1812 63.5194C57.2084 63.3682 57.2356 63.217 57.2683 63.0658L61.678 56.0853C63.5137 54.6676 65.7635 53.7657 68.1903 53.5983C70.0124 53.4714 71.7529 53.7495 73.3353 54.3463C73.191 54.5866 72.9785 54.7864 72.7143 54.9161C71.7175 55.3967 66.5588 54.6595 65.2079 57.341C64.0067 59.7227 61.1768 64.6293 59.0578 68.2559H58.5076C57.8049 68.2559 57.203 67.7428 57.1104 67.0515L57.1131 67.0488Z" fill="#189BED"/>
<path d="M1.78417 50.0207H1.87679C2.34526 50.0207 2.77015 49.7425 2.95536 49.3159C3.14057 48.8892 3.56546 48.6111 4.03394 48.6111H7.07629V53.6446H1.08419C0.307943 53.6446 -0.217734 52.8561 0.0900416 52.1486L0.705597 50.7282C0.890807 50.3015 1.3157 50.0234 1.78417 50.0234V50.0207Z" fill="#D92400"/>
<path d="M11.0092 75.984C5.55632 75.984 1.13588 71.6014 1.13588 66.1952C1.13588 60.789 5.55632 56.4064 11.0092 56.4064C16.4621 56.4064 20.8826 60.789 20.8826 66.1952C20.8826 71.6014 16.4621 75.984 11.0092 75.984Z" fill="#472B0E"/>
<path d="M3.77272 68.2854C2.60834 64.3251 4.90265 60.1789 8.8972 59.0247C12.8917 57.8704 17.0739 60.1452 18.2383 64.1055C19.4026 68.0658 17.1083 72.212 13.1138 73.3662C9.11923 74.5205 4.9371 72.2457 3.77272 68.2854Z" fill="#40260D"/>
<path d="M11.0093 72.3681C7.57055 72.3681 4.78292 69.6043 4.78292 66.195C4.78292 62.7857 7.57055 60.022 11.0093 60.022C14.448 60.022 17.2356 62.7857 17.2356 66.195C17.2356 69.6043 14.448 72.3681 11.0093 72.3681Z" fill="#91704F"/>
<path d="M7.49574 61.0994C6.62689 62.1606 6.10667 63.5108 6.10667 64.9825C6.10667 68.3904 8.89299 71.1555 12.333 71.1555C13.6376 71.1555 14.847 70.7559 15.8466 70.0781C14.7053 71.4742 12.9649 72.368 11.0093 72.368C7.57201 72.368 4.78296 69.6055 4.78296 66.195C4.78296 64.0779 5.85881 62.2119 7.49574 61.0994Z" fill="#87684A"/>
<path d="M11.0092 69.1543C9.36057 69.1543 8.02407 67.8293 8.02407 66.1947C8.02407 64.5602 9.36057 63.2351 11.0092 63.2351C12.6579 63.2351 13.9944 64.5602 13.9944 66.1947C13.9944 67.8293 12.6579 69.1543 11.0092 69.1543Z" fill="#A18D7A"/>
<path d="M56.4539 26.8694L59.0387 25.8702C59.0387 25.8702 62.5304 28.6462 59.8204 32.3997L56.4512 26.8694H56.4539Z" fill="#C2E7FC"/>
<path d="M58.6492 34.1118C58.4531 33.326 58.9761 32.5375 59.7823 32.4079L59.8231 32.4025L59.0414 25.873L56.4757 25.1088C54.6127 24.5552 52.5972 24.8496 50.9766 25.9135L50.1295 26.4698C49.0591 27.1719 48.5362 28.4519 48.8058 29.694L48.9012 30.1261C49.4922 32.8427 50.6879 35.3945 52.3956 37.5953L53.9155 39.5531L58.6547 34.1091L58.6492 34.1118Z" fill="#1693E0"/>
<path d="M50.4536 28.2222C50.0586 29.6047 50.8703 31.044 52.2648 31.4329C53.6593 31.8217 55.1111 31.0197 55.5033 29.6371C55.8982 28.2546 55.0866 26.8153 53.692 26.4264C52.2975 26.0349 50.8458 26.8396 50.4536 28.2222Z" fill="#1588D1"/>
<path d="M11.0092 69.1543C9.36057 69.1543 8.02407 67.8293 8.02407 66.1947C8.02407 64.5602 9.36057 63.2351 11.0092 63.2351C12.6579 63.2351 13.9944 64.5602 13.9944 66.1947C13.9944 67.8293 12.6579 69.1543 11.0092 69.1543Z" fill="#B88F67"/>
<path d="M11.0583 61.7284H25.8697C28.1456 61.7284 29.9906 63.5576 29.9906 65.8141V65.8167C29.9906 68.0732 28.1456 69.9024 25.8697 69.9024H11.0583C8.78236 69.9024 6.93736 68.0732 6.93736 65.8167V65.8141C6.93736 63.5576 8.78236 61.7284 11.0583 61.7284Z" fill="#0C4A73"/>
<path d="M26.0849 69.8917L24.2137 65.3119L8.43542 62.6628C9.14902 62.0795 10.0615 61.7312 11.0583 61.7312H25.867C28.144 61.7312 29.9879 63.562 29.9879 65.8169C29.9879 68.0015 28.2584 69.781 26.0822 69.8917H26.0849Z" fill="#093B5C"/>
<path d="M58.5919 33.7277C58.5919 33.7277 71.7255 46.4833 72.2376 52.0699C72.2893 52.6235 71.9598 53.1365 71.4532 53.3714C70.4672 53.8331 65.265 53.0879 63.8841 55.8259C62.4895 58.5935 58.8915 64.7769 56.7671 68.3897C55.7566 70.1071 53.9045 71.1628 51.8999 71.1628H31.4069C29.119 71.1628 27.0408 69.837 26.0902 67.7714L23.9848 63.1892L2.99069 59.6628C0.800845 59.3793 -0.46023 57.0598 0.490335 55.086C3.05604 49.7505 9.60378 42.271 26.1229 45.5301C50.1213 50.2662 42.6148 46.4023 38.0309 54.3084C38.0309 54.3084 33.5531 61.5745 39.6596 62.9867C45.7661 64.3989 50.6524 65.0037 53.5014 60.1623C56.3503 55.3182 53.6022 47.9522 53.2971 43.7156C52.992 39.4763 51.0582 36.7519 58.5892 33.725L58.5919 33.7277Z" fill="#19A5FC"/>
<path d="M30.4917 70.1043C29.0019 70.1043 27.6019 69.54 26.5451 68.5787C26.3763 68.3249 26.221 68.0576 26.0903 67.7741L24.8319 65.0388L46.1066 65.7786C49.4867 65.8948 52.6734 64.2179 54.4683 61.3774L60.0764 52.5019C61.7133 49.9125 61.9775 46.6939 60.7818 43.8776C59.5752 41.0316 58.0854 37.6537 57.2683 36.3036C56.8624 35.634 56.7045 35.0669 56.6854 34.5917C57.241 34.3055 57.8729 34.0193 58.592 33.7303C60.9861 36.5547 70.7423 46.278 71.3034 50.8359C71.3797 51.4624 71.0474 52.0699 70.4754 52.3453C69.4785 52.8259 64.3199 52.0888 62.9689 54.7701C61.5744 57.5377 57.9764 63.7211 55.8519 67.3339C54.8442 69.0513 52.9894 70.107 50.9847 70.107H30.4917V70.1043Z" fill="#1798E8"/>
<path d="M0.490386 55.0895C0.550307 54.9653 0.612953 54.8383 0.678321 54.7087C5.19419 45.7813 16.6418 42.9189 25.058 48.4088C32.0551 52.9751 36.9578 63.4255 36.9659 67.7056C36.9687 69.8929 31.2435 67.5814 29.1435 66.909L25.4638 66.3203L23.9876 63.1933L2.99345 59.6666C0.803611 59.3831 -0.457452 57.0635 0.493113 55.0895H0.490386Z" fill="#44B5FC"/>
<path d="M0.490361 55.0895C0.550282 54.9653 0.612927 54.8384 0.678296 54.7087C4.79378 46.5698 14.6671 43.4752 22.7565 47.1477C16.3831 46.8615 10.0723 50.1289 6.98907 56.2209C6.9237 56.3479 6.86106 56.4748 6.80114 56.6017C6.13383 57.9897 6.56146 59.5424 7.62914 60.4443L2.99071 59.6666C0.800867 59.3831 -0.460204 57.0635 0.490361 55.0895Z" fill="#3EA5E6"/>
<path d="M72.2212 51.8917C72.2975 52.5181 71.9652 53.1257 71.3932 53.4011C70.3964 53.8817 65.2377 53.1446 63.8868 55.8258C62.4922 58.5935 58.8943 64.7769 56.7698 68.3897C55.762 70.107 53.9072 71.1628 51.9026 71.1628H31.4096C29.1217 71.1628 27.0435 69.837 26.0929 67.7714L25.3167 66.0811L47.0272 66.8344C50.4073 66.9505 53.594 65.2737 55.3889 62.4332L60.9969 53.5577C62.6339 50.9682 62.8981 47.7496 61.7024 44.9334C60.4958 42.0874 59.0059 38.7095 58.1888 37.3594C56.6608 34.8374 58.5947 33.7277 58.5947 33.7277C58.5947 33.7277 71.5267 46.2564 72.2212 51.8917Z" fill="#4BB6FC"/>
<path d="M6.12297 43.4618H26.7875C27.5457 43.4618 28.1603 44.0711 28.1603 44.8228V44.8255C28.1603 45.5771 27.5457 46.1865 26.7875 46.1865H6.12297C5.36482 46.1865 4.75023 45.5771 4.75023 44.8255V44.8228C4.75023 44.0711 5.36482 43.4618 6.12297 43.4618Z" fill="#DEDEDE"/>
<path d="M6.12297 44.7687H26.7848C27.2805 44.7687 27.7109 44.5068 27.9533 44.1152C28.0813 44.3232 28.1603 44.5635 28.1603 44.8254C28.1603 45.5788 27.5447 46.1864 26.7875 46.1864H6.12568C5.36578 46.1864 4.75295 45.5761 4.75295 44.8254C4.75295 44.5635 4.83194 44.3232 4.95995 44.1152C5.20236 44.5041 5.6327 44.7687 6.12841 44.7687H6.12297Z" fill="#CFCFCF"/>
<path d="M25.9868 43.9939C26.4144 42.7787 27.8961 42.0199 29.4023 42.2576C34.6617 43.0839 35.6695 40.4753 40.9534 43.732C43.974 45.5925 44.1238 47.5611 43.5273 49.0571C42.9935 50.3992 40.7137 50.7502 39.5017 49.6971C39.5017 49.6971 32.3575 48.941 27.8062 48.4414C26.4525 48.2929 25.4584 47.3099 25.5428 46.1866C25.6 45.4332 25.7417 44.6933 25.9841 43.9966L25.9868 43.9939Z" fill="#472B0E"/>
<path d="M42.9935 45.468C43.9958 46.7615 43.9413 48.0226 43.53 49.0541C43.4238 49.3188 43.2468 49.5456 43.0262 49.7292V45.7354C43.0262 45.6409 43.0125 45.5517 42.9935 45.4653V45.468Z" fill="#38220B"/>
<path d="M26.9536 42.7814C27.6155 42.3278 28.5034 42.1144 29.4022 42.2549C34.6617 43.0812 35.6694 40.4726 40.9534 43.7293C41.4191 44.0182 41.8195 44.3071 42.1572 44.5988C42.051 44.5691 41.9421 44.5475 41.8277 44.5475H30.4236C28.9937 44.5475 27.7326 43.8508 26.9564 42.7814H26.9536Z" fill="#38220B"/>
<path d="M13.6403 58.626L23.135 60.1491C23.4919 60.2058 23.8296 59.9654 23.8868 59.6117C23.944 59.2579 23.7016 58.9231 23.3448 58.8664L13.85 57.3434C13.4932 57.2867 13.1555 57.527 13.0983 57.8807C13.0411 58.2345 13.2835 58.5693 13.6403 58.626Z" fill="#368EC7"/>
<path d="M13.6403 56.5145L23.135 58.0375C23.4919 58.0942 23.8296 57.8539 23.8868 57.5001C23.944 57.1464 23.7016 56.8115 23.3448 56.7548L13.85 55.2318C13.4932 55.1751 13.1555 55.4154 13.0983 55.7692C13.0411 56.1229 13.2835 56.4578 13.6403 56.5145Z" fill="#368EC7"/>
<path d="M13.6403 54.4003L23.135 55.9233C23.4919 55.9801 23.8296 55.7397 23.8868 55.386C23.944 55.0322 23.7016 54.6974 23.3448 54.6407L13.85 53.1177C13.4932 53.061 13.1555 53.3013 13.0983 53.655C13.0411 54.0088 13.2835 54.3436 13.6403 54.4003Z" fill="#368EC7"/>
<path d="M8.22145 66.3726C7.9591 64.6156 9.18311 62.9803 10.9554 62.7203C12.7276 62.4602 14.377 63.6738 14.6393 65.4308C14.9017 67.1879 13.6777 68.8231 11.9054 69.0832C10.1332 69.3433 8.48381 68.1297 8.22145 66.3726Z" fill="#137CBF"/>
<path d="M11.4287 62.687C11.859 62.687 12.2676 62.7707 12.6434 62.9219C10.9275 63.0057 9.56023 64.4071 9.56023 66.13C9.56023 67.4802 10.4018 68.6359 11.5894 69.1112C11.5349 69.1112 11.4831 69.1193 11.4287 69.1193C9.63649 69.1193 8.18476 67.68 8.18476 65.9032C8.18476 64.1263 9.63649 62.687 11.4287 62.687Z" fill="#116FAB"/>
<path d="M30.5979 24.6857C31.1073 21.2238 32.9785 17.9834 35.7294 15.7934L33.436 12.9607C29.9715 15.7205 27.6155 19.8007 26.9755 24.1618L30.6007 24.6857H30.5979Z" fill="#FFD08F"/>
<path d="M51.8754 29.1846C52.0279 29.1846 52.1587 29.0711 52.1778 28.9172L53.5505 17.3623C53.5559 17.311 53.5505 17.2597 53.5314 17.2138L51.5459 12.3208C51.4832 12.1668 51.3062 12.0912 51.1482 12.1533C50.993 12.2154 50.9167 12.391 50.9793 12.5476L52.9349 17.3704L51.5704 28.847C51.5513 29.0117 51.6711 29.163 51.8373 29.1819C51.8482 29.1819 51.8618 29.1819 51.8727 29.1819L51.8754 29.1846Z" fill="#116EA8"/>
<path d="M26.7603 38.9606H43.6417C46.0031 38.9606 47.9178 40.8589 47.9178 43.2001V61.3331H43.6417V44.391C43.6417 43.7348 43.1051 43.2001 42.4405 43.2001H31.0365C28.675 43.2001 26.7603 41.3018 26.7603 38.9606Z" fill="#004E59"/>
<path d="M43.9658 60.5647H47.5393V65.1067H43.9658V60.5647Z" fill="#FFD08F"/>
<path d="M48.4653 60.0705V61.3289H43.0915V60.0705H48.4653Z" fill="#00363D"/>
<path opacity="0.1" d="M27.9097 38.9606C28.3673 40.8103 30.0478 42.1875 32.0579 42.1875H43.4619C44.1238 42.1875 44.6631 42.7195 44.6631 43.3784V59.0621H44.1129V60.3205H44.9899V64.0983H47.542V65.1109H43.9685V61.3331H43.0915V60.0747H43.6417V44.391C43.6417 43.7348 43.1051 43.2001 42.4405 43.2001H31.0365C28.675 43.2001 26.7603 41.3018 26.7603 38.9606H27.9097Z" fill="black"/>
<path d="M27.2588 42.5808C30.5109 41.4467 33.7629 40.1235 37.015 38.9866C35.054 33.7074 34.5937 28.2338 35.6314 22.7763C36.1298 20.0706 34.8088 17.1299 32.1369 16.1091C29.484 15.0884 26.1475 17.1947 25.4339 20.9536C24.0639 28.1528 24.674 35.6166 27.2588 42.5781V42.5808Z" fill="#FF682E"/>
<path d="M32.2321 19.5789L35.3398 24.6205C35.0784 26.662 35.0266 28.7008 35.1846 30.726C34.599 30.1698 34.0788 29.5379 33.643 28.8304L29.1053 21.4719C28.5769 20.6159 28.8493 19.4979 29.7127 18.974C30.5761 18.4502 31.7037 18.7202 32.2321 19.5762V19.5789Z" fill="#ED612B"/>
<path d="M25.4339 20.9535C26.142 17.2243 29.4295 15.1234 32.0742 16.0875C30.2575 16.6977 28.6315 18.4611 28.1576 20.9535C26.8448 27.853 27.3541 34.9954 29.6747 41.7058C28.8684 42.0056 28.065 42.2972 27.2588 42.5781C24.674 35.6165 24.0639 28.15 25.4339 20.9535Z" fill="#ED612B"/>
<path d="M48.9065 27.0259C49.6665 26.9206 50.4454 26.9422 51.1999 27.088C51.6874 26.5885 52.4337 26.3319 53.1337 26.3346C53.5314 26.3346 53.9372 26.3994 54.2831 26.5939C54.7952 26.8855 55.1084 27.4364 55.2718 27.998C55.4842 28.7352 55.4734 29.5535 55.1411 30.2447C54.8088 30.936 54.1306 31.4815 53.3598 31.5598C53.18 31.5787 52.9948 31.5652 52.8232 31.5085C52.668 31.4572 52.5209 31.2844 52.3847 31.2844C52.2948 31.2844 52.1886 31.3411 52.0933 31.3492C51.9925 31.3573 51.8917 31.3519 51.7937 31.3357C51.5921 31.3033 51.3987 31.2277 51.2271 31.117C50.8703 30.8901 50.6116 30.5418 50.3937 30.1826C49.7836 29.9261 49.1626 29.8046 48.5007 29.8505C48.2801 28.9135 48.419 27.8522 48.9065 27.0178V27.0259Z" fill="#FFD08F"/>
<path d="M51.5267 28.5218C51.3006 29.3157 51.7664 30.1421 52.5672 30.3662C53.3679 30.5903 54.2014 30.1286 54.4274 29.3346C54.6535 28.5407 54.1877 27.7144 53.387 27.4903C52.5862 27.2662 51.7528 27.7279 51.5267 28.5218Z" fill="#0E5E8F"/>
<path d="M28.5307 16.7275C29.3941 16.2036 30.5217 16.4736 31.0501 17.3296L35.5878 24.6881C36.7263 26.5352 38.7854 27.5829 40.9616 27.4209L49.5358 26.789C49.2552 28.015 49.2552 29.2491 49.2062 30.4561L41.2313 31.0421C37.6796 31.3041 34.3158 29.5947 32.4583 26.5811L27.9206 19.2226C27.3922 18.3666 27.6646 17.2486 28.528 16.7248L28.5307 16.7275Z" fill="#AD471F"/>
<path d="M36.1107 16.472C33.1729 16.472 30.7914 13.7784 30.7914 10.4556C30.7914 7.13285 33.1729 4.43921 36.1107 4.43921C39.0485 4.43921 41.4301 7.13285 41.4301 10.4556C41.4301 13.7784 39.0485 16.472 36.1107 16.472Z" fill="#FFD08F"/>
<path d="M39.1531 10.0122C39.1531 10.5981 39.3574 11.0707 39.6107 11.0707C39.864 11.0707 40.0682 10.5954 40.0682 10.0122C40.0682 9.42888 39.864 8.95361 39.6107 8.95361C39.3574 8.95361 39.1531 9.42888 39.1531 10.0122Z" fill="#8A785F"/>
<path d="M40.564 12.5504C40.9725 12.9744 41.8196 12.7827 42.0048 12.2264C42.19 11.6701 41.6235 11.0193 41.0406 11.1192C40.4577 11.2192 40.1554 12.1292 40.5667 12.5531L40.564 12.5504Z" fill="#FFD08F"/>
<path d="M40.5231 13.814C39.9947 14.7024 39.2566 15.4153 38.3959 15.8798C38.2025 15.6746 38.0445 15.4396 37.9274 15.1831C37.6142 14.4999 37.6006 13.733 37.9138 13.0498C38.6846 13.5494 39.6025 13.8113 40.5231 13.814Z" fill="#FFEDD4"/>
<path d="M37.704 13.8167C37.734 13.5548 37.8021 13.2955 37.9165 13.0498C38.6873 13.5494 39.6052 13.8113 40.5258 13.814C40.3678 14.0786 40.188 14.3271 39.9946 14.5593C39.183 14.508 38.3877 14.2542 37.704 13.8167Z" fill="#FFF9F0"/>
<path d="M41.1604 7.51226C40.9806 8.22516 40.3406 8.73013 39.6842 9.06768C39.025 9.40522 38.306 9.63475 37.7095 10.0695C36.8134 10.7257 36.2823 11.8491 36.3531 12.9535C35.3045 12.3837 34.8905 11.1173 35.0839 9.948C35.2745 8.77874 36.0018 7.758 36.8379 6.91278C37.3309 6.41322 37.9029 5.94335 38.5947 5.80023C39.1748 5.67872 39.804 5.81373 40.2834 6.16208C40.7628 6.51043 41.3075 6.93979 41.1631 7.50956L41.1604 7.51226Z" fill="#713900"/>
<path d="M27.749 8.04697C27.8934 5.2845 29.405 2.97568 31.5404 1.69571C32.1859 1.30956 32.9159 1.09083 33.6622 1.02602H33.673C35.7648 0.847794 37.9247 1.30416 39.6815 2.45721C41.0433 3.35103 42.141 4.67421 42.7347 6.19992C42.9499 6.7535 42.5059 7.33948 41.9204 7.28007C41.1904 7.20716 40.4005 7.28007 39.8721 7.5339C39.0224 7.94436 38.3632 8.74367 38.1181 9.66719C37.7913 10.9013 38.1835 12.192 38.4123 13.445C38.4123 13.4504 38.4123 13.4585 38.415 13.4639C38.6302 14.671 37.8212 15.8375 36.6282 16.0455C35.7458 16.1994 34.817 16.1967 33.88 16.0131C30.135 15.2813 27.5475 11.922 27.749 8.04697Z" fill="#1693E0"/>
<path d="M28.4353 11.6924C29.3832 12.6781 30.4427 13.5611 31.5921 14.3064C32.3002 14.7654 33.0492 15.1786 33.8636 15.4108C34.678 15.6404 35.5632 15.6809 36.3612 15.4C36.7643 15.2596 37.1538 15.022 37.3608 14.652C37.5869 14.247 37.5597 13.7582 37.5297 13.2964C37.4562 12.2001 37.4017 11.101 37.4807 10.0047C37.5488 9.08657 37.7285 8.13334 38.3087 7.41775C38.9106 6.67244 39.8721 6.28359 40.8281 6.17288C41.4627 6.09997 42.1028 6.13507 42.7374 6.20798C42.9471 6.76156 42.5059 7.34214 41.923 7.28273C41.193 7.20982 40.4032 7.28273 39.8748 7.53656C39.025 7.94702 38.3659 8.74633 38.1207 9.66985C37.7939 10.9039 38.1861 12.1947 38.4149 13.4477C38.4149 13.4531 38.4149 13.4612 38.4176 13.4666C38.6328 14.6736 37.8238 15.8402 36.6309 16.0481C35.7484 16.202 34.8196 16.1993 33.8827 16.0157C31.396 15.5297 29.424 13.8797 28.4353 11.6951V11.6924Z" fill="#1484C9"/>
<path d="M50.756 16.1691C50.222 16.1691 49.7891 14.5648 49.7891 12.5857C49.7891 10.6067 50.222 9.00232 50.756 9.00232C51.29 9.00232 51.7229 10.6067 51.7229 12.5857C51.7229 14.5648 51.29 16.1691 50.756 16.1691Z" fill="#C9C9C9"/>
<path d="M47.0245 66.8374L42.7891 66.6916C42.8382 66.1165 42.9008 65.5413 42.9934 64.9688C43.0343 64.715 43.0806 64.4584 43.1922 64.2235C43.244 64.1182 43.323 64.021 43.421 63.9373C43.579 63.8022 43.816 63.8535 43.9276 64.0291C44.0475 64.2154 44.2327 64.3639 44.437 64.4557C44.7475 64.5961 45.0906 64.6312 45.4311 64.6637C45.698 64.6907 45.9268 64.6745 46.1828 64.7528C46.4116 64.823 46.6459 64.8932 46.8883 64.8932C47.128 64.8932 47.3813 64.8095 47.5283 64.6204C47.67 64.4422 47.6945 64.1992 47.8034 63.9994C47.8742 63.867 47.9995 63.7428 48.1521 63.7455C48.3672 63.7455 48.5143 63.9886 48.5769 64.1695C48.626 64.3099 48.705 64.4368 48.8248 64.5232C49.503 65.0174 50.1649 65.3117 51.0065 65.3603C51.4559 65.3846 51.9107 65.3819 52.3574 65.4171C51.9516 65.6655 51.5267 65.8842 51.0909 66.0786C49.8271 66.616 48.4435 66.8861 47.0245 66.8374Z" fill="#007791"/>
<path opacity="0.38" d="M40.1281 4.80113C41.3293 5.44922 42.9417 4.77683 44.1292 5.44922C44.7693 5.81107 45.1479 6.49426 45.4638 7.15585C46.1801 8.65456 46.7521 10.291 46.5751 11.9409C46.4035 13.5395 45.4911 15.0436 44.1483 15.9428C42.8055 16.8421 41.0569 17.1229 39.4962 16.6854C38.927 15.6404 38.7009 14.5576 38.7527 13.3694C38.8044 12.1839 38.9406 10.9796 38.6955 9.81571C38.513 8.9516 38.0717 8.09288 37.3908 7.5501C36.8733 7.13695 36.8052 6.35924 37.2383 5.85967C37.4671 5.59774 37.7367 5.36821 38.0282 5.18998C38.7227 4.76062 39.4064 4.41228 40.1254 4.80113H40.1281Z" fill="#B8FFE6"/>
<path d="M37.9301 6.83181C37.706 6.83181 37.5243 6.65167 37.5243 6.42945C37.5243 6.20724 37.706 6.0271 37.9301 6.0271C38.1542 6.0271 38.3359 6.20724 38.3359 6.42945C38.3359 6.65167 38.1542 6.83181 37.9301 6.83181Z" fill="#1278B8"/>
</g>
<defs>
<clipPath id="clip0_529_2551">
<rect width="80" height="74.9945" fill="white" transform="matrix(-1 0 0 1 80.0001 0.988159)"/>
</clipPath>
</defs>
</svg>
