<svg width="161" height="107" viewBox="0 0 161 107" fill="none" xmlns="http://www.w3.org/2000/svg">
<path d="M155.546 88.9307L155.357 101.366C155.325 104.031 152.945 106.176 150.029 106.152L139.571 106.073C136.655 106.049 134.314 103.873 134.338 101.208L134.464 88.7729L155.538 88.9228L155.546 88.9307Z" fill="#3A2422"/>
<path d="M3.4333 87.8347L3.36238 100.27C3.33085 102.935 5.67153 105.111 8.58754 105.135L19.0379 105.214C21.9539 105.237 24.3418 103.093 24.3655 100.427L24.4916 87.9924L3.41754 87.8426L3.4333 87.8347Z" fill="#3A2422"/>
<path d="M47.93 88.7808L110.403 89.2381L115.03 92.0689L43.2407 91.5563L47.93 88.7808Z" fill="#182730"/>
<path d="M154.222 91.8007C150.912 93.6301 141.289 94.3319 137.703 94.0086C134.023 93.6774 93.9554 93.8115 79.4542 93.6695C65.1579 93.6143 24.6649 92.881 20.9608 93.1649C17.3591 93.4409 7.72841 92.5971 4.45776 90.7205L154.23 91.8007H154.222Z" fill="#182730"/>
<path d="M66.5608 39.3603C66.5608 37.8857 68.0346 36.6951 69.8472 36.6951H81.4403C83.2529 36.6951 84.7267 37.8857 84.7267 39.3603V57.2281C84.7267 58.7026 83.2529 59.8933 81.4403 59.8933H69.8472C68.0346 59.8933 66.5608 58.7026 66.5608 57.2281V39.3603Z" fill="black"/>
<path d="M79.2808 59.8854H81.6227L81.5754 36.6951H79.2808V59.8854Z" fill="#7C8E8E"/>
<path d="M74.4656 59.8854H76.8154L76.7602 36.6951H74.4735L74.4656 59.8854Z" fill="#7C8E8E"/>
<path d="M69.6501 59.8854H71.9999L71.9447 36.6951H69.658L69.6501 59.8854Z" fill="#7C8E8E"/>
<path d="M83.0874 43.7993C83.0874 42.9556 83.7415 42.3721 84.5296 42.3957C89.3923 42.7032 94.2549 42.9477 99.1254 43.1369C99.945 43.1921 100.646 43.8308 100.694 44.714C100.694 45.1082 100.702 45.5025 100.71 45.8967C100.694 46.772 100 47.3555 99.1963 47.3476C94.3416 47.1426 89.4868 46.8824 84.64 46.5512C83.8361 46.4724 83.1741 45.8179 83.1189 44.9584C83.111 44.572 83.0953 44.1857 83.0874 43.7993Z" fill="#2E3A47"/>
<path d="M131.241 18.1664C131.241 17.5277 133.952 17.575 134.425 17.5671C137.735 17.5356 141.045 17.4804 144.347 17.4173C144.796 17.4173 147.476 17.2991 147.468 17.9141C147.468 18.5607 144.812 18.537 144.339 18.5449C141.029 18.6159 137.727 18.6632 134.417 18.7026C133.952 18.7026 131.241 18.7972 131.241 18.1664Z" fill="black"/>
<path fill-rule="evenodd" clip-rule="evenodd" d="M131.233 20.4054C131.367 19.6878 133.849 19.814 134.409 19.8061C137.711 19.7666 141.021 19.7115 144.323 19.6484C144.773 19.6484 147.452 19.5222 147.444 20.1373C147.444 20.7838 144.788 20.7602 144.316 20.776C141.013 20.8469 137.703 20.9021 134.401 20.9415C133.849 20.9415 131.351 21.115 131.225 20.4054H131.233Z" fill="black"/>
<path fill-rule="evenodd" clip-rule="evenodd" d="M131.225 22.6369C131.359 21.9193 133.842 22.0455 134.401 22.0376C137.703 21.9982 141.006 21.943 144.308 21.872C144.757 21.872 147.429 21.7458 147.429 22.3609C147.429 23.0075 144.773 22.9838 144.3 22.9996C140.998 23.0784 137.695 23.1336 134.393 23.1731C133.842 23.1731 131.351 23.3465 131.225 22.6448V22.6369Z" fill="black"/>
<path fill-rule="evenodd" clip-rule="evenodd" d="M131.217 24.8604C131.351 24.1508 133.834 24.269 134.393 24.2612C137.696 24.2217 140.99 24.1587 144.292 24.0798C144.741 24.0719 147.413 23.9458 147.405 24.5608C147.405 25.2074 144.757 25.1916 144.284 25.1995C140.99 25.2783 137.688 25.3414 134.393 25.3809C133.85 25.3809 131.351 25.5543 131.225 24.8525L131.217 24.8604Z" fill="black"/>
<path d="M112.452 18.1426C112.452 17.5118 115.171 17.5985 115.628 17.5985C118.97 17.6222 122.312 17.6301 125.653 17.6222C126.118 17.6222 128.837 17.5433 128.837 18.182C128.837 18.8207 126.118 18.7576 125.653 18.7655C122.312 18.7655 118.978 18.7655 115.636 18.7419C115.163 18.7419 112.46 18.7892 112.452 18.1426Z" fill="black"/>
<path fill-rule="evenodd" clip-rule="evenodd" d="M112.46 20.3818C112.586 19.6801 115.085 19.8456 115.636 19.8456C118.97 19.8693 122.312 19.8772 125.645 19.8693C126.11 19.8693 128.829 19.7904 128.829 20.4213C128.829 21.06 126.118 20.9969 125.645 21.0048C122.312 21.0048 118.97 21.0048 115.636 20.9811C115.077 20.9811 112.586 21.0994 112.46 20.3818Z" fill="black"/>
<path fill-rule="evenodd" clip-rule="evenodd" d="M112.468 22.6133C112.594 21.9115 115.092 22.0771 115.636 22.0771C118.97 22.1007 122.304 22.1086 125.637 22.1007C126.102 22.1007 128.821 22.0219 128.821 22.6527C128.821 23.2914 126.11 23.2283 125.637 23.2283C122.304 23.2362 118.97 23.2283 115.636 23.1968C115.077 23.1968 112.594 23.3151 112.46 22.5975L112.468 22.6133Z" fill="black"/>
<path fill-rule="evenodd" clip-rule="evenodd" d="M112.484 24.8367C112.61 24.1349 115.108 24.3005 115.652 24.3084C118.986 24.332 122.319 24.3478 125.645 24.3399C126.11 24.3399 128.821 24.2611 128.821 24.8919C128.821 25.5306 126.11 25.4675 125.645 25.4675C122.319 25.4754 118.986 25.4675 115.652 25.436C115.093 25.4281 112.61 25.5542 112.484 24.8367Z" fill="black"/>
<path d="M91.8355 23.7019L92.0956 24.3485C92.7733 26.0438 89.1165 27.613 87.3669 27.5657C81.1172 27.1635 74.8754 26.6904 68.6415 26.1306C66.8131 25.9256 66.1905 24.2381 65.6545 22.6138C64.9137 20.3586 64.1808 18.0956 63.4557 15.8325C62.8883 13.9795 65.5678 12.6154 67.1756 12.6706C73.0076 13.0727 80.8335 15.6354 87.1226 16.7945C88.5018 17.0468 89.2584 18.1035 89.8416 19.2626L91.8355 23.7098V23.7019Z" fill="#E6E7E3" stroke="#820500" stroke-width="0.93" stroke-miterlimit="3.86"/>
<path d="M68.6415 26.1229C66.813 25.9178 66.1904 24.2304 65.6545 22.6061C64.9137 20.3509 64.1808 18.0879 63.4557 15.8248C62.8883 13.9718 64.6221 12.7023 66.2298 12.7496C66.9313 12.7969 67.6406 12.8442 68.342 12.8915C68.4208 17.2993 68.5232 21.7071 68.6415 26.115V26.1229Z" fill="#F5AB00" stroke="#820500" stroke-width="0.93" stroke-miterlimit="3.86"/>
<path d="M86.2163 16.613C86.5237 16.6761 86.8232 16.7313 87.1226 16.7865C88.5018 17.0388 89.2584 18.0954 89.8416 19.2546L91.8355 23.7018L92.0956 24.3484C92.4897 25.3341 88.8801 26.8559 87.5482 27.4631L86.2163 16.613Z" fill="#BAC6CE"/>
<path d="M91.8355 23.7019L92.0956 24.3485C92.7733 26.0438 89.1165 27.613 87.3669 27.5657C81.1172 27.1635 74.8754 26.6904 68.6415 26.1306C66.8131 25.9256 66.1905 24.2381 65.6545 22.6138C64.9137 20.3586 64.1808 18.0956 63.4557 15.8325C62.8883 13.9795 65.5678 12.6154 67.1756 12.6706C73.0076 13.0727 80.8335 15.6354 87.1226 16.7945C88.5018 17.0468 89.2584 18.1035 89.8416 19.2626L91.8355 23.7098V23.7019Z" stroke="#820500" stroke-width="0.93" stroke-miterlimit="3.86"/>
<path d="M92.8443 33.5176C83.1111 33.2022 73.3938 32.7449 63.6921 32.1377C63.9601 34.5663 64.2438 36.995 64.5354 39.4236C64.7403 41.797 66.9628 43.792 69.8946 44.0995C76.7669 44.6042 83.6628 45.0221 90.5824 45.3296L92.8443 33.5176Z" fill="#F6E438"/>
<path fill-rule="evenodd" clip-rule="evenodd" d="M119.38 0C120.137 0.0788461 119.214 -0.0551942 119.798 0.0473057C127.545 1.30884 131.068 3.39827 135.836 14.831C141.794 29.1021 143.441 32.2402 143.441 32.2402C143.441 32.2402 153.552 34.5188 153.505 39.1234C153.458 43.728 156.169 47.1815 156.831 48.719C157.485 50.2565 158.352 63.6288 158.328 66.0809C158.305 68.533 159.195 79.7055 157.832 81.8423C156.468 83.979 155.42 87.6532 155.397 90.4759C155.365 93.2907 142.07 94.4182 137.711 94.0161C134.031 93.6849 93.9635 93.819 79.4623 93.6771C65.166 93.6219 24.6729 92.8886 20.9688 93.1724C16.6027 93.5036 3.33096 92.1948 3.3546 89.3721C3.38613 86.5494 2.41675 82.8673 1.09273 80.7069C-0.223413 78.5465 0.895702 67.3976 0.919345 64.9455C0.942988 62.4934 2.09363 49.1369 2.77928 47.6073C3.46494 46.0777 6.25484 42.6636 6.30213 38.0669C6.34941 33.4623 16.5081 31.3334 16.5081 31.3334C16.5081 31.3334 18.2183 28.219 24.4759 14.0346C29.4883 2.67289 31.9157 0.827892 39.6785 0.00789231C39.844 -0.00787691 39.4421 0.0394308 39.6785 0.00789231H119.396L119.38 0Z" fill="#8498B4"/>
<path d="M78.9419 30.1668C121.129 30.4743 139.106 32.0591 139.106 32.0591C138.129 30.0643 136.3 25.9564 132.998 18.056C128.703 7.76662 127.001 8.01893 120.01 6.53662C113.65 5.18835 92.1585 4.9597 80.329 4.87297C68.5073 4.78624 46.8265 4.69951 40.4034 5.96893C33.3813 7.34874 31.6869 7.07277 27.1789 17.2991C23.7191 25.1522 21.804 29.2285 20.8425 31.2076C20.8425 31.2076 36.7623 29.8672 78.9498 30.1747L78.9419 30.1668Z" fill="#77ADB6"/>
<path d="M79.3912 54.6483C90.0937 54.7271 106.266 54.8927 108.937 55.5393C111.846 56.2331 115.431 60.4671 116.487 61.3739C117.536 62.2806 111.648 75.5425 110.829 77.7817C110.009 80.021 107.14 83.1512 105.288 83.1354L79.0996 82.9462L53.5964 82.7648C51.7443 82.749 48.9387 79.5794 48.1663 77.3323C47.394 75.0773 41.7827 61.7366 42.8466 60.8456C43.9184 59.9546 47.591 55.7679 50.5149 55.1214C53.1472 54.53 68.6966 54.5852 79.3912 54.6562V54.6483Z" fill="#3A2422"/>
<path d="M127.773 76.4808C132.983 74.9905 139.934 75.1877 144.836 75.5109C149.068 75.7948 149.486 79.6901 149.233 81.4327C148.973 83.1753 149.431 85.2649 143.764 85.4463C138.09 85.6198 125.109 85.3122 125.109 85.3122C125.109 85.3122 121.374 83.5775 123.722 80.5969C126.079 77.6163 127.781 76.4808 127.781 76.4808H127.773Z" fill="#0E1030"/>
<path d="M31.4664 75.7872C26.2885 74.218 19.3374 74.3205 14.4275 74.5729C10.1953 74.7936 9.69092 78.681 9.91159 80.4316C10.1323 82.1821 9.63575 84.2638 15.3023 84.524C20.9688 84.7842 33.9568 84.658 33.9568 84.658C33.9568 84.658 37.7318 82.9785 35.4384 79.9663C33.145 76.9542 31.4664 75.7951 31.4664 75.7951V75.7872Z" fill="#0E1030"/>
<path d="M145.845 28.661C145.868 26.0747 146.191 23.4489 153.048 24.0324C156.988 24.3636 159.873 28.2825 160.149 29.6151C160.677 32.1541 156.902 33.4158 152.953 33.3921C148.997 33.3606 145.821 31.2473 145.845 28.661Z" fill="#8498B4"/>
<path d="M149.51 31.2783L148.02 35.1421L150.054 35.4259L149.51 31.2783Z" fill="#8498B4"/>
<path fill-rule="evenodd" clip-rule="evenodd" d="M127.773 76.4809C132.983 74.9906 139.934 75.1878 144.836 75.5111C149.068 75.7949 149.486 79.6902 149.233 81.4328C148.973 83.1755 149.43 85.265 143.764 85.4464C138.089 85.6199 125.109 85.3123 125.109 85.3123C125.109 85.3123 121.374 83.5776 123.722 80.597C126.079 77.6164 127.781 76.4809 127.781 76.4809H127.773ZM126.717 75.8738C132.793 74.1311 139.815 74.3598 145.529 74.7383C150.463 75.0616 150.699 79.5404 150.4 81.5827C150.1 83.617 150.628 86.3532 144.016 86.5582C137.404 86.7632 123.344 86.4084 123.344 86.4084C123.344 86.4084 118.986 84.0823 121.728 80.6049C124.471 77.1275 126.717 75.8738 126.717 75.8738Z" fill="#DDD8CE"/>
<path d="M14.388 27.707C14.4116 25.1206 14.1516 22.4949 7.27925 22.9759C3.33871 23.2518 0.367537 27.1235 0.0601748 28.4561C-0.523026 30.9872 3.22837 32.304 7.1768 32.3356C11.1331 32.3671 14.3565 30.2933 14.3801 27.707H14.388Z" fill="#8498B4"/>
<path d="M10.9994 29.5515L12.4187 33.4389L10.3765 33.6912L10.9994 29.5515Z" fill="#8498B4"/>
<path fill-rule="evenodd" clip-rule="evenodd" d="M31.4662 75.7872C26.2884 74.218 19.3372 74.3205 14.4273 74.5729C10.1952 74.7936 9.6908 78.681 9.91147 80.4316C10.1321 82.1821 9.63563 84.2638 15.3021 84.524C20.9686 84.7842 33.9567 84.658 33.9567 84.658C33.9567 84.658 37.7317 82.9785 35.4383 79.9663C33.1449 76.9542 31.4662 75.7951 31.4662 75.7951V75.7872ZM32.5302 75.1958C26.4933 73.3664 19.4712 73.4926 13.7417 73.7843C8.80023 74.0367 8.47711 78.5154 8.7293 80.5577C8.98938 82.6 8.3983 85.3283 15.0105 85.6279C21.6228 85.9275 35.6826 85.7777 35.6826 85.7777C35.6826 85.7777 40.0881 83.5147 37.4165 79.9979C34.7448 76.4811 32.5223 75.1958 32.5223 75.1958H32.5302Z" fill="#DDD8CE"/>
<path fill-rule="evenodd" clip-rule="evenodd" d="M112.965 78.7053C112.965 78.7053 121.035 79.6279 121.76 77.696C122.485 75.7642 130.831 72.7441 130.831 72.7441L132.21 62.6117L118.284 62.2568C117.228 66.7199 113.154 76.7262 112.46 78.7605C111.648 81.1576 108.914 84.4458 106.967 84.8006L112.957 78.7053H112.965Z" fill="#64738D"/>
<path fill-rule="evenodd" clip-rule="evenodd" d="M46.1252 78.2243C46.1252 78.2243 38.0392 79.0286 37.3536 77.081C36.6679 75.1412 28.3849 72.0029 28.3849 72.0029L27.2185 62.2568H41.1444C42.1059 66.7277 45.9755 76.2452 46.6217 78.2874C47.3862 80.6924 50.05 84.02 51.9888 84.4063L46.1331 78.2243H46.1252Z" fill="#64738D"/>
<path d="M137.238 27.9907C138.066 29.8673 138.673 31.1763 139.106 32.0594C139.106 32.0594 121.129 30.4745 78.942 30.167C36.7545 29.8595 20.8347 31.1999 20.8347 31.1999C21.2603 30.3247 21.9065 29.0394 22.7183 27.1943C27.9907 26.8631 44.8799 26.0036 78.9814 26.2559C113.382 26.5082 131.651 27.5885 137.23 27.9828L137.238 27.9907Z" fill="#0E1030"/>
<path d="M131.509 28.2838C130.579 26.1785 129.342 23.2925 127.695 19.3499C123.825 10.0848 122.296 10.3135 116.007 8.98086C110.285 7.76655 90.945 7.56154 80.2898 7.48268C69.6503 7.40383 50.1367 7.32498 44.352 8.46833C38.0314 9.71419 36.5103 9.46186 32.4516 18.6639C30.7099 22.6065 29.4331 25.4925 28.448 27.582L22.7263 27.2114C23.8218 24.8853 25.2483 21.6839 27.1791 17.2997C31.6871 7.07265 33.3815 7.34864 40.4036 5.96873C46.8267 4.7071 68.5154 4.79383 80.3292 4.87269C92.1587 4.95942 113.658 5.19598 120.01 6.53646C127.001 8.01888 128.703 7.76655 132.998 18.0567C134.827 22.4409 136.206 25.6502 137.238 27.9842L131.509 28.2759V28.2838Z" fill="#0E1030"/>
<path d="M120.846 20.9813C120.491 18.9863 119.427 18.0086 117.764 17.9928L99.7401 17.8666C98.0772 17.8509 96.9029 18.8759 96.6034 20.8078L95.8074 26.1619C95.7365 27.8651 97.0684 29.2765 98.7786 29.2844L118.481 29.4263C120.191 29.4421 122.083 28.0543 122.044 26.3511L120.838 20.9892L120.846 20.9813Z" fill="#0E1030"/>
<path d="M63.1246 20.5713C62.77 18.5685 61.706 17.5986 60.0431 17.5828L42.0269 17.4488C40.364 17.4409 39.1897 18.4581 38.8903 20.3899L37.5584 25.7361C37.4874 27.4393 39.3474 28.8508 41.0654 28.8665L60.7682 29.0085C62.4862 29.0242 63.8418 27.6364 63.7945 25.9254L63.1246 20.5634V20.5713Z" fill="#0E1030"/>
<path d="M78.477 35.4967C78.2326 34.8186 77.7283 34.4874 77.3263 33.8172C76.814 32.9578 76.3412 28.1561 76.3412 28.1561C76.4042 26.043 74.5679 25.5147 74.5679 25.5147C73.7404 24.7184 65.3313 22.5501 65.3313 22.5501C63.5108 21.6671 62.2498 19.8773 62.2498 19.8773C63.9442 22.5896 58.9713 31.917 58.9713 31.917C59.0658 31.1444 57.931 27.8801 57.931 27.8801C57.4108 27.2336 57.5211 26.114 57.5211 26.114C57.8364 25.9799 59.7436 23.9772 59.7436 23.9772C59.6018 23.6934 58.0728 23.2361 58.0728 23.2361C59.1604 23.0469 62.2577 19.8851 62.2577 19.8851C61.6745 18.8128 62.2577 17.2044 62.2577 17.2044C64.6929 13.1753 63.2349 12.789 63.2349 12.789C64.157 4.9911 57.3556 5.74803 57.3556 5.74803C49.0332 5.7638 51.5158 13.0098 51.5158 13.0098C50.3651 12.9151 51.5 16.0374 51.5 16.0374C51.3897 17.1571 52.3196 17.1097 52.3196 17.1097C52.3039 17.6065 52.6822 18.0322 52.6822 18.0322C53.1314 18.3949 52.9738 21.2098 52.9738 21.2098C52.5876 21.2019 51.9807 23.654 51.9807 23.654C51.9807 23.654 50.7355 24.0482 50.105 24.3872C49.4824 24.7263 47.5358 25.4517 46.527 25.6409C45.5183 25.8301 42.7047 27.2415 42.7047 27.2415C41.3019 27.6988 41.3019 30.5215 41.0418 31.4282C40.829 32.1772 40.6005 33.4467 40.4192 34.6136L78.5006 35.4967H78.477Z" fill="#050404"/>
<path d="M54.6447 24.0642C55.2673 24.009 55.3697 25.5624 55.3697 25.5624C54.6526 26.3904 53.6044 30.4512 53.6044 30.4512C53.3128 29.8835 53.1867 26.6112 52.7532 25.4284C51.8942 23.0786 52.8951 21.3596 52.8951 21.3596C52.7059 21.6593 55.819 23.4571 55.819 23.4571C55.2042 23.2994 54.6447 24.0642 54.6447 24.0642Z" fill="#9ED3A9"/>
<path fill-rule="evenodd" clip-rule="evenodd" d="M84.6794 48.9177L103.145 49.0517C107.826 49.0833 110.064 49.6746 111.278 50.0531C112.492 50.4316 116.535 48.208 119.159 47.7664C126.299 46.5679 149.785 45.2274 149.793 46.0553C149.801 47.0646 143.992 33.3523 143.173 33.1631C142.345 32.9738 139.098 32.0434 139.098 32.0434C139.098 32.0434 122.824 30.624 84.8685 30.2298C83.6154 30.214 82.3387 30.1982 81.0304 30.1903C38.843 29.8828 20.8505 31.1918 20.8505 31.1918C20.8505 31.1918 17.5798 32.0749 16.7523 32.2484C15.9248 32.4297 9.47018 44.1156 9.86424 45.046C10.2583 45.9765 34.4848 47.4353 41.5935 48.7284C44.21 49.2094 47.0708 49.9585 48.2924 49.6037C49.514 49.241 51.768 48.689 56.4493 48.7205L84.6794 48.9256V48.9177Z" fill="#AEBCC7"/>
<path d="M77.6179 62.9903L42.6101 62.7537L42.6259 61.4211L77.6731 61.6577L77.6179 62.9903Z" fill="#D1CCBD"/>
<path d="M82.5674 61.7207L117.276 61.9573L117.268 63.2899L82.5831 63.0533L82.5674 61.7207Z" fill="#D1CCBD"/>
<path d="M82.5516 58.7169L114.186 58.9219L114.202 57.5893L82.5437 57.3843L82.5516 58.7169Z" fill="#D1CCBD"/>
<path d="M77.6416 57.3212L46.0857 57.124L45.0454 58.4487L77.5864 58.6538L77.6416 57.3212Z" fill="#D1CCBD"/>
<path d="M77.6574 67.4846L43.6111 67.2559L43.6268 65.9233L77.7125 66.152L77.6574 67.4846Z" fill="#D1CCBD"/>
<path d="M82.6067 66.2151L115.368 66.4438L115.36 67.7685L82.6225 67.5477L82.6067 66.2151Z" fill="#D1CCBD"/>
<path d="M77.555 72.1286L44.8958 71.9078L44.9115 70.5752L77.5865 70.796L77.555 72.1286Z" fill="#D1CCBD"/>
<path d="M82.4648 70.8591L114.557 71.0799L114.541 72.4046L82.4648 72.1917V70.8591Z" fill="#D1CCBD" stroke="#D1CCBD" stroke-width="0.47" stroke-miterlimit="3.86"/>
<path d="M77.5549 76.6071L46.5586 76.4021L46.5744 75.0774L77.5864 75.2903L77.5549 76.6071Z" fill="#D1CCBD"/>
<path d="M82.4648 75.3533L112.949 75.5583L112.941 76.883L82.4648 76.6701V75.3533Z" fill="#D1CCBD"/>
<path d="M77.7756 80.5807L47.8511 80.3836L47.8668 79.051L77.8307 79.2482L77.7756 80.5807Z" fill="#D1CCBD"/>
<path d="M82.7249 79.3193L111.057 79.5086L111.042 80.8412L82.7327 80.644L82.7249 79.3193Z" fill="#D1CCBD"/>
<path d="M77.5471 54.6247C67.3332 54.5774 52.9423 54.5932 50.6253 55.1136C47.7014 55.768 44.0288 59.9468 42.957 60.8378C41.8852 61.7287 47.5044 75.0695 48.2767 77.3245C49.0491 79.5795 51.8548 82.7491 53.7068 82.7649L77.8545 82.9226L77.8702 84.602L52.3276 84.4364C50.3731 84.4206 47.4256 80.8331 46.6138 78.2785C45.8021 75.7239 39.907 60.6091 41.034 59.5999C42.161 58.5907 46.0306 53.852 49.1121 53.103C51.5632 52.5116 66.7421 52.4801 77.5313 52.5353L77.5471 54.6247Z" fill="#D1CCBD"/>
<path d="M82.1181 52.5983C92.923 52.7008 108.165 52.9216 110.608 53.5444C113.666 54.3329 117.441 59.1268 118.544 60.1518C119.648 61.1767 113.437 76.2048 112.571 78.7437C111.712 81.2825 108.685 84.8306 106.731 84.8148L82.386 84.6492L82.3703 82.9698L105.383 83.1196C107.235 83.1354 110.112 80.0052 110.923 77.766C111.743 75.5267 117.63 62.2648 116.582 61.3581C115.534 60.4514 111.94 56.2173 109.032 55.5235C106.723 54.9716 92.3319 54.7744 82.1181 54.6719L82.1023 52.5825L82.1181 52.5983Z" fill="#D1CCBD"/>
<path d="M103.405 82.1262L57.1192 81.8108L57.0247 90.5791L103.31 90.8945L103.405 82.1262Z" fill="#9F948D"/>
<path d="M20.9058 60.0107L23.4514 59.9634L23.8533 49.2947L21.5284 49.0818L20.9058 60.0107Z" fill="#C5D0CD"/>
<path d="M6.75904 55.2323C6.72752 51.613 9.63564 48.6561 13.2531 48.6245C16.8705 48.593 19.8259 51.5026 19.8574 55.1219C19.8889 58.7412 16.9808 61.6982 13.3634 61.7297C9.74598 61.7613 6.79057 58.8516 6.75904 55.2323Z" fill="white" stroke="#404870" stroke-width="0.84" stroke-miterlimit="3.86"/>
<path d="M24.4759 55.0824C24.4444 51.4631 27.3525 48.5062 30.9699 48.4746C34.5873 48.4431 37.5427 51.3527 37.5743 54.972C37.6058 58.5913 34.6977 61.5483 31.0802 61.5798C27.4628 61.6114 24.5074 58.7017 24.468 55.0824H24.4759Z" fill="white" stroke="#404870" stroke-width="0.84" stroke-miterlimit="3.86"/>
<path d="M131.604 48.7822L134.157 48.7901L134.74 59.443L132.415 59.7032L131.604 48.7822Z" fill="#C5D0CD"/>
<path d="M117.543 54.286C117.512 50.6667 120.42 47.7098 124.037 47.6782C127.655 47.6467 130.61 50.5563 130.642 54.1756C130.673 57.7949 127.765 60.7519 124.148 60.7834C120.53 60.815 117.575 57.9053 117.543 54.286Z" fill="white" stroke="#404870" stroke-width="0.84" stroke-miterlimit="3.86"/>
<path d="M135.26 54.1361C135.229 50.5168 138.137 47.5599 141.754 47.5283C145.372 47.4968 148.327 50.4064 148.367 54.0257C148.398 57.645 145.49 60.602 141.872 60.6335C138.255 60.6651 135.292 57.7554 135.26 54.1361Z" fill="white" stroke="#404870" stroke-width="0.84" stroke-miterlimit="3.86"/>
<path d="M79.8325 47.4185L56.465 47.2529C51.7837 47.2213 49.5376 47.7733 48.316 48.136C47.0944 48.4987 44.2336 47.7417 41.6171 47.2608C34.926 46.0385 13.0954 44.6744 10.1952 43.744C9.96664 44.4142 9.80114 44.8794 9.87207 45.0371C10.2661 45.9676 34.4926 47.4263 41.6013 48.7195C44.2178 49.2005 47.0787 49.9496 48.3002 49.5948C49.5218 49.2321 51.7758 48.6801 56.4572 48.7116L79.8561 48.8772L101.766 48.3174C106.447 48.1991 108.709 48.7116 109.93 49.0586C111.16 49.3976 114.005 48.5933 116.614 48.0729C123.699 46.6536 147.894 44.769 148.272 43.8386C148.335 43.6809 148.169 43.2157 147.925 42.5454C145.041 43.5311 123.241 45.2737 116.574 46.6063C113.965 47.1267 111.12 47.931 109.891 47.5919C108.661 47.2529 106.4 46.7403 101.726 46.8507L79.8482 47.4185H79.8325Z" fill="#C5D0CD"/>
<path d="M2.02266 70.126C2.00689 68.7461 2.95262 67.6185 4.1269 67.6106C5.30119 67.6028 6.26268 68.7146 6.27844 70.0945L6.34149 77.475C6.35725 78.8549 5.41152 79.9825 4.23724 79.9904C3.06296 79.9983 2.10147 78.8865 2.0857 77.5066L2.02266 70.126Z" fill="#D58500"/>
<path d="M152.22 68.8328C152.205 67.4529 153.15 66.3253 154.325 66.3174C155.499 66.3095 156.46 67.4214 156.476 68.8013L156.539 76.1818C156.547 77.5617 155.609 78.6893 154.435 78.6972C153.261 78.7051 152.299 77.5932 152.283 76.2133L152.22 68.8328Z" fill="#D58500"/>
<path d="M47.93 88.7808L110.403 89.2381L115.03 92.0689L43.2407 91.5563L47.93 88.7808Z" fill="#182730"/>
<path d="M154.222 91.8007C150.912 93.6301 141.289 94.3319 137.703 94.0086C134.023 93.6774 93.9554 93.8115 79.4542 93.6695C65.1579 93.6143 24.6649 92.881 20.9608 93.1649C17.3591 93.4409 7.72841 92.5971 4.45776 90.7205L154.23 91.8007H154.222Z" fill="#182730"/>
<path d="M31.4664 75.7872C26.2885 74.218 19.3374 74.3205 14.4275 74.5729C10.1953 74.7936 9.69092 78.681 9.91159 80.4316C10.1323 82.1821 9.63575 84.2638 15.3023 84.524C20.9688 84.7842 33.9568 84.658 33.9568 84.658C33.9568 84.658 37.7318 82.9785 35.4384 79.9663C33.145 76.9542 31.4664 75.7951 31.4664 75.7951V75.7872Z" fill="#0E1030"/>
<path d="M145.845 28.661C145.868 26.0747 146.191 23.4489 153.048 24.0324C156.988 24.3636 159.873 28.2825 160.149 29.6151C160.677 32.1541 156.902 33.4158 152.953 33.3921C148.997 33.3606 145.821 31.2473 145.845 28.661Z" fill="#8498B4"/>
<path d="M149.51 31.2783L148.02 35.1421L150.054 35.4259L149.51 31.2783Z" fill="#8498B4"/>
<path fill-rule="evenodd" clip-rule="evenodd" d="M31.4662 75.7872C26.2884 74.218 19.3372 74.3205 14.4273 74.5729C10.1952 74.7936 9.6908 78.681 9.91147 80.4316C10.1321 82.1821 9.63563 84.2638 15.3021 84.524C20.9686 84.7842 33.9567 84.658 33.9567 84.658C33.9567 84.658 37.7317 82.9785 35.4383 79.9663C33.1449 76.9542 31.4662 75.7951 31.4662 75.7951V75.7872ZM32.5302 75.1958C26.4933 73.3664 19.4712 73.4926 13.7417 73.7843C8.80023 74.0367 8.47711 78.5154 8.7293 80.5577C8.98938 82.6 8.3983 85.3283 15.0105 85.6279C21.6228 85.9275 35.6826 85.7777 35.6826 85.7777C35.6826 85.7777 40.0881 83.5147 37.4165 79.9979C34.7448 76.4811 32.5223 75.1958 32.5223 75.1958H32.5302Z" fill="#DDD8CE"/>
<path d="M77.7756 80.5807L47.8511 80.3836L47.8668 79.051L77.8307 79.2482L77.7756 80.5807Z" fill="#D1CCBD"/>
<path d="M82.7249 79.3193L111.057 79.5086L111.042 80.8412L82.7327 80.644L82.7249 79.3193Z" fill="#D1CCBD"/>
<path d="M2.02266 70.126C2.00689 68.7461 2.95262 67.6185 4.1269 67.6106C5.30119 67.6028 6.26268 68.7146 6.27844 70.0945L6.34149 77.475C6.35725 78.8549 5.41152 79.9825 4.23724 79.9904C3.06296 79.9983 2.10147 78.8865 2.0857 77.5066L2.02266 70.126Z" fill="#D58500"/>
<path d="M152.22 68.8328C152.205 67.4529 153.15 66.3253 154.325 66.3174C155.499 66.3095 156.46 67.4214 156.476 68.8013L156.539 76.1818C156.547 77.5617 155.609 78.6893 154.435 78.6972C153.261 78.7051 152.299 77.5932 152.283 76.2133L152.22 68.8328Z" fill="#D58500"/>
</svg>
