<svg width="149" height="118" viewBox="0 0 149 118" fill="none" xmlns="http://www.w3.org/2000/svg">
<g clip-path="url(#clip0_529_3157)">
<path d="M144.866 98.7438L144.811 111.886C144.811 114.702 142.599 116.984 139.872 116.984H130.095C127.368 116.984 125.159 114.702 125.159 111.886V98.7438H144.866Z" fill="#3A2422"/>
<path d="M3.3645 98.4919L3.41923 111.635C3.41923 114.45 5.63099 116.732 8.35464 116.732H18.1321C20.859 116.732 23.0675 114.45 23.0675 111.635V98.4919H3.3645Z" fill="#3A2422"/>
<path fill-rule="evenodd" clip-rule="evenodd" d="M73.4198 32.3508C112.874 32.3508 129.699 33.8906 129.699 33.8906C128.765 31.7924 127.014 27.4634 123.852 19.1413C119.735 8.29804 118.148 8.58212 111.596 7.06813C105.64 5.69294 85.5378 5.61224 74.4725 5.60901C63.4202 5.60901 43.1377 5.68326 37.1463 7.06813C30.5947 8.58212 29.0075 8.29804 24.8898 19.1413C21.7284 27.4634 19.977 31.7924 19.0981 33.8906C19.0981 33.8906 33.9719 32.3508 73.4262 32.3508H73.4198ZM74.508 0.666748C86.803 0.669976 106.236 0.760364 112.855 2.28727C120.134 3.96912 121.898 3.656 126.473 15.7034C132.184 30.74 133.752 34.0424 133.752 34.0424C133.752 34.0424 143.23 36.3731 143.23 41.2379C143.23 46.1026 145.803 49.7278 146.43 51.3516C147.058 52.9721 148.001 67.0984 148.001 69.6906C148.001 72.286 148.945 84.0784 147.686 86.3477C146.43 88.6171 145.487 92.507 145.487 95.4866C145.487 98.4661 133.063 99.7509 128.981 99.3635C125.539 99.0375 88.0683 99.4927 74.5047 99.4475C61.1344 99.4991 23.264 99.0375 19.7999 99.3635C15.7176 99.7477 3.29702 98.4629 3.29702 95.4866C3.29702 92.5102 2.35372 88.6171 1.09814 86.3477C-0.157446 84.0784 0.785852 72.2828 0.785852 69.6906C0.785852 67.0984 1.72915 52.9721 2.35694 51.3516C2.98473 49.7311 5.55385 46.1026 5.55385 41.2379C5.55385 36.3731 15.0319 34.0424 15.0319 34.0424C15.0319 34.0424 16.5998 30.74 22.3111 15.7034C26.8923 3.656 28.6534 3.96912 35.9358 2.28727C42.5936 0.750679 62.2258 0.666748 74.508 0.666748Z" fill="#B9CE7F"/>
<path d="M76.0757 105.136C76.0757 102.995 77.8045 101.262 79.939 101.262C82.0735 101.262 83.8024 102.995 83.8024 105.136C83.8024 107.276 82.0735 109.01 79.939 109.01C77.8045 109.01 76.0757 107.276 76.0757 105.136Z" fill="#3A2422"/>
<path d="M64.9912 105.136C64.9912 102.995 66.7201 101.262 68.8545 101.262C70.989 101.262 72.7179 102.995 72.7179 105.136C72.7179 107.276 70.989 109.01 68.8545 109.01C66.7201 109.01 64.9912 107.276 64.9912 105.136Z" fill="#3A2422"/>
<path d="M135.781 31.1019C135.781 28.6451 136.025 26.1464 141.804 26.6532C145.12 26.9438 147.583 30.6467 147.828 31.9122C148.295 34.3206 145.13 35.5538 141.804 35.5538C138.478 35.5538 135.781 33.5619 135.781 31.1051V31.1019Z" fill="#B9CE7F"/>
<path d="M140.936 34.3619L139.573 38.4587L141.48 38.7428L140.936 34.3619Z" fill="#B9CE7F"/>
<path d="M13.2128 31.1019C13.2128 28.6451 12.9681 26.1464 7.18919 26.6532C3.87316 26.9438 1.41028 30.6467 1.1656 31.9122C0.698782 34.3206 3.8635 35.5538 7.18919 35.5538C10.5149 35.5538 13.2128 33.5619 13.2128 31.1051V31.1019Z" fill="#B9CE7F"/>
<path d="M9.87469 32.2152L11.2404 36.3152L9.33032 36.5961L9.87469 32.2152Z" fill="#B9CE7F"/>
<path d="M144.415 96.907C141.337 98.8698 132.348 99.6866 128.987 99.367C125.546 99.0409 88.0746 99.4961 74.5111 99.4509C61.1407 99.5026 23.2703 99.0409 19.8062 99.367C16.4451 99.6834 7.42423 98.8698 4.34644 96.907H144.418H144.415Z" fill="#3A2422"/>
<path d="M79.0861 12.9079C79.0861 12.0911 78.4454 11.4293 77.6502 11.4325L69.6402 11.4454C68.8482 11.4454 68.2043 12.1105 68.2043 12.9272V15.6972C68.2043 16.514 68.8482 17.1758 69.6402 17.1725L77.6502 17.1596C78.4422 17.1596 79.0861 16.4946 79.0861 15.6778V12.9046V12.9079Z" fill="#1E4453"/>
<path d="M115.775 42.4775C115.54 41.7609 115.063 41.4155 114.683 40.715C114.197 39.8143 113.705 34.7429 113.705 34.7429C113.743 32.5123 112.021 31.9603 112.021 31.9603C111.242 31.1274 103.354 28.9 103.354 28.9C101.641 27.9768 100.444 26.0948 100.444 26.0948C102.053 28.9517 97.4947 38.8426 97.4947 38.8426C97.5784 38.0259 96.4838 34.5815 96.4838 34.5815C95.9912 33.9036 96.0846 32.7157 96.0846 32.7157C96.3744 32.5704 98.1386 30.4431 98.1386 30.4431C98.0034 30.1396 96.5675 29.6683 96.5675 29.6683C97.5784 29.4617 100.447 26.0915 100.447 26.0915C99.8932 24.9649 100.424 23.2637 100.424 23.2637C102.659 18.9897 101.294 18.5926 101.294 18.5926C102.079 10.348 95.724 11.2002 95.724 11.2002C87.9394 11.2841 90.3347 18.9186 90.3347 18.9186C89.2562 18.825 90.3508 22.1177 90.3508 22.1177C90.2606 23.3057 91.1234 23.2476 91.1234 23.2476C91.1138 23.7705 91.4679 24.2225 91.4679 24.2225C91.8929 24.6034 91.7706 27.5765 91.7706 27.5765C91.41 27.57 90.8627 30.1654 90.8627 30.1654C90.8627 30.1654 89.7037 30.5915 89.1177 30.9531C88.535 31.3146 86.7225 32.1023 85.7824 32.3057C84.8423 32.5155 82.2217 34.0295 82.2217 34.0295C80.9178 34.5266 80.9371 37.5062 80.7053 38.4682C80.5154 39.2558 80.3158 40.602 80.1548 41.8383L115.772 42.4807L115.775 42.4775Z" fill="#050405"/>
<path d="M113.238 30.0107C112.887 27.9025 111.882 26.8792 110.327 26.8792H93.4768C91.9218 26.8792 90.8304 27.9703 90.5761 30.0107L89.8807 35.67C89.8292 37.4746 91.088 38.95 92.6912 38.95H111.116C112.719 38.95 114.474 37.4746 114.416 35.67L113.238 30.0107Z" fill="#1E4453"/>
<path d="M124.831 38.0941C123.943 35.8796 120.479 24.6909 118.904 20.5363C115.199 10.7777 113.769 11.0327 107.871 9.67041C102.511 8.43081 84.4175 8.35979 74.4597 8.35657C64.5116 8.35657 46.2606 8.42436 40.8648 9.67041C34.9668 11.0327 33.5406 10.7777 29.8318 20.5363C28.2446 24.7135 24.4295 36.1088 23.5249 38.3233L17.3596 37.4904C18.3641 35.0274 23.1224 23.7806 24.8835 19.1385C29.0011 8.29523 30.5883 8.57931 37.1399 7.06531C43.1345 5.68045 63.4138 5.60943 74.4662 5.6062C85.5314 5.60943 105.634 5.69013 111.59 7.06531C118.141 8.57931 119.728 8.29523 123.846 19.1385C125.597 23.7547 132.738 39.2756 133.723 41.7354L124.825 38.0941H124.831Z" fill="#1E4453"/>
<path d="M113.035 105.875H35.2694L29.4744 101.933H118.83L113.035 105.875Z" fill="#3A2422"/>
<path d="M1.93188 88.3234C2.72387 91.1191 3.30015 94.6251 3.30015 97.4758C3.30015 101.282 15.724 102.922 19.803 102.431C23.2639 102.015 61.1375 102.602 74.5079 102.538C88.0714 102.596 125.543 102.015 128.984 102.431C133.066 102.922 145.49 101.282 145.49 97.4758C145.49 94.6251 146.018 91.1191 146.81 88.3234H1.93188Z" fill="#98A448"/>
<path d="M98.8631 90.5192H49.9243L51.4214 80.2401H97.3661L98.8631 90.5192Z" fill="#98A448"/>
<path d="M52.4546 91.1584L95.7658 91.0938V81.8348L52.4546 81.8994V91.1584Z" fill="#DEEAC6"/>
<path d="M72.8596 73.2901C72.8596 72.441 73.5454 71.7501 74.3921 71.7501C75.2388 71.7501 75.9278 72.4378 75.9278 73.2901C75.9278 74.1423 75.242 74.8268 74.3921 74.8268C73.5421 74.8268 72.8596 74.1391 72.8596 73.2901Z" fill="#98A448"/>
<path d="M134.428 84.2659C134.428 82.6065 135.771 81.2603 137.426 81.2603C139.08 81.2603 140.423 82.6065 140.423 84.2659C140.423 85.9252 139.08 87.2715 137.426 87.2715C135.771 87.2715 134.428 85.9252 134.428 84.2659Z" fill="#E3EBC7"/>
<path d="M8.36768 84.2659C8.36768 82.6065 9.71019 81.2603 11.365 81.2603C13.0198 81.2603 14.3623 82.6065 14.3623 84.2659C14.3623 85.9252 13.0198 87.2715 11.365 87.2715C9.71019 87.2715 8.36768 85.9252 8.36768 84.2659Z" fill="#E9F1D4"/>
<path d="M74.7946 69.8003H96.2264C100.605 69.8003 119.497 69.4516 120.636 69.8003C121.776 70.1457 124.461 54.6733 126.911 54.2439C133.572 53.0754 139.444 51.8777 139.824 51.0093C140.204 50.141 134.28 39.1589 133.508 38.9846C132.735 38.8103 129.689 37.9677 129.689 37.9677C129.689 37.9677 114.455 36.7507 78.9637 36.6313C77.7919 36.6313 76.5942 36.6216 75.3741 36.6216H73.4134C72.1932 36.6216 70.9988 36.628 69.8237 36.6313C34.3325 36.7475 19.0981 37.9677 19.0981 37.9677C19.0981 37.9677 16.0525 38.8135 15.2799 38.9846C14.5072 39.1589 8.5834 50.1442 8.9633 51.0093C9.34319 51.8777 15.2122 53.0754 21.8733 54.2439C24.3233 54.6733 27.0083 70.1457 28.148 69.8003C29.2877 69.4516 48.1794 69.8003 52.5578 69.8003H74.7978H74.7946Z" fill="#CDDDA2"/>
<path d="M9.1499 49.0209C11.3842 49.9894 32.3106 51.2808 38.6722 52.5398C41.1222 53.0241 43.8073 53.8021 44.9469 53.4083C46.0866 53.0176 48.1857 53.4083 52.5642 53.4083H96.2295C100.608 53.4083 102.707 53.0176 103.847 53.4083C104.986 53.7989 107.671 53.0241 110.121 52.5398C116.782 51.2227 139.447 49.87 139.827 48.8885V50.3897C139.447 51.3712 116.782 52.7238 110.121 54.041C107.671 54.5253 104.986 55.3033 103.847 54.9095C102.707 54.5188 100.608 54.9095 96.2295 54.9095H52.5642C48.1889 54.9095 46.0866 54.5188 44.9469 54.9095C43.8073 55.3001 41.1255 54.5253 38.6722 54.041C32.3074 52.782 11.381 51.4906 9.1499 50.5253V49.0241V49.0209Z" fill="#E3EBC7"/>
<path d="M131.228 37.8646C132.049 39.8403 130.729 40.8024 131.16 41.7386C131.16 41.7386 113.759 40.1987 72.9561 40.1987C32.1528 40.1987 16.7703 41.7386 16.7703 41.7386C17.1727 40.8088 16.59 39.4465 17.3626 37.4933C22.4622 37.1091 39.976 36.0696 72.9561 36.0696C106.229 36.0696 125.826 37.4868 131.228 37.8646Z" fill="#1E4453"/>
<path d="M63.8966 27.3571C63.5811 25.4588 62.6764 24.5387 61.276 24.5387H46.1092C44.7119 24.5387 43.7268 25.5201 43.4982 27.3571L42.8736 32.4514C42.8285 34.0753 43.9586 35.4054 45.4041 35.4054H61.9875C63.4298 35.4054 65.0073 34.0785 64.959 32.4514L63.8998 27.3571H63.8966Z" fill="#1E4453"/>
<path d="M56.2698 29.93C55.9189 27.8219 54.9112 26.7985 53.3594 26.7985H36.5088C34.9538 26.7985 33.8625 27.8897 33.6081 29.93L32.4137 35.5893C32.3622 37.394 34.12 38.8693 35.7233 38.8693H54.1482C55.7515 38.8693 57.0038 37.394 56.9491 35.5893L56.273 29.93H56.2698Z" fill="#1E4453"/>
<path d="M104.059 27.5282C103.744 25.6299 102.839 24.7098 101.439 24.7098H86.2718C84.8745 24.7098 83.8894 25.6913 83.6608 27.5282L83.0362 32.6226C82.9911 34.2464 84.1244 35.5765 85.5667 35.5765H102.15C103.592 35.5765 105.17 34.2497 105.122 32.6226L104.062 27.5282H104.059Z" fill="#1E4453"/>
<path d="M3.94097 72.2931C3.65444 70.553 3.59649 68.3965 3.84116 65.7266C3.89268 65.1584 3.96028 64.616 4.09872 64.106H17.6783L17.2276 72.2931H3.94097Z" fill="#98A448"/>
<path d="M4.09863 63.674C5.78562 53.5079 13.6765 54.8251 18.1902 55.3125L17.6783 63.674H4.09863Z" fill="#98A448"/>
<path d="M17.2276 72.8702L16.7189 80.3665C12.9071 79.8209 5.41221 81.8064 3.94092 72.8702H17.2276Z" fill="#98A448"/>
<path d="M5.15779 71.4794C4.92277 70.0396 4.87448 68.2575 5.07408 66.0525C5.11594 65.5812 5.17389 65.1357 5.28657 64.7128H16.5096L16.1361 71.4794H5.15779Z" fill="#E22500"/>
<path d="M16.1361 72.8284L15.7143 79.0236C12.5625 78.5716 6.36827 80.2149 5.15454 72.8284H16.1361Z" fill="white"/>
<path d="M5.28662 63.3607C6.68064 54.9573 13.2032 56.0485 16.9314 56.452L16.5096 63.3607H5.28662Z" fill="#F2EF73"/>
<path d="M144.846 72.2931C145.133 70.553 145.191 68.3965 144.946 65.7266C144.895 65.1584 144.824 64.616 144.689 64.106H131.109L131.56 72.2931H144.846Z" fill="#98A448"/>
<path d="M144.692 63.674C143.005 53.5079 135.114 54.8251 130.6 55.3125L131.112 63.674H144.692Z" fill="#98A448"/>
<path d="M131.56 72.8702L132.068 80.3665C135.88 79.8209 143.375 81.8064 144.846 72.8702H131.56Z" fill="#98A448"/>
<path d="M143.633 71.4794C143.871 70.0396 143.916 68.2575 143.716 66.0525C143.675 65.5812 143.617 65.1357 143.504 64.7128H132.281L132.651 71.4794H143.633Z" fill="#E22500"/>
<path d="M132.651 72.8284L133.073 79.0236C136.225 78.5716 142.419 80.2149 143.633 72.8284H132.651Z" fill="white"/>
<path d="M143.504 63.3607C142.11 54.9573 135.587 56.0485 131.856 56.452L132.278 63.3607H143.501H143.504Z" fill="#F2EF73"/>
</g>
<defs>
<clipPath id="clip0_529_3157">
<rect width="147.895" height="117.136" fill="white" transform="translate(0.447754 0.666748)"/>
</clipPath>
</defs>
</svg>
