<svg width="169" height="181" viewBox="0 0 169 181" fill="none" xmlns="http://www.w3.org/2000/svg">
<g filter="url(#filter0_d_531_4523)">
<path d="M61.5371 92.1855H78.8564L96.177 126.313H73.4238L61.5371 92.1855Z" fill="#B1B0BC"/>
<path d="M64.3371 3.79242C64.4238 2.05768 65.8739 0.91433 67.4423 0.827593C79.6895 0.52007 91.9288 0.693544 104.16 1.38744C105.721 1.52937 107.131 2.71215 107.234 4.43113C107.305 7.27768 107.376 10.1242 107.447 12.9708C107.431 14.6898 106.036 15.7858 104.476 15.7543C92.0864 15.1708 79.6895 15.0209 67.2925 15.2811C65.7085 15.2654 64.2662 14.1457 64.2268 12.3952C64.2662 9.53284 64.2977 6.67052 64.3371 3.80031V3.79242Z" fill="#F5AB00"/>
<path d="M114.634 152.859C114.682 151.991 115.359 151.337 116.163 151.266C120.852 150.982 125.534 150.643 130.215 150.241C130.98 150.201 131.586 150.785 131.579 151.597C131.563 151.976 131.555 152.362 131.539 152.741C131.484 153.576 130.861 154.239 130.073 154.341C125.408 154.767 120.734 155.13 116.053 155.429C115.265 155.453 114.603 154.877 114.595 154.026C114.603 153.639 114.611 153.245 114.618 152.859H114.634Z" fill="#2E3A47"/>
<path d="M155.285 107.104C155.072 77.3555 153.882 47.6306 151.589 17.9765C151.321 14.9015 149.146 12.205 146.222 11.6294C105.681 5.32963 64.345 4.99059 23.655 9.97367C20.6286 10.4625 18.2407 13.1039 17.9806 16.3129C15.8606 46.6292 14.71 77.0086 14.4026 107.404C15.1828 120.177 16.1207 132.934 17.2319 145.676C17.4447 148.94 19.8011 151.668 22.9063 152.086C64.2032 156.028 105.926 155.776 147.128 150.777C150.131 150.288 152.251 147.505 152.471 144.398C153.598 131.98 154.528 119.538 155.285 107.088V107.104Z" fill="#F1D600"/>
<path d="M150.438 42.4898C150.233 39.336 148.082 36.5369 145.032 36.1033C105.224 32.0506 65.0703 31.8219 25.1999 34.9915C22.0474 35.3621 19.6595 38.1138 19.4624 41.4175C18.6034 59.3629 18.0517 77.3161 17.7759 95.2851C17.8862 98.5967 20.1796 101.388 23.3951 101.561C64.5659 102.279 105.752 102.231 146.915 101.317C150.021 101.128 152.07 98.2971 152.172 95.1669C151.928 77.6 151.36 60.0409 150.438 42.4977V42.4898Z" fill="#A8B8C4" stroke="black" stroke-width="0.85" stroke-miterlimit="3.86"/>
<path d="M26.9256 18.5292C27.162 15.2096 29.6998 12.6074 32.8049 12.1895C67.6866 8.86987 102.86 9.20104 137.655 13.5694C140.673 14.0662 143.014 16.7393 143.266 19.9328C143.377 22.188 143.479 24.4352 143.581 26.6904C143.629 29.7972 141.414 32.1075 138.443 31.9104C103.12 28.5355 67.5605 28.2911 32.1823 30.8538C29.1087 30.9878 26.6577 28.7011 26.6734 25.4209C26.7601 23.1263 26.8389 20.8317 26.9335 18.5371L26.9256 18.5292Z" fill="#E6E7E3" stroke="#F59500" stroke-width="0.85" stroke-miterlimit="3.86"/>
<path d="M147.522 111.063C147.585 109.493 148.625 108.05 150.178 107.932C151.541 107.877 152.905 107.822 154.26 107.767C155.766 107.767 156.696 109.139 156.711 110.621C156.711 110.96 156.696 111.291 156.696 111.63C156.625 113.144 155.663 114.587 154.15 114.737C152.787 114.816 151.431 114.895 150.068 114.966C148.531 114.989 147.522 113.617 147.506 112.088C147.506 111.741 147.514 111.402 147.522 111.055V111.063Z" fill="#F5AB00"/>
<path d="M12.8501 111.141C12.8737 109.557 13.9377 108.2 15.506 108.192C16.9719 108.24 18.4299 108.287 19.8958 108.334C21.5035 108.445 22.662 109.856 22.733 111.512C22.733 111.867 22.7409 112.214 22.7487 112.561C22.7251 114.193 21.5902 115.541 19.9904 115.526C18.5324 115.463 17.0665 115.399 15.6085 115.328C14.0323 115.194 12.9368 113.775 12.8659 112.167C12.8659 111.82 12.858 111.481 12.8501 111.134V111.141Z" fill="#F5AB00"/>
<path d="M16.3572 135.702C16.6409 139.029 16.9404 142.365 17.2556 145.692C17.4684 148.957 19.8249 151.685 22.93 152.103C64.2269 156.046 105.949 155.793 147.152 150.794C150.147 150.305 152.274 147.522 152.495 144.415C152.795 141.158 153.07 137.902 153.346 134.645C107.857 139.211 61.9177 139.368 16.3572 135.702Z" fill="#F5AB00"/>
<path d="M116.415 101.798C120.269 79.4214 123.847 56.9897 127.094 34.5028C124.147 34.2899 121.191 34.1007 118.236 33.9272C114.792 56.6349 111.072 79.3032 107.139 101.924C110.229 101.885 113.318 101.845 116.408 101.798H116.415Z" fill="#EEF0F1"/>
<path d="M101.205 101.94C105.177 79.2006 108.984 56.4377 112.577 33.6276C111.309 33.5645 110.032 33.5093 108.763 33.4541C105.106 56.3352 101.26 79.1769 97.2723 101.995C98.5806 101.979 99.8889 101.956 101.197 101.94H101.205Z" fill="#EEF0F1"/>
<path d="M56.0463 101.932C59.9711 78.8932 64.0614 55.8859 68.3093 32.9102C62.9738 32.9969 57.6462 33.1388 52.3107 33.3438C47.984 56.1067 43.9646 78.9326 40.2053 101.806C45.4857 101.861 50.766 101.901 56.0463 101.924V101.932Z" fill="#EEF0F1"/>
<path d="M34.5309 101.703C38.2193 78.9403 42.2229 56.2327 46.5653 33.5959C45.3044 33.659 44.0434 33.7221 42.7824 33.7852C38.4399 56.343 34.4915 78.9798 30.8662 101.68C32.0878 101.687 33.3093 101.695 34.5309 101.703Z" fill="#EEF0F1"/>
<path d="M150.438 42.4898C150.233 39.336 148.082 36.5369 145.032 36.1033C105.224 32.0506 65.0703 31.8219 25.1999 34.9915C22.0474 35.3621 19.6595 38.1138 19.4624 41.4175C18.6034 59.3629 18.0517 77.3161 17.7759 95.2851C17.8862 98.5967 20.1796 101.388 23.3951 101.561C64.5659 102.279 105.752 102.231 146.915 101.317C150.021 101.128 152.07 98.2971 152.172 95.1669C151.928 77.6 151.36 60.0409 150.438 42.4977V42.4898Z" stroke="#567364" stroke-width="1.27" stroke-miterlimit="3.86"/>
<path d="M111.561 136.018C113.436 135.947 115.32 135.86 117.196 135.774C119 135.648 119.686 134.157 120.246 132.549C120.986 130.428 121.719 128.306 122.452 126.185C123.075 124.301 121.034 123.189 119.513 123.189C116.896 123.284 114.28 123.37 111.663 123.449C93.8282 123.946 75.9855 124.033 58.1427 123.717C56.1409 123.678 54.147 123.638 52.1452 123.591C50.6163 123.607 48.4411 124.719 49.0873 126.658C49.836 128.795 50.5847 130.932 51.3413 133.069C51.9245 134.717 52.6259 136.192 54.478 136.286C55.7626 136.326 57.0472 136.357 58.3318 136.389C76.08 136.815 93.8361 136.696 111.576 136.018H111.561Z" fill="#F5AB00"/>
<path d="M87.0426 126.911C87.0426 126.272 89.7537 126.319 90.2266 126.311C93.5366 126.28 96.8467 126.225 100.149 126.161C100.598 126.161 103.278 126.043 103.27 126.658C103.27 127.305 100.614 127.281 100.141 127.289C96.8309 127.36 93.5287 127.407 90.2187 127.447C89.7537 127.447 87.0426 127.541 87.0426 126.911Z" fill="black"/>
<path fill-rule="evenodd" clip-rule="evenodd" d="M87.0347 129.149C87.1687 128.432 89.6513 128.558 90.2108 128.55C93.513 128.511 96.823 128.456 100.125 128.393C100.574 128.393 103.254 128.266 103.246 128.881C103.246 129.528 100.59 129.504 100.117 129.52C96.8152 129.591 93.5051 129.646 90.2029 129.686C89.6513 129.686 87.153 129.859 87.0269 129.149H87.0347Z" fill="black"/>
<path fill-rule="evenodd" clip-rule="evenodd" d="M87.0269 131.381C87.1608 130.663 89.6434 130.79 90.2029 130.782C93.5051 130.742 96.8073 130.687 100.109 130.616C100.559 130.616 103.23 130.49 103.23 131.105C103.23 131.752 100.574 131.728 100.102 131.744C96.7994 131.823 93.4972 131.878 90.1951 131.917C89.6434 131.917 87.153 132.091 87.0269 131.389V131.381Z" fill="black"/>
<path fill-rule="evenodd" clip-rule="evenodd" d="M87.0189 133.605C87.1529 132.895 89.6354 133.013 90.195 133.005C93.4972 132.966 96.7915 132.903 100.094 132.824C100.543 132.816 103.215 132.69 103.207 133.305C103.207 133.952 100.559 133.936 100.086 133.944C96.7915 134.022 93.4893 134.086 90.195 134.125C89.6512 134.125 87.1529 134.298 87.0268 133.597L87.0189 133.605Z" fill="black"/>
<path d="M68.2542 126.887C68.2542 126.256 70.9731 126.343 71.4302 126.343C74.7718 126.366 78.1134 126.374 81.455 126.366C81.92 126.366 84.6389 126.287 84.6389 126.926C84.6389 127.565 81.92 127.502 81.455 127.51C78.1134 127.51 74.7797 127.51 71.4381 127.486C70.9653 127.486 68.262 127.533 68.2542 126.887Z" fill="black"/>
<path fill-rule="evenodd" clip-rule="evenodd" d="M68.262 129.126C68.3881 128.424 70.8864 128.59 71.438 128.59C74.7717 128.613 78.1133 128.621 81.447 128.613C81.912 128.613 84.631 128.535 84.631 129.165C84.631 129.804 81.9199 129.741 81.447 129.749C78.1133 129.749 74.7717 129.749 71.438 129.725C70.8785 129.725 68.3881 129.844 68.262 129.126Z" fill="black"/>
<path fill-rule="evenodd" clip-rule="evenodd" d="M68.2698 131.357C68.3959 130.656 70.8942 130.821 71.438 130.821C74.7717 130.845 78.1054 130.853 81.4391 130.845C81.9041 130.845 84.6231 130.766 84.6231 131.397C84.6231 132.036 81.912 131.972 81.4391 131.972C78.1054 131.98 74.7717 131.972 71.438 131.941C70.8785 131.941 68.3959 132.059 68.262 131.342L68.2698 131.357Z" fill="black"/>
<path fill-rule="evenodd" clip-rule="evenodd" d="M68.2856 133.581C68.4117 132.879 70.91 133.045 71.4538 133.053C74.7875 133.076 78.1212 133.092 81.4471 133.084C81.912 133.084 84.6231 133.005 84.6231 133.636C84.6231 134.275 81.912 134.212 81.4471 134.212C78.1212 134.22 74.7875 134.212 71.4538 134.18C70.8943 134.172 68.4117 134.298 68.2856 133.581Z" fill="black"/>
<path d="M55.9832 93.1722C55.9832 92.36 57.3545 92.2496 57.8904 92.2417C68.1515 92.2575 78.4127 92.2575 88.6818 92.2496C89.2256 92.2575 90.6205 92.3679 90.6205 93.1879C90.6205 94.008 89.2256 94.1184 88.6818 94.1341C78.4206 94.142 68.1594 94.1341 57.8983 94.1184C57.3545 94.1105 55.991 93.9922 55.991 93.18L55.9832 93.1722Z" fill="black"/>
<path d="M33.4827 104.992C33.7821 105.71 34.9328 105.426 35.4687 105.236C44.792 101.806 54.1154 98.3685 63.4387 94.9463C63.9746 94.7413 65.1568 94.1893 64.9282 93.3929C64.5972 92.6438 63.3599 92.975 62.8003 93.1721C53.4849 96.6022 44.1694 100.048 34.8619 103.502C34.3417 103.707 33.2699 104.235 33.4827 104.992Z" fill="black"/>
<path fill-rule="evenodd" clip-rule="evenodd" d="M90.731 96.1368C90.7862 95.3167 92.0787 95.2063 92.6619 95.1905C102.624 95.1748 112.593 95.1353 122.555 95.0723C123.075 95.0723 124.36 95.1984 124.352 95.9791C124.352 96.7676 123.075 96.9016 122.547 96.9095C112.585 96.9884 102.616 97.0357 92.654 97.0672C92.0787 97.0672 90.7783 96.9568 90.7231 96.1289L90.731 96.1368Z" fill="black"/>
<path d="M117.7 95.9712C123.635 98.2027 129.577 100.45 135.503 102.705C136.016 102.91 137.009 103.431 136.812 104.164C136.528 104.866 135.44 104.598 134.928 104.416C127.433 101.601 119.93 98.7941 112.428 96.0106C114.185 96.0027 115.943 95.987 117.7 95.9791V95.9712Z" fill="black"/>
<path d="M122.326 132.446L122.066 133.093C121.388 134.788 125.037 136.357 126.795 136.31C133.045 135.908 139.286 135.435 145.52 134.875C147.349 134.67 147.971 132.982 148.507 131.358C149.248 129.103 149.981 126.84 150.706 124.577C151.273 122.724 148.594 121.36 146.986 121.415C141.154 121.817 133.336 124.38 127.039 125.539C125.66 125.791 124.903 126.848 124.32 128.007L122.334 132.454L122.326 132.446Z" fill="#E6E7E3" stroke="#820500" stroke-width="0.93" stroke-miterlimit="3.86"/>
<path d="M145.512 134.867C147.341 134.662 147.963 132.975 148.499 131.35C149.24 129.095 149.973 126.832 150.698 124.569C151.266 122.716 149.532 121.446 147.924 121.494C147.223 121.541 146.513 121.588 145.812 121.636C145.733 126.043 145.631 130.451 145.512 134.859V134.867Z" fill="#F5AB00" stroke="#820500" stroke-width="0.93" stroke-miterlimit="3.86"/>
<path d="M127.938 125.357C127.63 125.42 127.331 125.475 127.031 125.531C125.652 125.783 124.895 126.84 124.312 127.999L122.326 132.446L122.066 133.093C121.672 134.078 125.282 135.6 126.614 136.207L127.945 125.357H127.938Z" fill="#BAC6CE"/>
<path d="M122.326 132.446L122.066 133.093C121.388 134.788 125.037 136.357 126.795 136.31C133.045 135.908 139.286 135.435 145.52 134.875C147.349 134.67 147.971 132.982 148.507 131.358C149.248 129.103 149.981 126.84 150.706 124.577C151.273 122.724 148.594 121.36 146.986 121.415C141.154 121.817 133.336 124.38 127.039 125.539C125.66 125.791 124.903 126.848 124.32 128.007L122.334 132.454L122.326 132.446Z" stroke="#820500" stroke-width="0.93" stroke-miterlimit="3.86"/>
<path d="M122.326 132.446L122.066 133.093C121.388 134.788 125.037 136.357 126.795 136.31C133.045 135.908 139.286 135.435 145.52 134.875C147.349 134.67 147.971 132.982 148.507 131.358C149.248 129.103 149.981 126.84 150.706 124.577C151.273 122.724 148.594 121.36 146.986 121.415C141.154 121.817 133.336 124.38 127.039 125.539C125.66 125.791 124.903 126.848 124.32 128.007L122.334 132.454L122.326 132.446Z" fill="#E6E7E3" stroke="#820500" stroke-width="0.93" stroke-miterlimit="3.86"/>
<path d="M145.512 134.867C147.341 134.662 147.963 132.975 148.499 131.35C149.24 129.095 149.973 126.832 150.698 124.569C151.266 122.716 149.532 121.446 147.924 121.494C147.223 121.541 146.513 121.588 145.812 121.636C145.733 126.043 145.631 130.451 145.512 134.859V134.867Z" fill="#F5AB00" stroke="#820500" stroke-width="0.93" stroke-miterlimit="3.86"/>
<path d="M127.938 125.357C127.63 125.42 127.331 125.475 127.031 125.531C125.652 125.783 124.895 126.84 124.312 127.999L122.326 132.446L122.066 133.093C121.672 134.078 125.282 135.6 126.614 136.207L127.945 125.357H127.938Z" fill="#BAC6CE"/>
<path d="M122.326 132.446L122.066 133.093C121.388 134.788 125.037 136.357 126.795 136.31C133.045 135.908 139.286 135.435 145.52 134.875C147.349 134.67 147.971 132.982 148.507 131.358C149.248 129.103 149.981 126.84 150.706 124.577C151.273 122.724 148.594 121.36 146.986 121.415C141.154 121.817 133.336 124.38 127.039 125.539C125.66 125.791 124.903 126.848 124.32 128.007L122.334 132.454L122.326 132.446Z" stroke="#820500" stroke-width="0.93" stroke-miterlimit="3.86"/>
<path d="M47.6373 132.446L47.8973 133.093C48.5751 134.788 44.9183 136.357 43.1687 136.31C36.919 135.908 30.6772 135.435 24.4432 134.875C22.6148 134.67 21.9922 132.982 21.4563 131.358C20.7155 129.103 19.9825 126.84 19.2575 124.577C18.69 122.724 21.3696 121.36 22.9773 121.415C28.8093 121.817 36.6353 124.38 42.9244 125.539C44.3036 125.791 45.0601 126.848 45.6433 128.007L47.6373 132.454V132.446Z" fill="#E6E7E3" stroke="#820500" stroke-width="0.93" stroke-miterlimit="3.86"/>
<path d="M24.4432 134.867C22.6148 134.662 21.9922 132.975 21.4563 131.35C20.7155 129.095 19.9825 126.832 19.2575 124.569C18.69 122.716 20.4239 121.446 22.0316 121.494C22.733 121.541 23.4423 121.588 24.1437 121.636C24.2225 126.043 24.325 130.451 24.4432 134.859V134.867Z" fill="#F5AB00" stroke="#820500" stroke-width="0.93" stroke-miterlimit="3.86"/>
<path d="M42.0181 125.357C42.3254 125.42 42.6249 125.475 42.9244 125.531C44.3036 125.783 45.0602 126.84 45.6434 127.999L47.6373 132.446L47.8974 133.093C48.2914 134.078 44.6819 135.6 43.35 136.207L42.0181 125.357Z" fill="#BAC6CE"/>
<path d="M47.6373 132.446L47.8973 133.093C48.5751 134.788 44.9183 136.357 43.1687 136.31C36.919 135.908 30.6772 135.435 24.4432 134.875C22.6148 134.67 21.9922 132.982 21.4563 131.358C20.7155 129.103 19.9825 126.84 19.2575 124.577C18.69 122.724 21.3696 121.36 22.9773 121.415C28.8093 121.817 36.6353 124.38 42.9244 125.539C44.3036 125.791 45.0601 126.848 45.6433 128.007L47.6373 132.454V132.446Z" stroke="#820500" stroke-width="0.93" stroke-miterlimit="3.86"/>
<path d="M13.4727 97.7294C14.6234 97.6426 15.774 97.5559 16.9168 97.4771C16.8853 99.6612 16.8537 101.845 16.8301 104.03C15.6794 104.093 14.5288 104.156 13.3782 104.227C13.4018 102.066 13.4333 99.8978 13.4727 97.7373V97.7294Z" fill="#F5AB00"/>
<path d="M7.89281 92.2102C7.87705 93.0618 7.86129 93.9213 7.83765 94.7808C7.85341 96.1449 8.87795 96.7442 9.76852 96.6969C10.4857 96.6338 11.2029 96.5707 11.92 96.5155C11.991 96.5155 12.054 96.5076 12.1171 96.4997C13.0392 96.4524 14.1031 97.0754 14.1819 98.4631C14.4972 98.4395 14.8045 98.4158 15.1198 98.4001C15.1277 97.6904 15.1434 96.9807 15.1513 96.2711C15.0804 94.8754 14.0243 94.2603 13.0943 94.3155C13.0313 94.3155 12.9604 94.3234 12.8894 94.3313C12.1644 94.3944 11.4472 94.4575 10.7221 94.5206C9.67394 94.56 9.46903 93.1958 9.4848 92.0525C8.95676 92.1077 8.42085 92.1629 7.89281 92.2181V92.2102Z" fill="#F5AB00"/>
<path d="M5.29204 74.4386C5.37085 72.6486 6.13532 70.9533 7.28596 70.6616C8.28685 70.4645 9.28775 70.2752 10.2886 70.0938C11.4393 69.944 12.2038 71.4422 12.188 73.2006C12.0619 78.4443 11.9516 83.6879 11.857 88.9395C11.7939 90.7846 10.9822 92.5036 9.79214 92.7165C8.78336 92.8347 7.77459 92.9609 6.76581 93.0871C5.61517 93.1659 4.92163 91.581 4.92163 89.862C5.02408 84.7209 5.15018 79.5797 5.29204 74.4465V74.4386Z" fill="#F5AB00"/>
<path d="M7.15986 93.0318L6.76581 93.0792C5.61517 93.158 4.92163 91.5731 4.92163 89.8541C5.02408 84.713 5.15018 79.5718 5.29204 74.4386C5.37085 72.6486 6.13532 70.9533 7.28596 70.6616C7.50663 70.6221 7.71942 70.5748 7.95585 70.5354L7.15198 93.0318H7.15986Z" fill="#F1D600"/>
<path d="M156.105 97.7294C154.954 97.6426 153.803 97.5559 152.661 97.4771C152.692 99.6612 152.724 101.845 152.747 104.03C153.898 104.093 155.048 104.156 156.199 104.227C156.175 102.066 156.144 99.8978 156.105 97.7373V97.7294Z" fill="#F5AB00"/>
<path d="M161.684 92.2102C161.7 93.0618 161.724 93.9213 161.74 94.7808C161.724 96.1449 160.699 96.7442 159.809 96.6969C159.092 96.6338 158.374 96.5707 157.657 96.5155C157.594 96.5155 157.523 96.5076 157.46 96.4997C156.538 96.4524 155.474 97.0754 155.395 98.4631C155.08 98.4395 154.773 98.4158 154.457 98.4001C154.45 97.6904 154.434 96.9807 154.426 96.2711C154.497 94.8754 155.553 94.2603 156.483 94.3155C156.546 94.3155 156.617 94.3234 156.688 94.3313C157.413 94.3944 158.13 94.4575 158.855 94.5206C159.903 94.56 160.108 93.1958 160.092 92.0525C160.62 92.1077 161.156 92.1629 161.684 92.2181V92.2102Z" fill="#F5AB00"/>
<path d="M164.285 74.4386C164.206 72.6486 163.442 70.9533 162.291 70.6616C161.29 70.4645 160.289 70.2752 159.288 70.0938C158.138 69.944 157.373 71.4422 157.389 73.2006C157.515 78.4443 157.626 83.6879 157.72 88.9395C157.783 90.7846 158.595 92.5036 159.785 92.7165C160.794 92.8347 161.803 92.9609 162.811 93.0871C163.962 93.1659 164.656 91.581 164.656 89.862C164.553 84.7209 164.427 79.5797 164.285 74.4465V74.4386Z" fill="#F5AB00"/>
<path d="M162.417 93.0318L162.811 93.0792C163.962 93.158 164.656 91.5731 164.656 89.8541C164.553 84.713 164.427 79.5718 164.285 74.4386C164.206 72.6486 163.442 70.9533 162.291 70.6616C162.078 70.6221 161.858 70.5748 161.621 70.5354L162.425 93.0318H162.417Z" fill="#F1D600"/>
<path d="M151.557 17.5438C151.116 14.6815 148.996 12.237 146.23 11.693C105.689 5.3927 64.353 5.05364 23.6629 10.0371C20.8178 10.4944 18.5323 12.86 18.0595 15.809L17.9885 14.3976C18.2486 11.1804 20.6366 8.54678 23.6629 8.05789C64.353 3.07445 105.689 3.40563 146.23 9.71378C149.153 10.2894 151.329 12.9861 151.597 16.0614L151.557 17.5438Z" fill="#DDD8CE"/>
<path d="M41.7421 30.223C38.5503 30.4043 35.3663 30.6172 32.1745 30.8459C29.1009 30.9799 26.6498 28.6932 26.6656 25.413C26.7523 23.1184 26.8311 20.8238 26.9257 18.5292C27.1621 15.2096 29.6998 12.6075 32.805 12.1895C37.6597 11.7243 42.5223 11.3379 47.4165 11.0146L41.7421 30.223Z" fill="#DDD8CE"/>
<path d="M26.9256 18.5292C27.162 15.2096 29.6998 12.6074 32.8049 12.1895C67.6866 8.86987 102.86 9.20104 137.655 13.5694C140.673 14.0662 143.014 16.7393 143.266 19.9328C143.377 22.188 143.479 24.4352 143.581 26.6904C143.629 29.7972 141.414 32.1075 138.443 31.9104C103.12 28.5355 67.5605 28.2911 32.1823 30.8538C29.1087 30.9878 26.6577 28.7011 26.6734 25.4209C26.7601 23.1263 26.8389 20.8317 26.9335 18.5371L26.9256 18.5292Z" stroke="#BBB2A5" stroke-width="0.85" stroke-miterlimit="3.86"/>
<path d="M152.117 101.033C151.754 103.864 149.784 106.293 146.915 106.466C105.745 107.381 64.5658 107.42 23.395 106.711C20.3687 106.545 18.1856 104.077 17.8389 101.033H18.359C19.2417 103.107 21.0622 104.605 23.395 104.731C64.5658 105.449 105.752 105.402 146.915 104.487C149.083 104.353 150.73 102.941 151.565 101.041H152.109L152.117 101.033Z" fill="#F6E438"/>
<path d="M19.4937 140.89C19.7617 143.319 20.0454 145.747 20.337 148.176C20.5419 150.549 22.7644 152.544 25.6961 152.852C64.6839 155.73 104.066 155.541 142.959 151.898C145.788 151.543 147.798 149.508 148.003 147.245C148.279 144.872 148.546 142.498 148.807 140.125C105.863 143.453 62.4929 143.571 19.4858 140.898L19.4937 140.89Z" fill="#F1D600"/>
<path d="M48.646 142.262C38.9129 141.946 29.1955 141.489 19.4939 140.882C19.7619 143.31 20.0456 145.739 20.3372 148.168C20.5421 150.541 22.7645 152.536 25.6963 152.844C32.5686 153.348 39.4646 153.766 46.3842 154.074L48.646 142.262Z" fill="#F6E438"/>
<path d="M64.3371 3.79242C64.4238 2.05768 65.8739 0.91433 67.4423 0.827593C79.6895 0.52007 91.9288 0.693544 104.16 1.38744C105.721 1.52937 107.131 2.71215 107.234 4.43113C107.305 7.27768 107.376 10.1242 107.447 12.9708C107.431 14.6898 106.036 15.7858 104.476 15.7543C92.0864 15.1708 79.6895 15.0209 67.2925 15.2811C65.7085 15.2654 64.2662 14.1457 64.2268 12.3952C64.2662 9.53284 64.2977 6.67052 64.3371 3.80031V3.79242Z" fill="#F5AB00"/>
<path d="M129.167 150.104C129.167 148.63 130.641 147.439 132.453 147.439H144.039C145.851 147.439 147.325 148.63 147.325 150.104V167.972C147.325 169.447 145.851 170.637 144.039 170.637H132.453C130.641 170.637 129.167 169.447 129.167 167.972V150.104Z" fill="black"/>
<path d="M141.895 170.63H144.237L144.19 147.439H141.895V170.63Z" fill="#635452"/>
<path d="M137.08 170.63H139.422L139.374 147.439H137.08V170.63Z" fill="#635452"/>
<path d="M132.264 170.63H134.606L134.559 147.439H132.264V170.63Z" fill="#635452"/>
<path d="M129.167 150.104C129.167 148.63 130.641 147.439 132.453 147.439H144.039C145.851 147.439 147.325 148.63 147.325 150.104V167.972C147.325 169.447 145.851 170.637 144.039 170.637H132.453C130.641 170.637 129.167 169.447 129.167 167.972V150.104Z" fill="black"/>
<path d="M141.895 170.63H144.237L144.19 147.439H141.895V170.63Z" fill="#635452"/>
<path d="M137.08 170.63H139.422L139.374 147.439H137.08V170.63Z" fill="#635452"/>
<path d="M132.264 170.63H134.606L134.559 147.439H132.264V170.63Z" fill="#635452"/>
<path d="M114.634 154.859C114.682 153.991 115.359 153.337 116.163 153.266C120.852 152.982 125.534 152.643 130.215 152.241C130.98 152.201 131.586 152.785 131.579 153.597C131.563 153.976 131.555 154.362 131.539 154.741C131.484 155.576 130.861 156.239 130.073 156.341C125.408 156.767 120.734 157.13 116.053 157.429C115.265 157.453 114.603 156.877 114.595 156.026C114.603 155.639 114.611 155.245 114.618 154.859H114.634Z" fill="#2E3A47"/>
<path d="M41.7856 151.757C41.7856 150.232 40.2609 149 38.3856 149H26.4C24.5248 149 23.0001 150.232 23.0001 151.757V170.243C23.0001 171.768 24.5248 173 26.4 173H38.3856C40.2609 173 41.7856 171.768 41.7856 170.243V151.757Z" fill="black"/>
<path d="M28.6177 172.992H26.1948L26.2438 149H28.6177V172.992Z" fill="#635452"/>
<path d="M33.5996 172.992H31.1768L31.2257 149H33.5996V172.992Z" fill="#635452"/>
<path d="M38.5811 172.992H36.1582L36.2072 149H38.5811V172.992Z" fill="#635452"/>
<path d="M41.7856 151.757C41.7856 150.232 40.2609 149 38.3856 149H26.4C24.5248 149 23.0001 150.232 23.0001 151.757V170.243C23.0001 171.768 24.5248 173 26.4 173H38.3856C40.2609 173 41.7856 171.768 41.7856 170.243V151.757Z" fill="black"/>
<path d="M28.6177 172.992H26.1948L26.2438 149H28.6177V172.992Z" fill="#635452"/>
<path d="M33.5996 172.992H31.1768L31.2257 149H33.5996V172.992Z" fill="#635452"/>
<path d="M38.5811 172.992H36.1582L36.2072 149H38.5811V172.992Z" fill="#635452"/>
<path d="M56.8208 156.676C56.7719 155.779 56.0707 155.102 55.239 155.028C50.3877 154.735 45.5445 154.384 40.7014 153.968C39.9105 153.927 39.2827 154.531 39.2908 155.371C39.3071 155.762 39.3153 156.162 39.3316 156.554C39.3887 157.418 40.0328 158.104 40.8482 158.21C45.675 158.65 50.51 159.026 55.3532 159.336C56.1685 159.36 56.8534 158.765 56.8616 157.883C56.8534 157.484 56.8453 157.076 56.8371 156.676H56.8208Z" fill="#2E3A47"/>
<path d="M150.438 42.4898C150.233 39.336 148.082 36.5369 145.032 36.1033C105.224 32.0506 65.0703 31.8219 25.1999 34.9915C22.0474 35.3621 19.6595 38.1138 19.4624 41.4175C18.6034 59.3629 18.0517 77.3161 17.7759 95.2851C17.8862 98.5967 20.1796 101.388 23.3951 101.561C64.5659 102.279 105.752 102.231 146.915 101.317C150.021 101.128 152.07 98.2971 152.172 95.1669C151.928 77.6 151.36 60.0409 150.438 42.4977V42.4898Z" fill="#A8B8C4" stroke="black" stroke-width="0.85" stroke-miterlimit="3.86"/>
<path d="M26.9256 18.5292C27.162 15.2096 29.6998 12.6074 32.8049 12.1895C67.6866 8.86987 102.86 9.20104 137.655 13.5694C140.673 14.0662 143.014 16.7393 143.266 19.9328C143.377 22.188 143.479 24.4352 143.581 26.6904C143.629 29.7972 141.414 32.1075 138.443 31.9104C103.12 28.5355 67.5605 28.2911 32.1823 30.8538C29.1087 30.9878 26.6577 28.7011 26.6734 25.4209C26.7601 23.1263 26.8389 20.8317 26.9335 18.5371L26.9256 18.5292Z" fill="#E6E7E3" stroke="#F59500" stroke-width="0.85" stroke-miterlimit="3.86"/>
<path d="M147.522 111.063C147.585 109.493 148.625 108.05 150.178 107.932C151.541 107.877 152.905 107.822 154.26 107.767C155.766 107.767 156.696 109.139 156.711 110.621C156.711 110.96 156.696 111.291 156.696 111.63C156.625 113.144 155.663 114.587 154.15 114.737C152.787 114.816 151.431 114.895 150.068 114.966C148.531 114.989 147.522 113.617 147.506 112.088C147.506 111.741 147.514 111.402 147.522 111.055V111.063Z" fill="#F5AB00"/>
<path d="M116.415 101.798C120.269 79.4214 123.847 56.9897 127.094 34.5028C124.147 34.2899 121.191 34.1007 118.236 33.9272C114.792 56.6349 111.072 79.3032 107.139 101.924C110.229 101.885 113.318 101.845 116.408 101.798H116.415Z" fill="#EEF0F1"/>
<path d="M101.205 101.94C105.177 79.2006 108.984 56.4377 112.577 33.6276C111.309 33.5645 110.032 33.5093 108.763 33.4541C105.106 56.3352 101.26 79.1769 97.2723 101.995C98.5806 101.979 99.8889 101.956 101.197 101.94H101.205Z" fill="#EEF0F1"/>
<path d="M56.0463 101.932C59.9711 78.8932 64.0614 55.8859 68.3093 32.9102C62.9738 32.9969 57.6462 33.1388 52.3107 33.3438C47.984 56.1067 43.9646 78.9326 40.2053 101.806C45.4857 101.861 50.766 101.901 56.0463 101.924V101.932Z" fill="#EEF0F1"/>
<path d="M34.5309 101.703C38.2193 78.9403 42.2229 56.2327 46.5653 33.5959C45.3044 33.659 44.0434 33.7221 42.7824 33.7852C38.4399 56.343 34.4915 78.9798 30.8662 101.68C32.0878 101.687 33.3093 101.695 34.5309 101.703Z" fill="#EEF0F1"/>
<path d="M150.438 42.4898C150.233 39.336 148.082 36.5369 145.032 36.1033C105.224 32.0506 65.0703 31.8219 25.1999 34.9915C22.0474 35.3621 19.6595 38.1138 19.4624 41.4175C18.6034 59.3629 18.0517 77.3161 17.7759 95.2851C17.8862 98.5967 20.1796 101.388 23.3951 101.561C64.5659 102.279 105.752 102.231 146.915 101.317C150.021 101.128 152.07 98.2971 152.172 95.1669C151.928 77.6 151.36 60.0409 150.438 42.4977V42.4898Z" stroke="#567364" stroke-width="1.27" stroke-miterlimit="3.86"/>
<path d="M55.9832 93.1722C55.9832 92.36 57.3545 92.2496 57.8904 92.2417C68.1515 92.2575 78.4127 92.2575 88.6818 92.2496C89.2256 92.2575 90.6205 92.3679 90.6205 93.1879C90.6205 94.008 89.2256 94.1184 88.6818 94.1341C78.4206 94.142 68.1594 94.1341 57.8983 94.1184C57.3545 94.1105 55.991 93.9922 55.991 93.18L55.9832 93.1722Z" fill="black"/>
<path d="M33.4827 104.992C33.7821 105.71 34.9328 105.426 35.4687 105.236C44.792 101.806 54.1154 98.3685 63.4387 94.9463C63.9746 94.7413 65.1568 94.1893 64.9282 93.3929C64.5972 92.6438 63.3599 92.975 62.8003 93.1721C53.4849 96.6022 44.1694 100.048 34.8619 103.502C34.3417 103.707 33.2699 104.235 33.4827 104.992Z" fill="black"/>
<path fill-rule="evenodd" clip-rule="evenodd" d="M90.731 96.1368C90.7862 95.3167 92.0787 95.2063 92.6619 95.1905C102.624 95.1748 112.593 95.1353 122.555 95.0723C123.075 95.0723 124.36 95.1984 124.352 95.9791C124.352 96.7676 123.075 96.9016 122.547 96.9095C112.585 96.9884 102.616 97.0357 92.654 97.0672C92.0787 97.0672 90.7783 96.9568 90.7231 96.1289L90.731 96.1368Z" fill="black"/>
<path d="M117.7 95.9712C123.635 98.2027 129.577 100.45 135.503 102.705C136.016 102.91 137.009 103.431 136.812 104.164C136.528 104.866 135.44 104.598 134.928 104.416C127.433 101.601 119.93 98.7941 112.428 96.0106C114.185 96.0027 115.943 95.987 117.7 95.9791V95.9712Z" fill="black"/>
<path d="M122.326 132.446L122.066 133.093C121.388 134.788 125.037 136.357 126.795 136.31C133.045 135.908 139.286 135.435 145.52 134.875C147.349 134.67 147.971 132.982 148.507 131.358C149.248 129.103 149.981 126.84 150.706 124.577C151.273 122.724 148.594 121.36 146.986 121.415C141.154 121.817 133.336 124.38 127.039 125.539C125.66 125.791 124.903 126.848 124.32 128.007L122.334 132.454L122.326 132.446Z" fill="#E6E7E3" stroke="#820500" stroke-width="0.93" stroke-miterlimit="3.86"/>
<path d="M145.512 134.867C147.341 134.662 147.963 132.975 148.499 131.35C149.24 129.095 149.973 126.832 150.698 124.569C151.266 122.716 149.532 121.446 147.924 121.494C147.223 121.541 146.513 121.588 145.812 121.636C145.733 126.043 145.631 130.451 145.512 134.859V134.867Z" fill="#F5AB00" stroke="#820500" stroke-width="0.93" stroke-miterlimit="3.86"/>
<path d="M127.938 125.357C127.63 125.42 127.331 125.475 127.031 125.531C125.652 125.783 124.895 126.84 124.312 127.999L122.326 132.446L122.066 133.093C121.672 134.078 125.282 135.6 126.614 136.207L127.945 125.357H127.938Z" fill="#BAC6CE"/>
<path d="M122.326 132.446L122.066 133.093C121.388 134.788 125.037 136.357 126.795 136.31C133.045 135.908 139.286 135.435 145.52 134.875C147.349 134.67 147.971 132.982 148.507 131.358C149.248 129.103 149.981 126.84 150.706 124.577C151.273 122.724 148.594 121.36 146.986 121.415C141.154 121.817 133.336 124.38 127.039 125.539C125.66 125.791 124.903 126.848 124.32 128.007L122.334 132.454L122.326 132.446Z" stroke="#820500" stroke-width="0.93" stroke-miterlimit="3.86"/>
<path d="M122.326 132.446L122.066 133.093C121.388 134.788 125.037 136.357 126.795 136.31C133.045 135.908 139.286 135.435 145.52 134.875C147.349 134.67 147.971 132.982 148.507 131.358C149.248 129.103 149.981 126.84 150.706 124.577C151.273 122.724 148.594 121.36 146.986 121.415C141.154 121.817 133.336 124.38 127.039 125.539C125.66 125.791 124.903 126.848 124.32 128.007L122.334 132.454L122.326 132.446Z" fill="#E6E7E3" stroke="#820500" stroke-width="0.93" stroke-miterlimit="3.86"/>
<path d="M145.512 134.867C147.341 134.662 147.963 132.975 148.499 131.35C149.24 129.095 149.973 126.832 150.698 124.569C151.266 122.716 149.532 121.446 147.924 121.494C147.223 121.541 146.513 121.588 145.812 121.636C145.733 126.043 145.631 130.451 145.512 134.859V134.867Z" fill="#F5AB00" stroke="#820500" stroke-width="0.93" stroke-miterlimit="3.86"/>
<path d="M127.938 125.357C127.63 125.42 127.331 125.475 127.031 125.531C125.652 125.783 124.895 126.84 124.312 127.999L122.326 132.446L122.066 133.093C121.672 134.078 125.282 135.6 126.614 136.207L127.945 125.357H127.938Z" fill="#BAC6CE"/>
<path d="M122.326 132.446L122.066 133.093C121.388 134.788 125.037 136.357 126.795 136.31C133.045 135.908 139.286 135.435 145.52 134.875C147.349 134.67 147.971 132.982 148.507 131.358C149.248 129.103 149.981 126.84 150.706 124.577C151.273 122.724 148.594 121.36 146.986 121.415C141.154 121.817 133.336 124.38 127.039 125.539C125.66 125.791 124.903 126.848 124.32 128.007L122.334 132.454L122.326 132.446Z" stroke="#820500" stroke-width="0.93" stroke-miterlimit="3.86"/>
<path d="M13.4727 97.7294C14.6234 97.6426 15.774 97.5559 16.9168 97.4771C16.8853 99.6612 16.8537 101.845 16.8301 104.03C15.6794 104.093 14.5288 104.156 13.3782 104.227C13.4018 102.066 13.4333 99.8978 13.4727 97.7373V97.7294Z" fill="#F5AB00"/>
<path d="M7.89281 92.2102C7.87705 93.0618 7.86129 93.9213 7.83765 94.7808C7.85341 96.1449 8.87795 96.7442 9.76852 96.6969C10.4857 96.6338 11.2029 96.5707 11.92 96.5155C11.991 96.5155 12.054 96.5076 12.1171 96.4997C13.0392 96.4524 14.1031 97.0754 14.1819 98.4631C14.4972 98.4395 14.8045 98.4158 15.1198 98.4001C15.1277 97.6904 15.1434 96.9807 15.1513 96.2711C15.0804 94.8754 14.0243 94.2603 13.0943 94.3155C13.0313 94.3155 12.9604 94.3234 12.8894 94.3313C12.1644 94.3944 11.4472 94.4575 10.7221 94.5206C9.67394 94.56 9.46903 93.1958 9.4848 92.0525C8.95676 92.1077 8.42085 92.1629 7.89281 92.2181V92.2102Z" fill="#F5AB00"/>
<path d="M5.29204 74.4386C5.37085 72.6486 6.13532 70.9533 7.28596 70.6616C8.28685 70.4645 9.28775 70.2752 10.2886 70.0938C11.4393 69.944 12.2038 71.4422 12.188 73.2006C12.0619 78.4443 11.9516 83.6879 11.857 88.9395C11.7939 90.7846 10.9822 92.5036 9.79214 92.7165C8.78336 92.8347 7.77459 92.9609 6.76581 93.0871C5.61517 93.1659 4.92163 91.581 4.92163 89.862C5.02408 84.7209 5.15018 79.5797 5.29204 74.4465V74.4386Z" fill="#F5AB00"/>
<path d="M7.15986 93.0318L6.76581 93.0792C5.61517 93.158 4.92163 91.5731 4.92163 89.8541C5.02408 84.713 5.15018 79.5718 5.29204 74.4386C5.37085 72.6486 6.13532 70.9533 7.28596 70.6616C7.50663 70.6221 7.71942 70.5748 7.95585 70.5354L7.15198 93.0318H7.15986Z" fill="#F1D600"/>
<path d="M156.105 97.7294C154.954 97.6426 153.803 97.5559 152.661 97.4771C152.692 99.6612 152.724 101.845 152.747 104.03C153.898 104.093 155.048 104.156 156.199 104.227C156.175 102.066 156.144 99.8978 156.105 97.7373V97.7294Z" fill="#F5AB00"/>
<path d="M161.684 92.2102C161.7 93.0618 161.724 93.9213 161.74 94.7808C161.724 96.1449 160.699 96.7442 159.809 96.6969C159.092 96.6338 158.374 96.5707 157.657 96.5155C157.594 96.5155 157.523 96.5076 157.46 96.4997C156.538 96.4524 155.474 97.0754 155.395 98.4631C155.08 98.4395 154.773 98.4158 154.457 98.4001C154.45 97.6904 154.434 96.9807 154.426 96.2711C154.497 94.8754 155.553 94.2603 156.483 94.3155C156.546 94.3155 156.617 94.3234 156.688 94.3313C157.413 94.3944 158.13 94.4575 158.855 94.5206C159.903 94.56 160.108 93.1958 160.092 92.0525C160.62 92.1077 161.156 92.1629 161.684 92.2181V92.2102Z" fill="#F5AB00"/>
<path d="M164.285 74.4386C164.206 72.6486 163.442 70.9533 162.291 70.6616C161.29 70.4645 160.289 70.2752 159.288 70.0938C158.138 69.944 157.373 71.4422 157.389 73.2006C157.515 78.4443 157.626 83.6879 157.72 88.9395C157.783 90.7846 158.595 92.5036 159.785 92.7165C160.794 92.8347 161.803 92.9609 162.811 93.0871C163.962 93.1659 164.656 91.581 164.656 89.862C164.553 84.7209 164.427 79.5797 164.285 74.4465V74.4386Z" fill="#F5AB00"/>
<path d="M162.417 93.0318L162.811 93.0792C163.962 93.158 164.656 91.5731 164.656 89.8541C164.553 84.713 164.427 79.5718 164.285 74.4386C164.206 72.6486 163.442 70.9533 162.291 70.6616C162.078 70.6221 161.858 70.5748 161.621 70.5354L162.425 93.0318H162.417Z" fill="#F1D600"/>
<path d="M151.557 17.5438C151.116 14.6815 148.996 12.237 146.23 11.693C105.689 5.3927 64.353 5.05364 23.6629 10.0371C20.8178 10.4944 18.5323 12.86 18.0595 15.809L17.9885 14.3976C18.2486 11.1804 20.6366 8.54678 23.6629 8.05789C64.353 3.07445 105.689 3.40563 146.23 9.71378C149.153 10.2894 151.329 12.9861 151.597 16.0614L151.557 17.5438Z" fill="#DDD8CE"/>
<path d="M41.7421 30.223C38.5503 30.4043 35.3663 30.6172 32.1745 30.8459C29.1009 30.9799 26.6498 28.6932 26.6656 25.413C26.7523 23.1184 26.8311 20.8238 26.9257 18.5292C27.1621 15.2096 29.6998 12.6075 32.805 12.1895C37.6597 11.7243 42.5223 11.3379 47.4165 11.0146L41.7421 30.223Z" fill="#DDD8CE"/>
<path d="M26.9256 18.5292C27.162 15.2096 29.6998 12.6074 32.8049 12.1895C67.6866 8.86987 102.86 9.20104 137.655 13.5694C140.673 14.0662 143.014 16.7393 143.266 19.9328C143.377 22.188 143.479 24.4352 143.581 26.6904C143.629 29.7972 141.414 32.1075 138.443 31.9104C103.12 28.5355 67.5605 28.2911 32.1823 30.8538C29.1087 30.9878 26.6577 28.7011 26.6734 25.4209C26.7601 23.1263 26.8389 20.8317 26.9335 18.5371L26.9256 18.5292Z" stroke="#BBB2A5" stroke-width="0.85" stroke-miterlimit="3.86"/>
<path d="M152.117 101.033C151.754 103.864 149.784 106.293 146.915 106.466C105.745 107.381 64.5658 107.42 23.395 106.711C20.3687 106.545 18.1856 104.077 17.8389 101.033H18.359C19.2417 103.107 21.0622 104.605 23.395 104.731C64.5658 105.449 105.752 105.402 146.915 104.487C149.083 104.353 150.73 102.941 151.565 101.041H152.109L152.117 101.033Z" fill="#F6E438"/>
</g>
<defs>
<filter id="filter0_d_531_4523" x="0.921631" y="0.681396" width="167.734" height="180.319" filterUnits="userSpaceOnUse" color-interpolation-filters="sRGB">
<feFlood flood-opacity="0" result="BackgroundImageFix"/>
<feColorMatrix in="SourceAlpha" type="matrix" values="0 0 0 0 0 0 0 0 0 0 0 0 0 0 0 0 0 0 127 0" result="hardAlpha"/>
<feOffset dy="4"/>
<feGaussianBlur stdDeviation="2"/>
<feComposite in2="hardAlpha" operator="out"/>
<feColorMatrix type="matrix" values="0 0 0 0 0 0 0 0 0 0 0 0 0 0 0 0 0 0 0.25 0"/>
<feBlend mode="normal" in2="BackgroundImageFix" result="effect1_dropShadow_531_4523"/>
<feBlend mode="normal" in="SourceGraphic" in2="effect1_dropShadow_531_4523" result="shape"/>
</filter>
</defs>
</svg>
