<svg width="145" height="112" viewBox="0 0 145 112" fill="none" xmlns="http://www.w3.org/2000/svg">
<g filter="url(#filter0_d_531_4321)">
<path d="M137.364 86.8754L137.112 98.9397C137.073 101.526 135 103.584 132.494 103.537L123.502 103.371C120.995 103.324 118.994 101.195 119.041 98.6085L119.246 86.5442L137.372 86.8675L137.364 86.8754Z" fill="black"/>
<path d="M6.50658 84.5181L6.34897 96.5824C6.30168 99.1688 8.30348 101.298 10.8097 101.345L19.802 101.511C22.3082 101.558 24.3809 99.4999 24.4203 96.9136L24.6252 84.8492L6.49871 84.5259L6.50658 84.5181Z" fill="black"/>
<path d="M44.7772 85.8188L98.5183 86.7808L102.483 89.5722L40.7263 88.4683L44.7772 85.8188Z" fill="black"/>
<path d="M136.198 89.6432C133.337 91.3937 125.054 91.993 121.972 91.646C118.812 91.2912 84.3324 91.0862 71.8566 90.826C59.5621 90.6525 24.7356 89.6038 21.5438 89.8403C18.4465 90.0769 10.1635 89.178 7.36572 87.325L136.206 89.6432H136.198Z" fill="#3D63AD"/>
<path fill-rule="evenodd" clip-rule="evenodd" d="M71.9039 29.2231C108.196 29.8775 123.643 31.5648 123.643 31.5648C122.816 29.6252 121.271 25.6198 118.497 17.9323C114.879 7.911 113.414 8.14754 107.408 6.64947C101.947 5.28543 83.4654 4.8833 73.2831 4.69407C63.1165 4.51273 44.462 4.24465 38.9294 5.41158C32.8768 6.68888 31.4266 6.40504 27.4703 16.2923C24.4361 23.8773 22.7574 27.8196 21.9142 29.7356C21.9142 29.7356 35.6194 28.5687 71.9039 29.2231ZM73.4013 0.160423C84.7107 0.365423 102.585 0.76754 108.646 2.28138C115.313 3.94504 116.944 3.68484 120.964 14.8179C125.984 28.7106 127.371 31.7698 127.371 31.7698C127.371 31.7698 136.056 34.0643 135.977 38.5269C135.898 42.9896 138.207 46.3642 138.759 47.8623C139.311 49.3604 139.957 62.3385 139.918 64.7196C139.878 67.1008 140.564 77.9421 139.366 80C138.176 82.0658 137.246 85.6138 137.199 88.3498C137.151 91.0858 125.708 92.0555 121.957 91.6377C118.796 91.2829 84.3166 91.0779 71.8408 90.8177C59.5464 90.6442 24.7198 89.5956 21.528 89.8321C17.7687 90.1159 6.3569 88.7361 6.40419 86.0002C6.45148 83.2642 5.6476 79.6767 4.52849 77.5794C3.40937 75.4742 4.45756 64.6644 4.49697 62.2833C4.53638 59.9021 5.62396 46.9556 6.22292 45.4812C6.82188 44.0068 9.24926 40.7189 9.32019 36.2562C9.399 31.7935 18.147 29.8066 18.147 29.8066C18.147 29.8066 19.6444 26.8025 25.1297 13.0991C29.5273 2.11581 31.1429 2.43908 37.8655 1.01196C44.0127 -0.288999 62.0762 -0.0366925 73.3698 0.160423H73.4013Z" fill="#648DC6"/>
<path d="M72.1008 52.9715C81.3059 53.1371 95.216 53.4367 97.5173 54.0832C100.016 54.785 103.066 58.9244 103.964 59.8075C104.862 60.6984 99.6925 73.5109 98.9753 75.6713C98.2581 77.8396 95.7598 80.8515 94.1678 80.8199L71.6437 80.4178L49.7027 80.0236C48.1108 79.9921 45.7149 76.9013 45.0687 74.7015C44.4224 72.5096 39.6938 59.5236 40.6159 58.6642C41.5458 57.8126 44.7377 53.7836 47.2517 53.1765C49.5215 52.6246 62.8957 52.8138 72.1008 52.9715Z" fill="black"/>
<path d="M113.555 74.5598C118.048 73.1562 124.029 73.4085 128.246 73.7634C131.879 74.0709 132.218 77.8558 131.981 79.5432C131.745 81.2307 132.123 83.265 127.245 83.3833C122.366 83.5095 111.191 83.0916 111.191 83.0916C111.191 83.0916 107.991 81.3726 110.033 78.5024C112.082 75.6322 113.555 74.544 113.555 74.544V74.5598Z" fill="black"/>
<path d="M30.7173 73.0695C26.2803 71.5082 20.2906 71.5398 16.0664 71.7448C12.4253 71.9183 11.9603 75.6874 12.1337 77.3906C12.3071 79.0859 11.8657 81.1045 16.7362 81.4042C21.6068 81.7038 32.7822 81.6959 32.7822 81.6959C32.7822 81.6959 36.0449 80.0952 34.0904 77.154C32.1438 74.2129 30.7094 73.0695 30.7094 73.0695H30.7173Z" fill="black"/>
<path d="M114.793 59.4457C112.429 59.3274 110.545 59.2328 109.93 59.217C108.252 59.1855 104.91 54.0049 104.287 52.5067C103.665 51.0085 104.571 49.8652 106.502 49.4078C107.345 49.2028 110.805 48.8637 114.73 48.5483L114.809 59.4457H114.793Z" fill="#FBFAEE"/>
<path d="M117.638 48.3987C122.02 48.0596 126.394 47.7915 127.757 47.8152C130.571 47.8625 133.684 48.099 133.857 52.0574C134.03 56.0158 132.769 59.6351 128.033 59.7928C125.59 59.8795 121.515 59.7297 117.906 59.572L117.638 48.3987Z" fill="#FBFAEE"/>
<path d="M117.505 59.5642L115.203 59.4538L115.124 48.5565L117.237 48.3909L117.505 59.5642Z" fill="#F5F0D8"/>
<path fill-rule="evenodd" clip-rule="evenodd" d="M113.555 74.5598C118.048 73.1562 124.029 73.4085 128.246 73.7634C131.879 74.0709 132.218 77.8558 131.981 79.5432C131.745 81.2307 132.123 83.265 127.245 83.3833C122.367 83.5095 111.191 83.0916 111.191 83.0916C111.191 83.0916 107.991 81.3726 110.033 78.5024C112.082 75.6322 113.555 74.544 113.555 74.544V74.5598ZM112.657 73.9605C117.898 72.3204 123.935 72.5964 128.853 73.0143C133.093 73.377 133.266 77.7217 132.99 79.693C132.714 81.6643 133.156 84.3216 127.458 84.4715C121.768 84.6134 109.67 84.1482 109.67 84.1482C109.67 84.1482 105.934 81.8536 108.322 78.5103C110.71 75.1591 112.649 73.9605 112.649 73.9605H112.657Z" fill="#DDD8CE"/>
<path d="M16.3816 26.2904C16.421 23.7829 16.2161 21.236 10.3053 21.646C6.90853 21.8825 4.33142 25.6122 4.05558 26.8975C3.53543 29.3498 6.75092 30.6588 10.1477 30.7219C13.5444 30.7849 16.3422 28.7979 16.3816 26.2983V26.2904Z" fill="#648DC6"/>
<path d="M13.4579 28.0483L14.6486 31.8332L12.8823 32.054L13.4579 28.0483Z" fill="#648DC6"/>
<path d="M29.9922 57.9241C32.3565 57.8926 34.2401 57.861 34.8627 57.8689C36.5414 57.9005 40.0563 52.8382 40.7341 51.3715C41.4119 49.897 40.5371 48.7221 38.6298 48.1859C37.7945 47.9572 34.3504 47.492 30.4414 47.0347L30.0001 57.9241H29.9922Z" fill="#FBFAEE"/>
<path d="M27.5176 46.7824C23.1436 46.2856 18.7854 45.8598 17.4219 45.8361C14.6084 45.7888 11.4875 45.9071 11.1801 49.8576C10.8728 53.8081 12.0155 57.4668 16.7363 57.798C19.1715 57.9715 23.2539 57.9714 26.8635 57.9399L27.5097 46.7824H27.5176Z" fill="#FBFAEE"/>
<path d="M27.2732 57.9397L29.5902 57.916L30.0316 47.0266L27.9273 46.79L27.2732 57.9397Z" fill="#F5F0D8"/>
<path fill-rule="evenodd" clip-rule="evenodd" d="M30.7174 73.0698C26.2803 71.5086 20.2907 71.5401 16.0664 71.7451C12.4254 71.9186 11.9604 75.6877 12.1338 77.3909C12.3071 79.0862 11.8658 81.1048 16.7363 81.4045C21.6068 81.7041 32.7822 81.6962 32.7822 81.6962C32.7822 81.6962 36.045 80.0955 34.0905 77.1544C32.1439 74.2132 30.7095 73.0698 30.7095 73.0698H30.7174ZM31.6395 72.5021C26.4616 70.6806 20.4168 70.7358 15.4832 70.9724C11.2353 71.1774 10.9122 75.5142 11.125 77.5013C11.3299 79.4805 10.8097 82.122 16.492 82.469C22.1743 82.8159 34.2796 82.7923 34.2796 82.7923C34.2796 82.7923 38.0862 80.6317 35.8164 77.2017C33.5467 73.7716 31.6473 72.5021 31.6473 72.5021H31.6395Z" fill="#DDD8CE"/>
<path fill-rule="evenodd" clip-rule="evenodd" d="M100.804 76.5873C100.804 76.5873 107.739 77.5493 108.378 75.6805C109.016 73.8117 116.219 70.9573 116.219 70.9573L117.48 61.1402L105.501 60.6829C104.555 64.9961 100.977 74.6791 100.37 76.6425C99.6532 78.9607 97.281 82.1227 95.6023 82.4539L100.796 76.5873H100.804Z" fill="#3D63AD"/>
<path fill-rule="evenodd" clip-rule="evenodd" d="M43.3034 75.5542C43.3034 75.5542 36.3444 76.2639 35.7612 74.3714C35.1859 72.479 28.085 69.3643 28.085 69.3643L27.155 59.5079L39.1422 59.4763C39.9382 63.8211 43.1852 73.6223 43.729 75.6094C44.3673 77.9513 46.6371 81.2 48.3 81.5943L43.3034 75.5463V75.5542Z" fill="#3D63AD"/>
<path d="M122.067 27.5991C122.768 29.4285 123.273 30.698 123.643 31.5654C123.643 31.5654 108.188 29.8779 71.9038 29.2235C35.6114 28.569 21.9141 29.736 21.9141 29.736C22.2845 28.8923 22.8519 27.6464 23.5691 25.8722C28.1086 25.6042 42.6413 24.9103 71.9747 25.4386C101.568 25.9748 117.275 27.1733 122.075 27.607L122.067 27.5991Z" fill="#395EAC"/>
<path d="M117.134 27.8373C116.353 25.7872 115.305 22.9722 113.918 19.1321C110.663 10.1114 109.347 10.3243 103.941 8.97597C99.0308 7.75376 82.386 7.38315 73.2281 7.21756C64.0782 7.05197 47.2915 6.81542 42.3106 7.86415C36.8648 9.01539 35.5565 8.75518 31.9943 17.6576C30.4732 21.4661 29.3463 24.2575 28.4793 26.2761L23.5615 25.866C24.523 23.6188 25.7761 20.5199 27.4705 16.2934C31.4268 6.41328 32.8848 6.69714 38.9296 5.41186C44.4622 4.23696 63.1167 4.51294 73.2833 4.6943C83.4656 4.88355 101.947 5.2857 107.408 6.64984C113.414 8.14802 114.872 7.91147 118.497 17.9335C120.034 22.1994 121.2 25.3298 122.067 27.6008L117.134 27.8373Z" fill="#162A74"/>
<path d="M78.2402 9.02298C78.256 8.27389 77.6728 7.65884 76.9477 7.64307L69.5868 7.51691C68.8617 7.50114 68.2549 8.10041 68.247 8.8495L68.2076 11.3964C68.1918 12.1455 68.775 12.7684 69.5001 12.7763L76.861 12.9025C77.5861 12.9183 78.1929 12.319 78.2008 11.5699L78.2402 9.02298Z" fill="#395EAC"/>
<path d="M108.015 20.6686C107.723 18.7289 106.817 17.7747 105.383 17.7432L89.8805 17.4672C88.454 17.4436 87.4295 18.4213 87.1616 20.2901L86.4365 25.4707C86.3577 27.1266 87.4926 28.4986 88.9742 28.5301L105.919 28.8377C107.392 28.8613 109.032 27.5366 109.008 25.8807L108.015 20.6686Z" fill="#395EAC"/>
<path d="M58.364 19.7777C58.0724 17.838 57.1661 16.8839 55.7318 16.8523L40.2297 16.5763C38.8032 16.5527 37.7787 17.5305 37.5107 19.3992L36.3206 24.5719C36.2497 26.2278 37.8417 27.6077 39.3155 27.6393L56.2598 27.9468C57.7336 27.9704 58.9157 26.6379 58.8842 24.982L58.3483 19.7777H58.364Z" fill="#395EAC"/>
<path fill-rule="evenodd" clip-rule="evenodd" d="M12.6617 41.7993C12.4489 42.4459 12.307 42.9032 12.3701 43.061C12.7011 43.9677 33.5308 45.5842 39.6386 46.901C41.8847 47.3899 44.3436 48.1469 45.3918 47.7999C46.4479 47.4609 48.3866 46.9405 52.4139 47.0114L76.6955 47.4451L92.5759 47.729C96.6031 47.7999 98.5261 48.3913 99.5664 48.7698C100.607 49.1483 103.089 48.4781 105.351 48.0759C111.498 46.9799 132.367 46.1125 132.73 45.2136C132.793 45.0638 132.691 44.6065 132.478 43.952C129.956 44.7878 111.152 45.6236 105.375 46.6566C103.113 47.0587 100.63 47.729 99.59 47.3505C98.5497 46.972 96.6267 46.3885 92.5995 46.3096L76.7191 46.0258L52.4375 45.5921C48.4103 45.5211 46.4715 46.0337 45.4154 46.3806C44.3594 46.7197 41.9005 45.9627 39.6544 45.4817C33.9091 44.2359 15.1363 42.7377 12.6538 41.8072H12.6617V41.7993Z" fill="#FCC19D"/>
<path d="M71.4545 34.3876C71.2496 33.7253 70.8162 33.402 70.4773 32.7476C70.0438 31.9118 69.6655 27.252 69.6655 27.252C69.7365 25.202 68.1602 24.6737 68.1602 24.6737C67.4588 23.8932 60.2319 21.7249 60.2319 21.7249C58.6714 20.8497 57.5996 19.0993 57.5996 19.0993C59.0339 21.7486 54.6915 30.7528 54.6915 30.7528C54.786 30.0037 53.8245 26.8262 53.8245 26.8262C53.3832 26.1955 53.4857 25.1074 53.4857 25.1074C53.7536 24.9812 55.4086 23.0574 55.4086 23.0574C55.2904 22.7814 53.9743 22.3241 53.9743 22.3241C54.9121 22.1507 57.5996 19.1072 57.5996 19.1072C57.1031 18.0664 57.6232 16.5132 57.6232 16.5132C59.7432 12.6261 58.498 12.2397 58.498 12.2397C59.3492 4.68627 53.4935 5.36434 53.4935 5.36434C46.3296 5.30915 48.4102 12.358 48.4102 12.358C47.4251 12.2555 48.3787 15.2911 48.3787 15.2911C48.2763 16.3791 49.0722 16.3397 49.0722 16.3397C49.0565 16.8207 49.3717 17.2386 49.3717 17.2386C49.7579 17.5934 49.6003 20.3214 49.6003 20.3214C49.2693 20.3136 48.7255 22.6789 48.7255 22.6789C48.7255 22.6789 47.6537 23.0495 47.1099 23.3728C46.5661 23.6961 44.8874 24.3899 44.0205 24.5634C43.1535 24.7368 40.7183 26.0851 40.7183 26.0851C39.5125 26.5187 39.481 29.2547 39.2524 30.1299C39.0633 30.8474 38.8584 32.0853 38.6929 33.2128L71.4467 34.3876H71.4545Z" fill="#0F1228"/>
<path d="M51.0428 23.0969C51.5787 23.0496 51.6575 24.5557 51.6575 24.5557C51.0349 25.3521 50.1049 29.2868 50.1049 29.2868C49.8606 28.7349 49.774 25.565 49.4035 24.4138C48.6864 22.1271 49.5612 20.4712 49.5612 20.4712C49.3957 20.7629 52.0595 22.5292 52.0595 22.5292C51.5314 22.3715 51.0428 23.1048 51.0428 23.1048V23.0969Z" fill="#A7D7AE"/>
<path d="M76.6876 47.4538L92.568 47.7376C96.5952 47.8086 98.5182 48.4 99.5585 48.7785C100.599 49.157 103.081 48.4867 105.343 48.0846C111.49 46.9885 132.36 46.1212 132.722 45.2222C133.085 44.3312 127.828 32.8504 127.119 32.6611C126.409 32.4719 123.627 31.5414 123.627 31.5414C123.627 31.5414 109.638 30.0275 76.9949 29.3178C75.9152 29.2942 74.8198 29.2705 73.6928 29.2468C37.4004 28.5924 21.914 29.7042 21.914 29.7042C21.914 29.7042 19.1005 30.5321 18.3833 30.6977C17.6661 30.8633 12.0312 42.147 12.3622 43.0538C12.6932 43.9606 33.5229 45.5771 39.6307 46.8939C41.8768 47.3828 44.3357 48.1398 45.3839 47.7928C46.44 47.4537 48.3787 46.9333 52.4059 47.0043L76.6876 47.438V47.4538Z" fill="#72BAD4"/>
<path d="M68.7514 61.03L40.3953 60.5175L40.4189 59.2322L68.8066 59.7368L68.7514 61.03Z" fill="#DDD8CE"/>
<path d="M76.5537 59.8787L104.642 60.3833L104.618 61.6765L76.5537 61.1718V59.8787Z" fill="#DDD8CE"/>
<path d="M76.5537 57.7103L102.002 58.1598L102.017 56.8745L76.5537 56.425V57.7103Z" fill="#DDD8CE"/>
<path d="M68.8065 56.2834L43.4215 55.8418L43.4058 57.1271L68.7513 57.5765L68.8065 56.2834Z" fill="#DDD8CE"/>
<path d="M68.7517 65.39L41.231 64.8932L41.2546 63.6079L68.8069 64.0968L68.7517 65.39Z" fill="#DDD8CE"/>
<path d="M76.5537 64.2388L102.963 64.7119L102.94 66.0051L76.5537 65.5319V64.2388Z" fill="#DDD8CE"/>
<path d="M42.3183 68.126L102.23 69.2063L102.207 70.4994L42.2947 69.4191L42.3183 68.126Z" fill="#DDD8CE"/>
<path d="M43.7133 72.5098L100.812 73.5427L100.796 74.8201L43.6975 73.795L43.7133 72.5098Z" fill="#DDD8CE"/>
<path d="M68.7516 78.0999L44.7773 77.6662L44.7931 76.373L68.8068 76.8067L68.7516 78.0999Z" fill="#DDD8CE"/>
<path d="M76.5537 76.9409L99.1567 77.351L99.133 78.6441L76.5537 78.2341V76.9409Z" fill="#DDD8CE" stroke="#DDD8CE" stroke-width="0.81" stroke-miterlimit="3.86"/>
<path d="M68.7514 52.9165C59.964 52.7825 49.3561 52.6957 47.3543 53.1767C44.8402 53.7838 41.6405 57.8128 40.7184 58.6644C39.7963 59.5238 44.525 72.5098 45.1712 74.7017C45.8175 76.8936 48.2055 79.9922 49.8053 80.0238L68.8145 80.3628V81.9949L48.6074 81.6322C46.9287 81.6007 44.4147 78.0921 43.7369 75.6084C43.0591 73.1247 38.094 58.4121 39.0713 57.4423C40.0485 56.4725 43.4137 51.9073 46.0697 51.2134C48.1818 50.6615 59.4754 50.7403 68.7514 50.8823V52.9086V52.9165Z" fill="#DDD8CE"/>
<path d="M76.2305 51.0242C85.5223 51.2134 96.871 51.5367 98.9674 52.1674C101.592 52.9559 104.807 57.6394 105.745 58.6486C106.691 59.6578 101.229 74.1813 100.473 76.6334C99.7082 79.0934 97.0838 82.5074 95.4051 82.4759L76.2305 82.129V80.4968L94.2624 80.8201C95.8544 80.8516 98.3527 77.8397 99.0698 75.6715C99.787 73.5032 104.957 60.6907 104.059 59.8076C103.16 58.9167 100.102 54.7772 97.6118 54.0834C95.6337 53.5315 85.0179 53.2319 76.2305 53.0505V51.0242Z" fill="#DDD8CE"/>
<path d="M68.4441 54.178C68.4441 49.8414 70.2961 46.3328 72.5817 46.3328C74.8672 46.3328 76.7113 49.8493 76.7113 54.178V74.0787C76.7113 78.4152 74.8593 81.9239 72.5817 81.9239C70.2961 81.9239 68.4441 78.4074 68.4441 74.0787V54.178Z" fill="#648DC6"/>
<path d="M92.5286 77.1854L52.7134 76.4915L52.5715 84.9917L92.3868 85.6856L92.5286 77.1854Z" fill="white"/>
</g>
<defs>
<filter id="filter0_d_531_4321" x="0" y="0" width="144.078" height="111.538" filterUnits="userSpaceOnUse" color-interpolation-filters="sRGB">
<feFlood flood-opacity="0" result="BackgroundImageFix"/>
<feColorMatrix in="SourceAlpha" type="matrix" values="0 0 0 0 0 0 0 0 0 0 0 0 0 0 0 0 0 0 127 0" result="hardAlpha"/>
<feOffset dy="4"/>
<feGaussianBlur stdDeviation="2"/>
<feComposite in2="hardAlpha" operator="out"/>
<feColorMatrix type="matrix" values="0 0 0 0 0 0 0 0 0 0 0 0 0 0 0 0 0 0 0.25 0"/>
<feBlend mode="normal" in2="BackgroundImageFix" result="effect1_dropShadow_531_4321"/>
<feBlend mode="normal" in="SourceGraphic" in2="effect1_dropShadow_531_4321" result="shape"/>
</filter>
</defs>
</svg>
