<svg width="31" height="78" viewBox="0 0 31 78" fill="none" xmlns="http://www.w3.org/2000/svg">
<path fill-rule="evenodd" clip-rule="evenodd" d="M26.3886 10.9324C26.5818 10.9921 26.6871 11.2655 26.8751 11.5017C27.063 11.7379 26.7778 11.4845 26.5418 11.3677C26.3059 11.2509 26.1473 10.9921 26.0913 10.8807C26.034 10.7692 26.1953 10.874 26.3899 10.9338L26.3886 10.9324Z" fill="#73B4D7"/>
<path d="M24.8284 68.0162C25.4265 68.9451 25.9074 69.9005 25.9074 70.5693C25.9074 70.5693 26.1472 74.1602 26.2272 74.3593L26.6335 74.549C27.1997 74.4933 28.0483 72.6859 28.3867 70.9926C28.725 69.298 28.817 67.5809 28.817 67.5809C28.1962 67.496 27.57 67.0196 26.9625 66.3295L24.8284 68.0148V68.0162Z" fill="#72AFDA"/>
<path d="M29.0754 67.7254C30.8419 68.3146 30.8473 68.7419 30.7913 68.9888C30.7327 69.2515 29.7708 70.9116 29.7708 70.9116C29.7708 70.9116 29.1194 70.3755 29.1873 70.8996C29.1873 70.8996 28.8077 72.4098 28.6092 72.914C28.6092 72.914 27.3529 75.4035 26.8373 75.7008C26.8373 75.7008 25.7276 76.5421 25.685 75.5455C25.685 75.5455 25.8489 74.6697 26.2885 73.9863C26.2885 73.9863 26.5269 73.275 26.4244 72.7548C26.3284 72.2704 26.3218 71.5074 26.2019 71.3084L29.0754 67.7241V67.7254Z" fill="#86958A"/>
<path d="M28.7184 67.5198C30.4849 68.109 30.4902 68.5363 30.4342 68.7831C30.377 69.0458 29.4138 70.7059 29.4138 70.7059C29.4138 70.7059 28.7623 70.1698 28.8303 70.6953C28.8303 70.6953 28.4506 72.2041 28.2521 72.7097C28.2521 72.7097 26.9958 75.1992 26.4816 75.4964C26.4816 75.4964 25.6157 76.2939 25.5731 75.2974C25.5731 75.2974 25.4931 74.4667 25.9328 73.7819C25.9328 73.7819 26.1712 73.0693 26.0686 72.5505C25.9727 72.0661 25.9661 71.3031 25.8448 71.104L28.7184 67.5198Z" fill="#485B76"/>
<path fill-rule="evenodd" clip-rule="evenodd" d="M9.52545 46.946C9.81987 47.9294 10.0783 48.7813 10.0783 48.7813C10.43 50.3857 14.1828 67.7097 13.3755 71.7292C13.209 72.5626 15.4191 70.9105 15.2672 70.3876C15.1153 69.8661 15.2939 56.1953 15.2486 54.3216C15.2033 52.4478 14.5931 50.3604 14.2348 49.4806C14.0216 48.9551 14.0229 47.6003 14.2468 47.0204L9.52545 46.9474V46.946Z" fill="#C17B00"/>
<path fill-rule="evenodd" clip-rule="evenodd" d="M11.641 73.2938C11.6596 72.9262 12.451 72.272 13.2037 71.8978C13.2529 71.8726 13.2956 71.862 13.3382 71.8474C13.4315 71.8129 13.518 71.785 13.6846 71.7253L13.8444 71.6669C14.2108 71.5302 14.7903 70.2364 14.9728 69.5052C15.2033 68.5856 15.118 65.7883 15.0581 65.2774C15.0261 65.0067 15.09 64.8713 15.2299 64.8209C15.3538 64.7758 15.5377 64.797 15.7681 64.8461C16.261 64.9509 16.7393 65.7179 16.7393 65.7179C17.143 66.8233 16.8006 67.0078 17.063 68.1809C17.3095 69.2876 17.6558 70.527 17.8663 71.2555L17.5439 71.3723C17.2269 70.6119 16.718 69.3898 16.654 69.2478C16.5595 69.0381 16.5661 68.9691 16.4129 68.985H16.4089C16.2597 69.0394 16.3543 71.4825 16.349 71.9801C16.3436 72.4817 16.0066 72.629 16.0066 72.629C16.0066 72.629 14.5292 73.1704 13.4688 73.5539C12.9385 73.7463 12.7081 73.6495 12.6188 73.6428C12.2098 73.6136 11.649 73.5353 11.6423 73.2952L11.641 73.2938Z" fill="#B3330A"/>
<path fill-rule="evenodd" clip-rule="evenodd" d="M6.40948 46.824L6.40681 48.1616C6.27759 49.8562 4.84682 68.1451 2.92313 71.6961C2.5248 72.4326 5.09727 71.7479 5.10393 71.1812C5.10926 70.6146 9.41491 59.7132 9.71332 55.65C9.85187 53.759 10.2329 51.5522 10.1463 50.5529C10.073 49.6996 10.7591 47.2142 11.268 45.7956L6.40948 46.824Z" fill="#C17B00"/>
<path fill-rule="evenodd" clip-rule="evenodd" d="M6.99428 73.4635L6.97034 72.972H7.3322C7.30959 73.278 7.29761 73.4635 7.29761 73.4635H6.99562H6.99428Z" fill="#4C8089"/>
<path fill-rule="evenodd" clip-rule="evenodd" d="M0.719647 73.1358C0.863524 72.7974 1.88531 71.9189 2.7206 71.8247C2.77522 71.8181 2.82051 71.822 2.86314 71.822C2.96306 71.822 3.05365 71.826 3.23083 71.826H3.40002C3.79169 71.8207 4.78017 70.8029 5.20248 70.1792C5.73402 69.3936 6.61594 66.7343 6.7345 66.2353C6.79712 65.9699 6.90369 65.8651 7.0529 65.8651C7.18479 65.8651 7.35131 65.9474 7.55114 66.0708C7.97877 66.3375 8.16395 67.2213 8.16395 67.2213C8.16395 68.3984 7.77894 68.4541 7.62308 69.6458C7.4752 70.7697 7.37396 72.0516 7.32201 72.8093H6.9783C6.94233 71.9866 6.88238 70.6662 6.87172 70.5096C6.85574 70.2801 6.88504 70.2177 6.7345 70.1805H6.73051C6.57198 70.1805 5.82195 72.5081 5.6461 72.9739C5.46892 73.4437 5.10256 73.4675 5.10256 73.4675C5.10256 73.4675 3.52791 73.4728 2.39954 73.4728C1.83602 73.4728 1.38175 73.4715 1.29249 73.4675C1.02472 73.4569 0.64238 73.368 0.719647 73.1384V73.1358Z" fill="#B3330A"/>
<path fill-rule="evenodd" clip-rule="evenodd" d="M10.2235 49.628C10.4113 48.5027 10.8896 46.8532 11.268 45.7956L6.40943 46.824L6.40676 48.1616C6.39877 48.2625 6.38679 48.4217 6.38013 48.6341L10.2235 49.628Z" fill="#7B5600"/>
<path fill-rule="evenodd" clip-rule="evenodd" d="M7.36997 3.47675C7.36997 3.47675 7.36197 3.50594 7.35265 3.51788C7.26339 3.63599 6.68255 4.97096 6.67322 5.23768C6.6639 5.50441 6.60795 5.7101 6.69854 5.91711C6.78779 6.12412 6.87439 6.43199 6.64525 6.75047C6.41478 7.06763 6.22428 7.35293 6.12304 7.44582C6.02179 7.53871 6.01912 7.92753 6.21362 7.95805C6.40679 7.98857 6.45875 8.06686 6.45608 8.15046C6.45342 8.23274 6.43743 8.43577 6.39613 8.54459C6.35484 8.65473 6.2416 8.72373 6.33086 8.83785C6.42011 8.95198 6.46407 8.99179 6.4241 9.10193C6.38281 9.21207 6.2376 9.39122 6.37348 9.48809C6.50936 9.58496 6.76248 9.7442 6.79046 10.003C6.81843 10.2617 6.81177 10.4555 6.79845 10.5484C6.78646 10.6399 6.87039 10.9385 7.31534 10.9359C7.7603 10.9332 8.51432 10.9876 8.73813 10.9717C8.96193 10.9544 9.33628 11.4122 9.31497 11.9961C9.29499 12.5813 8.79808 13.4519 8.58226 13.7053L8.13997 14.5918C8.13997 14.5918 13.1517 15.8352 13.189 15.8272C14.1935 15.5034 14.8822 13.286 14.8822 13.286C14.2148 13.1811 12.9692 10.7713 12.9359 10.4541C12.9199 10.3082 12.9812 10.1994 13.0651 10.137L13.2063 4.90062L7.3713 3.47675H7.36997Z" fill="#C17B00"/>
<path fill-rule="evenodd" clip-rule="evenodd" d="M6.79846 10.598C6.82511 10.7188 6.93302 10.9377 7.31403 10.9351C7.75898 10.9324 8.513 10.9868 8.73681 10.9709C8.92865 10.9563 9.22972 11.2894 9.29899 11.7525C9.29899 11.7525 9.95177 11.0917 10.6725 10.8475C11.3919 10.6033 10.6978 10.7679 9.82521 10.7374C8.95262 10.7068 6.7998 10.598 6.7998 10.598H6.79846Z" fill="#7B5600"/>
<path d="M12.9492 10.62L12.9332 10.4541C12.9172 10.3082 12.9785 10.1994 13.0624 10.137L13.2037 4.90062L7.36865 3.47675C7.36865 3.47675 7.36065 3.50594 7.35133 3.51788C7.32602 3.55238 7.2674 3.68641 7.17548 3.86689C7.19679 3.91333 7.1888 3.95845 7.17548 3.99428C7.37797 4.39105 7.63242 4.82631 7.9295 5.02006C8.54098 5.42081 10.0304 6.44128 10.4447 6.52488C10.859 6.60848 11.0682 6.16924 11.4252 5.90517C11.7822 5.63977 12.7707 6.57 12.2578 7.31312C11.7449 8.05757 12.8693 10.6532 12.8693 10.6532C12.8973 10.6333 12.9199 10.628 12.9492 10.6187V10.62Z" fill="#7B5600"/>
<path d="M13.0624 10.137C13.1783 10.0508 13.3355 10.0534 13.3888 10.1715C13.4794 10.3746 14.0816 10.0986 14.0936 9.75751C14.1056 9.41647 14.4613 9.03296 14.7104 8.94406C14.9582 8.85515 15.4591 8.67335 15.4764 8.18633C15.4937 7.69932 15.5164 6.91373 16.0066 7.02918C16.4969 7.14331 15.868 6.77572 15.8907 6.14141C15.912 5.50843 16.349 4.39109 16.349 4.39109C16.349 4.39109 15.2885 3.77403 15.491 3.58029C15.6935 3.38655 15.936 3.29896 16.0879 3.30295C16.2397 3.30825 15.8521 3.0256 15.7841 2.8783C15.7162 2.73101 15.0701 2.4165 15.0701 2.4165C15.0701 2.4165 15.2299 2.05954 15.3378 2.09935C15.4457 2.13916 14.6264 1.49423 14.2255 1.51679C13.8245 1.53935 13.3595 1.26732 13.257 1.08286C13.1544 0.898408 12.4616 0.874522 12.3204 0.760399C12.1792 0.646277 11.5504 0.881157 11.2706 0.54277C10.9922 0.204383 10.1116 0.285331 10.2915 0.399453C10.4713 0.514903 9.96376 0.496325 9.48817 0.480401C9.01391 0.464477 8.41975 0.805518 8.5996 0.847982C8.77944 0.890446 7.97347 1.00722 7.75232 1.07225C7.5445 1.13329 7.32335 1.48627 7.17815 1.49158C7.15283 1.48362 7.13418 1.48096 7.13285 1.48229C7.16082 1.49158 7.16882 1.49291 7.17815 1.49158C7.29138 1.52608 7.54982 1.65082 7.0316 1.84722C6.32953 2.11262 6.30688 2.76551 6.30688 2.76551C6.30688 2.76551 6.85975 2.60361 6.67191 2.77878C6.48407 2.95394 6.24295 3.59887 6.43079 3.42503C6.61863 3.24987 6.98897 3.08001 7.13418 3.08532C7.26474 3.0893 7.41527 3.3401 7.36731 3.47546C7.56981 3.87223 7.82426 4.30749 8.12134 4.50123C8.73282 4.90066 10.2222 5.92246 10.6365 6.00606C11.0508 6.08966 11.26 5.65042 11.617 5.38502C11.974 5.12095 12.9625 6.04985 12.4496 6.7943C11.9367 7.53743 13.0611 10.1344 13.0611 10.1344L13.0624 10.137Z" fill="#1A171B"/>
<path fill-rule="evenodd" clip-rule="evenodd" d="M9.79324 48.7864L15.1207 47.2259C15.1007 46.5345 15.1127 45.6494 15.2233 44.8598C15.4311 43.3629 15.0168 40.3958 15.0927 39.6977C15.17 38.9997 16.9258 35.6145 17.0577 34.8157C17.1896 34.0168 16.7833 32.2904 16.7833 32.2904L16.5821 31.7702L7.76697 32.9008C7.63242 33.9067 5.64612 41.4627 5.3637 42.8414C5.2065 43.6045 4.8548 44.5758 4.52441 45.5007L7.85223 47.9278L9.79458 48.7851L9.79324 48.7864Z" fill="#6BBFB1"/>
<path fill-rule="evenodd" clip-rule="evenodd" d="M15.2952 15.6473C15.471 13.9195 15.4764 13.8027 14.9315 12.5606C14.685 11.998 13.8218 11.6158 13.6473 11.495C13.5807 11.4486 13.4727 11.3716 13.4048 11.361L13.3155 11.3743C13.6539 12.0272 12.7733 13.3661 12.1459 13.9354C10.7817 15.1748 9.59606 14.871 9.13512 14.6401C8.67818 14.4105 8.64088 14.0336 8.66885 13.5532C8.54096 13.743 7.9801 14.4025 7.76429 14.7754C7.60709 14.9506 7.0529 15.6035 6.67589 16.1542C6.19496 16.8588 5.46359 17.8342 5.13587 18.426C4.80815 19.0192 4.29526 19.8778 4.57369 20.4922C4.85212 21.1066 5.57949 22.1164 5.57949 22.1164L5.74068 24.3551L6.59062 28.3467L6.60262 28.4303C6.64125 28.6373 6.74516 30.2563 6.94099 30.5522C7.13682 30.8481 7.44323 31.7186 7.41126 31.9469C7.38062 32.1738 7.31534 32.7351 7.33266 32.8731C7.34864 32.9926 7.73765 32.9899 7.84556 33.0191L16.6607 31.8885L15.7361 29.5941L15.2113 28.5617C15.2113 28.5617 14.9555 27.9128 14.729 27.719C14.5039 27.5266 14.6078 27.2135 14.344 26.9733C14.0816 26.7331 14.0896 26.2699 13.9617 25.9488C13.8391 25.6409 14.1881 22.9445 14.3174 22.3632C14.4479 21.782 15.1007 17.5144 15.2912 15.6486L15.2952 15.6473Z" fill="#7DDEDE"/>
<path fill-rule="evenodd" clip-rule="evenodd" d="M6.39018 24.7498C6.4115 24.1394 6.88468 23.5037 7.11393 22.8203C7.34319 22.1369 7.7164 21.9432 7.3925 21.8914C7.06861 21.8397 6.52879 21.9843 6.12492 21.8476C5.72239 21.7109 4.99597 21.2385 4.99597 21.2385C5.29321 21.699 5.58377 22.1144 5.58377 22.1144L5.74505 24.353L6.55679 28.1615C6.55679 28.1615 6.37018 25.3615 6.3915 24.7498H6.39018Z" fill="#6BBFB1"/>
<path fill-rule="evenodd" clip-rule="evenodd" d="M7.64176 33.6239C6.39615 36.266 5.86195 41.9164 5.67144 42.8413C5.51424 43.6043 4.53108 44.5757 4.20203 45.5006L7.97614 47.9848L9.10717 48.1891C9.10717 48.1891 8.92865 48.0909 8.93931 48.1838L7.64042 33.6239H7.64176Z" fill="#56B194"/>
<path fill-rule="evenodd" clip-rule="evenodd" d="M10.105 20.5276L10.0237 16.4855C10.1183 17.3401 10.8514 18.0899 10.8514 18.0899C10.8514 18.0899 10.5235 22.6667 10.3116 24.364L10.105 20.5276Z" fill="#6BBFB1"/>
<path fill-rule="evenodd" clip-rule="evenodd" d="M11.2094 15.4094C11.6996 14.3584 13.7845 14.4633 13.7832 16.0995C13.7832 17.6693 12.8879 24.7078 12.5456 25.768C11.8075 28.0545 11.2587 29.2541 8.8274 31.2128C7.11553 32.5928 4.78685 33.8296 4.78685 33.8296C4.78685 33.8296 3.88495 36.1996 4.07678 37.4762C4.26729 38.7515 3.89694 39.0209 3.19354 38.4848C2.49014 37.9486 2.29698 36.6959 2.8898 35.1938C3.48263 33.6929 5.41831 30.9447 7.04225 29.0882C8.6662 27.2331 9.96509 25.366 10.3914 23.3847C10.8177 21.4035 10.867 18.7734 10.9469 18.0104C11.0268 17.2487 10.7737 16.3423 11.208 15.4081L11.2094 15.4094Z" fill="#C17B00"/>
<path fill-rule="evenodd" clip-rule="evenodd" d="M3.43602 36.8472C3.69447 36.5924 3.82769 35.6184 4.00354 35.2137C4.17939 34.8089 4.41919 33.474 4.64033 33.263C4.86148 33.0507 6.588 32.0607 7.38199 31.4383C8.17731 30.816 11.232 27.5714 11.4265 26.9796C11.621 26.3891 13.3302 18.9618 13.3955 17.0921C13.4608 15.2223 13.0984 14.8853 13.0984 14.8853C13.4608 15.0671 14.0709 15.501 14.0923 16.1326C14.1442 17.7012 12.8893 24.7091 12.5469 25.7694C11.8089 28.0558 11.26 29.2554 8.82876 31.2141C7.11688 32.5942 4.78821 33.8309 4.78821 33.8309C4.78821 33.8309 3.88631 36.201 4.07814 37.4776C4.26865 38.7528 3.8983 39.0222 3.1949 38.4861C3.08566 38.4025 2.98841 38.3016 2.90448 38.1848C2.90448 38.1848 3.17758 37.1033 3.43736 36.8486L3.43602 36.8472Z" fill="#7B5600"/>
<path fill-rule="evenodd" clip-rule="evenodd" d="M13.4754 21.4925C13.8111 20.0208 14.364 17.5791 14.4679 17.0895C14.5971 16.4804 13.4847 13.3938 10.9336 14.8933C8.90732 16.0836 10.8497 18.0914 10.8497 18.0914C10.8497 18.0914 10.6645 19.5458 10.45 21.2749L13.4754 21.4938V21.4925Z" fill="#B1EBEB"/>
<path d="M22.9194 12.0412L22.5517 10.766C22.5517 10.766 23.1405 10.6638 23.2457 10.7846C23.3523 10.904 23.8905 11.9191 23.7014 11.6829C23.5122 11.4467 23.708 11.3538 24.1636 11.8156C24.6179 12.2761 24.6685 12.1341 24.2809 11.5821C23.8945 11.0301 24.1063 10.405 24.129 10.2829C24.1503 10.1595 24.3635 10.6811 24.5033 10.908C24.6432 11.1349 25.1228 11.4494 24.899 11.1296C24.6752 10.8111 24.5167 10.2484 24.6326 10.3201C24.7485 10.3918 25.4905 10.6731 25.6077 10.8735C25.7263 11.0725 26.2618 11.6484 26.483 11.8409C26.7041 12.0333 27.4555 12.6968 27.5101 12.9622C27.5647 13.2276 27.7113 13.708 27.8325 13.8844C27.9537 14.0596 28.4067 14.3927 28.6971 14.6223C28.9875 14.8505 28.9662 14.5426 28.7744 14.3303C28.5825 14.118 28.7424 14.0702 29.2899 14.2945C29.8388 14.5174 29.8135 14.3595 29.3672 14.0025C28.9209 13.6443 29.3858 13.9044 29.6509 13.8486C29.9161 13.7929 29.6763 13.7 29.3525 13.5169C29.0275 13.3324 29.0275 12.8998 29.0448 12.8016C29.0621 12.7034 29.198 12.8016 29.2886 12.8693C29.3792 12.9356 29.2739 12.6623 29.17 12.3889C29.0648 12.1169 29.0728 11.7878 29.0728 11.7878L29.2912 11.8515C29.2912 11.8515 29.198 11.6564 29.1261 11.4905C29.0541 11.3246 29.154 11.1893 29.3459 11.4016C29.5377 11.6153 29.7988 11.5834 29.5617 11.3379C29.3246 11.0938 29.3845 10.9 29.5044 10.9465C29.623 10.9929 29.4165 10.7262 29.174 10.5059C28.9316 10.2856 28.6225 9.57035 28.4306 9.35802C28.2388 9.1457 27.9604 8.84315 28.0883 8.84049C28.2162 8.83784 28.4706 8.55253 28.3441 7.96998C28.2175 7.38742 27.8178 6.47842 27.3236 6.23823C26.8293 5.99937 26.1193 5.82288 26.0687 5.53359C26.018 5.24563 25.7822 5.12753 25.5971 5.01871C25.4119 4.9099 25.0509 4.79577 24.9017 4.76923C24.7525 4.74269 24.6072 4.62857 24.5007 4.53966C24.3954 4.45208 24.1956 4.48393 24.0904 4.39502C23.9851 4.30611 23.5855 3.70365 23.5202 3.52583C23.4549 3.34801 22.9353 2.4629 22.3066 2.06214C21.6778 1.66271 19.6315 0.919586 18.238 1.56451C16.8446 2.20944 16.5301 2.75484 16.4822 2.89152C16.4342 3.0282 16.3596 3.15692 16.1891 3.32014C16.0173 3.48336 15.515 4.40563 15.4178 5.08639C15.3218 5.76714 15.3671 5.91975 15.3045 6.00468C15.2406 6.08961 15.2659 6.35766 15.3245 6.43994C15.3831 6.52221 15.4324 7.1406 15.4124 7.25737C15.3911 7.37415 14.9222 8.02704 14.8196 8.2022C14.7157 8.37737 14.6691 8.59898 14.9049 8.69718C15.0821 8.77016 15.4497 8.82324 15.5203 8.83518C15.591 8.84713 15.5816 9.08333 15.5803 9.22798C15.5803 9.37262 15.6363 9.4549 15.7228 9.51859C15.8081 9.58229 16.0013 9.71234 16.0013 9.71234C16.0013 9.71234 16.1212 9.85698 16.0492 9.9857C15.9773 10.1157 16.0159 10.1702 16.0852 10.3281C16.1545 10.4847 16.2757 10.624 16.1531 11.0367C16.0319 11.4494 16.0932 11.6299 16.4422 11.7148C16.7913 11.7997 17.4867 11.5728 17.7877 11.6498C18.0888 11.7267 18.3606 12.0731 18.4099 12.3478C18.4578 12.6211 19.0054 13.4638 18.988 13.8141C18.9801 13.984 19.1199 15.2924 19.0293 15.4463C19.1066 15.4556 19.3011 15.441 19.3704 15.4463C21.5312 15.6348 23.3017 15.0124 23.9944 13.6522L22.9234 12.0386L22.9194 12.0412Z" fill="#FFBC79"/>
<path fill-rule="evenodd" clip-rule="evenodd" d="M22.5237 2.22539C22.4531 2.16568 22.3798 2.1126 22.3052 2.06482C21.6764 1.6654 19.6302 0.922271 18.2367 1.5672C16.8432 2.21212 16.5288 2.75752 16.4809 2.8942C16.4329 3.03089 16.3556 3.17818 16.1838 3.34141L16.1598 3.39183C16.1598 3.39183 16.5435 4.28491 17.0937 4.76661C17.6439 5.24831 18.9774 6.46783 19.377 6.6085C19.7767 6.74916 20.0698 6.87124 20.4614 6.6576C20.8518 6.44395 21.6764 6.97475 21.0649 7.64091C20.5187 8.23541 21.0743 10.3281 21.2008 10.7726L22.4091 11.4123L22.6716 11.1747L22.525 2.22407L22.5237 2.22539Z" fill="#EA996B"/>
<path fill-rule="evenodd" clip-rule="evenodd" d="M22.6409 11.1004L22.9326 10.835C22.9326 10.835 23.0925 11.3724 23.1991 11.4932C23.3057 11.6139 23.8918 11.9192 23.7027 11.683C23.5135 11.4467 23.7093 11.3539 24.1649 11.8157C24.6192 12.2761 24.6698 12.1341 24.2822 11.5821C23.8958 11.0301 24.1076 10.405 24.1303 10.283C24.1516 10.1595 24.3648 10.6811 24.5046 10.908C24.6445 11.1349 25.1241 11.4494 24.9003 11.1296C24.6765 10.8111 24.518 10.2485 24.6339 10.3201C24.7498 10.3918 25.4918 10.6731 25.609 10.8735C25.7276 11.0725 26.2631 11.6485 26.4843 11.8409C26.7054 12.0333 27.4568 12.6968 27.5114 12.9622C27.566 13.2276 27.7126 13.708 27.8338 13.8845C27.955 14.0596 28.408 14.3927 28.6984 14.6223C28.9888 14.8505 28.9675 14.5427 28.7757 14.3303C28.5838 14.118 28.7437 14.0702 29.2912 14.2945C29.8401 14.5174 29.8148 14.3595 29.3685 14.0026C28.9222 13.6443 29.3871 13.9044 29.6522 13.8486C29.9173 13.7929 29.6775 13.7 29.3538 13.5169C29.0288 13.3324 29.0288 12.8998 29.0461 12.8016C29.0634 12.7034 29.1993 12.8016 29.2899 12.8693C29.3805 12.9356 29.2752 12.6623 29.1713 12.3889C29.0661 12.1169 29.0741 11.7878 29.0741 11.7878L29.2925 11.8515C29.2925 11.8515 29.1993 11.6564 29.1274 11.4905C29.0554 11.3247 29.1553 11.1893 29.3472 11.4016C29.539 11.6153 29.8001 11.5834 29.563 11.3379C29.3258 11.0938 29.3858 10.9 29.5057 10.9465C29.6243 10.9929 29.4178 10.7262 29.1753 10.5059C28.9329 10.2856 28.6238 9.57036 28.4319 9.35803C28.2401 9.14571 27.9617 8.84316 28.0896 8.8405C28.2175 8.83785 28.4719 8.55254 28.3454 7.96999C28.2188 7.38743 27.8191 6.47843 27.3249 6.23824C26.8306 5.99938 26.1206 5.82289 26.07 5.5336C26.0193 5.24564 25.7835 5.12754 25.5984 5.01872C25.4132 4.90991 25.0522 4.79578 24.903 4.76924C24.7538 4.7427 24.6085 4.62858 24.502 4.53967C24.3967 4.45209 24.1969 4.48394 24.0916 4.39503C23.9864 4.30612 23.5868 3.70366 23.5215 3.52584C23.4562 3.34802 22.9366 2.46291 22.3078 2.06215C21.8922 1.79807 20.8558 1.38272 19.7993 1.31903C19.0306 1.29249 18.0515 1.3867 17.063 1.92149C17.063 1.92149 15.8227 1.78746 15.7801 3.11712C15.7801 3.11712 15.884 2.53324 16.2837 2.44167C16.2837 2.44167 16.1931 2.64471 16.2184 2.81324C16.2184 2.81324 16.3649 2.69911 16.5248 2.68319H16.5701C16.5701 2.68319 16.5075 2.84376 16.3942 3.07864C16.3942 3.07864 16.7766 3.97171 17.3268 4.45342C17.877 4.93512 19.2118 6.15464 19.6102 6.2953C20.0085 6.43596 20.3042 6.55805 20.6946 6.3444C21.0849 6.13208 21.9095 6.66156 21.298 7.32771C20.7505 7.92221 21.3074 10.0149 21.4339 10.4595L22.6422 11.0991L22.6409 11.1004Z" fill="#1A171B"/>
<path fill-rule="evenodd" clip-rule="evenodd" d="M16.1052 11.4592C16.1371 11.5919 16.2437 11.6702 16.4395 11.718C16.7886 11.8029 17.484 11.576 17.7851 11.6529C18.0861 11.7299 18.3579 12.0762 18.4072 12.3509C18.4392 12.5341 18.6963 12.9733 18.8561 13.3475C18.8561 13.3475 18.8055 12.5792 19.06 12.2368C19.3144 11.8944 20.9197 11 20.247 11.0757C19.5742 11.1513 16.1065 11.4605 16.1065 11.4605L16.1052 11.4592Z" fill="#EA996B"/>
<path fill-rule="evenodd" clip-rule="evenodd" d="M16.8765 2.47622C17.8344 1.98257 18.6723 2.1803 19.417 2.20551C20.4735 2.2692 21.5099 2.68323 21.9256 2.94863C22.5544 3.34806 23.0739 4.23318 23.1392 4.41099C23.2045 4.58881 23.6041 5.1926 23.7094 5.28151C23.8146 5.37042 24.0144 5.33725 24.1197 5.42615C24.2249 5.51374 24.4088 5.41289 24.558 5.43943C24.7072 5.46597 25.0309 5.79506 25.2148 5.90388C25.3999 6.01269 25.693 6.20113 25.9355 6.35108C26.07 6.43468 26.0074 6.32056 26.2712 6.43601C26.0074 6.32056 25.7809 6.19582 25.753 6.04056C25.701 5.7526 25.4665 5.63449 25.2814 5.52568C25.0975 5.41687 24.7365 5.30274 24.586 5.2762C24.4368 5.24966 24.2902 5.13554 24.185 5.04796C24.0797 4.95905 23.8799 4.99222 23.7747 4.90331C23.6694 4.8144 23.2697 4.21194 23.2045 4.03412C23.1392 3.85631 22.6196 2.97119 21.9908 2.57044C21.5752 2.30636 20.5387 1.89233 19.4823 1.82731C18.7363 1.8021 17.7904 1.88968 16.8326 2.38465L16.8739 2.47754L16.8765 2.47622Z" fill="#4E6658"/>
<path fill-rule="evenodd" clip-rule="evenodd" d="M16.8765 2.47622C17.8344 1.98257 18.6723 2.1803 19.417 2.20551C20.4735 2.2692 21.5099 2.68323 21.9256 2.94863C22.5544 3.34806 23.0739 4.23318 23.1392 4.41099C23.2045 4.58881 23.6041 5.1926 23.7094 5.28151C23.8146 5.37042 24.0144 5.33725 24.1197 5.42615C24.2249 5.51374 24.4088 5.41289 24.558 5.43943C24.7072 5.46597 25.0309 5.79506 25.2148 5.90388C25.3999 6.01269 25.693 6.20113 25.9355 6.35108C26.07 6.43468 26.0074 6.32056 26.2712 6.43601C26.0074 6.32056 25.7809 6.19582 25.753 6.04056C25.701 5.7526 25.4665 5.63449 25.2814 5.52568C25.0975 5.41687 24.7365 5.30274 24.586 5.2762C24.4368 5.24966 24.2902 5.13554 24.185 5.04796C24.0797 4.95905 23.8799 4.99222 23.7747 4.90331C23.6694 4.8144 23.2697 4.21194 23.2045 4.03412C23.1392 3.85631 22.6196 2.97119 21.9908 2.57044C21.5752 2.30636 20.5387 1.89233 19.4823 1.82731C18.7363 1.8021 17.7904 1.88968 16.8326 2.38465L16.8739 2.47754L16.8765 2.47622Z" fill="#4A4DC9"/>
<path fill-rule="evenodd" clip-rule="evenodd" d="M17.5905 2.98975C18.2193 2.66596 18.7682 2.79468 19.2571 2.81193C19.9499 2.85307 20.6293 3.12511 20.9024 3.29895C21.3154 3.56169 21.6564 4.1416 21.699 4.25837C21.7417 4.37515 22.0041 4.77192 22.0734 4.82899C22.1427 4.88737 22.2732 4.86614 22.3425 4.9232C22.4118 4.98159 22.533 4.91524 22.6302 4.93249C22.7288 4.94974 22.9406 5.16605 23.0619 5.2377C23.1831 5.30936 23.3749 5.43277 23.5348 5.53097C23.6227 5.58538 23.5828 5.51107 23.7546 5.58671C23.5828 5.51107 23.4336 5.42879 23.4149 5.32794C23.3816 5.13818 23.2271 5.06121 23.1058 4.99088C22.9846 4.91922 22.7475 4.84491 22.6502 4.82766C22.553 4.81041 22.4571 4.73477 22.3878 4.67771C22.3185 4.61932 22.188 4.64055 22.1187 4.58349C22.0494 4.5251 21.787 4.12965 21.7443 4.01288C21.7017 3.8961 21.3607 3.3162 20.949 3.05345C20.6759 2.87961 19.9965 2.60757 19.3024 2.56644C18.8135 2.54919 18.1927 2.60757 17.5639 2.93136L17.5919 2.99108L17.5905 2.98975Z" fill="#4A4DC9"/>
<path fill-rule="evenodd" clip-rule="evenodd" d="M22.5024 9.51268C22.5717 9.26983 22.5824 8.91552 22.773 8.84785C22.9636 8.78017 23.0089 8.81334 22.9476 9.15836C22.8863 9.50339 22.6943 9.725 22.6477 9.8431C22.601 9.96253 22.5024 9.51268 22.5024 9.51268Z" fill="#D4DFE5"/>
<path d="M24.2915 33.2565C23.9079 31.7649 23.4776 29.9376 23.5362 29.2874C23.6427 28.1183 24.2529 27.683 23.9865 27.4283C23.7187 27.1708 23.7293 26.6891 23.8026 25.8385C23.8732 25.0224 25.6131 22.6165 25.3493 19.8524C25.0829 17.0895 23.9891 13.3553 23.9891 13.3553C23.9891 13.3553 23.6974 13.1735 23.351 13.3447L18.9641 14.8814L18.9548 14.9265C18.9548 14.9265 17.528 16.7923 16.5342 17.907C15.1314 19.4808 14.0017 18.9328 15.4378 23.069C15.4378 23.069 15.7841 26.4091 15.7029 26.6652C15.6256 26.9213 15.5976 27.0647 15.8361 27.2929C16.0759 27.5198 15.8627 27.9206 15.9693 28.1475C16.0759 28.3757 16.1825 31.6243 16.1825 31.6243C16.1825 31.6243 16.289 31.8817 16.317 31.9653C16.317 31.9653 16.2304 32.9539 16.1198 33.8297L24.2915 33.2565Z" fill="#FF8E00"/>
<path d="M18.2274 49.6451L18.3113 48.9378L17.5093 51.5825L18.1701 53.0369L18.2274 49.6451ZM21.5499 70.4844L18.2487 70.0532C18.322 69.0752 18.3406 68.2909 18.3406 68.2909C18.1821 67.4642 18.1275 59.9148 18.1275 59.9148C18.1275 59.9148 16.2078 57.6204 14.3454 55.7414C12.5242 53.9061 12.2298 52.8578 13.534 49.6199C14.8249 46.4165 22.7888 50.0751 22.7888 50.0751C22.7448 50.0844 22.7595 50.375 22.7595 50.375C22.7955 52.1386 22.1946 55.4229 22.1946 55.4229C22.0335 55.9059 22.0787 57.785 22.0787 57.785C22.2386 58.126 22.95 59.5685 22.95 59.5685C23.7986 60.9831 25.308 64.4479 26.9626 66.3282L24.8284 68.0135C23.8466 66.4901 22.5504 65.0371 22.5504 65.0371C22.6036 65.3808 22.1227 67.09 22.1227 67.09C21.7497 67.9021 21.6072 69.2769 21.5485 70.4805L21.5499 70.4844Z" fill="#FFBC79"/>
<path d="M18.2487 70.0515C18.1514 71.3546 17.9609 73.0014 17.5946 73.588C16.9937 74.5487 15.3871 76.6401 15.1673 77.0369C15.1673 77.0369 15.1993 77.3129 15.5403 77.3129C15.8814 77.3129 17.3521 77.0302 18.0875 77.0302C18.8228 77.0302 20.5773 74.6602 21.0303 74.0949C21.4832 73.5296 21.5232 72.8608 21.5232 72.8608C21.5232 72.8608 21.4766 71.7686 21.5498 70.4814L18.2487 70.0502V70.0515Z" fill="#72AFDA"/>
<path fill-rule="evenodd" clip-rule="evenodd" d="M18.1754 53.0301C18.1754 53.0301 20.2456 55.0127 20.7132 55.6815C21.1835 56.3543 22.0734 57.7954 22.0734 57.7954V56.1592C22.0734 56.1592 21.1742 54.4952 20.9371 54.1793C20.6999 53.8635 18.2367 50.1174 18.2367 50.1174L18.1754 53.0301Z" fill="#F2AE61"/>
<path fill-rule="evenodd" clip-rule="evenodd" d="M16.1198 33.8283C16.0479 34.4095 15.9653 34.9403 15.8907 35.0995C15.7015 35.4976 15.9013 35.7511 15.952 36.0351C16.0052 36.3204 15.6189 38.6612 15.0101 42.479C15.0101 42.479 12.7161 51.6128 12.6082 51.7256C12.6082 51.7256 13.6579 51.8596 13.7911 51.9167L22.6662 52.1476C22.9247 52.1065 23.1378 51.9525 23.1152 51.7654C23.0885 51.5385 23.3217 48.6908 23.6174 47.949C23.9105 47.2085 24.1769 41.3962 24.6285 40.5695C24.6285 40.5695 26.1206 38.6586 24.8683 35.4114C24.8683 35.4114 24.5859 34.44 24.2915 33.255L16.1198 33.8283Z" fill="#809EB8"/>
<path fill-rule="evenodd" clip-rule="evenodd" d="M17.9449 52.0224L22.6662 52.1445C22.9247 52.1033 23.3603 52.2268 23.3377 52.041C23.311 51.8141 23.3217 48.6876 23.6161 47.9472C23.9092 47.2067 24.1756 41.3944 24.6272 40.5677C24.6272 40.5677 24.935 40.1749 25.1534 39.441L17.9436 52.0211L17.9449 52.0224Z" fill="#537394"/>
<path d="M22.5543 65.0866C22.5663 65.5139 22.124 67.093 22.124 67.093C21.751 67.9052 21.6085 69.2799 21.5499 70.4835L18.2487 70.0522C18.322 69.0742 18.3406 68.29 18.3406 68.29C18.1834 67.4726 18.1181 60.0745 18.1275 59.9166L22.5543 65.0866Z" fill="#F2AE61"/>
<path fill-rule="evenodd" clip-rule="evenodd" d="M18.7736 33.6385C19.6288 32.4071 20.3083 31.3866 20.3775 31.2194C20.548 30.812 19.9872 26.6386 19.7607 25.4164C19.5329 24.1942 18.691 19.8655 18.5644 19.1396C18.4365 18.4138 19.5915 14.1806 22.2786 15.7425C24.6818 17.1398 22.4451 20.46 22.4451 20.46C22.4451 20.46 23.3643 30.4842 23.323 30.9314C23.2977 31.2088 22.7035 32.139 21.731 33.4288L18.7722 33.6385H18.7736Z" fill="#AC620E"/>
<path fill-rule="evenodd" clip-rule="evenodd" d="M15.7002 37.9685C16.4049 37.0038 17.7118 35.1593 18.7736 33.6385L21.7324 33.4302C21.1342 34.2237 20.3935 35.1526 19.5556 36.1492C18.5244 37.3754 17.4613 38.5803 16.5248 39.7374L15.1833 41.3153L15.7002 37.9685Z" fill="#537394"/>
<path fill-rule="evenodd" clip-rule="evenodd" d="M14.8915 37.9443L15.0674 37.6988C16.0186 36.4316 19.8713 30.9568 20.0418 30.5495C20.2123 30.1421 19.6515 25.969 19.4237 24.7469C19.1959 23.5248 18.3539 19.1964 18.226 18.4706C18.0981 17.7448 19.5902 14.182 22.2772 15.7438C24.6805 17.141 22.108 19.7909 22.108 19.7909C22.108 19.7909 23.0272 29.8143 22.9859 30.2615C22.946 30.7087 21.4206 32.8623 19.2172 35.4803C18.1861 36.7063 17.123 37.9111 16.1864 39.0695L13.987 41.653C13.943 41.9489 13.2596 42.2979 13.2303 42.6071C13.1996 42.9282 12.6841 43.1087 12.5389 43.2334C12.395 43.3581 12.2112 43.7376 12.1046 43.8663C11.998 43.995 11.946 44.2233 11.7622 44.1662C11.5784 44.1091 11.5637 43.731 11.6463 43.5784C11.7289 43.4271 11.8301 43.175 11.8301 43.175C11.8301 43.175 11.3279 43.5691 11.2653 43.7522C11.2027 43.9353 11.1374 44.1967 11.1934 44.2869C11.2493 44.3772 11.2466 44.5457 11.3799 44.9584C11.5144 45.371 11.4118 45.4613 11.3212 45.4971C11.2307 45.5342 11.1307 45.4135 11.1001 45.2755C11.0695 45.1362 10.9855 44.9902 10.9749 44.8814C10.9642 44.7726 10.835 44.3122 10.835 44.3122L10.799 44.9398C10.799 44.9398 11.0202 45.4984 10.9962 45.5714C10.9722 45.6444 10.7591 45.9854 10.6338 45.3816C10.5592 45.0221 10.3767 44.5497 10.3767 44.5497C10.3767 44.5497 10.3487 45.4613 10.3034 45.6404C10.2582 45.8195 10.1409 45.8885 10.0557 45.862C9.9704 45.8354 10.025 45.7174 10.0357 45.5634C10.1063 44.5842 10.0663 44.1436 9.69997 45.505C9.66 45.6537 9.51612 45.7757 9.48948 45.4851C9.46284 45.1946 9.74926 44.413 9.77857 44.1635C9.80788 43.9141 9.99305 43.3501 10.101 43.1485C10.2089 42.9468 10.8696 42.408 11.1121 42.2488C11.3546 42.0883 11.653 41.7857 11.665 41.6597C11.6676 41.6265 12.3564 41.1607 12.5229 40.9312L14.8902 37.943L14.8915 37.9443Z" fill="#F4C18B"/>
<path d="M21.5192 73.1857C21.8549 73.8478 22.3518 75.0899 22.0214 75.4748L20.3162 76.4514C20.3162 76.4514 20.1923 75.9697 19.8073 76.2033C19.8073 76.2033 18.5564 77.6006 17.5812 77.7307C17.5812 77.7307 13.4847 78.0651 12.8799 77.3591C12.8799 77.3591 12.6375 76.6677 13.3329 76.6226C13.3329 76.6226 15.3498 76.478 15.6988 76.3585C16.0479 76.2391 16.5355 75.3633 16.8618 75.0249C16.9658 74.9187 17.027 74.8683 17.0417 74.8312L21.5192 73.1857Z" fill="#86958A"/>
<path d="M21.4752 72.7664C21.8109 73.4286 22.3078 74.6693 21.9775 75.0555L20.2722 76.0308C20.2722 76.0308 20.1484 75.5491 19.7634 75.7827C19.7634 75.7827 18.5111 77.1814 17.5373 77.3101C17.5373 77.3101 13.4408 77.6445 12.8359 76.9385C12.8359 76.9385 12.5935 76.2471 13.2876 76.202C13.2876 76.202 15.3045 76.0574 15.6535 75.9379C16.0039 75.8185 16.4901 74.9427 16.8165 74.6043C16.9204 74.4968 16.9817 74.4477 16.9964 74.4106L21.4739 72.7651L21.4752 72.7664Z" fill="#485B76"/>
</svg>
