<svg width="44" height="87" viewBox="0 0 44 87" fill="none" xmlns="http://www.w3.org/2000/svg">
<g filter="url(#filter0_d_533_4837)">
<path d="M41.7257 76.5534C41.8976 76.8891 42.0455 77.197 42.148 77.416C42.1987 77.5234 42.2573 77.6694 42.3225 77.8379L38.1315 78.8982L41.7257 76.5534Z" fill="#384857"/>
</g>
<g filter="url(#filter1_d_533_4837)">
<path d="M37.4653 72.0565L40.2603 72.8792L40.2776 72.9562C40.4494 73.7723 40.0405 74.0815 40.4828 74.5074C40.5107 74.5353 40.5414 74.5685 40.5747 74.607L37.4653 72.0565Z" fill="#384857"/>
</g>
<g filter="url(#filter2_d_533_4837)">
<path fill-rule="evenodd" clip-rule="evenodd" d="M14.2358 45.4191C14.4037 46.0269 14.4529 46.4237 13.8734 46.149C13.2926 45.873 13.1381 45.9645 13.1207 45.6248C13.1021 45.2851 12.5359 43.3463 12.6158 42.586C12.6958 41.8269 12.9396 42.0671 13.0781 42.7956C13.2167 43.5242 14.0666 44.8114 14.2358 45.4191ZM11.6767 43.1486C11.7273 43.6914 11.7539 44.6229 11.7739 44.9467C11.7939 45.2705 11.4515 45.2878 11.0785 45.2493C10.7055 45.2108 10.491 45.2042 10.7135 44.6216C10.9359 44.0377 11.3862 42.8341 11.4688 42.574C11.5501 42.3139 11.626 42.6072 11.6767 43.1499V43.1486ZM14.5382 44.818C14.5089 44.3774 13.2699 40.9219 13.1461 40.6419C13.0235 40.3646 11.5607 40.3035 11.3716 40.6459C11.1837 40.9883 9.06421 45.5173 9.04023 45.7429C9.01759 45.9672 7.48423 48.734 7.1232 49.6271C6.76218 50.5215 4.80918 57.195 4.72659 57.9792C4.64399 58.7648 6.87942 58.4039 9.06022 58.6321C11.241 58.8604 11.0572 58.6428 12.6478 58.8086C14.2371 58.9758 15.6479 56.9269 16.33 56.1971C17.0121 55.4686 16.7003 55.2005 16.0929 52.7787C15.8771 51.9201 14.5369 44.8167 14.5369 44.8167L14.5382 44.818Z" fill="#E1A400"/>
<path fill-rule="evenodd" clip-rule="evenodd" d="M5.65028 54.4484C5.17577 56.1071 4.76659 57.6305 4.72927 57.9795C4.67729 58.4719 5.54499 58.5143 6.7206 58.5329C6.56598 58.0645 6.4207 57.7619 6.4207 57.7619C6.20344 57.4593 5.89821 55.863 5.89821 55.863C5.87955 55.6493 5.80623 55.1543 5.65028 54.4484Z" fill="#CC9100"/>
<path fill-rule="evenodd" clip-rule="evenodd" d="M13.8535 43.426C14.5103 44.9109 14.5209 46.5631 14.5209 46.5631L13.6856 46.7183L13.603 49.4387L13.9361 57.353L12.6758 58.8127C14.2558 58.9547 15.6546 56.923 16.3327 56.1985C17.0148 55.4699 16.703 55.2019 16.0956 52.7801C15.8798 51.9215 14.5396 44.8181 14.5396 44.8181C14.5103 44.3775 13.2713 40.922 13.1474 40.642C13.0901 40.5132 12.7571 40.4323 12.3748 40.415C12.3748 40.415 13.1954 41.9398 13.8522 43.426H13.8535Z" fill="#CC9100"/>
<path d="M42.3226 78.4336C42.6956 79.4156 43.2125 81.2362 42.6889 81.7312L40.1431 82.8539C40.1431 82.8539 40.0405 82.1572 39.4637 82.4292C39.4637 82.4292 37.4934 84.2127 36.1025 84.2512C36.1025 84.2512 31.5518 84.2512 30.8044 83.167C30.8044 83.167 30.5659 82.1572 31.5518 82.1957C31.5518 82.1957 33.1464 82.1572 33.6553 82.0417C34.1655 81.9236 34.9808 80.7638 35.4911 80.3352C35.6523 80.1998 35.7482 80.1388 35.7735 80.091L42.3226 78.4336Z" fill="#86958A"/>
<path d="M23.1043 80.148C23.6411 82.7795 23.1083 83.0953 22.7552 83.2041C22.3836 83.3222 19.5979 83.3222 19.5979 83.3222C19.5979 83.3222 19.8018 82.12 19.1903 82.5858C19.1903 82.5858 17.0162 83.2041 16.2368 83.3222C16.2368 83.3222 12.1936 83.5545 11.4476 83.1272C11.4476 83.1272 9.5865 82.3509 10.8095 81.5746C10.8095 81.5746 12.0284 81.1459 13.2074 81.2004C13.2074 81.2004 14.2758 80.9827 14.8553 80.4785C15.3949 80.0087 16.35 79.4487 16.5139 79.1541L23.1043 80.148Z" fill="#86958A"/>
<path d="M19.7925 15.9785L20.3986 14.548C20.3986 14.548 19.9004 13.6151 19.8218 13.2276C19.8218 13.2276 19.9763 12.3332 18.3111 12.4513C18.3111 12.4513 17.2933 12.373 17.7342 11.1336L17.4971 10.5895C17.4971 10.5895 17.4625 10.2047 17.633 10.1649C17.633 10.1649 17.3612 9.97114 17.3612 9.85437C17.3612 9.85437 17.6663 9.23333 17.3958 9.11788C17.3958 9.11788 16.5126 8.80736 17.0894 8.18499C17.0894 8.18499 18.1432 6.9867 18.1432 6.55808C18.1432 6.55808 17.942 5.8614 18.2125 5.66898C18.2125 5.66898 18.2471 4.14425 18.451 3.94786C18.451 3.94786 18.7547 3.88283 18.6534 3.72757C18.6534 3.72757 18.7547 3.53516 18.8573 3.45554C18.8573 3.45554 18.6881 2.56379 19.7072 2.37137C19.7072 2.37137 23.6039 0.781616 25.8779 3.84435C25.8779 3.84435 26.9943 4.53307 26.1111 7.67542C26.1111 7.67542 25.1332 12.6477 24.3845 12.5708L24.2833 12.6729L19.7938 15.9772L19.7925 15.9785Z" fill="#FFBC79"/>
<path d="M33.2223 40.1417C33.2223 40.1417 33.6113 40.9286 33.6459 41.9756C33.6459 41.9756 33.6805 43.1367 34.0882 43.4114C34.0882 43.4114 35.1393 44.4571 34.8022 44.4956L33.7485 44.1068C33.7485 44.1068 35.515 45.386 34.3586 45.3475C34.3586 45.3475 34.4945 45.8504 33.7818 45.6195C33.7818 45.6195 31.9141 46.0455 31.6076 44.9998L30.2515 42.16L33.2223 40.143V40.1417Z" fill="#FFBC79"/>
<path d="M18.7653 37.6714L16.37 39.5637C16.37 39.5637 15.6106 40.0945 15.4281 39.7906L13.5111 37.0504L13.4165 37.0358C13.4165 37.0358 16.6764 33.5365 17.0174 33.2644C17.3558 32.9937 18.3749 32.1816 18.4748 31.6773C18.4788 31.6561 18.4962 31.6335 18.4882 31.611L18.7653 37.6714Z" fill="#5193D3"/>
<path d="M30.8803 42.2514L30.7711 42.3257L19.2862 43.443C19.173 42.4677 18.9385 39.5817 18.7653 37.6723L18.4882 31.6123C18.5908 31.0974 18.6108 30.2588 18.5442 29.7387C18.4762 29.196 18.5695 27.7563 18.4336 27.0251C18.2018 25.7686 17.958 25.0109 18.2977 23.266C18.6361 21.5225 18.68 18.7704 19.3581 17.9955L19.5846 16.8544L25.0972 13.7521C25.0972 13.7521 27.1701 15.3563 27.9841 17.3719C28.7994 19.3875 29.3776 21.135 29.4788 22.645C29.4788 22.645 30.5646 26.0552 30.5646 26.5581C30.5646 26.5581 30.871 26.6377 31.0069 27.5307C31.1441 28.4211 32.1365 34.4293 32.7813 36.2512L33.5447 39.177L30.8803 42.2514Z" fill="#84B3E0"/>
<path d="M33.5473 39.177L33.7485 39.8856L33.7418 40.3089L30.8802 42.2517L33.5473 39.177Z" fill="#5193D3"/>
<path d="M42.3226 77.8378C42.6956 78.8198 43.2125 80.6405 42.6889 81.1354L40.1431 82.2581C40.1431 82.2581 40.0405 81.5614 39.4637 81.8334C39.4637 81.8334 37.4934 83.617 36.1025 83.6554C36.1025 83.6554 31.5518 83.6554 30.8044 82.5713C30.8044 82.5713 30.5659 81.5614 31.5518 81.6012C31.5518 81.6012 33.1464 81.5627 33.6553 81.4473C34.1655 81.3292 34.9808 80.1694 35.4911 79.7408C35.6523 79.6054 35.7482 79.5444 35.7735 79.4953L42.3226 77.8392V77.8378Z" fill="#1A171B"/>
<path d="M23.1042 79.551C23.6411 82.1837 23.1082 82.4996 22.7552 82.607C22.3835 82.7252 19.5979 82.7252 19.5979 82.7252C19.5979 82.7252 19.8017 81.5229 19.1902 81.9887C19.1902 81.9887 17.0161 82.6071 16.2368 82.7252C16.2368 82.7252 12.1935 82.9574 11.4475 82.5301C11.4475 82.5301 9.81692 82.0272 11.0412 81.2509C11.0412 81.2509 12.0297 80.5502 13.2074 80.6046C13.2074 80.6046 14.2758 80.387 14.8553 79.8827C15.3948 79.4129 16.35 78.8516 16.5139 78.5583L23.1042 79.5523V79.551Z" fill="#1A171B"/>
<path d="M14.6808 39.8379C14.6049 39.9733 14.465 40.2705 14.465 40.5014C14.465 40.8093 13.4472 41.8975 13.2421 42.5172C13.0383 43.1369 13.278 43.9503 12.9383 43.9503L12.4947 43.8349C12.4947 43.8349 12.2576 44.2993 12.0564 43.9901C12.0564 43.9901 10.3219 42.6326 10.3219 41.8975C10.3219 41.8975 10.595 41.0044 10.5604 40.7708C10.5271 40.5399 10.595 40.114 10.8668 39.9189C11.1385 39.7251 12.564 37.9801 12.9397 37.8647C13.0409 37.8328 13.1195 37.7864 13.1781 37.736L14.6822 39.8379H14.6808Z" fill="#FFBC79"/>
<path fill-rule="evenodd" clip-rule="evenodd" d="M20.7023 7.94211H21.447C21.447 7.94211 21.3604 7.72316 21.6201 7.03311C21.8799 6.34174 22.7565 6.51425 22.9297 7.29188C23.1029 8.06951 23.8089 11.9497 23.8089 11.9497L25.3303 12.0373C25.3303 12.0373 26.6332 8.59633 27.5085 7.03311C28.385 5.46857 28.1026 5.35312 28.1026 5.35312C28.1026 5.35312 28.0293 3.90536 27.7696 2.95522C27.5098 2.00508 26.7091 2.08603 25.6141 1.34158C24.1154 0.322438 20.4185 0.398077 18.7613 2.04755C17.104 3.69834 17.3718 3.83105 19.1929 4.08981C21.014 4.34858 20.232 4.0792 20.4065 5.55615C20.5797 7.03311 20.6663 7.94344 20.6663 7.94344H20.7023V7.94211Z" fill="#4E150C"/>
<path d="M15.4308 39.7916L14.9136 40.1286C14.9136 40.1286 14.6764 40.0888 14.6084 39.8964L14.5391 39.7027C14.5391 39.7027 14.5218 39.7305 14.4818 39.7756L12.9769 37.6723C13.0982 37.5675 13.1382 37.4454 13.1409 37.3977L13.5114 36.8536L15.4294 39.7916H15.4308Z" fill="#385B7E"/>
<path fill-rule="evenodd" clip-rule="evenodd" d="M30.7351 42.4371L26.0431 25.2988C26.0431 25.2988 27.9135 38.8157 28.441 40.4055C28.9699 41.9952 29.612 42.4371 29.612 42.4371H30.7351Z" fill="#5193D3"/>
<path d="M30.6632 42.3032C30.8776 43.159 31.3146 44.9955 31.2094 45.3206C31.0735 45.7478 31.5517 47.376 31.617 48.6936C31.685 50.0125 31.9234 50.7118 32.2618 51.7946C32.6028 52.88 33.554 55.5935 33.6553 56.1747C33.7592 56.7559 35.3205 60.0121 36.3396 62.1829C37.3574 64.3524 39.2918 67.8435 39.429 69.9746C39.5649 72.1056 40.1084 72.1441 40.2776 72.9574C40.4495 73.7735 40.0405 74.0827 40.4828 74.5086C40.9237 74.9359 41.8056 76.6794 42.148 77.4159C42.1986 77.5233 42.2573 77.6693 42.3225 77.8378L35.7735 79.4938C35.8654 79.389 35.7295 79.3412 35.7295 78.7322C35.7295 77.8405 34.9475 76.483 34.8796 75.9045C34.8116 75.3207 33.8964 73.1114 33.7259 72.7624C33.5567 72.4134 33.1144 71.3665 32.9119 70.9007C32.7067 70.4376 31.7569 67.7254 31.5531 67.3353C31.3492 66.9492 28.3611 61.0975 27.9868 60.2815C27.6138 59.4681 26.2203 56.0964 25.9832 55.6691C25.746 55.2419 24.8162 53.5673 24.7136 53.5302C24.7136 53.5302 24.5217 56.172 24.591 57.1022C24.6576 58.035 24.5564 58.9652 24.3525 59.6618C24.1501 60.3598 23.9462 61.5606 23.9116 62.1816C23.8783 62.8013 22.281 75.943 22.9937 79.0427C23.035 79.2218 23.0723 79.3903 23.1043 79.5509L16.5139 78.557C16.5366 78.5358 16.5352 78.5172 16.5392 78.4986C16.6085 78.2266 17.0508 76.3676 17.1867 75.9032C17.3226 75.4361 17.256 71.3267 17.2213 70.1656C17.1867 69.0006 17.3226 61.5991 17.629 58.5751C17.9354 55.5511 18.2058 50.1253 18.5109 49.2336C18.8173 48.3433 18.8426 45.7452 19.1823 45.0486C19.3861 44.6293 19.0997 42.5168 19.2049 42.5513C21.9972 43.4603 30.6645 42.3005 30.6645 42.3005L30.6632 42.3032Z" fill="#385B7E"/>
<path fill-rule="evenodd" clip-rule="evenodd" d="M24.7123 53.5319L28.9926 48.0766L26.8917 57.5647L24.7123 53.5319Z" fill="#384857"/>
<path d="M17.2186 70.0464C17.196 68.5575 17.3319 61.5098 17.6278 58.5784C17.9344 55.5542 18.2049 50.128 18.5102 49.2363C18.5275 49.1845 18.5448 49.1262 18.5608 49.0638L18.3036 62.858L17.2159 70.0477L17.2186 70.0464Z" fill="#384857"/>
<path d="M16.7457 77.6509C16.903 77.0033 17.1029 76.1898 17.1856 75.9045L18.4571 78.0769L16.7444 77.6509H16.7457Z" fill="#748CA5"/>
<path d="M21.3684 73.3717L23.1092 70.4549C23.0145 71.6519 22.9319 72.8608 22.8786 73.9914L21.3684 73.3717Z" fill="#384857"/>
<path d="M22.5342 67.6965L23.6658 64.517C23.5578 65.5414 23.4272 66.826 23.3006 68.2087L22.5342 67.6978V67.6965Z" fill="#748CA5"/>
<path d="M21.7827 59.7521L24.3459 59.6897C24.1446 60.3904 23.946 61.5701 23.9127 62.1818L23.91 62.2216L21.7827 59.7521Z" fill="#384857"/>
<path d="M31.5051 67.2483C31.0761 66.4176 28.3424 61.0604 27.9854 60.2828L27.8828 60.0546L31.9047 65.6997L31.5037 67.2483H31.5051Z" fill="#748CA5"/>
<path d="M37.2841 79.1132L35.7726 79.4941C35.8645 79.3892 35.7286 79.3415 35.7286 78.7324C35.7286 77.9879 35.1821 76.9157 34.9635 76.2455L37.2841 79.1119V79.1132Z" fill="#748CA5"/>
<path d="M37.7438 66.1759L35.944 62.7243L37.4454 64.4507C37.917 65.4195 38.3992 66.4532 38.7722 67.4299L37.7438 66.1759Z" fill="#384857"/>
<path d="M34.3906 57.9979C34.7822 58.8551 35.2605 59.8915 35.7214 60.8682L32.8159 59.6142L34.3906 57.9979Z" fill="#384857"/>
<path d="M18.4949 31.5806C18.5922 31.0644 18.6108 30.2483 18.5455 29.7387L18.5349 29.6511C18.5349 29.6511 19.1467 31.0551 19.6945 31.4771C20.2423 31.8977 19.9224 31.7823 19.5319 31.7292C19.14 31.6775 18.4949 31.5806 18.4949 31.5806Z" fill="#5193D3"/>
<path fill-rule="evenodd" clip-rule="evenodd" d="M24.9853 15.2356C25.9378 15.9615 26.8357 17.3615 27.3739 19.478C27.9121 21.5946 25.9924 19.6492 25.4649 18.3222C24.936 16.9965 24.5123 16.049 24.3418 15.7916C24.0834 15.4015 24.0327 14.5097 24.9853 15.2356Z" fill="#9DC2E6"/>
<path d="M22.3223 35.6358C22.3223 29.5395 23.3894 31.3933 24.4565 35.6358C25.5235 39.8782 27.6457 42.6304 27.6457 42.6304L21.5243 43.2263C21.5243 43.2263 22.3223 41.7307 22.3223 35.6358Z" fill="#9DC2E6"/>
<path d="M22.3223 35.6358C22.3223 29.5395 23.3894 31.3933 24.4565 35.6358C25.5235 39.8782 27.6457 42.6304 27.6457 42.6304L21.5243 43.2263C21.5243 43.2263 22.3223 41.7307 22.3223 35.6358Z" stroke="#84B3E0" stroke-width="1.5" stroke-miterlimit="3.86"/>
<path d="M19.2157 44.9387C19.3395 44.3442 19.1144 42.5129 19.2117 42.5447C22.0039 43.4551 30.6619 42.3032 30.6619 42.3032C30.6898 42.416 30.7338 42.5447 30.7565 42.6841L19.2157 44.9387Z" fill="#384857"/>
<path d="M18.2072 26.553C18.0033 25.3999 18.006 24.6382 18.2992 23.0378L19.4548 23.5978C19.4548 23.5978 19.3602 26.4031 19.4548 26.7773C19.5494 27.1515 18.2085 26.553 18.2085 26.553H18.2072Z" fill="#A9CAE9"/>
<path d="M20.1175 18.3794C20.1135 18.1313 19.3449 16.3372 19.5927 16.1992C19.6686 15.9776 19.7805 15.7307 19.7805 15.7307L24.4525 12.311L25.0573 12.3336L25.0986 13.7522L20.1175 18.3794Z" fill="#5193D3"/>
<path fill-rule="evenodd" clip-rule="evenodd" d="M21.9999 45.9152L19.3262 44.543L19.1543 45.3432L22.2876 46.4752L21.9999 45.9152Z" fill="#384857"/>
<path fill-rule="evenodd" clip-rule="evenodd" d="M19.8772 42.4147L19.8919 42.286C19.8852 42.0724 19.8946 41.9317 19.9239 41.8176C19.8306 41.8388 19.7266 41.8746 19.6013 41.929C19.1455 42.1281 18.711 42.2581 18.4924 42.7465C18.2724 43.2348 18.2258 43.4485 18.2604 43.8943C18.2818 44.1611 18.2924 44.5393 18.3644 44.9573L18.8496 45.074C18.7136 44.4411 18.6337 43.7311 18.663 43.471C18.7136 43.0185 19.4201 42.6403 19.612 42.5129C19.6866 42.4625 19.7599 42.4386 19.8786 42.4147H19.8772Z" fill="#FFC1FF"/>
<path d="M28.1066 53.3179L28.0227 52.5363L27.3126 55.4622L28.096 56.6086L28.1066 53.3179ZM25.1305 83.931C24.7535 83.931 24.7189 83.6245 24.7189 83.6245C24.9613 83.1853 26.7411 80.8725 27.4059 79.8096C28.1146 78.6711 28.2318 73.946 28.2318 73.946C28.056 73.0318 27.9961 64.6802 27.9961 64.6802C27.9961 64.6802 25.8699 62.1431 23.8063 60.0639C21.7894 58.035 21.5669 57.2004 23.011 53.6191C24.4404 50.0749 33.1157 53.9972 33.1157 53.9972C33.0664 54.0079 33.8444 53.7425 33.8444 53.7425C33.883 55.6944 33.181 59.7149 33.181 59.7149C33.0198 60.8149 33.0437 62.3528 33.0437 62.3528C33.1437 63.3878 33.3368 64.3007 33.3368 64.3007C34.6211 66.4384 37.2708 72.8115 39.8353 73.1631C39.8353 73.1631 39.7327 75.0619 39.3583 76.9369C38.984 78.8105 38.0435 80.8088 37.416 80.8725L36.9657 80.6615C36.8778 80.4426 36.6127 76.4685 36.6127 76.4685C36.6127 74.5126 32.8945 70.3514 32.8945 70.3514C32.9545 70.7309 32.4216 72.6231 32.4216 72.6231C31.5663 74.4821 31.7568 79.0068 31.7568 79.0068C31.7568 79.0068 31.7129 79.7459 31.2106 80.3709C30.7071 80.9972 28.7647 83.6178 27.9508 83.6178C27.1368 83.6178 25.5075 83.931 25.1305 83.931Z" fill="#FFBC79"/>
<path d="M36.9672 80.6594C36.9672 80.6594 33.8752 82.4999 35.3819 83.0971C35.3819 83.0971 39.5636 82.5809 40.2138 79.9972C40.2138 79.9972 40.3896 77.1282 41.0983 77.5064C41.0983 77.5064 42.3652 78.2628 42.5131 78.8613L43.1632 78.4512C43.1632 78.4512 42.2507 76.5603 42.2507 75.7402C42.2507 75.7402 42.3479 73.5241 39.8367 73.1605C39.8367 73.1605 39.5983 74.6188 39.3665 75.8105C39.1347 77.0022 38.7044 79.1745 38.1648 79.7132C37.6253 80.2507 36.9672 80.6581 36.9672 80.6581V80.6594Z" fill="#4BA12E"/>
<path d="M24.7188 83.6248C24.7028 83.654 24.6935 83.6752 24.6909 83.6859C24.6909 83.6859 22.8924 84.5603 22.5087 84.4967C22.5087 84.4967 20.7342 84.8815 21.7973 85.7016C21.7973 85.7016 26.7265 86.523 27.8189 85.5131C27.8189 85.5131 30.4446 82.5526 30.7404 83.5611L30.8296 85.7016L31.8328 85.6711C31.8328 85.6711 31.8048 83.4324 32.2751 83.0237C32.2751 83.0237 33.538 81.1738 31.7568 79.0055C31.7568 79.0055 28.3331 82.9971 27.639 83.305C26.9449 83.6129 24.7188 83.6248 24.7188 83.6248Z" fill="#4BA12E"/>
<path fill-rule="evenodd" clip-rule="evenodd" d="M28.0965 56.6086L27.9978 64.6755L27.2781 63.8289L27.9152 56.3419L28.0965 56.6086Z" fill="#EA996B"/>
<path fill-rule="evenodd" clip-rule="evenodd" d="M33.2118 70.7009C33.2118 70.7009 33.5117 69.7653 33.7836 68.5604C34.0542 67.3555 34.0848 65.6556 34.0848 65.6556L33.3384 64.3007C33.3384 64.3007 33.7543 65.9741 33.5796 67.0609C33.2451 69.131 32.8959 70.3519 32.8959 70.3519L33.2118 70.7009Z" fill="#EA996B"/>
<path d="M33.8325 54.4764C33.8325 54.4764 30.4953 54.564 29.5242 54.5375C29.1805 54.5282 28.6609 54.5282 28.104 54.5308L28.108 53.318L28.0241 52.5364L27.5405 54.5322C26.6919 54.5322 25.862 54.5282 25.5036 54.4857C24.8255 54.4061 22.7753 54.2296 22.7753 54.2296C22.8419 54.0345 22.9285 53.8315 23.0137 53.6192C24.4432 50.0748 33.1184 53.9974 33.1184 53.9974C33.0691 54.008 33.8471 53.7426 33.8471 53.7426C33.8525 53.9642 33.8471 54.2124 33.8338 54.4778L33.8325 54.4764Z" fill="#EA996B"/>
<path d="M33.2663 54.1352C33.5527 54.0901 34.3134 53.9455 34.2881 53.7385C34.2588 53.4877 33.9923 52.2576 34.3187 51.4389C34.6438 50.6189 34.6944 44.1887 35.1966 43.2745C35.1966 43.2745 36.8486 41.162 35.4617 37.5674C35.4617 37.5674 33.8684 32.082 33.987 30.7922C34.1056 29.4985 34.3414 28.8045 34.0456 28.5219C33.7485 28.2366 33.7805 27.7324 34.2814 26.9774C34.7823 26.221 36.2864 23.412 35.9946 20.3548C35.6989 17.2989 34.4879 13.1669 34.4879 13.1669C34.4879 13.1669 34.1642 12.9652 33.7805 13.155L28.922 14.8547L28.9114 14.9051C28.9114 14.9051 27.3314 16.9685 26.231 18.2012C24.6763 19.9421 23.4267 19.3357 25.016 23.9122C25.016 23.9122 25.3997 27.6076 25.3104 27.8903C25.2238 28.1742 25.1932 28.3335 25.457 28.5843C25.7221 28.835 25.4863 29.2782 25.6048 29.529C25.7221 29.7798 25.842 33.3744 25.842 33.3744C25.842 33.3744 25.9592 33.6597 25.9898 33.7526C25.9898 33.7526 25.7234 36.7806 25.5182 37.2211C25.3104 37.6616 25.5289 37.9416 25.5862 38.2561C25.6448 38.5719 25.2172 41.1607 24.5431 45.3856C24.5431 45.3856 22.8325 53.3921 22.7126 53.5182C22.7126 53.5182 23.043 53.8154 23.1909 53.8791L33.2636 54.1352H33.2663Z" fill="#4BA12E"/>
<path d="M25.4223 2.8239C25.2625 3.49802 25.0173 4.65915 25.1039 5.09573C25.1039 5.09573 25.1772 5.6982 24.4085 6.60587C24.4085 6.60587 23.1416 7.49231 24.6616 7.77496C24.6616 7.77496 24.5005 8.78216 24.9134 8.81268C24.9134 8.81268 25.1985 9.00244 24.9774 9.25457C24.9774 9.25457 24.7562 9.60225 24.8828 9.85306C24.8828 9.85306 24.282 11.2411 25.4516 11.4282C25.4516 11.4282 27.8562 11.1787 28.2039 11.6193C28.2039 11.6193 29.1285 14.1433 28.9753 15.0363L34.1868 13.3364C34.1629 13.3537 32.439 11.9856 32.7867 10.3931C32.7867 10.3931 32.9173 5.09972 32.391 4.61403C31.8635 4.12702 25.421 2.82257 25.421 2.82257L25.4223 2.8239Z" fill="#FFBC79"/>
<path d="M33.3449 12.6172V12.0121C33.7232 10.4038 34.757 11.1469 34.5692 7.58254C34.5692 7.58254 36.7193 8.56188 37.2908 6.45061C37.8624 4.33934 38.334 3.17157 37.4481 3.23394C37.4481 3.23394 36.0239 3.07735 35.8974 3.89744C35.8974 3.89744 35.5803 2.31963 34.8529 2.82522C34.8529 2.82522 32.8293 0.0836257 30.9283 0.0836257C30.9283 0.0836257 28.2692 -0.48566 25.9605 1.34428C25.9605 1.34428 24.5018 1.43983 24.7243 2.98181C24.7243 2.98181 24.7243 2.28778 25.1665 2.10068C25.1665 2.10068 25.1039 2.35281 25.1665 2.54257C25.1665 2.54257 25.3118 2.38068 25.4943 2.33158C25.4943 2.33158 25.5289 2.32361 25.5462 2.32096C25.5462 2.32096 25.4929 2.52532 25.421 2.82522C25.421 2.82522 26.0485 3.76607 26.7812 4.20929C27.5139 4.65384 29.3017 5.78976 29.7893 5.8707C30.2782 5.95165 30.6419 6.0326 31.0495 5.70881C31.4572 5.38369 32.3764 5.75393 31.9461 6.71999C31.0255 8.78216 33.3436 12.6185 33.3436 12.6185L33.3449 12.6172Z" fill="#AD0000"/>
<path d="M29.0485 13.2122C29.0099 12.8565 28.8101 12.2196 28.9699 11.9422C29.1285 11.6649 29.6893 11.3889 29.6094 11.2296C29.5308 11.0717 28.7714 11.0717 27.0995 11.0717C25.4276 11.0717 24.8308 11.0359 24.8308 11.0359C24.9414 11.2243 25.1212 11.3756 25.4543 11.4287C25.4543 11.4287 27.8589 11.1792 28.2066 11.6198C28.2066 11.6198 28.8673 13.4258 28.9793 14.5219C28.9793 14.5219 29.0885 13.5665 29.0485 13.2109V13.2122Z" fill="#EAA979"/>
<path fill-rule="evenodd" clip-rule="evenodd" d="M31.8048 15.8048C30.3247 15.3337 27.7176 16.463 28.1745 19.6239C28.6302 22.7849 29.6346 27.8554 29.6346 28.3105C29.6346 28.7657 27.8322 32.1774 27.4898 32.7228C27.1474 33.2682 25.6634 35.9607 25.6634 35.9607L25.5128 39.0779C25.5128 39.0779 31.2093 33.04 32.2364 31.4728C33.2649 29.9043 33.6072 29.2222 33.3794 26.8575C33.1503 24.4941 34.0642 19.4222 33.9496 18.5132C33.835 17.6029 33.9496 16.4896 31.8048 15.8075V15.8048Z" fill="#36812B"/>
<path fill-rule="evenodd" clip-rule="evenodd" d="M30.9602 15.4585C29.4815 14.9887 26.873 16.1167 27.33 19.2776C27.7869 22.4386 28.7901 27.5091 28.7901 27.9629C28.7901 28.4167 26.9863 31.8311 26.6439 32.3752C26.3015 32.9193 22.2423 38.3905 22.2423 38.3905L24.2153 39.5808C24.2153 39.5808 30.3647 32.691 31.3932 31.1225C32.4203 29.554 32.7627 28.8719 32.5348 26.5072C32.307 24.1424 33.2196 19.072 33.1064 18.163C32.9918 17.254 33.1064 16.1393 30.9602 15.4572V15.4585Z" fill="#84CF29"/>
<path fill-rule="evenodd" clip-rule="evenodd" d="M24.1274 39.4889L23.5119 40.2174C23.2108 40.6049 22.6673 40.8172 22.6753 41.1463C22.6833 41.4887 22.237 41.6559 22.0918 41.7766C21.9452 41.8974 21.7907 42.2875 21.6881 42.4149C21.5855 42.5423 21.5576 42.7838 21.3431 42.7055C21.1273 42.6259 21.058 42.2172 21.1313 42.0619C21.2045 41.9067 21.2845 41.6466 21.2845 41.6466C21.2845 41.6466 20.7716 42.0208 20.7263 42.2119C20.681 42.403 20.6424 42.679 20.7183 42.7812C20.7929 42.8834 20.8129 43.0638 21.0207 43.5216C21.2272 43.9781 21.1259 44.0657 21.0273 44.0962C20.9301 44.1268 20.8009 43.9887 20.7463 43.8361C20.693 43.6835 20.5784 43.519 20.5518 43.4009C20.5251 43.2841 20.316 42.7759 20.316 42.7759L20.4545 43.5256C20.4545 43.5256 20.6876 44.0697 20.669 44.1467C20.6517 44.2236 20.4572 44.5687 20.2334 43.9065C20.1001 43.5124 19.8284 42.9869 19.8284 42.9869C19.8284 42.9869 19.9216 43.9635 19.895 44.1533C19.867 44.3417 19.7444 44.4041 19.6459 44.3683C19.5459 44.3311 19.4713 44.1613 19.4634 43.9967C19.4087 42.9497 19.2915 42.3924 19.0637 43.8215C19.0384 43.9768 18.7187 44.3961 18.6494 44.0816C18.5801 43.7658 18.7973 42.9524 18.7959 42.6883C18.7959 42.4229 18.9744 41.3812 19.069 41.1755C19.1636 40.9698 19.8683 40.5518 20.1201 40.4045C20.3719 40.2559 20.629 40.1086 20.8901 40.0051C20.9234 39.9918 21.6029 39.5353 21.7601 39.3057L22.4248 38.4286L24.1274 39.4915V39.4889Z" fill="#F4C18B"/>
<path fill-rule="evenodd" clip-rule="evenodd" d="M16.8737 62.3899C16.8097 62.382 16.6698 62.3793 16.5872 62.3475C16.5046 62.3143 15.9851 62.1205 15.8772 62.0741C15.7693 62.0277 15.5908 62.0369 15.4629 62.0423C15.3363 62.0462 14.9353 62.2188 14.9353 62.2188C14.7475 62.2678 14.6009 62.3063 14.6049 62.1537C14.6076 61.9361 14.8327 57.6804 14.8394 57.3128L15.0432 45.6749C15.0485 45.3445 15.0952 44.8655 15.0952 44.8655C15.2031 44.9225 15.3923 44.9796 15.5148 45.0061C15.7013 45.0353 15.9185 45.0314 16.1996 44.9955C16.7151 44.9305 17.0535 44.7872 17.2014 44.6452C17.264 44.5841 17.3506 44.5696 17.4359 44.5749C17.4305 44.6094 17.3652 45.6816 17.3226 45.9695C17.28 46.2628 17.316 52.7983 17.3 53.6078C17.2866 54.4173 17.0762 60.0279 17.1041 60.5069C17.1334 60.9873 17.1987 61.2766 17.0122 61.4597C16.8257 61.6428 17.0282 62.3714 17.0282 62.3714C17.0282 62.3714 16.9363 62.3966 16.8723 62.3899H16.8737Z" fill="#FF93E3"/>
<path fill-rule="evenodd" clip-rule="evenodd" d="M23.0229 46.3042C23.9342 46.6585 25.3929 47.176 25.5581 47.18C25.7819 47.184 25.8192 47.2211 26.039 47.2251C26.2575 47.2291 26.2948 47.2676 26.2895 47.5608C26.2842 47.8541 26.5493 59.9378 26.5799 60.3426C26.6106 60.7486 26.6439 60.9676 26.7131 61.2993C26.7824 61.6311 26.6665 61.8156 26.4094 61.8116C26.1536 61.8063 25.8552 61.7266 25.6354 61.7598C25.4156 61.793 18.1444 62.3331 17.8114 62.3596C17.4983 62.3848 17.2146 62.349 17.0294 62.3729C17.0294 62.3729 16.8282 61.6444 17.0134 61.4612C17.1986 61.2781 17.1346 60.9888 17.1053 60.5084C17.0774 60.0281 17.2878 54.4188 17.3012 53.6093C17.3158 52.7999 17.2798 46.2644 17.3238 45.9711C17.3664 45.6791 17.4371 44.5764 17.4371 44.5764C17.545 44.5804 17.6422 44.6175 17.6422 44.6175C17.6422 44.6175 18.0405 44.8431 18.2257 44.8829C18.4109 44.9241 21.9106 45.8225 22.3209 46.0215C22.3262 44.5963 22.3249 42.9628 22.3409 42.7624C22.3688 42.424 22.3329 42.3709 22.0824 42.2356C22.0012 42.1918 21.9652 42.217 21.7773 42.0989L22.0691 41.5031C22.153 41.5787 22.169 41.5508 22.2343 41.6304C22.4768 41.9264 22.534 42.2661 22.6366 42.4744C22.7378 42.6828 22.9923 43.5413 23.0269 43.9262C23.0509 44.1929 23.0469 45.3421 23.0243 46.3042H23.0229Z" fill="#FF68D8"/>
<path fill-rule="evenodd" clip-rule="evenodd" d="M22.4329 62.0575C23.0124 60.8433 23.5652 59.6052 23.5652 59.6052C23.5652 59.6052 24.575 57.7142 24.984 56.93C25.393 56.1457 25.7087 55.6255 25.742 54.8625C25.7567 54.5082 26.0484 54.0159 26.4148 53.5315C26.4787 56.7601 26.564 60.128 26.58 60.339C26.6106 60.7451 26.6439 60.9641 26.7132 61.2958C26.7825 61.6276 26.6666 61.812 26.4095 61.808C26.1537 61.8027 25.8553 61.7231 25.6354 61.7563C25.5382 61.7709 24.0768 61.9315 22.4342 62.0562L22.4329 62.0575Z" fill="#FF3ECD"/>
<path fill-rule="evenodd" clip-rule="evenodd" d="M25.4183 61.7782C24.7082 61.8379 22.4195 62.0117 20.5345 62.1537C19.534 60.1579 18.4482 57.837 18.1845 57.3805L17.2346 55.7244C17.2679 54.7225 17.2959 53.8838 17.2999 53.6065C17.3145 52.797 17.2786 46.2615 17.3225 45.9682C17.3652 45.6763 17.4358 44.5735 17.4358 44.5735C17.4917 44.5762 17.5197 44.6744 17.5663 44.685C18.4909 46.7472 21.4377 53.9794 22.5781 56.218C23.3401 57.7122 24.543 60.1261 25.4196 61.7769L25.4183 61.7782Z" fill="#FF3ECD"/>
<path fill-rule="evenodd" clip-rule="evenodd" d="M14.9366 51.7155L15.0433 45.6736C15.0486 45.3432 15.0953 44.8641 15.0953 44.8641C15.2032 44.9212 15.3925 44.9783 15.5151 45.0048C15.7017 45.034 15.919 45.03 16.2002 44.9942C16.716 44.9292 17.0546 44.7858 17.2026 44.6438C17.2652 44.5828 17.3518 44.5682 17.4371 44.5735C17.4318 44.608 17.3665 45.6802 17.3238 45.9682C17.2812 46.2615 17.3172 52.797 17.3012 53.6065C17.2972 53.8838 17.2692 54.7225 17.2359 55.7244C16.5841 54.5871 15.7031 53.0664 14.9366 51.7141V51.7155Z" fill="#FFA9E9"/>
<path fill-rule="evenodd" clip-rule="evenodd" d="M24.1406 46.7205C24.8134 46.9647 25.4528 47.177 25.5581 47.1796C25.7819 47.1836 25.8192 47.2208 26.039 47.2248C26.2575 47.2287 26.2948 47.2672 26.2895 47.5605C26.2868 47.7065 26.3521 50.7957 26.4213 53.9023H26.8583C26.785 50.6365 26.7131 47.2141 26.7158 47.0589C26.7211 46.7656 26.6851 46.7271 26.4653 46.7232C26.2455 46.7192 26.2095 46.682 25.9844 46.678C25.8658 46.6754 25.0878 46.755 24.3205 46.4724L24.142 46.7218L24.1406 46.7205Z" fill="#36812B"/>
</g>
<defs>
<filter id="filter0_d_533_4837" x="34.1315" y="76.5534" width="12.191" height="10.3448" filterUnits="userSpaceOnUse" color-interpolation-filters="sRGB">
<feFlood flood-opacity="0" result="BackgroundImageFix"/>
<feColorMatrix in="SourceAlpha" type="matrix" values="0 0 0 0 0 0 0 0 0 0 0 0 0 0 0 0 0 0 127 0" result="hardAlpha"/>
<feOffset dy="4"/>
<feGaussianBlur stdDeviation="2"/>
<feComposite in2="hardAlpha" operator="out"/>
<feColorMatrix type="matrix" values="0 0 0 0 0 0 0 0 0 0 0 0 0 0 0 0 0 0 0.25 0"/>
<feBlend mode="normal" in2="BackgroundImageFix" result="effect1_dropShadow_533_4837"/>
<feBlend mode="normal" in="SourceGraphic" in2="effect1_dropShadow_533_4837" result="shape"/>
</filter>
<filter id="filter1_d_533_4837" x="33.4653" y="72.0565" width="11.1094" height="10.5505" filterUnits="userSpaceOnUse" color-interpolation-filters="sRGB">
<feFlood flood-opacity="0" result="BackgroundImageFix"/>
<feColorMatrix in="SourceAlpha" type="matrix" values="0 0 0 0 0 0 0 0 0 0 0 0 0 0 0 0 0 0 127 0" result="hardAlpha"/>
<feOffset dy="4"/>
<feGaussianBlur stdDeviation="2"/>
<feComposite in2="hardAlpha" operator="out"/>
<feColorMatrix type="matrix" values="0 0 0 0 0 0 0 0 0 0 0 0 0 0 0 0 0 0 0.25 0"/>
<feBlend mode="normal" in2="BackgroundImageFix" result="effect1_dropShadow_533_4837"/>
<feBlend mode="normal" in="SourceGraphic" in2="effect1_dropShadow_533_4837" result="shape"/>
</filter>
<filter id="filter2_d_533_4837" x="0.724365" y="-0.00012207" width="46.4388" height="94.0167" filterUnits="userSpaceOnUse" color-interpolation-filters="sRGB">
<feFlood flood-opacity="0" result="BackgroundImageFix"/>
<feColorMatrix in="SourceAlpha" type="matrix" values="0 0 0 0 0 0 0 0 0 0 0 0 0 0 0 0 0 0 127 0" result="hardAlpha"/>
<feOffset dy="4"/>
<feGaussianBlur stdDeviation="2"/>
<feComposite in2="hardAlpha" operator="out"/>
<feColorMatrix type="matrix" values="0 0 0 0 0 0 0 0 0 0 0 0 0 0 0 0 0 0 0.25 0"/>
<feBlend mode="normal" in2="BackgroundImageFix" result="effect1_dropShadow_533_4837"/>
<feBlend mode="normal" in="SourceGraphic" in2="effect1_dropShadow_533_4837" result="shape"/>
</filter>
</defs>
</svg>
