<svg width="45" height="78" viewBox="0 0 45 78" fill="none" xmlns="http://www.w3.org/2000/svg">
<path fill-rule="evenodd" clip-rule="evenodd" d="M17.3497 34.7962L17.3377 34.6954C17.2951 34.5348 17.2777 34.426 17.2804 34.3358C17.2138 34.3676 17.1405 34.4127 17.0552 34.4764C16.7446 34.706 16.4394 34.8798 16.3594 35.2885C16.2781 35.6959 16.2807 35.8658 16.386 36.1975C16.4474 36.3953 16.5233 36.6792 16.65 36.9831L17.0378 36.9871C16.8246 36.532 16.6393 36.0078 16.6166 35.8074C16.5753 35.4557 17.0432 35.047 17.1658 34.917C17.2151 34.8652 17.2658 34.8347 17.3497 34.7949V34.7962Z" fill="#FFC1FF"/>
<path fill-rule="evenodd" clip-rule="evenodd" d="M18.5815 50.4322C18.5308 50.4375 18.4243 50.46 18.3563 50.4494C18.2884 50.4388 17.8607 50.3831 17.7715 50.3658C17.6822 50.3499 17.5477 50.3884 17.4531 50.4136C17.3572 50.4388 17.0827 50.6392 17.0827 50.6392C16.9495 50.7095 16.8456 50.7639 16.8216 50.6485C16.787 50.4826 16.2102 47.2235 16.1502 46.9435L14.2638 38.1029C14.2105 37.8521 14.1599 37.4819 14.1599 37.4819C14.2518 37.5058 14.405 37.5164 14.5023 37.5151C14.6488 37.5045 14.8114 37.4647 15.0192 37.3877C15.3975 37.2484 15.628 37.0812 15.7146 36.9484C15.7519 36.8914 15.8145 36.8662 15.8798 36.8529C15.8824 36.8808 16.021 37.7035 16.0383 37.9278C16.0583 38.1574 17.2306 43.0951 17.3612 43.7109C17.4931 44.3266 18.3164 48.6075 18.4229 48.9645C18.5295 49.3228 18.6294 49.5311 18.5215 49.701C18.4136 49.8722 18.6934 50.3884 18.6934 50.3884C18.6934 50.3884 18.6281 50.4242 18.5801 50.4295L18.5815 50.4322Z" fill="#FFC1FF"/>
<path fill-rule="evenodd" clip-rule="evenodd" d="M20.4132 37.1915C21.1633 37.3003 22.3596 37.4383 22.4835 37.4131C22.654 37.376 22.6886 37.3985 22.8551 37.364C23.0217 37.3282 23.0563 37.3508 23.1029 37.5737C23.1509 37.7966 25.4702 46.8933 25.5635 47.1945C25.6581 47.4957 25.7207 47.6563 25.8326 47.8952C25.9432 48.134 25.8872 48.2933 25.6927 48.3357C25.4982 48.3769 25.2584 48.3689 25.0972 48.4326C24.9374 48.4963 19.53 50.1696 19.2835 50.2479C19.0504 50.3209 18.8293 50.3435 18.6947 50.3939C18.6947 50.3939 18.4149 49.8777 18.5228 49.7065C18.6308 49.5353 18.5308 49.3283 18.4243 48.97C18.319 48.6117 17.4944 44.3308 17.3625 43.7164C17.2306 43.102 16.0583 38.1629 16.0396 37.9333C16.021 37.7051 15.8811 36.8584 15.8811 36.8584C15.9637 36.8438 16.0436 36.8545 16.0436 36.8545C16.0436 36.8545 16.3847 36.9553 16.5325 36.954C16.6804 36.9513 19.4847 37.023 19.8297 37.1026C19.5846 36.0224 19.2969 34.787 19.2742 34.633C19.2356 34.373 19.1996 34.3385 18.9851 34.2801C18.9172 34.2615 18.8932 34.2867 18.7307 34.2296L18.8466 33.728C18.9225 33.7705 18.9292 33.7466 18.9944 33.7957C19.2289 33.9788 19.3328 34.2257 19.4461 34.365C19.5606 34.5043 19.903 35.1094 19.9963 35.3948C20.0615 35.5925 20.26 36.4617 20.4119 37.1942L20.4132 37.1915Z" fill="#FFAEFF"/>
<path fill-rule="evenodd" clip-rule="evenodd" d="M24.94 48.4841C24.4138 48.6527 22.7126 49.1821 21.3098 49.6174C20.2041 48.2811 18.9745 46.7152 18.6947 46.4153L17.6862 45.3285C17.5357 44.5641 17.4091 43.9245 17.3638 43.7149C17.232 43.1005 16.0596 38.1613 16.041 37.9318C16.0223 37.7035 15.8824 36.8569 15.8824 36.8569C15.9251 36.8489 15.9637 36.9193 16.001 36.9179C17.0614 38.3179 20.5598 43.277 21.8147 44.7725C22.654 45.7704 23.9875 47.388 24.94 48.4855V48.4841Z" fill="#D794FF"/>
<path fill-rule="evenodd" clip-rule="evenodd" d="M15.243 42.6931L14.2638 38.1029C14.2105 37.8521 14.1599 37.4819 14.1599 37.4819C14.2518 37.5058 14.405 37.5164 14.5023 37.5151C14.6488 37.5045 14.8114 37.4647 15.0192 37.3877C15.3975 37.2484 15.628 37.0812 15.7146 36.9484C15.7519 36.8914 15.8145 36.8662 15.8798 36.8529C15.8824 36.8808 16.021 37.7035 16.0383 37.9278C16.0583 38.1574 17.2306 43.0951 17.3612 43.7109C17.4065 43.9219 17.5317 44.5602 17.6836 45.3245C16.9908 44.5774 16.0583 43.5795 15.2417 42.6904L15.243 42.6931Z" fill="#FFD4FF"/>
<path fill-rule="evenodd" clip-rule="evenodd" d="M18.2365 8.95197C18.3818 9.05547 20.0639 11.6803 20.3278 12.8998C20.5917 14.118 20.4931 15.4742 20.4931 15.4742L19.4374 14.7855C19.4374 14.7855 19.0616 13.1055 18.7643 12.7273C18.4684 12.3491 18.0379 11.6458 18.0379 11.2331C18.0379 10.8204 18.2352 8.95197 18.2352 8.95197H18.2365Z" fill="#1A171B"/>
<path d="M18.3683 8.69189H14.481V14.3516H18.3683V8.69189Z" fill="#EAAE79"/>
<path fill-rule="evenodd" clip-rule="evenodd" d="M14.9297 1.07446L13.1076 3.15388C13.1076 3.15388 12.2799 8.07973 13.5248 9.23025C14.038 9.70399 13.882 10.1578 14.879 10.0729L14.9283 1.07446H14.9297Z" fill="#F4C18B"/>
<path fill-rule="evenodd" clip-rule="evenodd" d="M14.8806 10.0729C15.3869 10.0291 15.8878 10.1339 16.9136 9.97734C18.7626 9.69601 18.5735 9.50625 19.0637 8.65431C20.2321 6.62797 18.736 1.97681 18.736 1.97681L14.8433 1.07312L14.8793 10.0716L14.8806 10.0729Z" fill="#FFD9B3"/>
<path fill-rule="evenodd" clip-rule="evenodd" d="M19.2049 7.24373C19.2049 7.55292 18.9505 5.66326 18.9172 5.19881C18.8839 4.73568 18.4895 5.17625 18.3563 4.27123C18.2244 3.36621 17.7728 2.78896 16.6378 2.4028C15.5041 2.01664 14.9099 2.03257 14.8766 1.70745C14.8433 1.38233 14.7261 1.43674 14.6462 1.74593C14.5676 2.05513 13.4032 2.57399 13.3379 3.05436C13.2713 3.53341 12.841 5.80525 12.841 6.19274C12.841 6.58022 12.6905 4.66933 12.6905 3.64886C12.6905 2.62839 13.2021 1.05589 14.2665 0.547647C15.1924 0.105754 17.1387 0.134948 18.1405 0.791816C19.1436 1.44868 19.7005 2.71332 19.8644 4.15843C20.0296 5.60354 19.3754 6.91861 19.3754 6.91861C19.3754 6.91861 19.2063 6.93453 19.2063 7.24373H19.2049Z" fill="#1A171B"/>
<path fill-rule="evenodd" clip-rule="evenodd" d="M18.495 5.60296C18.6496 4.73244 19.2294 4.09813 19.6452 4.17112C20.0598 4.24411 20.0118 4.59045 19.9985 5.86704C19.9891 6.75082 19.5199 7.36257 18.9681 7.31215C18.1111 7.23385 18.3417 6.47348 18.4963 5.60296H18.495Z" fill="#FFD9B3"/>
<path fill-rule="evenodd" clip-rule="evenodd" d="M19.3808 4.81466C19.4155 4.8067 19.4488 4.80537 19.4808 4.81068C19.7261 4.85447 19.6607 5.04954 19.6887 5.81257C19.7021 6.15892 19.5688 6.43361 19.3902 6.57162L19.3675 6.54641C19.4648 6.44821 19.5354 6.28233 19.5275 6.0793C19.5088 5.57902 19.5514 5.4503 19.3902 5.42243C19.3502 5.4158 19.3062 5.42508 19.2622 5.4503L19.3808 4.81466Z" fill="#C99443"/>
<path fill-rule="evenodd" clip-rule="evenodd" d="M13.6483 47.2253C14.1386 48.198 14.5662 49.042 14.5662 49.042C15.2296 50.653 22.3529 68.058 22.253 72.4066C22.2316 73.3077 24.2366 71.1752 23.9808 70.659C23.725 70.1414 21.3844 55.831 20.9914 53.8816C20.597 51.9322 19.5753 49.8648 19.037 49.0115C18.716 48.5019 18.6174 47.8066 18.7426 47.159L13.6496 47.228L13.6483 47.2253Z" fill="#F4C18B"/>
<path fill-rule="evenodd" clip-rule="evenodd" d="M20.657 74.1742C20.6091 73.7867 21.3871 73.1418 22.1038 72.6137C22.1504 72.5792 22.1944 72.5593 22.233 72.5354C22.3249 72.4823 22.4102 72.4372 22.5727 72.3443L22.7286 72.254C23.0869 72.0444 23.452 70.586 23.5079 69.7898C23.5785 68.7866 22.971 65.8804 22.8152 65.3576C22.7312 65.0802 22.7725 64.9276 22.9098 64.8493C23.031 64.779 23.2268 64.7671 23.4773 64.775C24.0115 64.7936 24.6523 65.5075 24.6523 65.5075C25.2797 66.5877 24.9547 66.8438 25.4463 68.0196C25.9085 69.1303 26.4987 70.3617 26.8531 71.0836L26.5373 71.2654C26.0657 70.5289 25.3077 69.3466 25.2145 69.2099C25.0772 69.0069 25.0719 68.9339 24.9147 68.979H24.9107C24.7655 69.0626 25.3157 71.5985 25.4023 72.1187C25.4889 72.6455 25.1652 72.8592 25.1652 72.8592C25.1652 72.8592 23.8543 73.5545 22.8178 74.1503C22.2996 74.4489 22.3396 74.3852 21.812 74.4078C21.3764 74.4264 20.709 74.4237 20.657 74.1729V74.1742Z" fill="#E00000"/>
<path fill-rule="evenodd" clip-rule="evenodd" d="M14.1453 12.5625C14.1026 12.7682 14.056 12.9381 14.0054 13.0495C13.6777 13.7648 11.2864 17.3835 10.13 18.3682C9.70372 18.7304 9.70372 20.5763 10.599 21.6578C11.9818 23.3259 11.7873 23.9734 11.9205 24.4392C12.0537 24.9037 12.3241 28.0832 12.0857 29.1474C11.8819 30.0578 11.7287 30.5302 11.7287 30.5302L18.9132 31.5108C18.9132 31.5108 18.299 28.4866 18.4336 24.5653C18.5868 20.1225 18.724 17.3928 18.6614 15.6252C18.6308 14.7308 18.6481 13.1636 18.716 11.757L14.1453 12.5652V12.5625Z" fill="#E00000"/>
<path fill-rule="evenodd" clip-rule="evenodd" d="M10.1887 47.1126L10.0128 48.5192C9.65711 50.2868 5.77775 69.3546 3.29188 72.8446C2.77632 73.5678 5.57393 73.179 5.65386 72.5832C5.73379 71.9874 11.6807 61.0674 12.5213 56.8276C12.913 54.8557 13.6004 52.5812 13.639 51.5196C13.671 50.6119 14.7168 48.084 15.4362 46.6548L10.1887 47.1126Z" fill="#F4C18B"/>
<path fill-rule="evenodd" clip-rule="evenodd" d="M7.34839 75.2311L7.38704 74.7096L7.76958 74.756C7.7056 75.0745 7.66828 75.2696 7.66828 75.2696L7.34972 75.2311H7.34839Z" fill="#1A171B"/>
<path fill-rule="evenodd" clip-rule="evenodd" d="M0.786007 74.0771C0.98184 73.7388 2.17016 72.9465 3.06273 72.9545C3.12135 72.9545 3.16797 72.9651 3.21327 72.9704C3.31851 72.9837 3.4131 72.9983 3.5996 73.0222L3.77812 73.0434C4.1911 73.0899 5.36343 72.145 5.88965 71.5426C6.55175 70.7835 7.82399 68.099 8.0145 67.5881C8.11575 67.316 8.24097 67.2192 8.39817 67.2391C8.53672 67.2563 8.70191 67.3638 8.89641 67.5204C9.31072 67.8561 9.39199 68.8103 9.39199 68.8103C9.23879 70.0484 8.82581 70.0576 8.50741 71.2918C8.20633 72.4569 7.93457 73.7932 7.78003 74.5827L7.41768 74.539C7.48695 73.6684 7.59619 72.2698 7.60418 72.1039C7.61617 71.8597 7.65614 71.7987 7.50294 71.7403H7.49894C7.33241 71.7177 6.24001 74.0718 5.99356 74.5403C5.74577 75.0114 5.35677 74.9888 5.35677 74.9888C5.35677 74.9888 3.69819 74.7911 2.5112 74.6451C1.91704 74.5721 1.44011 74.5124 1.34686 74.4978C1.06577 74.4527 0.675435 74.3094 0.786007 74.0785V74.0771Z" fill="#E00000"/>
<path d="M11.7286 30.5275L10.8201 40.9021C10.5123 42.6245 9.70769 47.0978 9.62909 47.1854C9.62909 47.1854 9.91818 47.4283 10.0461 47.4787L18.3883 47.4044C18.6307 47.3579 19.2715 47.2133 19.2435 47.0381C19.2102 46.8271 18.9478 45.7921 19.1996 45.0861C19.45 44.3815 19.51 38.9195 19.907 38.1286C19.907 38.1286 21.2445 36.2867 19.9616 33.281C19.9616 33.281 19.2768 32.4066 18.9411 31.3184L11.726 30.5262L11.7286 30.5275Z" fill="#E00000"/>
<path d="M1.52435 39.9857L14.6665 41.1349L13.7379 51.735L0.594482 50.5845L1.52435 39.9857Z" fill="#0FA5A8"/>
<path d="M1.00314 40.4634L15.179 41.7028L14.1772 53.1376L0 51.8982L1.00314 40.4634Z" fill="#0FD1B2"/>
<path d="M10.122 42.5308C10.1407 42.3198 10.3286 42.1619 10.5419 42.1804C10.7552 42.199 10.9124 42.3861 10.8938 42.5984C10.8751 42.8108 10.6872 42.9687 10.4739 42.9488C10.2607 42.9302 10.1034 42.7431 10.122 42.5294V42.5308Z" fill="#00CFCF"/>
<path d="M10.2766 42.545C10.2885 42.4178 10.4003 42.3238 10.528 42.3344C10.6557 42.3463 10.7502 42.4576 10.7382 42.5847C10.7276 42.7119 10.6145 42.8059 10.4881 42.7953C10.3604 42.7834 10.2659 42.6721 10.2766 42.545Z" fill="#007981"/>
<path d="M7.06067 40.8509C8.26364 42.8401 9.28544 44.7935 9.58518 45.2738C10.2047 46.2651 12.1457 49.1421 12.0084 49.6211C11.8699 50.0869 9.77036 50.761 9.86494 51.4312C10.1101 51.8956 10.3712 52.3415 10.603 52.6852L0.119934 51.7722L1.12441 40.3347L7.06067 40.8522V40.8509Z" fill="#00C7A6"/>
<path d="M14.5769 50.0402C13.6897 49.2015 12.6999 48.392 11.6168 47.637C7.87864 45.0294 3.91137 43.6652 0.843321 43.6958L0.135925 51.7427L14.3171 52.9782L14.5769 50.0402Z" fill="#0FD173"/>
<path d="M5.06766 42.0902C5.08633 41.8779 5.27426 41.7213 5.48752 41.7399C5.70079 41.7585 5.85807 41.9456 5.83941 42.1579C5.82075 42.3702 5.63281 42.5268 5.41955 42.5082C5.20629 42.4897 5.049 42.3026 5.06766 42.0902Z" fill="#00CFCF"/>
<path d="M5.22223 42.1031C5.23287 41.9759 5.34596 41.8819 5.47368 41.8925C5.6014 41.9044 5.69585 42.0157 5.68521 42.1428C5.67457 42.27 5.56148 42.364 5.43376 42.3534C5.30604 42.3415 5.21159 42.2289 5.22356 42.1031H5.22223Z" fill="#007981"/>
<path d="M10.587 52.6637C10.3592 52.3226 10.1034 51.8847 9.86361 51.4309C9.76903 50.7594 11.8686 50.0853 12.0071 49.6209C12.0924 49.3263 11.3783 48.132 10.6882 47.0173C7.2232 44.8158 3.65825 43.6692 0.843321 43.6971L0.135925 51.7441L10.587 52.665V52.6637Z" fill="#0FC18A"/>
<path fill-rule="evenodd" clip-rule="evenodd" d="M5.82171 41.6434C6.63301 36.9445 7.68145 36.691 8.71923 36.8158C9.57583 36.9193 10.5017 38.3458 10.5523 42.0787C10.5603 42.6957 10.7855 42.5604 10.7841 42.3746C10.7015 38.2383 9.70372 36.7415 8.75653 36.6021C6.14143 36.2199 5.89631 40.6057 5.54328 41.8916C5.52729 41.9486 5.73911 42.1278 5.82304 41.6421L5.82171 41.6434Z" fill="#66E456"/>
<path fill-rule="evenodd" clip-rule="evenodd" d="M26.7826 71.6445L26.4827 71.2146L26.808 71.0115C26.9599 71.2995 27.0545 71.4747 27.0545 71.4747L26.7813 71.6445H26.7826Z" fill="#1A171B"/>
<path fill-rule="evenodd" clip-rule="evenodd" d="M18.339 27.4464C18.4136 28.2599 18.4535 28.8225 18.4482 28.9114C18.4269 29.291 17.1813 30.6073 15.3096 32.5235C14.5289 33.3237 13.7256 34.104 12.9982 34.8697L11.9964 34.0934L18.339 27.4477V27.4464Z" fill="#BC0000"/>
<path fill-rule="evenodd" clip-rule="evenodd" d="M11.5528 32.8497L11.702 32.6652C12.5066 31.719 15.7492 27.5921 15.8877 27.2669C16.0263 26.9418 15.3882 23.2541 15.1444 22.1633C14.9019 21.0738 14.008 17.2082 13.8708 16.562C13.7323 15.9157 14.9406 13.0733 17.3825 14.8382C19.5659 16.416 17.3665 18.3043 17.3665 18.3043C17.3665 18.3043 18.5175 27.0944 18.4962 27.4753C18.4749 27.8548 17.1906 29.4764 15.3189 31.3939C14.4423 32.291 13.5364 33.1668 12.7424 34.0201L10.8734 35.9084C10.6069 36.1937 10.162 36.3251 10.146 36.5878C10.13 36.8612 9.76364 36.9621 9.63842 37.047C9.51452 37.1332 9.36399 37.4318 9.2734 37.526C9.18281 37.6203 9.14417 37.8087 8.97898 37.7317C8.81379 37.6548 8.78715 37.3257 8.85509 37.2076C8.92436 37.0894 9.00563 36.8877 9.00563 36.8877C9.00563 36.8877 8.57266 37.1492 8.52337 37.2978C8.47408 37.4464 8.42479 37.6614 8.47674 37.7476C8.5287 37.8339 8.5327 37.9799 8.66458 38.3567C8.7978 38.7323 8.70988 38.7947 8.63128 38.8119C8.55135 38.8292 8.45943 38.711 8.42612 38.5863C8.39415 38.4616 8.31422 38.3222 8.30223 38.228C8.2889 38.1325 8.15835 37.7145 8.15835 37.7145L8.21563 38.3183C8.21563 38.3183 8.36351 38.7668 8.34352 38.8252C8.32354 38.8849 8.14636 39.1463 8.01447 38.6049C7.93721 38.2824 7.75869 37.8472 7.75869 37.8472C7.75869 37.8472 7.76402 38.6288 7.73071 38.7761C7.69608 38.9234 7.5935 38.9658 7.51756 38.9287C7.44163 38.8929 7.39367 38.7535 7.39767 38.6221C7.42697 37.7875 7.37369 37.3376 7.09259 38.4563C7.06195 38.5784 6.77953 38.8875 6.74622 38.6328C6.71292 38.378 6.94206 37.749 6.95937 37.538C6.97802 37.3283 7.19251 36.5149 7.28177 36.3569C7.37102 36.2004 7.95985 35.9177 8.16901 35.8182C8.37949 35.7186 8.59398 35.6191 8.80713 35.5541C8.8351 35.5461 9.40528 35.2316 9.54516 35.0591L11.5514 32.847L11.5528 32.8497Z" fill="#F4C18B"/>
<path fill-rule="evenodd" clip-rule="evenodd" d="M17.8358 11.9097L18.9861 11.7106C18.9181 13.1173 18.9808 14.7282 19.0127 15.6227C19.0754 17.3902 18.9381 20.1185 18.7848 24.5627C18.6502 28.4853 18.9154 31.5083 18.9154 31.5083C18.9154 31.5083 18.6955 32.4013 17.9531 31.414C16.4216 29.3784 17.4373 25.7106 17.5412 19.7815C17.5946 16.7665 17.6865 13.9851 17.8358 11.9084V11.9097Z" fill="#BC0000"/>
<path fill-rule="evenodd" clip-rule="evenodd" d="M11.6514 32.7342L11.7006 32.6652C12.5053 31.7191 15.7479 27.5921 15.8864 27.2669C16.025 26.9418 15.3868 23.2541 15.143 22.1633C14.9006 21.0738 14.008 18.169 13.8695 16.562C13.8122 15.9038 14.9499 12.918 17.3918 14.6829C19.5753 16.2621 17.7368 18.3986 17.7368 18.3986C17.7368 18.3986 18.6747 27.596 18.652 27.9769C18.6307 28.3564 17.3851 29.6728 15.5134 31.589C14.7327 32.3879 13.9294 33.1695 13.202 33.9338L11.65 32.7329L11.6514 32.7342Z" fill="#FF5600"/>
<path fill-rule="evenodd" clip-rule="evenodd" d="M5.81767 41.6898C6.58901 37.4407 7.63479 37.2191 8.67257 37.3412C9.5305 37.442 10.467 38.7412 10.547 42.1224C10.5603 42.6824 10.7841 42.5603 10.7801 42.3918C10.6629 38.6456 9.65306 37.2801 8.70587 37.1474C6.08944 36.7812 5.88029 40.7503 5.53924 41.9114C5.52326 41.9631 5.73641 42.1277 5.81634 41.6885L5.81767 41.6898Z" fill="#66E456"/>
<path d="M27.2234 18.4765L24.944 25.9351C24.7042 27.7675 24.2619 31.045 24.0594 31.7761C23.773 32.8045 23.6118 35.6189 23.4226 36.9192C23.2321 38.2183 23.2042 41.3591 23.2042 41.3591C23.2042 41.3591 24.1554 44.0646 26.2429 41.8447C26.2429 41.8447 26.528 45.5256 26.7185 45.9051L26.6972 46.4955L35.5989 46.1213L35.455 45.5256C35.455 45.5256 37.1656 44.3897 37.3561 44.5516L36.7366 35.5114C36.7366 35.5114 38.7336 27.0669 37.452 21.1144C37.452 21.1144 35.4177 17.3168 34.3253 16.5578C34.3253 16.5578 34.0056 14.9522 33.3422 14.789C33.3422 14.789 33.3715 13.3241 32.9172 13.1105L29.0965 12.4178L29.5401 14.5595L28.7421 15.4737L27.2221 18.4752L27.2234 18.4765Z" fill="#9C8659"/>
<path fill-rule="evenodd" clip-rule="evenodd" d="M33.919 14.935C34.681 15.9249 39.0759 26.4486 39.5662 27.7622C40.0564 29.0759 39.8326 28.7839 40.6599 28.9604C41.4859 29.1369 41.8562 31.3316 42.1573 31.9155C42.4584 32.4993 43.1311 33.1866 43.6667 34.3105C44.2022 35.4331 44.7244 35.6985 44.474 36.3938C44.2235 37.0891 44.8683 37.3319 44.9496 38.2581C45.0308 39.1829 45.0575 39.4908 43.8265 40.271C42.5969 41.0512 35.6655 45.239 35.5829 44.9975C35.499 44.756 36.7659 30.2953 36.7379 29.9875C36.7113 29.6796 36.0705 29.4872 37.2202 29.2006C38.3699 28.914 38.8535 28.7481 38.8535 28.7481C38.8535 28.7481 38.1261 26.0359 37.7691 25.5198C37.412 25.0023 34.5065 17.2412 34.5065 17.2412L33.9217 14.9377L33.919 14.935Z" fill="#CE6A3A"/>
<path d="M31.5451 54.4809C31.1321 54.5565 30.8963 56.3531 30.4806 57.4147C30.458 57.4717 30.1156 58.7296 30.045 58.8225C29.0046 60.2237 26.6253 68.976 26.6253 69.9407C26.6253 70.9704 26.6253 71.1309 26.5773 71.7811C26.5294 72.43 26.1976 72.4844 26.0085 72.8612C25.8193 73.2434 25.8646 73.4053 25.8193 74.2704C25.77 75.1395 25.3917 75.4633 25.3917 75.4633L19.3954 73.0324C19.5113 72.8227 19.5926 72.5083 19.8817 72.0518C20.4985 71.0792 21.3071 70.8616 21.3071 70.8616C21.3071 70.8616 21.3071 70.2671 21.8294 69.2361C22.3516 68.2104 22.305 68.156 22.4941 66.9644C22.6846 65.7729 23.0177 64.3106 23.5386 63.553C24.0621 62.7966 23.7291 61.9301 23.7291 60.8474C23.7291 59.7646 23.7291 58.1405 24.1567 56.8959C24.583 55.6499 26.1404 49.2728 26.1404 49.2728C26.5467 47.9206 26.6279 47.7083 26.6279 47.7083L26.7292 46.4066L30.0557 46.3469L31.5464 54.4822L31.5451 54.4809Z" fill="#1C86C1"/>
<path d="M28.8114 46.254L35.3485 45.6768L38.4485 57.5951C38.8761 58.029 43.2471 71.2384 43.5308 71.8315C43.7666 72.3238 43.5481 72.8148 43.4536 72.9727L37.5 72.0982C37.504 71.3923 38.1634 69.8836 38.1634 69.8836C36.265 67.612 32.5176 58.313 32.5176 58.313C32.5176 58.313 32.2751 58.1007 32.1046 57.075L28.8114 46.2553V46.254Z" fill="#1C9EC9"/>
<path d="M25.389 75.4847V76.9218C25.1519 77.5203 22.5408 76.9776 22.5408 76.9776L22.5741 76.5131C22.4249 76.3486 21.0207 76.5437 21.0207 76.5437C18.1712 76.76 15.1324 74.378 15.1324 74.378C14.7035 73.7821 15.3669 73.5659 16.0809 73.5114C16.7937 73.4597 17.4118 73.4597 18.5042 73.404C19.085 73.3748 19.2622 73.2686 19.3941 73.0311L25.389 75.486V75.4847Z" fill="#1A171B"/>
<path d="M43.4536 72.9728C43.4362 73.0059 43.4349 73.0245 43.4349 73.0245C43.6254 73.2408 43.7693 74.2679 43.7693 74.2679C43.7693 74.9726 40.5867 75.027 40.5867 75.027L40.5414 74.593C40.4921 74.3223 38.7363 75.299 38.7363 75.299C36.7393 76.7056 33.6539 75.5697 33.6539 75.5697C33.1304 75.1902 33.606 74.5413 34.3187 74.3237C35.0314 74.1074 35.3618 74.1618 36.0759 73.838C36.7886 73.5142 37.5013 72.8016 37.5013 72.0983L43.4549 72.9728H43.4536Z" fill="#1A171B"/>
<path fill-rule="evenodd" clip-rule="evenodd" d="M29.7892 19.4509L33.3209 13.4462L33.1131 13.0587L29.5374 15.6371L29.3549 14.9762L27.8189 18.3084L27.7963 19.5425L29.263 17.1897L29.7892 19.4509Z" fill="white"/>
<path d="M33.2769 13.5484C33.5087 14.0062 33.7032 14.464 33.7032 14.464C34.2348 15.4061 34.6038 16.4012 34.6038 16.4012C35.6975 17.1602 37.4547 21.1131 37.4547 21.1131C38.7363 27.0669 36.7393 35.5101 36.7393 35.5101L37.3588 44.5503C37.1683 44.3884 35.4577 45.5243 35.4577 45.5243L35.6016 46.12L35.6616 46.1107L26.6053 46.2142L27.0236 43.9917C26.8424 43.6321 25.6954 26.7909 25.6688 26.4473L33.2783 13.5471L33.2769 13.5484Z" fill="#C4A976"/>
<path fill-rule="evenodd" clip-rule="evenodd" d="M24.0288 6.07396C24.0288 6.07396 24.182 8.32854 24.158 8.82883C24.134 9.33043 23.8596 10.0178 23.8596 10.0178L24.0821 10.3018L24.7442 10.3098C24.7442 10.3098 25.0559 12.1623 25.0879 12.4662C25.1199 12.77 25.1372 12.9983 26.3628 12.8696C27.5884 12.7422 28.0454 12.6931 28.0454 12.6931C28.0454 12.6931 28.8607 13.7971 29.2457 14.8747L29.6294 15.9535L33.1224 13.1642C33.1224 13.1642 31.4771 11.1365 31.3759 10.9162C31.2759 10.6959 27.8682 5.4715 27.8682 5.4715L24.0288 6.07263V6.07396Z" fill="#FFBC79"/>
<path fill-rule="evenodd" clip-rule="evenodd" d="M26.5067 9.74118L27.1874 9.66952C27.1874 9.66952 27.0862 9.47843 27.258 8.82157C27.4299 8.1647 28.2479 8.23901 28.481 8.93303C28.7141 9.62706 29.4588 12.1205 29.4588 12.1205L31.8834 11.4676C31.8834 11.4676 31.6276 9.80886 32.2777 8.29607C32.9279 6.78196 33.2383 6.75011 33.2383 6.75011C33.2383 6.75011 32.4523 5.38727 32.1232 4.54329C31.7942 3.69932 31.8594 2.88586 30.6458 2.77439C29.4308 2.6616 25.8792 1.82691 24.523 3.49496C23.1682 5.16168 22.2383 6.14632 23.9276 6.20869C25.6181 6.27106 25.7047 6.25381 26.0058 7.58745C26.3069 8.92109 26.4734 9.74516 26.4734 9.74516L26.5067 9.74118Z" fill="#7D3500"/>
<path fill-rule="evenodd" clip-rule="evenodd" d="M28.6142 9.38859C28.9206 10.3639 29.4575 12.1196 29.4575 12.1196L31.8821 11.4667C31.8821 11.4667 31.6263 9.80793 32.2764 8.29514C32.331 8.16775 32.383 8.05097 32.4336 7.94348L28.6142 9.38859Z" fill="#632A00"/>
<path fill-rule="evenodd" clip-rule="evenodd" d="M30.8936 4.45915C30.875 3.95886 30.8776 3.57934 30.0504 3.5037C28.8367 3.39091 25.2838 2.55622 23.9289 4.22294C23.8716 4.29194 23.829 4.35962 23.7624 4.42863C25.1812 2.87868 28.6169 3.68816 29.8092 3.79962C30.446 3.85801 30.7191 4.1128 30.8936 4.45915Z" fill="#B04B00"/>
<path d="M19.7112 42.7232C19.9443 42.2017 20.5584 41.9681 21.082 42.2003L22.2836 42.7338C22.8085 42.9674 23.0443 43.5791 22.8099 44.1006L22.0119 45.8894C21.7787 46.4123 21.1646 46.6445 20.641 46.4123L19.4394 45.8775C18.9145 45.6439 18.68 45.0322 18.9118 44.5107L19.7112 42.7219V42.7232Z" fill="#FFBC79"/>
<path fill-rule="evenodd" clip-rule="evenodd" d="M20.7982 40.5311L20.2387 41.7187L23.9182 43.0749L24.3512 42.2787L20.7982 40.5311Z" fill="white"/>
<path fill-rule="evenodd" clip-rule="evenodd" d="M24.3512 42.2791L35.9013 21.6813C36.4448 20.2508 36.0758 18.0612 34.701 17.4521C33.3328 16.8457 31.4744 18.0281 30.7524 19.375L20.7969 40.5328L24.3512 42.2791Z" fill="#DBC583"/>
</svg>
