<svg width="289" height="297" viewBox="0 0 289 297" fill="none" xmlns="http://www.w3.org/2000/svg">
<g clip-path="url(#clip0_14_17298)">
<path d="M114.43 171.434C113.45 171.434 112.66 170.637 112.66 169.66C112.66 147.642 130.531 129.728 152.494 129.728C157.567 129.728 162.507 130.669 167.174 132.53C168.082 132.89 168.523 133.923 168.164 134.834C167.8 135.739 166.78 136.186 165.867 135.826C161.619 134.134 157.121 133.276 152.494 133.276C132.48 133.276 116.199 149.596 116.199 169.66C116.199 170.642 115.404 171.434 114.43 171.434Z" fill="#2C3A64"/>
<path d="M87.7009 6.83469C83.936 7.51343 82.192 9.55479 79.8017 15.3704C77.3089 21.4379 80.3301 27.0221 82.7306 26.2971C84.2694 25.8291 84.808 28.4721 84.808 28.4721L99.4624 15.6429C99.4624 15.6429 97.3235 6.21765 87.7009 6.83469Z" fill="#2C3A64"/>
<path d="M82.4998 85.332C82.4998 85.332 85.1978 90.9625 88.6088 98.7629C92.4352 107.509 97.1542 118.991 99.9651 128.324C101.453 133.26 102.407 137.595 102.407 140.608C102.407 141.642 98.4314 145.843 97.2824 147.447C90.0347 157.561 80.13 171.069 80.13 171.069L77.4269 170.391C77.4269 170.391 81.2123 153.494 86.7263 145.061C87.8137 143.405 90.8657 141.385 90.722 141.2C90.722 141.2 90.722 141.2 90.7169 141.194C90.2399 140.598 89.0499 139.097 87.4342 136.957C82.9614 131.06 75.2007 120.308 69.9996 110.312C69.6765 109.69 69.3585 109.067 69.061 108.45C66.3219 102.871 64.5113 97.6419 64.6857 93.7649L82.4946 85.3372L82.4998 85.332Z" fill="#E8945B"/>
<path d="M75.0366 171.038L76.8985 172.216C77.5859 172.514 78.1604 172.622 78.8477 172.946C79.8992 173.434 80.0941 174.118 80.1249 174.262C80.1249 174.283 80.13 174.293 80.13 174.293L88.0343 179.307C88.4139 179.147 88.6395 178.366 88.7575 177.764C88.8396 177.353 88.7216 176.931 88.4446 176.617C87.7624 175.841 86.2442 174.576 85.5979 172.247C85.2337 170.935 83.2794 166.806 83.2794 166.806L83.264 166.791C83.1922 166.745 82.7819 166.637 80.5096 166.95C79.335 167.11 79.017 164.719 79.017 164.719C79.017 164.719 78.6425 164.765 78.2219 165.027C77.8834 165.233 77.5192 165.577 77.2832 166.138C76.9498 166.925 75.7342 168.01 74.8622 168.714C74.3339 169.141 73.9338 169.429 73.9338 169.429C73.9338 169.429 73.5645 169.82 75.0366 171.038Z" fill="#B84C42"/>
<path d="M78.2168 165.032C78.463 165.629 79.0118 166.842 79.5812 167.315C80.3506 167.958 83.2743 166.806 83.2743 166.806L83.2589 166.791C83.1871 166.745 82.7768 166.637 80.5045 166.95C79.3299 167.11 79.0118 164.719 79.0118 164.719C79.0118 164.719 78.6374 164.765 78.2168 165.027V165.032Z" fill="#AA3E39"/>
<path d="M75.0366 171.038L76.8985 172.216C77.5859 172.514 78.1604 172.622 78.8477 172.946C79.8992 173.434 80.0941 174.118 80.1249 174.262C80.1249 174.283 80.13 174.293 80.13 174.293L88.0343 179.306C88.4139 179.147 88.6395 178.365 88.7575 177.764C88.6549 177.399 87.865 178.499 87.6137 178.597C87.3675 178.694 81.1251 174.576 80.9302 174.077C80.7353 173.578 79.9351 172.421 78.1757 171.82C76.6472 171.295 75.2059 169.238 74.8622 168.714C74.3339 169.141 73.9338 169.429 73.9338 169.429C73.9338 169.429 73.5645 169.819 75.0366 171.038Z" fill="#AA3E39"/>
<path d="M67.1305 108.33L63.5493 109.478L84.7727 176.023L88.3539 174.875L67.1305 108.33Z" fill="#F99746"/>
<path d="M82.9923 176.211L32.8994 171.846L125.802 108.877L120.488 119.783L43.7889 169.012L83.3206 172.457L82.9923 176.211Z" fill="#F99746"/>
<path d="M89.7424 173.265L86.5879 171.223L125.135 109.324L129.623 113.978L89.7424 173.265Z" fill="#F99746"/>
<path d="M95.0102 164.436L102.063 168.519C102.894 168.997 103.176 170.072 102.699 170.9C102.222 171.733 101.15 172.016 100.324 171.538L93.2714 167.455C92.4405 166.977 92.1583 165.902 92.6354 165.074C93.1124 164.241 94.1844 163.958 95.0102 164.436Z" fill="#415DA5"/>
<path d="M96.4053 167.069L87.5162 176.932L86.6956 176.217L95.5847 166.354L96.4053 167.069Z" fill="#415DA5"/>
<path d="M67.7737 133.281C67.2454 133.466 66.6606 133.409 66.1785 133.116C49.2825 122.883 25.9031 126.73 19.1427 128.149H19.1324C18.758 128.231 18.4092 127.943 18.4092 127.563V126.241C18.4092 125.228 19.1478 124.37 20.148 124.22C23.8052 123.675 32.3506 122.503 37.126 122.482C37.2543 122.482 37.3825 122.482 37.5107 122.482C48.2054 122.482 57.4432 124.4 65.0346 128.195C66.5837 128.972 68.3789 129.08 70.0152 128.504L72.0977 127.768C73.2877 127.347 74.5905 127.974 75.006 129.167C75.2779 129.938 74.8727 130.782 74.1033 131.054L67.7685 133.286L67.7737 133.281Z" fill="#35488B"/>
<path d="M52.0676 107.494C52.0676 107.494 51.3905 104.409 53.3192 104.198C55.2478 103.987 62.2954 105.504 64.1728 105.298C66.0501 105.087 75.8625 103.468 77.5859 105.139C79.3094 106.815 78.5759 108.281 75.1341 108.589C71.6872 108.903 67.0965 109.479 65.7936 110.579C64.4908 111.679 55.0426 114.919 52.0676 107.494Z" fill="#415DA5"/>
<path d="M77.1704 175.45C77.1704 170.252 81.3764 166.035 86.5622 166.035C91.7479 166.035 95.9591 170.252 95.9591 175.45C95.9591 180.649 91.753 184.865 86.5622 184.865C81.3713 184.865 77.1704 180.649 77.1704 175.45Z" fill="#415DA5"/>
<path d="M25.7948 140.78L25.0078 141.063L35.4458 170.223L36.2327 169.94L25.7948 140.78Z" fill="#415DA5"/>
<path d="M6.63736 183.647L6.30396 182.88L35.8385 170.159L55.2581 142.356L55.9403 142.835L36.3874 170.838L36.2797 170.884L6.63736 183.647Z" fill="#415DA5"/>
<path d="M24.4051 202.652L23.6152 202.389C23.8255 201.762 35.2434 171.635 35.7307 170.355L36.0282 169.573L54.427 198.744L53.7192 199.191L36.2128 171.44C32.0324 182.474 24.5693 202.179 24.4103 202.657L24.4051 202.652Z" fill="#415DA5"/>
<path d="M3.41175 162.344L3.27002 163.17L36.0471 168.822L36.1888 167.996L3.41175 162.344Z" fill="#415DA5"/>
<path d="M47.412 139.193L37.802 168.069L38.5951 168.335L48.2051 139.459L47.412 139.193Z" fill="#415DA5"/>
<path d="M36.0488 170.936L35.9257 170.874L5.86279 155.597L6.24236 154.852L36.1822 170.062L68.4045 164.647L68.5379 165.47L36.0488 170.936Z" fill="#415DA5"/>
<path d="M48.2463 201.603C48.0668 201.078 40.3523 182.048 36.0334 171.409L19.3477 197.72L18.645 197.273L36.1975 169.594L36.5002 170.344C37.0028 171.584 48.8259 200.708 49.0362 201.34L48.2463 201.608V201.603Z" fill="#415DA5"/>
<path d="M36.0423 170.087L3.68774 174.905L3.8106 175.734L36.1652 170.916L36.0423 170.087Z" fill="#415DA5"/>
<path d="M16.8079 144.906L16.1768 145.456L34.1293 166.174L34.7604 165.624L16.8079 144.906Z" fill="#415DA5"/>
<path d="M36.7461 172.782L34.2312 203.123L35.0644 203.192L37.5793 172.851L36.7461 172.782Z" fill="#415DA5"/>
<path d="M34.8888 168.485L34.4124 169.174L63.0111 189.055L63.4875 188.366L34.8888 168.485Z" fill="#415DA5"/>
<path d="M12.4026 192.974L11.8127 192.388L35.6948 168.236V136.809H36.5309V168.581L12.4026 192.974Z" fill="#415DA5"/>
<path d="M29.9551 170.499C29.9551 167.09 32.7095 164.323 36.1154 164.323C39.5212 164.323 42.2706 167.09 42.2706 170.499C42.2706 173.908 39.5161 176.674 36.1154 176.674C32.7146 176.674 29.9551 173.908 29.9551 170.499Z" fill="#2C3A64"/>
<path d="M36.1155 206.703C16.2035 206.703 0 190.46 0 170.499C0 150.537 16.1984 134.294 36.1155 134.294C56.0326 134.294 72.231 150.532 72.231 170.499C72.231 176.895 70.5434 183.189 67.3479 188.691C64.2241 194.069 59.7411 198.584 54.3861 201.736C48.867 204.986 42.5476 206.703 36.1155 206.703ZM36.1155 139.318C18.9631 139.318 5.01134 153.304 5.01134 170.499C5.01134 187.693 18.9631 201.68 36.1155 201.68C41.6603 201.68 47.0973 200.199 51.8471 197.401C56.4635 194.681 60.3207 190.799 63.0136 186.161C65.7629 181.425 67.2196 176.011 67.2196 170.499C67.2196 153.304 53.2679 139.318 36.1155 139.318Z" fill="#2C3A64"/>
<path d="M36.3926 202.605C18.8503 202.605 4.58057 188.3 4.58057 170.715C4.58057 153.129 18.8503 138.824 36.3926 138.824C53.9348 138.824 68.2046 153.129 68.2046 170.715C68.2046 188.3 53.9348 202.605 36.3926 202.605ZM36.3926 140.115C19.5582 140.115 5.86802 153.844 5.86802 170.715C5.86802 187.586 19.5633 201.315 36.3926 201.315C53.2218 201.315 66.9171 187.586 66.9171 170.715C66.9171 153.844 53.2218 140.115 36.3926 140.115Z" fill="#B84C42"/>
<path d="M143.563 140.786L142.776 141.069L153.214 170.229L154.001 169.946L143.563 140.786Z" fill="#415DA5"/>
<path d="M124.406 183.647L124.078 182.88L153.613 170.159L173.027 142.356L173.714 142.835L154.162 170.838L154.049 170.884L124.406 183.647Z" fill="#415DA5"/>
<path d="M142.174 202.652L141.384 202.389C141.595 201.762 153.012 171.635 153.5 170.355L153.797 169.573L172.196 198.744L171.488 199.191L153.982 171.44C149.801 182.474 142.333 202.179 142.174 202.657V202.652Z" fill="#415DA5"/>
<path d="M121.187 162.346L121.045 163.172L153.817 168.823L153.959 167.997L121.187 162.346Z" fill="#415DA5"/>
<path d="M165.187 139.201L155.582 168.078L156.375 168.343L165.98 139.466L165.187 139.201Z" fill="#415DA5"/>
<path d="M153.818 170.936L153.7 170.874L123.637 155.597L124.017 154.852L153.951 170.062L186.174 164.647L186.312 165.47L153.818 170.936Z" fill="#415DA5"/>
<path d="M166.015 201.603C165.836 201.078 158.121 182.048 153.802 171.409L137.117 197.72L136.414 197.273L153.967 169.594L154.269 170.344C154.772 171.584 166.595 200.708 166.805 201.34L166.015 201.608V201.603Z" fill="#415DA5"/>
<path d="M153.835 170.071L121.481 174.896L121.604 175.725L153.958 170.9L153.835 170.071Z" fill="#415DA5"/>
<path d="M134.579 144.901L133.948 145.45L151.9 166.168L152.531 165.618L134.579 144.901Z" fill="#415DA5"/>
<path d="M154.527 172.781L152.012 203.122L152.846 203.191L155.361 172.85L154.527 172.781Z" fill="#415DA5"/>
<path d="M152.665 168.484L152.188 169.173L180.787 189.054L181.264 188.365L152.665 168.484Z" fill="#415DA5"/>
<path d="M130.177 192.974L129.582 192.388L153.469 168.236V136.809H154.305V168.581L130.177 192.974Z" fill="#415DA5"/>
<path d="M147.729 170.499C147.729 167.09 150.484 164.323 153.884 164.323C157.285 164.323 160.045 167.09 160.045 170.499C160.045 173.908 157.285 176.674 153.884 176.674C150.484 176.674 147.729 173.908 147.729 170.499Z" fill="#2C3A64"/>
<path d="M153.885 206.703C133.973 206.703 117.769 190.46 117.769 170.499C117.769 150.537 133.967 134.294 153.885 134.294C173.802 134.294 190 150.532 190 170.499C190 176.895 188.312 183.189 185.117 188.691C181.993 194.069 177.51 198.584 172.155 201.736C166.636 204.986 160.317 206.703 153.885 206.703ZM153.885 139.318C136.732 139.318 122.78 153.304 122.78 170.499C122.78 187.693 136.732 201.68 153.885 201.68C159.429 201.68 164.866 200.199 169.616 197.401C174.233 194.681 178.095 190.799 180.783 186.161C183.532 181.425 184.984 176.011 184.984 170.499C184.984 153.304 171.032 139.318 153.879 139.318H153.885Z" fill="#2C3A64"/>
<path d="M154.162 202.605C136.619 202.605 122.35 188.3 122.35 170.715C122.35 153.129 136.619 138.824 154.162 138.824C171.704 138.824 185.974 153.129 185.974 170.715C185.974 188.3 171.704 202.605 154.162 202.605ZM154.162 140.115C137.332 140.115 123.637 153.844 123.637 170.715C123.637 187.586 137.332 201.315 154.162 201.315C170.991 201.315 184.686 187.586 184.686 170.715C184.686 153.844 170.991 140.115 154.162 140.115Z" fill="#B84C42"/>
<path d="M96.2823 41.8258C96.2823 41.8258 91.1787 44.7053 91.7788 51.9967C92.3789 59.288 99.0573 70.7854 104.13 73.6392C108.152 75.8966 119.78 79.424 119.78 79.424L120.2 76.2565C120.2 76.2565 110.737 70.0656 108.69 67.9471C104.299 63.4118 100.119 40.0519 96.2823 41.8156V41.8258Z" fill="#E8945B"/>
<path d="M95.7746 58.2285C95.5438 59.8739 95.113 61.2879 94.5795 62.6351C94.1333 63.7612 93.6203 64.8359 93.092 65.9568C91.543 69.2477 87.8909 70.8674 87.7678 77.1869C87.7267 79.362 85.9161 84.2674 86.942 87.8205C91.9892 105.334 58.9462 89.4094 60.7363 84.7559C64.2909 75.5106 69.3741 70.163 69.2663 62.5477C69.2663 62.5272 69.2663 62.5117 69.2612 62.4912C69.2304 62.1209 69.1791 61.1337 69.1227 59.8276C68.9842 56.6293 68.8047 51.5336 68.738 48.9523C68.738 48.8906 68.738 48.8341 68.738 48.7775C68.7124 47.672 68.6765 46.8698 68.6354 46.6642C71.0924 36.1848 76.7449 36.1385 78.6735 36.1745C79.3865 36.1848 80.1405 36.2311 80.756 36.2877C81.9665 35.5935 84.0644 32.3746 85.1518 27.0732L85.5929 27.2635L92.9997 30.4207C92.9997 30.4207 92.3123 32.822 91.8302 35.1204C91.4506 36.915 91.1942 38.6427 91.4814 39.1157C92.0661 39.3266 92.4149 39.4603 92.4149 39.4603C92.4149 39.4603 92.4149 39.4603 92.4149 39.4654C92.5483 39.7585 96.9646 49.9087 95.7849 58.2439L95.7746 58.2285Z" fill="#FFB27D"/>
<path d="M94.5742 62.6298C94.128 63.7559 93.615 64.8305 93.0867 65.9515C91.5377 69.2424 87.8856 70.8621 87.7625 77.1816C87.6496 77.1919 87.5368 77.2021 87.4239 77.2124C73.8723 78.2717 69.2559 62.4858 69.2559 62.4858C69.2251 62.1156 69.1739 61.1283 69.1174 59.8223L93.5689 59.8634C93.5689 59.8634 94.0715 60.9741 94.5793 62.6349L94.5742 62.6298Z" fill="#E8945B"/>
<path d="M98.0159 55.1481C97.9492 55.3486 97.8723 55.5543 97.7851 55.7549C95.4359 61.3699 93.2816 66.0594 93.2816 66.0594C93.22 66.0234 93.1533 65.9874 93.0866 65.9514C91.5068 65.0772 89.6295 64.4191 87.6239 63.9203C85.9364 63.4987 84.1616 63.1901 82.3972 62.9742C76.9293 62.2954 71.564 62.4343 69.2559 62.5474C69.2559 62.5268 69.2559 62.5114 69.2507 62.4908C69.1379 61.2208 68.8199 52.5874 68.7275 48.952C68.7275 48.8903 68.7275 48.8338 68.7275 48.7772C69.2661 48.3453 69.7944 47.9442 70.2766 47.5585C71.8308 46.3296 72.99 45.2858 73.0156 44.0003C73.0259 43.4964 72.99 42.977 72.9182 42.4628C72.8823 42.2212 72.8464 41.9744 72.8002 41.7327C72.3078 39.1771 71.1537 36.8941 71.1537 36.8941C73.8158 35.6909 78.6579 36.1639 78.6579 36.1639C78.6579 36.1639 78.6579 36.4313 78.6733 36.8684C78.7246 38.6321 78.9092 43.157 79.5042 43.9952C80.248 45.0338 93.3175 49.2245 93.9484 47.7488C94.5639 46.2988 92.4814 39.7016 92.3993 39.4496C92.3993 39.4445 92.3993 39.4445 92.3993 39.4445C96.7797 40.982 98.3801 42.3497 98.3801 42.3497C95.8411 44.1391 99.8266 49.7233 98.0108 55.1532L98.0159 55.1481Z" fill="white"/>
<path d="M92.9944 30.4003C92.9944 30.4003 92.3122 32.8016 91.8249 35.1001C87.5265 34.0717 86.0647 29.6342 85.5876 27.2432L92.9944 30.4003Z" fill="#E8945B"/>
<path d="M93.9843 32.8839C93.9843 32.8839 83.7154 30.9043 85.0439 24.5128C86.3724 18.1213 85.9415 13.5604 92.5532 14.5528C99.1649 15.5452 99.9292 18.2499 100.006 20.4918C100.078 22.7337 96.6926 33.2336 93.9894 32.8839H93.9843Z" fill="#FFB27D"/>
<path d="M100.442 16.8721C99.2625 14.6199 97.9802 14.7896 97.1902 15.2266C92.2405 10.9691 87.6856 14.769 87.6856 14.769C86.0442 19.2117 82.1973 21.1451 82.1973 21.1451C82.1973 21.1451 83.8233 22.6928 88.3524 22.4871C89.7374 22.4254 91.1069 21.7364 92.3379 20.8108C89.9887 23.3715 87.1778 24.981 87.1778 24.981C92.8098 23.6801 96.3696 16.9492 96.7337 16.2396C97.2415 16.9338 98.2161 18.4147 98.3443 19.6899C98.5136 21.4227 98.0468 24.8216 99.0419 24.9141C99.0419 24.9141 102.217 20.2606 100.447 16.8824L100.442 16.8721Z" fill="#2C3A64"/>
<path d="M106.397 79.5366L105.659 82.6937C105.659 82.6937 88.4293 80.3336 82.7974 77.0479C77.1654 73.7621 68.6353 54.4437 67.9634 46.2783C67.9275 45.8464 67.9018 45.4299 67.8967 45.0391C67.6915 37.9894 71.1538 36.889 71.1538 36.889C72.5387 36.2514 74.2622 38.6373 76.0882 42.3601C79.9147 50.1708 84.1977 63.8844 86.7418 67.9414C88.6961 71.0575 106.397 79.5366 106.397 79.5366Z" fill="#FFB27D"/>
<path d="M76.0934 42.3601C71.3693 41.2443 67.8967 45.0391 67.8967 45.0391C67.6915 37.9894 71.1538 36.889 71.1538 36.889C72.5387 36.2514 74.2622 38.6373 76.0882 42.3601H76.0934Z" fill="white"/>
<path d="M98.3854 42.3447C98.3854 42.3447 100.37 46.52 100.776 47.6101C100.776 47.6101 98.2213 47.6255 97.0313 50.1245C97.0313 50.1245 96.8774 43.0183 98.3854 42.3447Z" fill="white"/>
<path d="M60.3976 85.4397C60.3976 85.4397 52.7601 97.5799 62.198 104.254C71.636 110.928 103.417 114.122 101.858 115.417C97.0927 119.377 92.7636 125.47 92.9893 161.947L95.3436 163.166C95.3436 163.166 118.005 113.741 116.487 107.854C115.481 103.956 82.428 82.8533 60.3976 85.4397Z" fill="#FFB27D"/>
<path d="M78.7196 110.703C78.7196 110.703 59.4642 107.504 57.474 100.691C55.9916 95.6007 55.5505 93.5234 64.2755 77.0742C64.2755 77.0742 67.9224 84.021 86.9573 82.4116C86.9573 82.4116 86.8598 83.3114 86.8598 84.5301C86.8855 86.5509 87.1984 89.4304 88.7782 90.2582C88.8038 90.2839 88.85 90.2839 88.8756 90.3097C91.3787 91.4563 95.2565 93.7651 95.8412 93.9862C95.8669 93.9862 84.1618 96.2332 78.7145 110.708L78.7196 110.703Z" fill="#35488B"/>
<path d="M88.7833 90.2584C80.2994 87.7491 70.5024 87.163 70.5024 87.091C77.6989 85.2399 82.9718 84.5303 86.8598 84.5303C86.8855 86.5511 87.1984 89.4306 88.7782 90.2584H88.7833Z" fill="#2C3A64"/>
<path d="M89.7989 163.722L91.784 164.678C92.497 164.894 93.0817 164.935 93.8049 165.177C94.9026 165.537 95.1796 166.195 95.2257 166.339C95.2309 166.359 95.236 166.37 95.236 166.37L103.663 170.427C104.023 170.226 104.156 169.424 104.202 168.812C104.238 168.396 104.074 167.989 103.761 167.707C102.992 167.018 101.34 165.938 100.427 163.696C99.9139 162.436 97.4929 158.559 97.4929 158.559L97.4775 158.544C97.4006 158.508 96.9851 158.446 94.7641 159.022C93.6151 159.32 93.0201 156.98 93.0201 156.98C93.0201 156.98 92.656 157.073 92.2661 157.382C91.9584 157.623 91.6301 158.009 91.466 158.59C91.2249 159.413 90.1426 160.631 89.3629 161.433C88.891 161.917 88.5269 162.251 88.5269 162.251C88.5269 162.251 88.2037 162.683 89.8092 163.716L89.7989 163.722Z" fill="#B84C42"/>
<path d="M92.261 157.381C92.5739 157.941 93.2561 159.083 93.8819 159.489C94.7231 160.039 97.4929 158.553 97.4929 158.553L97.4775 158.538C97.4006 158.502 96.9851 158.44 94.7641 159.016C93.6151 159.314 93.0201 156.975 93.0201 156.975C93.0201 156.975 92.6559 157.067 92.2661 157.376L92.261 157.381Z" fill="#AA3E39"/>
<path d="M89.7989 163.721L91.784 164.678C92.497 164.894 93.0817 164.935 93.8049 165.176C94.9026 165.536 95.1796 166.195 95.2257 166.339C95.2309 166.359 95.236 166.369 95.236 166.369L103.663 170.426C104.023 170.226 104.156 169.424 104.202 168.812C104.053 168.462 103.397 169.645 103.166 169.773C102.93 169.902 96.2567 166.534 96.0054 166.061C95.7541 165.588 94.8257 164.534 93.0099 164.138C91.4301 163.793 89.763 161.922 89.3578 161.443C88.8859 161.927 88.5217 162.261 88.5217 162.261C88.5217 162.261 88.1986 162.693 89.8041 163.726L89.7989 163.721Z" fill="#AA3E39"/>
<path d="M137.702 123.604C137.163 122.251 135.906 121.408 134.547 121.321C118.954 85.4143 118.79 85.1315 118.554 84.751L116.302 89.2296C116.184 89.0342 151.561 168.776 151.561 168.776L155.039 167.352L137.702 123.609V123.604Z" fill="#35488B"/>
<path d="M100.524 90.0935C99.7857 87.5945 101.201 84.9721 103.694 84.2265C106.187 83.4861 108.803 84.9052 109.542 87.4042C110.28 89.9032 108.865 92.5256 106.372 93.2712C103.879 94.0117 101.263 92.5925 100.519 90.0935H100.524Z" fill="#415DA5"/>
<path d="M129.654 81.8406C128.915 79.3416 130.331 76.7192 132.824 75.9736C135.317 75.2331 137.932 76.6523 138.676 79.1513C139.415 81.6503 137.999 84.2727 135.506 85.0183C133.013 85.7587 130.397 84.3396 129.659 81.8406H129.654Z" fill="#415DA5"/>
<path d="M133.172 85.0079L105.782 91.9033L105.305 86.3551L132.7 79.4648L133.172 85.0079Z" fill="#415DA5"/>
<path d="M106.397 79.5366C106.397 79.5366 108.977 81.2284 110.798 81.1512C112.619 81.0741 114.938 81.8351 114.938 81.8351C114.938 81.8351 117.369 82.5601 117.595 85.4499C117.595 85.4499 117.584 86.2881 113.758 85.1054C112.922 84.8483 110.911 85.3317 110.224 85.1054C109.536 84.8792 107.464 82.627 105.654 82.6835L106.392 79.5264L106.397 79.5366Z" fill="#FFB27D"/>
<path d="M120.195 76.262C120.195 76.262 122.775 77.9537 124.596 77.8817C126.417 77.8046 128.735 78.5656 128.735 78.5656C128.735 78.5656 131.167 79.2906 131.392 82.1804C131.392 82.1804 131.341 83.3682 127.556 81.8359C126.52 81.4142 124.709 82.0621 124.022 81.8359C123.339 81.6096 120.831 79.6814 119.097 79.2032L120.19 76.2568L120.195 76.262Z" fill="#E8945B"/>
<path d="M88.4089 9.12274C88.4089 9.12274 82.7308 2.07309 75.5754 4.05275C68.42 6.03241 64.3422 14.3213 61.0133 12.9587C55.4274 10.6653 53.8784 18.1829 56.1096 23.6488C58.0588 28.4257 66.476 30.2408 71.5694 25.0114C75.283 21.2012 80.3867 4.9166 86.6803 10.3568C92.974 15.8022 88.4089 9.1176 88.4089 9.1176V9.12274Z" fill="#2C3A64"/>
</g>
<path fill-rule="evenodd" clip-rule="evenodd" d="M192.463 284.574C192.273 283.037 195.36 280.477 198.205 278.382C198.39 278.245 198.564 278.166 198.717 278.071C199.082 277.86 199.421 277.681 200.066 277.313L200.684 276.955C202.106 276.122 203.555 270.335 203.777 267.176C204.057 263.195 201.646 251.663 201.028 249.588C200.695 248.487 200.859 247.882 201.403 247.571C201.884 247.292 202.661 247.244 203.655 247.276C205.775 247.35 208.318 250.183 208.318 250.183C210.809 254.469 209.518 255.486 211.469 260.151C213.304 264.559 215.646 269.445 217.052 272.31L215.799 273.031C213.928 270.109 210.92 265.417 210.549 264.875C210.005 264.069 209.984 263.779 209.36 263.958H209.344C208.768 264.29 210.951 274.353 211.295 276.417C211.639 278.508 210.354 279.356 210.354 279.356C210.354 279.356 205.152 282.115 201.038 284.479C198.982 285.664 199.14 285.412 197.047 285.501C195.318 285.575 192.669 285.564 192.463 284.569V284.574Z" fill="#E00000"/>
<path fill-rule="evenodd" clip-rule="evenodd" d="M216.773 274.537L215.583 272.831L216.873 272.025C217.476 273.168 217.852 273.863 217.852 273.863L216.767 274.537H216.773Z" fill="#1A171B"/>
<path d="M218.522 63.5391L209.476 93.1385C208.525 100.411 206.769 113.417 205.966 116.319C204.829 120.4 204.189 131.569 203.439 136.729C202.683 141.885 202.572 154.349 202.572 154.349C202.572 154.349 206.346 165.086 214.631 156.276C214.631 156.276 215.762 170.884 216.518 172.39L216.434 174.733L251.761 173.248L251.19 170.884C251.19 170.884 257.978 166.376 258.734 167.019L256.276 131.142C256.276 131.142 264.201 97.6303 259.115 74.0076C259.115 74.0076 251.042 58.9367 246.707 55.9246C246.707 55.9246 245.438 49.5529 242.805 48.9052C242.805 48.9052 242.921 43.0917 241.118 42.2439L225.955 39.4951L227.716 47.9942L224.549 51.6224L218.517 63.5338L218.522 63.5391Z" fill="#9C8659"/>
<path fill-rule="evenodd" clip-rule="evenodd" d="M245.094 49.4844C248.118 53.4127 265.56 95.1763 267.505 100.389C269.451 105.603 268.563 104.444 271.846 105.145C275.124 105.845 276.593 114.555 277.788 116.872C278.983 119.189 281.653 121.916 283.778 126.377C285.904 130.831 287.976 131.885 286.982 134.644C285.988 137.403 288.547 138.367 288.869 142.043C289.192 145.713 289.298 146.934 284.413 150.031C279.533 153.127 252.025 169.746 251.697 168.788C251.364 167.829 256.392 110.442 256.281 109.22C256.175 107.999 253.632 107.235 258.195 106.098C262.758 104.96 264.677 104.302 264.677 104.302C264.677 104.302 261.79 93.5386 260.373 91.4902C258.956 89.4365 247.426 58.6365 247.426 58.6365L245.105 49.4949L245.094 49.4844Z" fill="#CE6A3A"/>
<path d="M235.673 206.423C234.034 206.723 233.098 213.853 231.449 218.066C231.359 218.293 230 223.285 229.72 223.653C225.591 229.214 216.148 263.948 216.148 267.776C216.148 271.862 216.148 272.499 215.958 275.08C215.768 277.655 214.451 277.871 213.7 279.366C212.95 280.883 213.129 281.525 212.95 284.958C212.754 288.408 211.253 289.692 211.253 289.692L187.456 280.045C187.916 279.213 188.239 277.965 189.386 276.154C191.834 272.294 195.043 271.43 195.043 271.43C195.043 271.43 195.043 269.071 197.115 264.98C199.188 260.909 199.003 260.693 199.754 255.965C200.51 251.236 201.831 245.433 203.899 242.426C205.976 239.424 204.655 235.986 204.655 231.689C204.655 227.392 204.655 220.947 206.352 216.007C208.043 211.063 214.224 185.755 214.224 185.755C215.836 180.389 216.159 179.546 216.159 179.546L216.561 174.381L229.762 174.144L235.678 206.429L235.673 206.423Z" fill="#1C86C1"/>
<path d="M224.824 173.775L250.767 171.484L263.07 218.782C264.767 220.504 282.113 272.926 283.239 275.28C284.175 277.233 283.308 279.182 282.932 279.809L259.305 276.338C259.321 273.537 261.938 267.55 261.938 267.55C254.404 258.534 239.532 221.631 239.532 221.631C239.532 221.631 238.57 220.789 237.893 216.718L224.824 173.78V173.775Z" fill="#1C9EC9"/>
<path d="M211.242 289.777V295.481C210.301 297.856 199.939 295.702 199.939 295.702L200.071 293.859C199.479 293.206 193.906 293.98 193.906 293.98C182.598 294.838 170.538 285.385 170.538 285.385C168.836 283.021 171.469 282.162 174.302 281.946C177.131 281.741 179.584 281.741 183.919 281.52C186.224 281.404 186.928 280.983 187.451 280.04L211.242 289.783V289.777Z" fill="#1A171B"/>
<path d="M282.933 279.808C282.864 279.94 282.859 280.014 282.859 280.014C283.615 280.872 284.186 284.948 284.186 284.948C284.186 287.745 271.555 287.961 271.555 287.961L271.375 286.238C271.18 285.164 264.212 289.04 264.212 289.04C256.287 294.622 244.042 290.114 244.042 290.114C241.964 288.608 243.852 286.033 246.68 285.169C249.509 284.311 250.82 284.527 253.654 283.242C256.482 281.957 259.311 279.129 259.311 276.338L282.938 279.808H282.933Z" fill="#1A171B"/>
<path fill-rule="evenodd" clip-rule="evenodd" d="M228.705 67.4066L242.72 43.5768L241.895 42.0391L227.705 52.2714L226.981 49.6488L220.885 62.8724L220.795 67.77L226.616 58.4329L228.705 67.4066Z" fill="white"/>
<path d="M242.546 43.9818C243.466 45.7985 244.238 47.6153 244.238 47.6153C246.347 51.354 247.812 55.3034 247.812 55.3034C252.152 58.3155 259.125 74.0025 259.125 74.0025C264.211 97.6305 256.286 131.137 256.286 131.137L258.745 167.014C257.989 166.371 251.2 170.879 251.2 170.879L251.771 173.243L252.009 173.206L216.069 173.617L217.729 164.797C217.01 163.37 212.458 96.5352 212.352 95.1713L242.551 43.9766L242.546 43.9818Z" fill="#C4A976"/>
<path fill-rule="evenodd" clip-rule="evenodd" d="M205.844 14.3194C205.844 14.3194 206.452 23.2661 206.357 25.2514C206.262 27.2418 205.173 29.9696 205.173 29.9696L206.056 31.0965L208.683 31.1281C208.683 31.1281 209.92 38.4792 210.047 39.6851C210.174 40.891 210.243 41.7967 215.107 41.2859C219.971 40.7804 221.784 40.5856 221.784 40.5856C221.784 40.5856 225.02 44.9668 226.548 49.2426L228.07 53.5238L241.932 42.4549C241.932 42.4549 235.403 34.4087 235.001 33.5346C234.605 32.6604 221.081 11.9287 221.081 11.9287L205.844 14.3142V14.3194Z" fill="#FFBC79"/>
<path fill-rule="evenodd" clip-rule="evenodd" d="M215.678 28.8688L218.379 28.5845C218.379 28.5845 217.978 27.8262 218.66 25.2196C219.342 22.613 222.588 22.9079 223.513 25.6619C224.438 28.416 227.393 38.3105 227.393 38.3105L237.016 35.7197C237.016 35.7197 236.001 29.1374 238.581 23.1343C241.161 17.126 242.392 16.9996 242.392 16.9996C242.392 16.9996 239.273 11.5915 237.967 8.24243C236.661 4.89334 236.92 1.66537 232.104 1.22303C227.282 0.775436 213.188 -2.53679 207.806 4.0824C202.429 10.6963 198.738 14.6036 205.442 14.8511C212.151 15.0986 212.495 15.0301 213.69 20.3223C214.885 25.6145 215.546 28.8846 215.546 28.8846L215.678 28.8688Z" fill="#7D3500"/>
<path fill-rule="evenodd" clip-rule="evenodd" d="M224.042 27.4742C225.257 31.3449 227.388 38.3122 227.388 38.3122L237.01 35.7212C237.01 35.7212 235.995 29.1383 238.575 23.1348C238.792 22.6293 238.998 22.1658 239.199 21.7393L224.042 27.4742Z" fill="#632A00"/>
<path fill-rule="evenodd" clip-rule="evenodd" d="M233.088 7.91106C233.014 5.92568 233.024 4.41953 229.741 4.11935C224.925 3.67172 210.825 0.35925 205.448 6.97366C205.22 7.24751 205.051 7.51609 204.787 7.78993C210.417 1.63895 224.052 4.85136 228.784 5.29373C231.311 5.52544 232.395 6.53656 233.088 7.91106Z" fill="#B04B00"/>
<path d="M188.709 159.762C189.634 157.693 192.072 156.766 194.149 157.687L198.918 159.805C201.001 160.731 201.937 163.159 201.006 165.229L197.84 172.328C196.914 174.403 194.477 175.324 192.399 174.403L187.631 172.28C185.547 171.353 184.617 168.926 185.537 166.856L188.709 159.757V159.762Z" fill="#FFBC79"/>
<path fill-rule="evenodd" clip-rule="evenodd" d="M193.023 151.063L190.803 155.777L205.405 161.159L207.124 157.999L193.023 151.063Z" fill="white"/>
<path fill-rule="evenodd" clip-rule="evenodd" d="M207.124 157.993L252.961 76.2561C255.118 70.5795 253.653 61.8908 248.197 59.4738C242.768 57.0673 235.393 61.7592 232.527 67.104L193.018 151.063L207.124 157.993Z" fill="#DBC583"/>
<defs>
<clipPath id="clip0_14_17298">
<rect width="190" height="203" fill="white" transform="translate(0 3.70312)"/>
</clipPath>
</defs>
</svg>
