<svg width="265" height="341" viewBox="0 0 265 341" fill="none" xmlns="http://www.w3.org/2000/svg">
<g clip-path="url(#clip0_14_17297)">
<path d="M123.256 113.821C123.002 114.111 118.093 119.137 118.431 121.797C118.769 124.456 126.219 125.52 126.982 123.778C127.744 122.039 127.828 114.691 127.828 114.691L123.256 113.821Z" fill="#FFB27D"/>
<path d="M121.056 113.388C121.056 113.388 123.388 115.785 124.608 116.194C127.753 117.255 129.072 116.654 129.072 116.654C129.072 116.654 131.972 113.538 135.647 108.09C137.767 104.944 140.147 101.021 142.377 96.4726C145.113 90.8968 147.627 84.3768 149.167 77.1964C154.136 54.0087 140.144 50.417 140.144 50.417C140.144 50.417 127.984 94.6947 121.056 113.388Z" fill="#8C9DF4"/>
<path d="M135.647 108.09C137.767 104.944 140.147 101.02 142.377 96.4724L140.786 67.165C140.786 67.165 138.074 84.0448 135.644 90.6187C133.216 97.1925 135.647 108.09 135.647 108.09Z" fill="#6980E2"/>
<path d="M133.999 244.649H160.155C162.03 243.379 159.65 230.961 159.65 230.961C159.65 230.961 152.51 228.253 151.278 233.758C150.04 239.259 142.186 241.007 138.027 241.679C135.18 242.142 134.283 243.705 133.999 244.646V244.649Z" fill="#233862"/>
<path d="M172.794 244.649H198.95C200.824 243.379 198.444 230.961 198.444 230.961C198.444 230.961 191.304 228.253 190.072 233.758C188.835 239.259 180.98 241.007 176.821 241.679C173.975 242.142 173.078 243.705 172.794 244.646V244.649Z" fill="#233862"/>
<path d="M141.038 117.966C141.038 117.966 142.213 132.625 143.594 150.246C145.472 174.184 150.537 233.533 150.537 233.533C150.537 233.533 153.859 236.366 161.214 234.815C161.214 234.815 167.475 214.341 169.346 190.971C169.376 190.588 169.403 190.203 169.433 189.817C171.176 166.029 173.882 115.934 173.882 115.934L141.032 117.966H141.038Z" fill="#2B478B"/>
<path d="M140.637 112.898C140.637 112.898 142.213 132.623 143.597 150.244L169.352 190.972C169.382 190.589 169.409 190.204 169.439 189.818C171.182 166.03 173.888 115.934 173.888 115.934L140.637 112.898Z" fill="#233862"/>
<path d="M148.145 112.898C148.145 112.898 166.823 159.366 172.797 176.98C177.051 189.527 189.047 233.542 189.047 233.542C189.047 233.542 194.264 235.129 198.648 232.063C198.648 232.063 203.112 187.095 194.094 174.414C189.31 167.687 192.907 104.483 173.514 103.942C154.122 103.401 148.148 112.898 148.148 112.898H148.145Z" fill="#2B478B"/>
<path d="M156.487 44.3988C159.339 45.8988 162.12 45.9945 164.533 45.4805C166.739 45.0174 168.635 44.0432 169.983 43.1797C171.368 42.2952 172.184 41.5243 172.184 41.5243C172.184 41.5243 172.088 41.3838 171.924 41.1119C171.08 39.6716 168.527 34.4932 169.663 26.1744C169.678 26.0638 168.853 26.2192 167.609 26.515C163.902 27.3935 156.451 29.5031 156.122 29.5987H156.11C156.11 29.5987 156.017 31.3468 155.712 34.4843C155.685 34.7622 155.658 35.049 155.629 35.3478C155.59 35.7154 155.551 36.1068 155.506 36.5072C155.162 39.7673 156.487 44.3988 156.487 44.3988Z" fill="#FFB27D"/>
<path d="M155.712 34.4839C161.244 35.7509 169.502 27.5874 169.502 27.5874C168.898 27.1392 168.264 26.7836 167.609 26.5146C163.902 27.3932 156.451 29.5028 156.122 29.5984H156.11C156.11 29.5984 156.017 31.3464 155.712 34.4839Z" fill="#ED975D"/>
<path d="M138.116 105.072C138.52 110.4 139.647 114.216 142.117 114.216C142.117 114.216 153.087 118.073 166.204 118.178C168.769 118.199 172.399 117.697 175.41 117.192C178.486 116.672 180.92 116.146 180.92 116.146C183.557 115.54 186.47 113.911 186.078 110.905C185.872 109.303 185.719 107.254 185.617 104.872C185.611 104.72 185.605 104.567 185.596 104.412C185.57 103.743 185.546 103.049 185.522 102.329C185.447 99.8819 185.405 97.1836 185.378 94.336C185.33 89.3667 185.336 83.9553 185.315 78.6723C185.291 73.0338 185.235 67.5506 185.043 62.925C185.043 62.925 187.636 44.7603 184.759 41.7842C181.393 38.2941 171.502 37.2243 170.883 37.3588C170.698 37.3169 170.509 37.2751 170.321 37.2393C170.321 37.2393 161.901 41.9814 155.64 38.4704C155.64 38.4704 155.584 38.4793 155.464 38.4972C153.939 38.7363 146.336 40.4933 143.708 43.2693C142.805 44.2254 139.187 50.0911 139.088 56.5275C138.951 65.5037 139.3 75.7021 139.3 75.7051C139.205 77.1633 139.049 79.0428 138.876 81.1883C138.693 83.4772 138.49 86.0589 138.317 88.7542C138.233 90.1108 138.155 91.4973 138.089 92.8807C137.892 97.1567 137.835 101.46 138.107 105.06L138.116 105.072Z" fill="#8C9DF4"/>
<path d="M170.847 37.374C170.847 37.374 161.527 46.9808 154.863 45.0116C154.863 45.0116 153.975 43.7148 156.977 43.2994C159.979 42.8841 163.217 43.0544 170.847 37.374Z" fill="#6980E2"/>
<path d="M153.835 29.1565C153.835 29.1565 156.11 29.9722 159.01 30.3637C163.253 30.9374 168.829 30.5998 170.581 25.4692C173.532 16.8365 177.303 11.6582 168.617 8.13518C163.967 6.2467 160.992 6.14809 158.971 6.86822C157.216 7.48975 156.182 8.7328 155.398 9.96091C153.712 12.6024 150.318 27.6475 153.832 29.1595L153.835 29.1565Z" fill="#FFB27D"/>
<path d="M154.74 4.74351C152.779 5.21862 151.897 8.30832 153.763 9.5932C157.111 11.894 161.202 10.9916 162.708 11.661C164.867 12.6202 165.256 16.2417 165.295 17.3892C165.334 18.5396 165.486 19.5107 168.419 18.8235C168.901 18.7099 169.247 18.7428 169.484 18.8862C170.701 19.6063 169.146 23.1054 168.676 23.8614C168.676 23.8614 168.001 26.3654 169.499 27.5846C169.681 27.731 172.623 29.0159 179.712 18.1721C180.827 16.4688 181.892 12.6351 180.17 8.9418C178.456 5.25149 173.137 0.679688 166.757 0.679688C161.707 0.679688 158.893 3.73652 154.74 4.74351Z" fill="#163560"/>
<path d="M153.769 23.5836C153.769 23.5836 153.586 24.7011 156.187 25.5946C156.187 25.5946 158.37 26.3446 158.768 25.1972C158.768 25.1972 157.034 23.5477 153.769 23.5836Z" fill="white"/>
<path d="M163.175 98.7138C163.175 98.7138 156.167 103.336 153.458 103.632C151.616 103.832 144.345 103.537 144.306 102.619C144.249 101.322 148.749 99.9509 149.912 99.4309C151.078 98.908 151.99 98.3074 151.981 97.8054C151.972 97.3034 147.475 98.9678 147.959 97.8711C148.444 96.7745 152.6 94.8651 153.604 94.6828C154.609 94.5005 157.847 95.5972 159.106 95.0175C160.365 94.4348 163.172 98.7198 163.172 98.7198L163.175 98.7138Z" fill="#FFB27D"/>
<path d="M209.812 208.484L212.371 219.154L213.956 225.758L219.23 247.742C219.23 247.742 223.745 249.131 228.436 247.742C228.436 247.742 230.173 240.469 230.224 231.394C230.251 226.649 229.814 221.408 228.427 216.462C227.865 214.448 227.141 212.488 226.23 210.623C218.788 195.432 209.809 208.484 209.809 208.484H209.812Z" fill="#FFB27D"/>
<path d="M208.347 254.166H227.515C229.091 254.166 230.347 252.849 230.263 251.277C230.194 249.977 230 248.39 229.527 246.831C229.366 246.299 229.172 245.77 228.938 245.256C228.938 245.256 223.404 246.511 218.632 245.256C218.632 245.256 214.144 249.075 211.432 250.246C210.213 250.772 208.936 250.933 207.871 251.259C206.254 251.755 206.652 254.163 208.344 254.163L208.347 254.166Z" fill="#F99746"/>
<path d="M229.127 212.309L234.344 221.964L237.573 227.94L248.322 247.832C248.322 247.832 253.043 248.017 257.22 245.468C257.22 245.468 257.029 237.992 254.744 229.21C253.551 224.617 251.781 219.666 249.168 215.241C248.107 213.439 246.902 211.73 245.541 210.164C234.443 197.396 229.124 212.312 229.124 212.312L229.127 212.309Z" fill="#FFB27D"/>
<path d="M257.232 245.256C257.232 245.256 251.698 246.511 246.926 245.256C246.926 245.256 242.438 249.075 239.726 250.246C238.551 250.754 237.319 250.921 236.279 251.226C234.61 251.713 234.954 254.166 236.691 254.166H255.121C257.11 254.166 258.673 252.469 258.5 250.491C258.359 248.886 258.013 246.98 257.229 245.259L257.232 245.256Z" fill="#F99746"/>
<path d="M206.236 220.667C215.496 226.542 254.066 222.341 254.383 216.654C254.383 216.654 252.475 202.407 251.823 196.44C251.554 193.96 251.429 191.976 251.587 190.942C255.6 164.41 258.966 133.161 258.557 127.188C258.5 126.348 258.458 125.912 258.458 125.912C258.458 125.912 255.564 125.667 251.16 125.496C238.36 124.991 212.808 125.078 208.565 133.445C204.242 141.967 204.134 191.474 204.134 191.474C204.134 205.09 206.236 220.667 206.236 220.667Z" fill="#F99746"/>
<path d="M234.117 22.2149C234.117 18.7636 232.132 16.2715 228.302 16.0355C225.494 15.8622 221.61 17.5624 221.61 21.0137C221.61 24.4649 224.409 28.463 227.862 28.463C231.315 28.463 234.114 25.6661 234.114 22.2149H234.117Z" fill="white"/>
<path d="M228.783 47.16C228.783 47.16 243.813 33.6328 232.248 23.2372C231.127 22.2302 229.764 21.534 228.29 21.2113C224.244 20.3298 215.254 19.0897 210.706 24.1127C205.808 29.5182 203.874 33.6328 207.955 38.5632C212.036 43.4936 228.78 47.16 228.78 47.16H228.783Z" fill="white"/>
<path d="M215.233 47.0222C215.233 47.0222 215.436 49.2513 215.816 52.2633C216.001 53.7365 216.225 55.3948 216.491 57.0742C216.68 58.2784 216.889 59.4945 217.119 60.6569L222.241 77.9431L234.267 58.4965C234.267 58.4965 231.441 56.1598 227.611 43.4962C227.575 43.3617 227.548 43.29 227.548 43.29L215.236 47.0282L215.233 47.0222Z" fill="#FFB27D"/>
<path d="M208.227 132.296C208.072 134.239 208.562 134.591 208.562 134.591C208.562 134.591 215.956 137.269 234.551 136.342C236.563 136.241 238.458 136.139 240.228 136.035C252.212 135.329 258.622 134.591 258.622 134.591C258.622 134.591 268.438 111.947 249.997 84.0505C247.913 80.8981 245.464 77.6739 242.602 74.4109C239.616 71.0075 238.958 66.4536 237.828 62.1238C237.505 60.8838 238.44 60.6089 237.974 59.4375C237.974 59.4375 234.61 58.4873 234.264 58.4873C232.353 60.1696 229.835 63.4386 223.581 64.084C219.353 64.5233 217.696 62.1418 217.095 60.7164C215.484 61.2991 213.821 62.321 212.446 62.9605C201.207 68.1957 200.184 78.7048 200.074 78.9409C200.074 78.9409 210.488 113.161 211.133 117.434C211.423 119.334 209.035 122.289 208.227 132.293V132.296Z" fill="#2B478B"/>
<path d="M215.816 52.2634C216.001 53.7365 216.225 55.3949 216.491 57.0742C229.626 51.9646 227.955 44.811 227.608 43.4933C227.572 43.3588 227.545 43.2871 227.545 43.2871C227.545 43.2871 220.809 48.0681 215.816 52.2664V52.2634Z" fill="#E8945B"/>
<path d="M213.086 53.9751C213.086 53.9751 227.793 54.4472 227.946 45.2887C228.098 36.1302 230.102 30.0255 220.716 29.3352C211.334 28.6479 209.45 32.1112 208.655 35.156C207.859 38.2009 209.265 53.6165 213.086 53.9751Z" fill="#FFB27D"/>
<path d="M211.755 27.9642C211.755 27.9642 212.679 45.4147 230.607 43.7742C230.607 43.7742 230.224 20.4401 211.755 27.9642Z" fill="white"/>
<path d="M215.233 29.4824C215.233 29.4824 209.916 32.7245 208.266 37.9208C208.266 37.9208 202.34 29.6647 215.233 29.4824Z" fill="white"/>
<path d="M240.228 136.038C252.212 135.333 258.623 134.595 258.623 134.595C258.623 134.595 268.438 111.951 249.997 84.0537C246.262 92.7521 237.457 115.994 240.228 136.038Z" fill="#233862"/>
<path d="M216.112 262.677L216.545 135.279C216.545 135.279 217.52 126.1 225.527 126.052C234.072 126.001 234.506 134.625 234.506 134.625C234.506 134.625 234.5 135.967 233.624 135.972C232.706 135.978 232.55 135.187 232.55 135.187C232.55 135.187 232.129 128.114 225.542 128.156C219.368 128.191 218.617 135.27 218.617 135.27L219.374 262.659L216.115 262.68L216.112 262.677Z" fill="#233862"/>
<path d="M220.471 262.65L215.155 262.682L215.595 257.125C215.595 257.125 215.544 256.354 216.617 256.303C217.616 256.255 219.583 256.103 219.774 256.703C219.942 257.232 220.468 262.65 220.468 262.65H220.471Z" fill="#233862"/>
<path d="M230.846 120.473C230.846 120.473 228.164 120.688 225.327 121.958C221.335 123.742 219.335 125.275 218.919 128.403C218.919 128.403 217.873 132.213 220.779 131.741C223.685 131.269 223.458 130.301 227.56 129.718C231.662 129.135 234.395 127.566 235.361 124.758L230.843 120.473H230.846Z" fill="#FFB27D"/>
<path d="M234.264 58.4932C234.264 58.4932 248.493 61.4096 254.831 68.7453C259.687 74.366 265 101.848 265 106.389C265 110.728 255.011 124.175 235.932 126.129C235.558 126.168 230.742 121.139 230.846 120.475C230.846 120.475 247.73 106.183 247.958 103.814C248.609 96.9799 235.591 79.2874 235.591 79.2874C235.591 79.2874 226.275 68.2493 234.264 58.4932Z" fill="#2B478B"/>
<path d="M163.818 92.5792C163.818 92.5792 179.058 81.0452 178.732 67.7451L189.023 78.2722L188.29 90.1768L163.821 92.5792H163.818Z" fill="#7388E0"/>
<path d="M233.489 143.254C234.051 143.254 234.506 142.8 234.506 142.238V134.621C234.506 134.06 234.051 133.605 233.489 133.605C232.927 133.605 232.473 134.06 232.473 134.621V142.238C232.473 142.8 232.927 143.254 233.489 143.254Z" fill="#233862"/>
<path d="M211.259 47.7987C211.259 47.7987 211.696 49.2957 212.398 49.4362C213.101 49.5766 214.225 49.8097 215.209 49.4362C216.192 49.0627 216.473 48.2648 216.473 48.2648C216.473 48.2648 214.243 47.4222 211.259 47.7957V47.7987Z" fill="white"/>
<path d="M162.855 99.5023C171.125 103.823 182.744 102.667 185.525 102.332C185.45 99.8848 185.408 97.1865 185.381 94.3389L162.855 99.4993V99.5023Z" fill="#7388E0"/>
<path d="M202.821 71.498L192.692 89.9586L182.813 90.9237L178.298 97.5155C178.298 97.5155 182.083 107.998 194.668 108.09C201.781 108.144 212.335 94.6917 212.335 94.6917L202.821 71.498Z" fill="#2B478B"/>
<path d="M180.78 39.4141C180.78 39.4141 188.003 41.3264 192.844 52.7828C197.547 63.9195 199.93 85.4936 199.296 89.7816C198.393 95.8743 179.838 101.743 162.855 99.5048C162.855 99.5048 158.642 95.6711 159.491 94.192C159.491 94.192 185.522 85.156 183.838 79.5144C183.441 78.1847 177.829 67.8578 177.249 61.9055C176.672 55.9532 180.783 39.4141 180.783 39.4141H180.78Z" fill="#8C9DF4"/>
<path d="M179.844 84.8276C179.844 84.8276 176.181 83.0795 174.148 84.2598C172.115 85.4401 170.847 90.4333 172.71 90.8546C174.573 91.2789 178.361 89.8147 179.847 84.8276H179.844Z" fill="#FFB27D"/>
<path d="M121.214 164.903C136.313 163.731 140.448 156.04 136.559 141.676C133.688 131.083 130.274 125.062 128.674 122.63C127.918 121.48 126.859 120.52 125.571 119.911C117.602 116.143 110.624 128.561 106.671 139.812C102.36 152.084 106.112 166.071 121.214 164.903ZM116.75 128.956C116.75 128.956 119.235 119.878 123.346 120.7C127.457 121.521 129.416 131.212 128.115 133.722C126.817 136.229 117.483 135.317 116.75 133.722C116.021 132.126 116.75 128.956 116.75 128.956Z" fill="#F99746"/>
<path d="M126.438 124.289C126.438 124.289 127.628 124.071 126.438 121.447C125.248 118.824 121.905 119.457 121.056 120.219C120.21 120.981 119.319 123.145 119.319 123.145C119.319 123.145 121.573 126.031 126.438 124.286V124.289Z" fill="#F4A671"/>
<path d="M121.056 116.409C121.056 116.409 116.146 120.064 117.058 120.377C117.973 120.688 120.53 119.391 120.53 119.391L121.056 116.409Z" fill="#FFB27D"/>
</g>
<path fill-rule="evenodd" clip-rule="evenodd" d="M34.1236 201.15C34.7258 203.331 34.9026 204.754 32.8236 203.769C30.7397 202.778 30.1853 203.107 30.1232 201.888C30.0563 200.67 28.025 193.715 28.3117 190.987C28.5985 188.264 29.4731 189.126 29.9702 191.739C30.4673 194.352 33.5166 198.97 34.1236 201.15ZM24.9423 193.005C25.1239 194.952 25.2195 198.294 25.2912 199.456C25.3629 200.617 24.1345 200.679 22.7963 200.541C21.458 200.403 20.6885 200.379 21.4867 198.289C22.2849 196.195 23.9003 191.877 24.1967 190.944C24.4882 190.011 24.7607 191.063 24.9423 193.01V193.005ZM35.2085 198.994C35.1033 197.413 30.6584 185.017 30.214 184.013C29.7742 183.018 24.5265 182.799 23.8478 184.027C23.1739 185.255 15.5698 201.503 15.4838 202.312C15.4025 203.116 9.90139 213.042 8.60616 216.246C7.31093 219.454 0.304293 243.394 0.00796782 246.208C-0.288357 249.026 7.73154 247.731 15.5555 248.55C23.3794 249.369 22.7198 248.588 28.4264 249.183C34.1283 249.783 39.1897 242.433 41.6368 239.814C44.0839 237.201 42.9655 236.239 40.7861 227.552C40.0118 224.472 35.2037 198.989 35.2037 198.989L35.2085 198.994Z" fill="#E1A400"/>
<path fill-rule="evenodd" clip-rule="evenodd" d="M3.32174 233.545C1.61938 239.496 0.151371 244.961 0.0174776 246.213C-0.169017 247.98 2.94399 248.132 7.16164 248.199C6.60694 246.518 6.08571 245.433 6.08571 245.433C5.30625 244.347 4.21123 238.62 4.21123 238.62C4.14428 237.853 3.88123 236.078 3.32174 233.545Z" fill="#CC9100"/>
<path fill-rule="evenodd" clip-rule="evenodd" d="M32.7517 194C35.108 199.327 35.1462 205.253 35.1462 205.253L32.1495 205.81L31.8532 215.569L33.048 243.96L28.5267 249.197C34.1951 249.706 39.2135 242.418 41.6462 239.819C44.0933 237.205 42.9749 236.244 40.7955 227.556C40.0212 224.476 35.2131 198.993 35.2131 198.993C35.108 197.413 30.6631 185.017 30.2186 184.012C30.0131 183.551 28.8182 183.26 27.4465 183.198C27.4465 183.198 30.3906 188.668 32.7469 194H32.7517Z" fill="#CC9100"/>
<path d="M134.888 319.594C136.226 323.117 138.081 329.649 136.203 331.424L127.069 335.452C127.069 335.452 126.701 332.952 124.632 333.928C124.632 333.928 117.563 340.327 112.573 340.465C112.573 340.465 96.2466 340.465 93.5653 336.575C93.5653 336.575 92.7098 332.952 96.2466 333.091C96.2466 333.091 101.968 332.952 103.793 332.538C105.624 332.115 108.549 327.954 110.379 326.416C110.958 325.93 111.302 325.711 111.393 325.54L134.888 319.594Z" fill="#86958A"/>
<path d="M65.9402 325.745C67.8663 335.185 65.9545 336.318 64.688 336.709C63.3545 337.132 53.3607 337.132 53.3607 337.132C53.3607 337.132 54.0919 332.819 51.8982 334.49C51.8982 334.49 44.0982 336.709 41.3022 337.132C41.3022 337.132 26.7966 337.965 24.1201 336.432C24.1201 336.432 17.4433 333.647 21.8308 330.862C21.8308 330.862 26.204 329.325 30.4338 329.52C30.4338 329.52 34.2669 328.739 36.346 326.93C38.2816 325.245 41.7085 323.236 42.2963 322.179L65.9402 325.745Z" fill="#86958A"/>
<path d="M54.0584 95.5263L56.233 90.3946C56.233 90.3946 54.4455 87.048 54.1635 85.658C54.1635 85.658 54.7179 82.4495 48.7436 82.8731C48.7436 82.8731 45.0922 82.5923 46.6742 78.146L45.8234 76.1943C45.8234 76.1943 45.6991 74.8137 46.3109 74.6709C46.3109 74.6709 45.3359 73.9759 45.3359 73.557C45.3359 73.557 46.4304 71.3291 45.4602 70.915C45.4602 70.915 42.2914 69.801 44.3609 67.5684C44.3609 67.5684 48.1414 63.2697 48.1414 61.7321C48.1414 61.7321 47.4197 59.2329 48.39 58.5426C48.39 58.5426 48.5142 53.0729 49.2455 52.3684C49.2455 52.3684 50.3352 52.1351 49.972 51.5781C49.972 51.5781 50.3352 50.8879 50.7032 50.6023C50.7032 50.6023 50.0962 47.4032 53.7525 46.713C53.7525 46.713 67.7323 41.01 75.8908 51.9971C75.8908 51.9971 79.896 54.4677 76.7272 65.7404C76.7272 65.7404 73.2191 83.5777 70.533 83.3016L70.1698 83.6681L54.0631 95.5216L54.0584 95.5263Z" fill="#FFBC79"/>
<path d="M102.24 182.218C102.24 182.218 103.636 185.041 103.76 188.797C103.76 188.797 103.884 192.963 105.347 193.948C105.347 193.948 109.118 197.7 107.909 197.838L104.128 196.443C104.128 196.443 110.466 201.032 106.317 200.894C106.317 200.894 106.805 202.699 104.248 201.87C104.248 201.87 97.5468 203.398 96.4475 199.647L91.582 189.459L102.24 182.223V182.218Z" fill="#FFBC79"/>
<path d="M50.3735 173.354L41.7801 180.142C41.7801 180.142 39.0558 182.047 38.401 180.956L31.5234 171.126L31.1841 171.074C31.1841 171.074 42.8794 158.521 44.1029 157.545C45.3169 156.574 48.9731 153.66 49.3316 151.851C49.3459 151.775 49.408 151.694 49.3794 151.613L50.3735 173.354Z" fill="#5193D3"/>
<path d="M93.8378 189.787L93.4459 190.054L52.2424 194.062C51.8362 190.563 50.995 180.209 50.3737 173.359L49.3795 151.618C49.7475 149.771 49.8192 146.763 49.5803 144.896C49.3365 142.949 49.6711 137.784 49.1836 135.161C48.352 130.653 47.4773 127.935 48.6961 121.675C49.9101 115.42 50.0678 105.547 52.5005 102.767L53.313 98.6728L73.0903 87.543C73.0903 87.543 80.5271 93.2983 83.4473 100.529C86.3723 107.76 88.4466 114.03 88.8098 119.447C88.8098 119.447 92.7051 131.682 92.7051 133.486C92.7051 133.486 93.8044 133.771 94.2919 136.975C94.7842 140.169 98.3448 161.725 100.658 168.261L103.397 178.757L93.8378 189.787Z" fill="#84B3E0"/>
<path d="M103.406 178.757L104.128 181.299L104.104 182.818L93.8379 189.788L103.406 178.757Z" fill="#5193D3"/>
<path d="M134.888 317.457C136.226 320.98 138.081 327.512 136.203 329.288L127.069 333.315C127.069 333.315 126.701 330.816 124.632 331.792C124.632 331.792 117.563 338.19 112.573 338.328C112.573 338.328 96.2466 338.328 93.5653 334.439C93.5653 334.439 92.7098 330.816 96.2466 330.959C96.2466 330.959 101.968 330.821 103.793 330.406C105.624 329.983 108.549 325.822 110.379 324.284C110.958 323.798 111.302 323.579 111.393 323.403L134.888 317.462V317.457Z" fill="#1A171B"/>
<path d="M65.9402 323.603C67.8663 333.048 65.9546 334.181 64.688 334.567C63.3545 334.991 53.3608 334.991 53.3608 334.991C53.3608 334.991 54.092 330.678 51.8982 332.349C51.8982 332.349 44.0982 334.567 41.3023 334.991C41.3023 334.991 26.7967 335.824 24.1202 334.291C24.1202 334.291 18.2702 332.487 22.6625 329.702C22.6625 329.702 26.2088 327.188 30.4339 327.383C30.4339 327.383 34.267 326.602 36.346 324.793C38.2817 323.108 41.7085 321.094 42.2964 320.042L65.9402 323.608V323.603Z" fill="#1A171B"/>
<path d="M35.7198 181.128C35.4474 181.614 34.9456 182.68 34.9456 183.508C34.9456 184.613 31.2941 188.517 30.5581 190.74C29.8268 192.963 30.6871 195.882 29.4684 195.882L27.8768 195.467C27.8768 195.467 27.0261 197.134 26.3044 196.024C26.3044 196.024 20.0815 191.154 20.0815 188.517C20.0815 188.517 21.0613 185.313 20.9371 184.475C20.8176 183.646 21.0613 182.118 22.0363 181.418C23.0113 180.723 28.1253 174.463 29.4731 174.049C29.8364 173.934 30.1183 173.768 30.3286 173.587L35.7246 181.128H35.7198Z" fill="#FFBC79"/>
<path fill-rule="evenodd" clip-rule="evenodd" d="M57.3229 66.6969H59.9946C59.9946 66.6969 59.6839 65.9114 60.6159 63.436C61.5479 60.9558 64.6928 61.5747 65.3141 64.3643C65.9355 67.1539 68.4685 81.0733 68.4685 81.0733L73.9267 81.3875C73.9267 81.3875 78.6009 69.0438 81.741 63.436C84.8859 57.8234 83.8726 57.4093 83.8726 57.4093C83.8726 57.4093 83.6098 52.2157 82.6778 48.8072C81.7458 45.3988 78.8734 45.6891 74.9447 43.0185C69.5678 39.3625 56.3049 39.6339 50.3593 45.5511C44.4137 51.473 45.3743 51.9491 51.9078 52.8774C58.4413 53.8057 55.6357 52.8393 56.2619 58.1376C56.8832 63.436 57.1939 66.7016 57.1939 66.7016H57.3229V66.6969Z" fill="#4E150C"/>
<path d="M38.4105 180.962L36.5551 182.171C36.5551 182.171 35.7039 182.029 35.4601 181.338L35.2114 180.643C35.2114 180.643 35.1492 180.743 35.0057 180.905L29.6069 173.359C30.0421 172.983 30.1856 172.545 30.1952 172.374L31.5245 170.422L38.4057 180.962H38.4105Z" fill="#385B7E"/>
<path fill-rule="evenodd" clip-rule="evenodd" d="M93.3165 190.449L76.4834 128.968C76.4834 128.968 83.1937 177.457 85.0864 183.16C86.9838 188.863 89.2875 190.449 89.2875 190.449H93.3165Z" fill="#5193D3"/>
<path d="M93.0587 189.972C93.8282 193.043 95.3959 199.631 95.0183 200.798C94.5308 202.33 96.2466 208.171 96.4808 212.899C96.7246 217.63 97.5801 220.139 98.794 224.024C100.018 227.918 103.43 237.653 103.793 239.738C104.166 241.823 109.768 253.505 113.424 261.293C117.075 269.076 124.015 281.601 124.507 289.246C124.995 296.891 126.945 297.029 127.552 299.948C128.168 302.875 126.701 303.984 128.288 305.513C129.87 307.045 133.034 313.301 134.262 315.943C134.444 316.328 134.654 316.852 134.888 317.456L111.393 323.397C111.722 323.021 111.235 322.85 111.235 320.665C111.235 317.466 108.429 312.596 108.186 310.52C107.942 308.426 104.658 300.5 104.047 299.248C103.44 297.996 101.853 294.24 101.126 292.569C100.39 290.908 96.9827 281.177 96.2514 279.778C95.5201 278.392 84.7999 257.399 83.4569 254.471C82.1186 251.553 77.1193 239.457 76.2686 237.924C75.4178 236.391 72.0818 230.384 71.7138 230.25C71.7138 230.25 71.0256 239.728 71.2741 243.065C71.5131 246.412 71.1498 249.749 70.4185 252.248C69.6921 254.752 68.9609 259.06 68.8366 261.288C68.7171 263.511 62.9866 310.659 65.5436 321.779C65.6917 322.422 65.8255 323.026 65.9402 323.602L42.2964 320.037C42.3776 319.96 42.3729 319.894 42.3872 319.827C42.6358 318.851 44.2225 312.182 44.71 310.516C45.1975 308.84 44.9586 294.097 44.8343 289.932C44.71 285.752 45.1975 259.198 46.2968 248.349C47.396 237.5 48.3663 218.035 49.4608 214.836C50.56 211.642 50.6508 202.321 51.8696 199.822C52.6009 198.317 51.5732 190.739 51.9508 190.863C61.9685 194.123 93.0635 189.963 93.0635 189.963L93.0587 189.972Z" fill="#385B7E"/>
<path fill-rule="evenodd" clip-rule="evenodd" d="M71.709 230.256L87.0653 210.686L79.5281 244.723L71.709 230.256Z" fill="#384857"/>
<path d="M44.8248 289.498C44.7435 284.157 45.2312 258.875 46.2928 248.359C47.3926 237.51 48.3634 218.044 49.4584 214.845C49.5206 214.66 49.5827 214.45 49.6401 214.227L48.7172 263.711L44.8152 289.503L44.8248 289.498Z" fill="#384857"/>
<path d="M43.1281 316.786C43.6923 314.462 44.4097 311.544 44.7061 310.521L49.268 318.314L43.1233 316.786H43.1281Z" fill="#748CA5"/>
<path d="M59.7126 301.434L65.9578 290.97C65.6183 295.264 65.3218 299.601 65.1305 303.657L59.7126 301.434Z" fill="#384857"/>
<path d="M63.8948 281.074L67.9546 269.667C67.5673 273.342 67.0987 277.951 66.6444 282.911L63.8948 281.079V281.074Z" fill="#748CA5"/>
<path d="M61.199 252.572L70.3946 252.349C69.6725 254.862 68.96 259.095 68.8405 261.289L68.8309 261.432L61.199 252.572Z" fill="#384857"/>
<path d="M96.0793 279.465C94.5403 276.485 84.7329 257.266 83.452 254.476L83.084 253.657L97.5131 273.91L96.0745 279.465H96.0793Z" fill="#748CA5"/>
<path d="M116.812 322.032L111.389 323.399C111.719 323.022 111.231 322.851 111.231 320.666C111.231 317.995 109.271 314.148 108.487 311.744L116.812 322.027V322.032Z" fill="#748CA5"/>
<path d="M132.747 312.849C133.363 314.053 133.894 315.158 134.262 315.943C134.444 316.329 134.654 316.852 134.888 317.457L119.852 321.261L132.747 312.849Z" fill="#384857"/>
<path d="M117.462 296.716L127.49 299.668L127.552 299.944C128.168 302.872 126.701 303.981 128.288 305.509C128.388 305.609 128.498 305.728 128.618 305.866L117.462 296.716Z" fill="#384857"/>
<path d="M118.461 275.618L112.004 263.235L117.391 269.429C119.083 272.904 120.813 276.613 122.151 280.117L118.461 275.618Z" fill="#384857"/>
<path d="M106.432 246.279C107.837 249.355 109.553 253.073 111.206 256.577L100.782 252.078L106.432 246.279Z" fill="#384857"/>
<path d="M49.4033 151.504C49.7524 149.652 49.8193 146.724 49.585 144.896L49.5468 144.582C49.5468 144.582 51.7417 149.619 53.707 151.133C55.6724 152.642 54.5248 152.228 53.1237 152.037C51.7178 151.852 49.4033 151.504 49.4033 151.504Z" fill="#5193D3"/>
<path fill-rule="evenodd" clip-rule="evenodd" d="M72.6888 92.8649C76.1061 95.4691 79.3274 100.492 81.2583 108.085C83.1892 115.679 76.3021 108.699 74.4094 103.938C72.512 99.1825 70.9921 95.7833 70.3803 94.8597C69.4531 93.46 69.2715 90.2608 72.6888 92.8649Z" fill="#9DC2E6"/>
<path d="M63.1346 166.051C63.1346 144.182 66.9629 150.832 70.7913 166.051C74.6196 181.27 82.2332 191.144 82.2332 191.144L60.2717 193.281C60.2717 193.281 63.1346 187.916 63.1346 166.051Z" fill="#9DC2E6"/>
<path d="M63.1346 166.051C63.1346 144.182 66.9629 150.832 70.7913 166.051C74.6196 181.27 82.2332 191.144 82.2332 191.144L60.2717 193.281C60.2717 193.281 63.1346 187.916 63.1346 166.051Z" stroke="#84B3E0" stroke-width="1.5" stroke-miterlimit="3.86"/>
<path d="M51.989 199.428C52.4335 197.295 51.6258 190.725 51.9747 190.839C61.9924 194.105 93.0539 189.973 93.0539 189.973C93.1542 190.377 93.312 190.839 93.3932 191.339L51.989 199.428Z" fill="#384857"/>
<path d="M48.3711 133.468C47.6394 129.331 47.649 126.598 48.701 120.856L52.8469 122.865C52.8469 122.865 52.5074 132.93 52.8469 134.272C53.1864 135.615 48.3758 133.468 48.3758 133.468H48.3711Z" fill="#A9CAE9"/>
<path d="M55.2247 104.144C55.2103 103.254 52.4526 96.8172 53.3415 96.3221C53.614 95.5271 54.0154 94.6416 54.0154 94.6416L70.7769 82.373L72.9468 82.454L73.095 87.5432L55.2247 104.144Z" fill="#5193D3"/>
<path fill-rule="evenodd" clip-rule="evenodd" d="M61.9782 202.93L52.3859 198.008L51.7693 200.879L63.0105 204.939L61.9782 202.93Z" fill="#384857"/>
<defs>
<clipPath id="clip0_14_17297">
<rect width="160" height="262" fill="white" transform="translate(105 0.679688)"/>
</clipPath>
</defs>
</svg>
