<svg width="33" height="84" viewBox="0 0 33 84" fill="none" xmlns="http://www.w3.org/2000/svg">
<g clip-path="url(#clip0_529_4902)">
<path d="M13.7507 83.5628C20.9202 83.5628 26.7321 82.0535 26.7321 80.1917C26.7321 78.33 20.9202 76.8207 13.7507 76.8207C6.58127 76.8207 0.769287 78.33 0.769287 80.1917C0.769287 82.0535 6.58127 83.5628 13.7507 83.5628Z" fill="#C1AE99"/>
<path d="M20.0628 49.0838L9.92531 47.7746L10.0791 47.129C10.0791 47.129 8.23356 45.9004 8.02763 46.0748L8.69494 36.2904C8.69494 36.2904 6.5405 27.1528 7.92336 20.7093C7.92336 20.7093 10.1182 16.5992 11.2991 15.778C11.2991 15.778 11.6444 14.0406 12.3613 13.8649C12.3613 13.8649 12.33 12.2797 12.8201 12.048L16.9439 11.2984L16.3847 14.5494L19.72 15.9641L19.0488 11.0524L18.083 11.0914L20.3313 10.6828C20.4551 10.5891 20.6402 10.5617 20.8435 10.9248C20.8435 10.9248 21.387 13.0449 21.6894 14.1668C21.6894 14.1668 21.9357 15.1312 22.229 15.4357C22.607 15.8301 22.4336 15.6114 22.4336 15.6114C22.4336 15.6114 24.1267 16.7827 24.1762 17.7797C24.1762 17.7797 24.2792 23.579 23.3056 24.4575L21.2541 24.5746C21.2541 24.5746 22.0739 31.1353 22.3828 32.2494C22.6917 33.3621 22.865 36.4076 23.0697 37.8144C23.2756 39.22 23.3069 42.6195 23.3069 42.6195C23.3069 42.6195 22.2798 45.5478 20.0263 43.1452C20.0263 43.1452 19.7187 47.1277 19.5128 47.539L20.0641 49.0838H20.0628Z" fill="#4E6658"/>
<path d="M18.4755 15.1352C18.3465 14.53 18.7336 13.9352 19.3396 13.8063L20.7551 13.507C21.3611 13.3781 21.9581 13.7647 22.0871 14.3699L22.3882 15.7834C22.5172 16.3886 22.1301 16.9834 21.524 17.1123L20.1086 17.4129C19.5025 17.5418 18.9069 17.1552 18.7779 16.55L18.4768 15.1365L18.4755 15.1352Z" fill="#FFBC79"/>
<path d="M14.3503 61.1068C14.7974 61.1901 15.3044 61.3189 15.7189 61.518C15.7788 61.5467 15.8479 61.4178 15.9235 61.518C17.047 63.0342 19.6146 72.5063 19.6146 73.5501C19.6146 74.6641 19.6146 74.8372 19.6654 75.5413C19.7176 76.2441 20.076 76.3027 20.2806 76.7113C20.4852 77.1239 20.4344 77.2996 20.4852 78.2367C20.5387 79.1763 20.9479 79.5264 20.9479 79.5264L27.4204 76.8962C27.2953 76.6684 27.208 76.3287 26.8965 75.8342C26.2304 74.7813 25.3585 74.5457 25.3585 74.5457C25.3585 74.5457 25.3585 73.9015 24.7941 72.7874C24.2298 71.6773 24.2819 71.6174 24.0773 70.329C23.8714 69.0405 23.5129 67.4579 22.9499 66.6367C22.3855 65.8181 22.744 64.881 22.744 63.7084C22.744 62.5358 22.744 60.7788 22.2826 59.4318C21.8225 58.0835 21.1252 51.1818 21.1252 51.1818C21.1747 48.9576 20.0799 49.1203 20.0799 49.1203L20.0656 49.0825L15.9834 52.5093L14.3529 61.1055L14.3503 61.1068Z" fill="#4E6658"/>
<path d="M14.3503 61.1068C14.7974 61.1901 15.3044 61.3189 15.7189 61.518C15.7788 61.5467 15.8479 61.4178 15.9235 61.518C17.047 63.0342 19.6146 72.5063 19.6146 73.5501C19.6146 74.6641 19.6146 74.8372 19.6654 75.5413C19.7176 76.2441 20.076 76.3027 20.2806 76.7113C20.4852 77.1239 20.4344 77.2996 20.4852 78.2367C20.5387 79.1763 20.9479 79.5264 20.9479 79.5264L27.4204 76.8962C27.2953 76.6684 27.208 76.3287 26.8965 75.8342C26.2304 74.7813 25.3585 74.5457 25.3585 74.5457C25.3585 74.5457 25.3585 73.9015 24.7941 72.7874C24.2298 71.6773 24.2819 71.6174 24.0773 70.329C23.8714 69.0405 23.5129 67.4579 22.9499 66.6367C22.3855 65.8181 22.744 64.881 22.744 63.7084C22.744 62.5358 22.744 60.7788 22.2826 59.4318C21.8225 58.0835 21.1252 51.1818 21.1252 51.1818C21.1747 48.9576 20.0799 49.1203 20.0799 49.1203L20.0656 49.0825L15.9834 52.5093L14.3529 61.1055L14.3503 61.1068Z" stroke="#4E6658" stroke-width="0.68" stroke-miterlimit="3.86"/>
<path d="M15.981 52.5106L6.80013 60.1846L6.84966 60.1924C6.38827 60.6623 1.67012 74.9587 1.36384 75.6016C1.10838 76.1327 1.34428 76.665 1.44725 76.8355L7.8728 75.8893C7.86889 75.124 7.15595 73.4931 7.15595 73.4931C9.20483 71.0332 13.2517 60.9695 13.2517 60.9695C13.2517 60.9695 13.7444 60.9968 14.3492 61.1087L15.9797 52.5119L15.981 52.5106Z" fill="#86958A"/>
<path d="M20.9478 79.5514V81.1054C21.2045 81.7536 24.0224 81.1653 24.0224 81.1653L23.9872 80.6629C24.1488 80.4859 25.6633 80.6954 25.6633 80.6954C28.7379 80.931 32.0198 78.3513 32.0198 78.3513C32.4825 77.707 31.7656 77.4727 30.994 77.4142C30.225 77.3569 29.559 77.3569 28.3795 77.297C27.7526 77.2658 27.561 77.1526 27.4189 76.8936L20.9478 79.55V79.5514Z" fill="#1A171B"/>
<path d="M1.44719 76.8338C1.46674 76.8703 1.46674 76.8898 1.46674 76.8898C1.26081 77.1241 1.10571 78.2356 1.10571 78.2356C1.10571 78.997 4.54136 79.0569 4.54136 79.0569L4.59089 78.587C4.64433 78.2955 6.53941 79.3523 6.53941 79.3523C8.69385 80.8752 12.0252 79.6452 12.0252 79.6452C12.5896 79.2352 12.0761 78.5323 11.3071 78.2955C10.5381 78.0625 10.181 78.1211 9.4107 77.7696C8.64042 77.4182 7.87144 76.6477 7.87144 75.8876L1.44589 76.8338H1.44719Z" fill="#1A171B"/>
<path d="M17.756 61.6596C20.0825 62.0058 19.9834 61.7585 20.1815 60.7693C20.2506 60.427 20.9245 52.0215 21.1721 50.7851C21.4197 49.5499 20.6273 49.0748 20.6273 49.0748L9.86026 47.7615L6.13136 47.1849C6.13136 47.1849 6.79868 47.4778 5.92673 47.2461C5.05609 47.0105 5.20858 47.7134 5.20858 47.7134L4.85016 48.8848C3.3135 49.5876 3.82442 51.0545 3.82442 51.0545C3.56766 50.2918 4.85016 49.4705 4.85016 49.4705C4.85016 49.4705 4.14635 56.5184 3.87655 58.4942C3.6615 60.0704 4.4396 59.8413 4.4396 59.8413L6.80128 60.1849C6.80128 60.1849 15.4308 61.3134 17.7573 61.6596H17.756Z" fill="#4E150C"/>
<path d="M22.3738 14.897C22.3738 14.897 27.0997 21.1093 19.3057 17.0198C19.3057 17.0198 23.4881 17.5326 22.3738 14.897Z" fill="white"/>
<path fill-rule="evenodd" clip-rule="evenodd" d="M16.1971 18.9112L12.3848 12.4125L12.6102 11.9934L16.4695 14.784L16.6676 14.0681L18.3255 17.6747L18.3502 19.0101L16.7666 16.463L16.1971 18.9112Z" fill="white"/>
<path d="M12.433 12.5231C12.1815 13.0176 11.9729 13.5148 11.9729 13.5148C11.3982 14.5338 11.0006 15.6115 11.0006 15.6115C9.8211 16.4327 7.92341 20.7093 7.92341 20.7093C6.53925 27.1528 8.695 36.2904 8.695 36.2904L8.02768 46.0749C8.23361 45.8992 10.0792 47.129 10.0792 47.129L9.92537 47.7746L9.8602 47.7642L20.0642 49.0839L19.5129 47.539C19.7084 47.1499 20.6194 26.8548 20.6481 26.4852L12.4343 12.5231H12.433Z" fill="#86958A"/>
<path d="M12.1033 45.9084C12.1033 45.2901 12.6064 44.7877 13.2255 44.7877H14.6735C15.2939 44.7877 15.7957 45.2901 15.7957 45.9084V47.3531C15.7957 47.9726 15.2939 48.4737 14.6735 48.4737H13.2255C12.6064 48.4737 12.1033 47.9713 12.1033 47.3531V45.9084Z" fill="#FFBC79"/>
<path fill-rule="evenodd" clip-rule="evenodd" d="M16.1801 45.2224L16.2075 46.6411L11.9807 46.3691L11.9038 45.3903L16.1801 45.2224Z" fill="white"/>
<path fill-rule="evenodd" clip-rule="evenodd" d="M11.9051 45.3902L9.59424 19.9635C9.68808 18.3119 11.0162 16.309 12.6415 16.309C14.2668 16.309 15.5701 18.2924 15.6874 19.9414L16.1801 45.2223L11.9051 45.3902Z" fill="#9FABA2"/>
<path d="M17.8262 11.5848C17.6685 10.9549 18.0517 10.3158 18.6838 10.1583L19.372 9.9865C20.0028 9.82901 20.6428 10.213 20.8005 10.8429L21.6203 14.1216C21.778 14.7515 21.3935 15.3906 20.7627 15.5481L20.0745 15.7186C19.4437 15.8761 18.8037 15.4921 18.646 14.8621L17.8262 11.5835V11.5848Z" fill="#1A171B"/>
<path fill-rule="evenodd" clip-rule="evenodd" d="M21.5839 3.66548C21.5839 3.66548 21.6739 6.10851 21.7573 6.64476C21.8407 7.181 22.2122 7.89035 22.2122 7.89035L22.0062 8.22095L21.2959 8.30425C21.2959 8.30425 21.1721 10.3347 21.1721 10.664C21.1721 10.9933 21.1799 11.2419 19.8492 11.2419H18.0232C18.0232 11.2419 17.2711 12.5213 16.9818 13.7266L16.6924 14.9318L12.626 12.3235C12.626 12.3235 14.1626 9.95593 14.246 9.70733C14.3282 9.46004 17.395 3.45203 17.395 3.45203L21.5852 3.66548H21.5839Z" fill="#FFBC79"/>
<path fill-rule="evenodd" clip-rule="evenodd" d="M19.3395 7.8904H18.6005C18.6005 7.8904 18.6865 7.67304 18.4285 6.98581C18.1704 6.29859 17.3011 6.47039 17.129 7.24352C16.957 8.01665 16.4408 10.7851 16.4408 10.7851L13.7637 10.3556C13.7637 10.3556 13.8498 8.54248 12.9804 6.98581C12.1111 5.43045 11.7761 5.43045 11.7761 5.43045C11.7761 5.43045 12.4643 3.87508 12.7224 2.92884C12.9804 1.98391 12.8175 1.11577 14.1078 0.858058C15.3995 0.600349 19.1179 -0.697308 20.7615 0.943962C22.4063 2.58523 23.5155 3.53928 21.709 3.79829C19.9012 4.056 19.8061 4.04689 19.6341 5.51635C19.462 6.98581 19.376 7.8917 19.376 7.8917H19.3408L19.3395 7.8904Z" fill="#908626"/>
<path fill-rule="evenodd" clip-rule="evenodd" d="M17.0353 7.74979C16.8163 8.83399 16.4396 10.785 16.4396 10.785L13.7625 10.3555C13.7625 10.3555 13.8485 8.54244 12.9792 6.98578C12.9062 6.85562 12.8371 6.73588 12.772 6.62524L17.0366 7.74979H17.0353Z" fill="#906926"/>
<path fill-rule="evenodd" clip-rule="evenodd" d="M14.0297 2.70111C13.9932 2.15966 13.9476 1.75228 14.8274 1.57656C16.119 1.31886 19.8375 0.0211977 21.481 1.66247C21.5501 1.73015 21.6035 1.79783 21.6843 1.86421C19.9847 0.355699 16.3875 1.61431 15.1193 1.86811C14.4442 2.00348 14.1783 2.30804 14.0297 2.70111Z" fill="#B49126"/>
</g>
<defs>
<clipPath id="clip0_529_4902">
<rect width="31.3966" height="83.4344" fill="white" transform="translate(0.769287 0.126587)"/>
</clipPath>
</defs>
</svg>
