<?xml version="1.0" encoding="utf-8"?>
<!-- Generator: Adobe Illustrator 27.5.0, SVG Export Plug-In . SVG Version: 6.00 Build 0)  -->
<svg version="1.1" id="Layer_1" xmlns="http://www.w3.org/2000/svg" xmlns:xlink="http://www.w3.org/1999/xlink" x="0px" y="0px"
	 viewBox="0 0 735 512.3" style="enable-background:new 0 0 735 512.3;" xml:space="preserve">
<style type="text/css">
	.st0{clip-path:url(#SVGID_00000049915245399690740040000000371871001258881975_);fill:#FFFFFF;}
	.st1{clip-path:url(#SVGID_00000049915245399690740040000000371871001258881975_);fill:#80CFD8;}
	.st2{clip-path:url(#SVGID_00000049915245399690740040000000371871001258881975_);fill:#263238;}
	.st3{clip-path:url(#SVGID_00000049915245399690740040000000371871001258881975_);fill:#2D2D2D;}
	.st4{clip-path:url(#SVGID_00000049915245399690740040000000371871001258881975_);}
	.st5{clip-path:url(#SVGID_00000001653711093067794250000006124695512004181920_);}
	.st6{fill:#E1D4CB;}
	.st7{fill:#B9B0A9;}
	.st8{fill:#2D2D2D;}
	.st9{fill:#EBABA2;}
	.st10{fill:#05516B;}
	.st11{fill:#0E6BA7;}
	.st12{fill:none;stroke:#F5D2A8;stroke-width:0.48;stroke-miterlimit:10;}
	.st13{fill:#171719;}
	.st14{fill:#00517D;}
	.st15{fill:#FCFDFF;}
	.st16{fill:#175A80;}
	.st17{fill:#D7D7D5;}
	.st18{fill:#F7E6D7;}
	.st19{fill:#1B2035;}
	.st20{fill:#2B2B2B;}
	.st21{fill:#FFFFFF;}
	.st22{clip-path:url(#SVGID_00000021091571768478870720000007404702700244888751_);}
	.st23{clip-path:url(#SVGID_00000181775575738097578500000003587686322697786300_);}
	.st24{fill:#001A2D;}
	.st25{fill:#FFC600;}
	.st26{clip-path:url(#SVGID_00000040552033098561266500000005724179240169396924_);}
	.st27{fill:#C75E21;}
	.st28{fill:#F56100;}
</style>
<g>
	<defs>
		<rect id="SVGID_1_" width="735" height="512.3"/>
	</defs>
	<clipPath id="SVGID_00000122714868160186845810000005638327208843728300_">
		<use xlink:href="#SVGID_1_"  style="overflow:visible;"/>
	</clipPath>
	<path style="clip-path:url(#SVGID_00000122714868160186845810000005638327208843728300_);fill:#FFFFFF;" d="M1315,4v148.1
		c-0.7-0.3-671.4-0.5-672.1-0.8c-10.2-3.8-23.4-5.5-30.9,2.1c-3,3-4.6,7.2-8.1,9.7c-8.9,6.5-21.5-1.7-32.6-0.7
		c-13.6,1.2-21,15.4-25.3,27.7c-4.2,12.3-9.8,26.7-23,30.2c-16.7,4.4-31.3-12-48.3-15.5c-17.2-3.6-36.1,9-38.5,25.4
		c-1.3,9.2,1.8,19.3-2.6,27.6c-5.5,10.4-20.6,13.1-32.4,9.6c-11.8-3.5-21.3-11.5-31.5-17.9c-10.2-6.5-22.7-11.7-34.6-8.8
		c-13.5,3.3-25.1,16.7-38.4,12.8c-15.6-4.5-15.1-27.4-28.5-36.1c-20.7-13.4-48.7,17.8-71.6,8.2c-19.4-8.2-19.6-39.9-40.3-44.3
		c-18.1-3.8-35.5,18-52.7,11.4c-11.9-4.6-14.2-19.6-23-28.5c-13.5-13.8-708.4,0-724.5-10.8V0L1315,4z"/>
	<path style="clip-path:url(#SVGID_00000122714868160186845810000005638327208843728300_);fill:#80CFD8;" d="M198.2,67.1
		c-1.7-2.8-5.4-3.4-8.6-3.7c-11.7-1-23.6-0.6-35.2,1.2c-4.1,0.7-10,0.3-10.4-3.9c-0.2-2.4,2-4.5,4.3-5.4c4-1.5,8.4-0.8,12.7-0.9
		c4.3-0.1,9.1-1.5,10.8-5.4c2.6-5.9-4.2-12.1-10.6-13c-6.4-0.9-13.1,0.8-19.3-1.1l-13.5,0.3c-9.9,0.2-19.9,1.6-29.4,4.3
		c-2.7,0.7-5.8,2.2-6,5c-0.2,2.7,2.6,4.6,3.9,7c2.6,4.8-1.6,10.9-6.8,12.8c-5.1,1.9-10.8,1.1-16.3,1.6c-5.5,0.4-11.6,2.7-13.4,7.9
		c-1.4,4.1,0.3,8.7-1,12.9c-1.6,5.3-7.4,8-12.8,9c-5.4,1-11.1,0.8-16.1,3.1c-7.3,3.3-11.7,12-10.1,19.8c1.6,7.8,9,14.1,17,14.2
		c3.9,0.1,7.7-1.1,11.5-1.3c2.8-0.1,5.9,0.4,8.1,2c0.5,8.2,6.1,16.2,14.2,18.4c5.3,1.4,11.1,0.5,16.5,1.7c5.4,1.1,11,5.8,10,11.2
		c-0.7,3.9-4.6,6.7-4.9,10.7c-0.4,4.8,4.8,8.3,9.7,8.8c4.8,0.4,9.6-1.1,14.5-0.8c4.8,0.3,10.2,3.4,10.3,8.2
		c0.1,5.4-6.2,9.2-6.3,14.5c-0.1,4.5,4.2,7.8,8.4,9.4c4.2,1.6,8.9,2.5,12.2,5.5c3.3,3,3.9,9.6-0.2,11.4c6.7-0.2,10.6-9.9,6-14.7
		c-2.8-3-7.7-3.8-9.9-7.2c-2.5-3.9-0.3-9.2,3.2-12.2c3.5-2.9,8.1-4.2,12.3-6.1c4.2-1.9,8.4-4.9,9.5-9.3c1.6-6.7-4.8-13-11.5-14.5
		c-6.7-1.5-13.7,0.2-20.6,0.6c-6.9,0.4-14.7-1-18.6-6.7c7.5-3.6,15-7.1,22.5-10.7c2-1,4.3-2.2,5-4.3c1.3-3.9-3.2-7-6.8-8.7
		c-4.9-2.2-9.8-4.4-14.6-6.6c-0.1-0.9-0.2-1.8-0.6-2.6c8.9-3.7,18.9-2.3,28.4-1c9.5,1.3,19.7,2.3,28.3-2c8.6-4.3,14.1-16,8.6-23.8
		c-3-4.2-8.7-7.1-8.9-12.3c-0.1-4.3,4-7.5,8-8.9c4.1-1.4,8.5-1.6,12.3-3.7C197.7,75.7,200.4,70.7,198.2,67.1L198.2,67.1z"/>
	<path style="clip-path:url(#SVGID_00000122714868160186845810000005638327208843728300_);fill:#263238;" d="M121.4,91.6
		c0,4-3.2,7.3-7.3,7.3s-7.3-3.3-7.3-7.3c0-4,3.3-7.3,7.3-7.3S121.4,87.6,121.4,91.6z"/>
	<path style="clip-path:url(#SVGID_00000122714868160186845810000005638327208843728300_);fill:#263238;" d="M99.1,91.6
		c0,4-3.2,7.3-7.3,7.3c-4,0-7.3-3.3-7.3-7.3c0-4,3.3-7.3,7.3-7.3C95.9,84.4,99.1,87.6,99.1,91.6z"/>
	<path style="clip-path:url(#SVGID_00000122714868160186845810000005638327208843728300_);fill:#263238;" d="M136.7,98.9
		c4,0,7.3-3.3,7.3-7.3c0-4-3.3-7.3-7.3-7.3c-4,0-7.3,3.3-7.3,7.3C129.4,95.7,132.7,98.9,136.7,98.9z"/>
	<path style="clip-path:url(#SVGID_00000122714868160186845810000005638327208843728300_);fill:#263238;" d="M506.6,81.3l21.4,9
		c0,0,7.5-18,26.3-10.5c9.8,3.9,12.1,12.4,12.1,18.1c0,6.7-3.4,12.8-8.8,16.7c-6.1,4.5-16.4,6.6-29.7-2l-20.2,48.3l21.2,8.9
		l11.8-28.3c0,0,32.9,4.8,46.6-27.9c13.1-31.3-11.9-50.3-23.9-55.4C554.2,54.3,522,43.4,506.6,81.3L506.6,81.3z"/>
	<path style="clip-path:url(#SVGID_00000122714868160186845810000005638327208843728300_);fill:#263238;" d="M524.9,179.8l-21.5-9
		l-8.4,20.1l21.5,9L524.9,179.8z"/>
	<path style="clip-path:url(#SVGID_00000122714868160186845810000005638327208843728300_);fill:#263238;" d="M373.5,206.2l-9.6,3.9
		c0,0,3.3,8.1-5,11.6c-4.3,1.9-7.7-0.1-9.5-1.9c-2.1-2.1-3-5.1-2.5-8c0.5-3.3,3.1-7.2,10-8.8l-8.8-21.6l-9.5,3.9l5.2,12.7
		c0,0-11.9,8.9-5.9,23.5c5.7,14,19.6,12.1,25,9.9C367,229.8,380.6,223,373.5,206.2L373.5,206.2z"/>
	<path style="clip-path:url(#SVGID_00000122714868160186845810000005638327208843728300_);fill:#263238;" d="M336.7,180.9l9.6-3.9
		l-3.7-9l-9.6,3.9L336.7,180.9z"/>
	<path style="clip-path:url(#SVGID_00000122714868160186845810000005638327208843728300_);fill:#2D2D2D;" d="M233.7,131.8V142h-15.2
		v-10.2h2.5V117l-7.2,14l-7.1-14v14.8h2.5V142h-15.2v-10.2h2.5v-25.3h-2.5V96.3H206l7.8,14.1l8-14.1h11.9v10.2h-2.5v25.3H233.7z"/>
	<path style="clip-path:url(#SVGID_00000122714868160186845810000005638327208843728300_);fill:#2D2D2D;" d="M259.4,119.2h4.7
		l-2.4-11L259.4,119.2z M279.4,131.9V142h-15.2v-10.1h2.5l-0.5-2.6h-9l-0.5,2.6h2.5V142H244v-10.1h2.5l5.4-25.4H249V96.4h25.3v10.1
		h-2.8l5.4,25.4H279.4z"/>
	<path style="clip-path:url(#SVGID_00000122714868160186845810000005638327208843728300_);fill:#2D2D2D;" d="M319.8,136.9l-5.1,5.1
		H295l-5.1-5.1v-10.2h10.2v5.1h9.5v-7.6H295l-5.1-5.1v-17.8l5.1-5.1h19.7l5.1,5.1v10.2h-10.2v-5.1h-9.5v7.6h14.6l5.1,5.1V136.9z"/>
	<path style="clip-path:url(#SVGID_00000122714868160186845810000005638327208843728300_);fill:#2D2D2D;" d="M345.5,119.2h4.7
		l-2.4-11L345.5,119.2z M365.6,131.9V142h-15.2v-10.1h2.5l-0.5-2.6h-9l-0.5,2.6h2.5V142h-15.2v-10.1h2.5l5.4-25.4h-2.9V96.4h25.3
		v10.1h-2.8l5.4,25.4H365.6z"/>
	<path style="clip-path:url(#SVGID_00000122714868160186845810000005638327208843728300_);fill:#2D2D2D;" d="M405.2,126.8V142h-28.8
		v-10.1h2.5v-25.4h-2.5V96.4h15.2v10.1H389v25.4h5.9v-5.1H405.2z"/>
	<path style="clip-path:url(#SVGID_00000122714868160186845810000005638327208843728300_);fill:#2D2D2D;" d="M430.9,119.2h4.7
		l-2.4-11L430.9,119.2z M451,131.9V142h-15.2v-10.1h2.5l-0.5-2.6h-9.1l-0.5,2.6h2.5V142h-15.2v-10.1h2.5l5.4-25.4h-2.9V96.4h25.3
		v10.1h-2.8l5.4,25.4H451z"/>
	<path style="clip-path:url(#SVGID_00000122714868160186845810000005638327208843728300_);fill:#2D2D2D;" d="M496.6,131.8V142h-15.2
		v-10.2h2.6v-7.6h-9.4v7.6h2.5V142h-15.2v-10.2h2.5v-25.3h-2.5V96.3H477v10.2h-2.5v7.6h9.4v-7.6h-2.6V96.3h15.2v10.2H494v25.3H496.6
		z"/>
	<g style="clip-path:url(#SVGID_00000122714868160186845810000005638327208843728300_);">
		<defs>
			<rect id="SVGID_00000094595845545526645040000000412519100164956858_" x="282" y="323.9" width="190" height="167"/>
		</defs>
		<clipPath id="SVGID_00000060752387422597825430000002167254776573453224_">
			<use xlink:href="#SVGID_00000094595845545526645040000000412519100164956858_"  style="overflow:visible;"/>
		</clipPath>
		<g style="clip-path:url(#SVGID_00000060752387422597825430000002167254776573453224_);">
			<path class="st6" d="M299.3,401.5l140.6-5.3l32.1,16.2l-190,8.6L299.3,401.5z"/>
			<path class="st7" d="M471.9,412.3l-189.8,8.4l0.1,2.8l189.8-8.4L471.9,412.3z"/>
			<path class="st8" d="M465.4,415v63.1l-26.5-27.8v-33.7H437v33.7l11.3,12.6l-148.8,11.3l5-13.9l-1.6-39.4l-2.4,0.1l1.6,39.4
				c-0.2,0.4-8.6,22-11.2,28.5l-5-65.8l-2.4,0.2l5.1,67.6l1.6-0.1h3.4l5.4-15.1v0l150.6-11.4l15.9,17.7v0.2h0.2l0.4,0.4h1.8V415
				L465.4,415L465.4,415z"/>
			<path class="st9" d="M390,440.9l3.4,2.9l-9,1.9l-0.7-3.4L390,440.9z"/>
			<path class="st9" d="M371.7,445.3l-6.4,6.1l5.2,3.9l5.3-1.7l0.7-4.2L371.7,445.3z"/>
			<path class="st10" d="M368.1,407.2c-3.5,2.4-4.4,7.2-2,10.8l8.3,12.3l6.8,10.1l2.8,4.2l7.5-3l-6.4-11.3l-7.1-12.7l-1-1.7
				c-0.2-0.4-0.1-0.8,0.2-1.1l2-1.7l14.9-12.4l-13.4-2.1L368.1,407.2L368.1,407.2z"/>
			<path class="st11" d="M414.5,400.3L414.5,400.3l0.9-0.3l1.7,11.5l0,0.2c4.5,1.6,10.7-2.4,10.7-2.4l-1.6-16.6l-10.4,6.7
				L414.5,400.3L414.5,400.3z"/>
			<path class="st11" d="M407.1,383.8c0,0.1,0,0.3,0,0.4c0,0.6,0,1.1,0.1,1.6c0,0.1,0,0.3,0,0.4c0,0.4,0,0.7,0.1,1
				c0,0.1,0,0.3,0,0.4c0,0.1,0,0.2,0,0.3c0,0.1,0,0.1,0,0.2c0,0.3,0.1,0.6,0.1,0.8c0,0.1,0,0.1,0,0.2c0,0.1,0,0.2,0.1,0.3
				c0,0.1,0,0.1,0,0.2c0.1,0.2,0.1,0.5,0.2,0.7c0,0.1,0,0.1,0,0.2c0.1,0.3,0.2,0.6,0.3,0.8c0,0.1,0.1,0.1,0.1,0.2c0,0,0,0.1,0.1,0.1
				c0,0,0,0.1,0,0.1c0,0,0,0.1,0.1,0.1c0,0,0.1,0.1,0.1,0.1c0,0,0,0,0,0c0,0,0,0,0,0l1.6,2.1l2.5-1l2-0.8l1.5,7.1l10.4-6.7l6.3-4
				c2.3-18.8-4.6-34-4.6-34c-0.1,0-0.1,0-0.2,0c-7.5-1.5-14.8-8.3-14.8-8.3l-0.1,0.5l-1.1,5.2l-3.8,19.1
				C407.2,376.6,407,380.7,407.1,383.8L407.1,383.8z"/>
			<path class="st12" d="M410,394.1l1,1.4l3.5,4.8l1.4-0.9l-1.5-7.1l-1.9,0.8L410,394.1z"/>
			<path class="st11" d="M387.2,378l0.5,16.5l11.8,1.8c0,0,0-0.2,0-0.5c-0.2-2.5-0.7-13.3-0.2-19.7l3.3-29c0,0-3.6,5-8.4,4.8
				c0,0-2.8-1.1-4.3,16.7L387.2,378z"/>
			<path class="st13" d="M410,394.1l-1.2,0.5l1.1,2l2.7,4.9l1.8-1.2l1.4-0.9l-1.5-7.1l-1.9,0.8L410,394.1z"/>
			<path class="st14" d="M374.4,430.3l3.5-12.8l1.2-4.5l1.2-4.3c0.5-1.8,1.8-3.2,3.5-3.9l10.2-4.2l8.5-3.5l6.2-2.6l1.1,2l2.7,4.9
				l1.8-1.2l0.1,0.1l0.9-0.3l1.7,11.5c-3.6,0.8-14.5,3-26,4.5c-0.4,0.1-0.7,0.3-0.9,0.7l-5.2,13.6l-3.9,10.1l-4.5,11.6l-7-5
				L374.4,430.3L374.4,430.3z"/>
			<path class="st15" d="M399.5,395.7l3.1,1.4l6.2-2.6l1.1,2l1.1-1.1l1.4-1.5l0.1-1l-2.5,1l-1.6-2.1c0,0,0,0,0,0c0,0,0-0.1-0.1-0.1
				c-0.1-0.2-0.3-0.5-0.4-1c0,0,0-0.1,0-0.1c0-0.1-0.1-0.2-0.1-0.3c0,0,0-0.1,0-0.1c0-0.1,0-0.1-0.1-0.2c0-0.1,0-0.2-0.1-0.3
				c0-0.1,0-0.1-0.1-0.2c0,0,0-0.1,0-0.1c-0.1-0.3-0.1-0.6-0.2-0.9c0-0.1,0-0.1,0-0.2c-0.1-0.3-0.1-0.6-0.1-0.9c0-0.1,0-0.2,0-0.4
				c0,0,0-0.1,0-0.1c0-0.1,0-0.3,0-0.4c0-0.2,0-0.5-0.1-0.7c0-0.1,0-0.1,0-0.2c0,0,0,0,0,0c0-0.1,0-0.2,0-0.4c0-0.1,0-0.2,0-0.3
				c0-0.1,0-0.2,0-0.3c0-0.3,0-0.5,0-0.8c0-0.1,0-0.1,0-0.2c0-0.7,0-1.4,0-2.1c0-0.1,0-0.3,0-0.4c0-0.5,0-0.9,0.1-1.4
				c0-0.5,0.1-1.1,0.1-1.7c0.1-2,0.4-4.3,0.7-7l5-24.8l-10.4,0.7l-3.3,29C398.8,382.4,399.4,393.2,399.5,395.7L399.5,395.7z"/>
			<path class="st16" d="M392.2,359c0,0,1.9,33.6,2.8,35.1c0,0,0.6-28.4,0.4-30.4l-0.8,12.4L392.2,359z"/>
			<path class="st17" d="M375.1,385.9l5.7,13.6c0.1,0.2,0.2,0.3,0.4,0.3l28.5,2.5l-0.7-1.7l-1.5-3.9l-0.6-1.7l-2.8-7.2
				c-0.1-0.2-0.2-0.3-0.4-0.3l-28.1-2.3C375.3,385.2,375,385.6,375.1,385.9L375.1,385.9z"/>
			<path class="st18" d="M407.6,396.7l1.5,3.9l0.7,1.7l5.8-5.2c0.2-0.1,0.1-0.4-0.2-0.4L407.6,396.7L407.6,396.7z"/>
			<path class="st9" d="M406.9,395.1l0.6,1.7l1.5,3.9c0.7-0.2,2.6-0.7,4.5-2c0.6-0.5,0.7-1.1,0.4-1.9c-0.7-1.9-3.3-4.1-3.3-4.1
				L406.9,395.1z"/>
			<path class="st14" d="M407.6,392.3l1.3,2.3l1.1,2l2.7,4.9l1.8-1.2l1.4-0.9l10.4-6.7l6.3-4c2.3-18.8-4.6-34-4.6-34
				c0,0-0.1,0-0.2,0c-6-1.1-7.8,9.6-7.8,9.6l3.9,18.3l-15.7,9.3L407.6,392.3L407.6,392.3z"/>
			<path class="st19" d="M390.9,328.4c0.4,2.5,2.2,4,4.5,4.9c1.4,0.5,2.9,0.5,4.4,0.5c0.9,0,1.7-0.2,2.6-0.3c0.2,0,0.4-0.1,0.6,0
				c0.3,0.2,0.4,0.5,0.3,0.9c-0.1,0.5-0.2,1,0.2,1.5c0.2,0.2,0.4,0.3,0.7,0.3c0.6,0,1.2-0.3,1.8-0.6c0.5-0.3,0.9-0.5,1.5-0.5
				c0.2,0,0.3,0,0.4,0.2c0.1,0.1,0.1,0.3,0,0.4c-0.1,1-0.4,1.8-0.4,2.8c-0.1,1.1,0.9,1.7,1.9,1.1c0,0,0,0,0,0
				c0.6-0.5,1.3-1.2,1.9-1.7c0.3-0.2,0.7-0.4,1-0.3c0.3,0.1,0.4,0.4,0.5,0.7c0.2,0.6,0.2,1.1,0.2,1.7c0,0.4-0.2,0.8-0.3,1.2
				c0,0.1-0.1,0.2-0.2,0.3c-0.2,0.5,0,1,0.5,1.2c0.1,0,0.2,0,0.2,0c0.7-0.1,1.4-0.3,2.1-0.7c2.1-1.3,3.8-3.2,3.7-5.8
				c0-1.7-1-2.9-1.8-4.3c-0.5-0.9-1.1-1.7-1.8-2.4c-0.9-0.9-1.9-1.7-3-2.4c-0.6-0.4-1.3-0.8-2-1c-0.5-0.1-1.1,0-1.7,0.1
				c-0.9,0.1-1.7,0.3-2.6,0.5c-2.1,0.5-4.1,1.5-6.3,1.1c-1.2-0.2-2.1-1-3-1.8c-1.1-1.1-1.9-2.4-3.6-2.2c-0.6,0.1-1.2,0.4-1.5,1
				C391.2,325.9,390.7,327.1,390.9,328.4L390.9,328.4z"/>
			<path class="st9" d="M398.9,343.9c0.2,1.7-0.2,4.4,0.7,5.8c0.8,1.4,3.1,0.2,4.2,0.2c0,0.3-0.1,0.7-0.1,1h0
				c-0.1,1.1-0.3,2.4-0.4,3.4c-0.1,1.2,0.1,2,0.6,3c0.1,0.2,0.3,0.5,0.4,0.7c1.2,1.4,2.9,1.9,4.1,0c1.2-1.8,2.3-4,3.5-6l1.1-5.2
				c0.1-1.2,0.1-2.5,0.1-3.7c0-0.1,0.1-0.2,0.1-0.4c-0.1,0-0.2-0.1-0.3-0.1c0,0,0,0-0.1,0c0,0,0,0,0,0c0,0-0.1-0.1-0.1-0.1
				c0-0.1-0.1-0.1-0.1-0.2c0-0.1,0-0.1,0-0.2c0-0.1,0-0.3,0-0.4c0,0,0-0.1,0-0.1c0-0.1,0.1-0.2,0.2-0.3c0,0,0,0,0-0.1
				c0-0.1,0-0.1,0.1-0.1c0,0,0-0.1,0.1-0.1c0,0,0,0,0,0c0,0,0,0,0,0c0,0,0-0.1,0.1-0.2c0,0,0-0.1,0.1-0.2s0-0.1,0-0.1v0c0,0,0,0,0,0
				c0,0,0-0.1,0-0.2c0,0,0,0,0,0s0,0,0,0c0,0,0-0.2,0-0.2c0,0,0,0,0,0c0-0.1,0-0.1,0-0.2c0,0,0-0.1,0-0.1c0-0.1,0-0.1,0-0.2
				c0-0.2,0-0.4,0-0.5c0-0.1,0-0.1,0-0.2c0-0.2-0.1-0.4-0.1-0.6c-0.1-0.2-0.1-0.4-0.2-0.5c0,0,0,0,0,0c-0.1,0-0.1-0.1-0.2-0.1
				c-0.2-0.1-0.3,0-0.5,0c-0.1,0-0.2,0.1-0.4,0.2c0,0-0.1,0-0.1,0.1c-0.6,0.5-1.2,1.1-1.8,1.6c0,0-0.1,0.1-0.1,0.1c0,0,0,0,0,0
				c0,0,0,0,0,0c-0.7,0.4-1.3,0.3-1.7-0.2c0,0,0-0.1-0.1-0.1c-0.1-0.2-0.2-0.5-0.2-0.8c0.1-0.9,0.3-1.6,0.4-2.5c0-0.1,0-0.2,0-0.4
				c0-0.1,0-0.2,0-0.3c0,0,0-0.1,0-0.1c0,0,0,0,0,0c0,0,0,0,0,0c0,0,0,0,0,0c-0.1-0.1-0.2-0.1-0.4-0.1c0,0-0.1,0-0.1,0
				c0,0,0,0-0.1,0c0,0-0.1,0-0.1,0c-0.1,0-0.1,0-0.2,0c0,0-0.1,0-0.1,0c0,0-0.1,0-0.1,0c-0.2,0.1-0.3,0.1-0.5,0.2
				c-0.1,0.1-0.2,0.1-0.3,0.2c-0.1,0.1-0.2,0.1-0.3,0.2c-0.1,0-0.1,0.1-0.2,0.1c-0.1,0-0.2,0.1-0.3,0.1c0,0-0.1,0-0.1,0
				c-0.1,0-0.1,0-0.2,0.1c0,0-0.1,0-0.1,0c0,0,0,0,0,0c-0.2,0-0.4,0.1-0.5,0c0,0-0.1,0-0.1,0c-0.1,0-0.2,0-0.3-0.1
				c-0.1,0-0.1-0.1-0.2-0.1c-0.1,0-0.1-0.1-0.1-0.1c0,0-0.1-0.1-0.1-0.1c0,0,0-0.1-0.1-0.1c-0.2-0.3-0.1-0.6-0.1-0.9
				c0-0.1,0-0.2,0-0.4c0-0.1,0-0.3,0-0.4c0,0,0-0.1,0-0.1c0,0,0,0,0,0c0-0.1-0.1-0.2-0.2-0.3c0,0,0,0-0.1-0.1
				c-0.1,0-0.1-0.1-0.2-0.1c-0.1,0-0.3,0-0.4,0c-0.3,0-0.6,0.1-1,0.1c-0.5,0.1-1,0.1-1.4,0.1c-0.1,0-0.1,0-0.2,0
				c-0.7,1.5-0.7,3.2-0.9,4.8C398.4,340.4,398.3,342.1,398.9,343.9L398.9,343.9z"/>
			<path class="st13" d="M376.9,452.1v4.8l-4,2.5l-0.7-1c0,0,0.1,2.6-8.2,5c-6.3,1.8-10.2,0.4-11.8-0.4c-0.5-0.2-0.8-0.8-0.7-1.3
				c0.1-1,0.5-2.7,1.5-3.3c1.4-0.8,7.2-1.9,12.8-8.8c0.3-0.3,0.7-0.3,1,0c1.2,1.4,4.4,4.3,9.5,2.1
				C376.7,451.7,376.9,451.9,376.9,452.1L376.9,452.1z"/>
			<path class="st13" d="M378.5,454.9c3-5.7,15.4-5.4,15.4-5.4l4.2-1.9l-4.9-4.5l-9.1,1.6l-1.7,4.9
				C377,451.4,378.5,454.8,378.5,454.9L378.5,454.9z"/>
			<path class="st20" d="M378.5,454.9c2.8,6.3,11.1,0,11.1,0c1.1-1.5,2.7-0.8,2.7-0.8c7.9-1.4,5.8-6.5,5.8-6.5l-4.2,1.9
				C393.9,449.4,381.5,449.2,378.5,454.9L378.5,454.9z"/>
			<path class="st21" d="M390.4,395c0.3,0.9,1.2,1.7,2.2,1.7c1,0.1,1.6-0.6,1.5-1.6c-0.2-1-1.2-1.9-2.3-1.9S390.1,394,390.4,395
				L390.4,395z"/>
		</g>
	</g>
	<g style="clip-path:url(#SVGID_00000122714868160186845810000005638327208843728300_);">
		<defs>
			<rect id="SVGID_00000094575612348412537400000004343092195375294851_" x="339" y="269.9" width="38" height="54"/>
		</defs>
		<clipPath id="SVGID_00000178183540633819228280000011436598349679309743_">
			<use xlink:href="#SVGID_00000094575612348412537400000004343092195375294851_"  style="overflow:visible;"/>
		</clipPath>
		<g style="clip-path:url(#SVGID_00000178183540633819228280000011436598349679309743_);">
			<path class="st21" d="M373.7,323.4c2.8-1.3,4.1-4.5,2.8-7.3c-1.3-2.8-4.6-4.1-7.4-2.8c-2.8,1.3-4.1,4.5-2.8,7.3
				C367.5,323.4,370.9,324.6,373.7,323.4z"/>
			<path class="st21" d="M362,304.1c3.2-1.4,4.7-5.2,3.2-8.5c-1.5-3.2-5.3-4.7-8.5-3.2c-3.2,1.4-4.7,5.2-3.2,8.5
				C354.9,304.1,358.7,305.6,362,304.1z"/>
			<path class="st21" d="M351.2,286.3c4.4-1.9,6.3-7,4.4-11.3c-2-4.3-7.1-6.3-11.4-4.3c-4.4,1.9-6.3,7-4.4,11.3
				C341.7,286.3,346.8,288.2,351.2,286.3z"/>
		</g>
	</g>
	<g style="clip-path:url(#SVGID_00000122714868160186845810000005638327208843728300_);">
		<defs>
			<rect id="SVGID_00000075871933211005573670000011343167686603261859_" x="447" y="251.9" width="288" height="205"/>
		</defs>
		<clipPath id="SVGID_00000163043010776975067880000016933082371770125491_">
			<use xlink:href="#SVGID_00000075871933211005573670000011343167686603261859_"  style="overflow:visible;"/>
		</clipPath>
		<g style="clip-path:url(#SVGID_00000163043010776975067880000016933082371770125491_);">
			<path class="st24" d="M662.6,437.3l-59.3-170.1l-1.2,0.8l-25.7-16.1L556.6,275l-29.2-7l-10.9,28.7l-67.6-14.4l41.7,50.4
				l-21.2,21.6l21.2,21.6l-3.6,30.5l29.5,5.6l10.9,28.7l29.3-7l19.9,23.1l25.7-16.1l25.7,16.1l19.9-23.1L662.6,437.3z"/>
			<path class="st25" d="M735,351.2l-21.2,21l3.6,29.5l-29.5,5.4L676.9,435l-29.2-6.8l-19.9,22.4L602.1,435l-25.7,15.6l-19.9-22.4
				l-29.3,6.8l-10.9-27.8l-29.5-5.4l3.6-29.6l-21.2-21l21.2-21l-43.4-50l69.4,15l10.9-27.8l29.2,6.8l19.9-22.4l25.7,15.6l25.7-15.6
				l19.9,22.4l29.3-6.8l10.9,27.8l29.5,5.4l-3.6,29.5L735,351.2z"/>
			<path class="st21" d="M543,323.4l-0.9,5h6.6l-1.1,6.9H541l-1.6,9.4h-7.1l1.6-9.4h-5.8l-1.5,9.4h-7.2l1.6-9.4h-6.6l1.1-6.9h6.6
				l0.9-5h-6.7l1.1-6.9h6.7l1.6-9.4h7.1l-1.6,9.4h5.8l1.6-9.4h7.1l-1.6,9.4h6.6l-1.1,6.9H543L543,323.4z M535.9,323.4h-5.8l-0.9,5
				h5.8L535.9,323.4z M573.5,348.6v5.5h-4.4v-5.4c-7.1-0.5-12.3-4.1-14.6-10.1l8.7-5c1.3,3,3.1,4.8,5.9,5.3v-8.6
				c-0.2-0.1-0.6-0.2-0.8-0.3c-5.4-2.2-12-5.2-12-13.6c0-8.4,6.2-12.3,12.8-13v-5.4h4.4v5.6c5.4,0.7,9.9,3.6,12.3,9.1l-8.5,4.9
				c-0.8-2.2-2.1-3.4-3.9-4.1v8.4c5.4,2.3,12.8,4.4,12.8,13.5C586.4,343.1,581,347.7,573.5,348.6L573.5,348.6z M569.1,319.7v-6.6
				c-1.8,0.4-2.8,1.6-2.8,3.1C566.4,317.4,566.9,318.4,569.1,319.7z M576.3,335.4c0-1.6-0.9-2.5-2.8-3.4v6.7
				C575.6,338.1,576.3,336.7,576.3,335.4z M591.4,313.8c0-5.9,4.6-10.6,10.9-10.6s10.8,4.6,10.8,10.6c0,6.1-4.6,10.6-10.8,10.6
				C596.1,324.4,591.4,319.7,591.4,313.8z M624.9,309.6l4.1,2.4l-28.3,31.3l-4.1-2.4L624.9,309.6z M605.6,313.8
				c0-1.9-1.4-3.4-3.4-3.4c-2,0-3.3,1.5-3.3,3.4s1.4,3.4,3.3,3.4C604.2,317.2,605.6,315.6,605.6,313.8z M613.7,337.9
				c0-5.9,4.6-10.6,10.9-10.6s10.8,4.8,10.8,10.6c0,5.9-4.6,10.6-10.8,10.6C618.4,348.6,613.7,343.8,613.7,337.9z M627.9,337.9
				c0-1.9-1.4-3.4-3.4-3.4s-3.3,1.5-3.3,3.4c0,1.9,1.4,3.4,3.3,3.4C626.5,341.4,627.9,339.7,627.9,337.9z M685.9,330.9
				c0,9-4.3,13.7-10.3,13.7c-4.4,0-7.3-1.9-8.6-4.9c-1.4,1.7-3.5,2.8-6,2.8c-5.3,0-8.9-4.4-8.9-10.3c0-5.9,3.6-10.3,8.9-10.3
				c2.1,0,4,0.8,5.4,2.1v-1.3h7.7v14.8c0,2.6,1.1,4.1,3.5,4.1c3.4,0,5.8-3.4,5.8-10.6c0-10.8-8.5-19.1-19.4-19.1
				c-11,0-20.3,8.9-20.3,20.4c0,11.5,9,20.4,21.4,20.4c3.9,0,7.1-0.5,10-1.5v2.4c-2.8,0.9-6,1.4-10,1.4c-13.7,0-23.9-9.5-23.9-22.6
				c0-13.1,9.8-22.6,22.8-22.6C677.9,309.5,685.9,320.6,685.9,330.9L685.9,330.9z M666.3,332.2c0-2.1-1.3-3.6-3.2-3.6
				c-1.9,0-3.2,1.4-3.2,3.6s1.3,3.6,3.2,3.6C665.1,335.7,666.3,334.2,666.3,332.2z M565.8,378.4l-0.9,5h6.6l-1.1,6.9h-6.7l-1.6,9.4
				h-7.2l1.6-9.4h-5.8l-1.6,9.4h-7.1l1.6-9.4h-6.6l1.1-6.9h6.6l0.9-5H539l1.1-6.9h6.7l1.6-9.4h7.2l-1.6,9.4h5.8l1.6-9.4h7.1
				l-1.6,9.4h6.6l-1.1,6.9H565.8L565.8,378.4z M558.7,378.4h-5.8l-0.9,5h5.8L558.7,378.4z M578.8,397.8c0-3.3,2.7-5.9,6-5.9
				s5.9,2.7,5.9,5.9c0,3.3-2.7,5.9-5.9,5.9S578.8,401,578.8,397.8z M579.2,371.6V359h11.3v12.5l-1.9,15.6h-7.5L579.2,371.6
				L579.2,371.6z M597.7,397.8c0-3.3,2.7-5.9,6-5.9s6,2.7,6,5.9c0,3.3-2.7,5.9-6,5.9S597.7,401,597.7,397.8z M598,371.6V359h11.3
				v12.5l-1.9,15.6h-7.5L598,371.6L598,371.6z M635.6,370.3l-5.6-0.6l3.4,4.3l-4.6,2.9l-2.6-5.3l-2.6,5.3l-4.6-2.9l3.5-4.3l-5.6,0.6
				v-5.5l5.6,0.6L619,361l4.6-2.9l2.6,5.3l2.6-5.3l4.6,2.9l-3.4,4.3l5.6-0.6V370.3z M661.9,370.3l-5.6-0.6l3.4,4.3l-4.6,2.9
				l-2.6-5.3l-2.6,5.3l-4.6-2.9l3.4-4.3l-5.6,0.6v-5.5l5.6,0.6l-3.4-4.3l4.6-2.9l2.6,5.3l2.6-5.3l4.6,2.9l-3.4,4.3l5.6-0.6V370.3z"
				/>
		</g>
	</g>
	<g style="clip-path:url(#SVGID_00000122714868160186845810000005638327208843728300_);">
		<defs>
			<rect id="SVGID_00000026884623301773670590000017369457703552056253_" y="214.9" width="184" height="256"/>
		</defs>
		<clipPath id="SVGID_00000182524596142013164230000018410859593045955234_">
			<use xlink:href="#SVGID_00000026884623301773670590000017369457703552056253_"  style="overflow:visible;"/>
		</clipPath>
		<g style="clip-path:url(#SVGID_00000182524596142013164230000018410859593045955234_);">
			<path class="st21" d="M119.1,382.6c44.6-17.7,66.5-68.2,48.8-112.9c-17.7-44.6-68.3-66.4-112.9-48.7
				c-44.6,17.7-66.5,68.2-48.8,112.9C23.9,378.5,74.4,400.3,119.1,382.6z"/>
			<path class="st27" d="M54,300.6c0-18.2,14.8-32.9,33-32.9s33,14.8,33,32.9c0,14.1-2.2,23.4-14.7,26.9v8.1c0,1.2-1,2.2-2.2,2.2
				H70.9c-1.2,0-2.2-1-2.2-2.2v-8.1C56.2,324,54,314.6,54,300.6L54,300.6z M71.7,290.9c-6.5,0-11.7,4.9-11.7,11
				c0,6.1,5.2,11,11.7,11c6.5,0,11.7-4.9,11.7-11C83.4,295.8,78.2,290.9,71.7,290.9z M90.5,301.9c0,6.1,5.2,11,11.7,11
				s11.7-4.9,11.7-11c0-6.1-5.2-11-11.7-11S90.5,295.8,90.5,301.9z M87,314.9c0,0-9.9,7.4,0,7.4S87,314.9,87,314.9z M64.5,271.8
				l-7.4-7.4c2.7-2.7,2.7-7.1,0-9.8c-2.7-2.7-7.1-2.7-9.8,0c-2.3,2.3-2.6,5.9-1,8.6c-2.7-1.7-6.2-1.4-8.6,0.9
				c-2.7,2.7-2.7,7.1,0,9.8c2.7,2.7,7.1,2.7,9.8,0l7.4,7.4C58.1,278.1,61.3,274.9,64.5,271.8L64.5,271.8z M119,281.2l7.4-7.4
				c2.7,2.7,7.1,2.7,9.8,0c2.7-2.7,2.7-7.1,0-9.8c-2.3-2.3-5.9-2.6-8.6-0.9c1.7-2.7,1.4-6.2-1-8.6c-2.7-2.7-7.1-2.7-9.8,0
				c-2.7,2.7-2.7,7.1,0,9.8l-7.4,7.4C112.6,274.9,115.8,278.1,119,281.2L119,281.2z M109.4,331.8l7.4,7.4c-2.7,2.7-2.7,7.1,0,9.8
				c2.7,2.7,7.1,2.7,9.8,0c2.3-2.3,2.6-5.9,1-8.6c2.7,1.7,6.2,1.4,8.6-0.9c2.7-2.7,2.7-7.1,0-9.8c-2.7-2.7-7.1-2.7-9.8,0l-7.4-7.4
				C115.8,325.5,112.7,328.7,109.4,331.8L109.4,331.8z M55,322.4l-7.4,7.4c-2.7-2.7-7.1-2.7-9.8,0c-2.7,2.7-2.7,7.1,0,9.8
				c2.3,2.3,5.9,2.6,8.6,0.9c-1.7,2.7-1.4,6.2,1,8.6c2.7,2.7,7.1,2.7,9.8,0c2.7-2.7,2.7-7.1,0-9.8l7.4-7.4
				C61.4,328.7,58.2,325.5,55,322.4L55,322.4z"/>
			<path class="st24" d="M66.6,386.3c6.5,1.6,13.4,2.4,20.4,2.4c24.4,0,46.4-10.1,62.2-26.2c-8.8-5.3-19.1-8.3-30.1-8.3
				C96.2,354.2,76.4,367.3,66.6,386.3L66.6,386.3z"/>
			<path class="st28" d="M125.1,470.9c32.6,0,58.9-26.4,58.9-58.9S157.6,353,125.1,353c-32.6,0-58.9,26.4-58.9,58.9
				S92.5,470.9,125.1,470.9z"/>
			<path class="st21" d="M101.5,434.4c0-4.4,3.7-8.1,8.1-8.1s8.1,3.7,8.1,8.1c0,4.5-3.7,8.1-8.1,8.1S101.5,438.8,101.5,434.4z
				 M102,398.5v-17.1h15.4v17.1l-2.6,21.4h-10.3L102,398.5L102,398.5z M132.3,434.4c0-4.4,3.7-8.1,8.1-8.1s8.1,3.7,8.1,8.1
				c0,4.5-3.7,8.1-8.1,8.1S132.3,438.8,132.3,434.4z M132.8,398.5v-17.1h15.4v17.1l-2.6,21.4h-10.3L132.8,398.5L132.8,398.5z"/>
		</g>
	</g>
</g>
</svg>
