<svg width="1618" height="932" viewBox="0 0 1618 932" fill="none" xmlns="http://www.w3.org/2000/svg">
<g clip-path="url(#clip0_4_17114)">
<path d="M809.102 317.982C457.416 317.982 158.391 403.223 46.7418 522.111H0V625.093C0 794.758 362.3 932.204 809.102 932.204C1255.9 932.204 1618.2 794.758 1618.2 625.093V522.111H1571.46C1460.02 403.223 1160.79 317.982 809.306 317.982H809.102Z" fill="#B5B5B5"/>
<path d="M809.102 829.222C1255.96 829.222 1618.2 691.724 1618.2 522.111C1618.2 352.498 1255.96 215 809.102 215C362.247 215 0 352.498 0 522.111C0 691.724 362.247 829.222 809.102 829.222Z" fill="#53B4BA"/>
<path d="M0 522.111C0 691.777 362.3 829.222 809.102 829.222V215C362.3 215 0 352.445 0 522.111Z" fill="#D75F2C"/>
<path opacity="0.1" d="M0 522.111C0 567.178 25.7182 610.003 71.8476 648.544C481.297 356.932 993.212 307.378 1487.16 354.689C1342.86 270.672 1093.02 215 809.102 215C362.3 215 0 352.445 0 522.111Z" fill="white"/>
</g>
<path d="M316.583 613.085L335.386 610.808L356.47 390.658H316.583V613.085Z" fill="#EAB99F"/>
<g opacity="0.1">
<path d="M316.583 613.085L320.571 612.658L324.418 396.492L356.47 390.658H316.583V613.085Z" fill="black"/>
</g>
<path d="M383.963 613.085L402.767 610.808L423.851 390.658H383.963V613.085Z" fill="#EAB99F"/>
<path d="M292.793 226.292L290.798 300.577L282.394 328.469L286.24 346.115L292.65 354.227C292.65 354.227 296.924 355.365 297.351 350.811C297.779 346.258 299.346 325.623 299.346 325.623C299.346 325.623 302.337 324.342 302.907 328.327C303.477 332.311 305.329 338.288 309.887 338.004L308.463 319.219L304.189 302.142L315.016 230.419L338.52 133.935L308.463 130.092L292.935 226.292H292.793Z" fill="#EAB99F"/>
<g opacity="0.1">
<path d="M292.793 226.292L290.798 300.577L282.394 328.469L286.24 346.115L287.664 347.965C287.664 338.146 289.089 328.184 291.368 318.65C292.793 312.531 295.927 306.838 297.351 300.719C298.918 294.315 297.351 244.081 299.346 228.427C301.197 214.054 306.326 179.757 309.175 165.669C309.175 165.669 320.001 172.073 329.119 173.923L338.52 134.077L308.463 130.234L292.935 226.434L292.793 226.292Z" fill="black"/>
</g>
<path d="M355.33 620.912L335.244 610.096H316.298C316.298 610.096 310.884 620.912 312.736 633.15H370.003C370.003 633.15 369.006 622.192 355.188 620.769L355.33 620.912Z" fill="#137B65"/>
<g opacity="0.1">
<path d="M321.283 610.096H316.44C316.44 610.096 311.027 621.054 312.879 633.435H323.848C320.999 628.596 319.432 622.904 319.859 617.069C320.001 614.65 320.571 612.231 321.426 610.096H321.283Z" fill="black"/>
</g>
<path d="M434.535 620.911L403.907 609.954H383.821C383.821 609.954 378.408 620.911 380.26 633.292H449.35C449.35 633.292 448.353 622.334 434.535 620.911Z" fill="#137B65"/>
<g opacity="0.1">
<path d="M387.382 616.215C387.667 614.081 388.095 611.946 388.807 610.096H383.821C383.821 610.096 378.408 621.054 380.26 633.435H392.226C388.522 628.596 386.528 622.762 387.382 616.358V616.215Z" fill="black"/>
</g>
<g opacity="0.1">
<path d="M325.984 112.162C314.588 115.15 309.602 124.542 307.893 128.527L296.069 151.154C296.924 151.438 301.625 154.142 307.465 157.558C311.597 147.454 320.571 130.946 322.708 126.677C329.118 113.869 345.643 110.454 356.47 105.758C356.47 105.473 373.422 97.0769 373.279 96.0808C373.279 96.0808 373.279 96.0808 373.279 95.9385H372.994L326.127 112.162H325.984Z" fill="black"/>
</g>
<path d="M456.472 301.146L443.224 226.292L435.959 136.638L404.904 133.365L421.001 229.423L443.367 302.284L438.666 319.219L436.671 338.004C441.23 338.288 443.224 332.454 443.936 328.469C444.649 324.484 447.498 325.908 447.498 325.908C447.498 325.908 448.495 346.542 448.78 351.238C449.065 355.792 453.338 354.796 453.338 354.796L460.034 346.969L464.45 329.465L456.9 301.431H456.757L456.472 301.146Z" fill="#EAB99F"/>
<g opacity="0.1">
<path d="M424.848 169.939L437.953 160.546L435.959 136.781L404.904 133.508L421.001 229.566L443.367 302.427L438.666 319.362L436.671 338.146C437.669 338.146 438.666 338.004 439.378 337.435C439.378 337.435 445.931 309.116 447.213 303.85L429.976 229.992C426.7 211.777 425.702 183.742 424.99 170.081L424.848 169.939Z" fill="black"/>
</g>
<path d="M443.936 152.719L435.532 130.235L433.395 125.396C430.973 120.985 426.13 114.723 417.298 112.304L373.137 96.9346C373.137 96.9346 369.433 96.65 369.291 96.9346L325.7 112.162C314.303 115.15 309.317 124.542 307.608 128.527L295.784 151.154C297.636 151.723 320.571 165.385 329.688 170.792L334.817 245.931L317.722 291.612C315.158 299.865 314.018 320.215 314.303 328.896L316.155 390.8H423.993V322.635C423.993 315.804 423.281 297.446 421.856 290.758L410.032 246.073L414.021 169.796C423.566 164.246 441.8 153.431 443.509 152.862L443.936 152.719Z" fill="#137B65"/>
<path d="M381.969 6H364.447C348.207 6 335.102 19.0923 335.102 35.3154L332.822 72.4577C332.822 83.9846 342.224 93.3769 353.763 93.3769H390.659C402.197 93.3769 411.599 83.9846 411.599 72.4577V35.3154C411.599 19.0923 398.494 6 382.254 6H381.969Z" fill="#623E3B"/>
<path d="M347.922 69.6113C347.922 84.8382 360.316 97.0767 375.416 97.0767C390.516 97.0767 402.91 84.6959 402.91 69.6113V36.4536H347.78V69.6113H347.922Z" fill="#EAB99F"/>
<path d="M355.615 111.308C355.615 120.415 363.023 127.673 371.997 127.673C380.972 127.673 388.379 120.273 388.379 111.308V74.5923H355.615V111.308Z" fill="#EAB99F"/>
<path d="M343.079 35.3153L343.364 78.4345L351.769 93.2345H358.322L358.179 27.7729L343.079 35.3153Z" fill="#623E3B"/>
<path d="M349.205 41.577L358.464 45.1347C358.464 45.1347 358.179 36.4539 367.154 36.4539V31.4731H349.205V41.7193V41.577Z" fill="#623E3B"/>
<g opacity="0.1">
<path d="M337.666 174.35C337.666 174.35 330.258 170.935 329.831 170.65L335.102 245.931L318.007 291.611C315.443 299.865 314.303 320.215 314.588 328.896L316.44 390.8H325.557C325.557 390.8 324.275 342.558 325.272 326.192C327.409 292.75 333.677 275.815 342.937 246.215H343.079C343.079 246.215 343.079 245.931 343.079 245.646C343.079 245.646 343.079 245.504 343.079 245.361V245.646L343.364 193.135L338.805 184.881C338.378 180.042 337.808 176.342 337.523 174.35H337.666Z" fill="black"/>
</g>
<path d="M409.178 134.077C409.178 134.077 335.814 136.639 335.814 146.743L334.389 178.619C334.389 188.723 341.939 196.835 351.056 196.835H404.904C414.163 196.835 421.571 188.581 421.571 178.619V177.339C421.571 177.339 418.295 134.077 409.035 134.077H409.178Z" fill="#137B65"/>
<g opacity="0.1">
<path d="M383.963 610.096H388.664L388.949 396.919L423.851 390.658H383.963V610.096Z" fill="black"/>
</g>
<g opacity="0.1">
<path d="M365.587 92.2385C376.413 103.623 388.522 96.7923 388.522 96.7923V93.8039C378.265 99.6385 365.587 92.0962 365.587 92.0962V92.2385Z" fill="black"/>
</g>
<g clip-path="url(#clip1_4_17114)">
<path d="M1325.89 224.259L1329.3 300.152L1335.98 330.195L1331.72 349.56L1324.61 358.388C1324.61 358.388 1319.92 359.527 1319.49 354.544C1318.92 349.56 1317.21 326.778 1317.21 326.778C1317.21 326.778 1313.94 325.354 1313.38 329.768C1312.81 334.182 1310.82 340.732 1305.7 340.447L1307.26 319.801L1311.95 301.148L1301.29 219.845L1283.38 128.006L1318.49 150.218L1325.6 223.975L1325.89 224.259Z" fill="#C39276"/>
<g opacity="0.1">
<path d="M1324.18 294.883C1325.74 294.883 1327.45 294.884 1329.16 294.314L1329.44 300.152L1336.12 330.195L1331.86 349.56L1324.75 358.388C1324.75 358.388 1324.61 358.388 1324.32 358.388C1325.6 350.557 1328.02 342.298 1329.3 334.467C1330.72 326.209 1326.74 308.98 1324.47 295.595C1324.47 295.311 1324.32 294.884 1324.18 294.599V294.883Z" fill="black"/>
</g>
<path d="M1141.49 293.745L1142.48 290.754C1146.89 294.599 1153.15 296.592 1158.97 296.023L1157.13 300.01L1155.85 319.659L1151.16 339.593C1146.32 338.312 1146.46 331.477 1147.17 327.205C1147.89 322.934 1144.47 323.219 1144.47 323.219C1144.47 323.219 1136.08 344.15 1134.09 348.706C1132.1 353.262 1128.12 350.699 1128.12 350.699L1124.14 340.163L1125.99 320.513L1141.63 293.745H1141.49Z" fill="#C39276"/>
<g opacity="0.1">
<path d="M1152.86 297.589C1152.86 297.589 1153.15 296.307 1153.15 295.595C1155.14 295.88 1157.13 296.022 1158.97 295.88L1157.13 299.867L1155.85 319.516L1151.16 339.45C1151.16 339.45 1149.88 338.881 1149.45 338.596C1151.16 326.778 1152.15 314.96 1152.15 303.142C1152.15 302.857 1152.58 299.155 1152.86 297.731V297.589Z" fill="black"/>
</g>
<path d="M1293.33 295.453L1295.32 349.845L1295.04 626.218L1271.58 623.94L1240.3 352.408L1234.9 352.693L1223.1 626.218L1199.64 623.94L1182.15 355.113L1183.57 295.738C1183.57 295.738 1292.9 295.453 1293.33 295.453Z" fill="#736C6B"/>
<g opacity="0.1">
<path d="M1293.33 295.453L1295.32 354.544V623.228H1291.91L1285.65 300.437L1183.57 297.874V295.88L1293.33 295.453Z" fill="black"/>
</g>
<g opacity="0.1">
<path d="M1286.93 157.907L1290.34 173.855L1288.35 241.061L1292.76 282.781L1293.33 295.453L1285.65 295.311L1281.1 240.634L1285.65 174.709L1286.93 157.907Z" fill="black"/>
</g>
<g opacity="0.1">
<path d="M1234.9 352.835L1223.38 623.228H1218.69L1233.33 352.692L1234.9 352.835Z" fill="black"/>
</g>
<path d="M1163.81 123.877C1165.09 120.317 1170.21 109.923 1184 106.363L1238.45 86.002V85.7172C1238.45 85.7172 1238.45 85.7172 1238.45 85.5748H1238.73H1239.45L1240.16 85.29H1240.44V85.5748V85.8596L1294.89 106.221C1308.83 109.781 1313.8 120.175 1315.08 123.735L1327.59 220.985L1330.29 298.728C1324.47 298.728 1316.08 299.155 1310.25 299.013L1301.29 228.959L1290.2 174.282L1288.07 240.919L1292.33 281.926L1293.9 318.52C1256.79 318.52 1219.83 318.52 1182.72 318.947L1183.57 282.069L1186.56 240.492L1185.56 185.815C1185.56 193.647 1176.75 233.8 1176.75 233.8L1157.98 299.867L1138.36 295.88L1151.01 221.839L1163.38 123.735L1163.81 123.877Z" fill="#565150"/>
<g opacity="0.1">
<path d="M1184.99 179.408L1185.85 186.1C1185.85 193.931 1177.03 234.084 1177.03 234.084L1158.26 300.152L1152.29 299.013C1157.7 282.496 1161.96 266.264 1165.94 250.174C1165.94 250.174 1184.42 181.401 1184.99 179.408Z" fill="black"/>
</g>
<g opacity="0.1">
<path d="M1238.59 85.5746C1238.59 85.5746 1238.59 85.5746 1238.59 85.4322H1238.88H1239.59L1240.3 85.1475H1240.58V85.4322V85.717L1295.04 106.078C1308.97 109.638 1313.94 120.032 1315.22 123.592L1327.74 220.842L1330.44 298.586C1327.88 298.586 1326.88 298.586 1324.18 298.586C1324.18 298.586 1320.63 214.292 1318.35 201.335C1316.5 190.941 1307.4 123.45 1300.01 118.039C1292.05 112.201 1275.42 106.506 1266.46 102.661C1256.36 98.3895 1247.41 91.982 1237.45 87.4257C1236.89 87.1409 1236.32 86.9985 1235.75 86.7137L1238.31 85.717V85.4322L1238.59 85.5746Z" fill="black"/>
</g>
<path d="M1266.46 51.2592C1266.46 67.0642 1249.82 85.5745 1234.04 85.5745C1218.26 85.5745 1205.47 72.7597 1205.47 56.9547V22.4971H1266.74L1266.46 51.2592Z" fill="#C39276"/>
<path d="M1254.52 100.952C1254.52 110.065 1227.22 120.175 1220.54 100.952V62.2231H1254.52V100.952Z" fill="#C39276"/>
<path d="M1269.16 22.0701V44.4249C1269.16 44.4249 1268.16 68.9154 1254.52 76.0348L1256.93 57.2397C1256.93 57.2397 1264.61 58.2364 1264.61 42.4315C1264.61 36.5936 1262.34 36.4512 1260.49 36.4512C1258.07 36.4512 1256.22 40.1533 1256.22 40.1533H1251.67V31.3253H1251.53C1251.53 31.3253 1251.81 22.3549 1242.43 22.3549H1205.32C1205.32 22.3549 1198.21 21.9277 1198.21 0.142526H1242C1242 0.142526 1269.02 -3.55953 1269.02 22.0701H1269.16Z" fill="#623E3B"/>
<g opacity="0.1">
<path d="M1245.56 80.1641C1233.62 92.6941 1220.39 85.29 1220.39 85.29V82.0151C1231.63 88.5649 1245.56 80.1641 1245.56 80.1641Z" fill="black"/>
</g>
<g opacity="0.1">
<path d="M1218.4 53.5375H1225.94C1220.82 61.084 1215.99 54.3918 1215.99 54.3918L1218.97 33.4609L1218.4 53.5375Z" fill="black"/>
</g>
<g opacity="0.1">
<path d="M1290.49 174.424L1288.35 241.061L1292.62 282.068L1294.32 318.662L1284.94 318.377V281.641L1281.53 237.929L1289.35 161.751L1290.49 174.424Z" fill="black"/>
</g>
<path d="M1330.15 301.291L1311.81 301.575V299.155L1330.15 298.87V301.291Z" fill="#E6DCD1"/>
<path d="M1157.84 300.009L1157.27 302.43L1138.64 298.158L1139.35 296.165L1157.84 300.009Z" fill="#E6DCD1"/>
<path d="M1256.36 634.192L1273 623.228H1295.32C1295.32 623.228 1300.72 634.192 1298.87 646.579H1241.72C1241.72 646.579 1242.72 635.616 1256.51 634.192H1256.36Z" fill="#372322"/>
<g opacity="0.1">
<path d="M1293.33 629.92C1293.33 627.642 1292.76 625.364 1292.05 623.37H1295.32C1295.32 623.37 1300.72 634.334 1298.87 646.722H1291.62C1291.91 646.01 1292.19 645.298 1292.48 644.443C1293.9 639.602 1293.61 634.904 1293.47 629.92H1293.33Z" fill="black"/>
</g>
<path d="M1172.77 634.192L1198.64 623.228H1223.38C1223.38 623.228 1228.78 634.192 1226.93 646.579H1157.98C1157.98 646.579 1158.97 635.616 1172.77 634.192Z" fill="#372322"/>
<g opacity="0.1">
<path d="M1218.69 623.228H1223.38C1223.38 623.228 1228.78 634.192 1226.93 646.579H1213.71C1217.69 642.308 1219.97 636.612 1219.54 628.923C1219.54 626.788 1219.11 624.937 1218.55 623.228H1218.69Z" fill="black"/>
</g>
<path d="M1262.9 94.1178L1245.7 124.731L1233.19 111.774L1255.23 84.7202L1262.9 94.1178Z" fill="#E6DCD1"/>
<path d="M1233.19 111.774L1219.97 124.161L1212.29 95.6839L1219.68 85.7168L1233.19 111.774Z" fill="#E6DCD1"/>
</g>
<defs>
<clipPath id="clip0_4_17114">
<rect width="1618" height="717" fill="white" transform="translate(0 215)"/>
</clipPath>
<clipPath id="clip1_4_17114">
<rect width="327" height="649" fill="white" transform="translate(1124)"/>
</clipPath>
</defs>
</svg>
