<?xml version="1.0" encoding="utf-8"?>
<!-- Generator: Adobe Illustrator 27.5.0, SVG Export Plug-In . SVG Version: 6.00 Build 0)  -->
<svg version="1.1" id="Layer_1" xmlns="http://www.w3.org/2000/svg" xmlns:xlink="http://www.w3.org/1999/xlink" x="0px" y="0px"
	 viewBox="0 0 1920 880" style="enable-background:new 0 0 1920 880;" xml:space="preserve">
<style type="text/css">
	.st0{fill:#E5E0B5;}
	.st1{clip-path:url(#SVGID_00000087401996498838122580000017864036404784115872_);}
	.st2{fill:#BAC8B5;}
	.st3{clip-path:url(#SVGID_00000032611375157052110440000015937721665727115708_);}
	.st4{fill:none;stroke:#595F60;stroke-width:0.92;stroke-miterlimit:2.61;}
	.st5{fill-rule:evenodd;clip-rule:evenodd;fill:#6F7A62;}
	.st6{fill-rule:evenodd;clip-rule:evenodd;fill:#434A4A;}
	.st7{fill-rule:evenodd;clip-rule:evenodd;fill:#000303;stroke:#231F20;stroke-width:0.22;stroke-miterlimit:2.61;}
	.st8{fill-rule:evenodd;clip-rule:evenodd;fill:#000A09;}
	.st9{fill-rule:evenodd;clip-rule:evenodd;fill:#000303;}
	.st10{fill:none;stroke:#231F20;stroke-width:1.02;stroke-miterlimit:2.61;}
	.st11{fill-rule:evenodd;clip-rule:evenodd;fill:#000101;stroke:#231F20;stroke-width:0.34;stroke-miterlimit:2.61;}
	.st12{fill-rule:evenodd;clip-rule:evenodd;fill:#000101;stroke:#231F20;stroke-width:0.22;stroke-miterlimit:2.61;}
	.st13{fill:none;stroke:#231F20;stroke-width:0.22;stroke-miterlimit:2.61;}
	.st14{fill-rule:evenodd;clip-rule:evenodd;fill:#000A09;stroke:#231F20;stroke-width:0.34;stroke-miterlimit:2.61;}
	.st15{fill-rule:evenodd;clip-rule:evenodd;fill:#071212;stroke:#231F20;stroke-width:0.22;stroke-miterlimit:2.61;}
	.st16{fill:none;stroke:#231F20;stroke-width:0.92;stroke-miterlimit:2.61;}
	.st17{fill-rule:evenodd;clip-rule:evenodd;fill:#040F0F;stroke:#231F20;stroke-width:0.22;stroke-miterlimit:2.61;}
	.st18{fill-rule:evenodd;clip-rule:evenodd;fill:#000A09;stroke:#231F20;stroke-width:0.22;stroke-miterlimit:2.61;}
	.st19{fill-rule:evenodd;clip-rule:evenodd;fill:#000101;stroke:#231F20;stroke-width:0.35;stroke-miterlimit:2.61;}
	.st20{fill-rule:evenodd;clip-rule:evenodd;fill:#000A09;stroke:#231F20;stroke-width:0.35;stroke-miterlimit:2.61;}
	.st21{clip-path:url(#SVGID_00000167389512517556762210000003325380707737723551_);}
	.st22{fill:#2D2D2D;}
	.st23{fill:#EDEDED;}
</style>
<rect y="-0.4" class="st0" width="1920" height="880.8"/>
<g>
	<g>
		<defs>
			<rect id="SVGID_1_" x="-31" y="226" width="2026" height="654"/>
		</defs>
		<clipPath id="SVGID_00000135693148201569413330000010943678611209788858_">
			<use xlink:href="#SVGID_1_"  style="overflow:visible;"/>
		</clipPath>
		<g style="clip-path:url(#SVGID_00000135693148201569413330000010943678611209788858_);">
			<path class="st2" d="M1988.8,663.5h-4.6v10h-13.8v25.2h-11.4v-16.5h-3.9v-20.4h-4.1V469.7h-5.2V451H1919V471h-7v147h-15.9v-95.4
				h-3v-20.4h-32.9v193h-24.3v-13.9h-17.5v-6.9h-7.2v-18.7l-7-6.5v-51.2h-1.8v-15.2h-2.2v-13h-32.4v28.6h-2.1v72h-3.9v-13h-18.2v-39
				l-4.6-8.2l-5,8.7V638h-26.6v-12.1h-9.7v-95l-15-5.6h-10.7V356.1h-5v43.8h-4.1v-32.5l-13.9-43.8v-50.3l-5.9-47.3l-5.4,48.6v49.9
				l-15.2,41.2v34.7h-10.4v188.6h-8.6l-2.9,8.2V408.6h-3.2v-33l-8.8-25.6v-26.9h-1.8v13.5h-2.2v-49.9l-5-12.1v-29h-1.3v29.7
				l-5.3,12.8v50.3h-2.9v-15.6h-1.8v29.9l-9.3,26v32.5h-10.6v190.6h-5.8v22.6h-8.7l-19.5-6v-28.7h-13.3v25.6h-6.4l-13.5,6.5v-169
				l-31.9-5v-44.8l-29.4-8.5l-15.8,5.5v33.2h-5.6v25.2h-12V470l-2.1,10.6h-2.9v-13.1h-7.3v-7h-4.8v-5.5h-6.4v-18.1h-22.2v35.7H1324
				v-16.1h-3.7v-13.6l-5.2-10.6v-20.6l-3.3-10.1l-3.8,12.1v20.6l-9.1,16.6v47.8h-3.7v23.7l-2.7,6.5v67.9h-19.1v11.6h-18.9v11.1h-6.2
				v-24.7h-4.2v-11.3h1.7v-8.3h-1.7V568h1.7v-8.4h-1.7v-7.1h1.7v-8.4h-1.7v-7.1h1.7v-8.4h-1.7v-7.1h1.7v-8.4h-1.7v-7.1h1.7V498h-1.7
				v-7.1h1.7v-8.3h-1.7v-7.1h1.7v-8.3h-1.7V460h1.7v-8.3h-1.7v-7.1h1.7v-8.3h-1.7v-7.1h1.7v-8.4h-1.7v-7.1h1.7v-8.3h-1.7v-8.4
				l-5.2-28.7l-14.5-4v-11.1h-7.9v12.1l-12.2,5.5v-50.8l-8.3-4l-46.1,9.5v26.7l-12,5v285.2h-3.3v-10.6h-4.6v6.6h-8.3v-10.6h-16
				v-21.1h-16.2v-10.6h-5v-29.7h-3.3v-13.1h-5l-4.4-8v-17.6h-13.1v26.1h-7.1v10.6l-11.4,7.5v21.6h-3.2v37.5l-3.6,8.8v4.5L1014,655
				v41.7h-3.3v-17.1l-14.3-7v-92.6h-2.9v-12.6h2.7l-12.7-5v-12.1h-16.2v-26.2l-6.4-5.5l-7.1,6v29.7H923l-7.7,18.6h-17.8V562h-8.9
				v-20.1h-33.8v22.6h-9.3V575h-2.9v43.3H839v12.6h-6v40.7h-3.5v17.1h-3.7v8.1h-3.3v-5.5h-3.3v5H817v-93h-10.2v-20.6h-2.7V459.9
				h-6.6l-6.2-13.1v-14.1h-8.9v17.1h-2.9v13.6h-10.8v27.7H766v30.7h-3.3v13.6h-8.7V476h-2.3v-40.2h-26.8l-4.2,10.1v16.4h-12.8
				l-4.5,10.8h-20.7v70.9h-9.3v25.7h-3.7v-88.5l-13.9-27.2l-14.3,27.7v94.1h-23l-8.3,3.5l-3.9,17.6V635h-2.3v15.6h-6.9v22.6H589
				v-14.1h-5v-208l-2.4-5.7v-7.7l-3.5-8.5v-9.8l-2.6-6.3v-33.7h-10v-85.1h-60v275.7h-4.4V266.9h-54.7v86.9h-8.1v235.9h-15.1v82.5
				h-3.1V516.3h-3.3V507h-9l-2.2-5.3v-14.1h-19.5v11.6l-7.4,9.5v-75.2l-1.1-2.8v-35.7H376v-25.1h-17v28.7h-10.4v12.1h-19.1l-8.9,3
				l-2.5,39.2l3.3,45.8l-3.3,38.2l2.9,39.2l-3.5,40.3l2.3,36.7h-4.4v-14.6h-5v-23.2l-2.1-5v-22.6H283v13.6h-1.9v11.1h-12.2v-92.5
				h-3.1v-2.5h-14.9v-33.2h-22.2v19.1h-8.9v19.6h-5.8v-41.2h-3.5L193,395.1v-28.7h-6.2v-11.6H181v-11.1h-31.1V379l-3.3,2v191.6h-4.8
				V552l-4.4,11.6h-12.9v26.7h-13.1l-6,7.6v-32.2h-9.3V365.4H75l-7.7,8.6H32.4v39.2h-3.9l-10.2,5.5v43.8H9.6L-2,472.6v-23.6h-6.4
				v-6.8l-9.3-10.4v-4.4h-0.9v-2.9h-0.5v-40.4h-0.9v40.4h-0.5v2.9h-0.9v4.5l-9.5,10.3V880h2026V667.2L1988.8,663.5L1988.8,663.5z
				 M-14.1,705.1h-6.1v-14.8h6.1V705.1z M-14.1,687h-6.1v-5.9h6.1V687z M-14.1,677.9h-6.1V672h6.1V677.9z M-14.1,668.7h-6.1v-5.9
				h6.1V668.7z M-14.1,659.5h-6.1v-5.9h6.1V659.5z M-14.1,650.4h-6.1v-5.9h6.1V650.4z M-14.1,641.2h-6.1v-5.9h6.1V641.2z
				 M-14.1,632.1h-6.1v-5.9h6.1V632.1z M-14.1,622.9h-6.1V617h6.1V622.9z M-14.1,613.8h-6.1v-5.9h6.1V613.8z M-14.1,604.6h-6.1v-5.9
				h6.1V604.6z M-14.1,595.4h-6.1v-5.9h6.1V595.4z M-14.1,586.3h-6.1v-5.9h6.1V586.3z M-14.1,577.1h-6.1v-5.9h6.1V577.1z M-14.1,568
				h-6.1v-5.9h6.1V568z M-14.1,558.8h-6.1v-5.9h6.1V558.8z M-14.1,549.7h-6.1v-5.9h6.1V549.7z M-14.1,540.5h-6.1v-5.9h6.1V540.5z
				 M-14.1,531.3h-6.1v-5.9h6.1V531.3z M-14.1,522.2h-6.1v-5.9h6.1V522.2z M-14.1,513h-6.1v-5.9h6.1V513z M-14.1,503.9h-6.1V498h6.1
				V503.9z M-14.1,494.7h-6.1v-5.9h6.1V494.7z M-14.1,485.5h-6.1v-5.9h6.1V485.5z M-14.1,476.4h-6.1v-5.9h6.1V476.4z M-14.1,467.2
				h-6.1v-5.9h6.1V467.2z M-14.1,458.1h-6.1v-5.9h6.1V458.1z M-8,705.1h-4.2v-14.8H-8V705.1z M-8,687h-4.2v-5.9H-8V687z M-8,677.8
				h-4.2v-5.9H-8V677.8z M-8,668.7h-4.2v-5.9H-8V668.7z M-8,659.5h-4.2v-5.9H-8V659.5z M-8,650.3h-4.2v-5.9H-8V650.3z M-8,641.2
				h-4.2v-5.9H-8V641.2z M-8,632h-4.2v-5.9H-8V632z M-8,622.9h-4.2V617H-8V622.9z M-8,613.7h-4.2v-5.9H-8V613.7z M-8,604.6h-4.2
				v-5.9H-8V604.6z M-8,595.4h-4.2v-5.9H-8V595.4z M-8,586.2h-4.2v-5.9H-8V586.2z M-8,577.1h-4.2v-5.9H-8V577.1z M-8,567.9h-4.2V562
				H-8V567.9z M-8,558.8h-4.2v-5.9H-8V558.8z M-8,549.6h-4.2v-5.9H-8V549.6z M-8,540.5h-4.2v-5.9H-8V540.5z M-8,531.3h-4.2v-5.9H-8
				V531.3z M-8,522.1h-4.2v-5.9H-8V522.1z M-8,513h-4.2v-5.9H-8V513z M-8,503.8h-4.2v-5.9H-8V503.8z M-8,494.7h-4.2v-5.9H-8V494.7z
				 M-8,485.5h-4.2v-5.9H-8V485.5z M-8,476.3h-4.2v-5.9H-8V476.3z M-8,467.2h-4.2v-5.9H-8V467.2z M14.6,705H4.8v-16h9.8V705z
				 M14.6,686H4.8v-5.5h9.8V686z M14.6,677.5H4.8V672h9.8V677.5z M14.6,669H4.8v-5.5h9.8V669z M14.6,660.4H4.8V655h9.8V660.4z
				 M14.6,651.9H4.8v-5.5h9.8V651.9z M14.6,643.4H4.8v-5.5h9.8V643.4z M14.6,634.9H4.8v-5.5h9.8V634.9z M14.6,626.4H4.8v-5.5h9.8
				V626.4z M14.6,617.8H4.8v-5.5h9.8V617.8z M14.6,609.3H4.8v-5.5h9.8V609.3z M14.6,600.8H4.8v-5.5h9.8V600.8z M14.6,592.3H4.8v-5.5
				h9.8V592.3z M14.6,583.8H4.8v-5.5h9.8V583.8z M14.6,575.3H4.8v-5.5h9.8V575.3z M14.6,566.7H4.8v-5.5h9.8V566.7z M14.6,558.2H4.8
				v-5.5h9.8V558.2z M14.6,549.7H4.8v-5.5h9.8V549.7z M14.6,541.2H4.8v-5.5h9.8V541.2z M14.6,532.7H4.8v-5.5h9.8V532.7z M14.6,524.1
				H4.8v-5.5h9.8V524.1z M14.6,515.6H4.8v-5.5h9.8V515.6z M14.6,507.1H4.8v-5.5h9.8V507.1z M14.6,498.6H4.8v-5.5h9.8V498.6z
				 M14.6,490.1H4.8v-5.5h9.8V490.1z M14.6,481.6H4.8v-5.5h9.8V481.6z M41.9,705.2h-6.2V688h6.2V705.2z M41.9,683.9h-6.2v-7.3h6.2
				V683.9z M41.9,672.6h-6.2v-7.3h6.2V672.6z M41.9,661.3h-6.2V654h6.2V661.3z M41.9,650h-6.2v-7.3h6.2V650z M41.9,638.7h-6.2v-7.3
				h6.2V638.7z M41.9,627.4h-6.2v-7.3h6.2V627.4z M41.9,616.1h-6.2v-7.3h6.2V616.1z M41.9,604.8h-6.2v-7.3h6.2V604.8z M41.9,593.5
				h-6.2v-7.3h6.2V593.5z M41.9,582.2h-6.2v-7.3h6.2V582.2z M41.9,570.9h-6.2v-7.3h6.2V570.9z M41.9,559.6h-6.2v-7.3h6.2V559.6z
				 M41.9,548.3h-6.2V541h6.2V548.3z M41.9,537h-6.2v-7.3h6.2V537z M41.9,525.7h-6.2v-7.3h6.2V525.7z M41.9,514.3h-6.2v-7.3h6.2
				V514.3z M41.9,503h-6.2v-7.3h6.2V503z M41.9,491.7h-6.2v-7.3h6.2V491.7z M41.9,480.4h-6.2v-7.3h6.2V480.4z M41.9,469.1h-6.2v-7.3
				h6.2V469.1z M41.9,457.8h-6.2v-7.3h6.2V457.8z M41.9,446.5h-6.2v-7.3h6.2V446.5z M41.9,435.2h-6.2v-7.3h6.2V435.2z M41.9,423.9
				h-6.2v-7.3h6.2V423.9z M41.9,412.6h-6.2v-7.3h6.2V412.6z M41.9,401.3h-6.2V394h6.2V401.3z M41.9,390h-6.2v-7.3h6.2V390z
				 M50.4,705.2h-6.2V688h6.2V705.2z M50.4,683.9h-6.2v-7.3h6.2V683.9z M50.4,672.6h-6.2v-7.3h6.2V672.6z M50.4,661.3h-6.2V654h6.2
				V661.3z M50.4,650h-6.2v-7.3h6.2V650z M50.4,638.7h-6.2v-7.3h6.2V638.7z M50.4,627.4h-6.2v-7.3h6.2V627.4z M50.4,616.1h-6.2v-7.3
				h6.2V616.1z M50.4,604.8h-6.2v-7.3h6.2V604.8z M50.4,593.5h-6.2v-7.3h6.2V593.5z M50.4,582.2h-6.2v-7.3h6.2V582.2z M50.4,570.9
				h-6.2v-7.3h6.2V570.9z M50.4,559.6h-6.2v-7.3h6.2V559.6z M50.4,548.3h-6.2V541h6.2V548.3z M50.4,537h-6.2v-7.3h6.2V537z
				 M50.4,525.7h-6.2v-7.3h6.2V525.7z M50.4,514.3h-6.2v-7.3h6.2V514.3z M50.4,503h-6.2v-7.3h6.2V503z M50.4,491.7h-6.2v-7.3h6.2
				V491.7z M50.4,480.4h-6.2v-7.3h6.2V480.4z M50.4,469.1h-6.2v-7.3h6.2V469.1z M50.4,457.8h-6.2v-7.3h6.2V457.8z M50.4,446.5h-6.2
				v-7.3h6.2V446.5z M50.4,435.2h-6.2v-7.3h6.2V435.2z M50.4,423.9h-6.2v-7.3h6.2V423.9z M50.4,412.6h-6.2v-7.3h6.2V412.6z
				 M50.4,401.3h-6.2V394h6.2V401.3z M50.4,390h-6.2v-7.3h6.2V390z M58.8,705.2h-6.2V688h6.2V705.2z M58.8,683.9h-6.2v-7.3h6.2
				V683.9z M58.8,672.6h-6.2v-7.3h6.2V672.6z M58.8,661.3h-6.2V654h6.2V661.3z M58.8,650h-6.2v-7.3h6.2V650z M58.8,638.7h-6.2v-7.3
				h6.2V638.7z M58.8,627.4h-6.2v-7.3h6.2V627.4z M58.8,616.1h-6.2v-7.3h6.2V616.1z M58.8,604.8h-6.2v-7.3h6.2V604.8z M58.8,593.5
				h-6.2v-7.3h6.2V593.5z M58.8,582.2h-6.2v-7.3h6.2V582.2z M58.8,570.9h-6.2v-7.3h6.2V570.9z M58.8,559.6h-6.2v-7.3h6.2V559.6z
				 M58.8,548.3h-6.2V541h6.2V548.3z M58.8,537h-6.2v-7.3h6.2V537z M58.8,525.7h-6.2v-7.3h6.2V525.7z M58.8,514.3h-6.2v-7.3h6.2
				V514.3z M58.8,503h-6.2v-7.3h6.2V503z M58.8,491.7h-6.2v-7.3h6.2V491.7z M58.8,480.4h-6.2v-7.3h6.2V480.4z M58.8,469.1h-6.2v-7.3
				h6.2V469.1z M58.8,457.8h-6.2v-7.3h6.2V457.8z M58.8,446.5h-6.2v-7.3h6.2V446.5z M58.8,435.2h-6.2v-7.3h6.2V435.2z M58.8,423.9
				h-6.2v-7.3h6.2V423.9z M58.8,412.6h-6.2v-7.3h6.2V412.6z M58.8,401.3h-6.2V394h6.2V401.3z M58.8,390h-6.2v-7.3h6.2V390z
				 M67.2,705.2H61V688h6.2V705.2z M67.2,683.9H61v-7.3h6.2V683.9z M67.2,672.6H61v-7.3h6.2V672.6z M67.2,661.3H61V654h6.2V661.3z
				 M67.2,650H61v-7.3h6.2V650z M67.2,638.7H61v-7.3h6.2V638.7z M67.2,627.4H61v-7.3h6.2V627.4z M67.2,616.1H61v-7.3h6.2V616.1z
				 M67.2,604.8H61v-7.3h6.2V604.8z M67.2,593.5H61v-7.3h6.2V593.5z M67.2,582.2H61v-7.3h6.2V582.2z M67.2,570.9H61v-7.3h6.2V570.9z
				 M67.2,559.6H61v-7.3h6.2V559.6z M67.2,548.3H61V541h6.2V548.3z M67.2,537H61v-7.3h6.2V537z M67.2,525.7H61v-7.3h6.2V525.7z
				 M67.2,514.3H61v-7.3h6.2V514.3z M67.2,503H61v-7.3h6.2V503z M67.2,491.7H61v-7.3h6.2V491.7z M67.2,480.4H61v-7.3h6.2V480.4z
				 M67.2,469.1H61v-7.3h6.2V469.1z M67.2,457.8H61v-7.3h6.2V457.8z M67.2,446.5H61v-7.3h6.2V446.5z M67.2,435.2H61v-7.3h6.2V435.2z
				 M67.2,423.9H61v-7.3h6.2V423.9z M67.2,412.6H61v-7.3h6.2V412.6z M67.2,401.3H61V394h6.2V401.3z M67.2,390H61v-7.3h6.2V390z
				 M82.6,705.2h-6.2V688h6.2V705.2z M82.6,683.9h-6.2v-7.3h6.2V683.9z M82.6,672.6h-6.2v-7.3h6.2V672.6z M82.6,661.3h-6.2V654h6.2
				V661.3z M82.6,650h-6.2v-7.3h6.2V650z M82.6,638.7h-6.2v-7.3h6.2V638.7z M82.6,627.4h-6.2v-7.3h6.2V627.4z M82.6,616.1h-6.2v-7.3
				h6.2V616.1z M82.6,604.8h-6.2v-7.3h6.2V604.8z M82.6,593.5h-6.2v-7.3h6.2V593.5z M82.6,582.2h-6.2v-7.3h6.2V582.2z M82.6,570.9
				h-6.2v-7.3h6.2V570.9z M82.6,559.6h-6.2v-7.3h6.2V559.6z M82.6,548.3h-6.2V541h6.2V548.3z M82.6,537h-6.2v-7.3h6.2V537z
				 M82.6,525.7h-6.2v-7.3h6.2V525.7z M82.6,514.3h-6.2v-7.3h6.2V514.3z M82.6,503h-6.2v-7.3h6.2V503z M82.6,491.7h-6.2v-7.3h6.2
				V491.7z M82.6,480.4h-6.2v-7.3h6.2V480.4z M82.6,469.1h-6.2v-7.3h6.2V469.1z M82.6,457.8h-6.2v-7.3h6.2V457.8z M82.6,446.5h-6.2
				v-7.3h6.2V446.5z M82.6,435.2h-6.2v-7.3h6.2V435.2z M82.6,423.9h-6.2v-7.3h6.2V423.9z M82.6,412.6h-6.2v-7.3h6.2V412.6z
				 M82.6,401.3h-6.2V394h6.2V401.3z M82.6,390h-6.2v-7.3h6.2V390z M82.6,378.7h-6.2v-7.3h6.2V378.7z M90.6,705.2h-6.2V688h6.2
				V705.2z M90.6,683.9h-6.2v-7.3h6.2V683.9z M90.6,672.6h-6.2v-7.3h6.2V672.6z M90.6,661.3h-6.2V654h6.2V661.3z M90.6,650h-6.2
				v-7.3h6.2V650z M90.6,638.7h-6.2v-7.3h6.2V638.7z M90.6,627.4h-6.2v-7.3h6.2V627.4z M90.6,616.1h-6.2v-7.3h6.2V616.1z
				 M90.6,604.8h-6.2v-7.3h6.2V604.8z M90.6,593.5h-6.2v-7.3h6.2V593.5z M90.6,582.2h-6.2v-7.3h6.2V582.2z M90.6,570.9h-6.2v-7.3
				h6.2V570.9z M90.6,559.6h-6.2v-7.3h6.2V559.6z M90.6,548.3h-6.2V541h6.2V548.3z M90.6,537h-6.2v-7.3h6.2V537z M90.6,525.7h-6.2
				v-7.3h6.2V525.7z M90.6,514.3h-6.2v-7.3h6.2V514.3z M90.6,503h-6.2v-7.3h6.2V503z M90.6,491.7h-6.2v-7.3h6.2V491.7z M90.6,480.4
				h-6.2v-7.3h6.2V480.4z M90.6,469.1h-6.2v-7.3h6.2V469.1z M90.6,457.8h-6.2v-7.3h6.2V457.8z M90.6,446.5h-6.2v-7.3h6.2V446.5z
				 M90.6,435.2h-6.2v-7.3h6.2V435.2z M90.6,423.9h-6.2v-7.3h6.2V423.9z M90.6,412.6h-6.2v-7.3h6.2V412.6z M90.6,401.3h-6.2V394h6.2
				V401.3z M90.6,390h-6.2v-7.3h6.2V390z M90.6,378.7h-6.2v-7.3h6.2V378.7z M122.2,705.2h-9.8v-9.4h9.8V705.2z M122.2,693.1h-9.8
				v-4.8h9.8V693.1z M122.2,685.7h-9.8v-4.8h9.8V685.7z M122.2,678.3h-9.8v-4.8h9.8V678.3z M122.2,670.8h-9.8v-4.8h9.8V670.8z
				 M122.2,663.4h-9.8v-4.8h9.8V663.4z M122.2,656h-9.8v-4.8h9.8V656z M122.2,648.6h-9.8v-4.8h9.8V648.6z M122.2,641.1h-9.8v-4.8
				h9.8V641.1z M122.2,633.7h-9.8v-4.8h9.8V633.7z M122.2,626.3h-9.8v-4.8h9.8V626.3z M122.2,618.9h-9.8v-4.8h9.8V618.9z
				 M122.2,611.5h-9.8v-4.8h9.8V611.5z M134.9,705.2h-9.8v-9.4h9.8V705.2z M134.9,693.1h-9.8v-4.8h9.8V693.1z M134.9,685.7h-9.8
				v-4.8h9.8V685.7z M134.9,678.3h-9.8v-4.8h9.8V678.3z M134.9,670.8h-9.8v-4.8h9.8V670.8z M134.9,663.4h-9.8v-4.8h9.8V663.4z
				 M134.9,656h-9.8v-4.8h9.8V656z M134.9,648.6h-9.8v-4.8h9.8V648.6z M134.9,641.1h-9.8v-4.8h9.8V641.1z M134.9,633.7h-9.8v-4.8
				h9.8V633.7z M134.9,626.3h-9.8v-4.8h9.8V626.3z M134.9,618.9h-9.8v-4.8h9.8V618.9z M134.9,611.5h-9.8v-4.8h9.8V611.5z
				 M160.7,705.2h-4.4v-17.7h4.4V705.2z M160.7,681.6h-4.4V671h4.4V681.6z M160.7,665.1h-4.4v-10.6h4.4V665.1z M160.7,648.6h-4.4
				V638h4.4V648.6z M160.7,632.1h-4.4v-10.6h4.4V632.1z M160.7,615.6h-4.4V605h4.4V615.6z M160.7,599.1h-4.4v-10.6h4.4V599.1z
				 M160.7,582.6h-4.4V572h4.4V582.6z M160.7,566.1h-4.4v-10.6h4.4V566.1z M160.7,549.7h-4.4v-10.6h4.4V549.7z M160.7,533.2h-4.4
				v-10.6h4.4V533.2z M160.7,516.7h-4.4v-10.6h4.4V516.7z M160.7,500.2h-4.4v-10.6h4.4V500.2z M160.7,483.7h-4.4v-10.6h4.4V483.7z
				 M160.7,467.2h-4.4v-10.6h4.4V467.2z M160.7,450.7h-4.4v-10.6h4.4V450.7z M160.7,434.2h-4.4v-10.6h4.4V434.2z M160.7,417.7h-4.4
				v-10.6h4.4V417.7z M160.7,401.3h-4.4v-10.6h4.4V401.3z M160.7,384.8h-4.4v-10.6h4.4V384.8z M169.6,705.1h-4.4v-17.7h4.4V705.1z
				 M169.6,681.5h-4.4v-10.6h4.4V681.5z M169.6,665h-4.4v-10.6h4.4V665z M169.6,648.5h-4.4v-10.6h4.4V648.5z M169.6,632.1h-4.4
				v-10.6h4.4V632.1z M169.6,615.6h-4.4V605h4.4V615.6z M169.6,599.1h-4.4v-10.6h4.4V599.1z M169.6,582.6h-4.4V572h4.4V582.6z
				 M169.6,566.1h-4.4v-10.6h4.4V566.1z M169.6,549.6h-4.4V539h4.4V549.6z M169.6,533.1h-4.4v-10.6h4.4V533.1z M169.6,516.6h-4.4
				V506h4.4V516.6z M169.6,500.1h-4.4v-10.6h4.4V500.1z M169.6,483.7h-4.4v-10.6h4.4V483.7z M169.6,467.2h-4.4v-10.6h4.4V467.2z
				 M169.6,450.7h-4.4v-10.6h4.4V450.7z M169.6,434.2h-4.4v-10.6h4.4V434.2z M169.6,417.7h-4.4v-10.6h4.4V417.7z M169.6,401.2h-4.4
				v-10.6h4.4V401.2z M169.6,384.7h-4.4v-10.6h4.4V384.7z M178.6,705.1h-4.4v-17.7h4.4V705.1z M178.6,681.5h-4.4v-10.6h4.4V681.5z
				 M178.6,665h-4.4v-10.6h4.4V665z M178.6,648.5h-4.4v-10.6h4.4V648.5z M178.6,632h-4.4v-10.6h4.4V632z M178.6,615.5h-4.4v-10.6
				h4.4V615.5z M178.6,599h-4.4v-10.6h4.4V599z M178.6,582.5h-4.4v-10.6h4.4V582.5z M178.6,566.1h-4.4v-10.6h4.4V566.1z
				 M178.6,549.6h-4.4V539h4.4V549.6z M178.6,533.1h-4.4v-10.6h4.4V533.1z M178.6,516.6h-4.4V506h4.4V516.6z M178.6,500.1h-4.4
				v-10.6h4.4V500.1z M178.6,483.6h-4.4V473h4.4V483.6z M178.6,467.1h-4.4v-10.6h4.4V467.1z M178.6,450.6h-4.4V440h4.4V450.6z
				 M178.6,434.1h-4.4v-10.6h4.4V434.1z M178.6,417.7h-4.4v-10.6h4.4V417.7z M178.6,401.2h-4.4v-10.6h4.4V401.2z M178.6,384.7h-4.4
				v-10.6h4.4V384.7z M205.8,705h-6.2v-22.8h6.2V705z M205.8,676.9h-6.2v-9.6h6.2V676.9z M205.8,661.9h-6.2v-9.6h6.2V661.9z
				 M205.8,646.9h-6.2v-9.6h6.2V646.9z M205.8,631.9h-6.2v-9.6h6.2V631.9z M205.8,616.9h-6.2v-9.6h6.2V616.9z M209,516.6h-4.4V506
				h4.4V516.6z M209,500.1h-4.4v-10.6h4.4V500.1z M215.9,705.1h-6.2v-22.8h6.2V705.1z M215.9,676.9h-6.2v-9.6h6.2V676.9z
				 M215.9,661.9h-6.2v-9.6h6.2V661.9z M215.9,646.9h-6.2v-9.6h6.2V646.9z M215.9,631.9h-6.2v-9.6h6.2V631.9z M215.9,617h-6.2v-9.6
				h6.2V617z M240.1,705.1h-16.7V696h16.7V705.1z M240.1,692.3h-16.7v-6.7h16.7V692.3z M240.1,681.9h-16.7v-6.7h16.7V681.9z
				 M240.1,671.4h-16.7v-6.7h16.7V671.4z M240.1,660.9h-16.7v-6.7h16.7V660.9z M240.1,650.5h-16.7v-6.7h16.7V650.5z M240.1,640
				h-16.7v-6.7h16.7V640z M240.1,629.6h-16.7v-6.7h16.7V629.6z M240.1,619.1h-16.7v-6.7h16.7V619.1z M240.1,608.6h-16.7v-6.7h16.7
				V608.6z M240.1,598.2h-16.7v-6.7h16.7V598.2z M240.1,587.7h-16.7V581h16.7V587.7z M240.1,577.3h-16.7v-6.7h16.7V577.3z
				 M240.1,566.8h-16.7v-6.7h16.7V566.8z M240.1,556.3h-16.7v-6.7h16.7V556.3z M240.1,545.9h-16.7v-6.7h16.7V545.9z M240.1,535.4
				h-16.7v-6.7h16.7V535.4z M261.6,705.1h-16.6V696h16.6V705.1z M261.6,692.3h-16.6v-6.7h16.6V692.3z M261.6,681.9h-16.6v-6.7h16.6
				V681.9z M261.6,671.4h-16.6v-6.7h16.6V671.4z M261.6,660.9h-16.6v-6.7h16.6V660.9z M261.6,650.5h-16.6v-6.7h16.6V650.5z
				 M261.6,640h-16.6v-6.7h16.6V640z M261.6,629.6h-16.6v-6.7h16.6V629.6z M261.6,619.1h-16.6v-6.7h16.6V619.1z M261.6,608.6h-16.6
				v-6.7h16.6V608.6z M261.6,598.2h-16.6v-6.7h16.6V598.2z M261.6,587.7h-16.6V581h16.6V587.7z M261.6,577.3h-16.6v-6.7h16.6V577.3z
				 M261.6,566.8h-16.6v-6.7h16.6V566.8z M261.6,556.3h-16.6v-6.7h16.6V556.3z M261.6,545.9h-16.6v-6.7h16.6V545.9z M261.6,535.4
				h-16.6v-6.7h16.6V535.4z M291.2,705.1h-9.8v-8.3h9.8V705.1z M291.2,694.5h-9.8v-4.2h9.8V694.5z M291.2,688h-9.8v-4.2h9.8V688z
				 M291.2,681.5h-9.8v-4.2h9.8V681.5z M291.2,675h-9.8v-4.2h9.8V675z M291.2,668.5h-9.8v-4.2h9.8V668.5z M291.2,662h-9.8v-4.2h9.8
				V662z M291.2,655.5h-9.8v-4.2h9.8V655.5z M291.2,649h-9.8v-4.2h9.8V649z M291.2,642.4h-9.8v-4.2h9.8V642.4z M291.2,635.9h-9.8
				v-4.2h9.8V635.9z M291.2,629.4h-9.8v-4.2h9.8V629.4z M291.2,622.9h-9.8v-4.2h9.8V622.9z M303.8,705H294v-8.3h9.8V705z
				 M303.8,694.4H294v-4.2h9.8V694.4z M303.8,687.9H294v-4.2h9.8V687.9z M303.8,681.4H294v-4.2h9.8V681.4z M303.8,674.9H294v-4.2
				h9.8V674.9z M303.8,668.4H294v-4.2h9.8V668.4z M303.8,661.9H294v-4.2h9.8V661.9z M303.8,655.4H294v-4.2h9.8V655.4z M303.8,648.9
				H294v-4.2h9.8V648.9z M303.8,642.4H294v-4.2h9.8V642.4z M303.8,635.9H294v-4.2h9.8V635.9z M303.8,629.4H294v-4.2h9.8V629.4z
				 M303.8,622.8H294v-4.2h9.8V622.8z M335.5,705h-7v-15h7V705z M335.5,684.9h-7v-9h7V684.9z M335.5,671h-7v-9h7V671z M335.5,657h-7
				v-9h7V657z M335.5,643h-7v-9h7V643z M335.5,629h-7v-9h7V629z M335.5,615.1h-7v-9h7V615.1z M335.5,601.1h-7v-9h7V601.1z
				 M335.5,587.1h-7v-9h7V587.1z M335.5,573.1h-7v-9h7V573.1z M335.5,559.2h-7v-9h7V559.2z M335.5,545.2h-7v-9h7V545.2z
				 M335.5,531.2h-7v-9h7V531.2z M335.5,517.2h-7v-9h7V517.2z M335.5,503.2h-7v-9h7V503.2z M335.5,489.3h-7v-9h7V489.3z
				 M335.5,475.3h-7v-9h7V475.3z M335.5,461.3h-7v-9h7V461.3z M335.5,447.3h-7v-9h7V447.3z M335.5,433.4h-7v-9h7V433.4z M349.8,705
				h-7v-15h7V705z M349.8,684.9h-7v-9h7V684.9z M349.8,671h-7v-9h7V671z M349.8,657h-7v-9h7V657z M349.8,643h-7v-9h7V643z
				 M349.8,629h-7v-9h7V629z M349.8,615.1h-7v-9h7V615.1z M349.8,601.1h-7v-9h7V601.1z M349.8,587.1h-7v-9h7V587.1z M349.8,573.1h-7
				v-9h7V573.1z M349.8,559.2h-7v-9h7V559.2z M349.8,545.2h-7v-9h7V545.2z M349.8,531.2h-7v-9h7V531.2z M349.8,517.2h-7v-9h7V517.2z
				 M349.8,503.2h-7v-9h7V503.2z M349.8,489.3h-7v-9h7V489.3z M349.8,475.3h-7v-9h7V475.3z M349.8,461.3h-7v-9h7V461.3z
				 M349.8,447.3h-7v-9h7V447.3z M349.8,433.4h-7v-9h7V433.4z M364.1,705h-7v-15h7V705z M364.1,684.9h-7v-9h7V684.9z M364.1,671h-7
				v-9h7V671z M364.1,657h-7v-9h7V657z M364.1,643h-7v-9h7V643z M364.1,629h-7v-9h7V629z M364.1,615.1h-7v-9h7V615.1z M364.1,601.1
				h-7v-9h7V601.1z M364.1,587.1h-7v-9h7V587.1z M364.1,573.1h-7v-9h7V573.1z M364.1,559.2h-7v-9h7V559.2z M364.1,545.2h-7v-9h7
				V545.2z M364.1,531.2h-7v-9h7V531.2z M364.1,517.2h-7v-9h7V517.2z M364.1,503.2h-7v-9h7V503.2z M364.1,489.3h-7v-9h7V489.3z
				 M364.1,475.3h-7v-9h7V475.3z M364.1,461.3h-7v-9h7V461.3z M364.1,447.3h-7v-9h7V447.3z M364.1,433.4h-7v-9h7V433.4z M385.7,705
				h-6.1v-9.4h6.1V705z M385.7,692.5h-6.1v-5.6h6.1V692.5z M385.7,683.8h-6.1v-5.6h6.1V683.8z M385.7,675.1h-6.1v-5.6h6.1V675.1z
				 M385.7,666.4h-6.1v-5.6h6.1V666.4z M385.7,657.7h-6.1v-5.6h6.1V657.7z M385.7,649h-6.1v-5.6h6.1V649z M385.7,640.3h-6.1v-5.6
				h6.1V640.3z M385.7,631.6h-6.1V626h6.1V631.6z M385.7,622.9h-6.1v-5.6h6.1V622.9z M385.7,614.2h-6.1v-5.6h6.1V614.2z
				 M385.7,605.5h-6.1v-5.6h6.1V605.5z M385.7,596.8h-6.1v-5.6h6.1V596.8z M385.7,588.1h-6.1v-5.6h6.1V588.1z M385.7,579.4h-6.1
				v-5.6h6.1V579.4z M385.7,570.7h-6.1v-5.6h6.1V570.7z M385.7,562h-6.1v-5.6h6.1V562z M385.7,553.3h-6.1v-5.6h6.1V553.3z
				 M385.7,544.6h-6.1V539h6.1V544.6z M385.7,535.9h-6.1v-5.6h6.1V535.9z M398.2,704.9h-6.1v-9.4h6.1V704.9z M398.2,692.4h-6.1v-5.6
				h6.1V692.4z M398.2,683.7h-6.1v-5.6h6.1V683.7z M398.2,675h-6.1v-5.6h6.1V675z M398.2,666.3h-6.1v-5.6h6.1V666.3z M398.2,657.6
				h-6.1V652h6.1V657.6z M398.2,648.9h-6.1v-5.6h6.1V648.9z M398.2,640.2h-6.1v-5.6h6.1V640.2z M398.2,631.5h-6.1v-5.6h6.1V631.5z
				 M398.2,622.8h-6.1v-5.6h6.1V622.8z M398.2,614.1h-6.1v-5.6h6.1V614.1z M398.2,605.4h-6.1v-5.6h6.1V605.4z M398.2,596.7h-6.1
				v-5.6h6.1V596.7z M398.2,588h-6.1v-5.6h6.1V588z M398.2,579.3h-6.1v-5.6h6.1V579.3z M398.2,570.6h-6.1V565h6.1V570.6z
				 M398.2,561.9h-6.1v-5.6h6.1V561.9z M398.2,553.2h-6.1v-5.6h6.1V553.2z M398.2,544.5h-6.1v-5.6h6.1V544.5z M398.2,535.8h-6.1
				v-5.6h6.1V535.8z M410.8,704.8h-6.1v-9.4h6.1V704.8z M410.8,692.4h-6.1v-5.6h6.1V692.4z M410.8,683.7h-6.1v-5.6h6.1V683.7z
				 M410.8,675h-6.1v-5.6h6.1V675z M410.8,666.3h-6.1v-5.6h6.1V666.3z M410.8,657.6h-6.1V652h6.1V657.6z M410.8,648.9h-6.1v-5.6h6.1
				V648.9z M410.8,640.2h-6.1v-5.6h6.1V640.2z M410.8,631.5h-6.1v-5.6h6.1V631.5z M410.8,622.8h-6.1v-5.6h6.1V622.8z M410.8,614.1
				h-6.1v-5.6h6.1V614.1z M410.8,605.4h-6.1v-5.6h6.1V605.4z M410.8,596.7h-6.1v-5.6h6.1V596.7z M410.8,588h-6.1v-5.6h6.1V588z
				 M410.8,579.3h-6.1v-5.6h6.1V579.3z M410.8,570.6h-6.1V565h6.1V570.6z M410.8,561.8h-6.1v-5.6h6.1V561.8z M410.8,553.1h-6.1v-5.6
				h6.1V553.1z M410.8,544.4h-6.1v-5.6h6.1V544.4z M410.8,535.7h-6.1v-5.6h6.1V535.7z M435.1,704.8h-6.2v-22.8h6.2V704.8z
				 M435.1,676.6h-6.2v-9.6h6.2V676.6z M435.1,661.6h-6.2V652h6.2V661.6z M435.1,646.6h-6.2V637h6.2V646.6z M435.1,631.6h-6.2V622
				h6.2V631.6z M435.1,616.7h-6.2V607h6.2V616.7z M465.4,704.8h-6.2V682h6.2V704.8z M465.4,676.6h-6.2V667h6.2V676.6z M465.4,661.7
				h-6.2V652h6.2V661.7z M465.4,646.7h-6.2V637h6.2V646.7z M465.4,631.7h-6.2V622h6.2V631.7z M465.4,616.7h-6.2v-9.6h6.2V616.7z
				 M465.4,601.7h-6.2v-9.6h6.2V601.7z M465.4,586.7h-6.2v-9.6h6.2V586.7z M465.4,571.8h-6.2v-9.6h6.2V571.8z M465.4,556.8h-6.2
				v-9.6h6.2V556.8z M465.4,541.8h-6.2v-9.6h6.2V541.8z M465.4,526.8h-6.2v-9.6h6.2V526.8z M465.4,511.8h-6.2v-9.6h6.2V511.8z
				 M465.4,496.8h-6.2v-9.6h6.2V496.8z M465.4,481.9h-6.2v-9.6h6.2V481.9z M465.4,466.9h-6.2v-9.6h6.2V466.9z M465.4,451.9h-6.2
				v-9.6h6.2V451.9z M465.4,436.9h-6.2v-9.6h6.2V436.9z M465.4,421.9h-6.2v-9.6h6.2V421.9z M465.4,406.9h-6.2v-9.6h6.2V406.9z
				 M465.4,392h-6.2v-9.6h6.2V392z M465.4,377h-6.2v-9.6h6.2V377z M465.4,362h-6.2v-9.6h6.2V362z M465.4,347h-6.2v-9.6h6.2V347z
				 M465.4,332h-6.2v-9.6h6.2V332z M465.4,317.1h-6.2v-9.6h6.2V317.1z M465.4,302.1h-6.2v-9.6h6.2V302.1z M465.4,287.1h-6.2v-9.6
				h6.2V287.1z M473.8,705h-6.2v-22.8h6.2V705z M473.8,676.8h-6.2v-9.6h6.2V676.8z M473.8,661.9h-6.2v-9.6h6.2V661.9z M473.8,646.9
				h-6.2v-9.6h6.2V646.9z M473.8,631.9h-6.2v-9.6h6.2V631.9z M473.8,616.9h-6.2v-9.6h6.2V616.9z M473.8,601.9h-6.2v-9.6h6.2V601.9z
				 M473.8,586.9h-6.2v-9.6h6.2V586.9z M473.8,572h-6.2v-9.6h6.2V572z M473.8,557h-6.2v-9.6h6.2V557z M473.8,542h-6.2v-9.6h6.2V542z
				 M473.8,527h-6.2v-9.6h6.2V527z M473.8,512h-6.2v-9.6h6.2V512z M473.8,497h-6.2v-9.6h6.2V497z M473.8,482.1h-6.2v-9.6h6.2V482.1z
				 M473.8,467.1h-6.2v-9.6h6.2V467.1z M473.8,452.1h-6.2v-9.6h6.2V452.1z M473.8,437.1h-6.2v-9.6h6.2V437.1z M473.8,422.1h-6.2
				v-9.6h6.2V422.1z M473.8,407.1h-6.2v-9.6h6.2V407.1z M473.8,392.2h-6.2v-9.6h6.2V392.2z M473.8,377.2h-6.2v-9.6h6.2V377.2z
				 M473.8,362.2h-6.2v-9.6h6.2V362.2z M473.8,347.2h-6.2v-9.6h6.2V347.2z M473.8,332.2h-6.2v-9.6h6.2V332.2z M473.8,317.3h-6.2
				v-9.6h6.2V317.3z M473.8,302.3h-6.2v-9.6h6.2V302.3z M473.8,287.3h-6.2v-9.6h6.2V287.3z M482.2,705.2H476v-22.8h6.2V705.2z
				 M482.2,677H476v-9.6h6.2V677z M482.2,662.1H476v-9.6h6.2V662.1z M482.2,647.1H476v-9.6h6.2V647.1z M482.2,632.1H476v-9.6h6.2
				V632.1z M482.2,617.1H476v-9.6h6.2V617.1z M482.2,602.1H476v-9.6h6.2V602.1z M482.2,587.2H476v-9.6h6.2V587.2z M482.2,572.2H476
				v-9.6h6.2V572.2z M482.2,557.2H476v-9.6h6.2V557.2z M482.2,542.2H476v-9.6h6.2V542.2z M482.2,527.2H476v-9.6h6.2V527.2z
				 M482.2,512.2H476v-9.6h6.2V512.2z M482.2,497.2H476v-9.6h6.2V497.2z M482.2,482.3H476v-9.6h6.2V482.3z M482.2,467.3H476v-9.6
				h6.2V467.3z M482.2,452.3H476v-9.6h6.2V452.3z M482.2,437.3H476v-9.6h6.2V437.3z M482.2,422.3H476v-9.6h6.2V422.3z M482.2,407.4
				H476v-9.6h6.2V407.4z M482.2,392.4H476v-9.6h6.2V392.4z M482.2,377.4H476v-9.6h6.2V377.4z M482.2,362.4H476v-9.6h6.2V362.4z
				 M482.2,347.4H476v-9.6h6.2V347.4z M482.2,332.4H476v-9.6h6.2V332.4z M482.2,317.5H476v-9.6h6.2V317.5z M482.2,302.5H476v-9.6
				h6.2V302.5z M482.2,287.5H476v-9.6h6.2V287.5z M490.6,705.4h-6.2v-22.8h6.2V705.4z M490.6,677.2h-6.2v-9.6h6.2V677.2z
				 M490.6,662.3h-6.2v-9.6h6.2V662.3z M490.6,647.3h-6.2v-9.6h6.2V647.3z M490.6,632.3h-6.2v-9.6h6.2V632.3z M490.6,617.3h-6.2
				v-9.6h6.2V617.3z M490.6,602.3h-6.2v-9.6h6.2V602.3z M490.6,587.4h-6.2v-9.6h6.2V587.4z M490.6,572.4h-6.2v-9.6h6.2V572.4z
				 M490.6,557.4h-6.2v-9.6h6.2V557.4z M490.6,542.4h-6.2v-9.6h6.2V542.4z M490.6,527.4h-6.2v-9.6h6.2V527.4z M490.6,512.4h-6.2
				v-9.6h6.2V512.4z M490.6,497.4h-6.2v-9.6h6.2V497.4z M490.6,482.5h-6.2v-9.6h6.2V482.5z M490.6,467.5h-6.2v-9.6h6.2V467.5z
				 M490.6,452.5h-6.2v-9.6h6.2V452.5z M490.6,437.5h-6.2v-9.6h6.2V437.5z M490.6,422.5h-6.2v-9.6h6.2V422.5z M490.6,407.6h-6.2
				v-9.6h6.2V407.6z M490.6,392.6h-6.2v-9.6h6.2V392.6z M490.6,377.6h-6.2V368h6.2V377.6z M490.6,362.6h-6.2V353h6.2V362.6z
				 M490.6,347.6h-6.2V338h6.2V347.6z M490.6,332.7h-6.2V323h6.2V332.7z M490.6,317.7h-6.2V308h6.2V317.7z M490.6,302.7h-6.2v-9.6
				h6.2V302.7z M490.6,287.7h-6.2v-9.6h6.2V287.7z M517.4,705.6h-6.2v-22.8h6.2V705.6z M517.4,677.5h-6.2v-9.6h6.2V677.5z
				 M517.4,662.5h-6.2v-9.6h6.2V662.5z M517.4,647.5h-6.2v-9.6h6.2V647.5z M517.4,632.5h-6.2v-9.6h6.2V632.5z M517.4,617.5h-6.2
				v-9.6h6.2V617.5z M517.4,602.5h-6.2v-9.6h6.2V602.5z M517.4,587.6h-6.2v-9.6h6.2V587.6z M517.4,572.6h-6.2v-9.6h6.2V572.6z
				 M517.4,557.6h-6.2v-9.6h6.2V557.6z M517.4,542.6h-6.2V533h6.2V542.6z M517.4,527.6h-6.2V518h6.2V527.6z M517.4,512.6h-6.2V503
				h6.2V512.6z M517.4,497.7h-6.2V488h6.2V497.7z M517.4,482.7h-6.2V473h6.2V482.7z M517.4,467.7h-6.2v-9.6h6.2V467.7z M517.4,452.7
				h-6.2v-9.6h6.2V452.7z M517.4,437.7h-6.2v-9.6h6.2V437.7z M517.4,422.7h-6.2v-9.6h6.2V422.7z M517.4,407.8h-6.2v-9.6h6.2V407.8z
				 M517.4,392.8h-6.2v-9.6h6.2V392.8z M517.4,377.8h-6.2v-9.6h6.2V377.8z M517.4,362.8h-6.2v-9.6h6.2V362.8z M517.4,347.8h-6.2
				v-9.6h6.2V347.8z M517.4,332.9h-6.2v-9.6h6.2V332.9z M517.4,317.9h-6.2v-9.6h6.2V317.9z M525.8,705.8h-6.2V683h6.2V705.8z
				 M525.8,677.6h-6.2V668h6.2V677.6z M525.8,662.7h-6.2V653h6.2V662.7z M525.8,647.7h-6.2V638h6.2V647.7z M525.8,632.7h-6.2v-9.6
				h6.2V632.7z M525.8,617.7h-6.2v-9.6h6.2V617.7z M525.8,602.7h-6.2v-9.6h6.2V602.7z M525.8,587.7h-6.2v-9.6h6.2V587.7z
				 M525.8,572.8h-6.2v-9.6h6.2V572.8z M525.8,557.8h-6.2v-9.6h6.2V557.8z M525.8,542.8h-6.2v-9.6h6.2V542.8z M525.8,527.8h-6.2
				v-9.6h6.2V527.8z M525.8,512.8h-6.2v-9.6h6.2V512.8z M525.8,497.8h-6.2v-9.6h6.2V497.8z M525.8,482.9h-6.2v-9.6h6.2V482.9z
				 M525.8,467.9h-6.2v-9.6h6.2V467.9z M525.8,452.9h-6.2v-9.6h6.2V452.9z M525.8,437.9h-6.2v-9.6h6.2V437.9z M525.8,422.9h-6.2
				v-9.6h6.2V422.9z M525.8,407.9h-6.2v-9.6h6.2V407.9z M525.8,393h-6.2v-9.6h6.2V393z M525.8,378h-6.2v-9.6h6.2V378z M525.8,363
				h-6.2v-9.6h6.2V363z M525.8,348h-6.2v-9.6h6.2V348z M525.8,333h-6.2v-9.6h6.2V333z M525.8,318.1h-6.2v-9.6h6.2V318.1z M534.2,706
				H528v-22.8h6.2V706z M534.2,677.8H528v-9.6h6.2V677.8z M534.2,662.8H528v-9.6h6.2V662.8z M534.2,647.9H528v-9.6h6.2V647.9z
				 M534.2,632.9H528v-9.6h6.2V632.9z M534.2,617.9H528v-9.6h6.2V617.9z M534.2,602.9H528v-9.6h6.2V602.9z M534.2,587.9H528v-9.6
				h6.2V587.9z M534.2,572.9H528v-9.6h6.2V572.9z M534.2,557.9H528v-9.6h6.2V557.9z M534.2,543H528v-9.6h6.2V543z M534.2,528H528
				v-9.6h6.2V528z M534.2,513H528v-9.6h6.2V513z M534.2,498H528v-9.6h6.2V498z M534.2,483H528v-9.6h6.2V483z M534.2,468.1H528v-9.6
				h6.2V468.1z M534.2,453.1H528v-9.6h6.2V453.1z M534.2,438.1H528v-9.6h6.2V438.1z M534.2,423.1H528v-9.6h6.2V423.1z M534.2,408.1
				H528v-9.6h6.2V408.1z M534.2,393.1H528v-9.6h6.2V393.1z M534.2,378.2H528v-9.6h6.2V378.2z M534.2,363.2H528v-9.6h6.2V363.2z
				 M534.2,348.2H528v-9.6h6.2V348.2z M534.2,333.2H528v-9.6h6.2V333.2z M534.2,318.2H528v-9.6h6.2V318.2z M542.6,706.2h-6.2v-22.8
				h6.2V706.2z M542.6,678h-6.2v-9.6h6.2V678z M542.6,663h-6.2v-9.6h6.2V663z M542.6,648h-6.2v-9.6h6.2V648z M542.6,633.1h-6.2v-9.6
				h6.2V633.1z M542.6,618.1h-6.2v-9.6h6.2V618.1z M542.6,603.1h-6.2v-9.6h6.2V603.1z M542.6,588.1h-6.2v-9.6h6.2V588.1z
				 M542.6,573.1h-6.2v-9.6h6.2V573.1z M542.6,558.1h-6.2v-9.6h6.2V558.1z M542.6,543.1h-6.2v-9.6h6.2V543.1z M542.6,528.2h-6.2
				v-9.6h6.2V528.2z M542.6,513.2h-6.2v-9.6h6.2V513.2z M542.6,498.2h-6.2v-9.6h6.2V498.2z M542.6,483.2h-6.2v-9.6h6.2V483.2z
				 M542.6,468.2h-6.2v-9.6h6.2V468.2z M542.6,453.3h-6.2v-9.6h6.2V453.3z M542.6,438.3h-6.2v-9.6h6.2V438.3z M542.6,423.3h-6.2
				v-9.6h6.2V423.3z M542.6,408.3h-6.2v-9.6h6.2V408.3z M542.6,393.3h-6.2v-9.6h6.2V393.3z M542.6,378.4h-6.2v-9.6h6.2V378.4z
				 M542.6,363.4h-6.2v-9.6h6.2V363.4z M542.6,348.4h-6.2v-9.6h6.2V348.4z M542.6,333.4h-6.2v-9.6h6.2V333.4z M542.6,318.4h-6.2
				v-9.6h6.2V318.4z M567,706.4h-6.2v-22.8h6.2V706.4z M567,678.2h-6.2v-9.6h6.2V678.2z M567,663.2h-6.2v-9.6h6.2V663.2z M567,648.2
				h-6.2v-9.6h6.2V648.2z M567,633.2h-6.2v-9.6h6.2V633.2z M567,618.3h-6.2v-9.6h6.2V618.3z M567,603.3h-6.2v-9.6h6.2V603.3z
				 M567,588.3h-6.2v-9.6h6.2V588.3z M567,573.3h-6.2v-9.6h6.2V573.3z M567,558.3h-6.2v-9.6h6.2V558.3z M567,543.3h-6.2v-9.6h6.2
				V543.3z M567,528.3h-6.2v-9.6h6.2V528.3z M567,513.4h-6.2v-9.6h6.2V513.4z M567,498.4h-6.2v-9.6h6.2V498.4z M567,483.4h-6.2v-9.6
				h6.2V483.4z M567,468.4h-6.2v-9.6h6.2V468.4z M567,453.4h-6.2v-9.6h6.2V453.4z M567,438.5h-6.2v-9.6h6.2V438.5z M567,423.5h-6.2
				v-9.6h6.2V423.5z M627.3,706.5h-10v-22.8h10V706.5z M627.3,678.3h-10v-9.6h10V678.3z M627.3,663.3h-10v-9.6h10V663.3z
				 M627.3,648.3h-10v-9.6h10V648.3z M627.3,633.4h-10v-9.6h10V633.4z M627.3,618.4h-10v-9.6h10V618.4z M627.3,603.4h-10v-9.6h10
				V603.4z M640.9,706.5h-10v-22.8h10V706.5z M640.9,678.3h-10v-9.6h10V678.3z M640.9,663.4h-10v-9.6h10V663.4z M640.9,648.4h-10
				v-9.6h10V648.4z M640.9,633.4h-10v-9.6h10V633.4z M640.9,618.4h-10v-9.6h10V618.4z M640.9,603.4h-10v-9.6h10V603.4z M650.8,489.9
				h10v22.3h-10V489.9z M654.4,706.6h-10v-22.8h10V706.6z M654.4,678.4h-10v-9.6h10V678.4z M654.4,663.4h-10v-9.6h10V663.4z
				 M654.4,648.4h-10v-9.6h10V648.4z M654.4,633.4h-10v-9.6h10V633.4z M654.4,618.5h-10v-9.6h10V618.5z M654.4,603.5h-10v-9.6h10
				V603.5z M668,706.6h-10v-22.8h10V706.6z M668,678.4h-10v-9.6h10V678.4z M668,663.5h-10v-9.6h10V663.5z M668,648.5h-10v-9.6h10
				V648.5z M668,633.5h-10v-9.6h10V633.5z M668,618.5h-10v-9.6h10V618.5z M668,603.5h-10v-9.6h10V603.5z M704.1,706.7h-8.8v-44.4
				h8.8V706.7z M704.1,651.9h-8.8v-18.8h8.8V651.9z M704.1,622.7h-8.8V604h8.8V622.7z M704.1,593.6h-8.8v-18.8h8.8V593.6z
				 M704.1,564.4h-8.8v-18.7h8.8V564.4z M704.1,535.3h-8.8v-18.7h8.8V535.3z M704.1,506.1h-8.8v-18.8h8.8V506.1z M716.1,706.7h-8.8
				v-44.4h8.8V706.7z M716.1,651.9h-8.8v-18.7h8.8V651.9z M716.1,622.7h-8.8V604h8.8V622.7z M716.1,593.6h-8.8v-18.8h8.8V593.6z
				 M716.1,564.5h-8.8v-18.8h8.8V564.5z M716.1,535.3h-8.8v-18.7h8.8V535.3z M716.1,506.2h-8.8v-18.8h8.8V506.2z M728,706.7h-8.8
				v-44.4h8.8V706.7z M728,651.9h-8.8v-18.7h8.8V651.9z M728,622.8h-8.8V604h8.8V622.8z M728,593.6h-8.8v-18.8h8.8V593.6z
				 M728,564.5h-8.8v-18.8h8.8V564.5z M728,535.3h-8.8v-18.8h8.8V535.3z M728,506.2h-8.8v-18.7h8.8V506.2z M740,706.7h-8.8v-44.4
				h8.8V706.7z M740,651.9h-8.8v-18.8h8.8V651.9z M740,622.8h-8.8V604h8.8V622.8z M740,593.6h-8.8v-18.7h8.8V593.6z M740,564.5h-8.8
				v-18.8h8.8V564.5z M740,535.4h-8.8v-18.8h8.8V535.4z M740,506.2h-8.8v-18.7h8.8V506.2z M740,463.1h-8.8v-14.3h8.8V463.1z
				 M780.3,706.8H776v-44.4h4.2V706.8z M780.3,651.9H776v-18.8h4.2V651.9z M780.3,622.8H776v-18.8h4.2V622.8z M780.3,593.7H776
				v-18.7h4.2V593.7z M780.3,564.5H776v-18.8h4.2V564.5z M780.3,535.4H776v-18.8h4.2V535.4z M780.3,506.2H776v-18.8h4.2V506.2z
				 M786,706.8h-4.2v-44.4h4.2V706.8z M786,652h-4.2v-18.8h4.2V652z M786,622.8h-4.2v-18.8h4.2V622.8z M786,593.7h-4.2v-18.7h4.2
				V593.7z M786,564.5h-4.2v-18.7h4.2V564.5z M786,535.4h-4.2v-18.8h4.2V535.4z M786,506.3h-4.2v-18.8h4.2V506.3z M791.8,706.8h-4.2
				v-44.4h4.2V706.8z M791.8,652h-4.2v-18.8h4.2V652z M791.8,622.8h-4.2v-18.8h4.2V622.8z M791.8,593.7h-4.2V575h4.2V593.7z
				 M791.8,564.6h-4.2v-18.7h4.2V564.6z M791.8,535.4h-4.2v-18.8h4.2V535.4z M791.8,506.3h-4.2v-18.8h4.2V506.3z M797.5,706.8h-4.2
				v-44.4h4.2V706.8z M797.5,652h-4.2v-18.7h4.2V652z M797.5,622.9h-4.2v-18.8h4.2V622.9z M797.5,593.7h-4.2V575h4.2V593.7z
				 M797.5,564.6h-4.2v-18.8h4.2V564.6z M797.5,535.4h-4.2v-18.7h4.2V535.4z M797.5,506.3h-4.2v-18.8h4.2V506.3z M857.8,706.8h-8.4
				v-34h8.4V706.8z M857.8,664.9h-8.4v-14.3h8.4V664.9z M857.8,642.6h-8.4v-14.3h8.4V642.6z M857.8,620.4h-8.4V606h8.4V620.4z
				 M857.8,598.1h-8.4v-14.3h8.4V598.1z M869.2,706.9h-8.4v-34h8.4V706.9z M869.2,665h-8.4v-14.3h8.4V665z M869.2,642.7h-8.4v-14.3
				h8.4V642.7z M869.2,620.4h-8.4V606h8.4V620.4z M869.2,598.1h-8.4v-14.3h8.4V598.1z M880.6,706.9h-8.4v-34h8.4V706.9z M880.6,665
				h-8.4v-14.3h8.4V665z M880.6,642.7h-8.4v-14.3h8.4V642.7z M880.6,620.4h-8.4v-14.3h8.4V620.4z M880.6,598.1h-8.4v-14.3h8.4V598.1
				z M880.6,564.4h-8.4v-14.3h8.4V564.4z M892,706.9h-8.4v-34h8.4V706.9z M892,665h-8.4v-14.3h8.4V665z M892,642.7h-8.4v-14.3h8.4
				V642.7z M892,620.4h-8.4v-14.3h8.4V620.4z M892,598.1h-8.4v-14.3h8.4V598.1z M912.5,706.9h-4.2v-38.1h4.2V706.9z M912.5,659.9
				h-4.2v-16.1h4.2V659.9z M912.5,634.9h-4.2v-16.1h4.2V634.9z M912.5,609.9h-4.2v-16.1h4.2V609.9z M942,706.9h-8.4v-34h8.4V706.9z
				 M942,665h-8.4v-14.3h8.4V665z M942,642.7h-8.4v-14.3h8.4V642.7z M942,620.4h-8.4v-14.3h8.4V620.4z M942,598.1h-8.4v-26.8h8.4
				V598.1z M953.4,706.9H945v-34h8.4V706.9z M953.4,665H945v-14.3h8.4V665z M953.4,642.7H945v-14.3h8.4V642.7z M953.4,620.5H945
				v-14.3h8.4V620.5z M953.4,598.2H945v-26.8h8.4V598.2z M964.8,707h-8.4v-34h8.4V707z M964.8,665.1h-8.4v-14.3h8.4V665.1z
				 M964.8,642.8h-8.4v-14.3h8.4V642.8z M964.8,620.5h-8.4v-14.3h8.4V620.5z M964.8,598.2h-8.4v-26.8h8.4V598.2z M976.2,707h-8.4
				v-34h8.4V707z M976.2,665.1h-8.4v-14.3h8.4V665.1z M976.2,642.8h-8.4v-14.3h8.4V642.8z M976.2,620.5h-8.4v-14.3h8.4V620.5z
				 M976.2,598.2h-8.4v-26.8h8.4V598.2z M1053.5,707h-7.7v-26.9h7.7V707z M1053.5,674.2h-7.7v-10.7h7.7V674.2z M1053.5,657.5h-7.7
				v-10.7h7.7V657.5z M1053.5,640.9h-7.7v-10.7h7.7V640.9z M1053.5,624.3h-7.7v-10.7h7.7V624.3z M1053.5,607.7h-7.7V597h7.7V607.7z
				 M1053.5,591h-7.7v-10.7h7.7V591z M1061.2,707h-5.3v-26.9h5.3V707z M1061.2,674.2h-5.3v-10.7h5.3V674.2z M1061.2,657.5h-5.3
				v-10.7h5.3V657.5z M1061.2,640.9h-5.3v-10.7h5.3V640.9z M1061.2,624.3h-5.3v-10.7h5.3V624.3z M1061.2,607.7h-5.3V597h5.3V607.7z
				 M1061.2,591h-5.3v-10.7h5.3V591z M1070.2,707h-5.3v-26.9h5.3V707z M1070.2,674.2h-5.3v-10.7h5.3V674.2z M1070.2,657.5h-5.3
				v-10.7h5.3V657.5z M1070.2,640.9h-5.3v-10.7h5.3V640.9z M1070.2,624.3h-5.3v-10.7h5.3V624.3z M1070.2,607.7h-5.3V597h5.3V607.7z
				 M1070.2,591h-5.3v-10.7h5.3V591z M1070.2,574.4h-5.3v-10.7h5.3V574.4z M1080.2,707h-7.7v-26.9h7.7V707z M1080.2,674.2h-7.7
				v-10.7h7.7V674.2z M1080.2,657.5h-7.7v-10.7h7.7V657.5z M1080.2,640.9h-7.7v-10.7h7.7V640.9z M1080.2,624.3h-7.7v-10.7h7.7V624.3
				z M1080.2,607.7h-7.7V597h7.7V607.7z M1080.2,591h-7.7v-10.7h7.7V591z M1110.4,707h-5.3v-26.9h5.3V707z M1110.4,674.2h-5.3v-10.7
				h5.3V674.2z M1110.4,657.5h-5.3v-10.7h5.3V657.5z M1117.6,707h-5.3v-26.9h5.3V707z M1117.6,674.2h-5.3v-10.7h5.3V674.2z
				 M1117.6,657.5h-5.3v-10.7h5.3V657.5z M1161,707h-6.2v-20.9h6.2V707z M1161,681.2h-6.2v-8.8h6.2V681.2z M1161,667.5h-6.2v-8.8
				h6.2V667.5z M1161,653.8h-6.2V645h6.2V653.8z M1161,640h-6.2v-8.8h6.2V640z M1161,626.3h-6.2v-8.8h6.2V626.3z M1161,612.6h-6.2
				v-8.8h6.2V612.6z M1161,598.9h-6.2v-8.8h6.2V598.9z M1161,585.1h-6.2v-8.8h6.2V585.1z M1161,571.4h-6.2v-8.8h6.2V571.4z
				 M1161,557.7h-6.2v-8.8h6.2V557.7z M1161,544h-6.2v-8.8h6.2V544z M1161,530.2h-6.2v-8.8h6.2V530.2z M1161,516.5h-6.2v-8.8h6.2
				V516.5z M1161,502.8h-6.2V494h6.2V502.8z M1161,489.1h-6.2v-8.8h6.2V489.1z M1161,475.3h-6.2v-8.8h6.2V475.3z M1161,461.6h-6.2
				v-8.8h6.2V461.6z M1161,447.9h-6.2v-8.8h6.2V447.9z M1161,434.2h-6.2v-8.8h6.2V434.2z M1161,420.4h-6.2v-8.8h6.2V420.4z
				 M1161,406.7h-6.2v-8.8h6.2V406.7z M1161,393h-6.2v-8.8h6.2V393z M1161,379.3h-6.2v-8.8h6.2V379.3z M1161,365.5h-6.2v-8.8h6.2
				V365.5z M1161,351.8h-6.2V343h6.2V351.8z M1169.4,706.9h-6.2V686h6.2V706.9z M1169.4,681.1h-6.2v-8.8h6.2V681.1z M1169.4,667.4
				h-6.2v-8.8h6.2V667.4z M1169.4,653.6h-6.2v-8.8h6.2V653.6z M1169.4,639.9h-6.2v-8.8h6.2V639.9z M1169.4,626.2h-6.2v-8.8h6.2
				V626.2z M1169.4,612.5h-6.2v-8.8h6.2V612.5z M1169.4,598.7h-6.2v-8.8h6.2V598.7z M1169.4,585h-6.2v-8.8h6.2V585z M1169.4,571.3
				h-6.2v-8.8h6.2V571.3z M1169.4,557.6h-6.2v-8.8h6.2V557.6z M1169.4,543.8h-6.2V535h6.2V543.8z M1169.4,530.1h-6.2v-8.8h6.2V530.1
				z M1169.4,516.4h-6.2v-8.8h6.2V516.4z M1169.4,502.7h-6.2v-8.8h6.2V502.7z M1169.4,488.9h-6.2v-8.8h6.2V488.9z M1169.4,475.2
				h-6.2v-8.8h6.2V475.2z M1169.4,461.5h-6.2v-8.8h6.2V461.5z M1169.4,447.8h-6.2v-8.8h6.2V447.8z M1169.4,434h-6.2v-8.8h6.2V434z
				 M1169.4,420.3h-6.2v-8.8h6.2V420.3z M1169.4,406.6h-6.2v-8.8h6.2V406.6z M1169.4,392.9h-6.2V384h6.2V392.9z M1169.4,379.1h-6.2
				v-8.8h6.2V379.1z M1169.4,365.4h-6.2v-8.8h6.2V365.4z M1169.4,351.7h-6.2v-8.8h6.2V351.7z M1177.8,706.7h-6.2v-20.9h6.2V706.7z
				 M1177.8,680.9h-6.2v-8.8h6.2V680.9z M1177.8,667.2h-6.2v-8.8h6.2V667.2z M1177.8,653.5h-6.2v-8.8h6.2V653.5z M1177.8,639.8h-6.2
				V631h6.2V639.8z M1177.8,626h-6.2v-8.8h6.2V626z M1177.8,612.3h-6.2v-8.8h6.2V612.3z M1177.8,598.6h-6.2v-8.8h6.2V598.6z
				 M1177.8,584.9h-6.2v-8.8h6.2V584.9z M1177.8,571.1h-6.2v-8.8h6.2V571.1z M1177.8,557.4h-6.2v-8.8h6.2V557.4z M1177.8,543.7h-6.2
				v-8.8h6.2V543.7z M1177.8,530h-6.2v-8.8h6.2V530z M1177.8,516.2h-6.2v-8.8h6.2V516.2z M1177.8,502.5h-6.2v-8.8h6.2V502.5z
				 M1177.8,488.8h-6.2V480h6.2V488.8z M1177.8,475.1h-6.2v-8.8h6.2V475.1z M1177.8,461.3h-6.2v-8.8h6.2V461.3z M1177.8,447.6h-6.2
				v-8.8h6.2V447.6z M1177.8,433.9h-6.2v-8.8h6.2V433.9z M1177.8,420.2h-6.2v-8.8h6.2V420.2z M1177.8,406.4h-6.2v-8.8h6.2V406.4z
				 M1177.8,392.7h-6.2v-8.8h6.2V392.7z M1177.8,379h-6.2v-8.8h6.2V379z M1177.8,365.3h-6.2v-8.8h6.2V365.3z M1177.8,351.6h-6.2
				v-8.8h6.2V351.6z M1186.2,706.6h-6.2v-20.9h6.2V706.6z M1186.2,680.8h-6.2V672h6.2V680.8z M1186.2,667.1h-6.2v-8.8h6.2V667.1z
				 M1186.2,653.4h-6.2v-8.8h6.2V653.4z M1186.2,639.6h-6.2v-8.8h6.2V639.6z M1186.2,625.9h-6.2v-8.8h6.2V625.9z M1186.2,612.2h-6.2
				v-8.8h6.2V612.2z M1186.2,598.5h-6.2v-8.8h6.2V598.5z M1186.2,584.7h-6.2v-8.8h6.2V584.7z M1186.2,571h-6.2v-8.8h6.2V571z
				 M1186.2,557.3h-6.2v-8.8h6.2V557.3z M1186.2,543.6h-6.2v-8.8h6.2V543.6z M1186.2,529.8h-6.2V521h6.2V529.8z M1186.2,516.1h-6.2
				v-8.8h6.2V516.1z M1186.2,502.4h-6.2v-8.8h6.2V502.4z M1186.2,488.7h-6.2v-8.8h6.2V488.7z M1186.2,474.9h-6.2v-8.8h6.2V474.9z
				 M1186.2,461.2h-6.2v-8.8h6.2V461.2z M1186.2,447.5h-6.2v-8.8h6.2V447.5z M1186.2,433.8h-6.2v-8.8h6.2V433.8z M1186.2,420h-6.2
				v-8.8h6.2V420z M1186.2,406.3h-6.2v-8.8h6.2V406.3z M1186.2,392.6h-6.2v-8.8h6.2V392.6z M1186.2,378.9h-6.2V370h6.2V378.9z
				 M1186.2,365.1h-6.2v-8.8h6.2V365.1z M1186.2,351.4h-6.2v-8.8h6.2V351.4z M1206.2,706.5h-6.2v-17.8h6.2V706.5z M1206.2,684.5
				h-6.2V677h6.2V684.5z M1206.2,672.8h-6.2v-7.5h6.2V672.8z M1206.2,661.1h-6.2v-7.5h6.2V661.1z M1206.2,649.4h-6.2v-7.5h6.2V649.4
				z M1206.2,637.7h-6.2v-7.5h6.2V637.7z M1206.2,626h-6.2v-7.5h6.2V626z M1206.2,614.3h-6.2v-7.5h6.2V614.3z M1206.2,602.6h-6.2
				v-7.5h6.2V602.6z M1206.2,590.9h-6.2v-7.5h6.2V590.9z M1206.2,579.2h-6.2v-7.5h6.2V579.2z M1206.2,567.5h-6.2V560h6.2V567.5z
				 M1206.2,555.8h-6.2v-7.5h6.2V555.8z M1206.2,544.2h-6.2v-7.5h6.2V544.2z M1206.2,532.5h-6.2v-7.5h6.2V532.5z M1206.2,520.8h-6.2
				v-7.5h6.2V520.8z M1206.2,509.1h-6.2v-7.5h6.2V509.1z M1206.2,497.4h-6.2v-7.5h6.2V497.4z M1206.2,485.7h-6.2v-7.5h6.2V485.7z
				 M1206.2,474h-6.2v-7.5h6.2V474z M1206.2,462.3h-6.2v-7.5h6.2V462.3z M1206.2,450.6h-6.2v-7.5h6.2V450.6z M1206.2,438.9h-6.2
				v-7.5h6.2V438.9z M1206.2,427.2h-6.2v-7.5h6.2V427.2z M1206.2,415.5h-6.2V408h6.2V415.5z M1206.2,403.8h-6.2v-7.5h6.2V403.8z
				 M1214.6,706.5h-6.2v-17.8h6.2V706.5z M1214.6,684.5h-6.2V677h6.2V684.5z M1214.6,672.8h-6.2v-7.5h6.2V672.8z M1214.6,661.1h-6.2
				v-7.5h6.2V661.1z M1214.6,649.4h-6.2v-7.5h6.2V649.4z M1214.6,637.7h-6.2v-7.5h6.2V637.7z M1214.6,626h-6.2v-7.5h6.2V626z
				 M1214.6,614.3h-6.2v-7.5h6.2V614.3z M1214.6,602.6h-6.2v-7.5h6.2V602.6z M1214.6,590.9h-6.2v-7.5h6.2V590.9z M1214.6,579.3h-6.2
				v-7.5h6.2V579.3z M1214.6,567.6h-6.2V560h6.2V567.6z M1214.6,555.9h-6.2v-7.5h6.2V555.9z M1214.6,544.2h-6.2v-7.5h6.2V544.2z
				 M1214.6,532.5h-6.2V525h6.2V532.5z M1214.6,520.8h-6.2v-7.5h6.2V520.8z M1214.6,509.1h-6.2v-7.5h6.2V509.1z M1214.6,497.4h-6.2
				v-7.5h6.2V497.4z M1214.6,485.7h-6.2v-7.5h6.2V485.7z M1214.6,474h-6.2v-7.5h6.2V474z M1214.6,462.3h-6.2v-7.5h6.2V462.3z
				 M1214.6,450.6h-6.2v-7.5h6.2V450.6z M1214.6,438.9h-6.2v-7.5h6.2V438.9z M1214.6,427.2h-6.2v-7.5h6.2V427.2z M1214.6,415.6h-6.2
				V408h6.2V415.6z M1214.6,403.9h-6.2v-7.5h6.2V403.9z M1222.9,706.5h-6.2v-17.8h6.2V706.5z M1222.9,684.5h-6.2V677h6.2V684.5z
				 M1222.9,672.8h-6.2v-7.5h6.2V672.8z M1222.9,661.1h-6.2v-7.5h6.2V661.1z M1222.9,649.4h-6.2v-7.5h6.2V649.4z M1222.9,637.7h-6.2
				v-7.5h6.2V637.7z M1222.9,626h-6.2v-7.5h6.2V626z M1222.9,614.4h-6.2v-7.5h6.2V614.4z M1222.9,602.7h-6.2v-7.5h6.2V602.7z
				 M1222.9,591h-6.2v-7.5h6.2V591z M1222.9,579.3h-6.2v-7.5h6.2V579.3z M1222.9,567.6h-6.2v-7.5h6.2V567.6z M1222.9,555.9h-6.2
				v-7.5h6.2V555.9z M1222.9,544.2h-6.2v-7.5h6.2V544.2z M1222.9,532.5h-6.2V525h6.2V532.5z M1222.9,520.8h-6.2v-7.5h6.2V520.8z
				 M1222.9,509.1h-6.2v-7.5h6.2V509.1z M1222.9,497.4h-6.2v-7.5h6.2V497.4z M1222.9,485.7h-6.2v-7.5h6.2V485.7z M1222.9,474h-6.2
				v-7.5h6.2V474z M1222.9,462.3h-6.2v-7.5h6.2V462.3z M1222.9,450.7h-6.2v-7.5h6.2V450.7z M1222.9,439h-6.2v-7.5h6.2V439z
				 M1222.9,427.3h-6.2v-7.5h6.2V427.3z M1222.9,415.6h-6.2v-7.5h6.2V415.6z M1222.9,403.9h-6.2v-7.5h6.2V403.9z M1231.3,706.5h-6.2
				v-17.8h6.2V706.5z M1231.3,684.5h-6.2V677h6.2V684.5z M1231.3,672.8h-6.2v-7.5h6.2V672.8z M1231.3,661.1h-6.2v-7.5h6.2V661.1z
				 M1231.3,649.5h-6.2v-7.5h6.2V649.5z M1231.3,637.8h-6.2v-7.5h6.2V637.8z M1231.3,626.1h-6.2v-7.5h6.2V626.1z M1231.3,614.4h-6.2
				v-7.5h6.2V614.4z M1231.3,602.7h-6.2v-7.5h6.2V602.7z M1231.3,591h-6.2v-7.5h6.2V591z M1231.3,579.3h-6.2v-7.5h6.2V579.3z
				 M1231.3,567.6h-6.2v-7.5h6.2V567.6z M1231.3,555.9h-6.2v-7.5h6.2V555.9z M1231.3,544.2h-6.2v-7.5h6.2V544.2z M1231.3,532.5h-6.2
				V525h6.2V532.5z M1231.3,520.8h-6.2v-7.5h6.2V520.8z M1231.3,509.1h-6.2v-7.5h6.2V509.1z M1231.3,497.4h-6.2v-7.5h6.2V497.4z
				 M1231.3,485.8h-6.2v-7.5h6.2V485.8z M1231.3,474.1h-6.2v-7.5h6.2V474.1z M1231.3,462.4h-6.2v-7.5h6.2V462.4z M1231.3,450.7h-6.2
				v-7.5h6.2V450.7z M1231.3,439h-6.2v-7.5h6.2V439z M1231.3,427.3h-6.2v-7.5h6.2V427.3z M1231.3,415.6h-6.2v-7.5h6.2V415.6z
				 M1231.3,403.9h-6.2v-7.5h6.2V403.9z M1267.9,706.5h-10.2v-12.4h10.2V706.5z M1267.9,691.3h-10.2V686h10.2V691.3z M1267.9,683.1
				h-10.2v-5.2h10.2V683.1z M1267.9,675h-10.2v-5.2h10.2V675z M1267.9,666.9h-10.2v-5.2h10.2V666.9z M1267.9,658.7h-10.2v-5.2h10.2
				V658.7z M1267.9,650.6h-10.2v-5.2h10.2V650.6z M1267.9,642.5h-10.2v-5.2h10.2V642.5z M1267.9,634.4h-10.2v-5.2h10.2V634.4z
				 M1281.7,706.5h-10.2v-12.4h10.2V706.5z M1281.7,691.2h-10.2V686h10.2V691.2z M1281.7,683.1h-10.2v-5.2h10.2V683.1z M1281.7,675
				h-10.2v-5.2h10.2V675z M1281.7,666.8h-10.2v-5.2h10.2V666.8z M1281.7,658.7h-10.2v-5.2h10.2V658.7z M1281.7,650.6h-10.2v-5.2
				h10.2V650.6z M1281.7,642.4h-10.2v-5.2h10.2V642.4z M1281.7,634.3h-10.2v-5.2h10.2V634.3z M1281.7,626.2h-10.2V621h10.2V626.2z
				 M1295.5,706.4h-10.2v-12.4h10.2V706.4z M1295.5,691.2h-10.2v-5.2h10.2V691.2z M1295.5,683h-10.2v-5.2h10.2V683z M1295.5,674.9
				h-10.2v-5.2h10.2V674.9z M1295.5,666.8h-10.2v-5.2h10.2V666.8z M1295.5,658.6h-10.2v-5.2h10.2V658.6z M1295.5,650.5h-10.2v-5.2
				h10.2V650.5z M1295.5,642.4h-10.2v-5.2h10.2V642.4z M1295.5,634.3h-10.2V629h10.2V634.3z M1295.5,626.1h-10.2v-5.2h10.2V626.1z
				 M1295.5,618h-10.2v-5.2h10.2V618z M1313.3,476.2h-3.2v-30.4h3.2V476.2z M1332.5,706.4h-10.2V694h10.2V706.4z M1332.5,691.1
				h-10.2v-5.2h10.2V691.1z M1332.5,683h-10.2v-5.2h10.2V683z M1332.5,674.8h-10.2v-5.2h10.2V674.8z M1332.5,666.7h-10.2v-5.2h10.2
				V666.7z M1332.5,658.6h-10.2v-5.2h10.2V658.6z M1332.5,650.4h-10.2v-5.2h10.2V650.4z M1332.5,642.3h-10.2v-5.2h10.2V642.3z
				 M1332.5,634.2h-10.2V629h10.2V634.2z M1332.5,626.1h-10.2v-5.2h10.2V626.1z M1332.5,617.9h-10.2v-5.2h10.2V617.9z M1332.5,609.8
				h-10.2v-5.2h10.2V609.8z M1332.5,601.7h-10.2v-5.2h10.2V601.7z M1332.5,593.6h-10.2v-5.2h10.2V593.6z M1332.5,585.4h-10.2v-5.2
				h10.2V585.4z M1332.5,577.3h-10.2v-5.2h10.2V577.3z M1332.5,569.2h-10.2V564h10.2V569.2z M1332.5,561.1h-10.2v-5.2h10.2V561.1z
				 M1332.5,552.9h-10.2v-5.2h10.2V552.9z M1332.5,544.8h-10.2v-5.2h10.2V544.8z M1332.5,536.7h-10.2v-5.2h10.2V536.7z
				 M1332.5,528.6h-10.2v-5.2h10.2V528.6z M1332.5,520.5h-10.2v-5.2h10.2V520.5z M1332.5,512.3h-10.2v-5.2h10.2V512.3z
				 M1332.5,504.2h-10.2V499h10.2V504.2z M1332.5,496.1h-10.2v-5.2h10.2V496.1z M1346.3,706.3h-10.2v-12.4h10.2V706.3z M1346.3,691
				h-10.2v-5.2h10.2V691z M1346.3,682.8h-10.2v-5.2h10.2V682.8z M1346.3,674.7h-10.2v-5.2h10.2V674.7z M1346.3,666.6h-10.2v-5.2
				h10.2V666.6z M1346.3,658.5h-10.2v-5.2h10.2V658.5z M1346.3,650.3h-10.2v-5.2h10.2V650.3z M1346.3,642.2h-10.2V637h10.2V642.2z
				 M1346.3,634.1h-10.2v-5.2h10.2V634.1z M1346.3,626h-10.2v-5.2h10.2V626z M1346.3,617.8h-10.2v-5.2h10.2V617.8z M1346.3,609.7
				h-10.2v-5.2h10.2V609.7z M1346.3,601.6h-10.2v-5.2h10.2V601.6z M1346.3,593.5h-10.2v-5.2h10.2V593.5z M1346.3,585.3h-10.2v-5.2
				h10.2V585.3z M1346.3,577.2h-10.2V572h10.2V577.2z M1346.3,569.1h-10.2v-5.2h10.2V569.1z M1346.3,561h-10.2v-5.2h10.2V561z
				 M1346.3,552.8h-10.2v-5.2h10.2V552.8z M1346.3,544.7h-10.2v-5.2h10.2V544.7z M1346.3,536.6h-10.2v-5.2h10.2V536.6z
				 M1346.3,528.5h-10.2v-5.2h10.2V528.5z M1346.3,520.4h-10.2v-5.2h10.2V520.4z M1346.3,512.2h-10.2V507h10.2V512.2z M1346.3,504.1
				h-10.2v-5.2h10.2V504.1z M1346.3,496h-10.2v-5.2h10.2V496z M1360.1,706.1h-10.2v-12.4h10.2V706.1z M1360.1,690.9h-10.2v-5.2h10.2
				V690.9z M1360.1,682.7h-10.2v-5.2h10.2V682.7z M1360.1,674.6h-10.2v-5.2h10.2V674.6z M1360.1,666.5h-10.2v-5.2h10.2V666.5z
				 M1360.1,658.3h-10.2v-5.2h10.2V658.3z M1360.1,650.2h-10.2V645h10.2V650.2z M1360.1,642.1h-10.2v-5.2h10.2V642.1z M1360.1,634
				h-10.2v-5.2h10.2V634z M1360.1,625.8h-10.2v-5.2h10.2V625.8z M1360.1,617.7h-10.2v-5.2h10.2V617.7z M1360.1,609.6h-10.2v-5.2
				h10.2V609.6z M1360.1,601.5h-10.2v-5.2h10.2V601.5z M1360.1,593.3h-10.2v-5.2h10.2V593.3z M1360.1,585.2h-10.2V580h10.2V585.2z
				 M1360.1,577.1h-10.2v-5.2h10.2V577.1z M1360.1,569h-10.2v-5.2h10.2V569z M1360.1,560.8h-10.2v-5.2h10.2V560.8z M1360.1,552.7
				h-10.2v-5.2h10.2V552.7z M1360.1,544.6h-10.2v-5.2h10.2V544.6z M1360.1,536.5h-10.2v-5.2h10.2V536.5z M1360.1,528.3h-10.2v-5.2
				h10.2V528.3z M1360.1,520.2h-10.2V515h10.2V520.2z M1360.1,512.1h-10.2v-5.2h10.2V512.1z M1360.1,504h-10.2v-5.2h10.2V504z
				 M1360.1,495.9h-10.2v-5.2h10.2V495.9z M1360.1,455.6h-10.2v-5.2h10.2V455.6z M1360.1,447.5h-10.2v-5.2h10.2V447.5z M1373.9,706
				h-10.2v-12.4h10.2V706z M1373.9,690.7h-10.2v-5.2h10.2V690.7z M1373.9,682.6h-10.2v-5.2h10.2V682.6z M1373.9,674.5h-10.2v-5.2
				h10.2V674.5z M1373.9,666.3h-10.2v-5.2h10.2V666.3z M1373.9,658.2h-10.2V653h10.2V658.2z M1373.9,650.1h-10.2v-5.2h10.2V650.1z
				 M1373.9,641.9h-10.2v-5.2h10.2V641.9z M1373.9,633.8h-10.2v-5.2h10.2V633.8z M1373.9,625.7h-10.2v-5.2h10.2V625.7z
				 M1373.9,617.6h-10.2v-5.2h10.2V617.6z M1373.9,609.5h-10.2v-5.2h10.2V609.5z M1373.9,601.3h-10.2v-5.2h10.2V601.3z
				 M1373.9,593.2h-10.2V588h10.2V593.2z M1373.9,585.1h-10.2v-5.2h10.2V585.1z M1373.9,577h-10.2v-5.2h10.2V577z M1373.9,568.8
				h-10.2v-5.2h10.2V568.8z M1373.9,560.7h-10.2v-5.2h10.2V560.7z M1373.9,552.6h-10.2v-5.2h10.2V552.6z M1373.9,544.4h-10.2v-5.2
				h10.2V544.4z M1373.9,536.3h-10.2v-5.2h10.2V536.3z M1373.9,528.2h-10.2V523h10.2V528.2z M1373.9,520.1h-10.2v-5.2h10.2V520.1z
				 M1373.9,512h-10.2v-5.2h10.2V512z M1373.9,503.8h-10.2v-5.2h10.2V503.8z M1373.9,495.7h-10.2v-5.2h10.2V495.7z M1395.9,697.6
				c-2.2,0-4-2.1-4-4.7c0-2.6,1.8-4.7,4-4.7c2.2,0,4,2.1,4,4.7C1399.9,695.5,1398.1,697.6,1395.9,697.6z M1395.9,673.5
				c-2.2,0-4-2.1-4-4.7c0-2.6,1.8-4.7,4-4.7c2.2,0,4,2.1,4,4.7C1399.9,671.4,1398.1,673.5,1395.9,673.5z M1395.9,649.5
				c-2.2,0-4-2.1-4-4.7c0-2.6,1.8-4.7,4-4.7c2.2,0,4,2.1,4,4.7C1399.9,647.4,1398.1,649.5,1395.9,649.5z M1395.9,625.5
				c-2.2,0-4-2.1-4-4.7c0-2.6,1.8-4.7,4-4.7c2.2,0,4,2.1,4,4.7C1399.9,623.4,1398.1,625.5,1395.9,625.5z M1395.9,601.5
				c-2.2,0-4-2.1-4-4.7c0-2.6,1.8-4.7,4-4.7c2.2,0,4,2.1,4,4.7C1399.9,599.4,1398.1,601.5,1395.9,601.5z M1395.9,577.4
				c-2.2,0-4-2.1-4-4.7c0-2.6,1.8-4.7,4-4.7c2.2,0,4,2.1,4,4.7C1399.9,575.4,1398.1,577.4,1395.9,577.4z M1395.9,553.4
				c-2.2,0-4-2.1-4-4.7c0-2.6,1.8-4.7,4-4.7c2.2,0,4,2.1,4,4.7C1399.9,551.3,1398.1,553.4,1395.9,553.4z M1395.9,529.4
				c-2.2,0-4-2.1-4-4.7c0-2.6,1.8-4.7,4-4.7c2.2,0,4,2.1,4,4.7C1399.9,527.3,1398.1,529.4,1395.9,529.4z M1395.9,505.4
				c-2.2,0-4-2.1-4-4.7c0-2.6,1.8-4.7,4-4.7c2.2,0,4,2.1,4,4.7C1399.9,503.3,1398.1,505.4,1395.9,505.4z M1421.1,705.9h-10.2v-12.4
				h10.2V705.9z M1421.1,690.6h-10.2v-5.2h10.2V690.6z M1421.1,682.5h-10.2v-5.2h10.2V682.5z M1421.1,674.3h-10.2v-5.2h10.2V674.3z
				 M1421.1,666.2h-10.2V661h10.2V666.2z M1421.1,658.1h-10.2v-5.2h10.2V658.1z M1421.1,649.9h-10.2v-5.2h10.2V649.9z M1421.1,641.8
				h-10.2v-5.2h10.2V641.8z M1421.1,633.7h-10.2v-5.2h10.2V633.7z M1421.1,625.6h-10.2v-5.2h10.2V625.6z M1421.1,617.4h-10.2v-5.2
				h10.2V617.4z M1421.1,609.3h-10.2v-5.2h10.2V609.3z M1421.1,601.2h-10.2V596h10.2V601.2z M1421.1,593.1h-10.2v-5.2h10.2V593.1z
				 M1421.1,584.9h-10.2v-5.2h10.2V584.9z M1421.1,576.8h-10.2v-5.2h10.2V576.8z M1421.1,568.7h-10.2v-5.2h10.2V568.7z
				 M1421.1,560.6h-10.2v-5.2h10.2V560.6z M1421.1,552.4h-10.2v-5.2h10.2V552.4z M1421.1,544.3h-10.2v-5.2h10.2V544.3z
				 M1421.1,536.2h-10.2V531h10.2V536.2z M1421.1,528.1h-10.2v-5.2h10.2V528.1z M1421.1,520h-10.2v-5.2h10.2V520z M1421.1,511.8
				h-10.2v-5.2h10.2V511.8z M1421.1,503.7h-10.2v-5.2h10.2V503.7z M1421.1,495.6h-10.2v-5.2h10.2V495.6z M1434.9,705.7h-10.2v-12.4
				h10.2V705.7z M1434.9,690.5h-10.2v-5.2h10.2V690.5z M1434.9,682.3h-10.2v-5.2h10.2V682.3z M1434.9,674.2h-10.2V669h10.2V674.2z
				 M1434.9,666.1h-10.2v-5.2h10.2V666.1z M1434.9,658h-10.2v-5.2h10.2V658z M1434.9,649.8h-10.2v-5.2h10.2V649.8z M1434.9,641.7
				h-10.2v-5.2h10.2V641.7z M1434.9,633.6h-10.2v-5.2h10.2V633.6z M1434.9,625.5h-10.2v-5.2h10.2V625.5z M1434.9,617.3h-10.2v-5.2
				h10.2V617.3z M1434.9,609.2h-10.2V604h10.2V609.2z M1434.9,601.1h-10.2v-5.2h10.2V601.1z M1434.9,593h-10.2v-5.2h10.2V593z
				 M1434.9,584.8h-10.2v-5.2h10.2V584.8z M1434.9,576.7h-10.2v-5.2h10.2V576.7z M1434.9,568.6h-10.2v-5.2h10.2V568.6z
				 M1434.9,560.5h-10.2v-5.2h10.2V560.5z M1434.9,552.3h-10.2v-5.2h10.2V552.3z M1434.9,544.2h-10.2V539h10.2V544.2z M1434.9,536.1
				h-10.2v-5.2h10.2V536.1z M1434.9,528h-10.2v-5.2h10.2V528z M1434.9,519.9h-10.2v-5.2h10.2V519.9z M1434.9,511.7h-10.2v-5.2h10.2
				V511.7z M1434.9,503.6h-10.2v-5.2h10.2V503.6z M1434.9,495.5h-10.2v-5.2h10.2V495.5z M1434.9,440.2h-10.2v-5.2h10.2V440.2z
				 M1434.9,432h-10.2v-5.2h10.2V432z M1434.9,423.9h-10.2v-5.2h10.2V423.9z M1448.7,705.6h-10.2v-12.4h10.2V705.6z M1448.7,690.4
				h-10.2v-5.2h10.2V690.4z M1448.7,682.2h-10.2V677h10.2V682.2z M1448.7,674.1h-10.2v-5.2h10.2V674.1z M1448.7,666h-10.2v-5.2h10.2
				V666z M1448.7,657.8h-10.2v-5.2h10.2V657.8z M1448.7,649.7h-10.2v-5.2h10.2V649.7z M1448.7,641.6h-10.2v-5.2h10.2V641.6z
				 M1448.7,633.5h-10.2v-5.2h10.2V633.5z M1448.7,625.3h-10.2v-5.2h10.2V625.3z M1448.7,617.2h-10.2V612h10.2V617.2z M1448.7,609.1
				h-10.2v-5.2h10.2V609.1z M1448.7,601h-10.2v-5.2h10.2V601z M1448.7,592.8h-10.2v-5.2h10.2V592.8z M1448.7,584.7h-10.2v-5.2h10.2
				V584.7z M1448.7,576.6h-10.2v-5.2h10.2V576.6z M1448.7,568.5h-10.2v-5.2h10.2V568.5z M1448.7,560.3h-10.2v-5.2h10.2V560.3z
				 M1448.7,552.2h-10.2V547h10.2V552.2z M1448.7,544.1h-10.2v-5.2h10.2V544.1z M1448.7,536h-10.2v-5.2h10.2V536z M1448.7,527.8
				h-10.2v-5.2h10.2V527.8z M1448.7,519.7h-10.2v-5.2h10.2V519.7z M1448.7,511.6h-10.2v-5.2h10.2V511.6z M1448.7,503.5h-10.2v-5.2
				h10.2V503.5z M1448.7,495.4h-10.2v-5.2h10.2V495.4z M1462.5,705.5h-10.2v-12.4h10.2V705.5z M1462.5,690.2h-10.2V685h10.2V690.2z
				 M1462.5,682.1h-10.2v-5.2h10.2V682.1z M1462.5,674h-10.2v-5.2h10.2V674z M1462.5,665.9h-10.2v-5.2h10.2V665.9z M1462.5,657.7
				h-10.2v-5.2h10.2V657.7z M1462.5,649.6h-10.2v-5.2h10.2V649.6z M1462.5,641.5h-10.2v-5.2h10.2V641.5z M1462.5,633.4h-10.2v-5.2
				h10.2V633.4z M1462.5,625.2h-10.2V620h10.2V625.2z M1462.5,617.1h-10.2v-5.2h10.2V617.1z M1462.5,609h-10.2v-5.2h10.2V609z
				 M1462.5,600.9h-10.2v-5.2h10.2V600.9z M1462.5,592.7h-10.2v-5.2h10.2V592.7z M1462.5,584.6h-10.2v-5.2h10.2V584.6z
				 M1462.5,576.5h-10.2v-5.2h10.2V576.5z M1462.5,568.4h-10.2v-5.2h10.2V568.4z M1462.5,560.2h-10.2V555h10.2V560.2z M1462.5,552.1
				h-10.2v-5.2h10.2V552.1z M1462.5,544h-10.2v-5.2h10.2V544z M1462.5,535.8h-10.2v-5.2h10.2V535.8z M1462.5,527.7h-10.2v-5.2h10.2
				V527.7z M1462.5,519.6h-10.2v-5.2h10.2V519.6z M1462.5,511.5h-10.2v-5.2h10.2V511.5z M1462.5,503.4h-10.2v-5.2h10.2V503.4z
				 M1462.5,495.3h-10.2V490h10.2V495.3z M1492.7,705.4h-10.2v-14.6h10.2V705.4z M1492.7,687.4h-10.2v-6.1h10.2V687.4z
				 M1492.7,677.8h-10.2v-6.1h10.2V677.8z M1492.7,668.3h-10.2v-6.2h10.2V668.3z M1492.7,658.7h-10.2v-6.1h10.2V658.7z
				 M1492.7,649.1h-10.2V643h10.2V649.1z M1492.7,639.6h-10.2v-6.1h10.2V639.6z M1506.5,705.4h-10.2v-14.6h10.2V705.4z
				 M1506.5,687.4h-10.2v-6.1h10.2V687.4z M1506.5,677.8h-10.2v-6.1h10.2V677.8z M1506.5,668.2h-10.2v-6.2h10.2V668.2z
				 M1506.5,658.7h-10.2v-6.1h10.2V658.7z M1506.5,649.1h-10.2V643h10.2V649.1z M1506.5,639.5h-10.2v-6.1h10.2V639.5z M1520.3,705.4
				h-10.2v-14.6h10.2V705.4z M1520.3,687.4h-10.2v-6.1h10.2V687.4z M1520.3,677.8h-10.2v-6.1h10.2V677.8z M1520.3,668.2h-10.2v-6.2
				h10.2V668.2z M1520.3,658.7h-10.2v-6.1h10.2V658.7z M1520.3,649.1h-10.2v-6.1h10.2V649.1z M1520.3,639.5h-10.2v-6.1h10.2V639.5z
				 M1534.1,705.3h-10.2v-14.6h10.2V705.3z M1534.1,687.3h-10.2v-6.1h10.2V687.3z M1534.1,677.8h-10.2v-6.1h10.2V677.8z
				 M1534.1,668.2h-10.2V662h10.2V668.2z M1534.1,658.6h-10.2v-6.1h10.2V658.6z M1534.1,649.1h-10.2v-6.1h10.2V649.1z M1534.1,639.5
				h-10.2v-6.1h10.2V639.5z M1563.7,705.3h-6.2v-25.9h6.2V705.3z M1563.7,673.4h-6.2v-10.9h6.2V673.4z M1563.7,656.4h-6.2v-10.9h6.2
				V656.4z M1563.7,639.4h-6.2v-10.9h6.2V639.4z M1563.7,622.4h-6.2v-10.9h6.2V622.4z M1563.7,605.4h-6.2v-10.9h6.2V605.4z
				 M1563.7,588.4h-6.2v-10.9h6.2V588.4z M1563.7,571.4h-6.2v-10.9h6.2V571.4z M1563.7,554.4h-6.2v-10.9h6.2V554.4z M1563.7,537.4
				h-6.2v-10.9h6.2V537.4z M1563.7,520.4h-6.2v-10.9h6.2V520.4z M1563.7,503.5h-6.2v-10.9h6.2V503.5z M1563.7,486.5h-6.2v-10.9h6.2
				V486.5z M1563.7,469.5h-6.2v-10.9h6.2V469.5z M1563.7,452.5h-6.2v-10.9h6.2V452.5z M1563.7,435.5h-6.2v-10.9h6.2V435.5z
				 M1572.1,705.2h-6.2v-25.9h6.2V705.2z M1572.1,673.3h-6.2v-10.9h6.2V673.3z M1572.1,656.3h-6.2v-10.9h6.2V656.3z M1572.1,639.3
				h-6.2v-10.9h6.2V639.3z M1572.1,622.3h-6.2v-10.9h6.2V622.3z M1572.1,605.3h-6.2v-10.9h6.2V605.3z M1572.1,588.3h-6.2v-10.9h6.2
				V588.3z M1572.1,571.3h-6.2v-10.9h6.2V571.3z M1572.1,554.3h-6.2v-10.9h6.2V554.3z M1572.1,537.3h-6.2v-10.9h6.2V537.3z
				 M1572.1,520.4h-6.2v-10.9h6.2V520.4z M1572.1,503.4h-6.2v-10.9h6.2V503.4z M1572.1,486.4h-6.2v-10.9h6.2V486.4z M1572.1,469.4
				h-6.2v-10.9h6.2V469.4z M1572.1,452.4h-6.2v-10.9h6.2V452.4z M1572.1,435.4h-6.2v-10.9h6.2V435.4z M1580.5,705.1h-6.2v-25.9h6.2
				V705.1z M1580.5,673.2h-6.2v-10.9h6.2V673.2z M1580.5,656.2h-6.2v-10.9h6.2V656.2z M1580.5,639.2h-6.2v-10.9h6.2V639.2z
				 M1580.5,622.2h-6.2v-10.9h6.2V622.2z M1580.5,605.2h-6.2v-10.9h6.2V605.2z M1580.5,588.2h-6.2v-10.9h6.2V588.2z M1580.5,571.2
				h-6.2v-10.9h6.2V571.2z M1580.5,554.2h-6.2v-10.9h6.2V554.2z M1580.5,537.3h-6.2v-10.9h6.2V537.3z M1580.5,520.3h-6.2v-10.9h6.2
				V520.3z M1580.5,503.3h-6.2v-10.9h6.2V503.3z M1580.5,486.3h-6.2v-10.9h6.2V486.3z M1580.5,469.3h-6.2v-10.9h6.2V469.3z
				 M1580.5,452.3h-6.2v-10.9h6.2V452.3z M1580.5,435.3h-6.2v-10.9h6.2V435.3z M1588.9,705h-6.2v-25.9h6.2V705z M1588.9,673.1h-6.2
				v-10.9h6.2V673.1z M1588.9,656.1h-6.2v-10.9h6.2V656.1z M1588.9,639.1h-6.2v-10.9h6.2V639.1z M1588.9,622.1h-6.2v-10.9h6.2V622.1
				z M1588.9,605.1h-6.2v-10.9h6.2V605.1z M1588.9,588.1h-6.2v-10.9h6.2V588.1z M1588.9,571.1h-6.2v-10.9h6.2V571.1z M1588.9,554.2
				h-6.2v-10.9h6.2V554.2z M1588.9,537.2h-6.2v-10.9h6.2V537.2z M1588.9,520.2h-6.2v-10.9h6.2V520.2z M1588.9,503.2h-6.2v-10.9h6.2
				V503.2z M1588.9,486.2h-6.2v-10.9h6.2V486.2z M1588.9,469.2h-6.2v-10.9h6.2V469.2z M1588.9,452.2h-6.2v-10.9h6.2V452.2z
				 M1588.9,435.2h-6.2v-10.9h6.2V435.2z M1631.9,705h-11v-25.9h11V705z M1631.9,673h-11v-10.9h11V673z M1631.9,656h-11v-10.9h11
				V656z M1631.9,639h-11v-10.9h11V639z M1631.9,622h-11v-10.9h11V622z M1631.9,605h-11v-10.9h11V605z M1631.9,588h-11v-10.9h11V588
				z M1631.9,571.1h-11v-10.9h11V571.1z M1631.9,554.1h-11v-10.9h11V554.1z M1631.9,537.1h-11v-10.9h11V537.1z M1631.9,520.1h-11
				v-10.9h11V520.1z M1631.9,503.1h-11v-10.9h11V503.1z M1631.9,486.1h-11v-10.9h11V486.1z M1631.9,469.1h-11v-10.9h11V469.1z
				 M1631.9,452.1h-11v-10.9h11V452.1z M1631.9,435.1h-11v-10.9h11V435.1z M1646.9,704.9h-11V679h11V704.9z M1646.9,672.9h-11V662
				h11V672.9z M1646.9,655.9h-11V645h11V655.9z M1646.9,638.9h-11V628h11V638.9z M1646.9,621.9h-11V611h11V621.9z M1646.9,604.9h-11
				V594h11V604.9z M1646.9,588h-11V577h11V588z M1646.9,571h-11V560h11V571z M1646.9,554h-11v-10.9h11V554z M1646.9,537h-11v-10.9
				h11V537z M1646.9,520h-11v-10.9h11V520z M1646.9,503h-11v-10.9h11V503z M1646.9,486h-11v-10.9h11V486z M1646.9,469h-11v-10.9h11
				V469z M1646.9,452h-11v-10.9h11V452z M1646.9,435h-11v-10.9h11V435z M1661.8,704.8h-11v-25.9h11V704.8z M1661.8,672.8h-11v-10.9
				h11V672.8z M1661.8,655.8h-11v-10.9h11V655.8z M1661.8,638.8h-11v-10.9h11V638.8z M1661.8,621.8h-11v-10.9h11V621.8z
				 M1661.8,604.9h-11v-10.9h11V604.9z M1661.8,587.9h-11v-10.9h11V587.9z M1661.8,570.9h-11V560h11V570.9z M1661.8,553.9h-11V543
				h11V553.9z M1661.8,536.9h-11V526h11V536.9z M1661.8,519.9h-11V509h11V519.9z M1661.8,502.9h-11V492h11V502.9z M1661.8,485.9h-11
				V475h11V485.9z M1661.8,468.9h-11V458h11V468.9z M1661.8,451.9h-11V441h11V451.9z M1661.8,434.9h-11V424h11V434.9z M1676.8,704.7
				h-11v-25.9h11V704.7z M1676.8,672.7h-11v-10.9h11V672.7z M1676.8,655.7h-11v-10.9h11V655.7z M1676.8,638.7h-11v-10.9h11V638.7z
				 M1676.8,621.8h-11v-10.9h11V621.8z M1676.8,604.8h-11v-10.9h11V604.8z M1676.8,587.8h-11v-10.9h11V587.8z M1676.8,570.8h-11
				v-10.9h11V570.8z M1676.8,553.8h-11v-10.9h11V553.8z M1706.2,704.6h-7.5v-25.4h7.5V704.6z M1706.2,673.3h-7.5v-10.7h7.5V673.3z
				 M1706.2,656.6h-7.5v-10.7h7.5V656.6z M1716.4,704.6h-7.5v-25.4h7.5V704.6z M1716.4,673.2h-7.5v-10.7h7.5V673.2z M1716.4,656.5
				h-7.5v-10.7h7.5V656.5z M1726.6,704.6h-7.5v-25.4h7.5V704.6z M1726.6,673.2h-7.5v-10.7h7.5V673.2z M1726.6,656.5h-7.5v-10.7h7.5
				V656.5z M1736.8,704.6h-7.5v-25.4h7.5V704.6z M1736.8,673.2h-7.5v-10.7h7.5V673.2z M1736.8,656.5h-7.5v-10.7h7.5V656.5z
				 M1777.4,704.5h-4.6v-20.1h4.6V704.5z M1777.4,679.7h-4.6v-8.5h4.6V679.7z M1777.4,666.5h-4.6V658h4.6V666.5z M1777.4,653.3h-4.6
				v-8.5h4.6V653.3z M1777.4,640.1h-4.6v-8.5h4.6V640.1z M1777.4,626.8h-4.6v-8.5h4.6V626.8z M1777.4,613.6h-4.6v-8.5h4.6V613.6z
				 M1777.4,600.4h-4.6V592h4.6V600.4z M1777.4,587.2h-4.6v-8.5h4.6V587.2z M1783.7,704.5h-4.6v-20.1h4.6V704.5z M1783.7,679.7h-4.6
				v-8.5h4.6V679.7z M1783.7,666.5h-4.6V658h4.6V666.5z M1783.7,653.3h-4.6v-8.5h4.6V653.3z M1783.7,640.1h-4.6v-8.5h4.6V640.1z
				 M1783.7,626.8h-4.6v-8.5h4.6V626.8z M1783.7,613.6h-4.6v-8.5h4.6V613.6z M1783.7,600.4h-4.6V592h4.6V600.4z M1783.7,587.2h-4.6
				v-8.5h4.6V587.2z M1790,704.5h-4.6v-20.1h4.6V704.5z M1790,679.7h-4.6v-8.5h4.6V679.7z M1790,666.5h-4.6V658h4.6V666.5z
				 M1790,653.3h-4.6v-8.5h4.6V653.3z M1790,640.1h-4.6v-8.5h4.6V640.1z M1790,626.8h-4.6v-8.5h4.6V626.8z M1790,613.6h-4.6v-8.5
				h4.6V613.6z M1790,600.4h-4.6V592h4.6V600.4z M1790,587.2h-4.6v-8.5h4.6V587.2z M1796.3,704.5h-4.6v-20.1h4.6V704.5z
				 M1796.3,679.7h-4.6v-8.5h4.6V679.7z M1796.3,666.5h-4.6V658h4.6V666.5z M1796.3,653.3h-4.6v-8.5h4.6V653.3z M1796.3,640.1h-4.6
				v-8.5h4.6V640.1z M1796.3,626.8h-4.6v-8.5h4.6V626.8z M1796.3,613.6h-4.6v-8.5h4.6V613.6z M1796.3,600.4h-4.6V592h4.6V600.4z
				 M1796.3,587.2h-4.6v-8.5h4.6V587.2z M1871.8,704.5h-4.6v-28.2h4.6V704.5z M1871.8,669.7h-4.6v-11.9h4.6V669.7z M1871.8,651.2
				h-4.6v-11.9h4.6V651.2z M1871.8,632.6h-4.6v-11.9h4.6V632.6z M1871.8,614.1h-4.6v-11.9h4.6V614.1z M1871.8,595.6h-4.6v-11.9h4.6
				V595.6z M1871.8,577.1h-4.6v-11.9h4.6V577.1z M1871.8,558.6h-4.6v-11.9h4.6V558.6z M1871.8,540h-4.6v-11.9h4.6V540z M1878,704.6
				h-4.6v-28.2h4.6V704.6z M1878,669.7h-4.6v-11.9h4.6V669.7z M1878,651.2h-4.6v-11.9h4.6V651.2z M1878,632.7h-4.6v-11.9h4.6V632.7z
				 M1878,614.2h-4.6v-11.9h4.6V614.2z M1878,595.6h-4.6v-11.9h4.6V595.6z M1878,577.1h-4.6v-11.9h4.6V577.1z M1878,558.6h-4.6
				v-11.9h4.6V558.6z M1878,540.1h-4.6v-11.9h4.6V540.1z M1884.3,704.6h-4.6v-28.2h4.6V704.6z M1884.3,669.8h-4.6v-11.9h4.6V669.8z
				 M1884.3,651.3h-4.6v-11.9h4.6V651.3z M1884.3,632.7h-4.6v-11.9h4.6V632.7z M1884.3,614.2h-4.6v-11.9h4.6V614.2z M1884.3,595.7
				h-4.6v-11.9h4.6V595.7z M1884.3,577.2h-4.6v-11.9h4.6V577.2z M1884.3,558.7h-4.6v-11.9h4.6V558.7z M1884.3,540.1h-4.6v-11.9h4.6
				V540.1z M1890.6,704.7h-4.6v-28.2h4.6V704.7z M1890.6,669.8h-4.6v-11.9h4.6V669.8z M1890.6,651.3h-4.6v-11.9h4.6V651.3z
				 M1890.6,632.8h-4.6v-11.9h4.6V632.8z M1890.6,614.3h-4.6v-11.9h4.6V614.3z M1890.6,595.7h-4.6v-11.9h4.6V595.7z M1890.6,577.2
				h-4.6v-11.9h4.6V577.2z M1890.6,558.7h-4.6v-11.9h4.6V558.7z M1903,698.5c-3.5,0-6.3-3.3-6.3-7.3s2.8-7.3,6.3-7.3
				c3.5,0,6.2,3.3,6.2,7.3S1906.5,698.5,1903,698.5z M1903,671.3c-3.5,0-6.3-3.3-6.3-7.3s2.8-7.3,6.3-7.3c3.5,0,6.2,3.3,6.2,7.3
				S1906.5,671.3,1903,671.3z M1903,644.2c-3.5,0-6.3-3.3-6.3-7.3c0-4,2.8-7.3,6.3-7.3c3.5,0,6.2,3.3,6.2,7.3
				C1909.3,640.9,1906.5,644.2,1903,644.2z M1924.1,704.7h-4.7v-20.9h4.7V704.7z M1924.1,678.9h-4.7v-8.8h4.7V678.9z M1924.1,665.2
				h-4.7v-8.8h4.7V665.2z M1924.1,651.5h-4.7v-8.8h4.7V651.5z M1924.1,637.7h-4.7v-8.8h4.7V637.7z M1924.1,624h-4.7v-8.8h4.7V624z
				 M1924.1,610.3h-4.7v-8.8h4.7V610.3z M1924.1,596.6h-4.7v-8.8h4.7V596.6z M1924.1,582.9h-4.7v-8.8h4.7V582.9z M1924.1,569.2h-4.7
				v-8.8h4.7V569.2z M1924.1,555.4h-4.7v-8.8h4.7V555.4z M1924.1,541.7h-4.7v-8.8h4.7V541.7z M1924.1,528h-4.7v-8.8h4.7V528z
				 M1924.1,514.3h-4.7v-8.8h4.7V514.3z M1924.1,500.6h-4.7v-8.8h4.7V500.6z M1924.1,486.8h-4.7V478h4.7V486.8z M1930.4,704.7h-4.7
				v-20.9h4.7V704.7z M1930.4,678.9h-4.7v-8.8h4.7V678.9z M1930.4,665.1h-4.7v-8.8h4.7V665.1z M1930.4,651.4h-4.7v-8.8h4.7V651.4z
				 M1930.4,637.7h-4.7v-8.8h4.7V637.7z M1930.4,624h-4.7v-8.8h4.7V624z M1930.4,610.3h-4.7v-8.8h4.7V610.3z M1930.4,596.5h-4.7
				v-8.8h4.7V596.5z M1930.4,582.8h-4.7V574h4.7V582.8z M1930.4,569.1h-4.7v-8.8h4.7V569.1z M1930.4,555.4h-4.7v-8.8h4.7V555.4z
				 M1930.4,541.7h-4.7v-8.8h4.7V541.7z M1930.4,528h-4.7v-8.8h4.7V528z M1930.4,514.2h-4.7v-8.8h4.7V514.2z M1930.4,500.5h-4.7
				v-8.8h4.7V500.5z M1930.4,486.8h-4.7V478h4.7V486.8z M1936.8,704.6h-4.7v-20.9h4.7V704.6z M1936.8,678.8h-4.7V670h4.7V678.8z
				 M1936.8,665.1h-4.7v-8.8h4.7V665.1z M1936.8,651.4h-4.7v-8.8h4.7V651.4z M1936.8,637.6h-4.7v-8.8h4.7V637.6z M1936.8,623.9h-4.7
				v-8.8h4.7V623.9z M1936.8,610.2h-4.7v-8.8h4.7V610.2z M1936.8,596.5h-4.7v-8.8h4.7V596.5z M1936.8,582.8h-4.7V574h4.7V582.8z
				 M1936.8,569.1h-4.7v-8.8h4.7V569.1z M1936.8,555.3h-4.7v-8.8h4.7V555.3z M1936.8,541.6h-4.7v-8.8h4.7V541.6z M1936.8,527.9h-4.7
				v-8.8h4.7V527.9z M1936.8,514.2h-4.7v-8.8h4.7V514.2z M1936.8,500.5h-4.7v-8.8h4.7V500.5z M1936.8,486.7h-4.7v-8.8h4.7V486.7z
				 M1943.1,704.6h-4.7v-20.9h4.7V704.6z M1943.1,678.8h-4.7V670h4.7V678.8z M1943.1,665.1h-4.7v-8.8h4.7V665.1z M1943.1,651.3h-4.7
				v-8.8h4.7V651.3z M1943.1,637.6h-4.7v-8.8h4.7V637.6z M1943.1,623.9h-4.7v-8.8h4.7V623.9z M1943.1,610.2h-4.7v-8.8h4.7V610.2z
				 M1943.1,596.4h-4.7v-8.8h4.7V596.4z M1943.1,582.7h-4.7v-8.8h4.7V582.7z M1943.1,569h-4.7v-8.8h4.7V569z M1943.1,555.3h-4.7
				v-8.8h4.7V555.3z M1943.1,541.6h-4.7v-8.8h4.7V541.6z M1943.1,527.9h-4.7v-8.8h4.7V527.9z M1943.1,514.1h-4.7v-8.8h4.7V514.1z
				 M1943.1,500.4h-4.7v-8.8h4.7V500.4z M1943.1,486.7h-4.7v-8.8h4.7V486.7z M1981.4,704.5h-4.6v-24.5h4.6V704.5z M1987.6,704.5
				h-4.6v-24.5h4.6V704.5z"/>
		</g>
	</g>
	<g>
		<defs>
			<rect id="SVGID_00000087411681006951434490000006163629587078807990_" x="-941" width="3817" height="789"/>
		</defs>
		<clipPath id="SVGID_00000158747482237454213590000000756653070107044522_">
			<use xlink:href="#SVGID_00000087411681006951434490000006163629587078807990_"  style="overflow:visible;"/>
		</clipPath>
		<g style="clip-path:url(#SVGID_00000158747482237454213590000000756653070107044522_);">
			<path class="st4" d="M690.5,69.8l105.7,92 M702.4,166.3l76.5-31.6 M671.4,123.9l82.9,17.1 M693.2,148.3l52.9-42.4"/>
			<path class="st5" d="M768.7,407h-16.3c0,0-0.6-0.1-0.6-0.3v-31.1c0,0,0.3-0.3,0.6-0.3h16.3c0,0,0.6,0.1,0.6,0.3v31.1
				C769.3,406.7,769,407,768.7,407z"/>
			<path class="st5" d="M723.1,405.2h-16.3c0,0-0.6-0.1-0.6-0.3v-31.1c0,0,0.3-0.3,0.6-0.3h16.3c0,0,0.6,0.1,0.6,0.3v31.1
				C723.7,404.9,723.4,405.2,723.1,405.2z"/>
			<path class="st5" d="M680.1,405.2h-16.3c0,0-0.6-0.1-0.6-0.3v-31.1c0,0,0.3-0.3,0.6-0.3h16.3c0,0,0.6,0.1,0.6,0.3v31.1
				C680.7,404.9,680.4,405.2,680.1,405.2z"/>
			<path class="st6" d="M620.2,785.3l227.6,3.7l-54.6-419.4L880.6,7.8h-43.7L733.1,222L634.7,43.8l-29.1,5.5l61.9,327.5L620.2,785.3
				z"/>
			<path class="st7" d="M691.2,295.8L603.8,42l40-1.8l87.4,179.9L691.2,295.8z"/>
			<path class="st7" d="M694.8,369.6L846,16.8l30.9-3.6l-82,356.4H694.8z"/>
			<path class="st8" d="M621.3,784.2l22.8-193l177.6,7.2l24.5,186.6L621.3,784.2z"/>
			<path class="st4" d="M1238.3,69.4l-105.7,92 M1226.5,165.9l-76.5-31.6 M1257.5,123.5l-82.9,17.1 M1235.6,147.9l-52.8-42.4"/>
			<path class="st5" d="M1160.1,406.7h16.3c0,0,0.6-0.1,0.6-0.3v-31.1c0,0-0.3-0.3-0.6-0.3h-16.3c0,0-0.6,0.1-0.6,0.3v31.1
				C1159.5,406.4,1159.8,406.7,1160.1,406.7z"/>
			<path class="st5" d="M1205.7,404.9h16.3c0,0,0.6-0.1,0.6-0.3v-31.1c0,0-0.3-0.3-0.6-0.3h-16.3c0,0-0.6,0.1-0.6,0.3v31.1
				C1205.1,404.6,1205.4,404.9,1205.7,404.9z"/>
			<path class="st5" d="M1248.7,404.9h16.3c0,0,0.6-0.1,0.6-0.3v-31.1c0,0-0.3-0.3-0.6-0.3h-16.3c0,0-0.6,0.1-0.6,0.3v31.1
				C1248.1,404.6,1248.4,404.9,1248.7,404.9z"/>
			<path class="st6" d="M1308.6,785l-227.6,3.6l54.6-419.4L1048.2,7.4h43.7l103.8,214.2L1294,43.5l29.2,5.4l-62,327.6L1308.6,785z"
				/>
			<path class="st7" d="M1237.6,295.4L1325,41.7l-40-1.9l-87.4,180L1237.6,295.4z"/>
			<path class="st7" d="M1234,369.2L1082.8,16.5l-30.9-3.6l81.9,356.3H1234z"/>
			<path class="st8" d="M1307.6,783.9l-22.8-193.1l-177.7,7.2l-24.6,186.7L1307.6,783.9z"/>
			<path class="st9" d="M-933.4,149.8l592-4.3l16.8,25.9l75.9-9l12-17.7l281.6-2.1l17.4,21.6l81.6-5.4l10.7-17l267.7-2l13.6,19
				l100.5-14.4l4-5.4h1.7l-0.5-1.7l21.4-28.9l-28.7,3l-3.5-12L-941,121L-933.4,149.8z"/>
			<path class="st7" d="M529.4,99.4l244.1,1.8l254.2,6.3v37.9L891,138.1l-14.6,12.6l-98.4,12.6l-21-28.8l-219.5,3.6L529.4,99.4z"/>
			<path class="st10" d="M-274.8,115.6L648.5,22L-274.8,115.6z"/>
			<path class="st11" d="M613.2,29l54.8-7.2l-80.8,108.5L544,129L613.2,29z"/>
			<path class="st12" d="M643.5,29.9l-2.1-10.8L812,1.1L846.7,2l136.8,12.6l-25.2,15.3L832,16.4l-40,0.9L643.5,29.9z"/>
			<path class="st13" d="M-907.3,83.4L593.1,67.2 M-907.3,97.8L593.1,81.6 M-567.3,128.8l-5.6-48.6 M-515.6,132V94.1 M-467.3,133.5
				l-1.9-54 M-420.9,130.2l3.7-37.8 M-358.2,130.8l-9.2-54 M-266.8,124.4l-3.7-48.6 M-227.5,127.8l1.9-37.8 M-165.8,121.3l-3.7-46.8
				 M-128.3,120.8l3.7-30.6 M-62.6,137.1l-11.1-63 M-36.6,126.4l3.7-34.2 M32.1,119.3l-7.5-46.8 M56.2,117.5l3.7-28.8 M126.8,115.7
				l-7.5-41.4 M147.3,112.1l5.6-25.2 M236.4,122.5V84.7 M327.3,113.9V83.3 M505.5,115.7l-7.5-45 M315.3,121.5l-7.5-52.2
				C307.8,69.2,315.3,123.2,315.3,121.5z"/>
			<path class="st14" d="M627.6,51.8l140,14.3l13,9.9l76.5,2.9l-20.3,41.4l-50.5-30l-57.7-8.5l-18.8,2.9l-102.4-10L627.6,51.8z"/>
			<path class="st13" d="M630.5,117.4l-7.3-46.9 M811.8,116.5l-9.1-45.1 M988.5,117.4L977.6,75 M969.3,119.2l12.7-24.3 M796.3,118.3
				l9.1-28.9 M565.8,67.8l437.3,5.4C1003.1,73.2,566.8,68.7,565.8,67.8z M566.7,81.3l437.3,5.4C1004,86.7,567.7,82.2,566.7,81.3z"/>
			<path class="st15" d="M843.6,151.2L983.7,16.6l-25.9-4.7L828.3,125.2L843.6,151.2z"/>
			<path class="st10" d="M814.5,105.7L922,53.3L814.5,105.7z"/>
			<path class="st16" d="M934.8,52.7l88.3,54.1L934.8,52.7z"/>
			<path class="st17" d="M71.3,41.5c-2.5,0-4.5-3.2-4.5-7.2s2-7.2,4.5-7.2c2.5,0,4.5,3.2,4.5,7.2S73.8,41.5,71.3,41.5z"/>
			<path class="st18" d="M75.4,56.7v-0.3c0-7.2-4.6-23.3-10.9-12.4c-9.3,16-0.9,39.9-11.1,51.5c-0.9,1-6.2,12.9-5,12.9
				c6.9,0,13.2-31.6,17.8-21c2.5,6,2.7,22,7.3,22.5l5.7,0.5c0.9,0-2.7-6-3-6.8c-4.1-9.3-3.4-17.1-3.4-26.1
				C72.7,71.2,78,62.7,75.4,56.7L75.4,56.7z"/>
			<path class="st17" d="M31.3,41.5c-2.5,0-4.5-3.2-4.5-7.2s2-7.2,4.5-7.2s4.5,3.2,4.5,7.2S33.8,41.5,31.3,41.5z"/>
			<path class="st18" d="M35.3,56.7v-0.3c0-7.2-4.6-23.3-10.9-12.4C15,60,23.5,83.9,13.2,95.5c-0.9,1-6.2,12.9-5,12.9
				c6.9,0,13.2-31.6,17.8-21c2.5,6,2.7,22,7.3,22.5l5.7,0.5c0.9,0-2.7-6-3-6.8c-4.1-9.3-3.4-17.1-3.4-26.1
				C32.6,71.2,37.9,62.7,35.3,56.7L35.3,56.7z"/>
			<path class="st9" d="M204.7,26.6l0.6-0.2c7.4-5.8,17.9-13.8,27.4-11.7c3.3,0.7,7.4,2.7,9.7,5.3c1.6,1.8,4.8,3.8,6.7,4.7
				c1.6,0.8-7.6,1.6-9.1,2.5c-1.5,0.8-6.3,0.5-8,0.5l-15.1-0.5c-2.8,0-5.4-0.6-7.8,0.7C208,28.4,203.5,26.6,204.7,26.6z"/>
			<path class="st9" d="M220.6,26h1c-3.9,0-3.7,7.4-5.7,9.7c-1.5,1.6-2.9,7.4-2.3,9c0.4,0.9,5.7-3.3,6.3-4.7
				c1.3-2.8,0.6,4.4,0.3,5.5l-5.9,14.6c-0.7,2-1.3,4.7-1.9,6.9c-1.2,4.1-2.7,4,1.5,4c3.5,0,7.2-0.6,10.4-1.8
				c2.2-0.7,7.9-0.5,7.9-3.2c0-4.9-2.4-9.8-1.7-14l1.9-13c0.1-0.8,0.4-2.2,0.4-3.3c0-5.3,2.1,6.2,2.1,8c0,3.3,0.3,14.6,2.7,15.9
				c0.6,0.4,0.1-5.3,0.1-6.8c0-3.9,0.6-11.4-0.7-14.6c-0.6-1.5-1.5-6.5-1.5-7.7c0-2-5-4.4-7-4.4l-8.1-0.4L220.6,26z"/>
			<path class="st7" d="M209.2,96.5c0,2.1,0.2,3.4,0.9,5.1c0.4,1,1.1,3.2,2,3.7c0.5,0.3-0.2-3-0.2-3.5c-0.1-0.7,0-3.1-0.5-3.4
				C211.1,98.3,209.2,96,209.2,96.5L209.2,96.5z"/>
			<path class="st7" d="M225.2,100l0.1,0.8l-0.4,3.3l1.2-0.9l0.3-0.9l0.4,0.5l2.6-2.8l0.8-1.6l-3.4,2.4l-0.7-1.4L225.2,100z"/>
			<path class="st9" d="M218.2,70.9l-4.1,11.9l-2.5,5.8l-4.7,7.8l5.8,6.8l-0.3-6.2l4.1-8.8l6.1-11.8l1.6,12.3l-0.5,4.1l-0.2,8.1
				l4.6-2.7l-1.1-8l0.6-11.2l-0.9-10.1l-4,0.7L218.2,70.9z"/>
			<path class="st9" d="M521.4,29.3l-0.6-0.2c-7.4-5.8-17.9-13.8-27.4-11.7c-3.3,0.7-7.4,2.7-9.7,5.3c-1.6,1.8-4.8,3.8-6.7,4.7
				c-1.6,0.8,7.6,1.6,9.1,2.5c1.5,0.8,6.3,0.5,8,0.5l15.1-0.5c2.8,0,5.4-0.6,7.8,0.7C518.2,31.1,522.6,29.3,521.4,29.3z"/>
			<path class="st9" d="M505.5,28.7h-1c3.9,0,3.7,7.4,5.7,9.7c1.5,1.6,2.9,7.4,2.3,9c-0.4,0.9-5.7-3.3-6.3-4.7
				c-1.3-2.8-0.6,4.3-0.3,5.5l5.9,14.6c0.8,2,1.3,4.7,1.9,6.9c1.2,4.1,2.7,4-1.5,4c-3.5,0-7.2-0.6-10.4-1.8
				c-2.2-0.7-7.9-0.5-7.9-3.2c0-4.9,2.4-9.8,1.7-14l-1.9-13c-0.1-0.8-0.4-2.2-0.4-3.3c0-5.3-2.1,6.2-2.1,8c0,3.3-0.3,14.6-2.7,15.9
				c-0.6,0.4-0.1-5.3-0.1-6.8c0-3.9-0.6-11.4,0.8-14.6c0.7-1.5,1.5-6.5,1.5-7.7c0-2,4.9-4.4,7-4.4l8.1-0.3L505.5,28.7z"/>
			<path class="st7" d="M517,99.3c0,2.1-0.2,3.4-0.9,5.1c-0.4,1-1.1,3.2-2,3.7c-0.5,0.3,0.2-3,0.2-3.5c0.1-0.7,0-3.1,0.5-3.4
				C515,101.1,517,98.8,517,99.3L517,99.3z"/>
			<path class="st7" d="M501,99.8l-0.1,0.8l0.4,3l-1.2-0.9l-0.3-0.8l-0.4,0.5l-2.6-2.6l-0.7-1.4l3.3,2.1l0.7-1.2L501,99.8z"/>
			<path class="st9" d="M507.9,73.4l4.1,10.8l2.5,5.3l4.8,7.2l-5.9,6.2l0.3-5.7l-4.1-7.9l-6.1-10.8l-1.5,11.2l0.4,3.7l0.3,7.4
				l-4.7-2.5l1.1-7.3l-0.6-10.1l0.9-9.2l4,0.7L507.9,73.4z"/>
			<path class="st17" d="M322.2,35.2c1.8,0,3.2-2.3,3.2-5.2c0-2.9-1.4-5.2-3.2-5.2c-1.8,0-3.2,2.3-3.2,5.2
				C319,32.9,320.5,35.2,322.2,35.2z"/>
			<path class="st18" d="M317,50.4v-0.3c0-7.2,4.6-23.3,10.9-12.4c9.3,16,0.9,39.9,11.1,51.5c0.9,1,6.2,12.9,5,12.9
				c-6.9,0-13.2-31.6-17.8-21c-2.5,6-2.7,22-7.3,22.5l-5.7,0.5c-0.9,0,2.8-6,3-6.8c4.1-9.3,3.4-17.1,3.4-26.1
				C319.6,64.9,314.4,56.4,317,50.4z"/>
			<path class="st17" d="M194.7,36c1.8,0,3.2-2.3,3.2-5.2s-1.4-5.2-3.2-5.2c-1.8,0-3.2,2.3-3.2,5.2S193,36,194.7,36z"/>
			<path class="st18" d="M189.5,51.3V51c0-7.2,4.6-23.3,10.9-12.4c9.3,16.1,0.9,39.9,11.1,51.5c0.9,1,6.2,12.9,5,12.9
				c-6.9,0-13.2-31.6-17.8-21c-2.5,6-2.7,22-7.3,22.5l-5.7,0.5c-0.9,0,2.7-6,3-6.8c4.1-9.3,3.4-17.1,3.4-26.1c0-6.5-5.3-15-2.8-21
				H189.5z"/>
			<path class="st17" d="M1189.4,40.5c1.8,0,3.2-2.3,3.2-5.2c0-2.9-1.4-5.2-3.2-5.2c-1.8,0-3.2,2.3-3.2,5.2
				C1186.2,38.2,1187.6,40.5,1189.4,40.5z"/>
			<path class="st18" d="M1184.2,55.8v-0.3c0-7.2,4.6-23.3,10.9-12.4c9.3,16,0.9,39.9,11.1,51.5c0.9,1,6.2,12.9,5,12.9
				c-6.8,0-13.2-31.6-17.8-21c-2.5,6-2.7,22-7.3,22.5l-5.7,0.5c-0.9,0,2.7-6,3-6.8c4.1-9.3,3.4-17.1,3.4-26.1
				C1186.9,70.3,1181.7,61.8,1184.2,55.8L1184.2,55.8z"/>
			<path class="st9" d="M2868.4,150.2l-592-4.3l-16.8,25.9l-75.8-9l-12.1-17.7l-281.6-2.1l-17.4,21.5l-81.5-5.4l-10.7-17l-267.8-2
				l-13.6,19l-100.5-14.4l-4-5.4h-1.7l0.5-1.7l-21.4-29l28.8,3.1l3.5-12L2876,121.4L2868.4,150.2z"/>
			<path class="st7" d="M1405.5,99.7l-244.1,1.9l-254.2,6.3v37.8l136.6-7.2l14.6,12.6l98.4,12.6l21-28.8l219.6,3.6L1405.5,99.7z"/>
			<path class="st10" d="M2209.8,116l-923.3-93.6L2209.8,116z"/>
			<path class="st19" d="M1321,29.4l-55.3-7.2l81.6,109.6l43.7-1.5L1321,29.4z"/>
			<path class="st12" d="M1291.3,30.3l2.1-10.8l-170.5-18l-34.7,0.9L951.4,15l25.3,15.3L1103,16.8l39.9,0.9L1291.3,30.3z"/>
			<path class="st13" d="M2818.7,83.9L1347,67.7 M2818.7,98.3L1347,82.1 M2488.9,129.7l5.5-48.6 M2434.5,132.5V94.6 M2389.6,134.1
				l1.8-54 M2341.7,130.7l-3.7-37.8 M2272.7,131.3l9.1-54 M2200.5,126.4l3.7-48.6 M2156.8,128.7l-1.8-37.8 M2107.5,123.9l3.7-46.8
				 M2058.9,121.8l-3.7-30.6 M2009,137l10.9-63 M1964.7,123.1L1961,89 M1897.3,120l7.3-46.8 M1873.7,118.2l-3.7-28.8 M1811,114.9
				l7.2-41.4 M1784.5,112.8l-5.5-25.2 M1694.1,124.2V86.4 M1607.9,114.6V84 M1454.1,114.4l7.2-45 M1642.8,122.2
				c0,1.8,7.2-52.2,7.2-52.2L1642.8,122.2z"/>
			<path class="st20" d="M1306.5,52.5l-141.4,14.4L1152,77.1l-77.2,2.9l20.4,41.8l51-30.3l58.3-8.6l19,2.9l103.4-10.1L1306.5,52.5z"
				/>
			<path class="st13" d="M1304.4,117.8l7.2-46.9 M1123.1,116.9l9.1-45.1 M946.4,117.8l10.9-42.4 M965.6,119.6l-12.7-24.3
				 M1138.6,118.7l-9.1-28.9 M1369.1,68.2c-0.9,0.9-437.3,5.4-437.3,5.4L1369.1,68.2z M1368.2,81.7c-0.9,0.9-437.3,5.4-437.3,5.4
				L1368.2,81.7z"/>
			<path class="st15" d="M1091.3,151.6L951.2,16.9l25.9-4.6l129.5,113.3L1091.3,151.6z"/>
			<path class="st10" d="M1120.4,106.1L1013,53.7L1120.4,106.1z"/>
			<path class="st16" d="M1000.2,53.1l-88.4,54L1000.2,53.1z"/>
			<path class="st17" d="M1863.6,41.8c2.5,0,4.5-3.2,4.5-7.2c0-3.9-2-7.2-4.5-7.2c-2.5,0-4.5,3.2-4.5,7.2S1861.1,41.8,1863.6,41.8z"
				/>
			<path class="st18" d="M1859.6,57.1v-0.3c0-7.2,4.6-23.3,10.9-12.4c9.3,16,0.9,39.9,11.1,51.5c0.9,1,6.2,12.9,5,12.9
				c-6.8,0-13.2-31.6-17.8-21c-2.5,6-2.7,22-7.3,22.5l-5.7,0.5c-0.9,0,2.7-6,3-6.8c4.1-9.3,3.4-17.1,3.4-26.1
				C1862.3,71.6,1857,63.1,1859.6,57.1L1859.6,57.1z"/>
			<path class="st17" d="M1903.6,41.8c2.5,0,4.5-3.2,4.5-7.2c0-3.9-2-7.2-4.5-7.2c-2.5,0-4.5,3.2-4.5,7.2S1901.1,41.8,1903.6,41.8z"
				/>
			<path class="st18" d="M1899.6,57.1v-0.3c0-7.2,4.6-23.3,10.9-12.4c9.3,16,0.9,39.9,11.1,51.5c0.9,1,6.2,12.9,5,12.9
				c-6.8,0-13.2-31.6-17.8-21c-2.5,6-2.7,22-7.2,22.5l-5.7,0.5c-0.9,0,2.7-6,3-6.8c4.1-9.3,3.4-17.1,3.4-26.1
				C1902.3,71.6,1897,63.1,1899.6,57.1L1899.6,57.1z"/>
			<path class="st9" d="M1730.3,27l-0.6-0.2c-7.4-5.8-17.9-13.8-27.4-11.7c-3.3,0.7-7.4,2.7-9.7,5.3c-1.6,1.8-4.8,3.8-6.7,4.7
				c-1.6,0.8,7.5,1.6,9.1,2.5c1.5,0.8,6.3,0.5,8,0.5l15.1-0.5c2.8,0,5.4-0.6,7.8,0.7C1727,28.8,1731.5,27,1730.3,27z"/>
			<path class="st9" d="M1714.3,26.3h-1c3.9,0,3.7,7.4,5.7,9.7c1.5,1.6,2.9,7.4,2.3,9c-0.4,0.9-5.7-3.3-6.3-4.7
				c-1.3-2.8-0.6,4.4-0.3,5.5l5.9,14.6c0.7,2,1.3,4.7,1.9,6.9c1.2,4.1,2.7,4-1.5,4c-3.5,0-7.2-0.6-10.4-1.8c-2.2-0.7-8-0.5-8-3.2
				c0-4.9,2.4-9.8,1.7-14l-1.9-13c-0.1-0.8-0.4-2.2-0.4-3.3c0-5.3-2.1,6.2-2.1,8c0,3.3-0.3,14.6-2.7,15.9c-0.6,0.4-0.1-5.3-0.1-6.8
				c0-3.9-0.6-11.4,0.7-14.6c0.6-1.5,1.5-6.5,1.5-7.7c0-2,5-4.4,7-4.4l8.2-0.4L1714.3,26.3z"/>
			<path class="st7" d="M1725.7,96.9c0,2.1-0.2,3.4-0.9,5.1c-0.4,1-1.1,3.2-2,3.7c-0.5,0.3,0.2-3,0.2-3.5c0.1-0.7,0-3.1,0.5-3.4
				C1723.8,98.7,1725.7,96.4,1725.7,96.9L1725.7,96.9z"/>
			<path class="st7" d="M1709.8,100.4l-0.2,0.8l0.4,3.3l-1.2-0.9l-0.2-0.9l-0.5,0.5l-2.6-2.8l-0.7-1.6l3.3,2.4l0.7-1.4L1709.8,100.4
				z"/>
			<path class="st9" d="M1716.8,71.3l4.1,11.8l2.4,5.9l4.8,7.8l-5.9,6.8l0.3-6.2l-4.1-8.8l-6.1-11.8l-1.5,12.3l0.4,4.1l0.3,8.1
				l-4.6-2.7l1-8l-0.6-11.2l0.9-10.1l4,0.7L1716.8,71.3z"/>
			<path class="st9" d="M1413.5,29.7l0.6-0.2c7.3-5.8,17.9-13.8,27.4-11.7c3.3,0.7,7.4,2.7,9.7,5.3c1.6,1.8,4.8,3.8,6.7,4.7
				c1.6,0.8-7.6,1.6-9.1,2.5c-1.5,0.8-6.3,0.5-8.1,0.5l-15.1-0.5c-2.8,0-5.4-0.6-7.8,0.7C1416.7,31.5,1412.3,29.7,1413.5,29.7z"/>
			<path class="st9" d="M1429.5,29.1h1c-3.9,0-3.7,7.4-5.7,9.7c-1.5,1.6-2.9,7.4-2.3,9c0.4,0.9,5.7-3.3,6.2-4.7
				c1.3-2.8,0.6,4.3,0.3,5.5l-5.9,14.6c-0.8,2-1.3,4.7-1.9,6.9c-1.2,4.1-2.7,4,1.5,4c3.5,0,7.2-0.6,10.4-1.8
				c2.2-0.7,7.9-0.5,7.9-3.2c0-4.9-2.4-9.8-1.7-14l1.9-13c0.1-0.8,0.4-2.2,0.4-3.3c0-5.3,2.1,6.2,2.1,8c0,3.3,0.3,14.6,2.7,15.9
				c0.6,0.4,0.1-5.3,0.1-6.8c0-3.9,0.6-11.4-0.8-14.6c-0.7-1.5-1.5-6.5-1.5-7.7c0-2-4.9-4.4-6.9-4.4l-8.2-0.3L1429.5,29.1z"/>
			<path class="st7" d="M1418,99.7c0,2.1,0.2,3.4,0.9,5.1c0.4,1,1.1,3.2,2,3.7c0.5,0.3-0.2-3-0.2-3.5c-0.1-0.7,0-3.1-0.5-3.4
				C1420,101.5,1418,99.2,1418,99.7L1418,99.7z"/>
			<path class="st7" d="M1433.9,100.2l0.2,0.8l-0.5,3l1.3-0.9l0.2-0.8l0.5,0.5l2.5-2.6l0.8-1.5l-3.3,2.2l-0.7-1.2L1433.9,100.2z"/>
			<path class="st9" d="M1427,73.8l-4.1,10.8l-2.5,5.3l-4.7,7.1l5.9,6.3l-0.4-5.7l4.1-8l6.2-10.7l1.5,11.2l-0.4,3.7l-0.3,7.4
				l4.6-2.5l-1.1-7.3l0.6-10.1l-0.8-9.2l-4.1,0.7L1427,73.8z"/>
			<path class="st17" d="M1612.8,35.6c-1.8,0-3.2-2.3-3.2-5.2s1.4-5.2,3.2-5.2c1.8,0,3.2,2.3,3.2,5.2S1614.5,35.6,1612.8,35.6z"/>
			<path class="st18" d="M1617.9,50.8v-0.3c0-7.2-4.6-23.3-10.9-12.4c-9.3,16-0.9,39.9-11.1,51.5c-0.9,1-6.2,12.9-5,12.9
				c6.8,0,13.2-31.6,17.8-21c2.5,6,2.7,22,7.2,22.5l5.7,0.5c0.9,0-2.8-6-3-6.8c-4.1-9.3-3.4-17.1-3.4-26.1
				C1615.3,65.3,1620.5,56.8,1617.9,50.8z"/>
			<path class="st17" d="M1740.2,36.4c-1.8,0-3.2-2.3-3.2-5.2c0-2.9,1.4-5.2,3.2-5.2s3.2,2.3,3.2,5.2
				C1743.4,34.2,1741.9,36.4,1740.2,36.4z"/>
			<path class="st18" d="M1745.5,51.7v-0.3c0-7.2-4.6-23.3-10.9-12.4c-9.3,16.1-0.9,39.9-11.1,51.5c-0.9,1-6.2,12.9-5,12.9
				c6.9,0,13.2-31.6,17.8-21c2.5,6,2.7,22,7.2,22.5l5.7,0.5c0.9,0-2.7-6-3-6.8c-4.1-9.3-3.4-17.1-3.4-26.1
				C1742.8,66.2,1748.1,57.7,1745.5,51.7L1745.5,51.7z"/>
			<path class="st17" d="M747.3,40.9c-1.8,0-3.2-2.3-3.2-5.2c0-2.9,1.4-5.2,3.2-5.2c1.8,0,3.2,2.3,3.2,5.2
				C750.5,38.6,749.1,40.9,747.3,40.9z"/>
			<path class="st18" d="M752.5,56.2v-0.3c0-7.2-4.6-23.3-10.9-12.4c-9.3,16-0.9,39.9-11.1,51.5c-0.9,1-6.2,12.9-5,12.9
				c6.9,0,13.2-31.6,17.8-21c2.5,6,2.7,22,7.3,22.5l5.7,0.5c0.9,0-2.7-6-3-6.8c-4.1-9.3-3.4-17.1-3.4-26.1
				C749.9,70.7,755.1,62.2,752.5,56.2L752.5,56.2z"/>
		</g>
	</g>
	<g>
		<defs>
			<rect id="SVGID_00000127755317627278597610000008360438047115934109_" x="-382" y="775" width="3696" height="45.2"/>
		</defs>
		<clipPath id="SVGID_00000098181427336543178910000003884721768894908566_">
			<use xlink:href="#SVGID_00000127755317627278597610000008360438047115934109_"  style="overflow:visible;"/>
		</clipPath>
		<g style="clip-path:url(#SVGID_00000098181427336543178910000003884721768894908566_);">
			<path class="st22" d="M80,775H-74v45.2H80V775z"/>
			<path class="st23" d="M234,775H80v45.2h154V775z"/>
			<path class="st22" d="M388,775H234v45.2h154V775z"/>
			<path class="st23" d="M542,775H388v45.2h154V775z"/>
			<path class="st22" d="M696,775H542v45.2h154V775z"/>
			<path class="st23" d="M850,775H696v45.2h154V775z"/>
			<path class="st22" d="M1004,775H850v45.2h154V775z"/>
			<path class="st23" d="M1158,775h-154v45.2h154V775z"/>
			<path class="st22" d="M1312,775h-154v45.2h154V775z"/>
			<path class="st23" d="M1466,775h-154v45.2h154V775z"/>
			<path class="st22" d="M1620,775h-154v45.2h154V775z"/>
			<path class="st23" d="M1774,775h-154v45.2h154V775z"/>
			<path class="st22" d="M1928,775h-154v45.2h154V775z"/>
		</g>
	</g>
</g>
</svg>
