<?xml version="1.0" encoding="utf-8"?>
<!-- Generator: Adobe Illustrator 27.5.0, SVG Export Plug-In . SVG Version: 6.00 Build 0)  -->
<svg version="1.1" id="Layer_1" xmlns="http://www.w3.org/2000/svg" xmlns:xlink="http://www.w3.org/1999/xlink" x="0px" y="0px"
	 viewBox="0 0 1918.2 1018" style="enable-background:new 0 0 1918.2 1018;" xml:space="preserve">
<style type="text/css">
	.st0{clip-path:url(#SVGID_00000093178731253694439510000015416389686313155203_);}
	.st1{fill:#6DA281;}
	.st2{fill:#D2E7F8;}
	.st3{fill:#58595B;}
	.st4{fill:#C2D5E6;}
	.st5{fill:#EDEDED;}
	.st6{fill:#B09696;}
	.st7{fill:#756565;}
	.st8{fill:#FEC461;}
	.st9{fill:#857272;}
	.st10{fill:#89C12A;}
	.st11{fill:#97C14F;}
	.st12{fill:#E98F3A;}
	.st13{fill:#E99A4F;}
	.st14{fill:#C74124;}
	.st15{fill:#C75036;}
	.st16{fill:#BA4B33;}
	.st17{fill:#B5C6D6;}
	.st18{fill:#58897B;}
	.st19{fill:#54897A;}
	.st20{clip-path:url(#SVGID_00000150081895781458155090000014168716162864756158_);}
	.st21{fill:#2D2D2D;}
</style>
<g>
	<defs>
		<rect id="SVGID_1_" width="1918.2" height="1018"/>
	</defs>
	<clipPath id="SVGID_00000108999611689958550560000008474293624796283797_">
		<use xlink:href="#SVGID_1_"  style="overflow:visible;"/>
	</clipPath>
	<g style="clip-path:url(#SVGID_00000108999611689958550560000008474293624796283797_);">
		<path class="st1" d="M1934.5,0H-12v1319.6h1946.5V0z"/>
		<path class="st2" d="M1934.5,0H-12v626.5h1946.5V0z"/>
		<path class="st3" d="M1934.5,945.1v145.8h-245.9L1637.8,945L1934.5,945.1z"/>
		<path class="st3" d="M339.3,943.8l-40.3,168l-311-25.7V943.8H339.3z"/>
		<path class="st3" d="M1934.5,1090.9V1356H-12v-268.5l912.1-459.2l124.5,2.2L1934.5,1090.9z"/>
		<path class="st4" d="M832.4,217.5H713.1v421.1h119.3V217.5z"/>
		<path class="st4" d="M1148.9,133.4H971.4v505.1h177.5V133.4z"/>
		<path class="st4" d="M1270.8,359.2h-122v279.3h122V359.2z"/>
		<path class="st4" d="M1829.8,356h-139.1v279.3h139.1V356z"/>
		<path class="st4" d="M1934.5,133.4h-112.2v501.8h112.2V133.4z"/>
		<path class="st4" d="M1702.7,217.5h-192.8v417.8h192.8V217.5z"/>
		<path class="st4" d="M1665.6,137.2h-115.3v114.5h115.3V137.2z"/>
		<path class="st4" d="M715.9,359.2H576.8v279.3h139.1V359.2z"/>
		<path class="st4" d="M588.9,220.7H396v417.8h192.8V220.7z"/>
		<path class="st4" d="M550.1,103.3H434.8v130.2h115.3V103.3z"/>
		<path class="st4" d="M1513.6,635.3h-122v-399l122.1,122.9L1513.6,635.3z"/>
		<path class="st4" d="M1391.9,56.5h-122.1v578.7h122.1V56.5z"/>
		<path class="st4" d="M918.2,369.3H814.7v269.2h103.5V369.3z"/>
		<path class="st4" d="M979.3,638.5h-77.2V334.9l77.2-85V638.5z"/>
		<path class="st4" d="M150,133.4H-12v505.1h162V133.4z"/>
		<path class="st4" d="M397.6,133.4H220.1v505.1h177.5V133.4z"/>
		<path class="st4" d="M229.7,638.5h-89.6V334.9l89.6-85V638.5z"/>
		<path class="st5" d="M904.5,950.7h107.5l15.2,140.4H880.8L904.5,950.7z"/>
		<path class="st5" d="M1113.7,950.7h106.7L1322,1091h-144.8L1113.7,950.7z"/>
		<path class="st5" d="M1322,950.7h109.2l185.5,140.4h-147.4L1322,950.7z"/>
		<path class="st5" d="M1530.3,950.7H1637l281.2,140.4h-157.5L1530.3,950.7z"/>
		<path class="st5" d="M697.9,950.7h103.3L736.9,1091H589.5L697.9,950.7z"/>
		<path class="st5" d="M299,1091h142.3l148.2-140.4h-99.9L299,1091z"/>
		<path class="st5" d="M4.3,1085.3h149.9l237.1-134.6H283L4.3,1085.3z"/>
		<path class="st3" d="M272.8,597.9h-59.7v346.3h59.7V597.9z"/>
		<path class="st3" d="M616.5,110.9l-352.1,36.2c-5.3,0.5-9.3,5.5-9.3,11.4v766.4h-21.4V158.5c0-8.9,2.9-17.5,8.3-24
			c5.3-6.6,12.6-10.7,20.5-11.5l354.1-36.3V110.9z"/>
		<path class="st6" d="M262.4,123c-7.9,0.8-15.2,4.9-20.5,11.5c-5.3,6.6-8.3,15.1-8.3,24v6.5c0-8.9,2.9-17.5,8.3-24
			c5.3-6.6,12.6-10.7,20.5-11.5l354.1-36.3v-6.5L262.4,123z"/>
		<path class="st7" d="M255.1,467.6h-21.4v20.3h21.4V467.6z"/>
		<path class="st3" d="M616.5,108.3H475.1v26.4h141.4V108.3z"/>
		<path class="st8" d="M616.5,130.9H475.1v3.8h141.4V130.9z"/>
		<path class="st9" d="M280.4,251h-72.1v222.7h72.1V251z"/>
		<path class="st6" d="M280.4,251h-72.1v5.1h72.1V251z"/>
		<path class="st7" d="M280.4,468.6h-72.1v5.1h72.1V468.6z"/>
		<path class="st10" d="M266.3,432.9c2-14.1-6.5-27.4-19-29.7c-12.5-2.3-24.3,7.3-26.3,21.4c-2,14.1,6.5,27.4,19,29.7
			C252.5,456.6,264.3,447,266.3,432.9z"/>
		<path class="st11" d="M263.8,430c0.6-12.5-7.9-23.2-19-23.9c-11.1-0.7-20.6,8.9-21.2,21.4c-0.6,12.5,7.9,23.2,19,23.9
			S263.1,442.5,263.8,430z"/>
		<path class="st12" d="M266.3,366.5c2-14.1-6.5-27.4-19-29.7c-12.5-2.3-24.3,7.3-26.3,21.4c-2,14.1,6.5,27.4,19,29.7
			C252.5,390.2,264.3,380.6,266.3,366.5z"/>
		<path class="st13" d="M263.7,363.6c0.6-12.5-7.9-23.2-19-23.9c-11.1-0.7-20.6,8.9-21.2,21.4c-0.6,12.5,7.9,23.2,19,23.9
			C253.6,385.7,263.1,376.1,263.7,363.6z"/>
		<path class="st14" d="M252.4,319.8c11.7-5.5,17.3-20.6,12.4-33.8c-4.9-13.2-18.3-19.5-30-14c-11.7,5.5-17.3,20.6-12.4,33.8
			C227.3,319,240.7,325.3,252.4,319.8z"/>
		<path class="st15" d="M263.8,296.3c0.2-12.5-8.7-22.9-19.8-23.1c-11.1-0.2-20.3,9.8-20.5,22.3c-0.2,12.5,8.7,22.9,19.8,23.1
			C254.4,318.8,263.6,308.9,263.8,296.3z"/>
		<path class="st3" d="M1644.7,945.1h59.7V598.8h-59.7V945.1z"/>
		<path class="st3" d="M1301,111.8l352.1,36.2c5.3,0.5,9.3,5.5,9.3,11.4v766.4h21.4V159.5c0-8.9-2.9-17.5-8.3-24
			c-5.3-6.6-12.6-10.7-20.5-11.5L1301,87.7V111.8z"/>
		<path class="st6" d="M1655.1,124c7.9,0.8,15.2,4.9,20.5,11.5c5.3,6.6,8.3,15.1,8.3,24v6.5c0-8.9-2.9-17.5-8.3-24
			c-5.3-6.6-12.6-10.7-20.5-11.5L1301,94.2v-6.5L1655.1,124z"/>
		<path class="st7" d="M1683.8,468.6h-21.4v20.3h21.4V468.6z"/>
		<path class="st3" d="M1301,135.6h141.4v-26.4H1301V135.6z"/>
		<path class="st8" d="M1301,135.6h141.4v-3.8H1301V135.6z"/>
		<path class="st9" d="M1637.1,474.6h72.1V251.9h-72.1V474.6z"/>
		<path class="st6" d="M1709.2,251.9h-72.1v5.1h72.1V251.9z"/>
		<path class="st7" d="M1709.2,469.5h-72.1v5.1h72.1V469.5z"/>
		<path class="st10" d="M1673.8,455.5c12.7,0,23-11.6,23-25.9c0-14.3-10.3-25.9-23-25.9c-12.7,0-22.9,11.6-22.9,25.9
			C1650.9,444,1661.1,455.5,1673.8,455.5z"/>
		<path class="st11" d="M1677.1,452c11-2,18.4-13.7,16.6-26.1c-1.8-12.4-12.1-20.8-23.1-18.8c-11,2-18.4,13.7-16.7,26.1
			C1655.7,445.6,1666.1,454,1677.1,452z"/>
		<path class="st12" d="M1673.8,389.2c12.7,0,23-11.6,23-25.9c0-14.3-10.3-25.9-23-25.9c-12.7,0-22.9,11.6-22.9,25.9
			C1650.9,377.6,1661.1,389.2,1673.8,389.2z"/>
		<path class="st8" d="M1677.1,385.6c11-2,18.4-13.7,16.6-26.1c-1.8-12.4-12.1-20.8-23.1-18.8c-11,2-18.4,13.7-16.7,26.1
			C1655.7,379.2,1666.1,387.6,1677.1,385.6z"/>
		<path class="st14" d="M1690.1,315.2c9-10.1,9-26.5,0-36.6c-9-10.1-23.5-10.1-32.5,0c-9,10.1-9,26.5,0,36.6
			C1666.6,325.3,1681.1,325.3,1690.1,315.2z"/>
		<path class="st16" d="M1678.5,319c10.8-2.9,17.5-15.1,15-27.3c-2.6-12.2-13.4-19.8-24.2-16.9c-10.8,2.9-17.5,15.1-15,27.3
			C1656.8,314.4,1667.6,321.9,1678.5,319z"/>
		<path class="st17" d="M1801.8,546c0-0.8,0.1-1.6,0-2.4c-0.2-17.2-12.6-31.3-27.9-31.6c-15.8-0.2-28.7,14.1-28.7,31.9
			c0,0.8,0,1.5,0.1,2.3c0.5,7.9-1.4,15.7-5.1,22.3c-3.9,7-6.2,15.2-6.2,24.1c0,24.4,17.7,44.4,39.3,44.6c22,0.2,39.9-19.9,39.9-44.6
			c0-8.9-2.3-17.3-6.3-24.2C1803,561.8,1801.4,553.9,1801.8,546L1801.8,546z"/>
		<path class="st17" d="M1355.3,544.7c0-0.8,0.1-1.6,0.1-2.4c-0.2-17.2-12.6-31.3-27.9-31.6c-15.8-0.2-28.7,14.1-28.7,31.9
			c0,0.8,0,1.5,0.1,2.3c0.5,7.9-1.4,15.7-5.1,22.3c-3.9,7-6.2,15.2-6.2,24.1c0,24.4,17.7,44.4,39.3,44.6c22,0.2,39.9-19.9,39.9-44.6
			c0-8.9-2.3-17.3-6.3-24.2C1356.5,560.5,1354.9,552.6,1355.3,544.7L1355.3,544.7z"/>
		<path class="st17" d="M1517.6,544.7c0-0.8,0.1-1.6,0.1-2.4c-0.2-17.2-12.6-31.3-27.9-31.6c-15.8-0.2-28.7,14.1-28.7,31.9
			c0,0.8,0,1.5,0.1,2.3c0.5,7.9-1.4,15.7-5.1,22.3c-3.9,7-6.2,15.2-6.2,24.1c0,24.4,17.7,44.4,39.3,44.6c22,0.2,39.9-19.9,39.9-44.6
			c0-8.9-2.3-17.3-6.3-24.2C1518.7,560.5,1517.1,552.6,1517.6,544.7L1517.6,544.7z"/>
		<path class="st17" d="M1444.8,550.2c-6-11.7-7.8-25.6-4.8-38.7c0.8-3.5,1.2-7.3,1.2-11.1c0-8-1.9-15.6-5.2-22
			c-4.7-9-6.9-19.4-6.2-29.8c0.1-0.7,0.1-1.5,0.1-2.3c0-17.2-12.3-31.1-27.6-31.2c-15.3-0.1-27.7,13.9-27.7,31.2
			c0,0.7,0,1.5,0.1,2.2c0.7,10.4-1.5,20.8-6.2,29.9c-3.3,6.5-5.2,14-5.2,22c0,3.8,0.4,7.6,1.2,11.1c3,13.2,1.1,27.1-4.9,38.9
			c-4.3,8.4-6.7,18.1-6.5,28.5c0.4,30.2,22.4,54.5,49.2,54.5c27.1,0,49.1-24.8,49.1-55.4C1451.4,567.9,1449,558.4,1444.8,550.2z"/>
		<path class="st17" d="M359.2,540.6c-0.1-0.8-0.3-1.5-0.5-2.3c-3.9-16.7-19.1-26.9-33.9-22.9c-15.4,4.2-24.7,21.7-20.9,38.9
			c0.2,0.8,0.4,1.5,0.6,2.2c2.2,7.5,2.1,15.5-0.1,23c-2.3,7.8-2.7,16.5-0.8,25.1c5.4,23.6,26.8,38.1,47.8,32.3
			c21.4-5.9,34.3-30.3,28.9-54.3c-2-8.7-6-16.1-11.4-21.7C363.7,555.6,360.5,548.4,359.2,540.6L359.2,540.6z"/>
		<path class="st17" d="M508.6,560.6c0.3-0.7,0.5-1.4,0.8-2.2c5.2-16.2-2.1-34.3-16.3-40.6c-14.7-6.5-31.3,1.9-36.8,18.5
			c-0.2,0.7-0.5,1.5-0.6,2.2c-2,7.6-6.2,14.1-11.8,18.8c-5.9,4.9-10.6,11.8-13.3,20.1c-7.6,22.8,2.7,48.6,22.9,57.3
			c20.5,8.9,43.5-2.8,51.2-26c2.8-8.4,3.2-17.1,1.6-25.2C504.8,575.8,505.8,567.8,508.6,560.6z"/>
		<path class="st17" d="M655.3,547.6c0-0.8,0.1-1.6,0.1-2.4c-0.2-17.2-12.6-31.3-27.9-31.6c-15.8-0.2-28.7,14.1-28.7,31.9
			c0,0.8,0,1.5,0.1,2.3c0.5,7.9-1.4,15.7-5.1,22.3c-3.9,7-6.2,15.2-6.2,24.1c0,24.4,17.7,44.4,39.3,44.6c22,0.2,39.9-19.9,39.9-44.6
			c0-8.9-2.3-17.3-6.3-24.2C656.5,563.3,654.9,555.5,655.3,547.6L655.3,547.6z"/>
		<path class="st17" d="M455.8,556c-6-11.7-7.8-25.6-4.8-38.7c0.8-3.5,1.2-7.3,1.2-11.1c0-8-1.9-15.6-5.2-22
			c-4.6-9-6.9-19.4-6.2-29.8c0-0.7,0.1-1.5,0.1-2.3c0-17.2-12.3-31.1-27.6-31.2c-15.3-0.1-27.7,13.9-27.7,31.2c0,0.7,0,1.5,0.1,2.2
			c0.6,10.4-1.5,20.8-6.2,29.9c-3.3,6.5-5.2,14-5.2,22c0,3.8,0.4,7.6,1.3,11.1c3,13.2,1.1,27.1-4.9,38.9c-4.3,8.4-6.6,18.1-6.5,28.5
			c0.5,30.2,22.5,54.5,49.2,54.5c27.1,0,49.1-24.8,49.1-55.4C462.4,573.6,460,564.1,455.8,556z"/>
		<path class="st17" d="M72.2,547.6c0-0.8,0.1-1.6,0.1-2.4c-0.2-17.2-12.6-31.3-27.9-31.6c-15.8-0.2-28.7,14.1-28.7,31.9
			c0,0.8,0,1.5,0.1,2.3c0.5,7.9-1.4,15.7-5.1,22.3c-3.9,7-6.2,15.2-6.2,24.1c0,24.4,17.7,44.4,39.3,44.6c22,0.2,39.9-19.9,39.9-44.6
			c0-8.9-2.3-17.3-6.3-24.2C73.4,563.3,71.7,555.5,72.2,547.6L72.2,547.6z"/>
		<path class="st17" d="M161.7,556c-6-11.7-7.8-25.6-4.8-38.7c0.8-3.5,1.2-7.3,1.2-11.1c0-8-1.9-15.6-5.2-22
			c-4.6-9-6.9-19.4-6.2-29.8c0-0.7,0.1-1.5,0.1-2.3c0-17.2-12.3-31.1-27.6-31.2c-15.3-0.1-27.7,13.9-27.7,31.2c0,0.7,0,1.5,0.1,2.2
			c0.6,10.4-1.5,20.8-6.2,29.9c-3.3,6.5-5.2,14-5.2,22c0,3.8,0.4,7.6,1.3,11.1c3,13.2,1.1,27.1-4.9,38.9c-4.3,8.4-6.6,18.1-6.5,28.5
			c0.5,30.2,22.5,54.5,49.2,54.5c27.1,0,49.1-24.8,49.1-55.4C168.3,573.6,165.9,564.1,161.7,556z"/>
		<path class="st17" d="M915.8,556c-6-11.7-7.8-25.6-4.8-38.7c0.8-3.5,1.3-7.3,1.3-11.1c0-8-1.9-15.6-5.2-22
			c-4.6-9-6.9-19.4-6.2-29.8c0-0.7,0.1-1.5,0.1-2.3c0-17.2-12.3-31.1-27.6-31.2c-15.3-0.1-27.7,13.9-27.7,31.2c0,0.7,0,1.5,0.1,2.2
			c0.6,10.4-1.5,20.8-6.2,29.9c-3.3,6.5-5.2,14-5.2,22c0,3.8,0.4,7.6,1.2,11.1c3,13.2,1.1,27.1-4.9,38.9c-4.3,8.4-6.6,18.1-6.5,28.5
			c0.5,30.2,22.5,54.5,49.2,54.5c27.1,0,49.1-24.8,49.1-55.4C922.4,573.6,920,564.1,915.8,556z"/>
		<path class="st17" d="M985.1,556c-6-11.7-7.8-25.6-4.8-38.7c0.8-3.5,1.3-7.3,1.3-11.1c0-8-1.9-15.6-5.2-22
			c-4.6-9-6.9-19.4-6.2-29.8c0-0.7,0.1-1.5,0.1-2.3c0-17.2-12.3-31.1-27.6-31.2c-15.3-0.1-27.7,13.9-27.7,31.2c0,0.7,0,1.5,0.1,2.2
			c0.6,10.4-1.5,20.8-6.2,29.9c-3.3,6.5-5.2,14-5.2,22c0,3.8,0.4,7.6,1.2,11.1c3,13.2,1.1,27.1-4.9,38.9c-4.3,8.4-6.6,18.1-6.5,28.5
			c0.5,30.2,22.5,54.5,49.2,54.5c27.1,0,49.1-24.8,49.1-55.4C991.7,573.6,989.3,564.1,985.1,556z"/>
		<path class="st17" d="M1891.3,551.5c-6-11.7-7.8-25.6-4.8-38.7c0.8-3.5,1.2-7.3,1.2-11.1c0-8-1.9-15.6-5.2-22
			c-4.7-9-6.9-19.4-6.2-29.8c0.1-0.7,0.1-1.5,0.1-2.3c0-17.2-12.3-31.1-27.6-31.2c-15.3-0.1-27.7,13.9-27.7,31.2
			c0,0.7,0,1.5,0.1,2.2c0.6,10.4-1.5,20.8-6.2,29.9c-3.3,6.5-5.2,14-5.2,22c0,3.8,0.4,7.6,1.2,11.1c3,13.2,1.1,27.1-4.9,38.9
			c-4.3,8.4-6.7,18.1-6.5,28.5c0.5,30.2,22.5,54.5,49.2,54.5c27.1,0,49.1-24.8,49.1-55.4C1897.9,569.2,1895.5,559.7,1891.3,551.5z"
			/>
		<path class="st18" d="M318.7,921c0,0-83.4-23.9-45.1-52.5c38.3-28.6,64.2,7.3,64.2,7.3s-36.9-41.3-12.4-74
			c24.5-32.7,77.2-28.9,81.1,23.8c0,0,38.5-57.4,54-34.4c15.6,23-5.6,63.1-5.6,63.1L318.7,921z"/>
		<path class="st18" d="M587.5,785.6c0,0-66.5,23.5-59.7-48c5.8-61.6,73.8,19.1,73.8,19.1s-58.6-60-38.3-76.6
			c20.3-16.5,59.7,32.7,55.2,62.6c0,0,9-90.9,47-70.2c38,20.6-21.6,84.8-21.6,84.8L587.5,785.6z"/>
		<path class="st19" d="M1611.8,926.8c0,0,83.4-23.9,45.1-52.5c-38.3-28.6-64.2,7.3-64.2,7.3s36.9-41.3,12.4-74
			c-24.5-32.7-77.2-28.9-81.1,23.8c0,0-38.5-57.4-54-34.4c-15.6,23,5.6,63.1,5.6,63.1L1611.8,926.8z"/>
		<path class="st19" d="M1334.3,788.1c0,0,66.5,23.5,59.7-48c-5.8-61.6-73.8,19.1-73.8,19.1s58.6-60,38.3-76.6
			c-20.3-16.5-59.7,32.7-55.2,62.6c0,0-9-90.9-47-70.2c-38,20.6,21.6,84.8,21.6,84.8L1334.3,788.1z"/>
		<g>
			<defs>
				<rect id="SVGID_00000125572924681979606110000003545610445740061327_" x="-382" y="976" width="3696" height="45.2"/>
			</defs>
			<clipPath id="SVGID_00000165235638369917128140000006227078251336604805_">
				<use xlink:href="#SVGID_00000125572924681979606110000003545610445740061327_"  style="overflow:visible;"/>
			</clipPath>
			<g style="clip-path:url(#SVGID_00000165235638369917128140000006227078251336604805_);">
				<path class="st21" d="M80,976H-74v45.2H80V976z"/>
				<path class="st5" d="M234,976H80v45.2h154V976z"/>
				<path class="st21" d="M388,976H234v45.2h154V976z"/>
				<path class="st5" d="M542,976H388v45.2h154V976z"/>
				<path class="st21" d="M696,976H542v45.2h154V976z"/>
				<path class="st5" d="M850,976H696v45.2h154V976z"/>
				<path class="st21" d="M1004,976H850v45.2h154V976z"/>
				<path class="st5" d="M1158,976h-154v45.2h154V976z"/>
				<path class="st21" d="M1312,976h-154v45.2h154V976z"/>
				<path class="st5" d="M1466,976h-154v45.2h154V976z"/>
				<path class="st21" d="M1620,976h-154v45.2h154V976z"/>
				<path class="st5" d="M1774,976h-154v45.2h154V976z"/>
				<path class="st21" d="M1928,976h-154v45.2h154V976z"/>
			</g>
		</g>
	</g>
</g>
</svg>
