<svg width="1920" height="802" viewBox="0 0 1920 802" fill="none" xmlns="http://www.w3.org/2000/svg">
<g clip-path="url(#clip0_1_1351)">
<path d="M177.847 179.658H60.8245V613.985H177.847V179.658Z" fill="white"/>
<path d="M388.03 179.658H271.007V613.985H388.03V179.658Z" fill="white"/>
<path d="M598.208 179.658H481.185V613.985H598.208V179.658Z" fill="white"/>
<path d="M808.386 179.658H691.363V613.985H808.386V179.658Z" fill="white"/>
<path d="M1018.57 179.658H901.546V613.985H1018.57V179.658Z" fill="white"/>
<path d="M1228.75 179.658H1111.72V613.985H1228.75V179.658Z" fill="white"/>
<path d="M1438.93 179.658H1321.91V613.985H1438.93V179.658Z" fill="white"/>
<path d="M1649.11 179.658H1532.08V613.985H1649.11V179.658Z" fill="white"/>
<path d="M1859.29 179.658H1742.27V613.985H1859.29V179.658Z" fill="white"/>
<g clip-path="url(#clip1_1_1351)">
<path d="M1612.19 552.794L1727.27 538.208C1733.52 537.418 1739.63 540.79 1742.09 546.59C1747.08 558.372 1749.27 573.066 1747.22 587.158C1746.28 593.517 1741.27 598.507 1734.9 599.316L1619.81 613.902C1614.8 614.537 1609.86 611.875 1607.87 607.237C1602.06 593.729 1600.01 577.497 1602.26 562.361C1603.01 557.318 1607.13 553.433 1612.19 552.789L1612.19 552.794Z" fill="#ED594D"/>
<path d="M1692.28 542.643C1699.5 561.495 1702.72 581.791 1702.03 603.483L1707.43 602.801C1708.83 581.805 1705.52 561.532 1697.68 541.961L1692.28 542.643H1692.28Z" fill="#E43728"/>
<path d="M1653.05 609.695L1658.44 609.013C1662.1 587.73 1658.83 567.457 1649.88 548.018L1644.5 548.7C1653.61 568.6 1656.88 588.906 1653.05 609.695Z" fill="#E43728"/>
<path d="M1658.22 609.038C1661.06 599.287 1672.4 584.749 1678.75 577.439C1685.34 582.943 1697.2 594.057 1702.17 603.469L1707.86 602.749C1702 589.88 1685.09 575.605 1681.03 572.289C1687.23 564.749 1696.45 552.139 1698.58 541.848L1692.85 542.572C1689.86 552.807 1679.08 566.504 1673.09 573.239C1666.5 567.614 1655.09 556.852 1649.71 548.042L1643.96 548.771C1650.37 560.902 1666.49 574.834 1670.82 578.437C1664.33 586.39 1654.57 599.697 1652.54 609.762L1658.22 609.043V609.038Z" fill="#5199C5"/>
<path d="M1555.32 545.173C1542.12 550.028 1528.18 559.152 1514.86 549.477C1509.14 545.324 1508.82 537.342 1515.12 534.416C1522.41 531.03 1530.29 531.726 1538 531.726C1544.69 531.726 1556.46 527.864 1562.01 532.225C1565.26 534.774 1565.39 538.005 1563.74 540.404C1561.96 542.986 1558.3 544.078 1555.32 545.173Z" fill="#BC6E66"/>
<path d="M1698.01 482.008C1687.87 483.292 1675.83 481.797 1671.77 495.804C1669.98 501.984 1673.2 509.181 1678.37 509.011C1684.36 508.814 1688.97 504.75 1693.78 501.373C1697.94 498.443 1706.93 496.712 1708.53 490.418C1709.44 486.806 1708.21 483.932 1706.22 482.507C1703.87 480.823 1700.95 481.637 1698 482.008H1698.01Z" fill="#BC6E66"/>
<path d="M1554.77 528.131C1535.54 527.886 1538.13 551.009 1548.19 553.54L1585.77 554.81C1589.22 554.927 1592.66 554.904 1596.1 554.739L1646.51 552.364C1656.37 554.255 1665.54 546.771 1665.66 536.729C1665.79 526.555 1657.83 518.112 1647.67 517.656L1554.77 528.131Z" fill="#FFB500"/>
<path d="M1627.58 486.083C1628.2 495.372 1636.01 502.527 1645.31 502.329L1686.65 499.262C1700.45 498.773 1699.95 475.613 1686.84 473.219L1646.92 467.617C1636.12 466.384 1626.85 475.237 1627.58 486.078V486.083Z" fill="#FFB500"/>
<path d="M1641.78 566.141C1657.05 566.931 1673.14 551.122 1673.14 499.214C1673.14 462.996 1664.12 441.534 1643.5 440.132C1622.88 438.731 1621.62 446.628 1620.76 498.809C1620.14 536.212 1622.36 565.134 1641.78 566.145V566.141Z" fill="#2A5F8E"/>
<path d="M1658.52 497.84C1658.1 476.213 1641.43 470.475 1621.5 472.347C1621.13 479.572 1620.93 488.245 1620.76 498.809C1620.52 513.329 1620.72 526.537 1622.18 537.364C1635.16 529.942 1658.84 513.846 1658.52 497.84Z" fill="#CCEAFC"/>
<path d="M1551.71 440.548C1548.11 438.958 1544.17 438.337 1540.26 438.812L1533.7 439.616C1530.5 440.439 1528.14 443.135 1527.74 446.413L1526.85 453.882L1526.59 455.815C1526.28 458.177 1527.96 460.256 1530.34 460.335C1536.94 460.566 1544.31 458.689 1552.46 454.658V454.621L1551.71 440.548Z" fill="#FFB4A1"/>
<path d="M1578.47 456.342C1588.77 456.436 1599.02 457.772 1608.99 460.321L1627.07 464.94L1650.89 450.115C1654.7 447.744 1653.69 441.944 1649.31 440.999L1609.19 432.33C1604.53 431.324 1599.72 431.187 1595.01 431.931L1577.44 434.696L1578.47 456.337V456.342Z" fill="#2A5F8E"/>
<path d="M1577.44 434.701L1567.24 436.305L1567.2 456.243L1578.47 456.342L1577.44 434.701Z" fill="#CCEAFC"/>
<path d="M1567.24 436.305L1548.22 439.301L1548.84 456.078L1567.2 456.243L1567.24 436.305Z" fill="#FFB4A1"/>
<path d="M1679.16 559.814C1681.84 562.359 1683.81 565.557 1684.8 569.118L1686.49 575.106C1686.93 578.172 1685.45 581.201 1682.75 582.725L1676.61 586.211L1675.02 587.133C1673.09 588.257 1670.68 587.551 1669.75 585.519C1667.16 579.875 1666.11 572.806 1666.65 564.273L1666.69 564.259L1679.16 559.814Z" fill="#FFB4A1"/>
<path d="M1663.72 576.636C1669.44 583.211 1679.95 583.136 1685.64 573.719C1686.97 571.509 1686.54 568.212 1685 564.232L1663.72 576.636Z" fill="#CCEAFC"/>
<path d="M1685.01 564.231C1683.38 560.017 1680.51 555.045 1677.19 549.801L1668.61 538.395L1635.9 564.772L1653.22 570.285C1657.17 571.541 1660.99 573.507 1663.71 576.634C1669.6 582.298 1688.62 574.372 1685 564.231H1685.01Z" fill="#2A5F8E"/>
<path d="M1676.49 518.923C1674.86 526.608 1669.09 530.771 1660.61 530.728C1652.15 538.381 1641.26 536.519 1635.17 525.79C1622.46 525.211 1613.44 501.788 1626.57 492.733C1623.85 485.49 1634.56 477.287 1643.32 479.601C1653.09 476.398 1660.77 476.097 1667.49 483.006C1683.27 486.289 1684.54 513.024 1676.49 518.927V518.923Z" fill="#5D305D"/>
<path d="M1606.5 555.211C1604.28 556.951 1602.7 559.454 1602.27 562.37C1600.02 577.506 1602.07 593.738 1607.88 607.246C1609.06 609.993 1611.29 612.025 1613.94 613.112C1619.81 592.623 1616.54 573.033 1606.5 555.211Z" fill="#FF942D"/>
<path d="M1500.51 197.6C1511.74 205.078 1523.01 215.313 1537.23 209.001C1543.69 206.132 1545.67 198.395 1540.12 194.218C1533.69 189.383 1525.84 188.414 1518.3 186.805C1511.76 185.408 1501.06 179.171 1494.71 182.276C1490.18 184.496 1489.99 188.686 1492.34 191.626C1494.1 193.823 1498.35 196.16 1500.51 197.6Z" fill="#BC6E66"/>
<path d="M1371.24 104.393C1381.03 108.062 1393.9 108.678 1394.99 123.72C1395.45 130.136 1390.8 136.504 1385.78 135.258C1379.96 133.814 1376.3 128.875 1372.3 124.567C1368.84 120.832 1360.41 117.257 1360.16 110.771C1359.82 101.947 1365.93 102.53 1371.24 104.393Z" fill="#BC6E66"/>
<path d="M1502.66 179.786C1521.51 183.567 1514.16 205.636 1503.78 206.008L1466.77 199.395C1463.38 198.788 1460.02 198.045 1456.68 197.17L1407.89 184.31C1397.85 184.099 1390.45 174.866 1392.42 165.016C1394.42 155.04 1403.97 148.451 1414 150.125L1502.66 179.781L1502.66 179.786Z" fill="#5D305D"/>
<path d="M1440.24 123.452C1437.69 132.403 1428.56 137.77 1419.5 135.634L1379.71 123.993C1366.32 120.63 1371.65 98.0859 1384.97 98.4857L1425.18 101.35C1435.99 102.399 1443.21 112.996 1440.24 123.447V123.452Z" fill="#5D305D"/>
<path d="M1389.1 98.782L1384.97 98.4857C1371.65 98.0859 1366.32 120.63 1379.71 123.993L1381.31 124.459C1377.51 121.439 1377.71 115.832 1378.09 113.175C1379.04 106.684 1383.12 99.9956 1389.1 98.7773L1389.1 98.782Z" fill="#834682"/>
<path d="M1372.13 195.406C1368.98 197.33 1366.39 200.053 1364.67 203.322L1361.77 208.825C1360.69 211.732 1361.51 215.001 1363.83 217.061L1369.11 221.751L1370.47 222.983C1372.12 224.488 1374.62 224.3 1375.96 222.508C1379.67 217.532 1382.17 210.834 1383.42 202.377L1383.4 202.358L1372.13 195.406Z" fill="#FFCFC1"/>
<path d="M1374.29 182.224L1386.91 176.664L1413.39 209.293L1395.31 211.066C1391.18 211.47 1387.03 212.59 1383.72 215.083C1376.75 220.318 1366.7 217.971 1362.89 207.646C1359.2 197.656 1364.55 186.513 1374.3 182.224H1374.29Z" fill="#E43728"/>
<path d="M1407.36 209.405C1392.26 206.988 1379.83 188.169 1390.66 137.403C1398.22 101.981 1411.53 82.8795 1431.99 85.8192C1452.45 88.7589 1452.03 96.7456 1441.98 147.953C1434.78 184.66 1426.57 212.481 1407.36 209.405H1407.36Z" fill="#ED594D"/>
<path d="M1419.45 133.315C1430.08 135.587 1436.79 146.401 1434.42 157.468C1432.06 168.535 1421.52 175.666 1410.89 173.394C1400.25 171.122 1393.55 160.309 1395.91 149.241C1398.27 138.174 1408.81 131.043 1419.44 133.32L1419.45 133.315Z" fill="#CCEAFC"/>
<path d="M1523.17 95.8329C1526.69 94.6899 1530.44 94.4876 1534.04 95.3061L1540.1 96.6842C1543.01 97.7566 1544.96 100.503 1545.02 103.603L1545.14 110.668L1545.19 112.502C1545.26 114.736 1543.49 116.519 1541.26 116.369C1535.07 115.955 1528.36 113.495 1521.12 108.951V108.918L1523.17 95.8329H1523.17Z" fill="#FFCFC1"/>
<path d="M1507.06 111.05L1493.29 111.257C1482.99 111.412 1472.75 112.809 1462.79 115.415L1444.74 120.142L1422.13 94.7565C1418.58 92.0143 1420.17 86.3466 1424.62 85.848L1465.41 81.2996C1470.15 80.7728 1474.95 81.1256 1479.56 82.3391L1509.87 90.3352L1507.06 111.04L1507.06 111.05Z" fill="#ED594D"/>
<path d="M1509.87 90.3438L1525.37 94.4311L1522.91 110.814L1507.06 111.049L1509.87 90.3438Z" fill="#CCEAFC"/>
<path d="M1402.19 150.625C1402.19 158.485 1406.96 163.757 1415.26 165.488C1421.94 174.74 1432.97 175.196 1441.17 165.977C1453.72 168.066 1467.43 147.046 1456.49 135.447C1460.66 128.928 1451.9 118.669 1442.85 119.102C1433.96 113.923 1426.51 112.023 1418.51 117.38C1402.38 117.291 1395.56 143.17 1402.19 150.625Z" fill="#FFB500"/>
<path d="M1502.66 179.786L1501.33 179.344C1504.85 181.997 1506.44 185.821 1506.03 190.806C1505.5 197.354 1501.67 202.965 1497.96 204.969L1503.78 206.008C1514.15 205.637 1521.51 183.568 1502.66 179.786H1502.66Z" fill="#834682"/>
<path d="M1717.39 166.019C1703.15 165.497 1686.66 160.512 1676.65 173.997C1672.44 179.674 1674.53 187.383 1681.41 188.286C1689.38 189.33 1696.69 186.311 1704.05 183.996C1710.43 181.993 1722.81 182.153 1726.81 176.325C1729.51 172.379 1727.95 168.813 1724.81 167.261C1722.92 166.325 1719.77 166.104 1717.4 166.015L1717.39 166.019Z" fill="#ED594D"/>
<path d="M1762.24 174.857C1762.24 174.857 1721.99 183.06 1703.93 185.289C1685.87 187.514 1684.12 163.399 1693.13 158.258C1708.2 146.598 1727.18 140.845 1748.88 133.423C1776.42 126.33 1783.94 169.278 1762.25 174.857H1762.24Z" fill="#86C6EC"/>
<path d="M1828.53 187.256C1813.61 186.739 1797 183.084 1785.37 196.983C1780.83 202.402 1782.47 210.224 1789.28 211.526C1797.18 213.036 1804.65 210.449 1812.13 208.573C1818.62 206.945 1829.93 206.837 1835.3 202.246C1840.72 197.613 1837.18 187.303 1828.53 187.256Z" fill="#ED594D"/>
<path d="M1754.86 183.654C1754.86 183.654 1795.88 181.612 1814.07 182.134C1832.26 182.656 1830.36 206.762 1820.67 210.483C1804.02 219.739 1784.4 222.561 1761.82 226.625C1733.53 229.485 1732.56 185.892 1754.86 183.649V183.654Z" fill="#86C6EC"/>
<path d="M1733.09 266.308C1731.22 269.497 1728.55 272.136 1725.31 273.914L1719.86 276.906C1716.97 278.03 1713.69 277.268 1711.59 274.987L1706.81 269.784L1705.56 268.449C1704.02 266.816 1704.16 264.314 1705.94 262.945C1710.84 259.15 1717.5 256.534 1725.93 255.133L1725.95 255.161L1733.09 266.313L1733.09 266.308Z" fill="#FFB4A1"/>
<path d="M1733.6 272.362L1739.77 269.827C1747.88 266.497 1754.78 260.758 1759.52 253.388L1766.56 242.476L1738.51 211.188L1734.58 226.229C1732.73 233.327 1729.42 239.969 1724.88 245.726L1716.31 256.586C1710.13 264.926 1722.94 277.555 1733.6 272.362H1733.6Z" fill="#CCEAFC"/>
<path d="M1771.07 86.6422C1771.07 82.9452 1772.04 79.3188 1773.94 76.1439L1777.14 70.8054C1779.06 68.3736 1782.27 67.3718 1785.24 68.2843L1791.99 70.3585L1793.75 70.8759C1795.89 71.5109 1797.03 73.7451 1796.2 75.8194C1793.88 81.5765 1789.46 87.1973 1782.9 92.6675L1782.86 92.6534L1771.07 86.6422Z" fill="#FFB4A1"/>
<path d="M1792.93 89.8115L1793.43 96.4624C1794.09 105.206 1792.06 113.945 1787.61 121.499L1781.01 132.684C1763.87 139.848 1750.74 135.046 1740.48 121.645L1752.16 111.387C1757.67 106.547 1762.11 100.616 1765.22 93.9648L1771.08 81.4251C1775.76 72.1638 1792.79 77.9492 1792.93 89.8068V89.8115Z" fill="#CCEAFC"/>
<path d="M1734.78 225.016C1732.73 214.546 1732.29 199.433 1731.57 178.587C1730.6 150.244 1731.8 127.074 1743.76 118.688C1750.4 132.521 1764.11 135.743 1781.72 131.425C1797.84 156.956 1793.01 222.904 1765.84 243.162C1762.69 234.174 1746.85 234.113 1734.78 225.016Z" fill="#FDD886"/>
<path d="M1820.09 174.98C1822.39 163.889 1822.62 153.315 1820.57 143.302C1818.36 132.535 1807.85 127.733 1797.94 132.465L1791.7 135.442C1787.06 137.657 1784.33 142.573 1784.9 147.69L1790.06 193.827L1820.09 174.98Z" fill="#2A5F8E"/>
<path d="M1790.21 160.193C1789.91 157.441 1789.53 154.779 1789.05 152.201C1767.25 148.33 1748.91 142.328 1734.28 134.342C1733.61 136.788 1733.09 139.44 1732.67 142.263C1748.23 150.376 1767.55 156.373 1790.21 160.197V160.193Z" fill="#5199C5"/>
<path d="M1733.38 214.752C1733.65 217.556 1733.98 220.138 1734.36 222.509C1752.13 222.56 1772.68 213.84 1786.81 206.493C1787.65 203.243 1788.35 199.922 1788.94 196.545C1767.6 208.511 1747.56 215.082 1733.38 214.752Z" fill="#5199C5"/>
<path d="M1819.48 187.114C1821.62 176.761 1821.9 166.87 1820.12 157.491C1818.2 147.36 1807.4 141.645 1798.09 146.085L1784.59 152.533C1788.52 170.233 1789.64 185.468 1783.61 205.956H1796.15C1807.39 205.956 1817.2 198.116 1819.48 187.114Z" fill="#5199C5"/>
<path d="M1787.01 174.053C1777.95 147.521 1735.01 151.434 1732.93 176.8C1719.53 183.785 1722.24 216.122 1757.97 210.087C1776.36 206.983 1793.06 191.762 1787.01 174.053Z" fill="#FF942D"/>
<path d="M1810.57 172.138C1812.97 171.659 1815.53 170.666 1818.02 169.711C1822.85 167.844 1827.86 165.911 1832.36 167.482L1830.58 172.613C1827.95 171.696 1824.08 173.197 1819.97 174.782C1817.28 175.821 1814.49 176.898 1811.64 177.467L1810.57 172.138Z" fill="#FFB500"/>
<path d="M1733.6 272.362L1739.77 269.826C1739.77 269.826 1739.79 269.817 1739.8 269.817C1734.62 269.271 1729.63 266.619 1726.22 262.428C1722.99 258.449 1721.72 253.632 1722.36 248.924L1717.18 255.495C1717.91 259.173 1719.47 262.724 1722.01 265.852C1724.61 269.055 1727.86 271.529 1731.46 273.161C1732.18 272.968 1732.9 272.71 1733.6 272.366V272.362Z" fill="#86C6EC"/>
<path d="M1767.43 89.253C1769.2 87.6631 1771.48 86.6143 1774.24 86.3932C1779.77 85.9605 1787.54 88.7591 1793.44 97.5124C1793.42 97.1643 1793.46 96.8163 1793.44 96.4682L1792.93 89.8127C1792.93 89.3047 1792.85 88.8202 1792.78 88.3311C1786.48 82.4704 1779.31 80.542 1773.82 80.9794C1772.84 81.0547 1771.95 81.3133 1771.03 81.5297L1767.43 89.2482V89.253Z" fill="#86C6EC"/>
<path d="M1713.22 197.816C1710.92 184.773 1719.63 172.337 1732.66 170.032L1758.9 165.404C1771.94 163.104 1784.37 171.81 1786.67 184.853C1788.97 197.896 1780.27 210.332 1767.23 212.637L1741 217.265C1727.96 219.565 1715.53 210.859 1713.22 197.816Z" fill="#E43728"/>
<path d="M1756.27 165.863L1758.9 165.398C1771.94 163.098 1784.37 171.804 1786.67 184.847C1788.97 197.89 1780.27 210.326 1767.23 212.631L1764.6 213.097C1751.56 215.397 1739.13 206.69 1736.83 193.647C1734.53 180.604 1743.23 168.168 1756.27 165.863Z" fill="#ED594D"/>
<path d="M1359.46 361.443C1345.59 358.141 1330.4 350.018 1317.94 361.283C1312.69 366.025 1313.24 373.997 1319.8 376.231C1327.41 378.818 1335.17 377.285 1342.84 376.462C1349.49 375.747 1361.6 378.334 1366.66 373.4C1370.09 370.06 1369.26 366.26 1366.48 364.12C1364.81 362.831 1361.76 361.994 1359.46 361.443Z" fill="#2A5F8E"/>
<path d="M1399.09 356.189C1400.49 368.328 1390.92 378.93 1378.7 378.803C1366.21 378.672 1351.51 378.371 1342.48 377.698C1324.34 376.343 1327.34 352.346 1337.18 349.077C1348.79 343.306 1361.64 340.573 1375.82 338.461C1387.2 336.768 1397.76 344.754 1399.08 356.189H1399.09Z" fill="#5D305D"/>
<path d="M1445.67 391.297C1430.75 390.779 1412.84 382.755 1401.2 396.654C1396.66 402.072 1398.3 409.894 1405.12 411.197C1413.01 412.707 1420.49 410.12 1427.97 408.239C1434.45 406.611 1445.77 406.503 1451.14 401.912C1456.55 397.279 1450.83 391.32 1445.67 391.292V391.297Z" fill="#2A5F8E"/>
<path d="M1370.69 383.323C1370.69 383.323 1411.71 381.282 1429.9 381.804C1448.09 382.326 1446.19 406.432 1436.5 410.152C1419.85 419.409 1400.23 422.231 1377.66 426.3C1349.36 429.16 1348.39 385.567 1370.69 383.323Z" fill="#5D305D"/>
<path d="M1380.34 442.974L1374.7 400.783C1374.7 400.783 1336.36 415.472 1321.22 423.478C1306.08 431.483 1311.25 451.488 1331.54 452.4C1351.84 453.313 1380.34 442.969 1380.34 442.969L1380.34 442.974Z" fill="#CCEAFC"/>
<path d="M1390.47 286.187C1394.72 285.561 1398.65 288.538 1399.21 292.8C1399.74 296.911 1399.69 301.501 1399.04 306.576L1399.01 306.586L1386.27 310.208C1383.76 307.498 1382.01 304.173 1381.24 300.556L1379.95 294.47C1379.38 287.184 1385.04 286.981 1390.47 286.177V286.187Z" fill="#FFB4A1"/>
<path d="M1391.66 294.576C1402.81 295.564 1410.12 307.309 1405.39 317.468C1404.81 318.729 1404.16 319.966 1403.45 321.17L1396.85 332.355L1356.32 321.316L1367.99 311.058C1371.3 308.151 1374.22 304.854 1376.71 301.246C1380.01 296.444 1385.86 294.064 1391.66 294.576Z" fill="#CCEAFC"/>
<path d="M1370.97 314.977C1388.72 314.747 1407.65 330.325 1408.34 379.66C1408.82 414.086 1397.22 443.76 1373.25 444.386C1349.28 445.012 1349.1 427.877 1347.41 378.254C1346.19 342.686 1348.39 315.269 1370.97 314.977H1370.97Z" fill="#CCEAFC"/>
<path d="M1345.71 436.083C1345.71 435.331 1346.02 434.578 1346.63 434.042L1364.83 418.04C1365.96 417.048 1367.67 417.161 1368.67 418.285C1369.66 419.409 1369.55 421.131 1368.42 422.123L1350.22 438.125C1349.09 439.117 1347.37 439.004 1346.38 437.88C1345.93 437.363 1345.7 436.723 1345.7 436.083H1345.71Z" fill="#86C6EC"/>
<path d="M1344.34 412.664C1338.09 416.54 1351.74 427.984 1365.67 424.306C1371.21 422.843 1384.91 407.57 1364.65 409.259L1344.34 412.664Z" fill="#FFB4A1"/>
<path d="M1342.61 409.672C1342.25 407.198 1343.96 404.898 1346.44 404.541L1375.67 400.303C1378.14 399.945 1380.44 401.662 1380.8 404.136C1381.15 406.61 1379.44 408.91 1376.96 409.268L1347.74 413.506C1345.26 413.863 1342.96 412.147 1342.61 409.672Z" fill="#5199C5"/>
<path d="M1345.97 403.055L1357.72 359.886C1343.96 359.016 1334.94 371.837 1334.1 383.855C1330.65 384.264 1329.49 385.906 1329.74 388.055C1329.98 390.097 1331.46 391.536 1334.68 391.155C1336.06 396.691 1339.63 401.286 1345.97 403.06V403.055Z" fill="#FFB4A1"/>
<path d="M1345.89 362.157C1351.64 358.018 1358.72 355.939 1365.76 356.724C1379.77 358.295 1392.14 366.639 1392.47 380.976C1393.14 409.009 1351.91 413.068 1341.9 401.352L1342.28 399.809C1343.63 394.329 1343.25 388.567 1341.2 383.313L1340.31 381.032C1337.65 374.203 1339.94 366.437 1345.89 362.157Z" fill="#BC6E66"/>
<path d="M1349.98 334.571C1349.54 336.283 1349.16 338.094 1348.83 339.984C1368.38 347.378 1386.93 341.767 1400.09 335.822C1399.27 334.11 1398.4 332.52 1397.5 331.043C1384.87 336.744 1367.86 341.697 1349.98 334.571H1349.98Z" fill="#86C6EC"/>
<path d="M1260.11 473.689C1273.46 469.122 1287.67 460.124 1300.86 470.115C1306.5 474.381 1306.65 482.367 1300.3 485.166C1292.95 488.407 1285.08 487.555 1277.37 487.4C1270.69 487.268 1258.84 490.9 1253.38 486.426C1249.26 483.063 1250.33 478.675 1253.68 476.436L1260.11 473.689H1260.11Z" fill="#5D305D"/>
<path d="M1218.95 494.958C1218.95 494.958 1259.88 491.538 1277.84 488.603C1295.8 485.668 1290.72 462.028 1280.63 459.629C1262.89 452.668 1243.07 452.47 1220.15 451.436C1191.73 452.357 1196.55 495.691 1218.95 494.958Z" fill="#BC6E66"/>
<path d="M1156.71 531.603C1151.47 533.682 1149.74 540.488 1155.64 543.743C1161.83 547.153 1172.82 541.448 1179.42 540.371C1187.04 539.129 1194.93 538.546 1201.57 534.03C1207.31 530.131 1205.72 522.305 1199.41 519.125C1182.85 510.785 1169.04 526.27 1156.72 531.603H1156.71Z" fill="#5D305D"/>
<path d="M1222.15 494.789C1222.15 494.789 1183.67 509.172 1167.17 516.858C1150.67 524.548 1161.96 545.926 1172.33 545.507C1191.29 547.407 1210.43 542.224 1232.76 537.013C1259.88 528.429 1243.51 488.016 1222.15 494.789Z" fill="#BC6E66"/>
<path d="M1244.11 590.624C1245.23 594.147 1247.25 597.312 1250.01 599.768L1254.66 603.897C1257.23 605.638 1260.6 605.624 1263.15 603.864L1268.97 599.852L1270.48 598.832C1272.34 597.58 1272.76 595.106 1271.34 593.38C1267.39 588.587 1261.49 584.561 1253.58 581.32L1253.55 581.344L1244.11 590.629L1244.11 590.624Z" fill="#FFCFC1"/>
<path d="M1242.28 595.895L1236.83 592.052C1232.27 588.84 1228.41 584.79 1225.43 580.148C1223.72 577.49 1222.31 574.635 1221.22 571.639L1216.79 559.433L1251.09 535.158L1251.57 550.699C1251.72 555.351 1252.48 559.955 1253.82 564.391C1254.59 566.945 1255.55 569.442 1256.7 571.865L1262.65 584.362C1266.82 593.863 1251.53 603.332 1242.29 595.9L1242.28 595.895Z" fill="#ED594D"/>
<path d="M1188.12 418.379C1186.62 415.002 1184.26 412.076 1181.24 409.945L1176.17 406.357C1173.43 404.913 1170.08 405.298 1167.74 407.33L1162.4 411.963L1161 413.148C1159.3 414.597 1159.16 417.104 1160.76 418.661C1165.21 422.988 1171.53 426.333 1179.74 428.675L1179.77 428.651L1188.12 418.379Z" fill="#FFCFC1"/>
<path d="M1169.42 430.134L1171.64 436.423C1174.57 444.687 1179.97 451.855 1187.1 456.958L1197.65 464.517L1230.25 438.008L1215.42 433.356C1208.43 431.159 1201.96 427.538 1196.43 422.717L1186 413.625C1177.98 407.049 1164.75 419.236 1169.42 430.139V430.134Z" fill="#ED594D"/>
<path d="M1227.25 437.895C1209.52 438.341 1191.03 453.985 1191.66 501.331C1192.1 534.364 1204.49 562.393 1228.44 562.092C1252.4 561.791 1252.12 545.352 1252.48 497.695C1252.74 463.534 1249.81 437.325 1227.25 437.89V437.895Z" fill="#ED594D"/>
<path d="M1252.32 475.782L1250.84 460.453L1193.73 465.952L1193.74 466.097C1181.85 468.412 1173.17 479.042 1173.74 491.421L1174.9 522.117C1175.41 533.038 1184.02 541.839 1194.93 542.582L1251.5 546.914L1252.7 531.552L1227.43 529.595C1218.85 528.932 1212.11 521.985 1211.69 513.387L1210.93 497.672C1210.46 487.696 1217.89 479.098 1227.83 478.143L1252.31 475.787L1252.32 475.782Z" fill="#5D305D"/>
<path d="M1204.48 503.875C1200.85 480.127 1241.08 467.399 1254.42 482.921C1269.52 483.415 1270.76 519.703 1246.26 523.776C1227.86 526.834 1207.3 522.379 1204.48 503.88V503.875Z" fill="#834682"/>
<path d="M1193.74 466.098C1181.85 468.412 1173.17 479.042 1173.74 491.422L1174.9 522.117C1175.41 533.039 1184.02 541.839 1194.93 542.582C1181.78 528.062 1179.9 479.324 1193.74 466.098Z" fill="#834682"/>
<path d="M1637.39 331.353C1627.38 330.281 1615.75 331.527 1611.67 317.835C1609.83 311.669 1612.98 304.444 1618.16 304.576C1624.15 304.727 1628.8 308.753 1633.63 312.092C1637.82 314.99 1646.81 316.65 1648.46 322.929C1649.51 326.908 1647.92 330.013 1645.58 331.259C1643.24 332.51 1639.98 331.631 1637.39 331.353Z" fill="#CCEAFC"/>
<path d="M1552.85 331.885C1553.39 322.591 1561.15 315.375 1570.45 315.498L1634.29 317.252C1648.09 317.633 1649.83 331.715 1636.73 334.208L1572.34 350.191C1561.55 351.513 1552.21 342.736 1552.85 331.885Z" fill="#FFCFC1"/>
<path d="M1514.98 283.043C1503.43 280.79 1491.36 278.344 1482.02 288.198C1477.78 292.662 1478.33 297.488 1484.19 298.993C1490.97 300.733 1497.61 298.885 1504.21 297.662C1509.93 296.599 1520.62 298.038 1524.69 293.419C1527.27 290.48 1526.57 287.432 1524.35 285.691C1522.06 283.89 1517.72 283.584 1514.98 283.048V283.043Z" fill="#CCEAFC"/>
<path d="M1585.26 279.06C1585.47 289.234 1577.57 297.738 1567.41 298.274L1508.61 297.874C1489.38 298.274 1492.78 286.275 1502.82 283.665L1563.19 260.58C1573.03 258.609 1585.05 269.023 1585.26 279.06H1585.26Z" fill="#FFCFC1"/>
<path d="M1516.91 326.821C1513.91 319.634 1517.47 312.122 1514.62 304.921C1510.43 294.366 1500.04 283.435 1504.05 271.563C1509.53 255.345 1525.25 263.478 1532.83 262.034C1540.89 260.496 1541.38 255.778 1544.81 250.458C1558.41 229.396 1588.12 245.905 1618.42 259.071C1632.6 265.232 1642.94 277.697 1631.68 292.485C1610.6 320.156 1647.55 313.19 1638.22 335.781C1633.72 346.679 1614.09 354.002 1601.72 355.964C1588.28 358.099 1574.98 355.16 1562.12 352.253C1550.06 349.529 1519.96 334.144 1516.91 326.821H1516.91Z" fill="#5D305D"/>
<path d="M1544.62 339.133C1538.05 341.226 1538.91 348.277 1542.17 352.919C1548.88 362.453 1575.26 373.196 1600.9 363.258C1612.3 358.836 1617.99 344.787 1609.54 334.966C1601.08 325.14 1583.12 324.289 1571.5 326.998C1561.1 329.43 1552.11 335.238 1544.62 339.133Z" fill="#CCEAFC"/>
<path d="M1568.35 249.248C1583.57 248.689 1593.52 264.874 1594.68 309.101C1595.5 339.961 1590.59 362.67 1571.34 363.018C1561.08 363.201 1558.71 358.07 1551.91 350.041C1545.09 341.984 1532.1 331.852 1531.09 309.576C1530.53 297.432 1531.85 282.724 1544.85 274.351C1548.14 272.235 1550.56 269.064 1551.49 265.269C1554.09 254.629 1558.96 249.596 1568.35 249.253L1568.35 249.248Z" fill="#5199C5"/>
<path d="M1547.14 350.178L1552.89 344.463L1584.41 357.774C1576.42 366.499 1554.22 383.761 1542.57 373.456L1532.07 363.526C1528.58 360.22 1528.1 354.83 1530.94 350.954C1533.68 347.214 1538.72 345.992 1542.87 348.056L1547.14 350.178Z" fill="#5199C5"/>
<path d="M1604.56 225.378C1605.11 221.723 1604.69 217.989 1603.29 214.569L1600.93 208.812C1599.39 206.122 1596.36 204.649 1593.29 205.106L1586.31 206.145L1584.49 206.394C1582.28 206.7 1580.81 208.737 1581.33 210.915C1582.76 216.954 1586.29 223.172 1591.97 229.564L1592 229.555L1604.56 225.373V225.378Z" fill="#FFCFC1"/>
<path d="M1606.89 228.888L1608.13 242.095C1609.63 257.984 1600.49 263.657 1581.1 281.347L1557.77 262.838C1554.26 260.054 1554.63 254.612 1558.45 252.279C1579.4 239.504 1583.09 238.389 1584.56 228.954L1585.05 225.816C1587.12 216.423 1606.24 218.225 1606.88 228.888H1606.89Z" fill="#5199C5"/>
<path d="M1551.53 267.923C1551.63 266.916 1552.29 266.004 1553.31 265.632C1554.71 265.115 1556.27 265.839 1556.79 267.25C1558.13 270.895 1561.96 273.976 1567.3 275.707C1573.97 277.871 1581.4 277.334 1585.78 274.376C1587.03 273.539 1588.72 273.868 1589.56 275.11C1590.4 276.356 1590.07 278.045 1588.83 278.887C1583.04 282.786 1573.93 283.571 1565.63 280.876C1558.69 278.628 1553.61 274.343 1551.7 269.122C1551.55 268.727 1551.5 268.318 1551.54 267.927L1551.53 267.923Z" fill="#2A5F8E"/>
<path d="M1534.27 349.534C1541.02 343.137 1551.38 343.626 1562.35 344.148C1576.12 344.802 1589.13 345.418 1595.42 333.066L1600.26 335.531C1592.38 351.01 1576.29 350.248 1562.09 349.571C1552.31 349.11 1543.08 348.668 1538.01 353.475L1534.27 349.529V349.534Z" fill="#CCEAFC"/>
<path d="M1559.68 290.244C1534.95 293.207 1529.68 332.035 1561.83 333.677L1559.68 290.244Z" fill="#FFCFC1"/>
<path d="M1528.54 359.853C1525.14 358.141 1519.99 352.581 1520.64 348.348C1521.17 344.858 1527.45 342.078 1531.28 341.269C1537.4 339.98 1538.51 343.809 1542.63 348.099C1548.56 354.213 1536.35 364.114 1528.55 359.853H1528.54Z" fill="#FFCFC1"/>
<path d="M1548.46 322.818C1542.82 320.461 1535.99 302.404 1553.85 295.848C1557.66 290.758 1560.92 278.176 1576.76 280.166C1592.6 282.156 1592.22 283.684 1601.21 277.123C1610.2 270.561 1621.22 280.721 1627.77 276.107C1630.85 273.939 1634.18 271.982 1637.93 274.31C1635.06 281.991 1640.45 294.183 1629.72 302.028C1621.51 308.039 1625.93 322.286 1615.23 323.434C1602.09 324.845 1606.5 328.928 1595.03 336.152C1587.57 340.851 1574.74 336.783 1569.36 337.723C1563.79 338.697 1543.78 347.662 1548.45 322.818H1548.46Z" fill="#ED594D"/>
<path d="M1548.81 324.077C1548.81 324.044 1548.82 324.016 1548.82 323.983C1549.01 322.496 1550.38 321.447 1551.87 321.645C1561.16 322.873 1565.04 318.254 1569.15 313.362C1570.58 311.659 1571.94 310.051 1573.52 308.705C1577.81 305.065 1583.71 305.394 1588.91 305.686C1595.07 306.029 1598.94 306.071 1600.94 302.727C1601.62 301.575 1602.19 300.587 1602.68 299.726C1606.25 293.48 1606.88 293.01 1616.25 289.708C1617.66 289.209 1619.22 289.952 1619.71 291.368C1620.21 292.784 1619.47 294.336 1618.05 294.835C1612.77 296.697 1609.22 299.228 1607.39 302.426C1606.89 303.306 1606.31 304.322 1605.6 305.507C1601.82 311.852 1594.8 311.462 1588.59 311.114C1584 310.855 1579.66 310.61 1577.03 312.849C1575.79 313.898 1574.58 315.337 1573.31 316.861C1569.12 321.838 1563.39 328.653 1551.15 327.035C1549.69 326.842 1548.66 325.53 1548.8 324.077H1548.81Z" fill="#E43728"/>
<path d="M1894.9 335.564C1908.27 333.579 1922.23 331.397 1932.45 343.184C1937.08 348.527 1936.19 354.03 1929.4 355.456C1921.53 357.102 1914.01 354.642 1906.5 352.892C1899.98 351.378 1887.65 352.474 1883.23 346.966C1880.41 343.457 1881.38 340 1884.01 338.114C1886.73 336.166 1891.73 336.039 1894.9 335.569V335.564Z" fill="#CCEAFC"/>
<path d="M1768.66 378.295C1778.72 377.674 1790.27 379.442 1794.96 365.953C1797.08 359.876 1794.25 352.519 1789.08 352.411C1783.09 352.289 1778.26 356.103 1773.29 359.222C1768.97 361.926 1759.9 363.182 1757.98 369.381C1756.75 373.309 1758.2 376.479 1760.48 377.834C1762.77 379.188 1766.06 378.459 1768.67 378.295H1768.66Z" fill="#CCEAFC"/>
<path d="M1823.1 328.401C1822.43 338.551 1829.93 347.403 1840.06 348.4L1896.1 353.913C1915.29 355.178 1913.92 331.952 1904.01 328.89L1845.98 310.936C1836.24 308.524 1823.76 318.387 1823.1 328.406V328.401Z" fill="#834682"/>
<path d="M1909.01 343.268C1909.03 343.592 1908.99 343.921 1908.88 344.246C1908.41 345.676 1906.88 346.457 1905.45 345.991L1859.61 331.095C1858.19 330.629 1857.41 329.091 1857.87 327.671C1858.34 326.241 1859.87 325.46 1861.29 325.926L1907.13 340.817C1908.23 341.175 1908.95 342.172 1909.01 343.263V343.268Z" fill="#5D305D"/>
<path d="M1853.09 382.632C1852.97 373.323 1845.54 365.765 1836.24 365.468L1771.06 363.385C1757.25 363.14 1756.52 386.296 1769.49 389.381L1832.8 400.044C1843.51 401.85 1853.24 393.502 1853.09 382.632H1853.09Z" fill="#834682"/>
<path d="M1828.07 391.272C1828.09 391.531 1828.06 391.799 1828 392.062C1827.64 393.52 1826.16 394.409 1824.71 394.052L1764.8 379.25C1763.35 378.888 1762.46 377.401 1762.82 375.957C1763.18 374.499 1764.65 373.61 1766.11 373.968L1826.01 388.77C1827.2 389.061 1828.02 390.101 1828.08 391.267L1828.07 391.272Z" fill="#5D305D"/>
<path d="M1892.49 406.927C1891.81 412.27 1886.93 416.047 1881.59 415.365L1802.99 405.657C1797.66 404.975 1793.88 400.093 1794.56 394.754C1795.24 389.411 1800.12 385.634 1805.46 386.316L1884.06 396.024C1889.4 396.706 1893.17 401.588 1892.49 406.927Z" fill="#FF942D"/>
<path d="M1841.33 299.384C1826.15 298.142 1815.48 313.857 1812.33 357.986C1810.13 388.78 1814.01 411.681 1833.22 412.9C1843.47 413.549 1846.07 408.525 1853.22 400.812C1860.4 393.069 1873.82 383.531 1875.84 361.325C1876.94 349.218 1876.29 334.468 1863.68 325.512C1860.49 323.25 1858.21 319.976 1857.46 316.138C1855.34 305.395 1850.7 300.146 1841.34 299.379L1841.33 299.384Z" fill="#BC6E66"/>
<path d="M1857.97 401.164L1852.48 395.195L1820.39 407.072C1827.99 416.15 1849.38 434.39 1861.49 424.625L1872.42 415.181C1876.06 412.034 1876.79 406.672 1874.11 402.669C1871.54 398.812 1866.57 397.364 1862.33 399.236L1857.97 401.159V401.164Z" fill="#BC6E66"/>
<path d="M1806.23 273.906C1805.85 270.232 1806.44 266.516 1807.99 263.167L1810.6 257.523C1812.26 254.903 1815.35 253.572 1818.39 254.165L1825.33 255.519L1827.13 255.849C1829.33 256.253 1830.7 258.356 1830.08 260.505C1828.38 266.474 1824.57 272.527 1818.62 278.656L1818.58 278.647L1806.22 273.906H1806.23Z" fill="#FFCFC1"/>
<path d="M1803.74 277.305L1801.9 290.442C1799.69 306.246 1808.56 312.328 1827.15 330.869L1851.28 313.433C1854.91 310.813 1854.8 305.357 1851.08 302.855C1830.72 289.148 1827.09 287.869 1826.05 278.377L1825.7 275.221C1824.05 265.744 1804.87 266.684 1803.75 277.305H1803.74Z" fill="#BC6E66"/>
<path d="M1879.61 401.709L1875.7 405.481C1869.09 398.628 1858.39 394.165 1842.99 391.85C1828.06 389.607 1817.95 391.15 1811.16 396.709L1807.71 392.504C1818.31 383.831 1833.38 384.913 1843.79 386.479C1860.42 388.981 1872.14 393.962 1879.61 401.714L1879.61 401.709Z" fill="#FF942D"/>
<path d="M1848.14 340.729C1872.72 344.806 1876.23 383.832 1844.03 384.02L1848.14 340.729Z" fill="#FFCFC1"/>
<path d="M1843.05 386.207C1824.91 387.365 1810.63 380.069 1800.98 370.248C1768.57 380.516 1767.2 332.695 1791.56 326.646C1806.57 322.916 1813.17 335.221 1822.43 333.156C1831.23 331.19 1840.6 332.333 1847.41 338.25C1850.33 340.795 1852.6 343.424 1853.88 345.978C1868.76 352.85 1866.93 384.19 1843.05 386.203V386.207Z" fill="#5D305D"/>
<path d="M1876.12 411.667C1879.6 410.11 1884.98 404.786 1884.53 400.529C1884.16 397.02 1878.02 393.958 1874.22 392.98C1868.17 391.418 1866.88 395.19 1862.57 399.292C1856.37 405.129 1868.13 415.575 1876.12 411.667Z" fill="#FFCFC1"/>
<path d="M1857.96 320.328C1857.97 320.53 1857.96 320.737 1857.92 320.94C1857.66 322.417 1856.25 323.409 1854.78 323.146L1852.95 322.821C1841.71 320.831 1834.28 319.51 1823.35 323.748C1821.95 324.289 1820.38 323.597 1819.83 322.191C1819.28 320.794 1819.99 319.213 1821.38 318.677C1833.73 313.894 1842.2 315.394 1853.9 317.468L1855.72 317.788C1856.99 318.014 1857.9 319.086 1857.96 320.323V320.328Z" fill="#A85A52"/>
<path d="M1858.12 403.784C1858.17 404.645 1857.8 405.515 1857.07 406.08C1853.71 408.671 1848.78 414.424 1851.63 419.555C1852.36 420.868 1851.89 422.523 1850.57 423.252C1849.26 423.981 1847.61 423.506 1846.88 422.199C1842.83 414.88 1847.41 406.677 1853.75 401.781C1854.94 400.863 1856.64 401.08 1857.56 402.27C1857.91 402.726 1858.1 403.253 1858.12 403.789V403.784Z" fill="#A85A52"/>
<path d="M1234.51 197.967C1212.29 183.536 1194.28 185.86 1191.72 193.846C1189.17 201.833 1203.93 205.36 1211.68 207.04C1215.63 207.891 1222.19 209.598 1228.09 209.993C1239.44 210.751 1238.89 200.817 1234.51 197.967Z" fill="#BC6E66"/>
<path d="M1226.4 208.121C1218.65 206.978 1201.03 204.608 1203.34 195.492C1204.84 189.566 1220.78 192.157 1228.88 196.475C1238.26 201.621 1237.04 208.676 1226.4 208.121Z" fill="#FFCFC1"/>
<path d="M1154.36 246.629C1129.24 255.025 1112.2 247.72 1112 239.339C1111.86 233.563 1119.56 232.208 1128.38 233.111C1135.63 233.854 1155.74 234.442 1160.41 237.415C1163.69 243.981 1159.79 244.814 1154.36 246.629H1154.36Z" fill="#BC6E66"/>
<path d="M1166.41 250.547C1171.84 248.731 1176.82 239.907 1169.13 231.525L1149.21 234.696C1141.44 233.76 1123.81 231.403 1123.64 240.81C1123.52 246.925 1139.59 248.623 1148.53 246.586L1166.41 250.547Z" fill="#FFCFC1"/>
<path d="M1197.64 253.943C1183.85 262.96 1158.55 268.863 1143.77 259.122C1135.38 253.591 1129.05 241.606 1135.16 231.846C1138.98 225.755 1144.89 222.792 1147.42 215.233C1151.8 202.124 1153.22 187.078 1167.02 180.436C1176.57 175.846 1188.69 170.573 1199.36 171.081C1211.63 171.664 1230.24 180.77 1227.21 195.789C1225.99 201.823 1220.64 204.363 1218.83 209.612C1216.6 216.047 1219.9 224.965 1220.73 231.348C1222.58 245.595 1216.41 254.113 1197.64 253.948V253.943Z" fill="#E43728"/>
<path d="M1142.95 129.863C1140.13 132.925 1140.46 137.784 1143.47 140.663C1147.05 144.092 1151.76 147.121 1157.61 149.745L1157.64 149.722L1167.38 140.752C1166.38 137.196 1164.46 133.96 1161.78 131.42L1160.02 129.746C1156.72 126.613 1151.89 125.146 1147.63 126.75C1145.84 127.422 1144.22 128.49 1142.95 129.863Z" fill="#FFCFC1"/>
<path d="M1159.88 166.923C1158.9 159.044 1156.7 153.964 1151.81 144.585C1147.96 134.952 1157.42 131.42 1166.41 139.153C1175.49 146.006 1179.81 152.374 1182.35 158.39L1159.88 166.927V166.923Z" fill="#FFCFC1"/>
<path d="M1209.98 292.63C1211.37 296.054 1213.63 299.055 1216.58 301.284L1221.54 305.038C1224.23 306.571 1227.59 306.294 1229.99 304.342L1235.48 299.887L1236.91 298.749C1238.66 297.357 1238.89 294.859 1237.33 293.246C1233.03 288.778 1226.83 285.222 1218.69 282.611L1218.66 282.635L1209.98 292.63Z" fill="#FFCFC1"/>
<path d="M1189.46 279.407C1196.19 282.634 1200.16 286.481 1211.95 297.455C1219.75 304.289 1226.05 295.559 1221.75 284.511C1217.6 271.482 1213.23 267.117 1205.84 261.957L1189.46 279.407Z" fill="#FFCFC1"/>
<path d="M1205.84 261.958C1201.79 259.136 1196.83 256.074 1190.51 251.225L1168.51 271.629C1179 275.302 1184.86 277.207 1189.45 279.408C1202.18 287.545 1214.68 268.905 1205.84 261.958Z" fill="#ED594D"/>
<path d="M1176.71 272.805C1187.12 273.303 1202.64 258.417 1204.43 218.62C1205.68 190.85 1189.99 163.885 1179.99 164.28C1170.13 164.67 1165.76 168.88 1162.9 175.676C1161.52 178.964 1159.04 181.758 1155.91 183.47C1142.84 190.634 1147.94 202.553 1146.72 219.974C1146.06 229.494 1142.02 247.288 1151.83 253.29C1154.6 254.988 1156.55 257.8 1157.46 260.924C1159.95 269.432 1165.01 272.24 1176.71 272.8L1176.71 272.805Z" fill="#ED594D"/>
<path d="M1169.34 187.265C1155.95 198.699 1156.76 242.009 1165.09 251.835C1169.87 257.484 1178.08 256.294 1183.27 251.553C1190.82 244.657 1192.62 230.758 1192.1 217.899C1190.54 179.828 1174.87 182.538 1169.34 187.265Z" fill="#FFCFC1"/>
<path d="M1200.44 224.813C1196.85 240.114 1157.93 248.608 1149.04 230.175C1137.21 226.601 1139.28 195.143 1156.2 197.053C1170.22 185.449 1205.14 204.757 1200.44 224.813Z" fill="#834682"/>
<path d="M1202.97 237.956C1196.57 236.474 1192.59 230.087 1194.07 223.69C1195.56 217.293 1201.94 213.309 1208.33 214.795C1214.73 216.277 1218.71 222.664 1217.23 229.061C1215.74 235.458 1209.36 239.442 1202.97 237.956Z" fill="#834682"/>
<path d="M1182.35 158.385C1184.67 163.889 1185.5 169.1 1187.12 174.128L1160.64 191.79C1160.66 180.074 1160.6 172.736 1159.88 166.922C1158.06 153.141 1176.2 149.218 1182.35 158.385Z" fill="#ED594D"/>
<path d="M1149.41 228.332C1149.41 227.608 1149.7 226.883 1150.27 226.347C1152.72 224.052 1156.36 217.264 1157.9 214.169C1157.82 212.255 1157.36 206.131 1154.79 201.333C1154.08 200.007 1154.58 198.361 1155.9 197.651C1157.22 196.94 1158.87 197.444 1159.58 198.765C1163.31 205.727 1163.35 214.4 1163.35 214.767C1163.35 215.176 1163.26 215.581 1163.08 215.947C1162.55 217.039 1157.81 226.742 1153.98 230.317C1152.89 231.342 1151.17 231.286 1150.14 230.19C1149.65 229.663 1149.41 228.995 1149.41 228.332Z" fill="#5D305D"/>
<path d="M1196.28 231.187C1196.28 230.561 1196.5 229.931 1196.94 229.418C1199.05 226.953 1200.57 222.222 1200.07 219.663C1199.78 218.181 1200.73 216.756 1202.2 216.465C1203.68 216.173 1205.11 217.128 1205.4 218.6C1206.22 222.758 1204.29 229.206 1201.06 232.96C1200.08 234.098 1198.37 234.23 1197.23 233.252C1196.6 232.715 1196.28 231.953 1196.28 231.187Z" fill="#5D305D"/>
<path d="M1181.36 272.903C1189.56 270.815 1196.28 265.838 1200.9 258.609C1199.5 257.668 1198.01 256.643 1196.41 255.523C1193.19 260.674 1188.12 265.575 1180.03 267.635C1178.83 267.936 1178.03 268.99 1177.98 270.161C1177.97 270.415 1177.99 270.683 1178.06 270.942C1178.43 272.395 1179.91 273.279 1181.36 272.908V272.903Z" fill="#E43728"/>
</g>
<g clip-path="url(#clip2_1_1351)">
<path d="M312.881 515.874L205.412 502.261C199.577 501.523 193.874 504.671 191.577 510.084C186.914 521.081 184.864 534.795 186.787 547.947C187.656 553.883 192.337 558.54 198.286 559.295L305.769 572.909C310.445 573.501 315.055 571.017 316.916 566.688C322.339 554.08 324.253 538.93 322.154 524.803C321.456 520.097 317.61 516.471 312.886 515.87L312.881 515.874Z" fill="#ED594D"/>
<path d="M238.092 506.4C231.343 523.995 228.336 542.938 228.981 563.185L223.941 562.548C222.637 542.951 225.728 524.03 233.047 505.764L238.087 506.4H238.092Z" fill="#E43728"/>
<path d="M274.731 568.984L269.695 568.347C266.279 548.483 269.335 529.562 277.686 511.418L282.718 512.055C274.209 530.629 271.149 549.58 274.731 568.984Z" fill="#E43728"/>
<path d="M269.902 568.369C267.245 559.269 256.664 545.699 250.732 538.877C244.572 544.014 233.499 554.387 228.858 563.171L223.541 562.5C229.02 550.489 244.805 537.165 248.603 534.07C242.811 527.033 234.201 515.263 232.208 505.658L237.56 506.334C240.353 515.887 250.425 528.67 256.014 534.957C262.17 529.707 272.821 519.662 277.849 511.44L283.214 512.12C277.234 523.442 262.174 536.445 258.135 539.808C264.194 547.231 273.313 559.651 275.205 569.045L269.902 568.374V568.369Z" fill="#5199C5"/>
<path d="M365.995 508.762C378.319 513.292 391.342 521.809 403.78 512.779C409.119 508.902 409.414 501.452 403.535 498.722C396.729 495.561 389.366 496.211 382.165 496.211C375.922 496.211 364.932 492.607 359.743 496.676C356.709 499.055 356.586 502.071 358.131 504.31C359.795 506.72 363.211 507.739 365.995 508.762Z" fill="#BC6E66"/>
<path d="M232.744 449.809C242.21 451.008 253.454 449.612 257.243 462.685C258.916 468.453 255.913 475.17 251.083 475.012C245.49 474.828 241.183 471.035 236.695 467.883C232.805 465.148 224.415 463.532 222.922 457.658C222.066 454.287 223.216 451.605 225.078 450.275C227.273 448.703 230 449.462 232.748 449.809H232.744Z" fill="#BC6E66"/>
<path d="M366.513 492.857C384.471 492.628 382.051 514.209 372.651 516.571L337.557 517.757C334.343 517.866 331.125 517.844 327.911 517.691L280.839 515.474C271.631 517.239 263.07 510.254 262.951 500.881C262.833 491.386 270.27 483.506 279.754 483.08L366.513 492.857Z" fill="#FFB500"/>
<path d="M298.52 453.61C297.94 462.28 290.643 468.957 281.958 468.773L243.352 465.911C230.465 465.454 230.93 443.838 243.176 441.603L280.457 436.375C290.538 435.225 299.196 443.487 298.52 453.605V453.61Z" fill="#FFB500"/>
<path d="M285.251 528.332C270.995 529.069 255.97 514.315 255.966 465.867C255.966 432.064 264.391 412.032 283.649 410.724C302.906 409.416 304.078 416.787 304.886 465.489C305.466 500.398 303.393 527.392 285.251 528.336V528.332Z" fill="#2A5F8E"/>
<path d="M269.621 464.585C270.016 444.4 285.581 439.044 304.197 440.792C304.539 447.535 304.724 455.63 304.886 465.49C305.11 479.042 304.921 491.369 303.56 501.474C291.438 494.547 269.327 479.525 269.621 464.585Z" fill="#CCEAFC"/>
<path d="M369.362 411.111C372.721 409.627 376.409 409.048 380.053 409.491L386.187 410.242C389.168 411.01 391.377 413.525 391.746 416.585L392.584 423.557L392.821 425.361C393.111 427.565 391.544 429.505 389.322 429.58C383.158 429.795 376.273 428.043 368.66 424.281V424.246L369.362 411.111Z" fill="#FFB4A1"/>
<path d="M344.375 425.851C334.76 425.939 325.188 427.186 315.871 429.565L298.989 433.876L276.747 420.039C273.19 417.826 274.134 412.413 278.226 411.531L315.687 403.44C320.043 402.501 324.534 402.374 328.933 403.067L345.341 405.648L344.375 425.847V425.851Z" fill="#2A5F8E"/>
<path d="M345.341 405.654L354.865 407.151L354.904 425.76L344.375 425.853L345.341 405.654Z" fill="#CCEAFC"/>
<path d="M354.865 407.15L372.629 409.947L372.045 425.606L354.904 425.76L354.865 407.15Z" fill="#FFB4A1"/>
<path d="M250.35 522.428C247.847 524.803 246.008 527.788 245.077 531.111L243.505 536.7C243.088 539.562 244.475 542.389 246.991 543.811L252.73 547.064L254.209 547.925C256.014 548.974 258.266 548.315 259.136 546.419C261.555 541.151 262.53 534.553 262.025 526.589L261.994 526.576L250.35 522.428Z" fill="#FFB4A1"/>
<path d="M264.765 538.125C259.421 544.262 249.608 544.192 244.291 535.403C243.044 533.34 243.448 530.258 244.884 526.549L264.765 538.125Z" fill="#CCEAFC"/>
<path d="M244.884 526.55C246.403 522.616 249.085 517.976 252.185 513.081L260.198 502.436L290.744 527.055L274.573 532.2C270.885 533.372 267.315 535.207 264.773 538.126C259.272 543.412 241.516 536.015 244.892 526.55H244.884Z" fill="#2A5F8E"/>
<path d="M252.835 484.261C254.363 491.434 259.75 495.32 267.667 495.28C275.574 502.423 285.738 500.684 291.429 490.671C303.297 490.131 311.718 468.268 299.459 459.818C301.997 453.057 291.999 445.401 283.82 447.561C274.692 444.571 267.517 444.29 261.248 450.739C246.504 453.803 245.323 478.756 252.835 484.266V484.261Z" fill="#5D305D"/>
<path d="M318.203 518.129C320.271 519.753 321.746 522.089 322.15 524.81C324.249 538.937 322.339 554.087 316.912 566.695C315.81 569.259 313.729 571.156 311.257 572.17C305.773 553.047 308.829 534.763 318.203 518.129Z" fill="#FF942D"/>
<path d="M417.185 184.359C406.691 191.339 396.172 200.892 382.89 195C376.857 192.322 375.013 185.101 380.194 181.203C386.192 176.69 393.524 175.785 400.567 174.284C406.674 172.98 416.667 167.159 422.594 170.056C426.831 172.128 427.007 176.04 424.807 178.784C423.165 180.834 419.2 183.016 417.185 184.359Z" fill="#BC6E66"/>
<path d="M537.901 97.3661C528.764 100.79 516.738 101.365 515.728 115.405C515.298 121.393 519.636 127.337 524.33 126.173C529.761 124.825 533.181 120.216 536.913 116.195C540.149 112.709 548.017 109.373 548.25 103.319C548.566 95.0833 542.858 95.6277 537.901 97.3661Z" fill="#BC6E66"/>
<path d="M415.174 167.734C397.568 171.264 404.439 191.862 414.125 192.208L448.688 186.036C451.853 185.47 454.997 184.776 458.11 183.96L503.68 171.957C513.05 171.76 519.965 163.142 518.126 153.95C516.26 144.639 507.342 138.488 497.973 140.051L415.17 167.73L415.174 167.734Z" fill="#5D305D"/>
<path d="M473.468 115.155C475.848 123.509 484.375 128.518 492.831 126.525L529.989 115.659C542.498 112.521 537.523 91.4794 525.08 91.8526L487.532 94.5261C477.433 95.505 470.689 105.396 473.468 115.15V115.155Z" fill="#5D305D"/>
<path d="M521.225 92.1291L525.08 91.8526C537.523 91.4794 542.498 112.521 529.989 115.659L528.5 116.094C532.048 113.276 531.864 108.043 531.504 105.562C530.617 99.5043 526.81 93.2617 521.221 92.1247L521.225 92.1291Z" fill="#834682"/>
<path d="M537.071 182.312C540.017 184.108 542.436 186.65 544.043 189.701L546.748 194.837C547.754 197.55 546.99 200.601 544.825 202.524L539.89 206.901L538.625 208.051C537.08 209.456 534.744 209.28 533.493 207.608C530.029 202.963 527.697 196.712 526.525 188.818L526.551 188.801L537.071 182.312Z" fill="#FFCFC1"/>
<path d="M535.051 170.007L523.267 164.818L498.539 195.272L515.43 196.927C519.285 197.304 523.157 198.349 526.253 200.676C532.76 205.562 542.142 203.371 545.703 193.735C549.15 184.411 544.149 174.011 535.047 170.007H535.051Z" fill="#E43728"/>
<path d="M504.172 195.379C518.266 193.122 529.879 175.558 519.759 128.177C512.699 95.1159 500.273 77.2882 481.165 80.0319C462.062 82.7757 462.452 90.2299 471.835 138.024C478.562 172.283 486.232 198.25 504.168 195.379H504.172Z" fill="#ED594D"/>
<path d="M492.879 124.362C482.948 126.482 476.687 136.574 478.891 146.904C481.099 157.234 490.939 163.889 500.87 161.769C510.802 159.648 517.063 149.556 514.859 139.226C512.65 128.896 502.811 122.241 492.879 124.366V124.362Z" fill="#CCEAFC"/>
<path d="M396.014 89.3778C392.734 88.3111 389.23 88.1223 385.867 88.8862L380.203 90.1724C377.49 91.1734 375.667 93.7371 375.615 96.6301L375.496 103.224L375.448 104.936C375.386 107.021 377.037 108.685 379.123 108.545C384.905 108.158 391.171 105.862 397.932 101.622V101.591L396.018 89.3778H396.014Z" fill="#FFCFC1"/>
<path d="M411.065 103.58L423.925 103.773C433.54 103.918 443.103 105.222 452.407 107.654L469.262 112.066L490.381 88.3729C493.692 85.8135 492.208 80.5236 488.05 80.0582L449.961 75.8131C445.535 75.3215 441.053 75.6507 436.745 76.7833L408.443 84.2463L411.069 103.571L411.065 103.58Z" fill="#ED594D"/>
<path d="M408.439 84.2539L393.967 88.0688L396.259 103.359L411.064 103.579L408.439 84.2539Z" fill="#CCEAFC"/>
<path d="M508.997 140.515C509.002 147.851 504.545 152.772 496.796 154.388C490.557 163.023 480.252 163.449 472.595 154.844C460.876 156.793 448.073 137.175 458.295 126.349C454.4 120.264 462.575 110.69 471.027 111.094C479.33 106.26 486.285 104.487 493.762 109.487C508.822 109.404 515.188 133.557 508.997 140.515Z" fill="#FFB500"/>
<path d="M415.174 167.735L416.412 167.322C413.128 169.798 411.649 173.367 412.026 178.021C412.522 184.132 416.101 189.369 419.565 191.239L414.129 192.209C404.444 191.862 397.568 171.264 415.179 167.735H415.174Z" fill="#834682"/>
<path d="M214.641 154.884C227.945 154.397 243.343 149.743 252.69 162.329C256.624 167.628 254.67 174.823 248.247 175.666C240.805 176.641 233.977 173.822 227.106 171.663C221.148 169.792 209.583 169.942 205.851 164.502C203.327 160.819 204.78 157.492 207.713 156.043C209.482 155.169 212.424 154.963 214.641 154.88V154.884Z" fill="#ED594D"/>
<path d="M172.759 163.134C172.759 163.134 210.347 170.79 227.212 172.871C244.08 174.947 245.718 152.44 237.297 147.642C223.225 136.759 205.504 131.39 185.237 124.462C159.517 117.842 152.492 157.927 172.755 163.134H172.759Z" fill="#86C6EC"/>
<path d="M110.851 174.706C124.791 174.223 140.295 170.812 151.162 183.784C155.398 188.841 153.871 196.142 147.504 197.358C140.132 198.767 133.151 196.353 126.166 194.601C120.107 193.082 109.543 192.981 104.529 188.697C99.4707 184.372 102.772 174.75 110.851 174.706Z" fill="#ED594D"/>
<path d="M179.657 171.343C179.657 171.343 141.344 169.438 124.357 169.925C107.369 170.413 109.143 192.911 118.192 196.384C133.744 205.023 152.07 207.657 173.15 211.45C199.572 214.119 200.477 173.433 179.657 171.339V171.343Z" fill="#86C6EC"/>
<path d="M199.981 248.487C201.728 251.464 204.227 253.926 207.247 255.586L212.34 258.378C215.036 259.427 218.101 258.716 220.059 256.587L224.524 251.731L225.697 250.485C227.128 248.961 226.996 246.626 225.341 245.348C220.757 241.806 214.545 239.365 206.672 238.057L206.655 238.083L199.985 248.492L199.981 248.487Z" fill="#FFB4A1"/>
<path d="M199.502 254.137L193.742 251.771C186.168 248.663 179.731 243.307 175.297 236.428L168.729 226.243L194.923 197.041L198.589 211.08C200.319 217.705 203.406 223.903 207.647 229.277L215.655 239.413C221.425 247.197 209.46 258.984 199.507 254.137H199.502Z" fill="#CCEAFC"/>
<path d="M164.518 80.7985C164.518 77.348 163.604 73.9633 161.831 71.0001L158.849 66.0174C157.054 63.7478 154.05 62.8127 151.284 63.6644L144.979 65.6004L143.337 66.0833C141.335 66.6759 140.268 68.7612 141.045 70.6972C143.21 76.0705 147.342 81.3165 153.471 86.4221L153.502 86.4089L164.518 80.7985Z" fill="#FFB4A1"/>
<path d="M144.101 83.7576L143.632 89.965C143.012 98.126 144.909 106.283 149.067 113.333L155.227 123.772C171.236 130.458 183.503 125.976 193.083 113.469L182.177 103.894C177.031 99.3771 172.878 93.8414 169.975 87.6339L164.505 75.9302C160.136 67.2863 144.233 72.686 144.101 83.7532V83.7576Z" fill="#CCEAFC"/>
<path d="M198.396 209.949C200.314 200.177 200.727 186.072 201.395 166.615C202.299 140.161 201.179 118.536 190.014 110.709C183.815 123.62 171.012 126.627 154.56 122.597C139.513 146.426 144.018 207.978 169.391 226.886C172.337 218.496 187.129 218.439 198.396 209.949Z" fill="#FDD886"/>
<path d="M118.728 163.247C116.581 152.895 116.37 143.027 118.284 133.68C120.348 123.632 130.161 119.15 139.421 123.566L145.243 126.345C149.581 128.412 152.127 133 151.596 137.776L146.78 180.838L118.728 163.247Z" fill="#2A5F8E"/>
<path d="M146.644 149.446C146.916 146.878 147.276 144.393 147.724 141.987C168.079 138.374 185.211 132.773 198.874 125.318C199.493 127.601 199.985 130.077 200.376 132.711C185.843 140.284 167.798 145.881 146.644 149.45V149.446Z" fill="#5199C5"/>
<path d="M199.713 200.369C199.458 202.985 199.156 205.395 198.796 207.608C182.203 207.656 163.008 199.517 149.818 192.66C149.032 189.626 148.374 186.527 147.829 183.375C167.754 194.543 186.471 200.676 199.713 200.369Z" fill="#5199C5"/>
<path d="M119.308 174.574C117.305 164.912 117.046 155.68 118.706 146.926C120.497 137.47 130.591 132.136 139.28 136.28L151.89 142.299C148.22 158.818 147.17 173.038 152.808 192.16H141.089C130.6 192.16 121.437 184.842 119.308 174.574Z" fill="#5199C5"/>
<path d="M149.625 162.383C158.086 137.619 198.194 141.272 200.135 164.947C212.643 171.466 210.114 201.647 176.75 196.015C159.578 193.117 143.978 178.911 149.625 162.383Z" fill="#FF942D"/>
<path d="M127.623 160.596C125.388 160.148 122.991 159.222 120.673 158.331C116.155 156.588 111.479 154.784 107.273 156.25L108.941 161.039C111.391 160.183 115.013 161.584 118.846 163.063C121.362 164.033 123.966 165.039 126.631 165.57L127.623 160.596Z" fill="#FFB500"/>
<path d="M199.502 254.137L193.742 251.771C193.742 251.771 193.729 251.762 193.72 251.762C198.55 251.253 203.217 248.777 206.396 244.865C209.416 241.151 210.597 236.66 210 232.262L214.843 238.395C214.163 241.827 212.705 245.142 210.334 248.061C207.906 251.051 204.863 253.36 201.504 254.883C200.833 254.703 200.161 254.462 199.502 254.141V254.137Z" fill="#86C6EC"/>
<path d="M167.916 83.2365C166.265 81.7527 164.127 80.7737 161.554 80.5674C156.391 80.1635 149.137 82.7755 143.627 90.9453C143.645 90.6204 143.601 90.2956 143.627 89.9707L144.097 83.7589C144.101 83.2848 144.176 82.8326 144.237 82.376C150.125 76.9061 156.816 75.1062 161.949 75.5145C162.862 75.5847 163.697 75.8262 164.548 76.0281L167.916 83.2321V83.2365Z" fill="#86C6EC"/>
<path d="M218.536 184.56C220.683 172.387 212.556 160.78 200.38 158.629L175.881 154.309C163.706 152.162 152.097 160.288 149.945 172.461C147.798 184.635 155.925 196.242 168.1 198.393L192.6 202.713C204.775 204.859 216.384 196.734 218.536 184.56Z" fill="#E43728"/>
<path d="M178.335 154.739L175.881 154.305C163.706 152.158 152.097 160.284 149.945 172.457C147.798 184.631 155.925 196.238 168.1 198.389L170.555 198.824C182.73 200.97 194.339 192.845 196.49 180.671C198.637 168.498 190.51 156.891 178.335 154.739Z" fill="#ED594D"/>
<path d="M548.904 337.28C561.856 334.199 576.042 326.617 587.678 337.131C592.573 341.556 592.068 348.997 585.934 351.082C578.83 353.497 571.582 352.066 564.42 351.298C558.212 350.63 546.897 353.045 542.173 348.44C538.972 345.323 539.749 341.776 542.34 339.778C543.903 338.575 546.748 337.794 548.904 337.28Z" fill="#2A5F8E"/>
<path d="M511.9 332.376C510.592 343.707 519.522 353.602 530.933 353.483C542.604 353.361 556.329 353.08 564.759 352.452C581.707 351.187 578.901 328.79 569.707 325.739C558.867 320.352 546.871 317.802 533.625 315.831C522.995 314.25 513.138 321.704 511.904 332.376H511.9Z" fill="#5D305D"/>
<path d="M468.393 365.143C482.333 364.66 499.057 357.171 509.924 370.143C514.161 375.201 512.633 382.501 506.266 383.717C498.895 385.126 491.913 382.712 484.928 380.956C478.869 379.437 468.305 379.336 463.291 375.051C458.233 370.727 463.572 365.165 468.393 365.139V365.143Z" fill="#2A5F8E"/>
<path d="M538.419 357.703C538.419 357.703 500.106 355.798 483.119 356.285C466.132 356.772 467.906 379.271 476.955 382.743C492.506 391.383 510.833 394.017 531.912 397.814C558.335 400.483 559.239 359.797 538.419 357.703Z" fill="#5D305D"/>
<path d="M529.409 413.376L534.674 373.998C534.674 373.998 570.479 387.708 584.617 395.18C598.755 402.651 593.93 421.322 574.975 422.174C556.021 423.03 529.405 413.372 529.405 413.372L529.409 413.376Z" fill="#CCEAFC"/>
<path d="M519.948 267.04C515.979 266.457 512.304 269.235 511.785 273.213C511.285 277.05 511.333 281.334 511.944 286.071L511.974 286.08L523.864 289.46C526.209 286.931 527.846 283.828 528.562 280.452L529.765 274.771C530.301 267.971 525.019 267.782 519.948 267.032V267.04Z" fill="#FFB4A1"/>
<path d="M518.837 274.873C508.418 275.794 501.599 286.756 506.008 296.239C506.556 297.415 507.162 298.57 507.825 299.693L513.985 310.133L551.841 299.83L540.935 290.255C537.848 287.542 535.117 284.465 532.799 281.098C529.717 276.615 524.255 274.394 518.837 274.873Z" fill="#CCEAFC"/>
<path d="M538.151 293.911C521.576 293.695 503.904 308.235 503.259 354.282C502.806 386.412 513.643 414.108 536.026 414.692C558.409 415.276 558.576 399.283 560.161 352.969C561.298 319.772 559.244 294.183 538.155 293.911H538.151Z" fill="#CCEAFC"/>
<path d="M561.746 406.945C561.746 406.242 561.452 405.54 560.886 405.039L543.89 390.105C542.836 389.178 541.233 389.284 540.307 390.333C539.38 391.382 539.481 392.989 540.535 393.915L557.531 408.85C558.585 409.776 560.188 409.671 561.114 408.622C561.54 408.139 561.746 407.542 561.746 406.945Z" fill="#86C6EC"/>
<path d="M563.029 385.087C568.859 388.704 556.118 399.385 543.108 395.952C537.927 394.587 525.137 380.333 544.057 381.909L563.029 385.087Z" fill="#FFB4A1"/>
<path d="M564.644 382.295C564.978 379.986 563.375 377.839 561.066 377.505L533.769 373.55C531.46 373.216 529.313 374.819 528.979 377.128C528.645 379.437 530.248 381.583 532.557 381.917L559.854 385.872C562.163 386.206 564.31 384.604 564.644 382.295Z" fill="#5199C5"/>
<path d="M561.5 376.118L550.528 335.826C563.38 335.014 571.801 346.981 572.591 358.198C575.814 358.58 576.894 360.112 576.657 362.118C576.433 364.023 575.054 365.366 572.047 365.011C570.756 370.178 567.419 374.467 561.5 376.122V376.118Z" fill="#FFB4A1"/>
<path d="M561.575 337.948C556.205 334.085 549.598 332.144 543.025 332.877C529.941 334.344 518.389 342.131 518.073 355.512C517.454 381.676 555.955 385.465 565.307 374.53L564.952 373.09C563.691 367.975 564.043 362.598 565.957 357.694L566.787 355.565C569.272 349.191 567.129 341.943 561.575 337.948Z" fill="#BC6E66"/>
<path d="M557.755 312.201C558.172 313.799 558.524 315.489 558.831 317.254C540.575 324.155 523.249 318.917 510.964 313.368C511.728 311.77 512.536 310.287 513.384 308.908C525.177 314.229 541.062 318.852 557.76 312.201H557.755Z" fill="#86C6EC"/>
<path d="M641.682 442.042C629.208 437.779 615.944 429.381 603.624 438.705C598.36 442.687 598.215 450.141 604.147 452.753C611.014 455.778 618.359 454.983 625.56 454.838C631.803 454.715 642.863 458.105 647.97 453.93C651.811 450.791 650.815 446.695 647.684 444.605L641.678 442.042H641.682Z" fill="#5D305D"/>
<path d="M680.126 461.894C680.126 461.894 641.902 458.702 625.129 455.963C608.357 453.224 613.099 431.16 622.53 428.921C639.092 422.424 657.603 422.239 679.002 421.273C705.544 422.134 701.043 462.579 680.131 461.894H680.126Z" fill="#BC6E66"/>
<path d="M738.241 496.097C743.136 498.037 744.748 504.389 739.237 507.427C733.459 510.61 723.194 505.285 717.03 504.28C709.921 503.121 702.554 502.576 696.345 498.362C690.984 494.723 692.473 487.418 698.365 484.45C713.833 476.667 726.724 491.118 738.236 496.097H738.241Z" fill="#5D305D"/>
<path d="M677.136 461.736C677.136 461.736 713.069 475.161 728.476 482.334C743.883 489.511 733.341 509.464 723.655 509.073C705.952 510.847 688.082 506.009 667.222 501.145C641.902 493.133 657.19 455.414 677.136 461.736Z" fill="#BC6E66"/>
<path d="M656.624 551.182C655.583 554.47 653.695 557.424 651.113 559.716L646.771 563.57C644.374 565.195 641.23 565.182 638.846 563.54L633.415 559.795L631.996 558.838C630.262 557.67 629.871 555.361 631.202 553.75C634.886 549.277 640.4 545.519 647.785 542.494L647.812 542.516L656.628 551.182H656.624Z" fill="#FFCFC1"/>
<path d="M658.331 556.104L663.424 552.517C667.683 549.519 671.288 545.739 674.072 541.406C675.665 538.926 676.987 536.261 678.006 533.465L682.146 522.073L650.121 499.416L649.664 513.921C649.528 518.262 648.821 522.56 647.57 526.7C646.85 529.084 645.95 531.415 644.874 533.675L639.32 545.34C635.425 554.207 649.708 563.044 658.336 556.108L658.331 556.104Z" fill="#ED594D"/>
<path d="M708.911 390.42C710.312 387.268 712.516 384.537 715.335 382.549L720.077 379.199C722.636 377.851 725.762 378.211 727.949 380.108L732.932 384.432L734.236 385.538C735.83 386.89 735.962 389.23 734.465 390.683C730.307 394.722 724.41 397.843 716.735 400.03L716.713 400.008L708.911 390.42Z" fill="#FFCFC1"/>
<path d="M726.382 401.39L724.3 407.26C721.561 414.973 716.525 421.663 709.868 426.426L700.012 433.481L669.567 408.739L683.415 404.397C689.948 402.347 695.99 398.967 701.153 394.467L710.891 385.981C718.386 379.844 730.741 391.219 726.382 401.395V401.39Z" fill="#ED594D"/>
<path d="M672.368 408.634C688.925 409.051 706.189 423.652 705.601 467.842C705.188 498.672 693.623 524.832 671.253 524.551C648.883 524.27 649.146 508.927 648.804 464.448C648.562 432.564 651.298 408.103 672.368 408.629V408.634Z" fill="#ED594D"/>
<path d="M648.957 443.996L650.34 429.689L703.673 434.821L703.66 434.957C714.768 437.117 722.874 447.039 722.338 458.593L721.253 487.242C720.779 497.436 712.736 505.649 702.554 506.343L649.717 510.386L648.602 496.048L672.201 494.222C680.21 493.603 686.51 487.119 686.897 479.094L687.604 464.427C688.052 455.116 681.11 447.091 671.828 446.2L648.962 444.001L648.957 443.996Z" fill="#5D305D"/>
<path d="M693.636 470.218C697.026 448.053 659.455 436.174 646.999 450.661C632.897 451.122 631.742 484.99 654.621 488.792C671.802 491.646 690.998 487.488 693.636 470.222V470.218Z" fill="#834682"/>
<path d="M703.665 434.957C714.773 437.117 722.878 447.038 722.342 458.593L721.258 487.242C720.784 497.435 712.74 505.649 702.558 506.343C714.834 492.791 716.586 447.302 703.669 434.957H703.665Z" fill="#834682"/>
<path d="M289.352 309.197C298.7 308.196 309.558 309.359 313.373 296.58C315.09 290.825 312.144 284.082 307.31 284.205C301.716 284.345 297.374 288.103 292.864 291.22C288.952 293.924 280.549 295.474 279.008 301.334C278.033 305.048 279.513 307.946 281.699 309.109C283.886 310.277 286.933 309.456 289.352 309.197Z" fill="#CCEAFC"/>
<path d="M368.304 309.693C367.795 301.018 360.55 294.284 351.866 294.398L292.25 296.035C279.359 296.391 277.739 309.535 289.967 311.861L350.105 326.778C360.177 328.012 368.901 319.82 368.304 309.693Z" fill="#FFCFC1"/>
<path d="M403.666 264.108C414.458 262.005 425.725 259.722 434.453 268.919C438.409 273.085 437.891 277.589 432.425 278.994C426.094 280.618 419.894 278.893 413.73 277.752C408.382 276.76 398.398 278.103 394.604 273.792C392.189 271.048 392.848 268.204 394.916 266.579C397.054 264.898 401.111 264.613 403.666 264.112V264.108Z" fill="#CCEAFC"/>
<path d="M338.04 260.388C337.842 269.884 345.218 277.821 354.702 278.321L409.62 277.948C427.573 278.321 424.399 267.122 415.02 264.686L358.649 243.14C349.46 241.301 338.233 251.02 338.035 260.388H338.04Z" fill="#FFCFC1"/>
<path d="M401.866 304.965C404.668 298.257 401.339 291.246 404.009 284.525C407.921 274.674 417.624 264.472 413.875 253.392C408.755 238.255 394.082 245.845 387 244.497C379.474 243.062 379.017 238.659 375.812 233.694C363.115 214.035 335.361 229.444 307.068 241.732C293.826 247.483 284.176 259.116 294.691 272.918C314.37 298.745 279.864 292.243 288.575 313.328C292.777 323.5 311.116 330.335 322.664 332.165C335.221 334.159 347.633 331.415 359.646 328.702C370.908 326.16 399.017 311.8 401.871 304.965H401.866Z" fill="#5D305D"/>
<path d="M375.988 316.458C382.126 318.411 381.322 324.992 378.275 329.325C372.01 338.223 347.378 348.25 323.432 338.974C312.78 334.848 307.476 321.735 315.366 312.568C323.265 303.398 340.033 302.603 350.882 305.132C360.603 307.401 368.994 312.823 375.988 316.458Z" fill="#CCEAFC"/>
<path d="M353.828 232.566C339.611 232.043 330.325 247.149 329.236 288.428C328.477 317.231 333.056 338.426 351.031 338.751C360.621 338.922 362.829 334.132 369.178 326.639C375.553 319.119 387.68 309.663 388.628 288.872C389.146 277.537 387.917 263.809 375.773 255.995C372.703 254.02 370.442 251.061 369.577 247.518C367.149 237.588 362.601 232.891 353.833 232.57L353.828 232.566Z" fill="#5199C5"/>
<path d="M373.639 326.765L368.265 321.432L338.83 333.855C346.294 341.999 367.027 358.11 377.907 348.492L387.706 339.224C390.969 336.138 391.421 331.107 388.765 327.49C386.205 324 381.502 322.858 377.626 324.786L373.639 326.765Z" fill="#5199C5"/>
<path d="M320.012 210.287C319.498 206.876 319.893 203.39 321.202 200.198L323.406 194.825C324.842 192.314 327.674 190.94 330.536 191.366L337.061 192.336L338.755 192.569C340.823 192.854 342.193 194.755 341.71 196.787C340.371 202.424 337.074 208.228 331.774 214.194L331.744 214.185L320.012 210.282V210.287Z" fill="#FFCFC1"/>
<path d="M317.834 213.562L316.67 225.889C315.27 240.718 323.805 246.013 341.917 262.523L363.703 245.249C366.978 242.65 366.64 237.571 363.071 235.393C343.501 223.47 340.055 222.43 338.685 213.623L338.228 210.695C336.292 201.928 318.44 203.61 317.838 213.562H317.834Z" fill="#5199C5"/>
<path d="M369.534 249.993C369.441 249.054 368.827 248.202 367.878 247.855C366.566 247.372 365.108 248.048 364.621 249.365C363.374 252.768 359.795 255.643 354.812 257.259C348.582 259.278 341.644 258.777 337.548 256.016C336.384 255.235 334.808 255.542 334.022 256.701C333.241 257.864 333.548 259.44 334.707 260.226C340.112 263.865 348.617 264.599 356.371 262.083C362.851 259.985 367.593 255.985 369.38 251.113C369.516 250.744 369.56 250.362 369.525 249.997L369.534 249.993Z" fill="#2A5F8E"/>
<path d="M385.647 326.164C379.342 320.194 369.67 320.65 359.431 321.138C346.566 321.748 334.418 322.323 328.543 310.795L324.025 313.095C331.384 327.543 346.413 326.832 359.672 326.199C368.8 325.769 377.424 325.356 382.161 329.843L385.647 326.16V326.164Z" fill="#CCEAFC"/>
<path d="M361.92 270.828C385.024 273.594 389.937 309.833 359.914 311.365L361.92 270.828Z" fill="#FFCFC1"/>
<path d="M391.004 335.796C394.183 334.198 398.986 329.009 398.384 325.058C397.888 321.801 392.027 319.207 388.444 318.452C382.732 317.249 381.691 320.822 377.845 324.826C372.309 330.533 383.715 339.774 390.999 335.796H391.004Z" fill="#FFCFC1"/>
<path d="M372.401 301.229C377.669 299.029 384.045 282.176 367.365 276.057C363.808 271.307 360.766 259.563 345.974 261.42C331.182 263.277 331.533 264.704 323.138 258.58C314.739 252.456 304.447 261.938 298.331 257.632C295.459 255.608 292.346 253.782 288.843 255.955C291.53 263.124 286.494 274.502 296.509 281.825C304.179 287.435 300.052 300.733 310.045 301.804C322.312 303.121 318.198 306.931 328.911 313.674C335.875 318.06 347.853 314.263 352.88 315.141C358.078 316.049 376.765 324.417 372.405 301.229H372.401Z" fill="#ED594D"/>
<path d="M372.076 302.406C372.076 302.375 372.067 302.349 372.067 302.318C371.882 300.931 370.609 299.952 369.217 300.136C360.541 301.282 356.915 296.971 353.077 292.406C351.738 290.816 350.474 289.315 348.998 288.059C344.99 284.662 339.484 284.969 334.628 285.241C328.872 285.562 325.254 285.601 323.392 282.48C322.751 281.404 322.224 280.482 321.768 279.679C318.431 273.849 317.838 273.41 309.092 270.328C307.771 269.863 306.322 270.557 305.856 271.878C305.391 273.199 306.085 274.648 307.406 275.113C312.338 276.852 315.658 279.214 317.364 282.199C317.834 283.02 318.374 283.968 319.037 285.074C322.563 290.996 329.127 290.632 334.918 290.307C339.207 290.066 343.26 289.837 345.719 291.927C346.873 292.906 348.002 294.249 349.196 295.672C353.104 300.316 358.452 306.677 369.889 305.167C371.25 304.987 372.216 303.762 372.084 302.406H372.076Z" fill="#E43728"/>
<path d="M-24.9333 490.644C-14.4836 495.477 -3.98122 502.031 7.52661 495.025C12.4705 492.018 13.5286 487.347 8.58471 484.542C2.86373 481.297 -3.61683 481.337 -9.9086 480.828C-15.3661 480.384 -24.7138 476.451 -29.5347 479.638C-32.3535 481.504 -32.6784 484.129 -31.4841 486.192C-30.2021 488.418 -27.2867 489.55 -24.9289 490.639L-24.9333 490.644Z" fill="#BC6E66"/>
<path d="M-52.9104 404.705L-42.7242 405.833C-38.8429 406.264 -35.0845 407.401 -31.6203 409.2C-21.3067 414.556 -9.7813 420.566 -3.03291 424.096C0.181031 425.773 3.62329 426.844 7.07432 427.959C7.76804 428.183 8.44859 428.451 9.11158 428.767L14.0027 431.098C16.2683 432.564 17.4011 435.273 16.8566 437.915L15.6141 443.943L15.3111 445.51C14.9379 447.424 13.0982 448.601 11.2278 448.047C6.74501 446.717 1.11187 441.181 -3.4456 437.09C-26.9925 429.447 -34.1888 425.957 -49.7536 424.82L-52.9148 404.709L-52.9104 404.705Z" fill="#FFB4A1"/>
<path d="M-0.236009 491.004C-2.73428 497.966 -14.7382 493.159 -22.9531 491.991C-23.9234 491.421 -24.8938 490.846 -25.8641 490.292C-28.1209 489.002 -30.9265 487.628 -32.0154 485.301C-33.0252 483.141 -32.4807 480.555 -29.5127 478.936C-25.4777 476.736 -19.0059 479.247 -13.7987 480.832C-8.00303 483.457 1.81441 485.275 -0.240404 491.004H-0.236009Z" fill="#FFB4A1"/>
<path d="M48.8776 313.126C36.3906 311.273 23.3461 309.236 13.8096 320.237C9.48488 325.224 10.3147 330.361 16.6592 331.691C24.0047 333.227 31.0253 330.931 38.0415 329.298C44.1269 327.885 55.6479 328.908 59.7751 323.767C62.4051 320.492 61.5006 317.265 59.0419 315.505C56.5041 313.687 51.8368 313.569 48.8776 313.13V313.126Z" fill="#CCEAFC"/>
<path d="M166.761 353.008C157.374 352.429 146.582 354.08 142.2 341.489C140.224 335.817 142.868 328.951 147.697 328.85C153.291 328.736 157.796 332.296 162.445 335.207C166.476 337.731 174.941 338.903 176.741 344.689C177.883 348.355 176.535 351.314 174.401 352.578C172.267 353.843 169.189 353.162 166.757 353.008H166.761Z" fill="#CCEAFC"/>
<path d="M115.927 306.44C116.55 315.914 109.543 324.176 100.09 325.107L47.7535 330.252C29.8353 331.433 31.1086 309.755 40.3684 306.897L94.5575 290.14C103.655 287.888 115.312 297.094 115.927 306.445V306.44Z" fill="#834682"/>
<path d="M35.6925 320.317C35.675 320.62 35.7145 320.928 35.8155 321.231C36.2501 322.565 37.6815 323.294 39.0119 322.859L81.8204 308.956C83.1551 308.522 83.8841 307.086 83.4494 305.76C83.0147 304.426 81.5834 303.697 80.253 304.132L37.4444 318.03C36.417 318.364 35.7452 319.295 35.6925 320.313V320.317Z" fill="#5D305D"/>
<path d="M87.9146 357.057C88.0331 348.37 94.9659 341.315 103.651 341.038L164.527 339.094C177.422 338.865 178.098 360.477 165.989 363.357L106.869 373.309C96.8626 374.995 87.7784 367.203 87.9189 357.057H87.9146Z" fill="#834682"/>
<path d="M111.281 365.121C111.268 365.362 111.29 365.613 111.352 365.859C111.685 367.219 113.064 368.049 114.425 367.715L170.366 353.9C171.727 353.562 172.553 352.175 172.219 350.827C171.885 349.466 170.507 348.637 169.146 348.97L113.205 362.786C112.094 363.058 111.334 364.028 111.277 365.117L111.281 365.121Z" fill="#5D305D"/>
<path d="M51.1168 379.731C51.7534 384.718 56.3108 388.243 61.2942 387.607L134.697 378.546C139.68 377.909 143.21 373.352 142.574 368.37C141.937 363.383 137.379 359.858 132.396 360.494L58.9935 369.555C54.0058 370.192 50.4801 374.748 51.1168 379.731Z" fill="#FF942D"/>
<path d="M98.8999 279.358C113.077 278.199 123.04 292.866 125.981 334.053C128.036 362.794 124.418 384.169 106.474 385.306C96.9022 385.912 94.4786 381.223 87.8004 374.024C81.0959 366.798 68.5564 357.895 66.6684 337.17C65.641 325.87 66.2512 312.103 78.0313 303.744C81.0081 301.633 83.1332 298.577 83.8401 294.995C85.8158 284.968 90.1494 280.069 98.8955 279.354L98.8999 279.358Z" fill="#BC6E66"/>
<path d="M83.3528 374.354L88.481 368.783L118.447 379.868C111.356 388.341 91.3744 405.365 80.0685 396.251L69.8647 387.436C66.4663 384.499 65.7859 379.495 68.2797 375.759C70.6814 372.159 75.3267 370.807 79.2827 372.554L83.3528 374.35V374.354Z" fill="#BC6E66"/>
<path d="M131.68 255.578C132.036 252.15 131.487 248.682 130.038 245.556L127.597 240.288C126.051 237.843 123.158 236.6 120.322 237.153L113.846 238.418L112.164 238.725C110.109 239.103 108.827 241.065 109.402 243.071C110.992 248.642 114.548 254.292 120.111 260.012L120.142 260.003L131.685 255.578H131.68Z" fill="#FFCFC1"/>
<path d="M134.003 258.752L135.72 271.013C137.788 285.763 129.503 291.439 112.146 308.745L89.605 292.471C86.2154 290.026 86.3252 284.934 89.7938 282.598C108.805 269.806 112.204 268.612 113.174 259.753L113.499 256.807C115.035 247.961 132.949 248.839 133.999 258.752H134.003Z" fill="#BC6E66"/>
<path d="M63.1514 374.863L66.7999 378.383C72.9775 371.987 82.9706 367.821 97.3543 365.661C111.29 363.567 120.739 365.007 127.079 370.196L130.293 366.271C120.401 358.176 106.329 359.186 96.6035 360.648C81.0739 362.983 70.1325 367.632 63.1558 374.867L63.1514 374.863Z" fill="#FF942D"/>
<path d="M92.5423 317.945C69.5881 321.751 66.3083 358.175 96.3753 358.351L92.5423 317.945Z" fill="#FFCFC1"/>
<path d="M97.2929 360.392C114.232 361.472 127.566 354.663 136.576 345.501C166.845 355.085 168.127 310.452 145.379 304.806C131.355 301.325 125.195 312.809 116.55 310.882C108.327 309.047 99.576 310.114 93.2184 315.636C90.4875 318.011 88.3712 320.465 87.1769 322.849C73.2762 329.263 74.9886 358.513 97.2929 360.392Z" fill="#5D305D"/>
<path d="M66.4137 384.157C63.1646 382.704 58.1329 377.734 58.5544 373.761C58.9057 370.486 64.6399 367.628 68.1875 366.715C73.8383 365.258 75.0369 368.779 79.0631 372.607C84.8543 378.059 73.8734 387.805 66.4137 384.157Z" fill="#FFCFC1"/>
<path d="M83.3701 298.907C83.3613 299.095 83.3701 299.289 83.4053 299.477C83.6467 300.856 84.9639 301.782 86.3426 301.536L88.0462 301.233C98.5442 299.376 105.481 298.143 115.694 302.098C117.002 302.603 118.469 301.958 118.978 300.645C119.492 299.341 118.833 297.866 117.529 297.366C105.995 292.901 98.0919 294.302 87.1637 296.238L85.4644 296.536C84.279 296.747 83.4272 297.748 83.3701 298.902V298.907Z" fill="#A85A52"/>
<path d="M83.2166 376.798C83.1771 377.602 83.5152 378.414 84.2001 378.941C87.335 381.36 91.9408 386.729 89.2801 391.518C88.6039 392.743 89.043 394.288 90.268 394.969C91.493 395.649 93.0384 395.206 93.7189 393.985C97.5037 387.154 93.2273 379.498 87.3043 374.928C86.1935 374.072 84.5996 374.274 83.7435 375.385C83.4186 375.811 83.243 376.302 83.2166 376.803V376.798Z" fill="#A85A52"/>
<path d="M665.593 184.701C686.339 171.233 703.164 173.402 705.548 180.856C707.932 188.31 694.146 191.602 686.91 193.17C683.226 193.964 677.097 195.558 671.587 195.927C660.983 196.633 661.497 187.362 665.593 184.701Z" fill="#BC6E66"/>
<path d="M673.163 194.179C680.399 193.113 696.855 190.9 694.703 182.392C693.303 176.861 678.41 179.28 670.853 183.31C662.085 188.112 663.227 194.697 673.163 194.179Z" fill="#FFCFC1"/>
<path d="M740.44 230.121C763.9 237.962 779.816 231.144 779.996 223.317C780.123 217.926 772.935 216.661 764.694 217.504C757.928 218.198 739.145 218.747 734.785 221.521C731.721 227.65 735.365 228.427 740.44 230.121Z" fill="#BC6E66"/>
<path d="M729.187 233.777C724.116 232.082 719.466 223.846 726.65 216.023L745.248 218.982C752.51 218.109 768.971 215.909 769.133 224.689C769.239 230.396 754.231 231.981 745.885 230.08L729.187 233.777Z" fill="#FFCFC1"/>
<path d="M700.02 236.946C712.898 245.362 736.533 250.871 750.333 241.78C758.17 236.617 764.08 225.431 758.372 216.322C754.807 210.637 749.288 207.871 746.925 200.817C742.833 188.582 741.507 174.538 728.617 168.34C719.704 164.055 708.38 159.134 698.418 159.608C686.963 160.152 669.576 168.651 672.408 182.669C673.545 188.301 678.541 190.671 680.236 195.571C682.317 201.576 679.235 209.9 678.462 215.857C676.733 229.154 682.497 237.104 700.02 236.951V236.946Z" fill="#E43728"/>
<path d="M751.088 121.139C753.726 123.997 753.419 128.532 750.609 131.219C747.259 134.419 742.864 137.246 737.398 139.696L737.371 139.674L728.278 131.302C729.214 127.983 731 124.963 733.503 122.592L735.15 121.03C738.232 118.106 742.741 116.736 746.719 118.233C748.387 118.861 749.907 119.857 751.088 121.139Z" fill="#FFCFC1"/>
<path d="M735.29 155.727C736.204 148.374 738.259 143.633 742.82 134.879C746.421 125.889 737.582 122.592 729.188 129.809C720.705 136.205 716.674 142.149 714.303 147.764L735.29 155.732V155.727Z" fill="#FFCFC1"/>
<path d="M688.495 273.054C687.2 276.25 685.088 279.051 682.335 281.131L677.703 284.635C675.187 286.066 672.052 285.807 669.809 283.985L664.685 279.828L663.346 278.765C661.708 277.466 661.501 275.135 662.95 273.629C666.972 269.458 672.763 266.14 680.364 263.703L680.385 263.725L688.495 273.054Z" fill="#FFCFC1"/>
<path d="M707.665 260.715C701.377 263.726 697.667 267.317 686.664 277.559C679.376 283.938 673.488 275.79 677.51 265.478C681.382 253.317 685.461 249.244 692.363 244.428L707.665 260.715Z" fill="#FFCFC1"/>
<path d="M692.363 244.428C696.143 241.794 700.771 238.936 706.677 234.41L727.22 253.454C717.429 256.883 711.95 258.66 707.664 260.715C695.779 268.31 684.104 250.912 692.363 244.428Z" fill="#ED594D"/>
<path d="M719.567 254.55C709.847 255.015 695.353 241.121 693.68 203.977C692.512 178.059 707.164 152.891 716.507 153.26C725.714 153.624 729.798 157.553 732.463 163.897C733.754 166.965 736.072 169.573 738.992 171.171C751.202 177.857 746.438 188.981 747.575 205.242C748.194 214.127 751.966 230.734 742.807 236.336C740.217 237.921 738.394 240.546 737.543 243.461C735.22 251.402 730.5 254.023 719.572 254.546L719.567 254.55Z" fill="#ED594D"/>
<path d="M726.452 174.714C738.952 185.386 738.197 225.809 730.421 234.98C725.956 240.252 718.294 239.141 713.447 234.716C706.396 228.281 704.71 215.308 705.201 203.306C706.655 167.773 721.284 170.302 726.452 174.714Z" fill="#FFCFC1"/>
<path d="M697.412 209.76C700.762 224.041 737.108 231.969 745.411 214.765C756.462 211.429 754.521 182.068 738.719 183.851C725.631 173.021 693.017 191.042 697.412 209.76Z" fill="#834682"/>
<path d="M695.046 222.026C701.017 220.643 704.736 214.681 703.348 208.711C701.965 202.741 696.003 199.022 690.032 200.409C684.06 201.792 680.342 207.754 681.729 213.724C683.112 219.695 689.075 223.413 695.046 222.026Z" fill="#834682"/>
<path d="M714.303 147.76C712.139 152.896 711.361 157.76 709.847 162.453L734.575 178.937C734.557 168.002 734.614 161.154 735.29 155.727C736.99 142.865 720.046 139.204 714.303 147.76Z" fill="#ED594D"/>
<path d="M745.059 213.042C745.059 212.366 744.792 211.69 744.256 211.19C741.968 209.047 738.57 202.713 737.134 199.824C737.209 198.037 737.635 192.322 740.037 187.844C740.695 186.606 740.23 185.069 738.996 184.406C737.762 183.744 736.221 184.213 735.563 185.447C732.081 191.944 732.041 200.039 732.041 200.382C732.041 200.764 732.129 201.141 732.296 201.483C732.788 202.502 737.218 211.558 740.787 214.895C741.81 215.852 743.417 215.799 744.374 214.776C744.831 214.285 745.059 213.661 745.059 213.042Z" fill="#5D305D"/>
<path d="M701.289 215.708C701.289 215.124 701.087 214.535 700.679 214.057C698.703 211.757 697.285 207.34 697.755 204.952C698.027 203.569 697.136 202.239 695.761 201.967C694.387 201.695 693.048 202.586 692.776 203.96C692.012 207.841 693.816 213.859 696.828 217.363C697.742 218.425 699.344 218.548 700.407 217.635C700.991 217.134 701.289 216.423 701.289 215.708Z" fill="#5D305D"/>
<path d="M715.225 254.643C707.568 252.694 701.294 248.049 696.978 241.302C698.286 240.424 699.682 239.467 701.175 238.422C704.183 243.229 708.911 247.803 716.472 249.726C717.587 250.007 718.338 250.99 718.382 252.083C718.391 252.321 718.373 252.571 718.307 252.812C717.96 254.169 716.582 254.994 715.225 254.647V254.643Z" fill="#E43728"/>
</g>
</g>
<defs>
<clipPath id="clip0_1_1351">
<rect width="1923" height="802" fill="white" transform="translate(-2)"/>
</clipPath>
<clipPath id="clip1_1_1351">
<rect width="1739" height="585" fill="white" transform="translate(1112 29)"/>
</clipPath>
<clipPath id="clip2_1_1351">
<rect width="1624" height="546" fill="white" transform="translate(-844 27)"/>
</clipPath>
</defs>
</svg>
