<svg width="1920" height="524" viewBox="0 0 1920 524" fill="none" xmlns="http://www.w3.org/2000/svg">
<g style="mix-blend-mode:multiply" opacity="0.5">
<path d="M-91 262.273L955.151 262.273V233.629L-91 233.629V262.273Z" fill="#868686"/>
<path d="M-91 378.273L955.151 378.273V363.181L-91 363.181V378.273Z" fill="#868686"/>
<path d="M-91 320.27L955.151 320.27V305.177L-91 305.177V320.27Z" fill="#868686"/>
<path d="M2061.98 233.627H955.151V262.272H2061.98V233.627Z" fill="#868686"/>
<path d="M2061.98 363.188H955.151V378.28H2061.98V363.188Z" fill="#868686"/>
<path d="M2061.98 305.191H955.151V320.284H2061.98V305.191Z" fill="#868686"/>
<path d="M276.117 432.844V252.312H254.045L254.045 432.844H276.117Z" fill="#868686"/>
<path d="M621.143 432.844V252.312H599.072V432.844H621.143Z" fill="#868686"/>
<path d="M966.187 432.828V252.297H944.116V432.828H966.187Z" fill="#868686"/>
<path d="M1716.94 432.844V252.312H1694.87V432.844H1716.94Z" fill="#868686"/>
<path d="M1371.91 432.844V252.312H1349.84V432.844H1371.91Z" fill="#868686"/>
<path fill-rule="evenodd" clip-rule="evenodd" d="M480.261 63.0781C480.967 63.5812 489.145 76.3385 490.428 82.2656C491.711 88.1864 491.231 94.7778 491.231 94.7778L486.099 91.4305C486.099 91.4305 484.272 83.2653 482.827 81.4272C481.388 79.5891 479.295 76.1708 479.295 74.165C479.295 72.1591 480.254 63.0781 480.254 63.0781H480.261Z" fill="#1A171B"/>
<path d="M480.902 61.8125H462.003V89.32H480.902V61.8125Z" fill="#EAAE79"/>
<path fill-rule="evenodd" clip-rule="evenodd" d="M464.185 24.7832L455.327 34.8897C455.327 34.8897 451.303 58.8306 457.355 64.4224C459.85 66.7249 459.091 68.9306 463.938 68.5178L464.178 24.7832H464.185Z" fill="#F4C18B"/>
<path fill-rule="evenodd" clip-rule="evenodd" d="M463.946 68.5204C466.407 68.3076 468.842 68.8171 473.829 68.056C482.819 66.6887 481.899 65.7664 484.282 61.6258C489.962 51.7773 482.689 29.1715 482.689 29.1715L463.765 24.7793L463.94 68.5139L463.946 68.5204Z" fill="#FFD9B3"/>
<path fill-rule="evenodd" clip-rule="evenodd" d="M484.969 54.7682C484.969 56.271 483.732 47.0868 483.57 44.8294C483.408 42.5785 481.491 44.7198 480.843 40.3212C480.202 35.9225 478.007 33.117 472.489 31.2401C466.977 29.3633 464.088 29.4407 463.927 27.8605C463.765 26.2804 463.195 26.5448 462.806 28.0476C462.424 29.5503 456.764 32.0721 456.446 34.4069C456.122 36.7352 454.03 47.7769 454.03 49.6602C454.03 51.5434 453.299 42.256 453.299 37.2963C453.299 32.3366 455.786 24.6938 460.96 22.2236C465.461 20.0759 474.924 20.2178 479.794 23.4103C484.671 26.6029 487.378 32.7493 488.175 39.7729C488.978 46.7965 485.798 53.1881 485.798 53.1881C485.798 53.1881 484.975 53.2655 484.975 54.7682H484.969Z" fill="#1A171B"/>
<path fill-rule="evenodd" clip-rule="evenodd" d="M481.517 46.8018C482.269 42.5706 485.088 39.4875 487.109 39.8422C489.125 40.197 488.891 41.8805 488.827 48.0854C488.781 52.3812 486.5 55.3546 483.818 55.1095C479.651 54.729 480.772 51.0331 481.524 46.8018H481.517Z" fill="#FFD9B3"/>
<path fill-rule="evenodd" clip-rule="evenodd" d="M485.824 42.9645C485.993 42.9258 486.155 42.9194 486.31 42.9452C487.502 43.158 487.185 44.1062 487.321 47.815C487.386 49.4984 486.738 50.8336 485.87 51.5044L485.759 51.3819C486.232 50.9045 486.576 50.0983 486.537 49.1114C486.446 46.6798 486.654 46.0541 485.87 45.9186C485.675 45.8864 485.461 45.9315 485.247 46.0541L485.824 42.9645Z" fill="#C99443"/>
<path fill-rule="evenodd" clip-rule="evenodd" d="M903.864 17.0176C903.864 17.0176 903.825 17.1595 903.779 17.2175C903.346 17.7915 900.522 24.2798 900.476 25.5762C900.431 26.8725 900.159 27.8722 900.599 28.8784C901.033 29.8845 901.454 31.3808 900.34 32.9287C899.22 34.4702 898.294 35.8568 897.802 36.3083C897.309 36.7598 897.296 38.6495 898.242 38.7978C899.181 38.9462 899.434 39.3267 899.421 39.733C899.408 40.1329 899.33 41.1197 899.129 41.6485C898.929 42.1839 898.378 42.5192 898.812 43.0739C899.246 43.6286 899.46 43.8221 899.265 44.3574C899.065 44.8927 898.359 45.7634 899.019 46.2342C899.68 46.705 900.91 47.479 901.046 48.7366C901.182 49.9943 901.15 50.936 901.085 51.3874C901.027 51.8324 901.435 53.2836 903.598 53.2707C905.761 53.2578 909.427 53.5222 910.515 53.4448C911.603 53.361 913.423 55.5861 913.319 58.4239C913.222 61.2682 910.806 65.4991 909.757 66.731L907.607 71.0393C907.607 71.0393 931.972 77.0826 932.153 77.0439C937.036 75.4702 940.385 64.6929 940.385 64.6929C937.14 64.1834 931.084 52.471 930.923 50.9295C930.845 50.22 931.143 49.6912 931.551 49.3881L932.237 23.938L903.87 17.0176H903.864Z" fill="#C17B00"/>
<path fill-rule="evenodd" clip-rule="evenodd" d="M901.085 51.6367C901.215 52.2237 901.739 53.2879 903.592 53.275C905.755 53.2621 909.421 53.5266 910.509 53.4492C911.441 53.3782 912.905 54.9972 913.242 57.2483C913.242 57.2483 916.415 54.0361 919.919 52.8493C923.416 51.6625 920.042 52.4623 915.8 52.314C911.558 52.1656 901.092 51.6367 901.092 51.6367H901.085Z" fill="#7B5600"/>
<path d="M930.987 51.7357L930.909 50.9295C930.832 50.2201 931.129 49.6912 931.537 49.3881L932.224 23.938L903.857 17.0176C903.857 17.0176 903.818 17.1595 903.773 17.2175C903.65 17.3852 903.365 18.0366 902.918 18.9138C903.021 19.1395 902.982 19.3588 902.918 19.5329C903.902 21.4613 905.139 23.5768 906.583 24.5184C909.556 26.4662 916.797 31.426 918.811 31.8323C920.825 32.2386 921.842 30.1038 923.578 28.8203C925.314 27.5304 930.119 32.0516 927.626 35.6633C925.132 39.2816 930.598 51.8969 930.598 51.8969C930.734 51.8002 930.844 51.7744 930.987 51.7293V51.7357Z" fill="#7B5600"/>
<path d="M931.538 49.3896C932.101 48.9703 932.865 48.9832 933.124 49.5573C933.565 50.544 936.492 49.2025 936.55 47.545C936.609 45.8874 938.338 44.0235 939.549 43.5914C940.754 43.1593 943.189 42.2757 943.273 39.9087C943.357 37.5417 943.467 33.7235 945.851 34.2846C948.234 34.8393 945.177 33.0528 945.287 29.9699C945.391 26.8934 947.515 21.4629 947.515 21.4629C947.515 21.4629 942.36 18.4638 943.344 17.5222C944.329 16.5805 945.507 16.1548 946.246 16.1742C946.984 16.2 945.099 14.8262 944.769 14.1103C944.439 13.3944 941.298 11.8659 941.298 11.8659C941.298 11.8659 942.075 10.1309 942.599 10.3244C943.124 10.5179 939.141 7.3834 937.191 7.49305C935.242 7.60269 932.982 6.28052 932.483 5.38403C931.984 4.48754 928.617 4.37144 927.93 3.81678C927.244 3.26212 924.187 4.40369 922.827 2.75905C921.473 1.1144 917.192 1.50783 918.066 2.06249C918.941 2.62361 916.473 2.53331 914.161 2.45592C911.855 2.37852 908.967 4.03607 909.841 4.24245C910.715 4.44884 906.797 5.0164 905.722 5.33243C904.712 5.62911 903.637 7.3447 902.931 7.3705C902.808 7.33181 902.717 7.31891 902.711 7.32536C902.847 7.3705 902.885 7.37695 902.931 7.3705C903.481 7.53819 904.738 8.14445 902.218 9.09899C898.805 10.3889 898.695 13.5621 898.695 13.5621C898.695 13.5621 901.383 12.7753 900.47 13.6266C899.556 14.4779 898.384 17.6124 899.297 16.7676C900.211 15.9162 902.011 15.0907 902.717 15.1165C903.352 15.1358 904.084 16.3548 903.85 17.0126C904.835 18.9411 906.072 21.0565 907.516 21.9982C910.489 23.9395 917.73 28.9057 919.744 29.312C921.758 29.7183 922.775 27.5835 924.51 26.2936C926.246 25.0101 931.052 29.5248 928.558 33.1431C926.065 36.7548 931.531 49.3767 931.531 49.3767L931.538 49.3896Z" fill="#1A171B"/>
<path d="M979.457 58.6467L977.67 52.4486C977.67 52.4486 980.532 51.952 981.044 52.5389C981.562 53.1194 984.179 58.0533 983.259 56.9053C982.339 55.7572 983.291 55.3058 985.506 57.5502C987.715 59.7882 987.961 59.0981 986.076 56.4151C984.198 53.7321 985.228 50.6943 985.338 50.101C985.442 49.5011 986.478 52.0358 987.158 53.1387C987.838 54.2416 990.17 55.7701 989.081 54.2158C987.993 52.6679 987.223 49.9333 987.786 50.2815C988.35 50.6298 991.957 51.9971 992.527 52.971C993.103 53.9385 995.707 56.7376 996.782 57.6728C997.857 58.608 1001.51 61.8328 1001.78 63.1227C1002.04 64.4126 1002.75 66.7473 1003.34 67.6051C1003.93 68.4565 1006.13 70.0753 1007.55 71.1911C1008.96 72.3004 1008.85 70.8041 1007.92 69.7722C1006.99 68.7403 1007.77 68.5081 1010.43 69.5981C1013.1 70.6816 1012.97 69.9141 1010.8 68.1791C1008.63 66.4378 1010.89 67.7019 1012.18 67.431C1013.47 67.1601 1012.31 66.7086 1010.73 65.8186C1009.15 64.9221 1009.15 62.8195 1009.24 62.3423C1009.32 61.865 1009.98 62.3423 1010.42 62.6712C1010.86 62.9937 1010.35 61.6651 1009.85 60.3364C1009.33 59.0143 1009.37 57.4148 1009.37 57.4148L1010.43 57.7244C1010.43 57.7244 1009.98 56.7763 1009.63 55.9701C1009.28 55.1639 1009.77 54.506 1010.7 55.538C1011.63 56.5763 1012.9 56.4216 1011.75 55.2284C1010.6 54.0417 1010.89 53.1 1011.47 53.3257C1012.05 53.5515 1011.04 52.2551 1009.86 51.1845C1008.69 50.1138 1007.18 46.6375 1006.25 45.6056C1005.32 44.5737 1003.96 43.1032 1004.59 43.0903C1005.21 43.0774 1006.45 41.6907 1005.83 38.8593C1005.21 36.028 1003.27 31.61 1000.87 30.4426C998.466 29.2817 995.014 28.4239 994.768 27.0179C994.522 25.6183 993.375 25.0443 992.475 24.5154C991.575 23.9866 989.82 23.4319 989.094 23.3029C988.369 23.1739 987.663 22.6193 987.145 22.1871C986.633 21.7615 985.662 21.9163 985.15 21.4841C984.639 21.052 982.696 18.1239 982.378 17.2597C982.061 16.3954 979.535 12.0935 976.478 10.1458C973.421 8.20443 963.473 4.59266 956.699 7.72716C949.924 10.8617 948.396 13.5124 948.163 14.1767C947.93 14.8411 947.567 15.4667 946.738 16.26C945.903 17.0533 943.461 21.5357 942.988 24.8444C942.522 28.153 942.742 28.8947 942.438 29.3075C942.127 29.7203 942.25 31.0231 942.535 31.4229C942.82 31.8228 943.059 34.8283 942.962 35.3959C942.859 35.9635 940.579 39.1367 940.08 39.988C939.575 40.8393 939.348 41.9164 940.495 42.3937C941.356 42.7484 943.144 43.0064 943.487 43.0645C943.83 43.1225 943.785 44.2705 943.778 44.9735C943.778 45.6765 944.05 46.0764 944.471 46.386C944.886 46.6956 945.825 47.3276 945.825 47.3276C945.825 47.3276 946.408 48.0306 946.058 48.6562C945.708 49.2883 945.896 49.5527 946.233 50.3202C946.57 51.0813 947.159 51.7585 946.563 53.7643C945.974 55.7701 946.272 56.6473 947.969 57.0601C949.665 57.4728 953.046 56.37 954.51 56.744C955.974 57.1181 957.295 58.8014 957.534 60.1365C957.767 61.4651 960.429 65.5606 960.345 67.2633C960.306 68.0889 960.986 74.4482 960.546 75.1963C960.922 75.2414 961.867 75.1705 962.204 75.1963C972.709 76.1121 981.316 73.0873 984.684 66.4765L979.477 58.6338L979.457 58.6467Z" fill="#FFBC79"/>
<path fill-rule="evenodd" clip-rule="evenodd" d="M977.534 10.934C977.191 10.6437 976.834 10.3858 976.472 10.1536C973.415 8.21224 963.467 4.60047 956.692 7.73497C949.918 10.8695 948.389 13.5203 948.156 14.1846C947.923 14.8489 947.548 15.5648 946.712 16.3581L946.595 16.6032C946.595 16.6032 948.461 20.9437 951.136 23.2849C953.81 25.6261 960.293 31.5533 962.236 32.237C964.179 32.9206 965.604 33.514 967.508 32.4756C969.406 31.4372 973.415 34.017 970.442 37.2547C967.787 40.1442 970.487 50.3152 971.103 52.4758L976.977 55.5845L978.253 54.43L977.54 10.9275L977.534 10.934Z" fill="#EA996B"/>
<path fill-rule="evenodd" clip-rule="evenodd" d="M978.104 54.0712L979.522 52.7813C979.522 52.7813 980.299 55.3933 980.817 55.9803C981.336 56.5672 984.185 58.0506 983.266 56.9025C982.346 55.7545 983.298 55.3031 985.513 57.5475C987.721 59.7855 987.968 59.0954 986.083 56.4124C984.205 53.7294 985.234 50.6916 985.345 50.0982C985.448 49.4984 986.484 52.0331 987.164 53.136C987.845 54.2389 990.176 55.7674 989.088 54.2131C988 52.6652 987.229 49.9305 987.793 50.2788C988.356 50.6271 991.964 51.9944 992.533 52.9683C993.11 53.9357 995.713 56.7349 996.789 57.6701C997.864 58.6052 1001.52 61.83 1001.78 63.12C1002.05 64.4099 1002.76 66.7446 1003.35 67.6024C1003.94 68.4538 1006.14 70.0726 1007.55 71.1884C1008.96 72.2977 1008.86 70.8014 1007.93 69.7695C1007 68.7375 1007.77 68.5054 1010.43 69.5953C1013.1 70.6789 1012.98 69.9114 1010.81 68.1764C1008.64 66.435 1010.9 67.6992 1012.19 67.4283C1013.48 67.1574 1012.31 66.7059 1010.74 65.8159C1009.16 64.9194 1009.16 62.8168 1009.24 62.3396C1009.33 61.8623 1009.99 62.3396 1010.43 62.6685C1010.87 62.991 1010.36 61.6623 1009.85 60.3337C1009.34 59.0116 1009.38 57.4121 1009.38 57.4121L1010.44 57.7216C1010.44 57.7216 1009.99 56.7736 1009.64 55.9674C1009.29 55.1612 1009.77 54.5033 1010.71 55.5352C1011.64 56.5736 1012.91 56.4188 1011.76 55.2257C1010.6 54.0389 1010.89 53.0973 1011.48 53.323C1012.05 53.5488 1011.05 52.2524 1009.87 51.1818C1008.69 50.1111 1007.19 46.6348 1006.26 45.6029C1005.32 44.5709 1003.97 43.1004 1004.59 43.0875C1005.21 43.0746 1006.45 41.688 1005.84 38.8566C1005.22 36.0252 1003.28 31.6073 1000.88 30.4399C998.472 29.279 995.02 28.4212 994.774 27.0152C994.528 25.6156 993.382 25.0416 992.482 24.5127C991.581 23.9839 989.826 23.4292 989.101 23.3002C988.376 23.1712 987.67 22.6165 987.152 22.1844C986.64 21.7587 985.668 21.9135 985.157 21.4814C984.645 21.0493 982.702 18.1212 982.385 17.2569C982.067 16.3927 979.542 12.0908 976.485 10.143C974.464 8.85957 969.425 6.84085 964.289 6.53127C960.552 6.40228 955.792 6.8602 950.987 9.45938C950.987 9.45938 944.957 8.80797 944.75 15.2705C944.75 15.2705 945.255 12.4326 947.198 11.9876C947.198 11.9876 946.757 12.9744 946.881 13.7935C946.881 13.7935 947.593 13.2388 948.37 13.1614H948.59C948.59 13.1614 948.286 13.9418 947.735 15.0834C947.735 15.0834 949.594 19.424 952.269 21.7652C954.944 24.1064 961.433 30.0336 963.37 30.7172C965.306 31.4009 966.744 31.9942 968.642 30.9559C970.539 29.9239 974.548 32.4973 971.575 35.735C968.914 38.6244 971.621 48.7954 972.236 50.956L978.11 54.0647L978.104 54.0712Z" fill="#1A171B"/>
<path fill-rule="evenodd" clip-rule="evenodd" d="M996.323 53.2599C997.263 53.5501 997.775 54.8788 998.688 56.027C999.602 57.1751 998.215 55.9431 997.068 55.3755C995.921 54.8079 995.15 53.5501 994.878 53.0083C994.599 52.4665 995.383 52.9761 996.33 53.2663L996.323 53.2599Z" fill="#73B4D7"/>
<path fill-rule="evenodd" clip-rule="evenodd" d="M1000.76 34.5115C1001.32 34.8598 1003.4 36.4659 1003.75 38.6267C1004.12 40.7874 1005.23 43.5803 1002.56 39.7748C999.879 35.9628 998.285 34.447 997.909 33.7698C997.533 33.0861 1000.2 34.1761 1000.76 34.518V34.5115Z" fill="#D4DFE5"/>
<path fill-rule="evenodd" clip-rule="evenodd" d="M946.33 55.8196C946.485 56.4646 947.003 56.8452 947.955 57.0774C949.652 57.4902 953.033 56.3872 954.497 56.7613C955.96 57.1354 957.282 58.8189 957.521 60.1541C957.677 61.0442 958.927 63.1791 959.704 64.9981C959.704 64.9981 959.458 61.2635 960.695 59.5994C961.932 57.9352 969.736 53.5879 966.465 53.9556C963.195 54.3232 946.336 55.8261 946.336 55.8261L946.33 55.8196Z" fill="#EA996B"/>
<path fill-rule="evenodd" clip-rule="evenodd" d="M950.08 12.1573C954.737 9.75792 958.81 10.719 962.431 10.8415C967.567 11.1511 972.605 13.1636 974.626 14.4536C977.683 16.395 980.209 20.6972 980.526 21.5615C980.844 22.4258 982.786 25.3606 983.298 25.7928C983.81 26.2249 984.781 26.0637 985.293 26.4958C985.805 26.9215 986.698 26.4313 987.424 26.5603C988.149 26.6893 989.723 28.2889 990.617 28.8179C991.517 29.3468 992.942 30.2627 994.12 30.9915C994.775 31.3979 994.47 30.8432 995.752 31.4043C994.47 30.8432 993.369 30.2369 993.233 29.4822C992.981 28.0825 991.841 27.5085 990.94 26.9796C990.047 26.4507 988.292 25.896 987.56 25.767C986.834 25.638 986.122 25.0833 985.61 24.6576C985.099 24.2254 984.127 24.3867 983.616 23.9545C983.104 23.5224 981.161 20.594 980.844 19.7297C980.526 18.8654 978 14.5632 974.943 12.6153C972.923 11.3317 967.884 9.31932 962.748 9.00326C959.121 8.88071 954.523 9.30642 949.866 11.7123L950.067 12.1638L950.08 12.1573Z" fill="#4E6658"/>
<path fill-rule="evenodd" clip-rule="evenodd" d="M950.08 12.1573C954.737 9.75792 958.81 10.719 962.431 10.8415C967.567 11.1511 972.605 13.1636 974.626 14.4536C977.683 16.395 980.209 20.6972 980.526 21.5615C980.844 22.4258 982.786 25.3606 983.298 25.7928C983.81 26.2249 984.781 26.0637 985.293 26.4958C985.805 26.9215 986.698 26.4313 987.424 26.5603C988.149 26.6893 989.723 28.2889 990.617 28.8179C991.517 29.3468 992.942 30.2627 994.12 30.9915C994.775 31.3979 994.47 30.8432 995.752 31.4043C994.47 30.8432 993.369 30.2369 993.233 29.4822C992.981 28.0825 991.841 27.5085 990.94 26.9796C990.047 26.4507 988.292 25.896 987.56 25.767C986.834 25.638 986.122 25.0833 985.61 24.6576C985.099 24.2254 984.127 24.3867 983.616 23.9545C983.104 23.5224 981.161 20.594 980.844 19.7297C980.526 18.8654 978 14.5632 974.943 12.6153C972.923 11.3317 967.884 9.31932 962.748 9.00326C959.121 8.88071 954.523 9.30642 949.866 11.7123L950.067 12.1638L950.08 12.1573Z" fill="#4A4DC9"/>
<path d="M984.283 24.9004L986.058 25.21L985.436 28.7446L983.661 28.435L984.283 24.9004Z" fill="#1A171B"/>
<path fill-rule="evenodd" clip-rule="evenodd" d="M953.551 14.6528C956.608 13.079 959.277 13.7046 961.653 13.7885C965.021 13.9885 968.324 15.3107 969.652 16.1557C971.66 17.4328 973.318 20.2515 973.525 20.8191C973.732 21.3867 975.008 23.3152 975.345 23.5926C975.682 23.8764 976.316 23.7732 976.653 24.0505C976.99 24.3344 977.579 24.0118 978.052 24.0957C978.531 24.1795 979.561 25.2309 980.15 25.5792C980.74 25.9275 981.672 26.5274 982.45 27.0047C982.877 27.2691 982.683 26.9079 983.518 27.2756C982.683 26.9079 981.957 26.508 981.867 26.0178C981.705 25.0955 980.953 24.7214 980.364 24.3795C979.775 24.0312 978.622 23.67 978.149 23.5861C977.676 23.5023 977.21 23.1346 976.873 22.8573C976.536 22.5735 975.902 22.6767 975.565 22.3993C975.228 22.1155 973.952 20.1934 973.745 19.6258C973.538 19.0582 971.88 16.2395 969.879 14.9624C968.551 14.1175 965.248 12.7952 961.874 12.5952C959.497 12.5114 956.479 12.7952 953.422 14.369L953.558 14.6593L953.551 14.6528Z" fill="#4A4DC9"/>
<path fill-rule="evenodd" clip-rule="evenodd" d="M977.431 46.3589C977.768 45.1786 977.819 43.4564 978.746 43.1274C979.673 42.7985 979.893 42.9597 979.595 44.6368C979.297 46.3138 978.364 47.3909 978.137 47.965C977.91 48.5455 977.431 46.3589 977.431 46.3589Z" fill="#D4DFE5"/>
<path fill-rule="evenodd" clip-rule="evenodd" d="M984.082 27.7441C984.082 27.7441 985.061 28.531 985.527 27.9957C985.994 27.4603 987.27 27.9247 987.283 29.2922C987.296 30.6596 986.713 31.7883 986.409 32.8461C986.098 33.904 984.387 37.9352 984.218 38.8963C984.05 39.8509 982.754 40.87 982.793 39.264C982.825 37.6579 983.551 35.6777 984.186 34.1878C984.821 32.6913 984.782 30.8273 984.691 29.9501C984.601 29.0664 984.089 27.7441 984.089 27.7441H984.082Z" fill="#D4DFE5"/>
<path fill-rule="evenodd" clip-rule="evenodd" d="M508.42 49.0844C508.42 49.0844 509.165 60.0422 509.048 62.4737C508.932 64.9117 507.598 68.2525 507.598 68.2525L508.679 69.6328L511.898 69.6714C511.898 69.6714 513.414 78.6751 513.569 80.152C513.725 81.629 513.809 82.7383 519.767 82.1127C525.725 81.4935 527.947 81.2549 527.947 81.2549C527.947 81.2549 531.911 86.621 533.782 91.858L535.648 97.1015L552.629 83.5445C552.629 83.5445 544.63 73.6895 544.138 72.6189C543.652 71.5483 527.086 46.1562 527.086 46.1562L508.42 49.0779V49.0844Z" fill="#FFBC79"/>
<path fill-rule="evenodd" clip-rule="evenodd" d="M520.467 66.9032L523.776 66.5549C523.776 66.5549 523.284 65.6262 524.119 62.4337C524.955 59.2411 528.931 59.6023 530.065 62.9754C531.198 66.3486 534.818 78.4673 534.818 78.4673L546.606 75.2941C546.606 75.2941 545.362 67.2322 548.523 59.8796C551.683 52.5206 553.192 52.3659 553.192 52.3659C553.192 52.3659 549.371 45.7421 547.772 41.6402C546.172 37.5382 546.489 33.5846 540.589 33.0429C534.682 32.4947 517.416 28.4379 510.823 36.545C504.236 44.6457 499.716 49.4313 507.928 49.7344C516.147 50.0375 516.568 49.9537 518.031 56.4355C519.495 62.9174 520.305 66.9226 520.305 66.9226L520.467 66.9032Z" fill="#7D3500"/>
<path fill-rule="evenodd" clip-rule="evenodd" d="M530.713 65.196C532.202 69.9368 534.812 78.4702 534.812 78.4702L546.599 75.2968C546.599 75.2968 545.356 67.2342 548.516 59.8811C548.782 59.2619 549.035 58.6943 549.281 58.1719L530.713 65.196Z" fill="#632A00"/>
<path fill-rule="evenodd" clip-rule="evenodd" d="M541.794 41.2387C541.703 38.807 541.716 36.9623 537.694 36.5947C531.794 36.0464 514.521 31.9893 507.935 40.0906C507.656 40.426 507.449 40.755 507.125 41.0904C514.023 33.5567 530.725 37.4912 536.522 38.033C539.618 38.3168 540.945 39.5552 541.794 41.2387Z" fill="#B04B00"/>
<path d="M1367.76 77.7832L1370.71 70.8305C1370.71 70.8305 1368.29 66.2965 1367.91 64.4132C1367.91 64.4132 1368.66 60.0662 1360.56 60.6402C1360.56 60.6402 1355.61 60.2597 1357.76 54.2358L1356.6 51.5914C1356.6 51.5914 1356.44 49.721 1357.27 49.5276C1357.27 49.5276 1355.94 48.5859 1355.94 48.0184C1355.94 48.0184 1357.43 45 1356.11 44.4388C1356.11 44.4388 1351.82 42.9296 1354.62 39.9048C1354.62 39.9048 1359.75 34.0808 1359.75 31.9976C1359.75 31.9976 1358.77 28.6115 1360.08 27.6764C1360.08 27.6764 1360.25 20.2658 1361.24 19.3112C1361.24 19.3112 1362.72 18.9952 1362.23 18.2406C1362.23 18.2406 1362.72 17.3054 1363.22 16.9184C1363.22 16.9184 1362.39 12.5843 1367.35 11.6491C1367.35 11.6491 1386.29 3.92252 1397.35 18.8082C1397.35 18.8082 1402.78 22.1555 1398.48 37.4281C1398.48 37.4281 1393.73 61.5947 1390.09 61.2207L1389.6 61.7173L1367.77 77.7768L1367.76 77.7832Z" fill="#FFBC79"/>
<path fill-rule="evenodd" clip-rule="evenodd" d="M1372.19 38.7204H1375.81C1375.81 38.7204 1375.39 37.6562 1376.65 34.3024C1377.91 30.9422 1382.17 31.7807 1383.02 35.5601C1383.86 39.3396 1387.29 58.1982 1387.29 58.1982L1394.69 58.6238C1394.69 58.6238 1401.02 41.9001 1405.28 34.3024C1409.54 26.6984 1408.16 26.1373 1408.16 26.1373C1408.16 26.1373 1407.81 19.1008 1406.55 14.4829C1405.28 9.86496 1401.39 10.2584 1396.07 6.64017C1388.78 1.68688 1370.81 2.05451 1362.75 10.0713C1354.69 18.0946 1356 18.7396 1364.85 19.9973C1373.7 21.2549 1369.9 19.9457 1370.75 27.1241C1371.59 34.3024 1372.01 38.7269 1372.01 38.7269H1372.19V38.7204Z" fill="#4E150C"/>
<path fill-rule="evenodd" clip-rule="evenodd" d="M1393.01 74.1752C1397.64 77.7034 1402 84.5082 1404.62 94.796C1407.24 105.084 1397.91 95.6281 1395.34 89.178C1392.77 82.7344 1390.71 78.1291 1389.88 76.8777C1388.62 74.9814 1388.38 70.647 1393.01 74.1752Z" fill="#9DC2E6"/>
<path d="M1369.34 89.4549C1369.32 88.2488 1365.59 79.529 1366.79 78.8582C1367.16 77.7812 1367.71 76.5815 1367.71 76.5815L1390.42 59.9609L1393.36 60.0706L1393.56 66.9652L1369.34 89.4549Z" fill="#5193D3"/>
<path d="M1395.13 13.8443C1394.36 17.1207 1393.16 22.7641 1393.59 24.886C1393.59 24.886 1393.94 27.8141 1390.2 32.2257C1390.2 32.2257 1384.05 36.534 1391.44 37.9078C1391.44 37.9078 1390.65 42.803 1392.66 42.9513C1392.66 42.9513 1394.05 43.8736 1392.97 45.099C1392.97 45.099 1391.9 46.7888 1392.51 48.0078C1392.51 48.0078 1389.59 54.7541 1395.28 55.6635C1395.28 55.6635 1406.97 54.4509 1408.66 56.5922C1408.66 56.5922 1413.15 68.8593 1412.41 73.1999L1437.74 64.938C1437.63 65.0218 1429.25 58.3723 1430.94 50.6328C1430.94 50.6328 1431.57 24.9054 1429.01 22.5448C1426.45 20.1778 1395.13 13.8379 1395.13 13.8379L1395.13 13.8443Z" fill="#FFBC79"/>
<path d="M1433.65 61.4445V58.5035C1435.49 50.6866 1440.51 54.2983 1439.6 36.9747C1439.6 36.9747 1450.05 41.7345 1452.83 31.4732C1455.61 21.212 1457.9 15.5363 1453.6 15.8394C1453.6 15.8394 1446.67 15.0784 1446.06 19.0642C1446.06 19.0642 1444.52 11.3957 1440.98 13.853C1440.98 13.853 1431.14 0.528129 1421.9 0.528129C1421.9 0.528129 1408.97 -2.23874 1397.75 6.65524C1397.75 6.65524 1390.66 7.11961 1391.74 14.614C1391.74 14.614 1391.74 11.2409 1393.89 10.3315C1393.89 10.3315 1393.59 11.5569 1393.89 12.4792C1393.89 12.4792 1394.6 11.6924 1395.48 11.4537C1395.48 11.4537 1395.65 11.415 1395.74 11.4021C1395.74 11.4021 1395.48 12.3954 1395.13 13.853C1395.13 13.853 1398.18 18.4257 1401.74 20.5799C1405.3 22.7405 1413.99 28.2614 1416.36 28.6548C1418.74 29.0482 1420.51 29.4416 1422.49 27.8679C1424.47 26.2878 1428.94 28.0872 1426.85 32.7825C1422.37 42.8052 1433.64 61.4509 1433.64 61.4509L1433.65 61.4445Z" fill="#AD0000"/>
<path d="M1412.76 64.3437C1412.57 62.6151 1411.6 59.5191 1412.38 58.171C1413.15 56.823 1415.88 55.4813 1415.49 54.7073C1415.11 53.9398 1411.42 53.9398 1403.29 53.9398C1395.16 53.9398 1392.26 53.7656 1392.26 53.7656C1392.8 54.6815 1393.67 55.4168 1395.29 55.6748C1395.29 55.6748 1406.98 54.4622 1408.67 56.6037C1408.67 56.6037 1411.88 65.3822 1412.43 70.7099C1412.43 70.7099 1412.96 66.0659 1412.76 64.3373V64.3437Z" fill="#EAA979"/>
<path fill-rule="evenodd" clip-rule="evenodd" d="M475.95 188.697L475.891 188.207C475.684 187.426 475.6 186.898 475.613 186.459C475.289 186.614 474.932 186.833 474.518 187.143C473.008 188.259 471.524 189.104 471.135 191.09C470.74 193.07 470.753 193.896 471.265 195.508C471.563 196.469 471.932 197.85 472.548 199.327L474.433 199.346C473.397 197.134 472.496 194.586 472.386 193.612C472.185 191.903 474.459 189.916 475.056 189.284C475.295 189.033 475.541 188.884 475.95 188.691V188.697Z" fill="#FFC1FF"/>
<path fill-rule="evenodd" clip-rule="evenodd" d="M481.938 264.692C481.692 264.718 481.174 264.827 480.843 264.776C480.513 264.724 478.434 264.453 478 264.37C477.566 264.292 476.912 264.479 476.452 264.602C475.986 264.724 474.652 265.698 474.652 265.698C474.004 266.04 473.499 266.304 473.382 265.743C473.214 264.937 470.41 249.097 470.118 247.736L460.947 204.769C460.688 203.55 460.442 201.75 460.442 201.75C460.889 201.867 461.634 201.918 462.107 201.912C462.819 201.86 463.609 201.667 464.62 201.293C466.459 200.615 467.579 199.803 468 199.158C468.182 198.88 468.486 198.758 468.803 198.693C468.816 198.829 469.49 202.828 469.574 203.918C469.671 205.033 475.371 229.032 476.005 232.025C476.647 235.017 480.649 255.824 481.167 257.559C481.685 259.3 482.171 260.313 481.646 261.138C481.122 261.97 482.482 264.479 482.482 264.479C482.482 264.479 482.165 264.653 481.931 264.679L481.938 264.692Z" fill="#FFC1FF"/>
<path fill-rule="evenodd" clip-rule="evenodd" d="M490.843 200.335C494.489 200.864 500.305 201.535 500.907 201.412C501.736 201.232 501.905 201.342 502.714 201.174C503.524 201 503.692 201.109 503.919 202.193C504.152 203.276 515.428 247.488 515.881 248.952C516.341 250.416 516.645 251.197 517.189 252.358C517.727 253.519 517.455 254.293 516.509 254.499C515.564 254.699 514.398 254.66 513.614 254.97C512.837 255.279 486.549 263.412 485.351 263.793C484.217 264.148 483.142 264.257 482.488 264.502C482.488 264.502 481.128 261.993 481.653 261.161C482.177 260.329 481.692 259.323 481.173 257.582C480.662 255.841 476.653 235.034 476.012 232.048C475.371 229.062 469.671 205.056 469.581 203.941C469.49 202.831 468.81 198.717 468.81 198.717C469.211 198.646 469.6 198.697 469.6 198.697C469.6 198.697 471.258 199.187 471.977 199.181C472.696 199.168 486.329 199.516 488.006 199.903C486.815 194.653 485.416 188.649 485.306 187.901C485.118 186.636 484.943 186.469 483.9 186.185C483.57 186.095 483.453 186.217 482.663 185.94L483.227 183.502C483.596 183.708 483.628 183.592 483.945 183.831C485.085 184.721 485.59 185.921 486.141 186.598C486.698 187.275 488.362 190.216 488.816 191.603C489.133 192.564 490.098 196.788 490.836 200.348L490.843 200.335Z" fill="#FFAEFF"/>
<path fill-rule="evenodd" clip-rule="evenodd" d="M512.85 255.223C510.292 256.042 502.022 258.616 495.202 260.731C489.826 254.237 483.848 246.626 482.488 245.168L477.586 239.886C476.854 236.171 476.238 233.063 476.018 232.044C475.377 229.057 469.678 205.052 469.587 203.936C469.496 202.827 468.816 198.712 468.816 198.712C469.024 198.673 469.211 199.015 469.393 199.009C474.548 205.813 491.555 229.915 497.656 237.184C501.737 242.034 508.22 249.896 512.85 255.23V255.223Z" fill="#D794FF"/>
<path fill-rule="evenodd" clip-rule="evenodd" d="M465.708 227.078L460.947 204.769C460.688 203.55 460.442 201.75 460.442 201.75C460.889 201.867 461.634 201.918 462.107 201.912C462.819 201.86 463.609 201.667 464.62 201.293C466.459 200.615 467.579 199.803 468 199.158C468.182 198.88 468.486 198.758 468.803 198.693C468.816 198.829 469.49 202.828 469.574 203.918C469.671 205.033 475.371 229.032 476.005 232.025C476.226 233.05 476.834 236.153 477.573 239.868C474.205 236.236 469.671 231.386 465.701 227.065L465.708 227.078Z" fill="#FFD4FF"/>
<path fill-rule="evenodd" clip-rule="evenodd" d="M457.955 249.11C460.339 253.837 462.418 257.939 462.418 257.939C465.643 265.769 500.273 350.362 499.787 371.497C499.683 375.876 509.431 365.512 508.187 363.003C506.944 360.488 495.564 290.935 493.654 281.461C491.737 271.986 486.769 261.938 484.153 257.791C482.592 255.314 482.113 251.935 482.721 248.787L457.962 249.123L457.955 249.11Z" fill="#F4C18B"/>
<path fill-rule="evenodd" clip-rule="evenodd" d="M492.028 380.093C491.795 378.21 495.577 375.075 499.062 372.509C499.289 372.341 499.502 372.244 499.69 372.128C500.137 371.87 500.551 371.651 501.342 371.199L502.099 370.761C503.841 369.742 505.616 362.654 505.888 358.784C506.231 353.908 503.278 339.783 502.52 337.242C502.112 335.894 502.313 335.153 502.98 334.772C503.569 334.43 504.522 334.372 505.739 334.411C508.336 334.501 511.451 337.971 511.451 337.971C514.502 343.221 512.922 344.466 515.311 350.18C517.559 355.578 520.428 361.564 522.151 365.072L520.616 365.956C518.323 362.376 514.638 356.63 514.185 355.965C513.517 354.979 513.492 354.624 512.727 354.843H512.708C512.002 355.249 514.677 367.575 515.098 370.103C515.519 372.663 513.945 373.702 513.945 373.702C513.945 373.702 507.572 377.081 502.533 379.977C500.014 381.428 500.208 381.119 497.643 381.228C495.526 381.319 492.281 381.306 492.028 380.087V380.093Z" fill="#E00000"/>
<path fill-rule="evenodd" clip-rule="evenodd" d="M460.371 80.6239C460.164 81.6236 459.937 82.4491 459.691 82.9909C458.098 86.4672 446.472 104.055 440.851 108.841C438.778 110.602 438.778 119.573 443.13 124.829C449.853 132.936 448.907 136.084 449.555 138.348C450.203 140.605 451.517 156.058 450.358 161.231C449.367 165.655 448.622 167.951 448.622 167.951L483.55 172.718C483.55 172.718 480.565 158.019 481.219 138.96C481.964 117.367 482.631 104.1 482.326 95.5095C482.177 91.1625 482.261 83.5455 482.592 76.709L460.371 80.6368V80.6239Z" fill="#E00000"/>
<path fill-rule="evenodd" clip-rule="evenodd" d="M441.136 248.559L440.281 255.396C438.551 263.986 419.692 356.661 407.607 373.623C405.1 377.138 418.701 375.248 419.09 372.352C419.478 369.457 448.389 316.383 452.476 295.777C454.38 286.192 457.722 275.138 457.91 269.978C458.065 265.567 463.149 253.28 466.647 246.334L441.136 248.559Z" fill="#F4C18B"/>
<path fill-rule="evenodd" clip-rule="evenodd" d="M427.328 385.23L427.516 382.695L429.375 382.921C429.064 384.469 428.883 385.417 428.883 385.417L427.334 385.23H427.328Z" fill="#1A171B"/>
<path fill-rule="evenodd" clip-rule="evenodd" d="M395.425 379.624C396.377 377.979 402.154 374.129 406.493 374.168C406.778 374.168 407.005 374.219 407.225 374.245C407.736 374.309 408.196 374.38 409.103 374.496L409.971 374.6C411.979 374.825 417.678 370.233 420.236 367.305C423.455 363.616 429.64 350.568 430.566 348.085C431.058 346.763 431.667 346.292 432.431 346.389C433.105 346.473 433.908 346.995 434.854 347.756C436.868 349.388 437.263 354.025 437.263 354.025C436.518 360.043 434.51 360.088 432.962 366.086C431.499 371.749 430.178 378.244 429.426 382.081L427.665 381.868C428.001 377.637 428.533 370.84 428.571 370.033C428.63 368.847 428.824 368.55 428.079 368.266H428.06C427.25 368.157 421.939 379.598 420.741 381.875C419.537 384.164 417.646 384.055 417.646 384.055C417.646 384.055 409.582 383.094 403.812 382.384C400.923 382.03 398.605 381.739 398.151 381.668C396.785 381.449 394.887 380.753 395.425 379.63V379.624Z" fill="#E00000"/>
<path d="M448.623 167.948L444.206 218.371C442.71 226.742 438.798 248.484 438.416 248.91C438.416 248.91 439.821 250.09 440.443 250.335L480.999 249.974C482.177 249.748 485.293 249.045 485.157 248.194C484.995 247.168 483.719 242.137 484.943 238.706C486.16 235.282 486.452 208.735 488.382 204.891C488.382 204.891 494.884 195.939 488.647 181.331C488.647 181.331 485.319 177.08 483.686 171.792L448.61 167.941L448.623 167.948Z" fill="#E00000"/>
<path d="M399.014 213.918L462.905 219.503L458.391 271.023L394.493 265.431L399.014 213.918Z" fill="#0FA5A8"/>
<path d="M396.48 216.238L465.397 222.262L460.526 277.838L391.603 271.814L396.48 216.238Z" fill="#0FD1B2"/>
<path d="M440.812 226.292C440.903 225.267 441.816 224.499 442.853 224.589C443.89 224.68 444.655 225.589 444.564 226.621C444.473 227.653 443.559 228.421 442.523 228.324C441.486 228.234 440.721 227.324 440.812 226.286V226.292Z" fill="#00CFCF"/>
<path d="M441.563 226.358C441.621 225.74 442.165 225.283 442.786 225.334C443.406 225.392 443.866 225.933 443.807 226.551C443.756 227.169 443.206 227.626 442.592 227.574C441.971 227.517 441.511 226.976 441.563 226.358Z" fill="#007981"/>
<path d="M425.929 218.122C431.777 227.79 436.745 237.284 438.202 239.619C441.214 244.436 450.65 258.419 449.983 260.748C449.309 263.011 439.102 266.288 439.562 269.545C440.754 271.802 442.023 273.969 443.15 275.64L392.186 271.202L397.07 215.613L425.929 218.129V218.122Z" fill="#00C7A6"/>
<path d="M462.47 262.785C458.157 258.709 453.344 254.775 448.079 251.105C429.906 238.432 410.619 231.801 395.703 231.95L392.264 271.06L461.207 277.065L462.47 262.785Z" fill="#0FD173"/>
<path d="M416.24 224.152C416.331 223.119 417.244 222.358 418.281 222.449C419.318 222.539 420.083 223.448 419.992 224.48C419.901 225.512 418.988 226.274 417.951 226.183C416.914 226.093 416.149 225.184 416.24 224.152Z" fill="#00CFCF"/>
<path d="M416.991 224.207C417.043 223.589 417.593 223.132 418.214 223.184C418.835 223.242 419.294 223.782 419.242 224.4C419.19 225.019 418.641 225.476 418.02 225.424C417.399 225.366 416.94 224.819 416.998 224.207H416.991Z" fill="#007981"/>
<path d="M443.073 275.537C441.965 273.88 440.722 271.751 439.556 269.546C439.096 266.282 449.303 263.006 449.977 260.748C450.391 259.317 446.92 253.512 443.565 248.094C426.719 237.395 409.388 231.822 395.703 231.957L392.264 271.068L443.073 275.544V275.537Z" fill="#0FC18A"/>
<path fill-rule="evenodd" clip-rule="evenodd" d="M419.906 221.978C423.85 199.14 428.947 197.908 433.992 198.514C438.157 199.017 442.658 205.95 442.904 224.093C442.943 227.092 444.037 226.434 444.031 225.531C443.629 205.428 438.778 198.153 434.174 197.476C421.46 195.618 420.268 216.934 418.552 223.184C418.474 223.461 419.504 224.332 419.912 221.971L419.906 221.978Z" fill="#66E456"/>
<path fill-rule="evenodd" clip-rule="evenodd" d="M521.808 367.799L520.35 365.71L521.931 364.723C522.67 366.122 523.13 366.974 523.13 366.974L521.802 367.799H521.808Z" fill="#1A171B"/>
<path fill-rule="evenodd" clip-rule="evenodd" d="M480.759 152.969C481.122 156.922 481.316 159.657 481.29 160.089C481.186 161.934 475.131 168.332 466.031 177.645C462.236 181.534 458.331 185.326 454.795 189.048L449.924 185.275L480.759 152.975V152.969Z" fill="#BC0000"/>
<path fill-rule="evenodd" clip-rule="evenodd" d="M447.768 179.228L448.493 178.331C452.405 173.732 468.169 153.674 468.842 152.094C469.516 150.514 466.413 132.591 465.228 127.289C464.05 121.994 459.704 103.206 459.037 100.065C458.363 96.9244 464.237 83.1094 476.109 91.6873C486.724 99.3559 476.031 108.534 476.031 108.534C476.031 108.534 481.627 151.256 481.523 153.107C481.42 154.951 475.176 162.833 466.077 172.152C461.815 176.512 457.411 180.769 453.551 184.916L444.465 194.094C443.169 195.48 441.006 196.119 440.928 197.396C440.851 198.725 439.07 199.215 438.461 199.628C437.858 200.047 437.127 201.498 436.686 201.956C436.246 202.414 436.058 203.33 435.255 202.956C434.452 202.581 434.322 200.982 434.653 200.408C434.989 199.834 435.384 198.854 435.384 198.854C435.384 198.854 433.28 200.124 433.04 200.847C432.8 201.569 432.561 202.614 432.813 203.033C433.066 203.452 433.085 204.162 433.726 205.993C434.374 207.819 433.947 208.122 433.565 208.206C433.176 208.289 432.729 207.715 432.567 207.109C432.412 206.503 432.023 205.826 431.965 205.368C431.9 204.903 431.265 202.872 431.265 202.872L431.544 205.806C431.544 205.806 432.263 207.986 432.166 208.27C432.068 208.56 431.207 209.831 430.566 207.199C430.19 205.632 429.322 203.517 429.322 203.517C429.322 203.517 429.348 207.315 429.186 208.031C429.018 208.747 428.519 208.954 428.15 208.773C427.781 208.599 427.548 207.922 427.567 207.283C427.71 203.226 427.451 201.04 426.084 206.477C425.935 207.07 424.562 208.573 424.4 207.335C424.238 206.097 425.352 203.039 425.437 202.014C425.527 200.995 426.57 197.041 427.004 196.274C427.438 195.513 430.3 194.139 431.317 193.655C432.34 193.172 433.383 192.688 434.419 192.372C434.555 192.333 437.327 190.805 438.007 189.966L447.761 179.215L447.768 179.228Z" fill="#F4C18B"/>
<path fill-rule="evenodd" clip-rule="evenodd" d="M478.313 77.4499L483.905 76.4824C483.575 83.319 483.879 91.1488 484.035 95.4958C484.339 104.087 483.672 117.347 482.927 138.947C482.272 158.012 483.562 172.704 483.562 172.704C483.562 172.704 482.492 177.044 478.883 172.246C471.438 162.352 476.375 144.526 476.881 115.709C477.14 101.055 477.587 87.537 478.313 77.4434V77.4499Z" fill="#BC0000"/>
<path fill-rule="evenodd" clip-rule="evenodd" d="M448.247 178.665L448.487 178.33C452.398 173.731 468.162 153.673 468.836 152.093C469.509 150.513 466.407 132.589 465.222 127.288C464.043 121.993 459.704 107.874 459.03 100.064C458.752 96.865 464.283 82.3534 476.154 90.9314C486.769 98.6064 477.832 108.99 477.832 108.99C477.832 108.99 482.391 153.692 482.281 155.543C482.177 157.388 476.122 163.786 467.022 173.099C463.227 176.982 459.322 180.781 455.786 184.496L448.24 178.659L448.247 178.665Z" fill="#FF5600"/>
<path fill-rule="evenodd" clip-rule="evenodd" d="M419.886 222.204C423.636 201.551 428.72 200.474 433.765 201.067C437.936 201.557 442.489 207.872 442.878 224.307C442.943 227.029 444.031 226.435 444.011 225.616C443.441 207.407 438.532 200.77 433.927 200.125C421.207 198.345 420.191 217.637 418.533 223.281C418.455 223.533 419.491 224.332 419.88 222.197L419.886 222.204Z" fill="#66E456"/>
<path fill-rule="evenodd" clip-rule="evenodd" d="M914.343 228.307C915.774 233.086 917.03 237.226 917.03 237.226C918.74 245.024 936.984 329.223 933.06 348.759C932.25 352.809 942.995 344.78 942.256 342.239C941.518 339.704 942.386 273.26 942.166 264.153C941.945 255.047 938.979 244.901 937.237 240.625C936.201 238.071 936.207 231.486 937.295 228.668L914.343 228.313V228.307Z" fill="#C17B00"/>
<path fill-rule="evenodd" clip-rule="evenodd" d="M924.627 356.368C924.718 354.581 928.565 351.401 932.224 349.583C932.464 349.46 932.671 349.408 932.878 349.338C933.332 349.17 933.752 349.034 934.562 348.744L935.339 348.46C937.12 347.796 939.938 341.508 940.825 337.954C941.945 333.484 941.531 319.889 941.239 317.406C941.084 316.09 941.395 315.432 942.075 315.187C942.677 314.968 943.571 315.071 944.691 315.31C947.088 315.819 949.413 319.547 949.413 319.547C951.375 324.919 949.711 325.816 950.987 331.517C952.185 336.896 953.869 342.92 954.892 346.461L953.325 347.029C951.783 343.333 949.309 337.393 948.998 336.703C948.538 335.684 948.571 335.348 947.826 335.426H947.807C947.081 335.69 947.541 347.564 947.515 349.982C947.489 352.42 945.851 353.136 945.851 353.136C945.851 353.136 938.668 355.768 933.513 357.632C930.935 358.567 929.815 358.096 929.381 358.064C927.393 357.922 924.666 357.541 924.634 356.374L924.627 356.368Z" fill="#B3330A"/>
<path fill-rule="evenodd" clip-rule="evenodd" d="M899.194 227.717L899.181 234.218C898.553 242.454 891.597 331.343 882.245 348.602C880.308 352.181 892.815 348.853 892.847 346.099C892.873 343.345 913.805 290.362 915.256 270.613C915.929 261.423 917.782 250.697 917.361 245.841C917.004 241.693 920.34 229.613 922.814 222.719L899.194 227.717Z" fill="#C17B00"/>
<path fill-rule="evenodd" clip-rule="evenodd" d="M902.037 357.199L901.921 354.811H903.68C903.57 356.298 903.512 357.199 903.512 357.199H902.044H902.037Z" fill="#4C8089"/>
<path fill-rule="evenodd" clip-rule="evenodd" d="M871.533 355.607C872.232 353.962 877.2 349.693 881.261 349.235C881.526 349.202 881.746 349.222 881.954 349.222C882.439 349.222 882.88 349.241 883.741 349.241H884.564C886.468 349.215 891.273 344.268 893.326 341.237C895.91 337.419 900.198 324.494 900.774 322.069C901.079 320.779 901.597 320.27 902.322 320.27C902.963 320.27 903.773 320.669 904.744 321.269C906.823 322.566 907.724 326.861 907.724 326.861C907.724 332.582 905.852 332.853 905.094 338.644C904.375 344.107 903.883 350.338 903.63 354.02H901.959C901.785 350.021 901.493 343.604 901.441 342.843C901.364 341.727 901.506 341.424 900.774 341.244H900.755C899.984 341.244 896.338 352.556 895.483 354.82C894.622 357.103 892.841 357.219 892.841 357.219C892.841 357.219 885.185 357.245 879.7 357.245C876.96 357.245 874.752 357.239 874.318 357.219C873.016 357.168 871.157 356.735 871.533 355.62V355.607Z" fill="#B3330A"/>
<path fill-rule="evenodd" clip-rule="evenodd" d="M917.736 241.347C918.65 235.877 920.975 227.859 922.814 222.719L899.194 227.718L899.181 234.219C899.142 234.709 899.084 235.483 899.052 236.515L917.736 241.347Z" fill="#7B5600"/>
<path fill-rule="evenodd" clip-rule="evenodd" d="M915.644 237.25L941.544 229.665C941.447 226.305 941.505 222.003 942.043 218.166C943.053 210.89 941.039 196.469 941.408 193.077C941.784 189.684 950.32 173.231 950.961 169.349C951.602 165.466 949.627 157.075 949.627 157.075L948.649 154.547L905.793 160.042C905.139 164.931 895.483 201.655 894.11 208.356C893.346 212.064 891.636 216.785 890.03 221.281L906.208 233.077L915.651 237.243L915.644 237.25Z" fill="#6BBFB1"/>
<path fill-rule="evenodd" clip-rule="evenodd" d="M942.392 76.1759C943.247 67.7786 943.273 67.211 940.624 61.1742C939.426 58.4396 935.229 56.5821 934.381 55.9952C934.057 55.7694 933.532 55.3953 933.202 55.3438L932.768 55.4082C934.413 58.5814 930.132 65.0891 927.082 67.8559C920.45 73.8799 914.686 72.4029 912.445 71.2807C910.223 70.1649 910.042 68.3332 910.178 65.9985C909.556 66.9208 906.83 70.1262 905.781 71.9385C905.016 72.7899 902.322 75.9631 900.489 78.6397C898.151 82.0644 894.596 86.8048 893.002 89.6814C891.409 92.5643 888.916 96.7372 890.269 99.7234C891.623 102.71 895.159 107.618 895.159 107.618L895.943 118.498L900.075 137.898L900.133 138.305C900.321 139.311 900.826 147.179 901.778 148.618C902.73 150.056 904.22 154.287 904.064 155.396C903.915 156.499 903.598 159.227 903.682 159.898C903.76 160.478 905.651 160.466 906.176 160.607L949.031 155.112L944.536 143.961L941.984 138.943C941.984 138.943 940.741 135.789 939.64 134.848C938.545 133.913 939.05 132.391 937.768 131.223C936.492 130.056 936.531 127.805 935.909 126.244C935.314 124.748 937.01 111.642 937.639 108.817C938.273 105.992 941.447 85.2505 942.373 76.1824L942.392 76.1759Z" fill="#7DDEDE"/>
<path fill-rule="evenodd" clip-rule="evenodd" d="M899.1 120.417C899.204 117.45 901.504 114.361 902.619 111.039C903.733 107.718 905.547 106.776 903.973 106.525C902.398 106.273 899.774 106.976 897.81 106.312C895.854 105.648 892.322 103.352 892.322 103.352C893.767 105.59 895.18 107.608 895.18 107.608L895.964 118.489L899.91 136.999C899.91 136.999 899.003 123.39 899.106 120.417H899.1Z" fill="#6BBFB1"/>
<path fill-rule="evenodd" clip-rule="evenodd" d="M905.185 163.555C899.129 176.396 896.532 203.858 895.606 208.354C894.842 212.062 890.062 216.783 888.463 221.278L906.811 233.352L912.309 234.345C912.309 234.345 911.441 233.868 911.493 234.32L905.179 163.555H905.185Z" fill="#56B194"/>
<path fill-rule="evenodd" clip-rule="evenodd" d="M917.16 99.8935L916.765 80.248C917.225 84.4016 920.789 88.0456 920.789 88.0456C920.789 88.0456 919.195 110.29 918.164 118.539L917.16 99.8935Z" fill="#6BBFB1"/>
<path fill-rule="evenodd" clip-rule="evenodd" d="M922.529 75.022C924.912 69.9139 935.048 70.4235 935.041 78.3758C935.041 86.0057 930.689 120.214 929.025 125.367C925.437 136.48 922.768 142.311 910.949 151.83C902.626 158.538 891.305 164.549 891.305 164.549C891.305 164.549 886.921 176.068 887.853 182.272C888.779 188.47 886.979 189.78 883.559 187.174C880.14 184.568 879.201 178.48 882.083 171.179C884.965 163.884 894.375 150.527 902.27 141.504C910.165 132.488 916.48 123.413 918.552 113.784C920.625 104.155 920.864 91.3717 921.253 87.6632C921.641 83.9611 920.411 79.5561 922.522 75.0156L922.529 75.022Z" fill="#C17B00"/>
<path fill-rule="evenodd" clip-rule="evenodd" d="M884.738 179.207C885.995 177.969 886.643 173.235 887.497 171.268C888.352 169.301 889.518 162.813 890.593 161.787C891.668 160.755 900.062 155.944 903.922 152.919C907.788 149.894 922.639 134.125 923.585 131.248C924.53 128.378 932.84 92.2799 933.157 83.1925C933.474 74.105 931.713 72.4668 931.713 72.4668C933.474 73.3504 936.44 75.4594 936.544 78.5294C936.797 86.1528 930.696 120.213 929.031 125.366C925.443 136.479 922.775 142.309 910.955 151.829C902.633 158.537 891.312 164.548 891.312 164.548C891.312 164.548 886.927 176.067 887.86 182.271C888.786 188.469 886.986 189.778 883.566 187.173C883.035 186.766 882.562 186.276 882.154 185.709C882.154 185.709 883.482 180.452 884.745 179.214L884.738 179.207Z" fill="#7B5600"/>
<path fill-rule="evenodd" clip-rule="evenodd" d="M933.545 104.579C935.178 97.4263 937.865 85.5591 938.37 83.1792C938.999 80.2188 933.591 65.2171 921.188 72.5051C911.337 78.2904 920.78 88.0486 920.78 88.0486C920.78 88.0486 919.88 95.1174 918.837 103.521L933.545 104.585V104.579Z" fill="#B1EBEB"/>
<path d="M986.128 161.758C984.263 154.509 982.171 145.628 982.456 142.467C982.974 136.785 985.94 134.67 984.645 133.431C983.343 132.18 983.395 129.839 983.751 125.705C984.095 121.738 992.553 110.045 991.271 96.6106C989.975 83.1826 984.658 65.0335 984.658 65.0335C984.658 65.0335 983.24 64.1499 981.556 64.9819L960.229 72.4505L960.183 72.6698C960.183 72.6698 953.247 81.7379 948.415 87.1555C941.596 94.8048 936.104 92.1411 943.085 112.244C943.085 112.244 944.769 128.478 944.374 129.723C943.998 130.968 943.862 131.664 945.022 132.773C946.188 133.876 945.151 135.824 945.669 136.927C946.188 138.036 946.706 153.825 946.706 153.825C946.706 153.825 947.224 155.076 947.36 155.482C947.36 155.482 946.939 160.287 946.401 164.544L986.128 161.758Z" fill="#FF8E00"/>
<path d="M956.647 241.424L957.055 237.986L953.156 250.84L956.368 257.909L956.647 241.424ZM972.799 342.708L956.751 340.612C957.107 335.859 957.197 332.047 957.197 332.047C956.427 328.029 956.161 291.337 956.161 291.337C956.161 291.337 946.829 280.186 937.774 271.053C928.921 262.134 927.49 257.038 933.83 241.301C940.106 225.732 978.823 243.514 978.823 243.514C978.609 243.559 978.68 244.971 978.68 244.971C978.855 253.543 975.934 269.505 975.934 269.505C975.15 271.853 975.371 280.986 975.371 280.986C976.148 282.643 979.606 289.654 979.606 289.654C983.732 296.529 991.07 313.369 999.114 322.508L988.738 330.699C983.965 323.295 977.663 316.233 977.663 316.233C977.922 317.903 975.584 326.21 975.584 326.21C973.771 330.157 973.078 336.839 972.793 342.689L972.799 342.708Z" fill="#FFBC79"/>
<path d="M956.751 340.614C956.278 346.947 955.352 354.951 953.571 357.802C950.65 362.472 942.839 372.636 941.771 374.565C941.771 374.565 941.926 375.906 943.584 375.906C945.242 375.906 952.392 374.532 955.967 374.532C959.542 374.532 968.072 363.013 970.274 360.266C972.476 357.518 972.67 354.268 972.67 354.268C972.67 354.268 972.443 348.96 972.8 342.704L956.751 340.607V340.614Z" fill="#72AFDA"/>
<path d="M988.739 330.717C991.647 335.232 993.985 339.875 993.985 343.126C993.985 343.126 995.15 360.579 995.539 361.546L997.514 362.468C1000.27 362.197 1004.39 353.413 1006.04 345.183C1007.68 336.947 1008.13 328.601 1008.13 328.601C1005.11 328.189 1002.07 325.873 999.114 322.52L988.739 330.711V330.717Z" fill="#72AFDA"/>
<path fill-rule="evenodd" clip-rule="evenodd" d="M956.395 257.878C956.395 257.878 966.459 267.513 968.732 270.764C971.019 274.034 975.345 281.038 975.345 281.038V273.086C975.345 273.086 970.973 264.998 969.82 263.463C968.668 261.928 956.692 243.721 956.692 243.721L956.395 257.878Z" fill="#F2AE61"/>
<path fill-rule="evenodd" clip-rule="evenodd" d="M946.401 164.544C946.052 167.369 945.65 169.949 945.287 170.723C944.368 172.658 945.339 173.889 945.585 175.27C945.844 176.656 943.966 188.033 941.006 206.589C941.006 206.589 929.854 250.981 929.329 251.53C929.329 251.53 934.433 252.181 935.08 252.458L978.227 253.581C979.484 253.381 980.52 252.632 980.41 251.723C980.28 250.62 981.413 236.779 982.851 233.174C984.276 229.575 985.571 201.326 987.767 197.308C987.767 197.308 995.021 188.021 988.933 172.238C988.933 172.238 987.56 167.517 986.128 161.758L946.401 164.544Z" fill="#809EB8"/>
<path fill-rule="evenodd" clip-rule="evenodd" d="M955.274 252.979L978.227 253.572C979.484 253.372 981.601 253.972 981.491 253.069C981.362 251.966 981.414 236.771 982.845 233.172C984.27 229.573 985.565 201.324 987.761 197.306C987.761 197.306 989.257 195.397 990.319 191.83L955.268 252.972L955.274 252.979Z" fill="#537394"/>
<path d="M977.683 316.477C977.741 318.554 975.591 326.229 975.591 326.229C973.778 330.176 973.085 336.858 972.8 342.708L956.751 340.612C957.107 335.858 957.198 332.047 957.198 332.047C956.433 328.074 956.116 292.117 956.161 291.35L977.683 316.477Z" fill="#F2AE61"/>
<path fill-rule="evenodd" clip-rule="evenodd" d="M959.303 163.618C963.461 157.633 966.764 152.673 967.1 151.861C967.929 149.881 965.203 129.597 964.102 123.657C962.994 117.716 958.901 96.6779 958.286 93.15C957.664 89.6221 963.279 69.0479 976.342 76.639C988.026 83.4305 977.152 99.5673 977.152 99.5673C977.152 99.5673 981.621 148.288 981.42 150.461C981.297 151.809 978.408 156.33 973.681 162.599L959.296 163.618H959.303Z" fill="#AC620E"/>
<path fill-rule="evenodd" clip-rule="evenodd" d="M944.361 184.667C947.787 179.978 954.141 171.013 959.302 163.622L973.687 162.609C970.779 166.466 967.178 170.981 963.104 175.825C958.091 181.784 952.923 187.64 948.37 193.264L941.848 200.933L944.361 184.667Z" fill="#537394"/>
<path fill-rule="evenodd" clip-rule="evenodd" d="M940.43 184.553L941.285 183.36C945.909 177.2 964.639 150.589 965.468 148.609C966.297 146.629 963.57 126.345 962.463 120.405C961.355 114.465 957.262 93.4265 956.64 89.8986C956.019 86.3707 963.272 69.0535 976.336 76.6447C988.019 83.4361 975.513 96.3159 975.513 96.3159C975.513 96.3159 979.982 145.036 979.781 147.21C979.587 149.383 972.171 159.851 961.459 172.576C956.446 178.535 951.278 184.391 946.725 190.022L936.032 202.579C935.818 204.018 932.496 205.714 932.354 207.217C932.205 208.777 929.698 209.655 928.992 210.261C928.293 210.867 927.399 212.712 926.881 213.337C926.363 213.963 926.11 215.072 925.216 214.795C924.323 214.518 924.251 212.679 924.653 211.938C925.054 211.202 925.547 209.977 925.547 209.977C925.547 209.977 923.105 211.893 922.801 212.783C922.496 213.673 922.179 214.943 922.451 215.382C922.723 215.82 922.71 216.639 923.358 218.645C924.012 220.651 923.513 221.09 923.073 221.264C922.632 221.444 922.147 220.857 921.998 220.187C921.849 219.509 921.441 218.8 921.389 218.271C921.337 217.742 920.709 215.504 920.709 215.504L920.534 218.555C920.534 218.555 921.609 221.27 921.492 221.625C921.376 221.98 920.34 223.637 919.731 220.703C919.368 218.955 918.481 216.659 918.481 216.659C918.481 216.659 918.345 221.09 918.125 221.96C917.904 222.831 917.334 223.166 916.92 223.037C916.505 222.908 916.771 222.334 916.823 221.586C917.166 216.826 916.972 214.685 915.191 221.302C914.996 222.025 914.297 222.618 914.167 221.206C914.038 219.793 915.43 215.994 915.573 214.782C915.715 213.569 916.616 210.828 917.14 209.848C917.665 208.868 920.877 206.249 922.056 205.475C923.235 204.695 924.685 203.224 924.744 202.612C924.757 202.45 928.105 200.187 928.914 199.071L940.423 184.546L940.43 184.553Z" fill="#F4C18B"/>
<path d="M1009.39 329.307C1017.97 332.171 1018 334.248 1017.73 335.447C1017.44 336.724 1012.77 344.793 1012.77 344.793C1012.77 344.793 1009.6 342.187 1009.93 344.735C1009.93 344.735 1008.08 352.074 1007.12 354.525C1007.12 354.525 1001.01 366.625 998.505 368.069C998.505 368.069 993.11 372.158 992.903 367.315C992.903 367.315 993.699 363.058 995.837 359.736C995.837 359.736 996.996 356.279 996.497 353.751C996.031 351.397 995.998 347.689 995.416 346.721L1009.39 329.301V329.307Z" fill="#86958A"/>
<path d="M1007.65 328.309C1016.24 331.172 1016.26 333.249 1015.99 334.449C1015.71 335.726 1011.03 343.794 1011.03 343.794C1011.03 343.794 1007.86 341.188 1008.19 343.742C1008.19 343.742 1006.35 351.076 1005.38 353.533C1005.38 353.533 999.276 365.632 996.776 367.077C996.776 367.077 992.566 370.953 992.359 366.11C992.359 366.11 991.97 362.072 994.107 358.744C994.107 358.744 995.267 355.281 994.768 352.759C994.302 350.405 994.269 346.696 993.68 345.729L1007.65 328.309Z" fill="#485B76"/>
<path d="M972.651 355.85C974.283 359.068 976.699 365.105 975.092 366.976L966.803 371.723C966.803 371.723 966.2 369.382 964.328 370.517C964.328 370.517 958.247 377.309 953.506 377.941C953.506 377.941 933.591 379.566 930.651 376.135C930.651 376.135 929.472 372.775 932.853 372.555C932.853 372.555 942.658 371.852 944.355 371.272C946.052 370.691 948.422 366.434 950.009 364.789C950.514 364.273 950.812 364.028 950.883 363.848L972.651 355.85Z" fill="#86958A"/>
<path d="M972.437 353.809C974.069 357.028 976.484 363.059 974.878 364.936L966.588 369.676C966.588 369.676 965.986 367.335 964.114 368.47C964.114 368.47 958.026 375.269 953.292 375.894C953.292 375.894 933.377 377.52 930.436 374.088C930.436 374.088 929.258 370.728 932.632 370.508C932.632 370.508 942.437 369.805 944.134 369.225C945.838 368.644 948.202 364.387 949.788 362.743C950.293 362.22 950.591 361.981 950.663 361.801L972.43 353.803L972.437 353.809Z" fill="#485B76"/>
<path d="M523.951 109.369L512.87 145.622C511.704 154.529 509.554 170.459 508.569 174.013C507.177 179.011 506.393 192.691 505.473 199.012C504.547 205.326 504.411 220.592 504.411 220.592C504.411 220.592 509.035 233.743 519.184 222.952C519.184 222.952 520.57 240.844 521.496 242.688L521.393 245.558L564.669 243.739L563.969 240.844C563.969 240.844 572.285 235.323 573.211 236.11L570.2 192.169C570.2 192.169 579.908 151.123 573.678 122.191C573.678 122.191 563.788 103.732 558.477 100.043C558.477 100.043 556.923 92.2386 553.698 91.4453C553.698 91.4453 553.84 84.325 551.632 83.2866L533.057 79.9199L535.214 90.3296L531.334 94.7733L523.944 109.362L523.951 109.369Z" fill="#9C8659"/>
<path fill-rule="evenodd" clip-rule="evenodd" d="M556.502 92.1543C560.206 96.9657 581.572 148.117 583.956 154.502C586.339 160.888 585.251 159.469 589.273 160.326C593.288 161.184 595.089 171.852 596.553 174.69C598.016 177.527 601.287 180.868 603.891 186.331C606.494 191.788 609.033 193.077 607.815 196.457C606.598 199.837 609.732 201.017 610.127 205.519C610.522 210.014 610.652 211.51 604.668 215.303C598.69 219.095 564.993 239.45 564.591 238.276C564.183 237.102 570.342 166.815 570.206 165.318C570.077 163.822 566.961 162.887 572.551 161.494C578.14 160.101 580.491 159.295 580.491 159.295C580.491 159.295 576.955 146.112 575.219 143.603C573.483 141.087 559.358 103.364 559.358 103.364L556.515 92.1672L556.502 92.1543Z" fill="#CE6A3A"/>
<path d="M544.961 284.374C542.953 284.742 541.807 293.474 539.786 298.634C539.676 298.911 538.011 305.025 537.668 305.477C532.61 312.288 521.043 354.829 521.043 359.518C521.043 364.523 521.043 365.303 520.81 368.464C520.577 371.617 518.964 371.882 518.044 373.714C517.125 375.571 517.345 376.358 517.125 380.563C516.885 384.787 515.046 386.361 515.046 386.361L485.895 374.546C486.458 373.527 486.853 371.998 488.259 369.779C491.257 365.052 495.189 363.994 495.189 363.994C495.189 363.994 495.189 361.105 497.727 356.093C500.266 351.108 500.04 350.843 500.959 345.052C501.885 339.26 503.505 332.152 506.037 328.47C508.582 324.793 506.963 320.582 506.963 315.319C506.963 310.056 506.963 302.162 509.042 296.112C511.114 290.056 518.686 259.059 518.686 259.059C520.661 252.487 521.056 251.455 521.056 251.455L521.548 245.128L537.72 244.838L544.967 284.38L544.961 284.374Z" fill="#1C86C1"/>
<path d="M531.671 244.386L563.451 241.58L578.522 299.51C580.601 301.619 601.85 365.825 603.23 368.708C604.376 371.101 603.314 373.487 602.854 374.255L573.911 370.004C573.93 366.573 577.136 359.24 577.136 359.24C567.907 348.198 549.689 302.999 549.689 302.999C549.689 302.999 548.51 301.968 547.681 296.982L531.671 244.392V244.386Z" fill="#1C9EC9"/>
<path d="M515.033 386.465V393.451C513.88 396.36 501.186 393.722 501.186 393.722L501.348 391.464C500.623 390.664 493.796 391.612 493.796 391.612C479.943 392.664 465.17 381.086 465.17 381.086C463.085 378.19 466.31 377.138 469.781 376.874C473.246 376.622 476.251 376.622 481.562 376.352C484.386 376.21 485.247 375.694 485.888 374.539L515.033 386.472V386.465Z" fill="#1A171B"/>
<path d="M602.854 374.255C602.77 374.416 602.764 374.506 602.764 374.506C603.69 375.557 604.389 380.55 604.389 380.55C604.389 383.975 588.917 384.239 588.917 384.239L588.697 382.13C588.457 380.814 579.921 385.561 579.921 385.561C570.213 392.399 555.213 386.877 555.213 386.877C552.668 385.033 554.98 381.878 558.445 380.821C561.91 379.769 563.516 380.034 566.988 378.46C570.452 376.886 573.917 373.422 573.917 370.004L602.861 374.255H602.854Z" fill="#1A171B"/>
<path fill-rule="evenodd" clip-rule="evenodd" d="M536.425 114.105L553.594 84.9204L552.584 83.0371L535.201 95.5687L534.313 92.3568L526.846 108.552L526.736 114.55L533.866 103.115L536.425 114.105Z" fill="white"/>
<path d="M553.38 85.4186C554.507 87.6437 555.453 89.8688 555.453 89.8688C558.037 94.448 559.831 99.2852 559.831 99.2852C565.148 102.974 573.691 122.188 573.691 122.188C579.921 151.127 570.213 192.166 570.213 192.166L573.224 236.107C572.298 235.32 563.982 240.841 563.982 240.841L564.682 243.737L564.973 243.691L520.946 244.195L522.98 233.391C522.099 231.644 516.522 149.785 516.393 148.115L553.387 85.4121L553.38 85.4186Z" fill="#C4A976"/>
<path d="M487.43 227.224C488.563 224.689 491.549 223.554 494.094 224.683L499.936 227.276C502.488 228.411 503.634 231.384 502.494 233.919L498.615 242.614C497.482 245.155 494.496 246.284 491.951 245.155L486.109 242.556C483.557 241.421 482.417 238.447 483.544 235.912L487.43 227.217V227.224Z" fill="#FFBC79"/>
<path fill-rule="evenodd" clip-rule="evenodd" d="M492.715 216.57L489.995 222.343L507.883 228.935L509.988 225.065L492.715 216.57Z" fill="white"/>
<path fill-rule="evenodd" clip-rule="evenodd" d="M509.988 225.056L566.139 124.946C568.781 117.993 566.987 107.351 560.304 104.391C553.652 101.443 544.617 107.19 541.107 113.736L492.708 216.569L509.988 225.056Z" fill="#DBC583"/>
<path fill-rule="evenodd" clip-rule="evenodd" d="M1340.75 220.882C1341.57 223.836 1341.81 225.764 1338.99 224.429C1336.16 223.087 1335.41 223.532 1335.33 221.881C1335.24 220.23 1332.49 210.807 1332.87 207.112C1333.26 203.423 1334.45 204.59 1335.12 208.131C1335.8 211.672 1339.93 217.928 1340.75 220.882ZM1328.31 209.846C1328.55 212.484 1328.68 217.012 1328.78 218.586C1328.88 220.159 1327.21 220.243 1325.4 220.056C1323.59 219.869 1322.54 219.837 1323.63 217.006C1324.71 214.168 1326.9 208.318 1327.3 207.054C1327.69 205.79 1328.06 207.215 1328.31 209.853V209.846ZM1342.22 217.96C1342.08 215.819 1336.05 199.024 1335.45 197.663C1334.86 196.315 1327.75 196.019 1326.83 197.683C1325.91 199.347 1315.61 221.359 1315.49 222.455C1315.38 223.545 1307.93 236.993 1306.17 241.333C1304.42 245.68 1294.92 278.115 1294.52 281.927C1294.12 285.745 1304.99 283.991 1315.59 285.1C1326.19 286.21 1325.3 285.152 1333.03 285.958C1340.76 286.771 1347.62 276.813 1350.93 273.265C1354.25 269.724 1352.73 268.422 1349.78 256.651C1348.73 252.478 1342.21 217.954 1342.21 217.954L1342.22 217.96Z" fill="#E1A400"/>
<path fill-rule="evenodd" clip-rule="evenodd" d="M1299.01 264.773C1296.7 272.836 1294.72 280.241 1294.53 281.937C1294.28 284.33 1298.5 284.536 1304.21 284.627C1303.46 282.35 1302.76 280.879 1302.76 280.879C1301.7 279.409 1300.22 271.649 1300.22 271.649C1300.13 270.611 1299.77 268.205 1299.01 264.773Z" fill="#CC9100"/>
<path fill-rule="evenodd" clip-rule="evenodd" d="M1338.89 211.199C1342.08 218.416 1342.14 226.445 1342.14 226.445L1338.08 227.2L1337.67 240.422L1339.29 278.887L1333.17 285.982C1340.85 286.672 1347.65 276.797 1350.94 273.276C1354.26 269.735 1352.74 268.432 1349.79 256.662C1348.74 252.489 1342.23 217.964 1342.23 217.964C1342.08 215.823 1336.06 199.028 1335.46 197.667C1335.18 197.042 1333.56 196.648 1331.7 196.564C1331.7 196.564 1335.69 203.975 1338.88 211.199H1338.89Z" fill="#CC9100"/>
<path d="M1477.29 381.352C1479.11 386.124 1481.62 394.973 1479.08 397.379L1466.7 402.835C1466.7 402.835 1466.2 399.449 1463.4 400.771C1463.4 400.771 1453.82 409.44 1447.06 409.627C1447.06 409.627 1424.93 409.627 1421.3 404.357C1421.3 404.357 1420.14 399.449 1424.93 399.636C1424.93 399.636 1432.68 399.449 1435.16 398.888C1437.64 398.314 1441.6 392.677 1444.08 390.594C1444.87 389.936 1445.33 389.639 1445.46 389.407L1477.29 381.352Z" fill="#86958A"/>
<path d="M1383.86 389.69C1386.47 402.481 1383.88 404.016 1382.17 404.545C1380.36 405.119 1366.82 405.119 1366.82 405.119C1366.82 405.119 1367.81 399.275 1364.84 401.539C1364.84 401.539 1354.27 404.545 1350.48 405.119C1350.48 405.119 1330.82 406.248 1327.19 404.171C1327.19 404.171 1318.15 400.398 1324.09 396.624C1324.09 396.624 1330.02 394.541 1335.75 394.805C1335.75 394.805 1340.94 393.748 1343.76 391.297C1346.38 389.013 1351.03 386.291 1351.82 384.859L1383.86 389.69Z" fill="#86958A"/>
<path d="M1433.05 195.236C1433.05 195.236 1434.94 199.061 1435.11 204.15C1435.11 204.15 1435.28 209.794 1437.26 211.129C1437.26 211.129 1442.37 216.212 1440.73 216.399L1435.61 214.509C1435.61 214.509 1444.2 220.727 1438.58 220.54C1438.58 220.54 1439.24 222.984 1435.77 221.862C1435.77 221.862 1426.69 223.933 1425.2 218.85L1418.61 205.047L1433.05 195.243V195.236Z" fill="#FFBC79"/>
<path d="M1362.77 183.221L1351.13 192.418C1351.13 192.418 1347.43 194.998 1346.55 193.521L1337.23 180.202L1336.77 180.132C1336.77 180.132 1352.61 163.124 1354.27 161.802C1355.92 160.486 1360.87 156.539 1361.36 154.088C1361.38 153.985 1361.46 153.875 1361.42 153.766L1362.77 183.221Z" fill="#5193D3"/>
<path d="M1421.67 205.485L1421.14 205.846L1365.3 211.277C1364.75 206.536 1363.61 192.509 1362.77 183.228L1361.42 153.772C1361.92 151.27 1362.02 147.194 1361.69 144.666C1361.36 142.028 1361.82 135.03 1361.16 131.476C1360.03 125.368 1358.85 121.686 1360.5 113.204C1362.14 104.73 1362.36 91.3533 1365.65 87.5867L1366.75 82.0401L1393.55 66.9609C1393.55 66.9609 1403.63 74.7585 1407.59 84.5554C1411.55 94.3523 1414.36 102.846 1414.85 110.186C1414.85 110.186 1420.13 126.762 1420.13 129.206C1420.13 129.206 1421.62 129.593 1422.28 133.933C1422.95 138.261 1427.77 167.465 1430.91 176.32L1434.62 190.541L1421.67 205.485Z" fill="#84B3E0"/>
<path d="M1434.63 190.545L1435.61 193.989L1435.58 196.047L1421.67 205.49L1434.63 190.545Z" fill="#5193D3"/>
<path d="M1477.29 378.461C1479.11 383.234 1481.62 392.082 1479.08 394.488L1466.7 399.945C1466.7 399.945 1466.2 396.558 1463.4 397.881C1463.4 397.881 1453.82 406.549 1447.06 406.736C1447.06 406.736 1424.93 406.736 1421.3 401.467C1421.3 401.467 1420.14 396.558 1424.93 396.752C1424.93 396.752 1432.68 396.565 1435.16 396.004C1437.64 395.43 1441.6 389.793 1444.08 387.71C1444.87 387.052 1445.33 386.755 1445.46 386.516L1477.29 378.467V378.461Z" fill="#1A171B"/>
<path d="M1383.86 386.786C1386.47 399.583 1383.88 401.118 1382.17 401.64C1380.36 402.214 1366.82 402.214 1366.82 402.214C1366.82 402.214 1367.81 396.37 1364.84 398.634C1364.84 398.634 1354.27 401.64 1350.48 402.214C1350.48 402.214 1330.82 403.343 1327.19 401.266C1327.19 401.266 1319.27 398.821 1325.22 395.048C1325.22 395.048 1330.03 391.643 1335.75 391.907C1335.75 391.907 1340.94 390.849 1343.76 388.398C1346.38 386.115 1351.03 383.386 1351.83 381.961L1383.86 386.792V386.786Z" fill="#1A171B"/>
<path d="M1342.91 193.757C1342.54 194.415 1341.86 195.86 1341.86 196.982C1341.86 198.478 1336.92 203.767 1335.92 206.779C1334.93 209.791 1336.09 213.744 1334.44 213.744L1332.29 213.183C1332.29 213.183 1331.13 215.441 1330.15 213.938C1330.15 213.938 1321.72 207.34 1321.72 203.767C1321.72 203.767 1323.05 199.426 1322.88 198.291C1322.72 197.169 1323.05 195.099 1324.37 194.151C1325.69 193.209 1332.62 184.728 1334.45 184.167C1334.94 184.012 1335.32 183.786 1335.61 183.541L1342.92 193.757H1342.91Z" fill="#FFBC79"/>
<path d="M1346.56 193.532L1344.04 195.171C1344.04 195.171 1342.89 194.977 1342.56 194.042L1342.22 193.1C1342.22 193.1 1342.14 193.236 1341.95 193.455L1334.63 183.232C1335.22 182.722 1335.41 182.129 1335.43 181.896L1337.23 179.252L1346.55 193.532H1346.56Z" fill="#385B7E"/>
<path fill-rule="evenodd" clip-rule="evenodd" d="M1420.96 206.384L1398.15 123.088C1398.15 123.088 1407.24 188.783 1409.81 196.51C1412.38 204.237 1415.5 206.384 1415.5 206.384H1420.96Z" fill="#5193D3"/>
<path d="M1420.61 205.743C1421.65 209.903 1423.78 218.83 1423.27 220.41C1422.61 222.486 1424.93 230.4 1425.25 236.805C1425.58 243.215 1426.74 246.614 1428.38 251.877C1430.04 257.153 1434.67 270.342 1435.16 273.167C1435.66 275.992 1443.25 291.82 1448.21 302.371C1453.16 312.916 1462.56 329.885 1463.23 340.243C1463.89 350.601 1466.53 350.788 1467.35 354.742C1468.19 358.708 1466.2 360.211 1468.35 362.281C1470.49 364.358 1474.78 372.833 1476.45 376.412C1476.69 376.935 1476.98 377.644 1477.29 378.463L1445.46 386.512C1445.9 386.003 1445.24 385.771 1445.24 382.81C1445.24 378.476 1441.44 371.878 1441.11 369.066C1440.78 366.228 1436.33 355.49 1435.5 353.794C1434.68 352.097 1432.53 347.009 1431.54 344.745C1430.55 342.494 1425.93 329.311 1424.94 327.415C1423.95 325.538 1409.42 297.095 1407.6 293.129C1405.79 289.175 1399.01 272.787 1397.86 270.71C1396.71 268.633 1392.19 260.494 1391.69 260.313C1391.69 260.313 1390.76 273.154 1391.09 277.676C1391.42 282.21 1390.92 286.731 1389.93 290.117C1388.95 293.509 1387.96 299.346 1387.79 302.365C1387.63 305.377 1379.86 369.253 1383.33 384.32C1383.53 385.19 1383.71 386.009 1383.86 386.79L1351.83 381.959C1351.94 381.856 1351.93 381.765 1351.95 381.675C1352.29 380.353 1354.44 371.317 1355.1 369.06C1355.76 366.79 1355.43 346.815 1355.26 341.172C1355.1 335.509 1355.76 299.533 1357.25 284.835C1358.74 270.136 1360.05 243.764 1361.53 239.43C1363.02 235.102 1363.15 222.474 1364.8 219.088C1365.79 217.049 1364.4 206.782 1364.91 206.949C1378.48 211.367 1420.62 205.73 1420.62 205.73L1420.61 205.743Z" fill="#385B7E"/>
<path fill-rule="evenodd" clip-rule="evenodd" d="M1391.68 260.313L1412.49 233.799L1402.28 279.913L1391.68 260.313Z" fill="#384857"/>
<path d="M1355.25 340.58C1355.14 333.344 1355.8 299.09 1357.24 284.843C1358.73 270.145 1360.05 243.772 1361.53 239.438C1361.61 239.187 1361.7 238.903 1361.78 238.6L1360.53 305.643L1355.24 340.587L1355.25 340.58Z" fill="#384857"/>
<path d="M1352.95 377.551C1353.72 374.403 1354.69 370.449 1355.09 369.062L1361.27 379.621L1352.95 377.551H1352.95Z" fill="#748CA5"/>
<path d="M1375.43 356.75L1383.89 342.572C1383.43 348.39 1383.03 354.266 1382.77 359.762L1375.43 356.75Z" fill="#384857"/>
<path d="M1381.09 329.169L1386.59 313.715C1386.07 318.694 1385.43 324.938 1384.82 331.659L1381.09 329.176V329.169Z" fill="#748CA5"/>
<path d="M1377.44 290.551L1389.9 290.248C1388.92 293.654 1387.96 299.388 1387.79 302.361L1387.78 302.555L1377.44 290.551Z" fill="#384857"/>
<path d="M1424.71 326.985C1422.62 322.947 1409.33 296.91 1407.59 293.131L1407.1 292.021L1426.65 319.458L1424.7 326.985H1424.71Z" fill="#748CA5"/>
<path d="M1452.8 384.661L1445.45 386.512C1445.9 386.003 1445.24 385.771 1445.24 382.81C1445.24 379.192 1442.58 373.98 1441.52 370.723L1452.8 384.655V384.661Z" fill="#748CA5"/>
<path d="M1474.39 372.215C1475.23 373.847 1475.95 375.343 1476.45 376.407C1476.69 376.93 1476.98 377.639 1477.29 378.458L1456.92 383.612L1474.39 372.215Z" fill="#384857"/>
<path d="M1453.68 350.361L1467.27 354.36L1467.35 354.734C1468.19 358.701 1466.2 360.204 1468.35 362.275C1468.49 362.41 1468.64 362.571 1468.8 362.758L1453.68 350.361Z" fill="#384857"/>
<path d="M1455.03 321.775L1446.28 304.998L1453.58 313.39C1455.88 318.098 1458.22 323.123 1460.03 327.87L1455.03 321.775Z" fill="#384857"/>
<path d="M1438.73 282.025C1440.64 286.192 1442.96 291.23 1445.2 295.977L1431.08 289.882L1438.73 282.025Z" fill="#384857"/>
<path d="M1361.46 153.623C1361.93 151.113 1362.02 147.147 1361.7 144.67L1361.65 144.244C1361.65 144.244 1364.62 151.068 1367.29 153.119C1369.95 155.164 1368.4 154.603 1366.5 154.345C1364.59 154.093 1361.46 153.623 1361.46 153.623Z" fill="#5193D3"/>
<path d="M1380.06 173.328C1380.06 143.699 1385.25 152.709 1390.44 173.328C1395.63 193.948 1405.94 207.324 1405.94 207.324L1376.18 210.22C1376.18 210.22 1380.06 202.951 1380.06 173.328Z" fill="#9DC2E6"/>
<path d="M1380.06 173.328C1380.06 143.699 1385.25 152.709 1390.44 173.328C1395.63 193.948 1405.94 207.324 1405.94 207.324L1376.18 210.22C1376.18 210.22 1380.06 202.951 1380.06 173.328Z" stroke="#84B3E0" stroke-width="1.5" stroke-miterlimit="3.86"/>
<path d="M1364.96 218.548C1365.56 215.658 1364.47 206.757 1364.94 206.912C1378.51 211.337 1420.61 205.738 1420.61 205.738C1420.74 206.287 1420.95 206.912 1421.07 207.589L1364.96 218.548Z" fill="#384857"/>
<path d="M1360.06 129.184C1359.07 123.579 1359.08 119.876 1360.5 112.098L1366.12 114.82C1366.12 114.82 1365.66 128.455 1366.12 130.274C1366.58 132.093 1360.06 129.184 1360.06 129.184H1360.06Z" fill="#A9CAE9"/>
<path fill-rule="evenodd" clip-rule="evenodd" d="M1378.5 223.294L1365.5 216.625L1364.66 220.514L1379.89 226.016L1378.5 223.294Z" fill="#384857"/>
<path fill-rule="evenodd" clip-rule="evenodd" d="M1368.18 206.281L1368.25 205.656C1368.21 204.617 1368.26 203.934 1368.4 203.379C1367.95 203.482 1367.44 203.656 1366.83 203.921C1364.62 204.888 1362.51 205.52 1361.44 207.894C1360.37 210.268 1360.15 211.306 1360.32 213.473C1360.42 214.77 1360.47 216.608 1360.82 218.64L1363.18 219.207C1362.52 216.131 1362.13 212.68 1362.27 211.416C1362.52 209.216 1365.95 207.378 1366.89 206.759C1367.25 206.514 1367.61 206.398 1368.18 206.281H1368.18Z" fill="#FFC1FF"/>
<path d="M1408.18 259.276L1407.78 255.478L1404.32 269.699L1408.13 275.271L1408.18 259.276ZM1393.71 408.075C1391.88 408.075 1391.71 406.585 1391.71 406.585C1392.89 404.45 1401.54 393.209 1404.78 388.042C1408.22 382.509 1408.79 359.542 1408.79 359.542C1407.94 355.098 1407.65 314.504 1407.65 314.504C1407.65 314.504 1397.31 302.173 1387.28 292.066C1377.47 282.205 1376.39 278.148 1383.41 260.74C1390.36 243.514 1432.54 262.579 1432.54 262.579C1432.3 262.63 1436.08 261.34 1436.08 261.34C1436.27 270.828 1432.85 290.37 1432.85 290.37C1432.07 295.717 1432.19 303.192 1432.19 303.192C1432.67 308.222 1433.61 312.66 1433.61 312.66C1439.85 323.05 1452.74 354.027 1465.2 355.736C1465.2 355.736 1464.7 364.966 1462.88 374.079C1461.06 383.186 1456.49 392.899 1453.44 393.209L1451.25 392.183C1450.82 391.119 1449.54 371.802 1449.54 371.802C1449.54 362.296 1431.46 342.07 1431.46 342.07C1431.75 343.914 1429.16 353.111 1429.16 353.111C1425 362.147 1425.93 384.14 1425.93 384.14C1425.93 384.14 1425.72 387.733 1423.27 390.771C1420.83 393.815 1411.38 406.553 1407.43 406.553C1403.47 406.553 1395.55 408.075 1393.71 408.075Z" fill="#FFBC79"/>
<path d="M1451.26 392.167C1451.26 392.167 1436.23 401.113 1443.55 404.015C1443.55 404.015 1463.88 401.506 1467.04 388.949C1467.04 388.949 1467.9 375.005 1471.34 376.843C1471.34 376.843 1477.5 380.519 1478.22 383.428L1481.38 381.435C1481.38 381.435 1476.95 372.245 1476.95 368.259C1476.95 368.259 1477.42 357.488 1465.21 355.721C1465.21 355.721 1464.05 362.809 1462.92 368.601C1461.8 374.392 1459.7 384.95 1457.08 387.569C1454.46 390.181 1451.26 392.161 1451.26 392.161V392.167Z" fill="#4BA12E"/>
<path d="M1391.71 406.584C1391.64 406.726 1391.59 406.829 1391.58 406.881C1391.58 406.881 1382.83 411.131 1380.97 410.821C1380.97 410.821 1372.34 412.692 1377.51 416.677C1377.51 416.677 1401.47 420.67 1406.78 415.762C1406.78 415.762 1419.55 401.373 1420.99 406.274L1421.42 416.677L1426.3 416.529C1426.3 416.529 1426.16 405.649 1428.45 403.662C1428.45 403.662 1434.59 394.671 1425.93 384.133C1425.93 384.133 1409.28 403.533 1405.91 405.029C1402.54 406.526 1391.71 406.584 1391.71 406.584Z" fill="#4BA12E"/>
<path fill-rule="evenodd" clip-rule="evenodd" d="M1408.13 275.277L1407.65 314.484L1404.16 310.369L1407.25 273.98L1408.13 275.277Z" fill="#EA996B"/>
<path fill-rule="evenodd" clip-rule="evenodd" d="M1433 343.767C1433 343.767 1434.46 339.22 1435.78 333.363C1437.1 327.507 1437.25 319.245 1437.25 319.245L1433.62 312.66C1433.62 312.66 1435.64 320.793 1434.79 326.075C1433.16 336.137 1431.47 342.07 1431.47 342.07L1433 343.767Z" fill="#EA996B"/>
<path d="M1436.02 264.908C1436.02 264.908 1419.8 265.333 1415.07 265.204C1413.4 265.159 1410.88 265.159 1408.17 265.172L1408.19 259.277L1407.78 255.478L1405.43 265.179C1401.31 265.179 1397.27 265.159 1395.53 264.953C1392.23 264.566 1382.26 263.708 1382.26 263.708C1382.59 262.76 1383.01 261.773 1383.42 260.741C1390.37 243.513 1432.55 262.579 1432.55 262.579C1432.31 262.631 1436.09 261.341 1436.09 261.341C1436.12 262.418 1436.09 263.624 1436.03 264.914L1436.02 264.908Z" fill="#EA996B"/>
<path d="M1433.27 263.248C1434.66 263.029 1438.36 262.326 1438.23 261.32C1438.09 260.101 1436.8 254.122 1438.38 250.143C1439.96 246.157 1440.21 214.902 1442.65 210.459C1442.65 210.459 1450.68 200.191 1443.94 182.719C1443.94 182.719 1436.19 156.056 1436.77 149.787C1437.35 143.499 1438.49 140.126 1437.06 138.752C1435.61 137.365 1435.77 134.915 1438.2 131.245C1440.64 127.569 1447.95 113.915 1446.53 99.0549C1445.09 84.2015 1439.21 64.1175 1439.21 64.1175C1439.21 64.1175 1437.63 63.1372 1435.77 64.0594L1412.15 72.3214L1412.09 72.5664C1412.09 72.5664 1404.41 82.5956 1399.06 88.5872C1391.51 97.0491 1385.43 94.1016 1393.16 116.346C1393.16 116.346 1395.02 134.308 1394.59 135.682C1394.17 137.062 1394.02 137.836 1395.3 139.055C1396.59 140.274 1395.44 142.428 1396.02 143.647C1396.59 144.866 1397.17 162.338 1397.17 162.338C1397.17 162.338 1397.74 163.725 1397.89 164.176C1397.89 164.176 1396.6 178.894 1395.6 181.036C1394.59 183.177 1395.65 184.538 1395.93 186.066C1396.21 187.601 1394.14 200.184 1390.86 220.72C1390.86 220.72 1382.54 259.637 1381.96 260.249C1381.96 260.249 1383.57 261.694 1384.28 262.004L1433.25 263.248H1433.27Z" fill="#4BA12E"/>
<path fill-rule="evenodd" clip-rule="evenodd" d="M1426.16 76.9423C1418.97 74.6527 1406.29 80.1413 1408.51 95.5043C1410.73 110.867 1415.61 135.511 1415.61 137.723C1415.61 139.935 1406.85 156.517 1405.19 159.168C1403.52 161.819 1396.31 174.905 1396.31 174.905L1395.57 190.055C1395.57 190.055 1423.27 160.71 1428.26 153.093C1433.26 145.469 1434.93 142.154 1433.82 130.661C1432.7 119.174 1437.15 94.5239 1436.59 90.106C1436.03 85.6815 1436.59 80.2703 1426.16 76.9552V76.9423Z" fill="#36812B"/>
<path fill-rule="evenodd" clip-rule="evenodd" d="M1422.06 75.2528C1414.87 72.9696 1402.19 78.4518 1404.41 93.8147C1406.63 109.178 1411.51 133.822 1411.51 136.027C1411.51 138.233 1402.74 154.828 1401.07 157.472C1399.41 160.116 1379.67 186.708 1379.67 186.708L1389.27 192.493C1389.27 192.493 1419.16 159.007 1424.16 151.384C1429.15 143.76 1430.82 140.445 1429.71 128.952C1428.6 117.459 1433.04 92.815 1432.49 88.3971C1431.93 83.9791 1432.49 78.5614 1422.06 75.2464V75.2528Z" fill="#84CF29"/>
<path fill-rule="evenodd" clip-rule="evenodd" d="M1388.84 192.061L1385.85 195.602C1384.38 197.486 1381.74 198.517 1381.78 200.117C1381.82 201.781 1379.65 202.594 1378.94 203.181C1378.23 203.767 1377.48 205.664 1376.98 206.283C1376.48 206.902 1376.35 208.076 1375.3 207.695C1374.25 207.308 1373.92 205.322 1374.27 204.567C1374.63 203.813 1375.02 202.548 1375.02 202.548C1375.02 202.548 1372.52 204.367 1372.3 205.296C1372.08 206.225 1371.9 207.566 1372.27 208.063C1372.63 208.559 1372.72 209.437 1373.74 211.662C1374.74 213.88 1374.25 214.306 1373.77 214.454C1373.29 214.603 1372.67 213.932 1372.4 213.19C1372.14 212.449 1371.58 211.649 1371.46 211.075C1371.33 210.507 1370.31 208.037 1370.31 208.037L1370.98 211.681C1370.98 211.681 1372.12 214.325 1372.03 214.699C1371.94 215.074 1371 216.75 1369.91 213.532C1369.26 211.617 1367.94 209.063 1367.94 209.063C1367.94 209.063 1368.39 213.809 1368.26 214.732C1368.13 215.648 1367.53 215.951 1367.05 215.777C1366.57 215.596 1366.2 214.77 1366.16 213.971C1365.9 208.882 1365.33 206.173 1364.22 213.119C1364.1 213.874 1362.54 215.912 1362.21 214.383C1361.87 212.848 1362.93 208.895 1362.92 207.611C1362.92 206.321 1363.79 201.259 1364.25 200.259C1364.71 199.259 1368.13 197.228 1369.36 196.512C1370.58 195.789 1371.83 195.073 1373.1 194.57C1373.26 194.506 1376.57 192.287 1377.33 191.171L1380.56 186.908L1388.84 192.074V192.061Z" fill="#F4C18B"/>
<path fill-rule="evenodd" clip-rule="evenodd" d="M1353.57 303.368C1353.26 303.329 1352.58 303.316 1352.18 303.162C1351.78 303 1349.25 302.059 1348.73 301.833C1348.2 301.607 1347.34 301.652 1346.72 301.678C1346.1 301.698 1344.15 302.536 1344.15 302.536C1343.24 302.775 1342.52 302.962 1342.54 302.22C1342.56 301.162 1343.65 280.478 1343.68 278.692L1344.68 222.129C1344.7 220.523 1344.93 218.195 1344.93 218.195C1345.45 218.472 1346.37 218.749 1346.97 218.878C1347.87 219.02 1348.93 219.001 1350.3 218.827C1352.8 218.511 1354.45 217.814 1355.17 217.124C1355.47 216.827 1355.89 216.756 1356.31 216.782C1356.28 216.95 1355.96 222.161 1355.76 223.561C1355.55 224.986 1355.72 256.75 1355.65 260.685C1355.58 264.619 1354.56 291.888 1354.69 294.216C1354.84 296.551 1355.15 297.957 1354.25 298.847C1353.34 299.737 1354.33 303.278 1354.33 303.278C1354.33 303.278 1353.88 303.4 1353.57 303.368H1353.57Z" fill="#FF93E3"/>
<path fill-rule="evenodd" clip-rule="evenodd" d="M1383.47 225.182C1387.9 226.904 1394.99 229.42 1395.79 229.439C1396.88 229.458 1397.06 229.639 1398.13 229.658C1399.19 229.678 1399.38 229.865 1399.35 231.29C1399.32 232.715 1400.61 291.445 1400.76 293.412C1400.91 295.386 1401.07 296.45 1401.41 298.063C1401.75 299.675 1401.18 300.571 1399.93 300.552C1398.69 300.526 1397.24 300.139 1396.17 300.301C1395.1 300.462 1359.75 303.087 1358.13 303.216C1356.61 303.338 1355.23 303.164 1354.33 303.28C1354.33 303.28 1353.35 299.739 1354.25 298.849C1355.15 297.959 1354.84 296.553 1354.7 294.219C1354.56 291.884 1355.59 264.621 1355.65 260.687C1355.72 256.753 1355.55 224.989 1355.76 223.563C1355.97 222.145 1356.31 216.785 1356.31 216.785C1356.84 216.804 1357.31 216.985 1357.31 216.985C1357.31 216.985 1359.25 218.081 1360.15 218.275C1361.05 218.475 1378.06 222.841 1380.06 223.808C1380.08 216.882 1380.08 208.942 1380.15 207.968C1380.29 206.324 1380.11 206.066 1378.9 205.408C1378.5 205.195 1378.33 205.318 1377.41 204.744L1378.83 201.848C1379.24 202.215 1379.32 202.08 1379.64 202.467C1380.81 203.905 1381.09 205.556 1381.59 206.569C1382.08 207.581 1383.32 211.754 1383.49 213.625C1383.61 214.921 1383.59 220.506 1383.48 225.182H1383.47Z" fill="#FF68D8"/>
<path fill-rule="evenodd" clip-rule="evenodd" d="M1380.6 301.759C1383.42 295.858 1386.11 289.84 1386.11 289.84C1386.11 289.84 1391.01 280.649 1393 276.838C1394.99 273.026 1396.53 270.498 1396.69 266.789C1396.76 265.067 1398.18 262.674 1399.96 260.32C1400.27 276.012 1400.68 292.381 1400.76 293.407C1400.91 295.38 1401.07 296.444 1401.41 298.057C1401.75 299.669 1401.18 300.566 1399.93 300.546C1398.69 300.521 1397.24 300.134 1396.17 300.295C1395.7 300.366 1388.59 301.146 1380.61 301.752L1380.6 301.759Z" fill="#FF3ECD"/>
<path fill-rule="evenodd" clip-rule="evenodd" d="M1395.11 300.396C1391.66 300.686 1380.54 301.531 1371.37 302.221C1366.51 292.521 1361.23 281.241 1359.95 279.022L1355.33 270.973C1355.49 266.104 1355.63 262.028 1355.65 260.68C1355.72 256.745 1355.54 224.981 1355.76 223.556C1355.96 222.137 1356.31 216.777 1356.31 216.777C1356.58 216.79 1356.71 217.268 1356.94 217.319C1361.44 227.342 1375.76 262.492 1381.31 273.372C1385.01 280.635 1390.86 292.366 1395.12 300.39L1395.11 300.396Z" fill="#FF3ECD"/>
<path fill-rule="evenodd" clip-rule="evenodd" d="M1344.16 251.486L1344.68 222.121C1344.7 220.515 1344.93 218.187 1344.93 218.187C1345.45 218.464 1346.37 218.742 1346.97 218.871C1347.88 219.012 1348.93 218.993 1350.3 218.819C1352.81 218.503 1354.45 217.806 1355.17 217.116C1355.48 216.82 1355.9 216.749 1356.31 216.774C1356.29 216.942 1355.97 222.153 1355.76 223.553C1355.55 224.978 1355.73 256.743 1355.65 260.677C1355.63 262.025 1355.5 266.101 1355.33 270.97C1352.17 265.443 1347.88 258.052 1344.16 251.48V251.486Z" fill="#FFA9E9"/>
<path fill-rule="evenodd" clip-rule="evenodd" d="M1388.9 227.21C1392.17 228.397 1395.28 229.429 1395.79 229.442C1396.88 229.461 1397.06 229.641 1398.13 229.661C1399.19 229.68 1399.38 229.867 1399.35 231.293C1399.34 232.002 1399.65 247.017 1399.99 262.115H1402.11C1401.76 246.243 1401.41 229.609 1401.42 228.855C1401.45 227.429 1401.27 227.242 1400.2 227.223C1399.14 227.204 1398.96 227.023 1397.87 227.004C1397.29 226.991 1393.51 227.378 1389.78 226.004L1388.91 227.216L1388.9 227.21Z" fill="#36812B"/>
<path d="M-91 430.014L955.151 430.014V410.067L-91 410.067V430.014Z" fill="#868686"/>
<path d="M985.465 505.05V438.377L-60.5631 438.377V505.05L985.465 505.05Z" fill="#503922"/>
<path d="M985.465 409.621H-90.9819L-60.5632 438.542L985.465 438.891V409.621Z" fill="#925B3D"/>
<path d="M2062 410.07H1015.85V430.017H2062V410.07Z" fill="#868686"/>
<path d="M2031.56 505.05V438.377L985.535 438.377V505.05L2031.56 505.05Z" fill="#503922"/>
<path d="M985.535 409.621H2061.98L2031.56 438.542L985.535 438.891V409.621Z" fill="#925B3D"/>
<path d="M-60.6862 458.309L985.465 458.309V438.362L-60.6862 438.362V458.309Z" fill="#B1B1B1"/>
<path d="M-60.6862 395.471L985.465 395.471V380.378L-60.6862 380.378V395.471Z" fill="#B1B1B1"/>
<path d="M-60.6862 337.459L985.465 337.459V322.367L-60.6862 322.367V337.459Z" fill="#B1B1B1"/>
<path d="M306.43 450.029V269.498H284.358V450.029H306.43Z" fill="#B1B1B1"/>
<path d="M651.456 450.029V269.498H629.385V450.029H651.456Z" fill="#B1B1B1"/>
<path d="M-53.2704 279.447L985.465 279.447V250.803L-53.2704 250.803V279.447Z" fill="#B1B1B1"/>
<path d="M2024.27 250.812H985.535V279.457H2024.27V250.812Z" fill="#B1B1B1"/>
<path d="M2031.69 438.377H985.535V458.324H2031.69V438.377Z" fill="#B1B1B1"/>
<path d="M2031.69 380.369H985.535V395.462H2031.69V380.369Z" fill="#B1B1B1"/>
<path d="M2031.69 322.369H985.535V337.462H2031.69V322.369Z" fill="#B1B1B1"/>
<path d="M1686.64 450.017V269.486H1664.57V450.017H1686.64Z" fill="#B1B1B1"/>
<path d="M1341.62 450.029V269.498H1319.54V450.029H1341.62Z" fill="#B1B1B1"/>
<path d="M996.571 450.017V269.486H974.499V450.017H996.571Z" fill="#B1B1B1"/>
</g>
</svg>
