<?xml version="1.0" encoding="utf-8"?>
<!-- Generator: Adobe Illustrator 27.6.1, SVG Export Plug-In . SVG Version: 6.00 Build 0)  -->
<svg version="1.1" id="Layer_1" xmlns="http://www.w3.org/2000/svg" xmlns:xlink="http://www.w3.org/1999/xlink" x="0px" y="0px"
	 viewBox="0 0 1998 919.4" style="enable-background:new 0 0 1998 919.4;" xml:space="preserve">
<style type="text/css">
	.st0{clip-path:url(#SVGID_00000089564863907342993520000008806822678640994973_);}
	.st1{clip-path:url(#SVGID_00000041254985073097520880000012770093602554012303_);}
	.st2{fill-rule:evenodd;clip-rule:evenodd;fill:#7EBEC5;}
	.st3{fill-rule:evenodd;clip-rule:evenodd;fill:#6B6B6B;}
	.st4{fill:#7CD0D9;}
	.st5{fill-rule:evenodd;clip-rule:evenodd;fill:#75B3BA;}
	.st6{fill-rule:evenodd;clip-rule:evenodd;fill:#5E8E94;}
	.st7{fill-rule:evenodd;clip-rule:evenodd;fill:#CECECE;}
	.st8{fill-rule:evenodd;clip-rule:evenodd;fill:#B6B7B9;}
	.st9{fill-rule:evenodd;clip-rule:evenodd;fill:#5E5E5E;}
	.st10{fill-rule:evenodd;clip-rule:evenodd;fill:#689E16;}
	.st11{fill-rule:evenodd;clip-rule:evenodd;fill:#A8A8A8;}
	.st12{fill-rule:evenodd;clip-rule:evenodd;fill:#D8E0ED;}
	.st13{fill-rule:evenodd;clip-rule:evenodd;fill:#ADB7C7;}
	.st14{fill-rule:evenodd;clip-rule:evenodd;fill:#ABB1BA;}
	.st15{fill-rule:evenodd;clip-rule:evenodd;fill:#838994;}
	.st16{fill-rule:evenodd;clip-rule:evenodd;fill:#454545;}
	.st17{fill-rule:evenodd;clip-rule:evenodd;fill:#757575;}
	.st18{fill-rule:evenodd;clip-rule:evenodd;fill:#525252;}
	.st19{fill:#736356;}
	.st20{fill:#4B7A05;}
	.st21{fill:#5B861A;}
	.st22{fill:#ADB7C7;}
	.st23{fill:#D8E0ED;}
	.st24{fill-rule:evenodd;clip-rule:evenodd;fill:#FDCD0B;}
	.st25{fill-rule:evenodd;clip-rule:evenodd;fill:#616161;}
	.st26{fill-rule:evenodd;clip-rule:evenodd;fill:#FC2C19;}
	.st27{fill-rule:evenodd;clip-rule:evenodd;fill:#FC6900;}
	.st28{fill-rule:evenodd;clip-rule:evenodd;fill:#FBFBFB;}
	.st29{fill-rule:evenodd;clip-rule:evenodd;fill:#005CA1;}
	.st30{fill-rule:evenodd;clip-rule:evenodd;fill:#969696;}
	.st31{fill-rule:evenodd;clip-rule:evenodd;fill:#363636;}
	.st32{fill-rule:evenodd;clip-rule:evenodd;fill:#F2D291;}
	.st33{fill-rule:evenodd;clip-rule:evenodd;fill:#D4A15E;}
	.st34{fill-rule:evenodd;clip-rule:evenodd;fill:#704E26;}
	.st35{fill-rule:evenodd;clip-rule:evenodd;fill:#FFFFFF;}
	.st36{fill-rule:evenodd;clip-rule:evenodd;fill:#573515;}
	.st37{fill-rule:evenodd;clip-rule:evenodd;fill:#124175;}
	.st38{fill-rule:evenodd;clip-rule:evenodd;fill:#0B5487;}
	.st39{fill-rule:evenodd;clip-rule:evenodd;fill:#8A6030;}
	.st40{fill-rule:evenodd;clip-rule:evenodd;fill:#5E401E;}
	.st41{fill-rule:evenodd;clip-rule:evenodd;fill:#423435;}
	.st42{fill:#423435;}
	.st43{fill-rule:evenodd;clip-rule:evenodd;fill:#3B3732;}
	.st44{fill-rule:evenodd;clip-rule:evenodd;fill:#306AAD;}
	.st45{fill-rule:evenodd;clip-rule:evenodd;fill:#5B861A;}
	.st46{fill-rule:evenodd;clip-rule:evenodd;fill:#F6E7D8;}
	.st47{fill-rule:evenodd;clip-rule:evenodd;fill:#262626;}
	.st48{fill-rule:evenodd;clip-rule:evenodd;fill:#303030;}
	.st49{fill-rule:evenodd;clip-rule:evenodd;fill:#666666;}
	.st50{fill-rule:evenodd;clip-rule:evenodd;fill:#4B7A05;}
	.st51{fill-rule:evenodd;clip-rule:evenodd;fill:#FADCAD;}
	.st52{fill-rule:evenodd;clip-rule:evenodd;fill:#12466E;}
	.st53{fill-rule:evenodd;clip-rule:evenodd;fill:#1B5E91;}
	.st54{fill-rule:evenodd;clip-rule:evenodd;fill:#BE3320;}
	.st55{fill-rule:evenodd;clip-rule:evenodd;fill:#D67065;}
	.st56{fill:#F2D291;}
	.st57{fill:#DB3A28;}
	.st58{fill:#BE3320;}
	.st59{fill:#D4A15E;}
	.st60{fill:#D9B875;}
	.st61{fill:#F4F4F4;}
	.st62{fill:#363636;}
	.st63{fill-rule:evenodd;clip-rule:evenodd;fill:#6C3B12;}
	.st64{fill-rule:evenodd;clip-rule:evenodd;fill:#F4F4F4;}
	.st65{fill-rule:evenodd;clip-rule:evenodd;fill:#EB3C2C;}
	.st66{fill-rule:evenodd;clip-rule:evenodd;fill:#4A453E;}
</style>
<g>
	<defs>
		<rect id="SVGID_1_" width="1998" height="919.4"/>
	</defs>
	<clipPath id="SVGID_00000130642785101624580510000017003112913515231396_">
		<use xlink:href="#SVGID_1_"  style="overflow:visible;"/>
	</clipPath>
	<g style="clip-path:url(#SVGID_00000130642785101624580510000017003112913515231396_);">
		<defs>
			<rect id="SVGID_00000152965700346410727470000002205251201724870577_" width="1998" height="1327"/>
		</defs>
		<clipPath id="SVGID_00000102530010943121244140000010769150372642421383_">
			<use xlink:href="#SVGID_00000152965700346410727470000002205251201724870577_"  style="overflow:visible;"/>
		</clipPath>
		<g style="clip-path:url(#SVGID_00000102530010943121244140000010769150372642421383_);">
			<path class="st2" d="M0,0h1998v1326.9H0V0z"/>
			<path class="st3" d="M1998,605.5H0V1327h1998V605.5z"/>
			<path class="st4" d="M1242.5,255.5V284h-9.6v38.7h-46v46.4h-37.3V320h-43.6v19.6h-13.5v-57h-30.9h-24.2h-24.2v78.9h-65.7v36h-14
				v-4.4h-29.6v-62.7h-93.4V298h-13.3v-25.6H683.8v90.7h-21.4v41.4h-10.8v-80h-36v-44.2h-54.9v27.6l-28.6-24.7l-20.2,23.3h-8v-27.8
				h-20.8v10.5h-15.2v-5.6h-11.3v26.2H449v60.6h-30.3V394h-24.6v-16h-22.7v-86.7H343V275h-28.4h-90.9v65.4h-17v39.4h-40.7v21.4h-31
				v-29.1H88.7v32.5h-7v-21.3H67.7V269.4H0v336.1h1266.2H1998V272.4h-48v90.7h-21.4v41.4h-10.8v-80h-36v-44.2h-54.9v27.6l-28.6-24.7
				l-20.2,23.3h-8v-27.8h-20.8v10.5h-15.2v-5.6h-11.3v26.2h-7.6v60.6h-30.3V394h-24.6v-16h-22.7v-86.7h-28.4V275h-28.4h-90.9v65.4
				h-17.1v39.4h-40.7v21.4h-31v-29.1h-46.3v32.5h-7v-21.3h-14V269.4h-67.7v-13.9H1242.5z"/>
			<path class="st5" d="M0,411.5h10v22.3h154v33.8h21.2v-18.8H231v-18.5h28.3l14.1-12.3l23.3-20.3l23.3,20.3l14.1,12.3h28.3v37.3
				h33.1v-17.4h35.7v-43.7h131.5v23.8h120.7v21.9H724v15.4h66.1v-37.3h31c0-18.9,13.9-34.3,31.1-34.3c17.2,0,31.1,15.4,31.1,34.3
				h38.3v22.6h46.8v14.7h45.5v-37.3h120.6v-23.8h104.5V389h27.1v22.6h10v22.3h154v33.8h21.2v-18.8h45.8v-18.5h28.3l14.1-12.3
				l23.3-20.3l23.3,20.3l14.1,12.3h28.3v37.3h33.2v-17.4h35.7v-43.7H1829v23.8h120.7v21.9h40.4v15.4h7.9v137.9H0V411.5L0,411.5z"/>
			<path class="st6" d="M849.5,555.3h3.8c1.8,0,3.2,1.2,3.2,2.7v0.9c0,1.5-1.4,2.7-3.2,2.7h-2.9c8.4,6.3,5.8,13.8,5.6,23.2
				c0.9,0.5,1.5,1.4,1.5,2.4v4.3c0,1.5-1.5,2.8-3.2,2.8v8.2c0,1.7-1.3,3.1-2.9,3.1h-8.8c-1.6,0-2.9-1.4-2.9-3.1v-8.2h-58v8.2
				c0,1.7-1.3,3.1-2.9,3.1h-8.8c-1.6,0-2.9-1.4-2.9-3.1v-8.2h-0.7c-1.8,0-3.2-1.2-3.2-2.8v-4.3c0-1,0.6-1.9,1.5-2.4
				c-0.1-9.4-2.7-16.9,5.6-23.2h-3.8c-1.8,0-3.2-1.2-3.2-2.7V558c0-1.5,1.4-2.7,3.2-2.7h3.8c1.6,0,2.9,0.9,3.1,2.2
				c7.7-22.3,6-22.7,36.8-22.7s29.2,0.5,36.5,21.7C847.5,555.7,848.5,555.3,849.5,555.3L849.5,555.3z"/>
			<path class="st6" d="M1273,569.4h2.7c1.3,0,2.3,0.9,2.3,2v0.7c0,1.1-1,2-2.3,2h-2.1c6,4.5,4.2,9.9,4.1,16.7
				c0.7,0.4,1.1,1,1.1,1.7v3.1c0,1.1-1.1,2-2.3,2v5.9c0,1.2-0.9,2.2-2.1,2.2h-6.3c-1.1,0-2.1-1-2.1-2.2v-5.9h-41.7v5.9
				c0,1.2-0.9,2.2-2.1,2.2h-6.3c-1.1,0-2.1-1-2.1-2.2v-5.9h-0.5c-1.3,0-2.3-0.9-2.3-2v-3.1c0-0.7,0.4-1.3,1.1-1.7
				c-0.1-6.8-1.9-12.1,4.1-16.7h-2.7c-1.3,0-2.3-0.9-2.3-2v-0.7c0-1.1,1-2,2.3-2h2.7c1.1,0,2,0.7,2.2,1.6c5.5-16,4.3-16.3,26.5-16.3
				c22.2,0,21,0.3,26.2,15.6C1271.6,569.7,1272.2,569.4,1273,569.4L1273,569.4z"/>
			<path class="st6" d="M1071,578h2.1c1,0,1.7,0.7,1.7,1.5v0.5c0,0.8-0.8,1.5-1.7,1.5h-1.6c4.6,3.5,3.2,7.5,3.1,12.7
				c0.5,0.3,0.9,0.7,0.9,1.3v2.3c0,0.8-0.8,1.5-1.8,1.5v4.5c0,0.9-0.7,1.7-1.6,1.7h-4.8c-0.8,0-1.6-0.8-1.6-1.7v-4.5h-31.8v4.5
				c0,0.9-0.7,1.7-1.6,1.7h-4.8c-0.9,0-1.6-0.8-1.6-1.7v-4.5h-0.4c-1,0-1.8-0.7-1.8-1.5v-2.3c0-0.5,0.3-1,0.9-1.3
				c-0.1-5.1-1.5-9.3,3.1-12.7h-2.1c-1,0-1.8-0.7-1.8-1.5v-0.5c0-0.8,0.8-1.5,1.8-1.5h2.1c0.9,0,1.6,0.5,1.7,1.2
				c4.2-12.2,3.3-12.4,20.2-12.4c16.9,0,16,0.3,20,11.9C1069.9,578.3,1070.4,578.1,1071,578L1071,578z"/>
			<path class="st7" d="M630.1,605.6L0,605.6v136.8L630.1,605.6z"/>
			<path class="st8" d="M629.9,605.7L0,739.3v20.9l645.8-154.7L629.9,605.7z"/>
			<path class="st9" d="M645.8,605.5l12.3,0.1L0,778.9v-18.7L645.8,605.5z"/>
			<path class="st10" d="M0,666l557.2-60.4H0V666z"/>
			<path class="st11" d="M216.2,676.1c12.9,0,23.4,1.7,23.4,3.8c0,2.1-10.5,3.8-23.4,3.8s-23.4-1.7-23.4-3.8
				C192.8,677.7,203.3,676.1,216.2,676.1z"/>
			<path class="st12" d="M226,362.6h-19.6v317.2H226V362.6z"/>
			<path class="st13" d="M213.5,362.6h-7.1v317.2h7.1V362.6z"/>
			<path class="st14" d="M226,398.1h-19.6v9.8H226V398.1z"/>
			<path class="st15" d="M213.6,398.1h-7.2v9.8h7.2V398.1z"/>
			<path class="st16" d="M237.6,350.1v-23.3h17.7l-8.6,23.3H237.6z"/>
			<path class="st17" d="M241.2,324.5h-4v27.8h4c0.9,0,1.6-0.6,1.6-1.5V326C242.8,325.1,242.1,324.5,241.2,324.5z"/>
			<path class="st16" d="M237.6,387.4v-23.3h17.7l-8.6,23.3H237.6z"/>
			<path class="st17" d="M241.2,361.8h-4v27.8h4c0.9,0,1.6-0.6,1.6-1.5v-24.9C242.8,362.5,242.1,361.8,241.2,361.8z"/>
			<path class="st18" d="M203.9,398.1h27.2c3.5,0,6.4-2,6.4-4.5v-73.2c0-2.5-2.9-4.5-6.4-4.5h-27.2c-3.5,0-6.4,2-6.4,4.5v73.2
				C197.5,396.1,200.4,398.1,203.9,398.1z"/>
			<path class="st19" d="M113,637.3h-12.9v-77.9H113V637.3z"/>
			<path class="st20" d="M106.6,420c0,0-43.7,54.6-43.7,99.3c0,39.1,31.7,63.6,43.7,63.6c12,0,43.7-24.5,43.7-63.6
				C150.3,474.5,106.6,420,106.6,420z"/>
			<path class="st21" d="M62.9,519.3c0,20.7,8.9,37.3,19,48.3c25.7-15.6,43.5-48.5,43.5-86.5c0-19.7-4.8-38.1-13-53.3
				c-3.5-4.9-5.8-7.7-5.8-7.7S62.9,474.6,62.9,519.3z"/>
			<path class="st19" d="M487.9,605.6h-3.8v-22.8h3.8V605.6z"/>
			<path class="st20" d="M486,542.1c0,0-12.8,15.9-12.8,29c0,11.4,9.2,18.6,12.8,18.6c3.5,0,12.8-7.2,12.8-18.6
				C498.7,558,486,542.1,486,542.1z"/>
			<path class="st21" d="M473.2,571.1c0,6,2.6,10.9,5.6,14.1c7.5-4.6,12.7-14.2,12.7-25.3c0-5.8-1.4-11.1-3.8-15.6
				c-1-1.4-1.7-2.3-1.7-2.3S473.2,558.1,473.2,571.1L473.2,571.1z"/>
			<path class="st19" d="M380.6,605.6h-2.9V588h2.9V605.6z"/>
			<path class="st20" d="M379.1,556.4c0,0-9.9,12.4-9.9,22.5c0,8.9,7.2,14.4,9.9,14.4c2.7,0,9.9-5.6,9.9-14.4
				C389,568.7,379.1,556.4,379.1,556.4z"/>
			<path class="st21" d="M369.2,578.9c0,4.7,2,8.5,4.3,11c5.8-3.5,9.9-11,9.9-19.6c0-4.5-1.1-8.6-3-12.1c-0.8-1.1-1.3-1.7-1.3-1.7
				S369.2,568.7,369.2,578.9L369.2,578.9z"/>
			<path class="st19" d="M292.7,616.9h-5v-30h5V616.9z"/>
			<path class="st20" d="M290.2,533.1c0,0-16.8,21-16.8,38.3c0,15.1,12.2,24.5,16.8,24.5s16.8-9.5,16.8-24.5
				C307,554.1,290.2,533.1,290.2,533.1z"/>
			<path class="st21" d="M273.3,571.4c0,8,3.4,14.4,7.3,18.6c9.9-6,16.8-18.7,16.8-33.3c0-7.6-1.8-14.7-5-20.6c-1.4-1.9-2.2-3-2.2-3
				S273.4,554.2,273.3,571.4L273.3,571.4z"/>
			<path class="st7" d="M1367.9,605.6l630.1,0v136.8L1367.9,605.6z"/>
			<path class="st8" d="M1368.1,605.7L1998,739.3v20.9l-645.8-154.7L1368.1,605.7z"/>
			<path class="st9" d="M1352.2,605.5l-12.3,0.1L1998,778.9v-18.7L1352.2,605.5z"/>
			<path class="st10" d="M1998,666l-557.2-60.4H1998V666z"/>
			<path class="st19" d="M1900.6,637.3h12.9v-77.9h-12.9V637.3z"/>
			<path class="st20" d="M1907,420c0,0,43.7,54.6,43.7,99.3c0,39.1-31.7,63.6-43.7,63.6s-43.7-24.5-43.7-63.6
				C1863.3,474.5,1907,420,1907,420z"/>
			<path class="st21" d="M1950.7,519.3c0,20.7-8.9,37.3-19,48.3c-25.7-15.6-43.5-48.5-43.5-86.5c0-19.7,4.8-38.1,13-53.3
				c3.5-4.9,5.8-7.7,5.8-7.7S1950.7,474.6,1950.7,519.3z"/>
			<path class="st19" d="M1525.7,605.6h3.8v-22.8h-3.8V605.6z"/>
			<path class="st20" d="M1527.6,542.1c0,0,12.8,15.9,12.8,29c0,11.4-9.2,18.6-12.8,18.6c-3.5,0-12.8-7.2-12.8-18.6
				C1514.8,558,1527.6,542.1,1527.6,542.1z"/>
			<path class="st21" d="M1540.4,571.1c0,6-2.6,10.9-5.5,14.1c-7.5-4.6-12.7-14.2-12.7-25.3c0-5.8,1.4-11.1,3.8-15.6
				c1-1.4,1.7-2.3,1.7-2.3S1540.3,558.1,1540.4,571.1L1540.4,571.1z"/>
			<path class="st19" d="M1633,605.6h2.9V588h-2.9V605.6z"/>
			<path class="st20" d="M1634.4,556.4c0,0,9.9,12.4,9.9,22.5c0,8.9-7.2,14.4-9.9,14.4c-2.7,0-9.9-5.6-9.9-14.4
				C1624.6,568.7,1634.4,556.4,1634.4,556.4z"/>
			<path class="st21" d="M1644.3,578.9c0,4.7-2,8.5-4.3,11c-5.8-3.5-9.9-11-9.9-19.6c0-4.5,1.1-8.6,2.9-12.1
				c0.8-1.1,1.3-1.7,1.3-1.7S1644.3,568.7,1644.3,578.9L1644.3,578.9z"/>
			<path class="st19" d="M1720.9,616.9h5v-30h-5V616.9z"/>
			<path class="st20" d="M1723.4,533.1c0,0,16.8,21,16.8,38.3c0,15.1-12.2,24.5-16.8,24.5c-4.6,0-16.8-9.5-16.8-24.5
				C1706.6,554.1,1723.4,533.1,1723.4,533.1z"/>
			<path class="st21" d="M1740.2,571.4c0,8-3.4,14.4-7.3,18.6c-9.9-6-16.8-18.7-16.8-33.3c0-7.6,1.8-14.7,5-20.6
				c1.4-1.9,2.2-3,2.2-3S1740.2,554.2,1740.2,571.4L1740.2,571.4z"/>
			<path class="st22" d="M1312.3,154.2h419.1c26.3,0,47.7,20,47.7,44.6v103.8h17.6V198.8c0-33.5-29.4-61-65.3-61h-419.1V154.2z"/>
			<path class="st23" d="M1312.3,154.2h419.1c26.3,0,47.7,20,47.7,44.6v103.8h13v-98.8c0-33.5-29.4-61-65.3-61h-414.5V154.2z"/>
			<path class="st24" d="M1248.2,94h195c9.3,0,16.9,7.6,16.9,16.9v65.4c0,9.3-7.6,16.9-16.9,16.9h-195c-9.3,0-16.9-7.6-16.9-16.9
				V111C1231.3,101.6,1238.9,94,1248.2,94z"/>
			<path class="st16" d="M1247.8,170.8v-54.2c0-3.7,3-6.7,6.7-6.7h182.4c3.7,0,6.7,3,6.7,6.7v54.2c0,3.7-3,6.7-6.7,6.7h-182.4
				C1250.7,177.5,1247.8,174.4,1247.8,170.8z"/>
			<path class="st25" d="M1253.5,169.1v-50.9c0-1.8,1.4-3.3,3.2-3.3h51.4c1.8,0,3.2,1.4,3.2,3.3v50.9c0,1.8-1.4,3.3-3.2,3.3h-51.4
				C1255,172.3,1253.5,170.9,1253.5,169.1z"/>
			<path class="st25" d="M1316.7,168.1v-49c0-2.3,1.9-4.2,4.2-4.2h49.6c2.3,0,4.2,1.9,4.2,4.2v49c0,2.3-1.9,4.2-4.2,4.2h-49.6
				C1318.6,172.3,1316.7,170.4,1316.7,168.1z"/>
			<path class="st17" d="M1258.5,143.6c0-13.3,10.8-24,24-24c13.3,0,24,10.8,24,24c0,13.3-10.8,24-24,24
				C1269.2,167.7,1258.5,156.9,1258.5,143.6z"/>
			<path class="st26" d="M1260.8,143.6c0-12,9.7-21.7,21.7-21.7c12,0,21.7,9.7,21.7,21.7c0,12-9.7,21.7-21.7,21.7
				C1270.6,165.3,1260.8,155.6,1260.8,143.6z"/>
			<path class="st17" d="M1321.7,143.6c0-13.3,10.8-24,24-24c13.3,0,24,10.8,24,24c0,13.3-10.8,24-24,24
				C1332.4,167.7,1321.7,156.9,1321.7,143.6z"/>
			<path class="st18" d="M1324,143.6c0-12,9.7-21.7,21.7-21.7c12,0,21.7,9.7,21.7,21.7c0,12-9.7,21.7-21.7,21.7
				C1333.7,165.3,1324,155.6,1324,143.6z"/>
			<path class="st25" d="M1380.4,168.1v-49c0-2.3,1.9-4.2,4.2-4.2h49.6c2.3,0,4.2,1.9,4.2,4.2v49c0,2.3-1.9,4.2-4.2,4.2h-49.6
				C1382.3,172.3,1380.4,170.4,1380.4,168.1z"/>
			<path class="st17" d="M1385.3,143.6c0-13.3,10.8-24,24-24c13.3,0,24,10.8,24,24c0,13.3-10.8,24-24,24
				C1396.1,167.7,1385.3,156.9,1385.3,143.6z"/>
			<path class="st18" d="M1387.7,143.6c0-12,9.7-21.7,21.7-21.7c12,0,21.7,9.7,21.7,21.7c0,12-9.7,21.7-21.7,21.7
				C1397.4,165.3,1387.7,155.6,1387.7,143.6z"/>
			<path class="st11" d="M1787.9,675.8c-13.4,0-24.2,1.7-24.2,3.9s10.8,3.9,24.2,3.9c13.4,0,24.2-1.7,24.2-3.9
				S1801.3,675.8,1787.9,675.8z"/>
			<path class="st12" d="M1777.8,351.1h20.3v328.6h-20.3V351.1z"/>
			<path class="st13" d="M1790.7,351.1h7.4v328.6h-7.4V351.1z"/>
			<path class="st15" d="M1790.2,306.1h-39.1v7.6h39.1V306.1z"/>
			<path class="st15" d="M1790.2,377h-39.1v7.7h39.1V377z"/>
			<path class="st14" d="M1777.8,398.4h20.3v10.2h-20.3V398.4z"/>
			<path class="st15" d="M1790.7,398.4h7.4v10.2h-7.4V398.4z"/>
			<path class="st18" d="M1745.1,388h18.4v-85.1h-18.4c-2.7,0-4.9,2.1-4.9,4.6v75.9C1740.2,385.9,1742.4,388,1745.1,388z"/>
			<path class="st16" d="M1740.2,341.3v-24.1h-18.4l8.9,24.1H1740.2L1740.2,341.3z"/>
			<path class="st17" d="M1736.4,314.8h4.1v28.8h-4.1c-0.9,0-1.6-0.7-1.6-1.5v-25.8C1734.8,315.5,1735.5,314.8,1736.4,314.8z"/>
			<path class="st16" d="M1740.2,380v-24.1h-18.4l8.9,24.1H1740.2L1740.2,380z"/>
			<path class="st17" d="M1736.4,353.5h4.1v28.8h-4.1c-0.9,0-1.6-0.7-1.6-1.5V355C1734.8,354.2,1735.5,353.5,1736.4,353.5z"/>
			<path class="st18" d="M1798.3,398.4h-20.9c-2.7,0-4.9-2.1-4.9-4.6V297c0-2.5,2.2-4.6,4.9-4.6h20.9c2.7,0,4.9,2.1,4.9,4.6v96.9
				C1803.2,396.4,1801,398.4,1798.3,398.4z"/>
			<path class="st14" d="M1460.1,142.7h10.9v11.5h-10.9V142.7z"/>
			<path class="st15" d="M1460.1,142.7h10.9v-4.9h-10.9V142.7z"/>
			<path class="st14" d="M1579.9,142.7h10.9v11.5h-10.9V142.7z"/>
			<path class="st15" d="M1579.9,142.7h10.9v-4.9h-10.9V142.7z"/>
			<path class="st25" d="M1494.3,96.2h76.4c5,0,9.1,4.1,9.1,9.1V182c0,5-4.1,9.1-9.1,9.1h-76.4c-5,0-9.1-4.1-9.1-9.1v-76.6
				C1485.2,100.3,1489.3,96.2,1494.3,96.2z"/>
			<path class="st16" d="M1495.2,101.6h74.7c2.5,0,4.6,2.1,4.6,4.6v74.9c0,2.5-2.1,4.6-4.6,4.6h-74.7c-2.5,0-4.6-2.1-4.6-4.6v-74.9
				C1490.6,103.7,1492.7,101.6,1495.2,101.6z"/>
			<path class="st27" d="M1529.2,139.2l-2.9,3.3l-3-3.3v-15.3l3-3.3l2.9,3.3V139.2z"/>
			<path class="st16" d="M1505.7,139.2l-3,3.3l-3-3.3v-15.3l3-3.3l3,3.3V139.2z"/>
			<path class="st27" d="M1506.9,146.3l-3.3-3l3.3-3h15.3l3.4,3l-3.4,3H1506.9z"/>
			<path class="st27" d="M1506.9,122.7l-3.3-3l3.3-3h15.3l3.4,3l-3.4,3H1506.9z"/>
			<path class="st16" d="M1499.8,148.1l3-3.3l3,3.3v15.3l-3,3.3l-3-3.3V148.1z"/>
			<path class="st27" d="M1523.3,148.1l3-3.3l2.9,3.3v15.3l-2.9,3.3l-3-3.3V148.1z"/>
			<path class="st27" d="M1522.2,164.5l3.4,3l-3.4,3h-15.3l-3.3-3l3.3-3H1522.2z"/>
			<path class="st27" d="M1565.3,139.2l-3,3.3l-3-3.3v-15.3l3-3.3l3,3.3V139.2z"/>
			<path class="st27" d="M1541.8,139.2l-2.9,3.3l-3-3.3v-15.3l3-3.3l2.9,3.3V139.2z"/>
			<path class="st16" d="M1542.9,146.3l-3.4-3l3.4-3h15.3l3.4,3l-3.4,3H1542.9z"/>
			<path class="st27" d="M1542.9,122.7l-3.4-3l3.4-3h15.3l3.4,3l-3.4,3H1542.9z"/>
			<path class="st27" d="M1535.8,148.1l3-3.3l2.9,3.3v15.3l-2.9,3.3l-3-3.3V148.1z"/>
			<path class="st27" d="M1559.4,148.1l3-3.3l3,3.3v15.3l-3,3.3l-3-3.3V148.1z"/>
			<path class="st27" d="M1558.2,164.5l3.4,3l-3.4,3h-15.3l-3.4-3l3.4-3H1558.2z"/>
			<path class="st28" d="M1619.1,96.2h73.1c5.9,0,10.8,4.8,10.8,10.8v73.3c0,5.9-4.8,10.8-10.8,10.8h-73.1
				c-5.9,0-10.8-4.8-10.8-10.8V107C1608.3,101.1,1613.2,96.2,1619.1,96.2z"/>
			<path class="st29" d="M1618.8,99.8h73.7c3.8,0,6.9,3.1,6.9,6.9v73.9c0,3.8-3.1,6.9-6.9,6.9h-73.7c-3.8,0-6.9-3.1-6.9-6.9v-73.9
				C1611.9,102.9,1615,99.8,1618.8,99.8z"/>
			<path class="st28" d="M1655.7,115.7l11.6,17.3l11.6,17.3h-23.2h-23.2l11.6-17.3L1655.7,115.7z"/>
			<path class="st28" d="M1646.6,144.4h18.1V189h-18.1V144.4z"/>
			<path class="st14" d="M1703,142.7h10.9v11.5H1703V142.7z"/>
			<path class="st15" d="M1703,142.7h10.9v-4.9H1703V142.7z"/>
			<path class="st30" d="M1330.4,605.5h-2.5l150.3,46.9h18.1L1330.4,605.5z M1998,814.4v-20.2l-248.1-70.1h-41.7L1998,814.4z"/>
			<path class="st30" d="M1531.3,662.2l178.9,50.6h-93.7L1477,662.2H1531.3L1531.3,662.2z M1534.8,712.8h-101.7l-85.8-50.6h67.9
				L1534.8,712.8z M1359.3,712.8h-81.5l-43.5-50.6h59L1359.3,712.8z M1229,712.8h-62l-24.4-50.6h52.4L1229,712.8z M1125.1,712.8
				h-56.7l-10-50.6h49.5L1125.1,712.8L1125.1,712.8z M1024.8,712.8h-51.6l2.5-50.6h46.8L1024.8,712.8z M929.6,712.8H873l17.3-50.6
				h49.5L929.6,712.8L929.6,712.8z M831,712.8H769l33.9-50.6h52.4L831,712.8z M720.2,712.8h-81.4l65.9-50.6h59L720.2,712.8z
				 M565,712.8H463.3l119.6-50.6h67.9L565,712.8z M381.6,712.8h-93.6l178.9-50.6h54.3L381.6,712.8L381.6,712.8z"/>
			<path class="st30" d="M667.6,605.5h2.5l-150.3,46.9h-18.1L667.6,605.5z M0,814.4v-20.2l248.1-70.1h41.7L0,814.4z"/>
			<path class="st31" d="M656.3,675.7c-4.2,2.3-8.3,3.6-12.5,5.9c1.3,6.1,3.2,8.7,5.3,12.4c2.5,4.3,3.5,4,6.4,2.6l32.4-16
				c-0.8-2.8-2-5.9-5.8-5.3C673.6,676.5,664.9,677.1,656.3,675.7L656.3,675.7z"/>
			<path class="st32" d="M656.3,675.7c-2.3,1.3-11,4.9-12.5,6.6c0.2,0.7,0.6,1.8,0.7,2.5l2.1-1.2c1.8,1.5,4.5,1.5,10.4-1.9
				c2.2-1.3,4.7-3.3,4.7-5.3C659.9,676.3,658.1,676.1,656.3,675.7L656.3,675.7z"/>
			<path class="st31" d="M557.7,673.2c-4.6-1.4-8.3-3.4-12.9-4.9c-3.5,5.1-4,8.3-5.2,12.4c-1.3,4.8-0.5,5.3,2.5,6.4l34,12.2
				c1.4-2.5,2.8-5.5-0.2-7.8C569.2,686.2,562.8,680.4,557.7,673.2z"/>
			<path class="st32" d="M557.7,673.2c-2.5-0.8-11.2-4.5-13.4-4.4c-0.4,0.6-0.9,1.7-1.3,2.3l2.3,0.7c0.2,2.3,2,4.3,8.6,6.1
				c2.5,0.7,5.6,1.1,7.1-0.3C559.9,676.2,558.8,674.7,557.7,673.2L557.7,673.2z"/>
			<path class="st32" d="M597.3,458.9c-0.1,2.6,14.5,8.2,14.7,6.9c0,0-0.9-3.1,1.9-13c0.7-2.3-1.7-5.1-4.5-6.2l-10.3-3l-1.3,10
				L597.3,458.9L597.3,458.9z"/>
			<path class="st33" d="M612.5,458.4c0.3-1.6,0.7-3.5,1.4-5.7c0.7-2.3-1.7-5.1-4.5-6.2l-10.3-3l-1.2,9
				C603,455.5,607.3,456.8,612.5,458.4z"/>
			<path class="st34" d="M607,476.2l6.5-10.5c11.1,12.3,8.6,32.9,11.2,48.8L607,476.2z"/>
			<path class="st31" d="M635.1,578.9c-0.3-1.6-1.4-9,6.1-11.5c8.4-2.8,12.6,6.6,12.6,6.6l22.8-6c1.9-0.5,3.8,0.6,4.3,2.5l10.3,39.5
				c0.5,1.9-0.7,3.8-2.5,4.3L629,630c-1.9,0.5-3.8-0.6-4.3-2.5L614.3,588c-0.5-1.9,0.7-3.8,2.5-4.3L635.1,578.9L635.1,578.9z
				 M637.8,578.2l13.1-3.5c-0.2-0.6-2.9-8-9.4-5.9C635.5,570.8,637.4,576.9,637.8,578.2L637.8,578.2z"/>
			<path class="st32" d="M638.6,558c0,0,4.3,2,7.8,6.5c3.6,4.5,1.9,7.4-0.8,8.2c-2.7,0.8-5.6,3.3-7.7,0.6c-2.1-2.7-2.8-4.3-3.1-5.9
				c-0.4-1.7-4.4-4.1-4.4-4.1c0.8-0.4,1.7-1,2.6-1.4C634.8,560.8,637.4,559,638.6,558z"/>
			<path class="st35" d="M636.9,553.2l3.6,4.9c-0.3,1.2-7.2,7.6-8.9,7.4l-3.9-5.6L636.9,553.2L636.9,553.2z"/>
			<path class="st32" d="M572.4,565.7c0.4,3.5,0.5,7.3,0.1,10.7c-0.1,0.3-0.3,0.6-0.4,0.9c-0.2,0.2-0.4,0.4-0.5,0.7
				c-0.7,0.8-1.2,1.7-1.9,2.5c-0.4,0.4-0.9,0.7-1.4,0.9h0c-0.9,0.2-1.8,0.2-2.7,0.2c-0.9,0-1.4-0.3-2-0.8c-0.3-0.2-0.7-0.2-1-0.2
				c-0.4-0.1-0.7-0.4-1-0.7c-0.2-0.3-0.4-0.6-0.7-0.9c-0.2-0.1-0.4-0.3-0.6-0.4c-0.3-0.3-0.6-0.6-0.9-0.9c-0.1-0.1-0.1-0.3-0.2-0.4
				c-0.1-0.2-0.1-0.3-0.2-0.5c-0.3-0.3-0.6-0.6-0.7-0.9c0-0.2,0-0.4,0.1-0.6c0.2-0.7,0.6-1.3,0.9-1.8c0.1-0.1,0.1-0.1,0.2-0.2
				c0.3-0.3,1.4-1.5,2-0.6c0.1,0.2,0.1,0.4,0,0.5c0.1-0.1,0.1-0.2,0.2-0.4c0.3-1,0.5-2,0.6-3.1c0-0.4,0.1-0.8,0.1-1.2
				c0.7-1.3,1.6-2.5,2.7-3.5c0.4-0.3,0.8-0.7,1.2-1.1c0-0.3,0-0.6,0-1l6.4,2.1L572.4,565.7L572.4,565.7z"/>
			<path class="st34" d="M623.2,526.7l16.1,27.7c-0.6,0.9-6.9,6.5-10.5,8.2l-16.1-26.5L623.2,526.7L623.2,526.7z"/>
			<path class="st36" d="M589,588.4h27.2v-7.7c0-2.4-1.9-4.4-4.4-4.4h-18.4c-2.4,0-4.4,2-4.4,4.4L589,588.4L589,588.4z M590.1,587.4
				h25v-6.6c0-1.8-1.5-3.3-3.3-3.3h-18.4c-1.9,0-3.3,1.5-3.3,3.3L590.1,587.4L590.1,587.4z"/>
			<path class="st37" d="M585.3,550.8c9.1-17.6,42.2,10.1,37,18.3c-1.5,5.2-31.8,49.3-39.4,60.4c-11.2,16.3-19.3,34.5-22.7,46.8
				l-17.8-5.4c4.6-23.5,17-44.7,20.3-51.6C574.1,595.9,576.8,567.1,585.3,550.8L585.3,550.8z"/>
			<path class="st38" d="M585.4,548.9c0.9-0.7,35.7,5.2,36.5,7.9c2.9,4.6,14,57.2,17.2,70.3c5.5,18.3,13.1,35.1,21.4,48.7l-16.4,9.3
				c-11.5-14.7-21.9-43.3-24.8-50.4C613.5,620.3,568.2,561.1,585.4,548.9z"/>
			<path class="st35" d="M596,458c0.4-1.9,0.9-3.3,1.5-4.1c4.6,1.8,13.8,8.2,16,10.9c0,0.6,0.1,3.4,0,4.8
				c6.9,10.8,8.4,22.8,9.9,35.4C616,496.3,583.9,465.3,596,458L596,458z"/>
			<path class="st39" d="M577,569.3c8.9,4.5,45,7.3,51.2,2.7c0-22.8-2.1-51.1-5.3-70.8c-2.7-16.5-10.9-35.3-26.7-43.2
				c-3,1.9-15.3,9.8-15.9,11.2c-5.1,12.2,2,26.2,3.2,35.5C587.3,536.6,580.4,549.6,577,569.3L577,569.3z"/>
			<path class="st34" d="M624.6,513.5c-0.5-4.3-1.1-8.4-1.7-12.3c-2.7-16.5-10.9-35.3-26.8-43.2l-2.1,1.4c4.8,4.6,8.2,10.1,9.9,16.2
				l8,0.2l-4.2,4.7L624.6,513.5L624.6,513.5z"/>
			<path class="st35" d="M573.6,560.1l-0.3,6.1c-1,0.7-10.3,1.3-11.6,0.1l0.6-6.8L573.6,560.1L573.6,560.1z"/>
			<path class="st34" d="M575,562.7c-5,0.6-9.9,0.6-14.9-0.2c0.5-20.8,4-28.9,5.6-41.8c3.8-30.3,8-55.8,21.2-53
				c10.5,3.9,9.5,17.9,5.8,26.6C584.7,513.3,576.8,541.3,575,562.7L575,562.7z"/>
			<path class="st34" d="M618.1,540.4l-0.7,13.9c-0.1,1.9-1.7,3.3-3.6,3.3l-16.7-0.9c-1.9-0.1-3.3-1.7-3.2-3.6l0.7-13.9L618.1,540.4
				L618.1,540.4z"/>
			<path class="st40" d="M618.5,538.1l-0.2,4.2l-24.2-1.2l0.2-4.2L618.5,538.1z"/>
			<path class="st32" d="M625.1,450.3c0.7,0.8,0.1,2-0.4,2.5c-1.5,0.7,1.8,8.8-8.5,5.7c-14.9-7.7-23.1-7-25.4-17.8l2.8-1.3
				c0.9-2.7,7.9-18.6,9.2-18.4c18,2,27.8-1.2,23.5,15.5c-0.2,5.1,5.6,9.4-0.3,10C624.1,446.7,626.3,448.9,625.1,450.3L625.1,450.3z"
				/>
			<path class="st33" d="M625.1,450.3c0.2,0.2,0.3,0.4,0.3,0.6c-1.2-0.2-3.1-0.6-3.8-0.8c-0.4-0.1-0.4-0.4,0.1-0.3
				c1.1,0.1,2.7,0.1,3.7,0C625.3,450,625.2,450.2,625.1,450.3L625.1,450.3z"/>
			<path class="st41" d="M626.1,411.8c-9.9,1.7-24.5-4.1-32.4,3.2c-7.9,7.3-8.1,24.6,1.5,33.5c3-0.6,4.5-3.1,5.4-5.7
				c-7.5-6.6,3.1-15.8,4.5-6.1l1.7,0.8c0.4-3.6-0.6-14.5,5-15.1c3.4-0.4,8.5,2.9,13.4,2C629.2,422.1,628.1,414.6,626.1,411.8
				L626.1,411.8z"/>
			<path class="st42" d="M625.8,433.4c-0.8-0.6-2.9-0.9-6-0.2c-2.4,0.6-1.3-0.6-0.2-1c1.6-0.6,5.5-1.4,6.5,0.2
				C626.5,433.1,626.2,433.7,625.8,433.4L625.8,433.4z"/>
			<path class="st43" d="M604.8,435.1l-0.9-1.7l22.7,1c0.7,1,0.5,2.6-0.2,2.6c-0.8,2.3-0.9,4.8-2.2,4.8l-6.4-0.5
				c-1.7-0.1-1.5-2.9-1.8-5.1L604.8,435.1L604.8,435.1z"/>
			<path class="st32" d="M1162,578c-0.3,2.9-0.6,5-0.7,5.3c-0.2,0.9,1.1,1.9,0.3,4.7c-0.5,1.6-2.4,7.6-4.1,7.4c-0.9-0.1-1-0.3-1-0.6
				c-0.5,0.8-2,0.1-2.3-0.6c-0.5,0.5-1.7,0.1-1.8-0.8c-0.7,0.3-1.8-0.8-1.4-1.8c0.7-1.5,1.2-1.9,0.7-2c-1.1-0.5-0.3-2.3,0.4-3.8
				c0.8-1.7,2.6-2.4,2.7-2.5c0.2-0.2,0.5-2.9,0.8-6.3C1157.6,577.5,1159.9,577.7,1162,578z"/>
			<path class="st32" d="M1122.4,577.4c-1.9,2.2-3.4,3.8-3.7,4c-0.7,0.6-0.2,2.2-2.5,4c-1.4,1-6.3,4.8-7.7,3.6
				c-0.7-0.6-0.6-0.9-0.5-1c-0.8,0.4-1.7-1.1-1.5-1.8c-0.7,0.1-1.4-0.9-0.9-1.7c-0.8-0.2-1-1.7-0.1-2.2c1.4-0.9,2.1-0.9,1.8-1.2
				c-0.6-1.1,1.1-2.1,2.5-2.9c1.6-0.9,3.5-0.4,3.6-0.4c0.3,0,2.1-2.1,4.3-4.6C1119.1,574.4,1120.8,576,1122.4,577.4z"/>
			<path class="st37" d="M1194.4,669.8c-0.4-1.2-3.4-6.4-4.5-6.6c-3,0.1-9.9,4.3-10.9,6.1c-1.3,3.5-8.5,7.2-11.7,8.7
				c-1.7,0.8-5.2,3.8-3,5.8c3.5,2.3,13.6,0.3,17.1-1.1c3-1.2,10.8-7.4,12.8-9.9C1194.9,671.8,1194.7,670.9,1194.4,669.8
				L1194.4,669.8z"/>
			<path class="st44" d="M1170.6,676.4c-1.3,0.7-2.4,1.3-3.3,1.7c-1.2,0.6-3.4,2.4-3.7,4c0.1,0.1,0.2,0.2,0.3,0.4
				c3.5,2.3,13.6,0.3,17-1.1c0.4-0.2,1-0.4,1.6-0.8c-1.8-2.2-3.3-2.8-5.7-1.4c-2.2,1.3-5.4,2.5-6.6,1c-0.8-1.2,2.8-1.6,1.2-3.3
				C1171.1,676.5,1170.8,676.4,1170.6,676.4L1170.6,676.4z"/>
			<path class="st44" d="M1194.4,669.8c-0.2-0.6-1.2-2.4-2.2-4c-2.5,4.7-2.1,4.5-1.1,10c1.4-1.2,2.5-2.3,3.1-3
				C1194.9,671.8,1194.8,670.9,1194.4,669.8z"/>
			<path class="st32" d="M1145.2,614.4c3.5,8.4,7.4,17.6,12.2,23.5c7.5,9.3,18,22.8,24.8,31.6c3.4-0.9,4.8-2.8,7.1-5.4
				c-6.7-12.3-13-23.7-22.8-37.1c0,0-2.9-10-7.1-21.7L1145.2,614.4L1145.2,614.4z"/>
			<path class="st37" d="M1119.8,670.6c-1.5-2.7-9.2-2.7-11.8-3.1c-4,3.2-16.1-2.2-19.9,0c-0.8,0.5-2.8,2.2-2.7,3
				c2.6,8.3,30.5,13.2,32.1,10.3C1119.1,677.9,1120.2,673.8,1119.8,670.6z"/>
			<path class="st44" d="M1094.7,667.3c-2.8-0.4-5.2-0.6-6.5,0.1c-0.5,0.3-1.4,1.1-2.1,1.8c2.6,3.7,10.6,7.5,13.9,8.3
				c0.4,0.1,1,0.2,1.7,0.3c-0.2-3-1.1-4.4-3.8-4.6c-2.5-0.3-5.8-1.2-5.9-3.2c0.1-1.5,3.2,0.4,3-2
				C1094.9,667.7,1094.8,667.5,1094.7,667.3z"/>
			<path class="st44" d="M1109.9,681.3c4.1,0.5,7.2,0.4,7.8-0.6c0.9-1.9,1.8-4.3,2.1-6.7C1113.1,675.8,1114.3,675.5,1109.9,681.3z"
				/>
			<path class="st32" d="M1150.1,523.6c0.1,2.1-12,6.8-12.1,5.7c0,0,0.7-2.6-1.6-10.8c-0.5-1.9,1.4-4.2,3.8-5.1l8.5-2.5l1.1,8.2
				L1150.1,523.6z"/>
			<path class="st33" d="M1137.6,523.2c-0.2-1.3-0.6-2.9-1.1-4.7c-0.5-1.9,1.4-4.2,3.8-5.1l8.5-2.5l1,7.4
				C1145.4,520.7,1141.9,521.8,1137.6,523.2L1137.6,523.2z"/>
			<path class="st32" d="M1126,516c-0.7,0.7-0.2,1.7,0.3,2.2c0.8,0.4-0.2,2.2,1.2,3.7c3,3.3,26.1-3.5,28.5-12.5l-2.4-1.2
				c-0.6-2.4-5.9-16.4-7-16.3c-15.6,0.8-22.5-3.9-20.9,12.2c-0.1,4.3-5.3,7.8-0.3,8.7C1127.1,512.9,1125.1,514.7,1126,516z"/>
			<path class="st33" d="M1126,516c-0.2,0.1-0.2,0.4-0.3,0.5c1-0.1,2.7-0.4,3.3-0.5c0.3-0.1,0.3-0.3-0.1-0.2c-1,0.1-2.3-0.1-3.2-0.2
				C1125.8,515.8,1125.8,515.9,1126,516z"/>
			<path class="st45" d="M1166.3,553.3c-0.1-0.3-0.2-0.6-0.3-0.8l-8.4-23.1c-1.7-2.2-7.9,2.9-7.9,2.9c1.2,3.3,5.5,14.7,8.2,22
				c-0.4,0.4-0.7,0.9-0.9,1.3v8.2c0.4,12.4,0,17.7-0.1,20.1c0.3,0.7,0.8,1.2,1.6,1.3c0.9,0.2,1.6-0.1,2.3-0.6c0.7-0.8,1.2-2.2,2-5.4
				c1-3.9,2.1-9.2,2.6-13.2c0.2-1.4,1.9-8,1-11.7v-0.1l-0.1-0.3C1166.5,553.7,1166.4,553.6,1166.3,553.3L1166.3,553.3L1166.3,553.3z
				"/>
			<path class="st32" d="M1128.1,605.2c-4.1,8.1-8.7,17-10.1,24.5c-2.2,11.7-5.8,28.5-8.1,39.4c2.9,2,5.2,1.9,8.7,2
				c5.1-13.1,9.7-25.2,13.7-41.3c0,0,5.7-8.7,12-19.4L1128.1,605.2L1128.1,605.2z"/>
			<path class="st46" d="M1117.8,630.3C1117.8,630.3,1117.8,630.2,1117.8,630.3C1117.8,630.2,1117.8,630.3,1117.8,630.3z
				 M1117.9,629.8C1117.9,629.8,1117.9,629.8,1117.9,629.8C1117.9,629.7,1117.9,629.7,1117.9,629.8z"/>
			<path class="st47" d="M1125.3,627.5c2.5,1,5.2,1.8,7.9,2.4v-0.1c0,0,19.8-31.8,25.7-48.9h-27.8c-0.3,2.7-0.6,5.5-1,6.6
				c-2.2,8-8.8,23.7-12.2,36.3C1120.3,625.3,1122.8,626.5,1125.3,627.5L1125.3,627.5z"/>
			<path class="st48" d="M1150.2,627.4c0.6-0.1,1.2-0.1,1.7-0.2c2.8-0.4,5.6-1,8.3-1.8c1.6-0.5,5-1.7,6.6-2.3
				c-0.2-1.7-5.3-28.8-7.7-42.1h-28.2c2.7,9.7,5.7,26.8,17.1,46.5L1150.2,627.4L1150.2,627.4z"/>
			<path class="st49" d="M1146.6,626.1c0,0,14.9-2.2,20.2-6.4l1,4.1c0,0-5.9,4.7-19.5,5.9L1146.6,626.1z"/>
			<path class="st49" d="M1118.6,620.6c0,0,10.3,6.7,17,6.1l-1.4,3.7c0,0-5.2,0-17.3-6.4L1118.6,620.6L1118.6,620.6z"/>
			<path class="st50" d="M1144.2,522.8c0,0-2.8,1.2-5.8,4.4c-3.8,4.1-6.6,10.3-7.2,16.8c-1,9.9-1.4,17.7-1.4,17.7s-0.9,23,0.5,23.9
				c3.8,2.4,9.9,3.3,21.1,2.4c0,0,9.8-1.2,9.5-4.4c-0.5-6.1-0.5-9.8-0.3-14c0.2-6.7-0.1-15.8-0.3-20.5c-0.3-8.9-0.7-20.1-6.3-26.4
				C1151.7,520.3,1148.5,520.8,1144.2,522.8L1144.2,522.8z"/>
			<path class="st51" d="M1155.4,524.6C1155.4,524.6,1155.4,524.6,1155.4,524.6C1155.4,524.6,1155.4,524.6,1155.4,524.6z
				 M1155.4,524.5C1155.4,524.5,1155.3,524.4,1155.4,524.5C1155.3,524.4,1155.3,524.4,1155.4,524.5z M1155.3,524.4
				C1155.3,524.4,1155.3,524.4,1155.3,524.4C1155.3,524.4,1155.3,524.4,1155.3,524.4z M1155.3,524.3
				C1155.3,524.3,1155.3,524.3,1155.3,524.3C1155.3,524.3,1155.3,524.3,1155.3,524.3z M1155.3,524.3
				C1155.3,524.3,1155.3,524.2,1155.3,524.3C1155.2,524.2,1155.3,524.3,1155.3,524.3z M1155.2,524.2
				C1155.2,524.2,1155.2,524.2,1155.2,524.2C1155.2,524.2,1155.2,524.2,1155.2,524.2z M1155.2,524.2
				C1155.2,524.2,1155.2,524.2,1155.2,524.2C1155.2,524.1,1155.2,524.1,1155.2,524.2z M1155.2,524.1
				C1155.2,524.1,1155.2,524.1,1155.2,524.1C1155.2,524.1,1155.2,524.1,1155.2,524.1z M1155.2,524.1c0,0-0.1-0.1-0.1-0.1
				C1155.1,524,1155.2,524.1,1155.2,524.1z M1155.1,524C1155.1,524,1155.1,524,1155.1,524C1155.1,524,1155.1,524,1155.1,524z
				 M1155.1,524C1155.1,524,1155.1,524,1155.1,524C1155.1,523.9,1155.1,523.9,1155.1,524z M1155.1,523.9c0,0-0.1-0.1-0.1-0.1
				C1155,523.8,1155.1,523.9,1155.1,523.9z M1155,523.8C1155,523.8,1155,523.8,1155,523.8C1155,523.8,1155,523.8,1155,523.8z
				 M1155,523.8C1155,523.8,1155,523.8,1155,523.8C1155,523.8,1155,523.8,1155,523.8z M1155,523.8C1155,523.8,1155,523.8,1155,523.8
				C1155,523.7,1155,523.7,1155,523.8z M1155,523.7C1155,523.7,1155,523.7,1155,523.7C1154.9,523.6,1155,523.7,1155,523.7z
				 M1154.9,523.6C1154.9,523.6,1154.9,523.6,1154.9,523.6C1154.9,523.6,1154.9,523.6,1154.9,523.6z M1154.9,523.6
				C1154.9,523.6,1154.9,523.6,1154.9,523.6C1154.9,523.6,1154.9,523.6,1154.9,523.6z M1154.9,523.6
				C1154.9,523.6,1154.9,523.6,1154.9,523.6C1154.9,523.6,1154.9,523.6,1154.9,523.6z M1154.9,523.6
				C1154.9,523.6,1154.9,523.5,1154.9,523.6C1154.8,523.5,1154.9,523.5,1154.9,523.6z M1154.8,523.5
				C1154.8,523.5,1154.8,523.5,1154.8,523.5C1154.8,523.4,1154.8,523.4,1154.8,523.5z M1154.8,523.4
				C1154.8,523.4,1154.8,523.4,1154.8,523.4C1154.8,523.4,1154.8,523.4,1154.8,523.4z M1154.8,523.4
				C1154.8,523.4,1154.8,523.4,1154.8,523.4C1154.8,523.4,1154.8,523.4,1154.8,523.4z M1154.8,523.4
				C1154.8,523.4,1154.7,523.3,1154.8,523.4C1154.7,523.3,1154.7,523.3,1154.8,523.4z M1154.7,523.3
				C1154.7,523.3,1154.7,523.3,1154.7,523.3C1154.7,523.3,1154.7,523.3,1154.7,523.3z M1154.6,523.2
				C1154.6,523.2,1154.6,523.2,1154.6,523.2C1154.6,523.1,1154.6,523.1,1154.6,523.2z M1154.6,523.1
				C1154.6,523.1,1154.6,523.1,1154.6,523.1C1154.6,523.1,1154.6,523.1,1154.6,523.1z M1154.4,523C1154.4,523,1154.4,523,1154.4,523
				C1154.4,523,1154.4,523,1154.4,523z"/>
			<path class="st45" d="M1141.3,560.4l10.7-19.8c3.9-11.1-2.1-13.2-2.1-13.2s-5.1-1.1-8.6,3c-3.7,4.3-10.4,25.7-10.4,25.7h0.1
				c-0.3,0.3-0.6,0.7-0.7,1.1c0,0-11.2,11.4-16.3,18.9l5.8,5.5c0,0,20.9-15.2,21.4-21.1V560.4z"/>
			<path class="st52" d="M1133.1,535.7c0,0,10.1-15.2,17.6-9.1c7.4,6.1,7.5,17.2,9.5,16.6c1.9-0.6,4.5-4.7,4.1-6.1
				c-0.3-1.4,3.1,0.4,2-2.9c-1.2-3.3-7.3-14.4-17.1-13.2C1139.3,522.1,1134.6,529,1133.1,535.7L1133.1,535.7z"/>
			<path class="st42" d="M1140.7,495.4c-6.7,3-8.6-3.3-14.8,0.9c3.1-19,27.6-13.7,28.9-6.8c5.8,2.9,4.8,6.8,4.1,12.2
				c-0.6,5-2.8,10.3-6.7,15.4c-1.9-1.2-4.1-2.7-4-5.6c5-6.4-2.2-13.4-3.5-2.2C1140.2,508.2,1144.7,498.9,1140.7,495.4z"/>
			<path class="st42" d="M1127.9,504.8c0.1,1,0.6,1.7,1.2,1.7c0.6-0.1,1-0.9,0.9-1.9c-0.1-1-0.6-1.7-1.2-1.7
				S1127.9,503.8,1127.9,504.8z"/>
			<path class="st42" d="M1127.1,501.3c0,0,1.6-1.1,5,0.8c1.9,1.1,0.7-0.4-0.1-1C1131.4,500.6,1127.6,498.7,1127.1,501.3z"/>
			<path class="st53" d="M1124.7,496.1l34.2,5.6l-2.6-0.4l0.6-4.1c0.2-1.4,1.4-2.4,2.7-2.2c-0.5-6.2-4.5-10.9-11.9-12.8
				C1136.7,479.4,1125.7,482.5,1124.7,496.1z"/>
			<path class="st52" d="M1156.1,501.2l2.9,0.5l0.4-2.4l-3-0.5L1156.1,501.2z"/>
			<path class="st52" d="M1129.3,497.8c1.1,0,2.9,0.2,4-0.3c-0.6-2.1-3.6-3.1-5.5-3.2c-4.6-0.2-7.8-0.4-13.3-0.3
				c-0.2,0.9-0.3,1.6,1,2C1120.4,496.7,1124.5,497.1,1129.3,497.8L1129.3,497.8z"/>
			<path class="st43" d="M1163.6,681.8c-0.2,0.7-0.1,1.4,0.6,2c3.5,2.3,13.6,0.3,17.1-1.1c3-1.2,10.8-7.4,12.8-9.9
				c0.8-1,0.6-1.9,0.2-2.9c0,0.4-0.2,0.8-0.5,1.2c-2.1,2.5-9.8,8.7-12.8,9.9c-3.5,1.4-13.5,3.4-17,1.1
				C1163.8,682.1,1163.7,681.9,1163.6,681.8L1163.6,681.8z"/>
			<path class="st43" d="M1086.4,669c-0.5,0.6-1,1.1-0.9,1.5c2.6,8.3,30.5,13.2,32.1,10.3c0.1-0.3,0.3-0.6,0.4-0.9
				C1112.1,681,1089.7,676.3,1086.4,669L1086.4,669z"/>
			<path class="st54" d="M854.4,666.8c0.6-1.8,4.6-10.2,6.1-10.8c4-0.5,13.3,4.1,14.7,6.7c1.7,4.9,11.3,8.8,15.7,10.4
				c2.3,0.9,7,4.5,4,7.9c-4.8,4.1-18.3,3.4-22.9,2c-4-1.2-14.4-8.5-17.3-11.8C853.7,669.9,853.9,668.5,854.4,666.8z"/>
			<path class="st55" d="M886.8,671.5c1.5,0.7,3,1.2,4,1.6c1.8,0.7,5.1,3,5,5.6c-5.3,3.5-16.8,4.1-21.1,3.3
				c-0.6-0.1-1.3-0.3-2.2-0.6c2-3.9,3.9-5.3,7.2-4.1c3.1,1.1,7.5,1.6,8.8-0.9c0.8-2.1-3.9-1.4-2.2-4.4
				C886.5,671.8,886.6,671.6,886.8,671.5L886.8,671.5z"/>
			<path class="st55" d="M854.4,666.8c0.3-1,1.6-3.8,3-6.4c3.4,6.4,2.9,6.2,1.5,14.5c-1.8-1.4-3.4-2.8-4.2-3.8
				C853.7,669.9,853.9,668.5,854.4,666.8z"/>
			<path class="st43" d="M895.7,677.8c0.3,1,0.1,2.1-0.9,3.2c-4.8,4.1-18.3,3.4-22.9,2c-4-1.2-14.4-8.5-17.3-11.8
				c-1-1.2-0.8-2.7-0.3-4.3c0.1,0.6,0.3,1.2,0.7,1.7c2.8,3.3,13.2,10.7,17.3,11.8c4.7,1.3,18.2,2.1,22.9-2
				C895.5,678.2,895.6,678,895.7,677.8z"/>
			<path class="st54" d="M899.5,595c3.3,1.7,3.2,9.6,3.6,12.2c-4,4,2.4,16.6-0.3,20.3c-0.6,0.8-2.7,2.7-3.7,2.5
				c-10.2-3.1-15.9-31.9-12.2-33.4C890.5,595.3,895.6,594.4,899.5,595z"/>
			<path class="st55" d="M903.1,620.9c0.5,2.8,0.7,5.3-0.3,6.6c-0.4,0.5-1.3,1.4-2.2,2c-4.5-2.8-9-11.2-10-14.6
				c-0.1-0.5-0.2-1.1-0.3-1.8c3.7,0.3,5.4,1.3,5.7,4.1c0.3,2.6,1.4,6,3.8,6.2c1.9,0-0.4-3.3,2.6-2.9
				C902.7,620.6,902.9,620.7,903.1,620.9z"/>
			<path class="st55" d="M886.1,604.6c-0.6-4.2-0.3-7.4,0.9-7.9c2.3-0.9,5.4-1.6,8.3-1.8C893,601.6,893.3,600.4,886.1,604.6
				L886.1,604.6z"/>
			<path class="st43" d="M901,629.2c-0.7,0.5-1.4,0.9-1.9,0.8c-10.2-3.1-15.9-31.9-12.2-33.4c0.4-0.1,0.8-0.3,1.2-0.4
				C886.5,602.3,892,625.5,901,629.2L901,629.2z"/>
			<path class="st56" d="M951.5,558.2c3.5,1.1,7.3,5.4,9.6,7.9c3.2,3.4,6.1,6.7,8.5,10.7c3.8,6.2,10,14.5,2.7,19.9
				c-9.7,4.5-55.5,8.2-57.1,9.7c-4.5,0-8.8,1-13.1-0.9c-1.9-1-3.2-5.1-2.6-8.7c2-2.5,10,0.2,13.2-0.1c6-1.6,29.2-11.3,45.2-13
				c-11.3-7.8-16.1-11-21.4-20C942.7,559.1,943.6,558.8,951.5,558.2z"/>
			<path class="st56" d="M900.9,595.8c0,0.1,0,3.1-2.9,7.3c-8.5,12.5-27.3,37.5-30.3,44.8c-1.8,2.2-4.6,5.3-6.4,8.4
				c1.2,4.9,9.6,7,13.9,6.3c-1.1-6.7,9.9-16.6,20.5-27.5c9.5-9.7,21-18.5,23.5-23.4c2.3-3.9,2.1-3.9,3.8-8.2L900.9,595.8
				L900.9,595.8z"/>
			<path class="st57" d="M899.6,599.4c4.9,5.5,14,10.5,21,12.7c7.7-12.5,3-23.5,13.3-35.7c4.5,0,17.1,4.8,20.4,7.9
				c4.2,4,18.4,7.4,21.6,3.7c0.9-8.9-18.6-28.8-29.4-38.1c-8.3,2.8-28,7.7-43,6.7c-0.5,3.8-1.9,8.5-1.5,13.4
				C902.7,581.7,899.9,593,899.6,599.4L899.6,599.4z"/>
			<path class="st58" d="M933.9,576.4c4.5,0,12.6,6.7,15.7,9.8c4.2,4,25.2,6.7,28.5,3c0.9-8.9-20.9-30-31.6-39.2
				c-0.9,0.3-2,0.7-3.2,1l-0.5,1.3C940.2,562.6,938.6,566.9,933.9,576.4z"/>
			<path class="st56" d="M920.4,471.4c0,0-20.4,12.6-28.1,17.4c-4.5,2.8-6.3,3.5-6.2,9c0.3,14.7,7.6,31.3,7.4,40.2
				c0,1.6,1.1,8.2,3.1,12.7c1.9,4.4,10.1,0.9,10.8-3c0.5-3.1-5.7-9.8-6.3-12.4c-2.2-12.1-2.2-20.3-2.7-32.5
				c-0.1-2.5-0.7-3.4,1.9-4.2c3.6-1,15.4-7.5,17.1-9.8c1.7-2.2,0.9-7,1.2-9.7c0.4-2.4,0.7-4.8,1.4-7L920.4,471.4L920.4,471.4z"/>
			<path class="st59" d="M941.9,459.1c-0.9,3.9-2.3,9.3-1.6,11.8c-0.5,2.8,1.2,10,1.2,10s-10.9-6.5-19.3-15.2c2.1-2,6.9-9.2,6.8-12
				C928.9,453.5,938.1,451.5,941.9,459.1L941.9,459.1z"/>
			<path class="st60" d="M900.6,546.9c-1.2,1.2,0.7,6.2,1.7,5.9c0.3-0.1,0.8-0.1,0.9-0.4C904.2,550.6,901.9,545.8,900.6,546.9
				L900.6,546.9z"/>
			<path class="st60" d="M898.8,547.4c-1.2,1.2,0.6,6.2,1.7,5.9c0.3-0.1,0.8-0.1,0.9-0.4C902.4,551.1,900.1,546.3,898.8,547.4
				L898.8,547.4z"/>
			<path class="st60" d="M897.3,548.3c1.4,0.2,2.8,4.6,2,4.9c-0.3,0.1-0.6,0.3-0.9,0.1C896.8,552.6,895.8,548.2,897.3,548.3z"/>
			<path class="st61" d="M922.3,465c-19.4,11.2-7.9,42.1-11.8,57.5c-1.5,6.9-9.9,24.4-8.1,36.9c0.5,0.6,35.9,4,44.7-10.3
				c-12.1-15.5,11.7-42.6-2.3-68.1C941.9,473.8,934.8,465.8,922.3,465L922.3,465z"/>
			<path class="st56" d="M919.1,504.1c-1.4,9.7-2.2,22,4.7,21.6c7.9-0.5,35.6-11,42.7-14.6c4.4-0.6,10.9-0.7,14.6-2.8
				c3.2-1.8,0.5-2.9-0.1-2.8c1.7-0.1,1.7-1,1.2-2.1c-0.9-1.6-2.6-0.6-2.6-0.6s2.3-0.7,1-2.6c-1.3-1.9-2.8-0.4-2.8-0.4
				c0.5-0.6,1.6-1.6,0.9-2.5c-0.9-1.1-2.5-0.5-3.7-0.1c1.6-1.8,1-4-1.1-2.6c-2.3,1.6-4.6,2.7-6.3,4c-0.7,0.5-2,2.8-2.7,3.9
				c-7.1,4.1-22.4,6.9-32,8.4c4.6-10.6,13.6-30.1,1.4-33.9C920.9,472.1,920.3,495.4,919.1,504.1L919.1,504.1z"/>
			<path class="st62" d="M964.3,512.1c0.6,0,2.1-0.4,2.4-0.8c0.3-0.5,0.1-1.1-0.2-2.3c-0.4-1.4-2.9-5.5-3.6-5.5
				c-1.5,0-2.4,1.2-2.4,1.2s1.3,1.9,1.7,2.5C963.1,508.7,964,510.3,964.3,512.1L964.3,512.1z"/>
			<path class="st32" d="M953.1,456.1c0.6,0.7,0.1,1.7-0.4,2.2c-1.4,0.6,1.7,7.8-7.8,5.1c-13.8-6.8-21.3-6.2-23.4-15.8l2.6-1.2
				c0.8-2.4,7.3-16.5,8.4-16.4c16.6,1.7,25.6-1.1,21.6,13.7c-0.2,4.5,5.2,8.3-0.2,8.9C952.1,452.9,954.1,454.9,953.1,456.1z"/>
			<path class="st33" d="M953.1,456.1c0.1,0.2,0.2,0.4,0.3,0.6c-1.1-0.2-2.9-0.5-3.5-0.7c-0.4-0.1-0.4-0.3,0.1-0.2
				c1,0.1,2.5,0.1,3.4,0C953.2,455.9,953.2,456,953.1,456.1z"/>
			<path class="st63" d="M939.6,421.6c-5.8-0.4-11.6-0.2-15.4,3.2c-7.2,6.5-4.8,25,1.4,29.7c2.7-0.5,4.2-2.7,5-5.1
				c-6.9-5.9,2.9-14.1,4.1-5.5l1.6,0.7c0.4-3.2-0.5-12.9,4.6-13.4c3.2-0.3,7.8,2.6,12.3,1.8c2.2,1.1,4.5,0.7,7.1-0.2
				c-1.8-0.4-3.6-1.6-3.8-2.4c1.3,0.6,4.1,0,4.5-1.8c-1.3,0.1-4,0.4-4.9-0.9c2.2-0.3,3.7-1.2,4.2-2.8c-2.2,0.3-4.5,0.4-6.7-0.2
				c2.3-0.7,3.6-1.9,3.9-3.7c-2.8,1-5.6,1.7-7.9,1.4c1-0.9,1.4-1.7,1.2-2.5c-2.1,1.2-4.1,2.3-5.7,2.5
				C942.9,422,941,421.7,939.6,421.6L939.6,421.6z"/>
			<path class="st64" d="M932.1,472.7l-13.7-4.7l8.3-8.4l13.7,6.7l0.6,3.9l2,6.3l4.1,9.3L932.1,472.7z"/>
			<path class="st42" d="M952.2,443.9c-0.1,1-0.7,1.8-1.3,1.7c-0.7-0.1-1.1-0.9-1-2c0.1-1,0.7-1.8,1.3-1.7
				C951.9,442,952.3,442.9,952.2,443.9z"/>
			<path class="st42" d="M953.2,440.3c0,0-1.8-1.2-5.4,0.9c-2,1.1-0.8-0.4,0.1-1C948.5,439.6,952.6,437.5,953.2,440.3z"/>
			<path class="st32" d="M1431.1,700.3c-2-11.4-4.4-14.7-10.6-23.4c-0.7-0.6-19.7-55.5-26.7-65.5c-4.5-6.3-4.3-19.3-3.7-30.1
				l-25.1-4c2.3,10.8,5.4,22.3,9.3,32.5c7.5,19.4,4.9,5,39.2,75.7c0.1,0.1-3.5,14.3-4.6,15.7c-1.7,2.2-4.2,3.5-5.7,5.9
				c-1,1.6,1.4,2,2.5,1.9c5.5-0.6,9.6-1.9,12.1-4.7c3.3-3.7,3.1-11.3,6.8-13.4c3.2,1.7,4.9,9.7,6,9.9
				C1430.9,700.9,1431.1,700.8,1431.1,700.3L1431.1,700.3z"/>
			<path class="st65" d="M1431.3,700.5c0.1-3.9-3.7-15.7-5.8-19.2c-1.4-2.2-2.5-2.5-4.6-3.9c-0.8,5.3-3,18.7-5.8,23.1
				c-1.6,2.5-7.6,2.2-7.6,2.2c-0.4,0-4.9,4-5.4,4.8c-1,1.7,2.4,2.5,3.6,2.4c5.6-0.6,10.3-2,12.8-4.9c2.6-2.9,2-10.6,6.2-13
				c2.4,1.3,4.9,9.1,5.7,9.3C1431.1,701.2,1431.3,701,1431.3,700.5z"/>
			<path class="st32" d="M1344.5,683.8c9-17.1,12.8-35,16.9-61.9c0,0,37.2-37,18-53.8l-10.5-9.2c-3.7,12.3-19.4,37.4-22.9,54.5
				c-5,24.6-9.4,61.8-10.5,70.8c-0.8,2.6-11.1,16.3-12.3,17.1c-1.3,0.9-13.4,5-9.4,7.4c2.1,1.3,12.6,0.7,15.1-0.4c2-0.9,3.7-3.3,5-5
				c1.7-2.3,5.2-6.5,8.2-7.1c1.8,1.9,1.4,10.6,2,10.9c0.4-0.2,0.4,0.1,0.6-0.4C1346.5,702.3,1347.1,690.4,1344.5,683.8L1344.5,683.8
				z"/>
			<path class="st66" d="M1357.7,557.7c0-5,1.1-10,2.4-14.8l33.1-2.6c9.3,20.9,9.7,55.6,13.5,74c-24.8,5.3-48.6,4.2-71.6-1.8
				L1357.7,557.7L1357.7,557.7z"/>
			<path class="st65" d="M1345.8,685.8c-0.4-0.7-0.8-1.4-1.3-2c-1,0.4-3.4,6-4.2,7.2c-4.1,6.1-11.3,12.9-19.7,11.5
				c-7.2,2.4-10,5.4-7.9,6.7c2.7,1.7,15.3,1.1,18.4-1.5c3.3-2.8,6.2-9.4,10.7-10.4c1.6,1.7,1.4,10,2,10.4c0.5,0.3,0.8,0.1,1-0.4
				C1346.1,704,1347.6,689.8,1345.8,685.8L1345.8,685.8z"/>
			<path class="st32" d="M1382,475.2c0.1,2.6-13.1,4.9-13.2,3.5c0,0,0.4-4.8-2.3-14.8c-0.7-2.3,2.1-3.6,5-4.7l17.6-4
				c-3.1,5.2-9.4,6.1-7.5,14.6L1382,475.2z"/>
			<path class="st33" d="M1368.4,473.5c-0.3-2.4-0.9-5.5-2-9.5c-0.7-2.3,2.1-3.6,5-4.7l17.6-4c-2.5,4.2-7.2,5.6-7.7,10.6
				C1377.4,468.8,1372.4,472.1,1368.4,473.5L1368.4,473.5z"/>
			<path class="st32" d="M1395.3,513.9c0-0.4-0.1-0.8-0.3-1.1l-6.6-32.3c-1.6-5.3-8.6-6-8.6-6c0,6.4,0.2,28.7,0.3,31l3,9.7l-1.3,9.9
				c-1.5,14.8-2.9,21.2-3.4,24c0.6,0.3,1.1,0.5,1.7,0.7c1.4-0.1,2.7-0.2,4.1-0.2c0.7-1,1.5-2.6,2.7-5.3c1.9-4.5,4.1-10.6,5.5-15.3
				C1392.9,527.2,1396.7,518.2,1395.3,513.9L1395.3,513.9z"/>
			<path class="st43" d="M1373.7,474c0,0-2.7,1.4-7.6,5.2c-5.5,4.3-15,16.7-11.8,26.2c2.4,7.4,5.4,15.2,5.1,22.7
				c-0.3,8.3-2.8,16.7-2.2,19.4c1.4,6.1,12.2,4.3,26.6,3.3c0,0,11-1.2,10.7-5c-0.7-7.3-5.1-12.9-7.3-17.9
				c-1.9-4.3,2.4-17.3,3.8-22.8c2.8-10.7,0-25.2-7.2-32.8C1380.9,469.4,1379.3,471.7,1373.7,474L1373.7,474z"/>
			<path class="st32" d="M1340.2,553.3c-3.2,2.1-6.6,4.4-9.3,7c-0.2,0.3-0.4,0.6-0.6,0.9c-0.1,0.3-0.2,0.6-0.3,0.8
				c-0.4,1.1-0.9,2.1-1.2,3.2c-0.2,0.6-0.2,1.2-0.1,1.7c0.3,0.9,0.7,1.6,1.2,2.3c0.5,0.7,1,0.9,1.8,1.1c0.4,0.1,0.5,0.4,0.7,0.6
				c0.3,0.2,0.7,0.3,1.1,0.3c0.4-0.1,0.7-0.1,1.1-0.1c0.2,0,0.4,0.1,0.7,0.2c0.4,0,0.8,0.1,1.2,0.1c0.2,0,0.3-0.1,0.5-0.1
				c0.2-0.1,0.3-0.1,0.5-0.1c0.4,0,0.8,0.1,1.1-0.1c0.2-0.1,0.3-0.3,0.5-0.4c0.5-0.6,0.8-1.3,1.1-2c0-0.1,0.1-0.2,0.1-0.3
				c0.1-0.4,0.6-2.1-0.5-2c-0.2,0-0.4,0.2-0.5,0.3c0-0.1,0.1-0.2,0.2-0.4c0.7-0.9,1.5-1.8,2.4-2.6c0.3-0.3,0.6-0.6,0.9-0.9
				c0.7-1.4,1.3-2.8,1.7-4.4c0.1-0.5,0.2-1.1,0.3-1.7c1.3-1,2.9-2.4,4.9-4.1c3.9-3.4,8.8-8.2,12.3-12c1.3-1.4,9-8.3,9.8-12.9
				c0.1-0.2,0.2-0.5,0.2-0.7l10.5-33c2.9-12.1-6.1-11.2-6.1-11.2c-6.5-0.5-9.3,10.8-10.4,13.1l-6.2,28.6l-5.3,7.9
				C1346.4,545.1,1342.2,550.6,1340.2,553.3L1340.2,553.3z"/>
			<path class="st32" d="M1372.7,428.7c0,0-10.8,2.9-13,5.6c-2.4,3-2.5,9.2-2,11.7c0.2,1.1,0.7,3.1,0.5,4.3
				c-0.1,1.4-1.4,3.2-2.7,5.1c-0.8,1.2-1,2.1-0.4,2.8c0.9,1,2.8,1.3,3.2,1.8c0.1,0.9-0.8,1.7-0.6,2.1c0.3,0.8,1.2,0.8,1.7,1.3
				c0.1,0-0.9,1.4-0.6,2c0.2,0.4,0.8,0.5,1.2,1.1c0.5,0.6-1,3.4,1.5,5c4.9,3.2,19.3-8.5,23.1-12l8.5-19.1L1372.7,428.7L1372.7,428.7
				z"/>
			<path class="st41" d="M1359.1,435.4c1.5-3.1,7.2-11.9,20.7-11.8c7.7,0,11.9,2.4,14.7,5.4l1.8-0.4c3.8-1.2,7.7-1.8,11.9-0.9
				c5.9,1.3,10.4,6.2,13,11.3c2.2,4.4,3.2,9.3,5.1,13.8c0.9,2.2,2,4.5,3.9,6.1l0.1,0.1l0,0.1l0.1,0.1l0.1,0.1l0,0.1h0.1v0.1l0,0.1
				l0,0h0.1v0h0.1v0.1h0.1l0.1,0.1l0.1,0.1l0.1,0h0.1l0.1,0.1l0.1,0h0v0h0.1l0.1,0.1h0h0h0.1h0.1v0h0l0.1,0h0.1h0.1h0.1h0.1h0h0.1
				h0.1h0.1h0h0.1h0.1h0.1h0.1h0.1h0h0h0h0.1h0h0.1h0.1h0.1h0.1h0.1h0.1h0.1h0.1h0h0.1h0.1h0h0h0.1h0.1h0h0h0.1h0.1h0h0.1h0.1
				c0.7-0.2,1.3-0.5,2-0.9c0.1-0.1,0.1-0.1,0.2-0.1c0.2-0.2,0.6,0.1,0.5,0.3c0,0.1-0.1,0.2-0.1,0.2c-0.1,0-0.1,0.1-0.2,0.1
				c-4.7,4.1-11.5,6.5-17.7,5.1c-5.2-1.2-8.4-4.5-10.2-9.3c-1.7-4.5-2.1-9.3-3.2-13.9c-0.8-3.2-2.2-6.3-4.8-7.8
				c-1.5-0.8-2.6-1.1-3.5-1.1c0.5,0.7,0.9,1.4,1.4,2c1.8,2.7,2.1,9,0.6,13.9c-3.6,11.6-12.6,10.9-15.7,14c-1.6,1.6-4.2-2.5-6-5.5
				c1.3-0.4,2.7-1.8,3.4-4c1.1-3.1,0.5-6.4-1.4-7.4c-1.8-1-4.1,0.7-5.2,3.6c-0.2-9.9-5.9-14-15.4-13.8L1359.1,435.4z"/>
			<path class="st65" d="M1394.2,428.5c0,0,3.7-1.2,4.7-0.7c1.6,0.8,3.1,4.1,2.6,5.6c-0.3,0.8-2.7,1.4-2.7,1.4
				C1397.1,432,1395.6,429.9,1394.2,428.5z"/>
			<path class="st33" d="M1358.7,463c0.3,0.1,0.6,0.3,0.8,0.5c-0.1,0.2-0.4,0.8-0.4,0.8s2.1-0.6,3.6-0.6
				C1363.9,463.8,1359.5,463,1358.7,463L1358.7,463z"/>
			<path class="st42" d="M1360.7,449.4c0.1,1,0.7,1.8,1.3,1.7c0.6-0.1,1.1-1,1-2c-0.1-1-0.7-1.8-1.3-1.7
				C1361.1,447.4,1360.6,448.4,1360.7,449.4z"/>
			<path class="st42" d="M1359.3,445.2c0,0,1.9-1.2,5.9,0.6c1.9,0.8,1.2,0,0.4-0.7C1364.2,444,1359.7,442.5,1359.3,445.2z"/>
			<path class="st41" d="M1362.5,448.1l-0.5-0.2c-0.2,0,0-0.5-0.2-0.6c-0.7-0.1-1.3-0.5-1.8-1.2c-0.1,1.5,0.8,2.1,1.7,2.5
				L1362.5,448.1L1362.5,448.1z"/>
			<path class="st48" d="M1312.1,707.5c-0.3,0.7-0.2,1.3,0.5,1.7c2.7,1.7,15.3,1.1,18.4-1.5c3.3-2.8,6.2-9.4,10.7-10.4
				c1.6,1.7,1.4,10,2,10.4c0.5,0.3,0.8,0.1,1-0.4c0.8-1.9,1.6-7.2,1.8-12.2c-1.3-0.1-3.3,0.1-4.8,0.5c-5.5,1.2-7.3,7.2-11.2,10.5
				C1327.5,708.6,1314.9,709.2,1312.1,707.5L1312.1,707.5L1312.1,707.5z"/>
			<path class="st48" d="M1431.3,700.5c0.1-2.3-1.2-7.4-2.7-11.8c-2,0.5-4.2,1.4-5.6,2.6c-3.4,2.9-3,9.8-5.4,12.5
				c-2.5,2.8-7.3,4.3-12.8,4.9c-0.6,0.1-1.9-0.1-2.8-0.6c0,1.3,2.7,1.9,3.8,1.8c5.6-0.6,10.3-2,12.8-4.9c2.6-2.9,2-10.6,6.2-13
				c2.4,1.3,4.9,9.1,5.7,9.3C1431.1,701.3,1431.3,701.1,1431.3,700.5L1431.3,700.5z"/>
		</g>
	</g>
</g>
</svg>
