<svg width="1525" height="885" viewBox="0 0 1525 885" fill="none" xmlns="http://www.w3.org/2000/svg">
<g clip-path="url(#clip0_1_605)">
<path d="M1341.03 767.77C1340.87 769.7 1340.67 771.63 1340.46 773.56H217.1C216.78 771.43 216.51 769.27 216.27 767.09C214.53 751.57 214.62 734.78 216.27 717.81C216.71 713.23 217.28 708.62 217.94 704.03C222.26 674.16 231.18 644.59 243.21 621.15C257.91 592.55 276.28 567.57 287.35 538.43C289.87 531.81 292.01 524.97 293.64 517.83C293.79 517.18 293.93 516.52 294.07 515.86C294.83 512.32 295.47 508.69 295.96 504.99C296.06 504.35 296.13 503.69 296.2 503.04C296.28 502.44 296.35 501.84 296.41 501.23C296.81 497.44 297.06 493.55 297.14 489.55C297.19 487.09 297.18 484.65 297.09 482.22C297.09 482.22 297.09 482.16 297.09 482.13C296.84 474.22 295.92 466.41 294.58 458.68C294.22 456.65 293.85 454.61 293.43 452.59C291.96 445.3 290.16 438.06 288.24 430.86C286.93 425.93 285.54 421.01 284.17 416.1C284.01 415.5 283.84 414.9 283.67 414.3C281.53 406.63 279.43 398.96 277.59 391.25C270.29 360.54 271.62 331.41 278.68 300.69C282.63 283.5 288.86 266.93 297.02 251.54C316.17 215.42 345.94 185.88 381.62 170.49C404.44 160.64 428.94 156.27 453.36 153.65C480.85 150.7 508.55 149.88 536.1 151.95C561 153.82 585.76 158.04 610.7 158.6C656.6 159.61 702.61 147.71 743.41 124.85C763.62 113.52 781.34 94.07 800.38 80.21C821.01 65.2 842.44 51.43 864.73 39.55C928.78 5.41995 992.47 -7.40004 1062.76 4.18996C1128.65 15.04 1192.16 45.27 1242.36 93.37C1271.61 121.39 1294 155.66 1303.92 194.37C1310.05 218.3 1311.41 243.94 1306.68 270.85C1305.15 279.56 1302.97 288.09 1300.48 296.53C1296.69 309.44 1292.17 322.14 1288.16 334.97C1287.71 336.42 1287.26 337.88 1286.82 339.34C1286.56 340.19 1286.31 341.05 1286.06 341.9C1285.2 344.79 1284.38 347.7 1283.58 350.61C1283.47 351.01 1283.36 351.42 1283.25 351.82C1281.35 358.85 1279.61 365.96 1278.06 373.12C1277.72 374.67 1277.4 376.23 1277.08 377.78C1276.83 379 1276.59 380.22 1276.35 381.45C1276.2 382.23 1276.05 383.01 1275.91 383.79C1275.86 384.03 1275.81 384.27 1275.77 384.51C1275.38 386.61 1275.01 388.71 1274.66 390.82C1274.21 393.52 1273.78 396.23 1273.39 398.93C1273.06 401.16 1272.76 403.41 1272.49 405.65C1272.32 406.98 1272.16 408.31 1272.01 409.63C1271.54 413.89 1271.14 418.14 1270.83 422.41C1270.75 423.42 1270.68 424.44 1270.63 425.46C1270.61 425.64 1270.6 425.82 1270.59 426C1270.15 433.07 1269.96 440.13 1270.05 447.18C1270.24 464.24 1272 481.17 1275.69 497.7C1276.16 499.79 1276.67 501.87 1277.2 503.95C1278.03 507.25 1278.95 510.51 1279.96 513.77C1280.19 514.53 1280.42 515.29 1280.68 516.05C1280.88 516.69 1281.09 517.34 1281.3 517.97C1281.3 517.99 1281.3 518 1281.32 518.02C1281.82 519.54 1282.35 521.07 1282.89 522.56C1284.74 527.74 1286.78 532.82 1288.94 537.83C1303.77 572.07 1324.94 602.93 1336.89 638.68C1343.36 658 1340.81 676.27 1341.91 696.54C1342.06 699.31 1342.19 702.07 1342.31 704.84C1342.5 709.56 1342.66 714.29 1342.74 719.02C1343.03 735.29 1342.6 751.58 1341.1 767.78L1341.03 767.77Z" fill="#D9ECF2"/>
<path d="M248.38 396.64C244.56 379.07 243.07 361.14 244.15 343.13C244.53 336.83 253.54 336.79 253.18 343.13C252.23 360.26 253.43 377.32 256.95 394.07C258.23 400.14 249.7 402.71 248.38 396.64Z" fill="#D9ECF2"/>
<path d="M255.99 309.18C255.3 313.25 254.49 317.26 253.62 321.29C252.31 327.35 243.89 324.76 245.09 318.73C245.89 314.69 246.73 310.69 247.72 306.71C249.17 300.81 256.96 303.36 255.99 309.19V309.18Z" fill="#D9ECF2"/>
<path d="M1281.94 68.6996C1269.33 56.4996 1255.35 46.0696 1240.33 37.7296C1234.61 34.5496 1229.54 43.9096 1235.28 47.1496C1287.98 76.8796 1325.19 132.42 1334.76 196.31C1337.67 215.7 1337.79 235.56 1335.58 255.04C1334.73 262.5 1345.49 262.44 1346.33 255.04C1354.18 185.78 1329.85 115.03 1281.95 68.6996H1281.94Z" fill="#D9ECF2"/>
<path d="M1342.67 719.01C1342.59 714.28 1342.44 709.55 1342.24 704.83C1342.12 702.06 1341.99 699.3 1341.84 696.53C1340.74 676.26 1343.29 657.98 1336.82 638.67C1324.87 602.93 1303.7 572.06 1288.87 537.82C1286.7 532.81 1284.66 527.74 1282.82 522.55C1282.29 521.05 1281.76 519.53 1281.25 518.01C1281.25 517.99 1281.25 517.98 1281.23 517.96C1281.02 517.33 1280.81 516.69 1280.61 516.05C1280.36 515.28 1280.13 514.52 1279.89 513.76C1278.88 510.5 1277.97 507.24 1277.13 503.94C1276.6 501.86 1276.1 499.78 1275.62 497.69C1271.94 481.17 1270.18 464.23 1269.98 447.17C1269.89 440.12 1270.09 433.06 1270.52 425.99C1270.52 425.81 1270.54 425.63 1270.56 425.45C1270.62 424.44 1270.69 423.42 1270.76 422.4C1271.07 418.13 1271.47 413.88 1271.94 409.62C1272.09 408.29 1272.25 406.96 1272.42 405.64C1272.69 403.4 1272.99 401.15 1273.32 398.92C1273.71 396.21 1274.13 393.5 1274.59 390.81C1274.94 388.7 1275.32 386.59 1275.7 384.5C1275.74 384.27 1275.79 384.03 1275.84 383.78C1275.98 383 1276.13 382.22 1276.28 381.44C1276.51 380.22 1276.75 379 1277.01 377.77C1277.33 376.22 1277.65 374.66 1277.99 373.11C1279.54 365.95 1281.28 358.84 1283.18 351.81C1283.29 351.41 1283.4 351 1283.51 350.6C1284.31 347.68 1285.13 344.77 1285.99 341.89C1286.24 341.04 1286.49 340.18 1286.75 339.33C1287.19 337.87 1287.64 336.41 1288.09 334.96C1292.1 322.13 1296.62 309.43 1300.41 296.52C1302.89 288.08 1305.08 279.55 1306.61 270.84C1311.35 243.93 1309.98 218.29 1303.85 194.36C1264.21 195.48 1179.93 197.73 1169.62 196.93C1156.08 195.88 1169.62 331.81 1169.62 331.81C1169.62 331.81 1115.48 332.86 1111.61 330.76C1107.74 328.65 1105.81 268.59 1105.81 268.59C1105.81 268.59 997.53 257 986.89 261.21C976.25 265.43 991.72 439.3 987.86 442.46C983.99 445.62 893.11 449.84 887.31 440.35C881.51 430.87 885.38 389.77 882.48 384.5C879.58 379.23 791.6 389.77 781.93 387.66C772.26 385.55 782.9 181.12 778.06 171.64C773.23 162.16 645.6 184.29 645.6 184.29C645.6 184.29 644.63 298.1 640.77 307.58C636.9 317.06 523.78 308.63 519.92 310.74C516.05 312.85 518.95 365.54 514.12 371.86C509.29 378.18 430.97 371.86 430.01 367.64C429.04 363.42 429.04 259.1 425.18 252.78C421.78 247.22 321.23 250.62 296.98 251.53C288.82 266.92 282.59 283.49 278.64 300.68C271.58 331.4 270.25 360.53 277.55 391.24C279.39 398.94 281.49 406.61 283.63 414.29C242.21 414.18 200.01 415.23 194.96 419.73C185.9 427.81 189.27 484.46 190.78 502.81C187.33 503.57 166.87 508.21 164.32 512.83C161.54 517.89 158.75 565.44 155.97 610.98C153.19 656.51 157.83 703.06 165.25 711.16C167.03 713.1 182.22 715.04 204.38 716.89C205.8 731.16 208.31 755.84 209.75 767.47C190.74 768.7 180.12 770.79 180.12 774.25C180.12 781.13 273.79 785.02 417.73 785.02C424.3 785.02 430.83 785.02 437.29 785.01C438.22 786.03 447.5 788.06 452.14 786.03C452.41 785.91 452.67 785.56 452.92 785C484.25 784.96 513.82 784.83 540.61 784.55C540.98 788.08 541.8 790.88 543.35 791.76C548.78 794.84 564.19 811.27 579.6 812.29C582.99 812.52 586.91 812.1 590.97 811.3C591.52 811.18 592.07 811.07 592.63 810.94C596.54 810.09 600.52 808.91 604.24 807.63C604.77 807.45 605.29 807.27 605.82 807.08C607.39 806.53 608.89 805.97 610.32 805.41C611.27 805.04 612.18 804.67 613.05 804.31C613.92 803.95 614.74 803.6 615.52 803.27C616.1 803.02 616.65 802.77 617.16 802.54C617.85 802.23 618.48 801.94 619.05 801.67C619.33 801.53 619.59 801.41 619.84 801.29C620.33 801.04 620.76 800.83 621.11 800.64C621.2 800.59 621.28 800.55 621.36 800.5C621.51 800.42 621.65 800.33 621.77 800.27C621.89 800.2 621.97 800.13 622.05 800.09C622.12 800.05 622.17 800.01 622.19 799.97C622.36 799.77 622.5 799.46 622.6 799.05C622.63 798.89 622.66 798.72 622.68 798.53C622.77 797.82 622.74 796.91 622.56 795.78C622.52 795.48 622.46 795.18 622.4 794.86C622.37 794.7 622.33 794.53 622.29 794.36C622.22 794.03 622.14 793.69 622.03 793.33C621.74 792.26 621.33 791.06 620.81 789.76C620.62 789.28 620.39 788.78 620.16 788.25C619.45 786.69 617.87 784.9 615.76 782.94C654.96 781.49 678.67 779.01 678.67 774.84C678.67 774.39 678.51 773.97 678.17 773.56H687.33C693.4 777.16 704.19 778.06 710.74 778.27C719.8 778.57 754.13 782.77 766.82 783.19C777.09 783.53 790.11 780.25 794.86 773.56H1340.47C1340.68 771.63 1340.88 769.7 1341.04 767.77C1342.54 751.57 1342.97 735.28 1342.68 719.01H1342.67ZM676.09 231.17C671.58 231.24 665.91 232.23 661.4 231.61C660.17 231.44 659.88 221.21 660.78 220.97C660.82 219.76 671.78 218.87 676.17 219.51C677.14 219.65 677.1 231.16 676.09 231.17ZM749.57 210.09C745.06 210.16 739.39 211.15 734.88 210.53C733.65 210.36 733.36 200.13 734.26 199.89C734.3 198.68 745.26 197.79 749.65 198.43C750.62 198.57 750.58 210.08 749.57 210.09ZM731.2 235.38C726.69 235.45 721.02 236.44 716.51 235.82C715.28 235.65 714.99 225.42 715.89 225.18C715.93 223.97 726.89 223.08 731.28 223.72C732.25 223.86 732.21 235.37 731.2 235.38ZM858.82 422.95C854.31 423.02 848.64 424.01 844.13 423.39C842.9 423.22 842.61 412.99 843.51 412.75C843.55 411.54 854.51 410.65 858.9 411.29C859.87 411.43 859.83 422.94 858.82 422.95ZM1092.79 298.61C1088.28 298.68 1082.61 299.67 1078.1 299.05C1076.87 298.88 1076.58 288.65 1077.48 288.41C1077.52 287.2 1088.48 286.31 1092.87 286.95C1093.84 287.09 1093.8 298.6 1092.79 298.61ZM1067.65 324.95C1063.14 325.02 1057.47 326.01 1052.96 325.39C1051.73 325.22 1051.44 314.99 1052.34 314.75C1052.38 313.54 1063.34 312.65 1067.73 313.29C1068.7 313.43 1068.66 324.94 1067.65 324.95ZM820.14 412.41C815.63 412.48 809.96 413.47 805.45 412.85C804.22 412.68 803.93 402.45 804.83 402.21C804.87 401 815.83 400.11 820.22 400.75C821.19 400.89 821.15 412.4 820.14 412.41ZM1202.04 237.48C1197.53 237.55 1191.86 238.54 1187.35 237.92C1186.12 237.75 1185.83 227.52 1186.73 227.28C1186.77 226.07 1197.73 225.18 1202.12 225.82C1203.09 225.96 1203.05 237.47 1202.04 237.48ZM1291.96 230.1C1287.45 230.17 1281.78 231.16 1277.27 230.54C1276.04 230.37 1275.75 220.14 1276.65 219.9C1276.69 218.69 1287.65 217.8 1292.04 218.44C1293.01 218.58 1292.97 230.09 1291.96 230.1ZM1182.71 374.47C1178.2 374.54 1172.53 375.53 1168.02 374.91C1166.79 374.74 1166.5 364.51 1167.4 364.27C1167.44 363.06 1178.4 362.17 1182.79 362.81C1183.76 362.95 1183.72 374.46 1182.71 374.47ZM1224.28 263.82C1219.77 263.89 1214.1 264.88 1209.59 264.26C1208.36 264.09 1208.07 253.86 1208.97 253.62C1209.01 252.41 1219.97 251.52 1224.36 252.16C1225.33 252.3 1225.29 263.81 1224.28 263.82ZM836.58 642.12C832.07 642.19 826.4 643.18 821.89 642.56C820.66 642.39 820.37 632.16 821.27 631.92C821.31 630.71 832.27 629.82 836.66 630.46C837.63 630.6 837.59 642.11 836.58 642.12ZM1028.98 462.98C1024.47 463.05 1018.8 464.04 1014.29 463.42C1013.06 463.25 1012.77 453.02 1013.67 452.78C1013.71 451.57 1024.67 450.68 1029.06 451.32C1030.03 451.46 1029.99 462.97 1028.98 462.98ZM712.83 484.06C708.32 484.13 702.65 485.12 698.14 484.5C696.91 484.33 696.62 474.1 697.52 473.86C697.56 472.65 708.52 471.76 712.91 472.4C713.88 472.54 713.84 484.05 712.83 484.06ZM669.32 368.15C664.81 368.22 659.14 369.21 654.63 368.59C653.4 368.42 653.11 358.19 654.01 357.95C654.05 356.74 665.01 355.85 669.4 356.49C670.37 356.63 670.33 368.14 669.32 368.15ZM502.06 430.32C497.55 430.39 491.88 431.38 487.37 430.76C486.14 430.59 485.85 420.36 486.75 420.12C486.79 418.91 497.75 418.02 502.14 418.66C503.11 418.8 503.07 430.31 502.06 430.32ZM548.47 349.18C543.96 349.25 538.29 350.24 533.78 349.62C532.55 349.45 532.26 339.22 533.16 338.98C533.2 337.77 544.16 336.88 548.55 337.52C549.52 337.66 549.48 349.17 548.47 349.18ZM750.54 322.84C746.03 322.91 740.36 323.9 735.85 323.28C734.62 323.11 734.33 312.88 735.23 312.64C735.27 311.43 746.23 310.54 750.62 311.18C751.59 311.32 751.55 322.83 750.54 322.84ZM414.08 275.42C409.57 275.49 403.9 276.48 399.39 275.86C398.16 275.69 397.87 265.46 398.77 265.22C398.81 264.01 409.77 263.12 414.16 263.76C415.13 263.9 415.09 275.41 414.08 275.42ZM393.78 295.44C389.27 295.51 383.6 296.5 379.09 295.88C377.86 295.71 377.57 285.48 378.47 285.24C378.51 284.03 389.47 283.14 393.86 283.78C394.83 283.92 394.79 295.43 393.78 295.44ZM568.78 368.15C564.27 368.22 558.6 369.21 554.09 368.59C552.86 368.42 552.57 358.19 553.47 357.95C553.51 356.74 564.47 355.85 568.86 356.49C569.83 356.63 569.79 368.14 568.78 368.15Z" fill="#ABD6CE"/>
<path d="M80.66 884.48H13L285.41 764.97H328.68L80.66 884.48Z" fill="#A8CED7"/>
<path d="M225.07 884.48H157.41L377.78 764.97H421.05L225.07 884.48Z" fill="#A8CED7"/>
<path d="M369.49 884.48H301.83L470.15 764.97H513.42L369.49 884.48Z" fill="#A8CED7"/>
<path d="M513.9 884.48H446.24L562.52 764.97H605.79L513.9 884.48Z" fill="#A8CED7"/>
<path d="M658.31 884.48H590.65L654.89 764.97H698.16L658.31 884.48Z" fill="#A8CED7"/>
<path d="M802.73 884.48H735.07L747.26 764.97H790.53L802.73 884.48Z" fill="#A8CED7"/>
<path d="M947.14 884.48H879.48L839.63 764.97H882.9L947.14 884.48Z" fill="#A8CED7"/>
<path d="M1091.55 884.48H1023.89L932 764.97H975.27L1091.55 884.48Z" fill="#A8CED7"/>
<path d="M1235.97 884.48H1168.3L1024.37 764.97H1067.64L1235.97 884.48Z" fill="#A8CED7"/>
<path d="M1380.38 884.48H1312.72L1116.74 764.97H1160.01L1380.38 884.48Z" fill="#A8CED7"/>
<path d="M1524.79 884.48H1457.13L1209.11 764.97H1252.38L1524.79 884.48Z" fill="#A8CED7"/>
</g>
<g clip-path="url(#clip1_1_605)">
<path d="M389.4 458.873C387.18 457.403 388.36 451.424 389.7 444.644C390.62 439.965 391.45 437.635 389.99 435.645C389.02 434.315 387.12 433.235 385.57 433.615C383.38 434.155 382.35 437.465 381.84 437.245C381.5 437.105 381.95 435.675 381.55 435.505C381.27 435.385 380.85 435.975 379.78 436.955C378.88 437.785 377.87 438.555 377.76 438.455C377.61 438.315 379.35 436.585 379.04 436.185C378.67 435.705 375.84 437.445 375.55 437.055C375.18 436.545 379.72 433.305 379.04 431.875C378.68 431.115 377.06 431.325 376.98 430.765C376.86 429.985 379.93 429.075 379.78 428.445C379.7 428.085 378.63 428.155 378.6 427.865C378.56 427.505 380.19 427.185 382.24 426.076C382.94 425.696 384.17 425.036 384.06 424.626C383.93 424.136 381.99 424.396 381.95 424.096C381.91 423.826 383.38 423.266 385.05 422.936C387.51 422.456 388.91 422.776 389.13 422.206C389.4 421.486 387.43 420.226 387.66 419.886C387.87 419.576 389.5 420.596 389.92 420.176C390.57 419.526 387.85 415.966 388.05 415.816C388.24 415.676 390.5 418.706 391 418.426C391.61 418.086 389.22 412.997 389.81 412.687C390.17 412.507 391.07 414.326 391.98 414.166C393.44 413.916 393.73 408.817 393.95 408.847C394.19 408.877 393.31 414.976 394.83 415.526C395.49 415.756 396.3 414.866 396.6 415.136C397.11 415.596 394.99 418.306 395.52 418.816C395.93 419.206 397.53 417.926 397.92 418.306C398.4 418.776 396.32 421.116 396.89 421.816C397.41 422.446 399.47 421.026 400.23 421.716C401.22 422.616 399.66 424.716 399.88 424.836C400.17 424.986 402.49 420.446 403.47 420.756C404.11 420.956 404.33 424.036 402.78 426.176C401.48 427.975 399.36 428.525 399.54 429.175C399.72 429.835 401.95 429.675 402 430.145C402.04 430.575 400.15 430.855 400.13 431.405C400.11 432.215 404.2 432.975 404.16 433.145C404.13 433.295 401.04 432.345 400.33 433.335C399.61 434.345 401.68 436.935 401.41 437.115C401.18 437.275 399.73 435.105 399.05 435.375C398.23 435.695 399.11 439.245 398.46 439.445C398 439.585 397.37 437.815 396.67 437.895C395.72 437.995 395.38 441.404 395.31 442.064C394.36 451.884 396.09 456.273 393.64 458.323C392.48 459.293 390.5 459.633 389.41 458.903L389.4 458.873Z" fill="#A99852"/>
<path opacity="0.32" d="M389.11 432.444C388.23 431.804 387.79 431.484 387.19 431.424C386 431.314 385.02 432.234 384.93 432.104C384.84 431.974 385.96 431.194 385.81 430.894C385.64 430.544 383.9 431.114 383.8 430.844C383.73 430.654 384.56 430.414 384.68 429.824C384.87 428.934 383.26 427.884 383.3 427.844C383.35 427.784 385.53 429.954 386.4 429.494C386.99 429.174 386.78 427.714 386.94 427.704C387.13 427.704 387.16 429.754 387.78 429.884C388.3 429.994 388.96 428.654 389.21 428.774C389.43 428.884 388.82 429.914 389.21 430.854C389.47 431.484 390.02 431.684 390.49 432.014C391.82 432.944 392.16 434.594 392.5 436.273C392.81 437.793 392.72 438.893 392.4 441.643C391.88 446.173 391.59 448.063 391.22 451.032C390.78 454.552 390.65 456.262 390.48 456.262C390.31 456.262 390.21 454.322 390.23 452.682C390.27 449.972 390.63 449.103 391.16 445.273C391.57 442.323 391.12 444.513 391.6 437.483C391.66 436.633 391.75 435.314 390.96 434.144C390.52 433.494 389.91 433.044 389.09 432.454L389.11 432.444Z" fill="#7F7340"/>
<path opacity="0.32" d="M393.43 428.134C392.98 427.744 392 428.074 391.96 427.894C391.92 427.744 392.63 427.634 392.84 427.125C393.09 426.525 392.45 425.835 392.64 425.675C392.82 425.525 393.31 426.165 393.87 426.065C394.57 425.945 394.88 424.765 395 424.805C395.14 424.855 394.35 426.345 394.85 426.935C395.49 427.694 397.96 426.615 398.04 426.835C398.11 427.035 396.01 427.624 395.98 428.524C395.95 429.374 397.77 430.094 397.7 430.214C397.62 430.364 395.29 429.074 394.9 429.534C394.64 429.844 395.37 430.804 395.24 430.894C395.09 430.994 394.06 429.494 393.77 429.634C393.52 429.754 393.94 431.034 394.11 431.614C394.45 432.794 394.56 433.874 393.91 440.904C393.7 443.183 393.59 444.313 393.42 445.843C392.94 449.993 392.04 456.562 391.75 456.542C391.56 456.522 391.66 453.713 391.8 451.853C391.99 449.243 392.25 448.193 392.78 444.403C393.32 440.514 393.59 438.574 393.57 437.484C393.47 433.744 392.57 432.964 393.28 430.614C393.48 429.944 393.97 428.614 393.43 428.144V428.134Z" fill="#7F7340"/>
<path opacity="0.32" d="M394.99 447.843C394.98 447.603 394.97 447.373 394.95 447.103C394.72 442.263 394.99 438.833 394.9 438.823C394.82 438.823 394.68 441.683 394.21 446.183C393.58 452.213 393.43 450.803 393.42 452.333C393.42 452.333 393.41 454.113 392.58 456.833C392.5 457.113 392.25 457.913 391.99 457.893C391.59 457.863 391.52 455.863 391.2 455.863C390.91 455.863 390.77 457.603 390.46 457.603C390.15 457.603 389.88 455.803 389.87 455.713C389.33 451.933 389.92 449.023 389.79 449.003C389.68 448.983 389.01 450.983 388.89 453.683C388.81 455.473 389.01 456.723 388.94 456.733C388.84 456.743 388.62 454.393 388.34 452.353C387.96 455.573 388.08 458.003 389.38 458.863C390.47 459.583 392.44 459.253 393.61 458.283C395.51 456.693 394.9 453.683 394.97 447.843H394.99Z" fill="#7F7340"/>
<path d="M400 469.491C402.62 468.991 403.91 463.022 405.36 456.272C406.36 451.613 406.52 449.153 408.65 447.873C410.07 447.023 412.25 446.753 413.53 447.703C415.33 449.033 414.97 452.483 415.53 452.483C415.9 452.483 416.05 450.993 416.49 450.993C416.8 450.993 416.95 451.693 417.54 453.013C418.04 454.123 418.66 455.222 418.8 455.172C419 455.102 418.07 452.843 418.52 452.583C419.05 452.283 420.97 454.973 421.39 454.723C421.93 454.393 419.04 449.673 420.23 448.613C420.86 448.053 422.27 448.863 422.57 448.383C422.99 447.703 420.52 445.693 420.91 445.173C421.13 444.873 422.08 445.343 422.23 445.093C422.41 444.783 421.04 443.853 419.59 442.053C419.09 441.434 418.23 440.354 418.49 440.014C418.8 439.614 420.48 440.594 420.65 440.334C420.8 440.104 419.66 439.014 418.26 438.074C416.19 436.684 414.77 436.444 414.79 435.844C414.82 435.074 417.14 434.674 417.07 434.274C417 433.914 415.09 434.224 414.87 433.674C414.53 432.824 418.44 430.594 418.31 430.374C418.19 430.174 414.91 432.094 414.56 431.654C414.13 431.104 418.35 427.335 417.92 426.825C417.66 426.515 416.11 427.844 415.33 427.355C414.09 426.565 415.84 421.765 415.63 421.695C415.4 421.625 413.8 427.585 412.17 427.505C411.47 427.465 411.08 426.335 410.69 426.465C410.04 426.695 410.92 430.004 410.23 430.264C409.7 430.464 408.73 428.674 408.22 428.874C407.59 429.124 408.59 432.074 407.78 432.504C407.06 432.884 405.72 430.784 404.74 431.134C403.47 431.584 404.08 434.114 403.83 434.134C403.51 434.154 403.16 429.084 402.14 428.994C401.47 428.934 400.05 431.684 400.63 434.254C401.12 436.414 402.85 437.724 402.43 438.264C402.01 438.804 400.01 437.804 399.78 438.214C399.57 438.594 401.21 439.584 401 440.094C400.7 440.844 396.63 439.974 396.6 440.154C396.57 440.304 399.79 440.614 400.05 441.803C400.31 443.013 397.39 444.603 397.56 444.863C397.71 445.093 399.9 443.653 400.42 444.163C401.05 444.773 398.84 447.713 399.35 448.133C399.72 448.433 401 447.053 401.61 447.393C402.44 447.853 401.41 451.123 401.21 451.753C398.2 461.162 394.87 464.542 396.32 467.372C397.01 468.711 398.69 469.781 399.98 469.531L400 469.491Z" fill="#A99852"/>
<path opacity="0.32" d="M410.72 445.273C411.78 445.023 412.32 444.893 412.89 445.073C414.03 445.433 414.57 446.653 414.7 446.563C414.84 446.473 414.11 445.333 414.36 445.113C414.65 444.863 416.03 446.053 416.23 445.843C416.37 445.703 415.7 445.153 415.82 444.563C416 443.673 417.89 443.323 417.87 443.263C417.85 443.193 414.98 444.353 414.37 443.593C413.95 443.073 414.73 441.803 414.58 441.733C414.41 441.653 413.57 443.533 412.95 443.423C412.42 443.323 412.35 441.833 412.08 441.853C411.84 441.863 411.99 443.053 411.26 443.773C410.77 444.253 410.19 444.233 409.62 444.353C408.03 444.703 407.06 446.093 406.08 447.503C405.19 448.783 404.84 449.833 404.04 452.493C402.72 456.863 402.25 458.713 401.41 461.593C400.42 465.003 399.87 466.633 400.02 466.693C400.18 466.753 401.04 465.013 401.66 463.493C402.69 460.973 402.7 460.043 403.73 456.313C404.52 453.433 404.07 455.623 406.41 448.963C406.69 448.163 407.13 446.913 408.32 446.133C408.99 445.703 409.72 445.523 410.71 445.293L410.72 445.273Z" fill="#7F7340"/>
<path opacity="0.32" d="M408.45 439.644C409.02 439.454 409.79 440.134 409.9 439.984C410 439.854 409.38 439.484 409.39 438.934C409.39 438.284 410.26 437.894 410.15 437.674C410.04 437.474 409.34 437.864 408.87 437.564C408.27 437.184 408.45 435.974 408.33 435.974C408.18 435.974 408.32 437.644 407.62 437.994C406.73 438.444 404.88 436.514 404.72 436.674C404.57 436.824 406.28 438.184 405.95 439.024C405.64 439.814 403.68 439.784 403.7 439.924C403.71 440.084 406.37 439.804 406.55 440.374C406.67 440.764 405.62 441.363 405.7 441.493C405.8 441.643 407.34 440.664 407.56 440.904C407.74 441.113 406.85 442.123 406.46 442.603C405.68 443.553 405.15 444.513 402.96 451.233C402.25 453.413 401.9 454.493 401.46 455.972C400.26 459.972 398.49 466.382 398.77 466.462C398.95 466.522 399.97 463.892 400.58 462.122C401.44 459.642 401.61 458.572 402.62 454.882C403.66 451.093 404.18 449.203 404.63 448.203C406.2 444.793 407.34 444.433 407.62 441.983C407.7 441.283 407.77 439.884 408.46 439.654L408.45 439.644Z" fill="#7F7340"/>
<path opacity="0.32" d="M399.21 457.194C399.31 456.974 399.42 456.764 399.53 456.534C401.66 452.164 402.77 448.904 402.85 448.934C402.92 448.964 401.92 451.644 400.57 455.974C398.77 461.774 399.45 460.534 398.86 461.934C398.86 461.934 398.17 463.574 397.85 466.404C397.82 466.694 397.73 467.524 397.97 467.614C398.35 467.744 399.21 465.924 399.5 466.044C399.77 466.154 399.21 467.804 399.49 467.934C399.78 468.064 400.73 466.494 400.78 466.424C402.77 463.154 403.38 460.244 403.51 460.274C403.62 460.304 403.45 462.394 402.49 464.934C401.86 466.604 401.18 467.684 401.24 467.724C401.32 467.774 402.46 465.684 403.53 463.914C402.61 467.034 401.53 469.214 399.99 469.514C398.7 469.764 397.01 468.704 396.33 467.354C395.21 465.164 396.96 462.624 399.21 457.214V457.194Z" fill="#7F7340"/>
<path d="M305.09 369.91C311.65 365.13 338.75 372.4 340 373.41C341.26 374.42 354.4 379.65 344.38 386.48C334.35 393.3 309.14 396.78 308.26 394.39C307.38 392 305.09 369.91 305.09 369.91Z" fill="#B9C8D7"/>
<path d="M342.61 584.653C338.63 581.174 325.51 578.844 325.21 577.104C324.92 575.364 335.94 520.608 336.54 520.178C337.15 519.748 350.86 471.212 350.86 471.212C350.86 471.212 344.08 541.526 343.49 543.706C342.9 545.886 343.93 555.465 344.37 561.705C344.81 567.945 346.88 578.254 346.14 578.694C345.4 579.134 342.6 584.643 342.6 584.643L342.61 584.653Z" fill="#B9C8D7"/>
<path d="M305.48 330.202C298.55 324.672 293.12 313.813 296.88 305.164C297.38 304.014 295.65 303.354 295.08 304.434C290.34 313.413 296.36 326.432 304.1 331.992C305.29 332.842 306.62 331.122 305.48 330.212V330.202Z" fill="#261A1A"/>
<path d="M304.88 332.092C303.16 329.312 300.18 327.572 298.5 324.662C296.73 321.592 295.85 318.023 296.03 314.493C296.34 308.573 299.54 302.934 304.28 299.274C305.86 298.054 307.64 297.024 309.58 296.544C311.52 296.064 313.67 296.144 315.46 297.034C319.64 299.124 321.45 303.314 326.69 303.334C328.57 303.334 330.52 303.134 332.26 303.824C337.96 306.083 339.39 313.243 343.86 316.873C345.8 318.443 348.78 319.273 350.37 321.172C351.69 322.752 353.04 324.942 353.27 327.002C353.61 329.992 352.37 332.882 351.67 335.741C350.5 340.491 348.46 344.991 346.19 349.32C344.97 351.64 343.79 354.1 342.41 356.31C341.41 357.92 340.07 359.79 338.18 360.449C337.88 360.549 337.58 360.629 337.26 360.649C330.15 361.239 314.12 347.11 314.12 347.11C314.12 347.11 304.91 332.182 304.86 332.092H304.88Z" fill="#261A1A"/>
<path d="M351.76 388.098C351.31 388.418 348.89 392.407 347.45 393.627C335.73 403.507 295.56 439.154 295.3 439.164C295.16 439.164 297.49 394.857 297.97 385.718C298.03 384.658 295.3 379.118 295.3 379.118C295.53 378.918 311.96 377.668 312.91 376.179C313.26 375.629 313.47 375.079 313.6 374.519C313.75 373.859 313.81 373.179 313.92 372.449L314.42 369.349L314.94 366.159L315.95 368.989L319.85 364.169L321.9 361.62L326.25 356.22L331.2 350.071L335.53 349.561L340.65 350.53C340.65 350.53 340.13 352.09 339.58 354.57C339.23 356.15 338.86 358.1 338.59 360.25C337.97 365.389 337.95 371.699 340.22 376.929C340.61 377.838 353.55 386.808 351.77 388.068L351.76 388.098Z" fill="#E8936B"/>
<path d="M313.57 374.53L314.92 366.17L315.94 369.01L319.83 364.19L321.88 361.65L335.49 357.48C335.49 357.48 330.98 375.01 313.57 374.55V374.53Z" fill="#1A1A1A"/>
<path d="M303.37 329.542C303.37 329.542 303.35 329.602 303.34 329.642C302.72 331.982 302.49 334.521 302.14 336.911C301.65 340.261 301.24 343.631 300.96 347.001C300.69 350.32 300.53 353.67 300.74 357C300.89 359.3 301.12 361.949 302.39 363.959C304.81 367.769 312.8 369.419 316.7 369.579C328.71 370.069 334.59 363.259 338.83 354.81C338.83 354.81 349.34 352.44 347.34 343.211C346.73 340.421 344.75 338.891 341.87 339.541C340.88 339.771 339.93 340.181 339.04 340.661C338.3 341.061 337.47 342.011 337.16 342.791C336.92 343.391 336.82 344.371 335.79 343.971C335.2 343.741 334.9 343.091 334.79 342.481C334.35 339.921 336.42 337.251 335.44 334.841C334.93 333.581 333.65 332.682 333.38 331.352C333.09 329.912 334.04 328.242 333.18 327.052C332.75 326.462 331.99 326.202 331.26 326.042C328.41 325.412 325.47 325.762 322.62 326.222C319.8 326.682 316.96 326.822 314.11 326.712C311.41 326.602 308.66 326.292 306.24 325.112C305.95 324.972 305.62 324.812 305.31 324.902C305 324.992 304.82 325.302 304.68 325.592C304.08 326.842 303.7 328.232 303.34 329.552L303.37 329.542Z" fill="#E8936B"/>
<path d="M321.96 340.76C322.33 340.5 322.73 340.39 323.14 340.5C323.19 340.5 323.24 340.51 323.28 340.52C323.3 340.52 323.31 340.52 323.33 340.52C323.35 340.52 323.36 340.53 323.38 340.54C324.79 340.91 324.86 342.9 324 343.86C323.87 344.11 323.69 344.32 323.43 344.43C323.17 344.54 322.88 344.56 322.61 344.5C322.58 344.5 322.56 344.52 322.53 344.52C321.84 344.54 321.44 344.09 321.27 343.49C320.79 342.61 321.09 341.37 321.96 340.76Z" fill="#1A1A1A"/>
<path d="M302.92 337.221C303.64 336.541 304.8 336.591 305.44 337.361C305.5 337.431 305.54 337.501 305.59 337.581C305.74 337.831 305.8 338.121 305.74 338.421C305.74 338.461 305.73 338.491 305.72 338.521C305.72 338.531 305.72 338.541 305.72 338.551C305.55 339.061 305.37 339.581 304.97 339.971C304.21 340.721 303 340.381 302.51 339.521C302.09 338.771 302.32 337.811 302.94 337.221H302.92Z" fill="#1A1A1A"/>
<path d="M309.6 349.421C309.75 348.951 310.29 348.681 310.77 348.831C311.24 348.981 311.71 349.141 312.17 349.291C312.64 349.451 312.92 349.971 312.77 350.441C312.62 350.911 312.08 351.181 311.6 351.031C311.13 350.881 310.66 350.721 310.2 350.571C309.73 350.411 309.45 349.891 309.6 349.421Z" fill="#D4745C"/>
<path d="M321.16 328.582C322.31 329.162 323.55 329.552 324.67 330.192C325.81 330.842 326.86 331.622 327.97 332.312C328.97 332.932 328.07 334.532 327.06 333.902C325.95 333.212 324.9 332.422 323.76 331.772C322.64 331.142 321.41 330.742 320.25 330.162C319.19 329.632 320.09 328.042 321.16 328.572V328.582Z" fill="#261A1A"/>
<path d="M307.35 333.001C307.42 332.821 307.42 332.601 307.37 332.381C307.31 332.121 307.19 331.861 306.96 331.721C306.61 331.521 306.21 331.631 305.84 331.691C305.45 331.751 305.06 331.831 304.68 331.931C303.76 332.161 302.87 332.491 302.03 332.941C301.6 333.171 301.44 333.701 301.67 334.131C301.9 334.561 302.44 334.731 302.87 334.481C303.79 333.991 304.81 333.671 305.84 333.481C306.21 333.411 306.59 333.391 306.95 333.321C307.16 333.281 307.29 333.161 307.35 333.011V333.001Z" fill="#261A1A"/>
<path d="M308.19 355.141C308.19 355.141 318.49 355.961 318.14 356.701C317.58 357.881 314.73 361.401 311.19 360.661C309.89 360.391 305.24 355.131 308.2 355.141H308.19Z" fill="white"/>
<path d="M350.26 316.023C348.66 315.493 346.95 315.393 345.32 315.723C345.46 315.573 345.61 315.423 345.76 315.273C346.92 314.183 345.07 312.523 343.92 313.613C342.95 314.533 342.16 315.613 341.55 316.803C341.24 317.403 341.48 317.963 341.9 318.273C342.16 318.843 342.88 319.243 343.62 318.853C345.59 317.823 347.64 317.573 349.77 318.223C351.19 318.653 351.63 316.473 350.25 316.013L350.26 316.023Z" fill="#261A1A"/>
<path d="M146.27 847.084C145.71 852.134 235.77 852.474 321.2 854.094C406.63 855.724 480.04 856.894 480.7 850.644C481.21 845.814 411.24 843.794 325.8 842.174C240.37 840.544 147.04 840.104 146.27 847.084Z" fill="#715D84"/>
<path d="M222.07 738.892C222.07 738.892 200.28 769.9 193.26 773.749C187.36 776.989 182.73 779.249 184.8 791.828C186.87 804.407 209.15 850.274 220.68 847.794C226.4 846.564 215.84 806.327 220.95 789.698C225.78 773.949 258.5 747.571 258.5 747.571L222.07 738.882V738.892Z" fill="#E8936B"/>
<path d="M215.98 746.851C215.98 746.851 234.76 783.098 250.1 778.939C253.47 778.019 272.37 748.431 289.81 727.672C303.5 711.364 315.99 695.315 325.05 680.736C325.71 679.676 326.35 678.626 326.97 677.576C331.56 669.847 335.11 662.587 337.28 655.958C341.2 643.949 342.18 636.589 336.56 520.178L292.08 507.649L295.56 616.421C295.56 616.421 239.23 714.463 216 746.851H215.98Z" fill="#6E4E4E"/>
<path d="M272.18 655.478C281.24 674.066 291.64 699.864 302.03 717.813C297 724.452 252.17 780.418 248.8 781.348C232.61 785.768 215.98 746.861 215.98 746.861C229.73 727.702 256.26 682.206 272.18 655.488V655.478Z" fill="#4C3333"/>
<path d="M340 785.928C340 785.928 327.85 790.658 316.27 794.128C306.59 797.037 297.3 799.077 295.8 796.767C295.79 796.747 295.78 796.737 295.77 796.717C293.98 793.838 290.78 782.178 286.93 764.88C286.1 761.16 285.24 757.18 284.37 752.971C271.96 693.555 255.22 588.433 256.19 525.257L316.26 518.558C316.26 518.558 318.81 599.122 323.72 665.987C328.62 732.852 340.01 785.928 340.01 785.928H340Z" fill="#6E4E4E"/>
<path d="M295.77 796.718C295.77 796.718 295.79 796.748 295.8 796.768C297.3 799.078 306.59 797.038 316.27 794.128L313.17 788.818C313.17 788.818 298.07 793.768 295.77 796.718Z" fill="#3B2626"/>
<path d="M315.28 549.876C316.48 571.824 321 643.509 324.92 680.316C324.94 680.466 324.98 680.596 325.04 680.726C325.68 679.666 326.29 678.616 326.89 677.566C323.05 640.139 318.7 571.234 317.53 549.796C317.5 549.186 316.96 548.696 316.34 548.726C315.72 548.746 315.24 549.266 315.27 549.876H315.28Z" fill="#4C3333"/>
<path d="M317.9 830.504C316.78 837.114 318.08 841.314 318.41 844.853C318.41 845.003 318.43 845.143 318.45 845.283C319.51 853.023 323.82 851.383 337.66 852.233C351.5 853.093 394.6 853.253 395.29 849.113C395.97 844.973 385.05 841.374 375.04 837.464C374.74 837.344 374.44 837.234 374.13 837.094C373.82 836.964 373.51 836.844 373.21 836.704C363.85 832.704 351.89 825.115 348.32 817.965C347.47 816.275 346.6 813.516 345.77 810.356C345.55 809.526 343.58 800.897 342 793.997C341 789.637 340.17 785.968 340.04 785.398L340.02 785.358C340.02 785.358 340.02 785.358 340.02 785.348C339.97 785.118 339.92 784.888 339.86 784.658C339.4 783.728 337.61 782.358 330.81 783.798C326.49 784.708 318.32 786.898 310.92 789.537C311.5 792.037 318.81 813.256 318.96 819.865C319.05 823.755 318.41 827.525 317.91 830.494L317.9 830.504Z" fill="#E8936B"/>
<path d="M340.01 785.358C340.01 785.358 340.01 785.398 340.02 785.408V785.368C340.02 785.368 340.01 785.368 340.01 785.358Z" fill="#F0915F"/>
<path d="M340.01 785.358C339.96 785.128 339.9 784.898 339.85 784.668C340.02 785.008 340.01 785.298 340.01 785.358Z" fill="#F0915F"/>
<path d="M267.91 571.296C268.1 571.296 268.3 571.256 268.49 571.156C277.87 565.956 282.13 555.596 282.3 555.166C282.53 554.596 282.25 553.946 281.67 553.726C281.09 553.496 280.43 553.776 280.2 554.346C280.16 554.446 276.05 564.416 267.38 569.226C266.84 569.526 266.64 570.206 266.95 570.746C267.15 571.106 267.53 571.306 267.91 571.316V571.296Z" fill="#4C3333"/>
<path d="M317.83 564.885C318.07 564.885 318.32 564.795 318.48 564.595L326.39 555.285C326.69 554.935 326.64 554.405 326.27 554.105C325.91 553.805 325.37 553.845 325.08 554.195L317.17 563.505C316.87 563.855 316.92 564.385 317.29 564.685C317.45 564.815 317.64 564.885 317.83 564.885Z" fill="#4C3333"/>
<path d="M316.86 846.693C317.9 851.163 315.03 853.333 344.97 853.903C374.91 854.473 394.18 851.503 395.32 850.963C395.95 850.673 396.76 849.703 396.99 848.423C397.19 847.373 396.99 846.123 396 844.863C393.8 842.044 370.78 834.364 362.4 829.204C354.03 824.035 350 813.056 347.62 813.266C342.53 813.726 340.73 818.695 334.44 822.475C328.15 826.255 318.61 822.735 318.61 822.735C318.17 830.784 318.77 833.254 317.53 839.334C316.86 842.564 316.49 845.153 316.85 846.703L316.86 846.693Z" fill="#C16453"/>
<path d="M183.02 785.168C183.04 786.138 183.12 787.178 183.26 788.268C185.11 802.707 196.93 826.275 204.6 836.774C212.85 848.063 220.71 850.993 225.31 846.624C229.92 842.264 222.9 825.435 221.48 811.496C220.42 801.147 225.62 793.987 226.99 789.598C227.09 789.288 227.18 788.988 227.26 788.698C227.57 787.598 227.73 786.708 227.63 786.018C227.13 782.668 221.23 781.168 212.19 780.998C204.31 780.848 201.19 765.77 201.19 765.77C197.76 770.149 194.49 772.149 191.68 773.479C186.42 775.969 182.82 776.099 183.01 785.178L183.02 785.168Z" fill="#C16453"/>
<path d="M360.82 835.015C362.73 835.055 365.92 834.805 371.25 833.805C371.71 833.715 372.01 833.285 371.92 832.825C371.83 832.375 371.39 832.075 370.93 832.165C366.08 833.075 360.36 833.695 359.22 833.225C359.35 832.765 360.23 831.725 360.77 831.085C361.89 829.755 362.86 828.615 362.71 827.565C362.65 827.155 362.43 826.805 362.08 826.555C360.27 825.315 352.92 826.405 350.71 826.765C350.25 826.845 349.94 827.275 350.01 827.725C350.09 828.175 350.52 828.485 350.99 828.405C355.06 827.735 359.93 827.355 361.01 827.865C360.88 828.325 360 829.365 359.46 830.005C358.34 831.335 357.37 832.475 357.52 833.525C357.58 833.935 357.8 834.285 358.15 834.535C358.37 834.685 359.03 834.975 360.81 835.005L360.82 835.015Z" fill="white"/>
<path d="M218.83 814.527C219.77 814.547 220.58 814.437 221.12 814.147C221.69 813.837 221.91 813.407 221.99 813.097C222.4 811.617 220.32 809.347 215.47 804.507C213.65 802.697 211.25 800.287 210.58 799.207C212.11 799.257 216.67 800.837 220.48 802.507C220.91 802.697 221.41 802.507 221.6 802.087C221.79 801.667 221.6 801.177 221.17 800.987C218.31 799.737 211.44 796.917 209.52 797.727C209.06 797.917 208.87 798.237 208.78 798.477C208.36 799.647 209.86 801.287 214.26 805.687C216.49 807.917 220.19 811.617 220.34 812.667C219.7 813.247 215.42 812.627 211.27 811.337C210.82 811.197 210.35 811.447 210.21 811.887C210.07 812.327 210.32 812.797 210.76 812.937C211.77 813.247 215.9 814.477 218.82 814.537L218.83 814.527Z" fill="white"/>
<path d="M350.38 849.284C372.36 849.704 391.54 846.984 391.83 846.944C392.29 846.874 392.61 846.454 392.55 845.994C392.48 845.534 392.05 845.224 391.59 845.294C391.13 845.364 351.46 851.974 320.53 843.184C320.08 843.054 319.61 843.314 319.48 843.754C319.35 844.194 319.61 844.664 320.06 844.784C331.25 847.964 338.14 849.054 350.38 849.284Z" fill="#88262A"/>
<path d="M223.96 845.584C224.09 845.584 224.16 845.584 224.19 845.584C224.66 845.544 225.01 845.144 224.97 844.684C224.93 844.224 224.53 843.884 224.07 843.914C224.01 843.914 222.15 843.964 218.91 842.084C215.86 840.304 210.95 836.405 204.89 827.935C199.33 820.156 194.37 810.247 190.93 800.037C187.8 790.738 186.46 782.709 187.36 778.539C187.46 778.089 187.16 777.649 186.71 777.549C186.25 777.459 185.8 777.739 185.7 778.189C183.76 787.158 191.28 811.776 203.51 828.885C214.76 844.624 222.52 845.544 223.96 845.574V845.584Z" fill="#88262A"/>
<path d="M315.28 394.957C323.74 404.626 342.61 397.197 342.61 394.957C342.61 392.717 343.59 457.512 346.74 466.662C349.89 475.821 342.25 526.057 339.97 529.867C339.97 529.867 330.91 530.547 325.2 528.897C312.03 525.097 303.07 526.867 298.07 522.507C293.07 518.148 315.28 394.947 315.28 394.947V394.957Z" fill="white"/>
<path d="M305.75 369.599C302.21 370.939 298.64 377.029 296 377.029C293.36 377.029 274.2 378.188 262.99 385.158C251.78 392.127 227.61 445.554 225.84 454.843C224.07 464.132 230.56 462.392 225.84 465.582C221.12 468.772 219.65 470.522 221.71 476.911C223.77 483.301 232.03 489.98 233.21 490.12C234.39 490.27 249.43 482.421 249.43 482.421C249.43 482.421 245.01 544.966 244.71 553.616C244.41 562.265 274.2 563.495 287.47 562.445C300.74 561.395 311.75 556.005 313.57 553.886C315.39 551.766 318.43 492.58 319.31 476.611C320.19 460.642 319.65 397.627 319.77 390.948C319.9 384.268 305.74 369.579 305.74 369.579L305.75 369.599Z" fill="#DAE0E8"/>
<path d="M232.03 485.34C254.85 499.539 270.81 503.199 284.08 504.649C297.35 506.099 298.53 506.429 301.77 507.639C305.01 508.859 322.05 517.068 326.58 518.558C331.11 520.048 331.85 516.408 332.59 515.828C333.33 515.248 334.95 514.228 335.69 511.908C336.43 509.588 339.67 510.018 338.79 506.249C337.91 502.469 340.06 502.329 340.02 498.549C339.97 494.77 335.55 493.18 335.55 493.18C335.55 493.18 335.55 491.58 334.52 490.57C333.49 489.55 325.71 484.62 323.63 484.18C321.55 483.74 317.13 488.39 311.52 489.55C305.91 490.71 303.84 489.7 298.09 487.81C292.35 485.92 261.53 468.501 259.47 468.062C257.41 467.622 229.7 483.87 232.05 485.34H232.03Z" fill="#E8936B"/>
<path d="M335.9 493.91C335.82 493.91 335.74 493.89 335.66 493.86L328.51 490.66C328.22 490.53 328.09 490.19 328.22 489.91C328.35 489.62 328.7 489.5 328.98 489.63L336.13 492.83C336.42 492.96 336.55 493.3 336.42 493.58C336.32 493.79 336.11 493.91 335.89 493.91H335.9Z" fill="#D4745C"/>
<path d="M340 373.408C341.43 379.218 340.49 390.057 340 400.026C339.51 409.996 340.84 465.741 342.61 480.12C344.38 494.489 342.32 543.716 341.73 550.685C341.14 557.655 346.15 573.623 344.38 579.143L342.61 584.663C342.61 584.663 344.08 588.002 344.38 589.452C344.67 590.902 348.95 584.803 348.95 579.583C348.95 574.363 344.1 556.355 344.46 551.705C344.82 547.055 348.95 512.648 348.95 512.648C348.95 512.648 377.26 451.962 376.96 449.343C376.67 446.733 368.56 399.546 365.02 395.477C361.48 391.407 347.61 379.508 347.61 379.508L340 373.408Z" fill="#DAE0E8"/>
<path d="M259.46 468.632C259.21 468.632 258.98 468.472 258.91 468.222C257.57 463.712 240.31 464.362 233.77 465.002C233.45 465.032 233.17 464.802 233.14 464.492C233.11 464.182 233.34 463.902 233.66 463.872C236.16 463.632 258.17 461.682 260.02 467.912C260.11 468.212 259.93 468.532 259.63 468.622C259.58 468.642 259.52 468.642 259.47 468.642L259.46 468.632Z" fill="#B9C8D7"/>
<path d="M383.38 453.953C384.18 450.993 386.59 449.413 387.21 449.013C390.83 446.713 395.81 447.123 399.15 449.743C402.48 452.343 402.92 456.143 402.98 456.853C403.05 457.553 403.51 462.463 399.81 465.273C396.63 467.683 392.7 466.793 391.48 466.433C386.27 464.913 381.98 459.053 383.37 453.943L383.38 453.953Z" fill="#EE4450"/>
<path d="M391.32 454.882C391.44 455.002 392 454.412 393.35 453.942C394.19 453.652 394.85 453.422 395.27 453.722C395.75 454.072 395.68 454.942 395.6 455.792C395.48 457.112 395.05 457.832 395.23 457.932C395.41 458.032 396.13 457.452 396.52 456.622C397.11 455.372 396.64 454.282 397.04 454.122C397.4 453.982 398.05 454.762 398.33 455.102C399.41 456.402 399.54 457.532 399.77 457.502C400.01 457.462 400.33 456.052 399.7 454.892C399.13 453.842 398.18 453.752 398.19 453.152C398.19 452.222 400.43 451.752 400.33 451.372C400.25 451.082 398.83 450.882 397.79 451.522C397.21 451.872 397.06 452.292 396.68 452.252C396.24 452.202 396.16 451.612 395.57 450.872C394.78 449.872 393.68 449.352 393.56 449.472C393.44 449.602 394.17 450.602 394.53 451.092C394.9 451.592 395.07 451.762 395.01 451.962C394.9 452.312 394.21 452.252 393.5 452.502C391.98 453.042 391.16 454.722 391.33 454.902L391.32 454.882Z" fill="#A99852"/>
<path d="M377.57 463.002C378.37 460.042 380.78 458.462 381.4 458.062C385.02 455.762 390 456.172 393.34 458.792C396.67 461.392 397.11 465.192 397.17 465.902C397.24 466.602 397.7 471.512 394 474.322C390.82 476.732 386.89 475.842 385.67 475.482C380.46 473.962 376.17 468.102 377.56 462.992L377.57 463.002Z" fill="#EE4450"/>
<path d="M383.14 465.582C383.26 465.702 383.82 465.112 385.17 464.642C386.01 464.352 386.67 464.122 387.09 464.422C387.57 464.772 387.5 465.642 387.42 466.492C387.3 467.812 386.87 468.532 387.05 468.632C387.23 468.732 387.95 468.152 388.34 467.322C388.93 466.072 388.46 464.982 388.86 464.822C389.22 464.682 389.87 465.462 390.15 465.802C391.23 467.102 391.36 468.232 391.59 468.202C391.83 468.162 392.15 466.752 391.52 465.592C390.95 464.542 390 464.452 390.01 463.852C390.01 462.922 392.25 462.452 392.15 462.072C392.07 461.782 390.66 461.582 389.61 462.222C389.03 462.572 388.88 462.992 388.5 462.952C388.06 462.902 387.98 462.312 387.39 461.572C386.6 460.572 385.5 460.052 385.38 460.172C385.26 460.302 385.99 461.302 386.35 461.792C386.72 462.292 386.89 462.462 386.83 462.662C386.72 463.012 386.03 462.952 385.32 463.202C383.8 463.742 382.98 465.422 383.15 465.602L383.14 465.582Z" fill="#A99852"/>
<path d="M370.26 460.083C368.57 457.513 368.99 454.693 369.11 453.973C369.81 449.783 373.46 446.423 377.67 445.733C381.86 445.043 385.01 447.273 385.6 447.703C386.18 448.123 390.18 451.083 389.82 455.663C389.5 459.603 386.19 461.873 385.11 462.523C380.48 465.313 373.18 464.513 370.27 460.073L370.26 460.083Z" fill="#EE4450"/>
<path d="M375.93 457.743C376.1 457.743 376.03 456.923 376.58 455.633C376.92 454.823 377.19 454.193 377.7 454.083C378.29 453.963 378.89 454.603 379.48 455.233C380.39 456.203 380.65 457.003 380.85 456.943C381.05 456.883 381.09 455.973 380.73 455.123C380.19 453.853 379.05 453.463 379.19 453.063C379.32 452.703 380.35 452.753 380.79 452.783C382.49 452.863 383.43 453.523 383.56 453.343C383.7 453.143 382.84 451.963 381.54 451.643C380.36 451.353 379.66 451.983 379.21 451.583C378.52 450.953 379.66 449.013 379.3 448.833C379.03 448.693 377.93 449.593 377.7 450.793C377.58 451.453 377.79 451.843 377.5 452.083C377.17 452.373 376.67 452.033 375.72 451.963C374.44 451.863 373.31 452.323 373.32 452.493C373.33 452.663 374.58 452.803 375.19 452.863C375.81 452.933 376.06 452.923 376.17 453.093C376.36 453.413 375.85 453.873 375.57 454.563C374.96 456.033 375.67 457.763 375.92 457.763L375.93 457.743Z" fill="#A99852"/>
<path d="M397.18 466.482C396.89 466.482 396.64 466.272 396.61 465.982C396.32 463.702 394.73 460.542 391.81 458.652C390.09 457.532 387.23 456.432 383.36 457.532C383.05 457.622 382.73 457.442 382.64 457.142C382.55 456.842 382.73 456.522 383.03 456.442C387.32 455.222 390.51 456.452 392.43 457.702C395.26 459.542 397.35 462.742 397.73 465.842C397.77 466.152 397.54 466.442 397.23 466.472C397.21 466.472 397.18 466.472 397.16 466.472L397.18 466.482Z" fill="#C12327"/>
<path d="M377.79 462.904C377.54 462.904 377.3 462.734 377.23 462.484C377.08 461.954 377.69 460.874 379.04 459.284C380.45 457.624 381.89 456.874 382.6 456.584C382.58 455.264 382.98 451.444 387.96 447.954C388.22 447.774 388.58 447.834 388.76 448.084C388.94 448.344 388.88 448.694 388.62 448.874C383.22 452.654 383.74 456.704 383.77 456.874L383.84 457.374L383.35 457.514C383.35 457.514 381.6 458.024 379.92 460.004C378.57 461.594 378.38 462.194 378.36 462.294C378.37 462.554 378.2 462.794 377.94 462.864C377.89 462.874 377.84 462.884 377.79 462.884V462.904Z" fill="#C12327"/>
<path d="M258.47 467.233C258.47 467.233 258.45 467.233 258.44 467.233C258.12 467.213 257.88 466.943 257.9 466.633C257.9 466.603 258.09 463.293 257.9 462.003C257.75 460.963 256.14 457.173 241.76 452.003C241.46 451.893 241.31 451.573 241.41 451.273C241.52 450.973 241.85 450.823 242.15 450.933C256.2 455.983 258.76 459.933 259.04 461.843C259.24 463.233 259.05 466.553 259.04 466.693C259.02 466.993 258.77 467.233 258.46 467.233H258.47Z" fill="#B9C8D7"/>
<path d="M274.2 416.415C274.2 416.415 274.16 416.415 274.14 416.415C273.82 416.385 273.59 416.105 273.62 415.795V415.695C274.1 411.095 275.11 395.237 268.2 384.597C268.03 384.337 268.11 383.977 268.38 383.807C268.65 383.637 269.01 383.717 269.18 383.977C276.29 394.927 275.26 411.095 274.78 415.795V415.895C274.74 416.185 274.49 416.405 274.2 416.405V416.415Z" fill="#B9C8D7"/>
<path d="M257.71 460.802C257.71 460.802 257.66 460.802 257.63 460.802C257.31 460.762 257.09 460.472 257.14 460.162C257.16 460.052 257.55 457.403 259.03 455.743C259.63 455.073 259.97 453.313 260.34 451.463C260.74 449.463 261.18 447.203 262.08 445.244C262.6 444.094 263.32 442.974 264.15 441.674C266.14 438.554 268.62 434.664 269.75 428.155C269.8 427.845 270.1 427.635 270.42 427.695C270.73 427.745 270.95 428.045 270.89 428.355C269.71 435.084 267.17 439.084 265.13 442.284C264.32 443.554 263.63 444.644 263.13 445.713C262.29 447.553 261.85 449.753 261.47 451.683C261.04 453.873 260.7 455.593 259.89 456.493C258.64 457.903 258.28 460.302 258.28 460.322C258.24 460.602 257.99 460.812 257.71 460.812V460.802Z" fill="#B9C8D7"/>
<path d="M354.01 477.781C354.01 477.781 353.95 477.781 353.92 477.781C353.6 477.731 353.39 477.441 353.44 477.131C353.52 476.621 361.64 425.864 357.9 403.946C357.85 403.636 358.06 403.346 358.37 403.296C358.68 403.236 358.98 403.456 359.04 403.766C362.81 425.864 354.67 476.801 354.58 477.321C354.53 477.601 354.29 477.801 354.01 477.801V477.781Z" fill="#B9C8D7"/>
<path d="M358.92 434.605C358.82 434.605 358.72 434.585 358.63 434.525C358.35 434.365 358.26 434.025 358.42 433.745C358.46 433.675 362.32 426.915 363.86 414.615C363.9 414.305 364.18 414.075 364.5 414.125C364.82 414.165 365.04 414.445 365 414.755C363.43 427.305 359.58 434.035 359.42 434.315C359.31 434.495 359.12 434.605 358.92 434.605Z" fill="#B9C8D7"/>
<path d="M415.25 481.082C415.12 484.632 411.27 486.882 410.93 487.082C403.92 491.062 391.56 485.572 390.88 478.762C390.55 475.452 392.98 472.032 395.89 470.532C403.33 466.702 415.49 474.632 415.25 481.082Z" fill="#7F7340"/>
<path d="M311.14 394.958C310.78 394.958 310.41 394.528 306.95 389.378C304.45 385.658 301.98 381.808 300.16 378.808C300 378.538 300.09 378.188 300.36 378.028C300.64 377.868 300.99 377.958 301.15 378.228C304.85 384.328 309.96 391.848 311.27 393.608C312.4 392.698 315.66 389.928 317.76 388.138C318 387.928 318.36 387.958 318.57 388.198C318.78 388.438 318.75 388.798 318.51 388.998C311.59 394.918 311.46 394.938 311.23 394.958C311.19 394.958 311.16 394.958 311.13 394.958H311.14Z" fill="#B9C8D7"/>
<path d="M400.55 458.343C400.97 456.443 402.95 455.563 403.65 451.663C404.04 449.503 403.83 447.513 404.24 447.453C404.91 447.353 405.67 452.553 407.48 452.683C408.69 452.773 409.57 450.523 410.43 450.793C411.26 451.053 410.91 453.263 411.46 453.403C412.58 453.683 415.16 444.894 417.36 445.124C418.61 445.264 419.14 448.283 420.46 448.173C421.23 448.103 421.57 447.023 422.08 447.153C422.72 447.313 422.22 449.003 423.11 449.763C424.3 450.783 426.58 448.933 427.83 449.913C428.82 450.683 427.85 452.203 428.71 453.103C430.45 454.913 436.78 451.213 437.56 452.373C438 453.043 436.04 454.413 436.53 455.853C437 457.233 439.16 457.003 439.63 458.323C440.12 459.712 437.94 460.542 437.86 462.392C437.73 465.332 443.19 466.102 444.49 470.522C445.19 472.902 444.46 475.571 443.61 475.751C442.53 475.981 440.9 472.292 440.66 472.412C440.43 472.532 442.72 475.721 442.58 479.671C442.47 482.631 441.02 485.391 440.07 485.331C439.4 485.291 439.18 483.831 438.6 483.881C437.71 483.951 437.77 487.38 436.54 487.66C435.7 487.85 435.27 486.361 434.03 486.211C432.08 485.971 431.06 489.4 429.31 489.55C427.05 489.74 425.11 484.321 423.71 481.421C416.87 467.312 399.23 464.402 400.56 458.333L400.55 458.343Z" fill="#7F7340"/>
<path d="M347.61 398.816C347.61 398.816 350.08 390.747 349.98 387.977C349.78 382.527 342.52 376.028 340.13 374.038C341.25 379.488 340.6 388.717 340.13 397.646C340.32 403.796 339.92 410.535 340.13 417.215C340.76 426.254 339.79 437.433 340.77 448.003C343.22 434.324 350.87 407.926 350.87 407.926L347.61 398.826V398.816Z" fill="#B9C8D7"/>
<path d="M407.97 471.952C407.97 468.272 404.94 465.302 401.21 465.302C397.48 465.302 394.45 468.282 394.45 471.952C394.45 475.622 397.48 478.602 401.21 478.602C404.94 478.602 407.97 475.622 407.97 471.952Z" fill="#A99852"/>
<path d="M409.3 473.212C413.033 473.212 416.06 470.235 416.06 466.562C416.06 462.889 413.033 459.912 409.3 459.912C405.567 459.912 402.54 462.889 402.54 466.562C402.54 470.235 405.567 473.212 409.3 473.212Z" fill="#A99852"/>
<path d="M419.42 470.332C423.153 470.332 426.18 467.355 426.18 463.682C426.18 460.01 423.153 457.032 419.42 457.032C415.686 457.032 412.66 460.01 412.66 463.682C412.66 467.355 415.686 470.332 419.42 470.332Z" fill="#A99852"/>
<path d="M426.18 477.862C429.913 477.862 432.94 474.884 432.94 471.212C432.94 467.539 429.913 464.562 426.18 464.562C422.446 464.562 419.42 467.539 419.42 471.212C419.42 474.884 422.446 477.862 426.18 477.862Z" fill="#A99852"/>
<path d="M437.72 479.242C437.72 476.102 435.14 473.562 431.95 473.562C428.76 473.562 426.18 476.102 426.18 479.242C426.18 482.382 428.76 484.922 431.95 484.922C435.14 484.922 437.72 482.382 437.72 479.242Z" fill="#A99852"/>
<path d="M414.58 476.022C414.58 472.882 412 470.342 408.81 470.342C405.62 470.342 403.04 472.882 403.04 476.022C403.04 479.162 405.62 481.702 408.81 481.702C412 481.702 414.58 479.162 414.58 476.022Z" fill="#A99852"/>
<path d="M405.86 464.562C405.86 462.472 404.14 460.782 402.02 460.782C399.9 460.782 398.18 462.472 398.18 464.562C398.18 466.652 399.9 468.342 402.02 468.342C404.14 468.342 405.86 466.652 405.86 464.562Z" fill="#A99852"/>
<path d="M416.06 460.772C416.06 458.682 414.34 456.992 412.22 456.992C410.1 456.992 408.38 458.682 408.38 460.772C408.38 462.862 410.1 464.552 412.22 464.552C414.34 464.552 416.06 462.862 416.06 460.772Z" fill="#A99852"/>
<path d="M413.61 476.022C416.261 476.022 418.41 473.904 418.41 471.292C418.41 468.679 416.261 466.562 413.61 466.562C410.959 466.562 408.81 468.679 408.81 471.292C408.81 473.904 410.959 476.022 413.61 476.022Z" fill="#A99852"/>
<path d="M428.03 477.921C428.03 473.311 424.24 469.581 419.56 469.581C414.88 469.581 411.09 473.311 411.09 477.921C411.09 482.531 414.88 486.261 419.56 486.261C424.24 486.261 428.03 482.531 428.03 477.921Z" fill="#A99852"/>
<path d="M358.39 449.332C368.71 454.272 380.65 465.741 388.17 471.25C395.69 476.77 403.36 480.98 403.36 480.98C403.36 480.98 421.35 484.899 422.53 484.899C423.71 484.899 414.72 508.048 409.11 518.907C403.51 529.766 392.15 558.244 391.42 559.394C390.68 560.544 374.46 561.124 371.66 560.254C368.86 559.384 344.38 537.746 344.38 537.746L358.39 449.332Z" fill="#D3905E"/>
<path d="M373.24 556.375C373.17 556.375 373.1 556.365 373.03 556.335C372.73 556.225 372.58 555.895 372.7 555.605C378.18 541.446 399.85 486.85 400.06 486.3C400.18 486.01 400.51 485.86 400.81 485.98C401.11 486.09 401.25 486.42 401.14 486.72C400.92 487.27 379.26 541.856 373.78 556.015C373.69 556.245 373.47 556.385 373.24 556.385V556.375Z" fill="#A8683D"/>
<path d="M412.22 475.421C412.16 475.421 412.09 475.411 412.03 475.381C411.81 475.281 411.72 475.021 411.82 474.801C413.79 470.781 417.38 470.231 419.33 470.281C422.06 470.331 424.72 471.551 425.37 473.041C425.47 473.261 425.37 473.511 425.14 473.611C424.92 473.701 424.66 473.611 424.56 473.391C424.1 472.351 421.88 471.201 419.31 471.151C417.56 471.111 414.37 471.591 412.61 475.181C412.53 475.341 412.38 475.431 412.21 475.431L412.22 475.421Z" fill="#7F7340"/>
<path d="M414.58 472.551C414.35 472.551 414.16 472.371 414.14 472.141C414.12 471.741 413.42 470.791 412.19 470.051C411.22 469.471 409.26 468.631 407.08 469.581C406.86 469.681 406.6 469.581 406.5 469.361C406.4 469.141 406.5 468.891 406.73 468.791C408.59 467.981 410.75 468.171 412.66 469.321C414.01 470.131 414.98 471.271 415.03 472.101C415.04 472.341 414.86 472.541 414.62 472.561C414.62 472.561 414.6 472.561 414.59 472.561L414.58 472.551Z" fill="#7F7340"/>
<path d="M418.6 470.851C418.6 470.851 418.57 470.851 418.55 470.851C418.31 470.821 418.14 470.611 418.16 470.371C418.68 466.031 423.7 465.491 423.75 465.481C424 465.461 424.21 465.631 424.23 465.871C424.25 466.111 424.08 466.321 423.84 466.341C423.66 466.361 419.47 466.821 419.03 470.471C419 470.691 418.81 470.851 418.59 470.851H418.6Z" fill="#7F7340"/>
<path d="M411.81 464.122C411.68 464.122 411.56 464.072 411.47 463.962C411.31 463.782 411.34 463.502 411.53 463.352C413.89 461.422 417.38 463.222 417.52 463.302C417.73 463.412 417.81 463.682 417.7 463.892C417.58 464.102 417.32 464.182 417.1 464.072C417.07 464.052 413.99 462.462 412.08 464.022C412 464.092 411.9 464.122 411.8 464.122H411.81Z" fill="#7F7340"/>
<path d="M403.94 474.641C403.94 474.641 403.89 474.641 403.86 474.641C403.62 474.601 403.46 474.371 403.51 474.131C403.54 473.981 404.17 470.411 400.45 469.121C400.22 469.041 400.1 468.791 400.18 468.571C400.26 468.341 400.51 468.231 400.74 468.301C405.17 469.841 404.38 474.241 404.37 474.291C404.33 474.501 404.15 474.641 403.94 474.641Z" fill="#7F7340"/>
<path d="M426.85 480.741C426.85 480.741 426.84 480.741 426.83 480.741C426.59 480.731 426.4 480.531 426.41 480.291C426.41 480.181 426.56 477.511 429.97 475.571C430.18 475.451 430.45 475.521 430.57 475.731C430.69 475.941 430.62 476.201 430.41 476.321C427.44 478.011 427.29 480.231 427.29 480.321C427.28 480.551 427.08 480.731 426.85 480.731V480.741Z" fill="#7F7340"/>
<path d="M250.69 853.523C250.69 856.413 199.62 858.763 136.62 858.763C73.62 858.763 22.55 856.413 22.55 853.523C22.55 850.633 73.62 848.283 136.62 848.283C199.62 848.283 250.69 850.633 250.69 853.523Z" fill="#817892"/>
<path d="M8.2 796.077C3.16 797.357 1.61 798.057 0.199999 799.307C-1.21 800.557 4.99 837.164 7.52 844.794C10.05 852.423 15.27 858.523 16.81 859.773C18.36 861.023 51.17 865.122 51.88 863.072C52.58 861.023 53.57 858.113 51.88 857.413C50.19 856.723 23.01 835.775 18.5 831.485C13.99 827.195 8.19 796.087 8.19 796.087L8.2 796.077Z" fill="#4A3333"/>
<path d="M181.91 781.249C181.91 781.859 179.14 811.297 176.91 818.756C173.79 829.205 172.54 840.894 175.04 843.964C177.54 847.044 247.48 854.413 248.73 850.734C249.98 847.044 217.09 833.345 209.39 821.216C201.53 808.847 220.45 746.251 220.63 746.191L181.91 781.239V781.249Z" fill="#F29E7E"/>
<path d="M249.67 851.654C245.92 855.963 176.29 851.964 173.17 848.274C172.66 847.674 172.36 846.654 172.21 845.364C171.43 838.655 174.73 824.596 174.73 824.596C175.98 823.366 186.6 833.815 190.97 833.815C195.34 833.815 201.59 823.366 204.71 822.136C207.83 820.906 209.11 820.256 213.45 823.976C223.13 832.275 238.43 838.735 242.18 840.574C244.92 841.924 249.66 844.914 250.55 848.104C250.88 849.274 250.69 850.484 249.68 851.644L249.67 851.654Z" fill="#614545"/>
<path d="M249.67 853.504C245.92 857.814 176.29 853.814 173.17 850.124C172.66 849.524 172.36 846.664 172.21 845.374C176.71 846.154 197.23 849.534 220.78 850.384C238.63 851.034 247.46 849.324 250.54 848.124C250.87 849.294 250.68 852.344 249.67 853.514V853.504Z" fill="#4A3333"/>
<path d="M39.2699 841.803C30.7699 840.813 22.2899 839.623 13.7999 838.463C9.47992 826.874 6.40992 815.065 5.99992 809.566C5.05992 796.747 9.78991 794.577 16.1299 792.137C23.7799 789.197 37.9899 769.269 37.9899 769.269L64.7699 781.148C64.7699 781.148 47.2999 801.256 41.0199 816.655C37.8499 824.435 36.6199 834.034 39.2499 841.813L39.2699 841.803Z" fill="#F29E7E"/>
<path d="M15.4201 792.258C16.1901 791.928 17.7301 791.318 18.4401 790.888C17.2601 793.997 15.9201 797.527 17.1301 803.347C20.1301 817.776 25.0901 811.706 31.7201 812.796C32.4601 812.916 33.5601 813.426 34.7301 814.146C38.4201 816.406 40.3201 820.696 39.5701 824.915C39.0501 827.845 38.6101 830.955 38.7001 833.405C38.8201 836.634 38.1701 840.104 40.0201 843.004C40.8401 844.304 42.0701 845.294 43.2701 846.264C44.9901 847.654 46.7101 849.033 48.4301 850.423C49.7701 851.503 51.1601 852.633 51.8901 854.183C52.4201 855.303 52.7301 857.673 51.5001 858.543C50.9701 858.913 50.1401 858.713 49.4701 858.663C47.6401 858.533 45.8101 858.363 43.9901 858.193C38.9201 857.733 33.8601 857.223 28.8101 856.663C27.1501 856.483 25.4901 856.283 23.8401 856.063C23.0701 855.963 21.8501 855.993 21.1601 855.593C21.1401 855.563 21.1301 855.533 21.1001 855.483C10.5001 847.594 6.34008 818.836 5.53008 809.256C4.41008 795.877 8.67008 795.117 15.4201 792.248V792.258Z" fill="#614545"/>
<path d="M128 482.85C128 482.85 147.98 550.805 165.66 621.73C168.87 634.599 173.1 643.359 175.93 656.368C188.52 714.143 172.3 777.179 177.85 782.288C183.4 787.388 220.25 783.268 220.25 783.268C220.25 783.268 235.09 702.274 230.86 662.327C227.62 631.689 213.1 575.694 201.97 540.896C198.98 531.547 199.65 492.25 195.61 487.68C193.17 484.92 127.98 482.85 127.98 482.85H128Z" fill="#5F7AB0"/>
<path d="M177.86 518.318C171.31 569.784 167.15 602.502 163.02 626.39C156.13 666.197 154.71 682.626 134.62 717.943C110.3 760.72 73.83 790.888 70.5 790.888C60.96 790.878 36.96 767.54 36.96 767.54C36.96 767.54 91.62 691.725 93.96 679.546C97.22 662.557 99.93 610.001 99.86 576.424C99.79 541.116 112.71 507.169 112.71 507.169L177.87 518.328L177.86 518.318Z" fill="#5F7AB0"/>
<path d="M88.4501 708.873C89.0701 708.943 89.6201 708.513 89.7101 707.903L95.9101 661.717C95.9901 661.097 95.5501 660.537 94.9301 660.457C94.3301 660.377 93.7301 660.807 93.6501 661.427L87.4501 707.613C87.3701 708.233 87.8101 708.793 88.4301 708.873C88.4301 708.873 88.4501 708.873 88.4601 708.873H88.4501Z" fill="white"/>
<path d="M163.52 616.5C163.52 616.5 164.31 616.56 164.76 616.58C165.3 616.61 165.76 616.21 165.81 615.68C167.34 598.812 168.51 577.463 167.35 557.675C167.31 557.055 166.78 556.585 166.15 556.615C165.52 556.655 165.04 557.185 165.08 557.805C166.26 577.913 165.1 599.551 163.53 616.5H163.52Z" fill="#464C7B"/>
<path d="M171.47 595.081C171.92 594.951 172.4 595.201 172.54 595.641C172.72 596.221 190.25 653.607 192.07 684.755C192.99 700.524 189.5 749.33 186.92 781.728C186.36 781.628 185.8 781.558 185.22 781.498C187.79 749.15 191.28 700.514 190.36 684.845C188.55 653.887 171.08 596.691 170.9 596.121C170.76 595.671 171.02 595.211 171.47 595.071V595.081Z" fill="#464C7B"/>
<path d="M116.74 584.045C116.95 584.065 117.17 584.035 117.37 583.935C127.98 578.665 132.42 565.085 132.61 564.505C132.8 563.915 132.47 563.285 131.87 563.095C131.27 562.905 130.63 563.235 130.44 563.825C130.4 563.955 126.09 577.085 116.35 581.925C115.79 582.205 115.56 582.875 115.85 583.435C116.03 583.785 116.37 584.005 116.75 584.045H116.74Z" fill="#464C7B"/>
<path d="M162.4 352.081C163.97 351.131 166.29 350.091 168.07 349.701C169.86 349.311 170.13 349.151 170.96 347.541C171.39 346.711 172.18 345.711 172.7 344.921C177.47 337.721 189 336.751 196.76 338.591C198.06 338.901 196.83 340.621 195.45 340.371C191.36 339.641 187.25 339.571 183.19 340.541C180.89 341.091 178.39 341.931 176.42 343.261C174.1 344.821 173.05 347.061 171.8 349.441C170.27 352.371 167.85 351.421 165.03 352.721C160.51 354.811 158.48 359.011 155.88 362.891C155.19 363.921 154.19 363.971 154.64 362.871C156.03 359.461 158.51 354.411 162.41 352.071L162.4 352.081Z" fill="white"/>
<path d="M245.87 355.511C245.87 355.511 255.58 350.671 252.6 341.562C249.61 332.452 243.72 332.092 243.72 332.092C243.72 332.092 246.98 320.833 233.81 316.933C220.64 313.034 215.18 324.753 215.18 324.753C215.18 324.753 208.25 322.003 202.23 326.893C196.21 331.772 195.15 339.292 195.15 339.292C195.15 339.292 181.97 338.692 176.06 344.941C170.15 351.191 173.03 355.641 173.03 355.641C173.03 355.641 162.39 358.69 158.79 365.86C155.19 373.029 157.61 378.609 157.61 378.609C157.61 378.609 147.02 375.689 147.54 385.188C148.96 411.456 241.45 423.066 241.45 423.066C241.45 423.066 265.76 406.267 244.52 392.558C244.52 392.558 247.31 385.728 236.23 376.719C225.15 367.7 245.88 355.521 245.88 355.521L245.87 355.511Z" fill="#F7F2F0"/>
<path d="M198.63 388.007C182.5 388.267 160.23 388.687 146.1 406.395C135.5 419.675 121.37 475.23 120.2 477.23C115.49 485.24 107.14 513.898 107.14 518.967C107.14 524.037 171.79 545.595 202 540.906C206.34 540.236 209.96 496.639 209.96 496.639C209.96 496.639 221.04 488.629 227.25 483.15C233.46 477.67 245.53 422.854 245.28 416.115C245.02 409.365 244.62 407.145 231.72 399.036C218.82 390.927 198.64 388.027 198.64 388.027L198.63 388.007Z" fill="#BFB37B"/>
<path d="M391.13 871.832L383.3 562.415C382.82 543.606 367.48 528.868 348.37 528.868H333.48C314.37 528.868 299.03 543.606 298.55 562.415L290.72 871.832L280.66 871.582L288.49 562.165C289.1 537.937 308.86 518.958 333.48 518.958H348.37C372.98 518.958 392.74 537.937 393.36 562.165L401.19 871.582L391.13 871.832Z" fill="#91A6BA"/>
<path d="M390.7 710.414H313.48C311.4 710.414 309.71 708.754 309.71 706.694C309.71 704.634 311.4 702.974 313.48 702.974H390.7C392.78 702.974 394.47 704.634 394.47 706.694C394.47 708.754 392.78 710.414 390.7 710.414Z" fill="#50525B"/>
<path d="M312.95 871.832L305.12 562.415C304.64 543.606 289.3 528.868 270.19 528.868H255.3C236.19 528.868 220.85 543.606 220.37 562.415L212.54 871.832L202.48 871.582L210.31 562.165C210.92 537.937 230.68 518.958 255.3 518.958H270.19C294.8 518.958 314.56 537.937 315.18 562.165L323.01 871.582L312.95 871.832Z" fill="#AFC0D2"/>
<path d="M291.32 565.644H213.93V573.074H291.32V565.644Z" fill="#27282D"/>
<path d="M393.36 562.175C392.75 537.946 372.99 518.968 348.37 518.968H333.48C308.87 518.968 289.11 537.946 288.49 562.175L288.13 576.424H298.2L298.55 562.425C299.03 543.616 314.37 528.877 333.48 528.877H348.37C367.48 528.877 382.82 543.616 383.3 562.425L383.65 576.424H393.72L393.36 562.175Z" fill="#27282D"/>
<path d="M315.18 562.175C314.57 537.946 294.81 518.968 270.19 518.968H255.3C230.69 518.968 210.93 537.946 210.31 562.175L209.95 576.424H220.02L220.37 562.425C220.85 543.616 236.19 528.877 255.3 528.877H270.19C289.3 528.877 304.64 543.616 305.12 562.425L305.47 576.424H315.54L315.18 562.175Z" fill="#50525B"/>
<path d="M387.59 572.735H309.63C307.55 572.735 305.86 571.075 305.86 569.015C305.86 566.955 307.55 565.295 309.63 565.295H387.59C389.67 565.295 391.36 566.955 391.36 569.015C391.36 571.075 389.67 572.735 387.59 572.735Z" fill="#50525B"/>
<path d="M310.55 710.413H211.79V702.983H310.55C312.63 702.983 314.32 704.643 314.32 706.703C314.32 708.763 312.63 710.423 310.55 710.423V710.413Z" fill="#27282D"/>
<path d="M199.29 353.46C201.29 352.89 205.06 353.93 206.1 356.55C206.43 357.38 206.71 358.32 206.92 359.24C207.1 360.04 207.31 358.5 207.83 357.86C208.6 356.87 208.49 355.38 209.18 354.34C209.95 353.19 211.64 352.76 212.92 352.51C214.35 352.23 215.85 352.04 217.04 351.22C217.95 350.59 218.57 349.661 219.26 348.801C221.14 346.471 223.74 344.581 226.72 344.101C229.81 343.591 232.92 344.621 236 345.201C237.07 345.401 238.34 345.491 239.11 344.741C239.88 343.991 240.01 342.551 241.06 342.291C241.53 342.171 242.04 342.371 242.4 342.691C243.16 343.351 243.4 344.401 243.6 345.381C244.81 351.31 245.79 357.3 247.11 363.21C249.35 373.269 250.31 381.658 241.39 388.698C240.31 389.448 239.13 390.138 237.91 390.737C235.85 391.767 233.64 392.567 231.49 393.167C231.12 393.267 230.73 393.377 230.41 393.587C229.64 394.107 229.44 395.127 228.83 395.827C228.43 396.287 227.89 396.587 227.49 397.037C226.57 398.097 226.7 399.267 227.31 400.297C227.98 401.427 229.22 402.387 230.27 402.797C230.27 402.797 219.28 431.574 213.7 418.705C211.28 413.126 207.27 404.416 204.37 400.467C199.82 394.267 195.95 389.858 195.95 389.858C201.04 387.248 204.26 384.518 203.39 371.659C203.39 371.659 193.76 370.409 193.35 361.73C193.25 359.48 195.41 354.59 199.27 353.48L199.29 353.46Z" fill="#F29E7E"/>
<g opacity="0.7">
<path d="M240.55 370.039C240.54 369.409 239.97 368.869 239.31 368.879C238.66 368.879 238.02 368.899 237.37 368.909C236.72 368.909 236.17 369.449 236.19 370.089C236.2 370.719 236.77 371.259 237.43 371.249C238.08 371.249 238.72 371.229 239.37 371.219C240.02 371.219 240.57 370.679 240.55 370.049V370.039Z" fill="#D45C48"/>
</g>
<path d="M229.23 348.09C229.16 347.8 229.06 347.52 228.95 347.25C228.82 346.95 228.63 346.64 228.34 346.49C228.01 346.32 227.62 346.37 227.26 346.44C225 346.89 222.97 348.08 221.01 349.26C220.21 349.75 217.93 351.05 218.78 352.28C219.47 353.27 221.37 352.21 222.2 352C223.34 351.71 224.45 351.33 225.62 351.11C227.09 350.83 229.48 351.08 229.37 349C229.35 348.69 229.31 348.38 229.23 348.08V348.09Z" fill="#F7F2F0"/>
<path d="M241.02 354.7C240.74 354.54 240.5 354.33 240.35 354.02C240.04 353.42 240.19 352.71 240.44 352.12C240.85 351.17 241.48 350.97 242.35 351.56C244 352.67 245.49 354.01 246.72 355.56C246.94 355.83 247.15 356.14 247.18 356.48C247.29 358 245.55 356.75 245.06 356.48C244.06 355.94 243.05 355.47 241.98 355.09C241.66 354.98 241.32 354.86 241.03 354.69L241.02 354.7Z" fill="#F7F2F0"/>
<path d="M208.24 379.498C209.88 384.918 211.64 393.878 227.32 400.268C226.71 399.238 226.58 398.068 227.5 397.008C227.9 396.558 228.44 396.258 228.84 395.798C229.44 395.108 229.65 394.078 230.42 393.558C230.74 393.338 231.13 393.238 231.5 393.138C233.65 392.538 235.86 391.728 237.92 390.708C237.92 390.638 237.93 390.598 237.93 390.598C230.41 394.228 222.33 387.718 222.33 387.718C222.33 387.718 215.27 390.208 208.24 379.488V379.498Z" fill="#D45C48"/>
<path d="M241.39 377.278C239.78 376.418 229.5 373.278 227.82 373.188C227.32 379.458 235.42 387.918 241.39 377.278Z" fill="white"/>
<path d="M226.17 356.95C225.89 356.51 225.51 356.21 225.03 356.14C224.98 356.12 224.92 356.11 224.87 356.1C224.85 356.1 224.83 356.08 224.81 356.08C224.79 356.08 224.77 356.08 224.75 356.08C223.08 355.82 222.09 357.86 222.57 359.26C222.6 359.57 222.69 359.87 222.91 360.11C223.13 360.34 223.44 360.49 223.76 360.56C223.78 360.58 223.8 360.6 223.84 360.61C224.57 360.94 225.2 360.66 225.65 360.1C226.57 359.4 226.81 357.98 226.16 356.95H226.17Z" fill="#1A1A1A"/>
<path d="M247.78 363.269C247.32 362.239 246.06 361.769 245.03 362.269C244.94 362.309 244.85 362.369 244.77 362.429C244.5 362.619 244.3 362.899 244.23 363.239C244.23 363.279 244.21 363.319 244.21 363.359C244.21 363.369 244.21 363.379 244.21 363.399C244.16 364.009 244.12 364.629 244.36 365.209C244.83 366.339 246.28 366.529 247.2 365.849C248 365.259 248.18 364.149 247.79 363.269H247.78Z" fill="#1A1A1A"/>
<path d="M210 366.98C214.94 362.52 216.82 353.74 221.94 349.24C223.84 347.57 225.14 346.85 227.59 346.14C230.9 345.19 235.49 346.19 237.69 343.01C238.4 341.98 241.71 340.58 241.14 341.65C238.24 347.11 235.69 347.13 233.22 347.46C229.37 347.98 226.18 348.5 223.05 351.02C217.47 355.51 216.5 363 211.27 367.7C210.2 368.66 208.92 367.94 209.98 366.98H210Z" fill="#F7F2F0"/>
<path d="M127.3 492.68C128.28 500.519 131.03 502.859 132.85 504.319C135.68 506.579 214.92 526.387 217.66 528.577C220.4 530.767 227.18 536.596 231.35 538.306C235.52 540.016 238.34 542.876 239.29 543.226C240.24 543.576 244.12 541.386 244.8 540.306C245.49 539.226 247.11 540.516 249.27 539.396C251.44 538.276 250.99 537.306 252.67 537.026C254.35 536.746 257.13 534.887 258.08 534.227C259.04 533.567 259.59 536.656 261.68 535.887C263.77 535.117 266.14 529.477 265.51 526.727C264.88 523.977 257.16 513.528 255.91 512.528C254.66 511.528 232.4 510.428 230.4 509.838C228.4 509.258 217.08 503.669 206.78 500.109C196.48 496.549 154.29 477.471 154.29 477.471C151.39 474.951 126.47 486.13 127.28 492.67L127.3 492.68Z" fill="#F29E7E"/>
<path d="M153.68 476.792C153.61 476.792 153.54 476.782 153.47 476.752C153.14 476.632 152.97 476.282 153.09 475.962C153.22 475.602 166.31 440.044 168.65 434.605C168.79 434.285 169.16 434.145 169.47 434.275C169.79 434.405 169.94 434.775 169.8 435.085C167.48 440.484 154.4 476.022 154.27 476.372C154.18 476.622 153.94 476.782 153.68 476.782V476.792Z" fill="#C12327"/>
<path d="M131.37 503.63C131.17 503.63 130.97 503.53 130.85 503.35C130.77 503.23 123 491.64 118.72 479.07C118.61 478.75 118.79 478.39 119.12 478.29C119.45 478.18 119.81 478.36 119.92 478.68C124.15 491.1 131.83 502.56 131.9 502.67C132.09 502.96 132.01 503.34 131.72 503.53C131.61 503.6 131.49 503.63 131.37 503.63Z" fill="#C12327"/>
<path d="M129.4 477.741C129.23 477.741 129.06 477.671 128.94 477.541C128.7 477.291 128.72 476.901 128.97 476.671C129.07 476.581 138.85 467.781 152.84 471.301C153.18 471.381 153.38 471.721 153.29 472.051C153.2 472.381 152.86 472.581 152.52 472.501C139.22 469.151 129.92 477.491 129.82 477.571C129.7 477.681 129.55 477.741 129.39 477.741H129.4Z" fill="#C12327"/>
<path d="M174.52 418.297C174.52 418.297 174.43 418.297 174.38 418.277C174.04 418.197 173.83 417.867 173.91 417.537C173.95 417.377 177.48 401.877 172.07 393.657C171.88 393.367 171.96 392.987 172.26 392.797C172.55 392.617 172.94 392.697 173.13 392.977C178.83 401.637 175.3 417.147 175.14 417.807C175.07 418.097 174.81 418.287 174.53 418.287L174.52 418.297Z" fill="#C12327"/>
<path d="M163.48 450.404C163.33 450.404 163.18 450.354 163.06 450.244C162.8 450.014 162.79 449.624 163.02 449.364C163.1 449.284 170.65 441.124 173.57 433.884C173.7 433.564 174.06 433.414 174.39 433.534C174.71 433.664 174.87 434.024 174.74 434.334C171.73 441.784 164.26 449.854 163.94 450.194C163.82 450.324 163.65 450.394 163.48 450.394V450.404Z" fill="#C12327"/>
<path d="M268.67 469.852C274.24 465.322 277.45 462.893 279.7 462.583C281.95 462.263 282.91 463.212 284.3 463.212C285.69 463.212 291.36 460.053 294.68 460.153C298 460.253 298.96 467.632 298.96 467.632C298.96 467.632 300.46 467.422 301.64 470.482C302.82 473.542 300.68 477.121 300.68 477.121C300.68 477.121 301.6 479.331 302 482.071C302.4 484.811 301.43 485.971 301.43 485.971C301.43 485.971 302.39 487.551 301.64 489.241C300.89 490.93 292.86 492.4 290.94 491.24C289.02 490.081 288.69 487.971 288.69 487.971C288.69 487.971 282.5 489.231 280.67 487.651C278.84 486.071 279.27 482.801 279.27 482.801C279.27 482.801 277.93 481.851 277.66 480.641C277.39 479.431 278.09 478.431 278.09 478.431C278.09 478.431 275.95 478.431 275.68 476.741C275.41 475.052 276.05 474.472 276.05 474.472L268.66 469.832L268.67 469.852Z" fill="#F29E7E"/>
<path d="M276.4 474.902C276.25 474.902 276.11 474.852 275.99 474.752C275.73 474.532 275.7 474.132 275.93 473.882C279.51 469.842 282.26 469.482 283.94 469.892C284.37 470.002 284.89 470.192 285.45 470.402C286.92 470.952 288.92 471.692 289.91 470.952C290.77 470.312 291.37 469.152 291.36 468.142C291.36 467.712 291.24 467.122 290.71 466.722C289.46 465.802 284.95 464.232 283.32 463.712C282.99 463.602 282.81 463.252 282.92 462.932C283.03 462.612 283.38 462.432 283.71 462.532C283.96 462.612 289.8 464.492 291.47 465.732C292.21 466.272 292.61 467.132 292.62 468.132C292.62 469.532 291.84 471.062 290.67 471.932C289.12 473.092 286.74 472.202 285 471.552C284.48 471.362 283.99 471.182 283.63 471.092C282.29 470.762 280.04 471.122 276.87 474.692C276.75 474.832 276.57 474.902 276.4 474.902Z" fill="#D45C48"/>
</g>
<g clip-path="url(#clip2_1_605)">
<path d="M1365.19 44.6299H1348.43V613.13H1365.19V44.6299Z" fill="#A8CED7"/>
<path d="M1445.18 29.83C1407.35 29.78 1270.51 27.99 1266.77 29.83C1263.03 31.67 1266.3 195.87 1266.77 202.77C1267.24 209.67 1446.58 202.77 1447.98 202.77C1449.38 202.77 1448.45 29.83 1445.18 29.83Z" fill="#A8CED7"/>
<path d="M1354.73 47.7695C1361.3 47.7695 1430.08 175.33 1425.41 182.38C1420.74 189.43 1287.48 190.97 1286.54 182.38C1285.61 173.79 1349.12 47.7695 1354.73 47.7695Z" fill="white"/>
<path d="M1351.85 79.35C1351.85 76.26 1354.39 73.75 1357.53 73.75C1360.67 73.75 1363.21 76.26 1363.21 79.35C1363.21 82.44 1360.67 84.95 1357.53 84.95C1354.39 84.95 1351.85 82.44 1351.85 79.35Z" fill="#A8CED7"/>
<path d="M1376.68 103.73C1371.87 96.2099 1366.4 87.0199 1363.21 86.2499C1360.02 85.4799 1349.74 86.0999 1348.34 86.2499C1346.94 86.3999 1337.75 98.9799 1337.29 101.12C1336.83 103.26 1339.47 104.49 1340.4 103.73C1341.33 102.96 1347.25 94.6899 1347.87 94.9199C1348.49 95.1499 1338.22 131.33 1339 133.02C1339.78 134.71 1344.14 135.78 1345.07 133.94C1346 132.1 1354.26 114.32 1355.81 113.55C1357.37 112.78 1363.75 132.41 1366.24 133.79C1368.73 135.17 1372.47 134.25 1372.47 132.56C1372.47 130.87 1362.97 94.9999 1364.06 94.9999C1365.15 94.9999 1370.29 104.35 1372.16 105.12C1374.03 105.89 1377.25 104.63 1376.67 103.74L1376.68 103.73Z" fill="#A8CED7"/>
<path d="M1363.21 141.29C1364.38 159.84 1365.47 173.64 1364.84 175.02C1364.22 176.4 1346.94 176.86 1347.72 175.02C1348.5 173.18 1348.19 142.36 1349.28 141.29C1350.37 140.22 1363.14 140.07 1363.21 141.29Z" fill="#A8CED7"/>
<path d="M1370.61 141.85C1376.98 156.88 1383.38 174.25 1385.24 174.87C1387.11 175.48 1406.88 174.87 1406.1 173.49C1405.32 172.11 1385.24 143.29 1383.53 142.21C1381.82 141.14 1370.17 140.8 1370.61 141.85Z" fill="#A8CED7"/>
<path d="M1338.86 141.85C1332.49 156.88 1326.09 174.25 1324.23 174.87C1322.36 175.48 1302.59 174.87 1303.37 173.49C1304.15 172.11 1324.23 143.29 1325.94 142.21C1327.65 141.14 1339.3 140.8 1338.86 141.85Z" fill="#A8CED7"/>
<path d="M1356.81 597.12C1373.98 597.12 1378.34 617.76 1378.34 649.79C1378.34 681.82 1374.92 792.62 1375.35 794.73C1375.78 796.84 1333 799.79 1333 792.62C1333 785.45 1331.72 654.85 1333 633.78C1334.28 612.71 1340.42 597.12 1356.82 597.12H1356.81Z" fill="#A8CED7"/>
</g>
<defs>
<clipPath id="clip0_1_605">
<rect width="1511.79" height="884.48" fill="white" transform="translate(13)"/>
</clipPath>
<clipPath id="clip1_1_605">
<rect width="480.7" height="575.588" fill="white" transform="translate(0 296.244)"/>
</clipPath>
<clipPath id="clip2_1_605">
<rect width="183.61" height="768.15" fill="white" transform="translate(1265 29)"/>
</clipPath>
</defs>
</svg>
