<svg width="1829" height="3090" viewBox="0 0 1829 3090" fill="none" xmlns="http://www.w3.org/2000/svg">
<path d="M397.42 758.712C397.42 471.381 630.706 238.379 918.386 238.379C1206.07 238.379 1439.35 471.381 1439.35 758.712C1439.35 981.03 1404.07 1128.56 1207.66 1184.25V1312.46C1207.66 1331.78 1191.96 1347.24 1172.84 1347.24H663.707C644.361 1347.24 628.885 1331.56 628.885 1312.46V1184.25C432.47 1128.56 397.193 980.803 397.193 758.712H397.42ZM677.59 606.409C575.4 606.409 492.783 684.152 492.783 779.853C492.783 875.554 575.628 953.297 677.59 953.297C779.553 953.297 862.398 875.554 862.398 779.853C862.398 684.152 779.553 606.409 677.59 606.409ZM974.375 779.853C974.375 875.554 1057.22 953.297 1159.18 953.297C1261.15 953.297 1343.99 875.554 1343.99 779.853C1343.99 684.152 1261.15 606.409 1159.18 606.409C1057.22 606.409 974.375 684.152 974.375 779.853ZM918.386 985.577C918.386 985.577 761.573 1103.1 918.386 1103.1C1075.2 1103.1 918.386 985.577 918.386 985.577ZM563.793 303.847L446.126 186.323C488.686 143.814 488.686 74.7093 446.126 31.9733C403.565 -10.5354 334.376 -10.5354 291.588 31.9733C254.718 68.799 249.938 125.174 276.567 167.455C234.234 140.632 177.791 145.633 140.92 182.459C98.3599 224.967 98.3599 294.072 140.92 336.808C183.481 379.317 252.67 379.317 295.458 336.808L411.986 453.196C462.513 403.413 512.811 353.402 563.337 303.847H563.793ZM1424.56 453.196L1541.09 336.808C1583.65 379.317 1652.84 379.317 1695.62 336.808C1738.19 294.3 1738.19 225.195 1695.62 182.459C1658.75 145.633 1602.31 140.859 1559.98 167.455C1586.83 125.174 1581.83 68.799 1544.96 31.9733C1502.4 -10.5354 1433.21 -10.5354 1390.42 31.9733C1347.86 74.482 1347.86 143.587 1390.42 186.323L1272.75 303.847C1323.28 353.63 1373.8 403.413 1424.1 453.196H1424.56ZM1273.21 1252.22L1390.87 1369.75C1348.31 1412.25 1348.31 1481.36 1390.87 1524.1C1433.43 1566.6 1502.62 1566.6 1545.41 1524.1C1582.28 1487.27 1587.06 1430.89 1560.43 1388.61C1602.77 1415.44 1659.21 1410.44 1696.08 1373.61C1738.64 1331.1 1738.64 1262 1696.08 1219.26C1653.52 1176.75 1584.33 1176.75 1541.54 1219.26L1425.01 1102.87C1374.49 1152.66 1324.19 1202.67 1273.66 1252.22H1273.21ZM412.442 1102.87L295.913 1219.26C253.352 1176.75 184.163 1176.75 141.375 1219.26C98.8151 1261.77 98.8151 1330.87 141.375 1373.61C178.246 1410.44 234.69 1415.21 277.022 1388.61C250.166 1430.89 255.173 1487.27 292.044 1524.1C334.604 1566.6 403.793 1566.6 446.581 1524.1C489.141 1481.59 489.141 1412.48 446.581 1369.75L564.248 1252.22C513.722 1202.44 463.195 1152.66 412.897 1102.87H412.442Z" fill="#75C4CD"/>
<path d="M1543.31 2017.65C1543.31 2017.65 1546.71 2014.25 1554.86 2008.05C1563.02 2002.17 1576.27 1994.74 1595.97 1989.48C1615.68 1984.22 1641.84 1982.05 1671.74 1988.24C1701.3 1994.12 1734.59 2009.91 1759.39 2039.01C1784.54 2067.49 1801.18 2107.73 1803.56 2152.62C1806.28 2197.81 1792.35 2247.03 1765.85 2294.4C1711.49 2388.81 1617.38 2480.44 1497.11 2563.71C1436.97 2605.5 1369.7 2645.13 1298.01 2684.44C1225.99 2723.76 1149.88 2764 1067.66 2801.45C985.444 2838.6 897.109 2874.2 800.96 2899.89C753.055 2913.21 703.112 2923.42 651.809 2929.92C600.507 2937.04 547.166 2939.83 493.486 2937.97C440.145 2936.73 382.388 2930.54 334.483 2900.82C311.041 2885.96 292.354 2862.75 286.579 2836.44C280.123 2809.81 285.899 2782.26 297.111 2757.81C319.874 2707.97 362.004 2668.65 404.133 2631.2C446.941 2593.74 494.166 2559.69 543.769 2527.19C643.316 2463.11 749.658 2403.36 859.057 2341.76C969.136 2281.4 1086.35 2223.82 1216.47 2186.98C1281.37 2168.72 1348.98 2155.71 1418.28 2150.76C1487.59 2146.12 1559.62 2148.59 1627.91 2168.72C1695.18 2188.22 1763.47 2223.82 1800.84 2283.56C1839.57 2342.69 1835.84 2419.15 1804.92 2480.75C1774.34 2544.21 1715.91 2593.43 1651.69 2629.34C1586.46 2665.25 1514.77 2690.63 1441.05 2710.44C1292.58 2749.14 1133.91 2759.66 975.252 2751.31C816.249 2743.26 656.227 2717.25 495.525 2687.85C415.005 2673.3 333.804 2657.51 253.963 2633.98C214.212 2622.22 174.461 2608.91 136.07 2592.5C98.0178 2576.41 58.9464 2557.21 29.7279 2526.57C15.4584 2511.4 4.24682 2492.21 1.18908 2471.46C-2.54817 2450.72 2.88841 2429.36 12.4014 2411.1C32.7864 2374.26 68.4601 2347.33 105.833 2327.52C181.597 2286.35 269.592 2270.25 356.228 2262.51C530.18 2249.51 707.189 2248.89 885.557 2263.75C974.572 2271.49 1063.93 2282.94 1152.6 2300.28C1197.11 2308.64 1240.94 2318.85 1285.1 2330C1328.59 2341.14 1374.46 2353.83 1412.51 2380.45C1449.88 2406.77 1478.42 2450.41 1469.59 2496.54C1460.07 2542.66 1418.96 2573.62 1379.55 2595.29C1297.67 2637.39 1206.96 2664.01 1113.19 2675.46C1066.3 2681.04 1018.74 2682.27 971.514 2679.8C924.289 2677.01 876.385 2671.13 830.858 2655.65C786.011 2640.79 741.164 2615.72 715.683 2575.48C689.522 2535.23 693.26 2483.54 716.363 2443.6C761.549 2361.88 865.173 2315.14 964.38 2323.5C1013.98 2327.83 1063.59 2347.33 1096.54 2383.24C1129.16 2418.53 1145.81 2465.58 1141.39 2512.02C1139.01 2535.23 1131.2 2558.14 1116.59 2577.95C1102.32 2597.76 1081.59 2613.24 1059.17 2624.08C1012.96 2645.44 959.283 2647.91 910.36 2637.39C861.775 2627.17 811.832 2602.1 789.409 2556.59C778.197 2534 780.914 2505.52 797.222 2485.09C812.851 2464.34 837.314 2451.65 862.795 2445.77C915.456 2435.25 965.399 2450.41 1012.96 2462.18C1060.87 2475.18 1108.77 2492.21 1150.56 2518.83C1192.69 2545.14 1227.69 2582.6 1246.37 2626.86C1265.74 2670.82 1263.7 2723.76 1238.22 2765.86C1213.42 2807.96 1173.33 2840.77 1128.48 2863.68C1083.63 2887.2 1033.35 2901.13 982.046 2906.4C879.782 2917.23 772.761 2893.7 687.144 2840.15C601.187 2786.91 535.955 2708.59 496.884 2620.98C458.152 2534 442.863 2433.7 476.499 2341.14C492.807 2295.33 524.743 2253.54 567.891 2224.75C610.7 2195.96 660.983 2179.55 711.266 2168.1C812.171 2145.5 916.135 2142.71 1017.72 2146.12C1119.31 2150.76 1221.57 2154.48 1321.12 2177.07C1419.64 2199.05 1516.13 2246.72 1575.59 2324.42C1605.15 2363.12 1622.81 2409.24 1626.21 2455.99C1629.61 2502.73 1620.44 2549.78 1602.43 2592.81C1566.76 2680.42 1494.39 2750.38 1414.21 2803.31C1374.12 2830.24 1331.31 2853.46 1287.82 2875.13C1244.33 2896.8 1200.17 2916.92 1154.3 2933.33C1063.25 2967.07 960.982 2984.09 863.134 2966.45C765.626 2950.04 676.272 2910.11 594.732 2862.75C513.192 2815.08 438.447 2756.26 382.388 2684.44C325.65 2612.93 293.374 2526.57 284.54 2439.89C275.367 2352.9 290.656 2265.3 322.253 2184.19C354.189 2103.09 404.812 2028.49 469.704 1967.19C534.257 1905.59 611.04 1855.44 694.618 1819.53C778.197 1783.93 867.891 1761.34 958.943 1753.6C1050 1745.86 1141.73 1755.45 1228.36 1778.67C1314.32 1802.82 1396.88 1845.54 1450.9 1912.4C1504.92 1979.27 1526.67 2061.3 1533.46 2140.55C1544.33 2300.28 1511.38 2458.77 1444.45 2601.48C1410.81 2672.68 1369.7 2740.47 1318.4 2801.45C1267.1 2862.13 1204.92 2915.37 1131.88 2952.21C1058.83 2988.43 975.591 3007.93 893.372 3002.98C810.473 2998.64 733.01 2964.59 672.195 2917.23C610.36 2870.49 559.737 2814.46 509.454 2760.28C459.511 2705.8 411.267 2648.84 381.369 2582.91C366.76 2550.09 357.247 2515.11 355.548 2479.82C353.849 2444.53 360.305 2409.24 371.856 2376.12C395.639 2309.57 438.107 2251.37 485.332 2199.67C580.123 2095.97 705.491 2016.41 844.788 1984.53C982.726 1952.64 1132.89 1967.81 1249.43 2034.68C1366.64 2100.61 1445.13 2206.48 1490.65 2316.07C1536.52 2426.27 1551.81 2543.59 1535.84 2654.41C1520.21 2764.93 1467.89 2869.87 1381.93 2941.69C1295.98 3013.81 1187.26 3050.96 1082.61 3070.77C976.951 3089.65 871.968 3096.16 772.421 3082.84C672.875 3070.46 581.482 3030.53 514.211 2972.33C446.261 2914.75 400.055 2842.94 373.554 2770.19C347.054 2697.13 341.279 2622.22 350.792 2553.81C369.138 2415.74 438.108 2303.68 513.532 2223.51C589.976 2143.02 672.535 2091.02 741.504 2055.73C811.153 2020.44 867.89 2000.63 906.622 1988.24C945.353 1976.17 965.399 1971.84 965.399 1971.84C965.399 1971.84 960.643 1973.38 950.79 1976.48C940.937 1979.27 926.328 1983.6 907.302 1990.1C869.25 2002.79 812.511 2022.91 743.542 2058.82C674.913 2094.73 593.033 2146.74 517.609 2226.91C443.544 2306.78 375.253 2418.22 357.926 2554.74C349.093 2622.53 354.868 2696.2 381.029 2768.02C407.19 2839.84 453.057 2910.42 519.988 2966.76C586.239 3023.72 675.592 3062.41 773.779 3074.8C871.627 3087.8 976.271 3080.99 1080.57 3062.1C1184.2 3042.29 1291.22 3005.14 1374.8 2934.57C1458.38 2864.3 1509.34 2761.83 1524.63 2653.18C1539.92 2544.21 1524.97 2428.44 1479.44 2320.09C1434.59 2212.36 1357.13 2108.35 1242.97 2044.58C1129.84 1979.58 983.065 1965.03 848.185 1996.29C712.285 2027.56 589.296 2105.57 496.205 2207.72C449.659 2258.8 408.209 2315.76 385.446 2380.14C374.234 2412.03 368.459 2445.77 369.818 2479.51C371.516 2513.26 380.69 2546.69 394.62 2578.26C423.838 2641.72 471.063 2698.06 520.667 2751.93C570.95 2805.79 621.232 2861.2 681.708 2907.01C741.504 2953.14 815.23 2985.33 894.731 2989.36C973.893 2994 1054.41 2975.12 1125.08 2940.14C1195.75 2904.54 1256.56 2852.53 1306.85 2793.1C1357.13 2733.35 1397.56 2666.49 1430.86 2596.22C1496.77 2455.68 1529.04 2298.73 1518.17 2142.09C1511.72 2064.39 1490.31 1985.15 1438.67 1921.69C1387.37 1858.23 1307.87 1817.06 1224.29 1793.53C1139.69 1770.93 1050 1761.95 960.982 1769.38C871.967 1777.12 784.313 1799.1 702.433 1834.08C539.693 1904.35 400.395 2030.96 339.24 2190.39C308.663 2269.32 293.713 2355.07 302.547 2439.58C311.041 2523.78 342.298 2607.05 397.337 2676.39C451.697 2746.35 524.744 2803.93 604.925 2850.68C685.106 2897.11 773.1 2936.11 867.211 2951.9C961.321 2968.62 1059.17 2952.83 1148.86 2919.71C1194.05 2903.3 1237.54 2883.49 1280.69 2862.13C1323.49 2840.77 1365.62 2817.86 1405.04 2791.24C1483.52 2739.23 1553.17 2671.75 1587.14 2587.86C1604.47 2546.38 1612.62 2501.8 1609.56 2457.53C1606.51 2413.27 1589.86 2370.55 1562 2334.02C1505.94 2260.35 1413.53 2214.53 1317.38 2193.17C1220.55 2171.19 1118.63 2167.17 1017.72 2162.52C916.815 2159.12 814.55 2161.91 716.023 2183.88C667.099 2195.03 618.854 2210.82 579.104 2237.75C539.013 2264.68 509.455 2303.06 494.166 2346.4C462.569 2433.7 476.499 2530.59 514.211 2614.79C551.924 2699.61 615.117 2775.76 698.016 2826.84C780.235 2878.23 882.839 2900.82 981.027 2890.61C1029.95 2885.35 1078.2 2872.03 1120.66 2849.75C1163.13 2828.08 1200.85 2797.12 1223.61 2758.43C1246.71 2720.04 1248.75 2673.3 1231.08 2632.75C1213.76 2591.88 1181.48 2556.9 1141.73 2532.14C1101.98 2506.75 1055.77 2490.35 1008.89 2477.66C962.001 2465.89 913.078 2451.96 867.891 2461.56C845.807 2466.51 825.082 2477.97 812.511 2494.37C799.941 2510.78 797.563 2532.45 806.396 2551.02C825.082 2588.79 869.929 2613.24 915.456 2622.22C961.322 2631.82 1011.26 2629.65 1052.37 2610.15C1094.16 2591.57 1122.02 2552.88 1125.42 2510.78C1129.5 2468.99 1114.21 2425.65 1084.65 2393.77C1055.09 2361.57 1009.91 2343.62 964.04 2339.59C871.967 2331.54 774.46 2375.81 733.01 2451.03C712.285 2487.87 709.228 2532.76 731.991 2568.36C754.414 2603.96 795.184 2627.48 837.993 2641.72C881.141 2656.27 927.687 2662.15 973.893 2664.94C1020.1 2667.42 1066.64 2666.18 1112.51 2660.92C1203.9 2650.08 1293.26 2623.77 1372.42 2582.91C1410.47 2562.17 1447.16 2533.38 1454.64 2494.68C1462.45 2456.3 1437.65 2417.29 1404.02 2393.46C1369.36 2369 1325.53 2356.62 1282.38 2345.47C1238.9 2334.64 1195.07 2324.11 1150.9 2316.07C1062.91 2298.73 974.232 2287.28 885.898 2279.54C708.888 2264.68 532.218 2264.99 359.626 2277.68C274.009 2285.42 188.391 2301.21 115.685 2340.52C79.6711 2359.71 46.7162 2385.1 28.3697 2417.91C9.34369 2450.72 16.1377 2490.97 43.3177 2518.21C69.4784 2546.38 106.511 2564.95 144.223 2580.74C181.936 2596.84 221.007 2610.15 260.078 2621.6C338.9 2644.51 419.76 2660.61 499.941 2675.15C660.643 2704.56 819.646 2730.57 977.629 2738.61C1135.27 2746.97 1292.24 2736.76 1438.67 2698.68C1511.38 2679.18 1582.38 2654.1 1645.92 2619.12C1708.77 2584.14 1764.83 2536.78 1794.05 2476.42C1823.95 2417.29 1827.34 2345.47 1790.99 2290.37C1756.34 2234.34 1691.1 2199.67 1625.87 2180.79C1559.28 2161.29 1489.29 2158.81 1421 2163.14C1352.71 2167.79 1285.78 2180.48 1221.91 2198.43C1093.48 2234.65 976.95 2291.61 867.211 2351.67C758.151 2412.96 651.13 2472.7 552.263 2536.16C502.999 2568.36 456.114 2602.1 413.646 2639.25C371.517 2676.08 330.407 2714.78 308.663 2762.14C297.791 2785.36 292.694 2811.05 298.47 2835.2C303.906 2859.34 320.554 2880.08 342.298 2894.01C387.145 2921.87 443.203 2928.68 495.865 2929.92C549.205 2932.09 601.527 2929.61 652.49 2922.49C703.452 2915.99 753.055 2905.78 800.62 2892.78C896.09 2867.7 984.085 2832.41 1065.96 2795.57C1147.84 2758.43 1224.29 2718.18 1295.98 2679.18C1367.66 2639.86 1434.59 2600.55 1494.73 2559.38C1614.66 2477.04 1708.77 2386.34 1763.13 2293.16C1789.63 2246.42 1803.56 2198.12 1801.18 2153.55C1799.14 2109.28 1783.18 2069.97 1758.71 2041.8C1734.59 2013.01 1702.32 1997.53 1673.44 1991.34C1644.22 1984.84 1618.4 1986.69 1599.03 1991.34C1559.62 2001.86 1546.37 2019.2 1545.69 2017.96L1543.31 2017.65Z" fill="#75C4CD"/>
</svg>
