<?xml version="1.0" encoding="utf-8"?>
<!-- Generator: Adobe Illustrator 27.5.0, SVG Export Plug-In . SVG Version: 6.00 Build 0)  -->
<svg version="1.1" id="Layer_1" xmlns="http://www.w3.org/2000/svg" xmlns:xlink="http://www.w3.org/1999/xlink" x="0px" y="0px"
	 viewBox="0 0 57.9 57.9" style="enable-background:new 0 0 57.9 57.9;" xml:space="preserve">
<style type="text/css">
	.st0{fill:#D9D9D9;filter:url(#Adobe_OpacityMaskFilter);}
	.st1{fill:#D9D9D9;}
	.st2{fill-rule:evenodd;clip-rule:evenodd;fill:#D9D9D9;stroke:#231F20;stroke-width:0.22;stroke-miterlimit:2.61;}
	.st3{mask:url(#mask0_390_13258_00000018942970251580751210000005839214798744624532_);}
	.st4{fill:#D9D9D9;}
</style>
<defs>
	<filter id="Adobe_OpacityMaskFilter" filterUnits="userSpaceOnUse" x="0" y="0" width="57.9" height="57.9">
		<feColorMatrix  type="matrix" values="1 0 0 0 0  0 1 0 0 0  0 0 1 0 0  0 0 0 1 0"/>
	</filter>
</defs>
<mask maskUnits="userSpaceOnUse" x="0" y="0" width="57.9" height="57.9" id="mask0_390_13258_00000018942970251580751210000005839214798744624532_">
	<path class="st0" d="M40.1,21.7l-4.7-9.4l-0.2-0.4c0,0,0.3,0.2,0.4-0.1c0.1-0.3,0.1-0.4-0.3-0.6C34.9,11-30.1-18.5-34.9-20.6
		c0.2-0.2,0.3-0.4,0.3-0.7c0-0.6-0.5-1.1-1.1-1.1c-0.3,0-0.5,0.1-0.7,0.3h-15.3v1.3h2.3v5.3h-2.3v0.8h2.3v4h-2.3V3.7h14.4V2.9l0,0v1
		l59.7,27.9v23.7h0v7.2h18V21.6L40.1,21.7z M-37.6-10.7h-10.7v-4h10.7L-37.6-10.7L-37.6-10.7z M-37.6-19.7v4.2h-10.7v-5.3h10.7
		l0.1,1.1L-37.6-19.7L-37.6-19.7z M31.5,11.4l1.3,0.6l0,0.1l0.7,13.1l-0.8,0l-0.3-1.7l-0.8,0V11.4L31.5,11.4z M29.7,10.7l1.5,0.7
		v12.1l-1.5,0.1V10.7z M28,9.9l1.5,0.7v13l-0.9,0l-0.1-1.9l-0.5,0V9.9z M26.3,9.1l1.5,0.7v11.9l-1.5,0V9.1z M24.6,8.4L26.1,9v12.7
		l-1.5,0V8.4z M-33.4-6.1l-1-1.7v-10.2l1,0.5V-6.1L-33.4-6.1z M-31.8-5.7l-1.3,0l-0.1-0.1v-11.8l1.4,0.6L-31.8-5.7L-31.8-5.7z
		 M-30.2-5.1l-0.4-0.6l-1,0v-11.2l1.4,0.6V-5.1z M-28.6-3.8l-0.7,0L-30-4.7v-11.4l1.4,0.6L-28.6-3.8L-28.6-3.8z M-27.1-3.8l-1.4,0
		v-11.6l1.4,0.6V-3.8z M-25.5-2l-0.2,0l-1-1.8l-0.2,0v-10.9l1.4,0.6V-2L-25.5-2z M-23.8-2.1l-1.4,0V-14l1.4,0.6V-2.1z M-22.3-0.8
		L-23-2.1l-0.7,0v-11.2l1.4,0.6L-22.3-0.8L-22.3-0.8z M-20.7-0.2l-1.3,0l-0.1-0.2v-12.2l1.4,0.6V-0.2L-20.7-0.2z M-19.1,0l-0.1-0.2
		l-1.2,0v-11.7l1.4,0.6V0z M-17.6,1.6h-0.7l-0.6-1.2v-11.5l1.4,0.6L-17.6,1.6L-17.6,1.6z M-16,1.6h-1.4v-12l1.4,0.6V1.6L-16,1.6z
		 M-14.2,3.3l-0.3,0l-0.6-1.8h-0.7V-9.7l1.5,0.7V3.3z M-13,3.3l-1,0V-8.9l1,0.4V3.3L-13,3.3z M-10.8,4.7l-0.6-1.4l-0.3,0V-7.9l1,0.4
		L-10.8,4.7L-10.8,4.7z M-9.3,5.1l-1.4,0V-7.4l1.4,0.6V5.1L-9.3,5.1z M-7.6,5.5l-0.1-0.4l-1.3,0V-6.7l1.5,0.7L-7.6,5.5L-7.6,5.5z
		 M-5.9,6.9l-1.1,0l-0.3-0.8V-6l1.4,0.6V6.9z M-4.3,6.9l-1.4,0V-5.2l1.4,0.6V6.9z M-2.7,8.7l-0.7,0l-0.3-1.8l-0.5,0V-4.5l1.4,0.6
		L-2.7,8.7L-2.7,8.7z M-1,8.7l-1.5,0V-3.8L-1-3.1V8.7z M0.6,10.6L0.6,10.6L0.4,8.7l-1.2,0V-3l1.4,0.6V10.6z M2.2,10.6H0.8V-2.3
		l1.4,0.6V10.6L2.2,10.6z M3.9,10.6H2.4V-1.6l1.5,0.7V10.6L3.9,10.6z M5.6,12.4l-1,0l-0.2-1.9H4.1V-0.8l1.5,0.7V12.4z M7.2,12.4
		l-1.4,0.1V-0.1l1.4,0.6V12.4z M8.9,14.3l-0.6,0l-0.2-2l-0.7,0V0.7l1.5,0.7L8.9,14.3L8.9,14.3z M10.4,14.3l-1.3,0V1.4L10.4,2V14.3
		L10.4,14.3z M12.6,16.1l-0.3,0l0-1.9l-1,0V2.4L12.6,3L12.6,16.1L12.6,16.1z M14.2,16.1l-1.5,0V3.1l1.5,0.7V16.1z M15.9,16l-1.5,0
		V3.8l1.5,0.7V16z M17.6,17.9l-1.4,0l0-0.2V4.6l1.5,0.7V17.9z M19.3,17.9l-1.5,0V5.3L19.3,6V17.9L19.3,17.9z M21,19.8l-0.8,0l-0.1-2
		l-0.6,0V6.1L21,6.7V19.8z M22.7,19.8l-1.5,0.1v-13l1.5,0.7V19.8z M22.9,7.6l1.5,0.7V20l0-0.3l-1.4,0.1V7.6z M23.4,43.4V32.3
		l1.9,0.9l-1.8,9.7L23.4,43.4L23.4,43.4z M37.2,58.1H24.6v-0.4h12.6V58.1z M37.2,56.6H24.6v-0.4h12.6V56.6z M37.2,55.1H24.6v-0.4
		h12.6V55.1z M37.2,53.6H24.6v-0.4h12.6V53.6z M37.2,52.2H24.6v-0.4h12.6V52.2z M37.2,50.7H24.9v-0.4h12.3V50.7z M37.2,49.2H25.3
		v-0.4h11.8V49.2z M37.2,47.7H25.7v-0.4h11.5V47.7z M37.2,46.3H26v-0.4h11.2V46.3z M37.2,44.8h-11v-0.4h11V44.8z M37.2,43.3H26.3
		v-0.4h10.8V43.3z M37.2,41.9H26.8v-0.4h10.4V41.9z M37.2,40.4H26.9V40h10.2V40.4z M37.2,38.9h-10v-0.4h10V38.9z M37.2,37.4h-9.7V37
		h9.7V37.4z M37.2,36h-9.6v-0.4h9.6V36z"/>
	<rect x="-61" y="-20.1" class="st1" width="23.7" height="1.2"/>
	<rect x="-61" y="-13.4" class="st1" width="23.7" height="0.9"/>
	<rect x="-61" y="-8.5" class="st1" width="23.7" height="14.2"/>
	<path class="st2" d="M-4.6,8.3c0,1.1-0.1,1.7-0.5,2.6c-0.2,0.5-0.6,1.6-1,1.9C-6.3,13-6,11.3-6,11.1c0.1-0.4,0-1.6,0.3-1.7
		C-5.6,9.3-4.6,8.1-4.6,8.3L-4.6,8.3z"/>
	<path class="st2" d="M-12.9,10.2l-0.1,0.4l0.2,1.7l-0.6-0.5l-0.1-0.5l-0.2,0.3l-1.3-1.4l-0.3-0.8l1.6,1.2l0.3-0.7L-12.9,10.2z"/>
</mask>
<g class="st3">
	<circle class="st4" cx="28.9" cy="28.9" r="28.9"/>
</g>
</svg>
