<svg xmlns="http://www.w3.org/2000/svg" width="210.436" height="27.18" viewBox="0 0 210.436 27.18">
  <g id="Group_39880" data-name="Group 39880" transform="translate(-862.325 -12929.828)">
    <path id="Path_63622" data-name="Path 63622" d="M1014.479,12956.488a3.12,3.12,0,1,1,3.12-3.1,3.113,3.113,0,0,1-3.12,3.1" fill="#fff"/>
    <g id="Group_39183" data-name="Group 39183">
      <path id="Path_63623" data-name="Path 63623" d="M874.144,12956.37H862.325v-.987h3.628l4.685-23.988H867.4v-.984h11.822v.984h-3.711l-4.644,23.988h3.276Zm15.953,0H877.626v-.987h3.616l-7.633-12.583,12.432-11.405H882.1v-.984h8.965v.984h-3.236l-10.242,9.468,9.081,14.521H890.1Z" fill="#fff"/>
      <path id="Path_63624" data-name="Path 63624" d="M890.436,12946.557a14.655,14.655,0,0,1,1.068-5.44,19.61,19.61,0,0,1,3.141-5.234,17.684,17.684,0,0,1,5.2-4.53,12.054,12.054,0,0,1,5.849-1.522,8.854,8.854,0,0,1,6.851,2.97,10.772,10.772,0,0,1,2.7,7.519,14.654,14.654,0,0,1-1.069,5.355,19.654,19.654,0,0,1-3.105,5.243,17.711,17.711,0,0,1-5.238,4.558,12.115,12.115,0,0,1-5.906,1.533,8.783,8.783,0,0,1-6.8-2.969A10.734,10.734,0,0,1,890.436,12946.557Zm14.687-15.74a5.658,5.658,0,0,0-4.009,1.577,13.213,13.213,0,0,0-2.984,4.966,40.745,40.745,0,0,0-1.762,6.391,32.4,32.4,0,0,0-.659,6.146,7.483,7.483,0,0,0,1.172,4.622,4.282,4.282,0,0,0,3.592,1.5,5.724,5.724,0,0,0,4.04-1.6,12.657,12.657,0,0,0,2.953-4.907,39.2,39.2,0,0,0,1.736-6.346,33.629,33.629,0,0,0,.647-6.208,7.614,7.614,0,0,0-1.151-4.643A4.227,4.227,0,0,0,905.123,12930.816Z" fill="#fff"/>
      <path id="Path_63625" data-name="Path 63625" d="M923.31,12956.37H915.6v-.987h3.221l4.713-23.988H920.3v-.984h9.431l1.787,17.029h.341l8.534-17.029h9.1v.984h-3.572l-4.713,23.988h3.346v.987H933.039v-.987h3.348l4.466-22.884h-.418l-11.84,23.871h-1.162l-2.488-23.911h-.4L920,12955.383h3.307Z" fill="#fff"/>
      <path id="Path_63626" data-name="Path 63626" d="M958.729,12956.37h-10.52v-.987h2.455l4.642-23.988h-3.234v-.984h11.412q4.155,0,6.291,1.587a5.48,5.48,0,0,1,2.136,4.691,7.329,7.329,0,0,1-.987,3.86,6.942,6.942,0,0,1-2.925,2.609,11.237,11.237,0,0,1-3.144.979,39.466,39.466,0,0,1-5.763.293h-1.484l-2.149,10.952h3.27Zm-.855-13.04h1.9a13.1,13.1,0,0,0,3.215-.277,3.691,3.691,0,0,0,1.656-.939,6.493,6.493,0,0,0,1.636-2.618,10.538,10.538,0,0,0,.59-3.571,4.4,4.4,0,0,0-1.2-3.521c-.8-.673-2.234-1.009-4.3-1.009H960.1Z" fill="#fff"/>
      <path id="Path_63627" data-name="Path 63627" d="M972.817,12956.37h-7.109v-.987h2.149l16.253-25.554h1.366l.494,25.554h3.5v.987H977.76v-.987h3.5l-.114-6.952h-7.585l-4.524,6.952h3.783Zm8.326-8.982-.23-10.494-6.726,10.494Z" fill="#fff"/>
      <path id="Path_63628" data-name="Path 63628" d="M993.15,12956.37h-.819l.99-7.418h1.239a9.535,9.535,0,0,0,2.143,5.168,5.565,5.565,0,0,0,4.293,1.786,5.946,5.946,0,0,0,4.167-1.575,5.007,5.007,0,0,0,1.712-3.82,4.334,4.334,0,0,0-.772-2.486,5.637,5.637,0,0,0-2.146-1.844l-3.282-1.669a11.8,11.8,0,0,1-4.308-3.158,6.674,6.674,0,0,1-1.024-3.879,7.666,7.666,0,0,1,2.025-5.523,7,7,0,0,1,5.3-2.122,7.7,7.7,0,0,1,2.988.543,6.556,6.556,0,0,1,2.321,1.684l1.884-1.79h.547l-1.043,6.98h-1.007a8.763,8.763,0,0,0-1.82-4.673,4.611,4.611,0,0,0-3.652-1.643,5.662,5.662,0,0,0-3.74,1.229,3.787,3.787,0,0,0-1.489,3.021,2.958,2.958,0,0,0,.562,1.842,7.1,7.1,0,0,0,2.378,1.628l3.625,1.819a9.863,9.863,0,0,1,3.905,3.174,7.8,7.8,0,0,1,1.238,4.458,8.82,8.82,0,0,1-2.407,6.447,8.536,8.536,0,0,1-6.384,2.457,7.189,7.189,0,0,1-3-.606,5.974,5.974,0,0,1-2.236-1.729Z" fill="#fff"/>
    </g>
    <path id="Path_63629" data-name="Path 63629" d="M1032.553,12943.633a8.7,8.7,0,0,0-1.76-.573,8,8,0,0,0-1.581-.18,4.862,4.862,0,0,0-3.4,1.285,5.729,5.729,0,0,0-1.064,1.326,8.531,8.531,0,0,0-.7,1.531,9.228,9.228,0,0,0-.392,1.547,8.636,8.636,0,0,0-.124,1.383,4.6,4.6,0,0,0,.23,1.563,2.426,2.426,0,0,0,.638,1,2.385,2.385,0,0,0,.975.524,4.62,4.62,0,0,0,1.218.155,9.323,9.323,0,0,0,2.293-.3,14.316,14.316,0,0,0,2.39-.843l-.7,3.405a13.549,13.549,0,0,1-2.063.63,11.418,11.418,0,0,1-2.619.287,8.017,8.017,0,0,1-2.341-.344,5.51,5.51,0,0,1-2-1.088,5.358,5.358,0,0,1-1.391-1.925,7.021,7.021,0,0,1-.523-2.864,12.793,12.793,0,0,1,.22-2.3,11.7,11.7,0,0,1,.7-2.356,11.183,11.183,0,0,1,1.22-2.21,8.5,8.5,0,0,1,1.776-1.851,8.336,8.336,0,0,1,2.4-1.26,9.29,9.29,0,0,1,3.021-.467,11.447,11.447,0,0,1,2.153.237,10.08,10.08,0,0,1,2.087.613Z" fill="#fff"/>
    <path id="Path_63630" data-name="Path 63630" d="M1041.76,12939.7a8.107,8.107,0,0,1,2.546.376,5.3,5.3,0,0,1,1.948,1.122,4.938,4.938,0,0,1,1.252,1.882,7.251,7.251,0,0,1,.443,2.645,14.005,14.005,0,0,1-.573,4.02,10.484,10.484,0,0,1-1.695,3.4,8.308,8.308,0,0,1-2.791,2.35,8.2,8.2,0,0,1-3.864.876,8.059,8.059,0,0,1-2.537-.377,5.257,5.257,0,0,1-1.956-1.121,4.932,4.932,0,0,1-1.253-1.875,7.249,7.249,0,0,1-.442-2.652,14.046,14.046,0,0,1,.572-4.019,10.538,10.538,0,0,1,1.695-3.4,8.337,8.337,0,0,1,2.791-2.349A8.2,8.2,0,0,1,1041.76,12939.7Zm-.328,3.176a3.3,3.3,0,0,0-1.44.313,3.97,3.97,0,0,0-1.179.858,5.709,5.709,0,0,0-.908,1.269,9.25,9.25,0,0,0-.648,1.547,11.275,11.275,0,0,0-.392,1.693,11.462,11.462,0,0,0-.131,1.7,3.33,3.33,0,0,0,.631,2.145,2.4,2.4,0,0,0,1.989.786,3.314,3.314,0,0,0,1.44-.312,3.99,3.99,0,0,0,1.179-.859,5.94,5.94,0,0,0,.917-1.269,8.431,8.431,0,0,0,.647-1.547,11.68,11.68,0,0,0,.384-1.7,11.48,11.48,0,0,0,.131-1.711,3.284,3.284,0,0,0-.638-2.128A2.4,2.4,0,0,0,1041.432,12942.88Z" fill="#fff"/>
    <path id="Path_63631" data-name="Path 63631" d="M1063.151,12942.471a7.048,7.048,0,0,1,2.39-2.055,6.251,6.251,0,0,1,2.914-.712,5.377,5.377,0,0,1,1.752.27,3.852,3.852,0,0,1,1.358.794,3.541,3.541,0,0,1,.885,1.277,4.51,4.51,0,0,1,.311,1.735,8.846,8.846,0,0,1-.114,1.343c-.078.491-.164.982-.262,1.474l-1.948,9.363h-3.864l1.932-9.3q.164-.787.22-1.261a6.963,6.963,0,0,0,.058-.8,2.183,2.183,0,0,0-.09-.639,1.311,1.311,0,0,0-.811-.867,2.172,2.172,0,0,0-.8-.131,3.372,3.372,0,0,0-1.848.557,4.948,4.948,0,0,0-1.49,1.522,5.776,5.776,0,0,0-.573,1.114,9.055,9.055,0,0,0-.426,1.488l-1.719,8.316h-3.863l1.932-9.3q.162-.787.22-1.261a6.934,6.934,0,0,0,.057-.8,2.187,2.187,0,0,0-.09-.639,1.37,1.37,0,0,0-.286-.515,1.351,1.351,0,0,0-.524-.353,2.172,2.172,0,0,0-.8-.131,3.343,3.343,0,0,0-1.712.474,4.881,4.881,0,0,0-1.433,1.312,6.2,6.2,0,0,0-.687,1.235,8.927,8.927,0,0,0-.491,1.629l-1.736,8.349h-3.864l3.292-15.863h3.29v2h.065a6.969,6.969,0,0,1,.918-.909,6.812,6.812,0,0,1,1.138-.761,6.5,6.5,0,0,1,1.317-.523,5.359,5.359,0,0,1,1.457-.2,4.2,4.2,0,0,1,2.473.712,3.6,3.6,0,0,1,1.39,2.055Z" fill="#fff"/>
  </g>
</svg>
