<svg xmlns="http://www.w3.org/2000/svg" xmlns:xlink="http://www.w3.org/1999/xlink" width="460" zoomAndPan="magnify" viewBox="0 0 345 62.999997" height="84" preserveAspectRatio="xMidYMid meet" version="1.0"><defs><g/></defs><g fill="#ff00ff" fill-opacity="1"><g transform="translate(-1.016213, 51.304676)"><g><path d="M 32.746094 0 L 37.746094 -5 L 37.746094 -17.5 L 32.746094 -22.496094 L 12.5 -22.496094 L 12.5 -24.996094 L 37.746094 -24.996094 L 37.746094 -34.996094 L 7.5 -34.996094 L 2.5 -29.996094 L 2.5 -17.5 L 7.5 -12.5 L 27.746094 -12.5 L 27.746094 -10 L 2.5 -10 L 2.5 0 Z M 32.746094 0 "/></g></g></g><g fill="#ff00ff" fill-opacity="1"><g transform="translate(44.577545, 51.304676)"><g><path d="M 12.5 0 L 12.5 -34.996094 L 2.5 -34.996094 L 2.5 0 Z M 12.5 0 "/></g></g></g><g fill="#ff00ff" fill-opacity="1"><g transform="translate(64.925216, 51.304676)"><g><path d="M 43.746094 0 L 43.746094 -34.996094 L 33.746094 -34.996094 L 23.847656 -21.648438 L 14 -34.996094 L 0.25 -34.996094 L 0.25 -24.996094 L 4 -24.996094 L 4 0 L 14 0 L 14 -18.25 L 23.847656 -4.898438 L 33.746094 -18.25 L 33.746094 0 Z M 43.746094 0 "/></g></g></g><g fill="#ff00ff" fill-opacity="1"><g transform="translate(116.518043, 51.304676)"><g><path d="M 32.496094 -7.5 L 37.496094 -12.5 L 37.496094 -29.996094 L 32.496094 -34.996094 L 0.25 -34.996094 L 0.25 -24.996094 L 27.496094 -24.996094 L 27.496094 -17.5 L 14 -17.5 L 14 -22.496094 L 4 -22.496094 L 4 0 L 14 0 L 14 -7.5 Z M 32.496094 -7.5 "/></g></g></g><g fill="#ff00ff" fill-opacity="1"><g transform="translate(160.862007, 51.304676)"><g><path d="M 39.996094 -5 L 39.996094 -34.996094 L 29.996094 -34.996094 L 29.996094 -10 L 14 -10 L 14 -34.996094 L 0.25 -34.996094 L 0.25 -24.996094 L 4 -24.996094 L 4 -5 L 9 0 L 34.996094 0 Z M 39.996094 -5 "/></g></g></g><g fill="#ff00ff" fill-opacity="1"><g transform="translate(208.705424, 51.304676)"><g><path d="M 36.496094 0 L 36.496094 -10 L 14 -10 L 14 -34.996094 L 0.25 -34.996094 L 0.25 -24.996094 L 4 -24.996094 L 4 0 Z M 36.496094 0 "/></g></g></g><g fill="#ff00ff" fill-opacity="1"><g transform="translate(251.049682, 51.304676)"><g><path d="M 44.144531 0 L 27.796875 -34.996094 L 8.398438 -34.996094 L 8.398438 -24.996094 L 12.148438 -24.996094 L 0.5 0 L 11.5 0 L 13.796875 -5 L 30.796875 -5 L 33.148438 0 Z M 26.097656 -15 L 18.449219 -15 L 22.097656 -24.996094 L 22.449219 -24.996094 Z M 26.097656 -15 "/></g></g></g><g fill="#ff00ff" fill-opacity="1"><g transform="translate(301.042757, 51.304676)"><g><path d="M 37.496094 0 L 37.496094 -34.996094 L 27.496094 -34.996094 L 27.496094 -16.75 L 14 -34.996094 L 0.25 -34.996094 L 0.25 -24.996094 L 4 -24.996094 L 4 0 L 14 0 L 14 -18.25 L 27.496094 0 Z M 37.496094 0 "/></g></g></g><g fill="#00ffff" fill-opacity="1"><g transform="translate(3.946512, 50.69533)"><g><path d="M 32.746094 0 L 37.746094 -5 L 37.746094 -17.5 L 32.746094 -22.496094 L 12.5 -22.496094 L 12.5 -24.996094 L 37.746094 -24.996094 L 37.746094 -34.996094 L 7.5 -34.996094 L 2.5 -29.996094 L 2.5 -17.5 L 7.5 -12.5 L 27.746094 -12.5 L 27.746094 -10 L 2.5 -10 L 2.5 0 Z M 32.746094 0 "/></g></g></g><g fill="#00ffff" fill-opacity="1"><g transform="translate(49.54027, 50.69533)"><g><path d="M 12.5 0 L 12.5 -34.996094 L 2.5 -34.996094 L 2.5 0 Z M 12.5 0 "/></g></g></g><g fill="#00ffff" fill-opacity="1"><g transform="translate(69.887941, 50.69533)"><g><path d="M 43.746094 0 L 43.746094 -34.996094 L 33.746094 -34.996094 L 23.847656 -21.648438 L 14 -34.996094 L 0.25 -34.996094 L 0.25 -24.996094 L 4 -24.996094 L 4 0 L 14 0 L 14 -18.25 L 23.847656 -4.898438 L 33.746094 -18.25 L 33.746094 0 Z M 43.746094 0 "/></g></g></g><g fill="#00ffff" fill-opacity="1"><g transform="translate(121.480769, 50.69533)"><g><path d="M 32.496094 -7.5 L 37.496094 -12.5 L 37.496094 -29.996094 L 32.496094 -34.996094 L 0.25 -34.996094 L 0.25 -24.996094 L 27.496094 -24.996094 L 27.496094 -17.5 L 14 -17.5 L 14 -22.496094 L 4 -22.496094 L 4 0 L 14 0 L 14 -7.5 Z M 32.496094 -7.5 "/></g></g></g><g fill="#00ffff" fill-opacity="1"><g transform="translate(165.824732, 50.69533)"><g><path d="M 39.996094 -5 L 39.996094 -34.996094 L 29.996094 -34.996094 L 29.996094 -10 L 14 -10 L 14 -34.996094 L 0.25 -34.996094 L 0.25 -24.996094 L 4 -24.996094 L 4 -5 L 9 0 L 34.996094 0 Z M 39.996094 -5 "/></g></g></g><g fill="#00ffff" fill-opacity="1"><g transform="translate(213.66815, 50.69533)"><g><path d="M 36.496094 0 L 36.496094 -10 L 14 -10 L 14 -34.996094 L 0.25 -34.996094 L 0.25 -24.996094 L 4 -24.996094 L 4 0 Z M 36.496094 0 "/></g></g></g><g fill="#00ffff" fill-opacity="1"><g transform="translate(256.012407, 50.69533)"><g><path d="M 44.144531 0 L 27.796875 -34.996094 L 8.398438 -34.996094 L 8.398438 -24.996094 L 12.148438 -24.996094 L 0.5 0 L 11.5 0 L 13.796875 -5 L 30.796875 -5 L 33.148438 0 Z M 26.097656 -15 L 18.449219 -15 L 22.097656 -24.996094 L 22.449219 -24.996094 Z M 26.097656 -15 "/></g></g></g><g fill="#00ffff" fill-opacity="1"><g transform="translate(306.005483, 50.69533)"><g><path d="M 37.496094 0 L 37.496094 -34.996094 L 27.496094 -34.996094 L 27.496094 -16.75 L 14 -34.996094 L 0.25 -34.996094 L 0.25 -24.996094 L 4 -24.996094 L 4 0 L 14 0 L 14 -18.25 L 27.496094 0 Z M 37.496094 0 "/></g></g></g><g fill="#333333" fill-opacity="1"><g transform="translate(1.46515, 51.000003)"><g><path d="M 32.746094 0 L 37.746094 -5 L 37.746094 -17.5 L 32.746094 -22.496094 L 12.5 -22.496094 L 12.5 -24.996094 L 37.746094 -24.996094 L 37.746094 -34.996094 L 7.5 -34.996094 L 2.5 -29.996094 L 2.5 -17.5 L 7.5 -12.5 L 27.746094 -12.5 L 27.746094 -10 L 2.5 -10 L 2.5 0 Z M 32.746094 0 "/></g></g></g><g fill="#333333" fill-opacity="1"><g transform="translate(47.058908, 51.000003)"><g><path d="M 12.5 0 L 12.5 -34.996094 L 2.5 -34.996094 L 2.5 0 Z M 12.5 0 "/></g></g></g><g fill="#333333" fill-opacity="1"><g transform="translate(67.406578, 51.000003)"><g><path d="M 43.746094 0 L 43.746094 -34.996094 L 33.746094 -34.996094 L 23.847656 -21.648438 L 14 -34.996094 L 0.25 -34.996094 L 0.25 -24.996094 L 4 -24.996094 L 4 0 L 14 0 L 14 -18.25 L 23.847656 -4.898438 L 33.746094 -18.25 L 33.746094 0 Z M 43.746094 0 "/></g></g></g><g fill="#333333" fill-opacity="1"><g transform="translate(118.999406, 51.000003)"><g><path d="M 32.496094 -7.5 L 37.496094 -12.5 L 37.496094 -29.996094 L 32.496094 -34.996094 L 0.25 -34.996094 L 0.25 -24.996094 L 27.496094 -24.996094 L 27.496094 -17.5 L 14 -17.5 L 14 -22.496094 L 4 -22.496094 L 4 0 L 14 0 L 14 -7.5 Z M 32.496094 -7.5 "/></g></g></g><g fill="#333333" fill-opacity="1"><g transform="translate(163.34337, 51.000003)"><g><path d="M 39.996094 -5 L 39.996094 -34.996094 L 29.996094 -34.996094 L 29.996094 -10 L 14 -10 L 14 -34.996094 L 0.25 -34.996094 L 0.25 -24.996094 L 4 -24.996094 L 4 -5 L 9 0 L 34.996094 0 Z M 39.996094 -5 "/></g></g></g><g fill="#333333" fill-opacity="1"><g transform="translate(211.186787, 51.000003)"><g><path d="M 36.496094 0 L 36.496094 -10 L 14 -10 L 14 -34.996094 L 0.25 -34.996094 L 0.25 -24.996094 L 4 -24.996094 L 4 0 Z M 36.496094 0 "/></g></g></g><g fill="#333333" fill-opacity="1"><g transform="translate(253.531045, 51.000003)"><g><path d="M 44.144531 0 L 27.796875 -34.996094 L 8.398438 -34.996094 L 8.398438 -24.996094 L 12.148438 -24.996094 L 0.5 0 L 11.5 0 L 13.796875 -5 L 30.796875 -5 L 33.148438 0 Z M 26.097656 -15 L 18.449219 -15 L 22.097656 -24.996094 L 22.449219 -24.996094 Z M 26.097656 -15 "/></g></g></g><g fill="#333333" fill-opacity="1"><g transform="translate(303.52412, 51.000003)"><g><path d="M 37.496094 0 L 37.496094 -34.996094 L 27.496094 -34.996094 L 27.496094 -16.75 L 14 -34.996094 L 0.25 -34.996094 L 0.25 -24.996094 L 4 -24.996094 L 4 0 L 14 0 L 14 -18.25 L 27.496094 0 Z M 37.496094 0 "/></g></g></g></svg>